{"channels": [{"id": 0, "states": [{"on": true, "note": 84, "velocity": 101, "until": 0}, {"on": false, "note": 0, "velocity": 0, "until": 5.399999999999976}, {"on": false, "note": 84, "velocity": 0, "until": 5.399999999999976}, {"on": true, "note": 88, "velocity": 101, "until": 5.399999999999976}, {"on": true, "note": 79, "velocity": 101, "until": 6.165956999999978}, {"on": false, "note": 79, "velocity": 0, "until": 6.165956999999978}, {"on": false, "note": 88, "velocity": 0, "until": 6.676594999999979}, {"on": true, "note": 77, "velocity": 101, "until": 6.676594999999979}, {"on": true, "note": 89, "velocity": 101, "until": 7.4425519999999805}, {"on": false, "note": 89, "velocity": 0, "until": 7.4425519999999805}, {"on": false, "note": 77, "velocity": 0, "until": 9.66747499999999}, {"on": true, "note": 84, "velocity": 101, "until": 13.267474999999962}, {"on": false, "note": 84, "velocity": 0, "until": 13.267474999999962}, {"on": true, "note": 84, "velocity": 101, "until": 13.267474999999962}, {"on": true, "note": 90, "velocity": 101, "until": 14.067474799999959}, {"on": false, "note": 90, "velocity": 0, "until": 14.067474799999959}, {"on": false, "note": 84, "velocity": 0, "until": 14.600807999999958}, {"on": true, "note": 91, "velocity": 101, "until": 14.600807999999958}, {"on": true, "note": 83, "velocity": 101, "until": 15.400807799999955}, {"on": false, "note": 83, "velocity": 0, "until": 15.400807799999955}, {"on": false, "note": 91, "velocity": 0, "until": 17.555761999999945}, {"on": true, "note": 81, "velocity": 73, "until": 17.555761999999945}, {"on": true, "note": 77, "velocity": 73, "until": 18.155761999999974}, {"on": false, "note": 77, "velocity": 0, "until": 18.155761999999974}, {"on": false, "note": 81, "velocity": 0, "until": 18.755761999999976}, {"on": true, "note": 79, "velocity": 77, "until": 18.755761999999976}, {"on": true, "note": 76, "velocity": 77, "until": 19.422428499999988}, {"on": false, "note": 76, "velocity": 0, "until": 19.422428499999988}, {"on": false, "note": 79, "velocity": 0, "until": 21.313583999999985}, {"on": true, "note": 74, "velocity": 87, "until": 21.313583999999985}, {"on": true, "note": 77, "velocity": 87, "until": 21.913584000000018}, {"on": false, "note": 77, "velocity": 0, "until": 21.913584000000018}, {"on": false, "note": 74, "velocity": 0, "until": 22.51358400000002}, {"on": true, "note": 76, "velocity": 91, "until": 22.51358400000002}, {"on": true, "note": 72, "velocity": 91, "until": 23.211258000000043}, {"on": false, "note": 72, "velocity": 0, "until": 23.211258000000043}, {"on": false, "note": 76, "velocity": 0, "until": 23.961258000000043}, {"on": true, "note": 74, "velocity": 96, "until": 24.369421000000056}, {"on": false, "note": 74, "velocity": 0, "until": 24.369421000000056}, {"on": true, "note": 77, "velocity": 97, "until": 24.777584000000058}, {"on": false, "note": 77, "velocity": 0, "until": 24.777584000000058}, {"on": true, "note": 81, "velocity": 99, "until": 25.185747000000056}, {"on": false, "note": 81, "velocity": 0, "until": 25.185747000000056}, {"on": true, "note": 67, "velocity": 101, "until": 25.185747000000056}, {"on": true, "note": 72, "velocity": 101, "until": 27.119080000000057}, {"on": false, "note": 72, "velocity": 0, "until": 27.119080000000057}, {"on": true, "note": 74, "velocity": 101, "until": 27.269080000000056}, {"on": false, "note": 74, "velocity": 0, "until": 27.269080000000056}, {"on": true, "note": 72, "velocity": 101, "until": 27.419080000000054}, {"on": false, "note": 72, "velocity": 0, "until": 27.419080000000054}, {"on": true, "note": 71, "velocity": 101, "until": 27.569080000000053}, {"on": false, "note": 71, "velocity": 0, "until": 27.569080000000053}, {"on": true, "note": 72, "velocity": 101, "until": 27.71908000000005}, {"on": false, "note": 72, "velocity": 0, "until": 27.71908000000005}, {"on": false, "note": 67, "velocity": 0, "until": 27.71908000000005}, {"on": true, "note": 76, "velocity": 101, "until": 27.71908000000005}, {"on": true, "note": 71, "velocity": 101, "until": 28.61908000000008}, {"on": false, "note": 76, "velocity": 0, "until": 28.61908000000008}, {"on": true, "note": 74, "velocity": 101, "until": 28.91908000000009}, {"on": false, "note": 74, "velocity": 0, "until": 28.91908000000009}, {"on": false, "note": 71, "velocity": 0, "until": 28.91908000000009}, {"on": true, "note": 72, "velocity": 101, "until": 29.571253500000086}, {"on": false, "note": 72, "velocity": 0, "until": 30.223427000000083}, {"on": true, "note": 91, "velocity": 91, "until": 30.473427000000086}, {"on": false, "note": 91, "velocity": 0, "until": 30.62342700000009}, {"on": true, "note": 91, "velocity": 91, "until": 30.873427000000095}, {"on": false, "note": 91, "velocity": 0, "until": 31.023427000000098}, {"on": true, "note": 91, "velocity": 91, "until": 31.273427000000098}, {"on": false, "note": 91, "velocity": 0, "until": 31.4234270000001}, {"on": true, "note": 79, "velocity": 101, "until": 31.4234270000001}, {"on": true, "note": 91, "velocity": 91, "until": 32.023427000000176}, {"on": false, "note": 91, "velocity": 0, "until": 32.023427000000176}, {"on": false, "note": 79, "velocity": 0, "until": 33.927774000000156}, {"on": true, "note": 91, "velocity": 91, "until": 34.17777400000015}, {"on": false, "note": 91, "velocity": 0, "until": 34.32777400000015}, {"on": true, "note": 91, "velocity": 91, "until": 34.57777400000014}, {"on": false, "note": 91, "velocity": 0, "until": 34.72777400000014}, {"on": true, "note": 91, "velocity": 91, "until": 34.97777400000014}, {"on": false, "note": 91, "velocity": 0, "until": 35.12777400000014}, {"on": true, "note": 91, "velocity": 91, "until": 35.12777400000014}, {"on": true, "note": 79, "velocity": 101, "until": 35.7660715000001}, {"on": false, "note": 79, "velocity": 0, "until": 35.7660715000001}, {"on": false, "note": 91, "velocity": 0, "until": 38.385675333333474}, {"on": true, "note": 91, "velocity": 101, "until": 38.6574142916668}, {"on": false, "note": 91, "velocity": 0, "until": 38.8204576666668}, {"on": true, "note": 89, "velocity": 101, "until": 39.09219662500013}, {"on": false, "note": 89, "velocity": 0, "until": 39.25524000000013}, {"on": true, "note": 87, "velocity": 101, "until": 39.51034187500013}, {"on": false, "note": 87, "velocity": 0, "until": 39.66340300000013}, {"on": true, "note": 86, "velocity": 101, "until": 39.91850487500013}, {"on": false, "note": 86, "velocity": 0, "until": 40.07156600000013}, {"on": true, "note": 84, "velocity": 101, "until": 40.32666787500013}, {"on": false, "note": 84, "velocity": 0, "until": 40.479729000000134}, {"on": true, "note": 84, "velocity": 101, "until": 41.46873975000011}, {"on": false, "note": 84, "velocity": 0, "until": 41.46873975000011}, {"on": true, "note": 83, "velocity": 101, "until": 41.79841000000011}, {"on": false, "note": 83, "velocity": 0, "until": 41.79841000000011}, {"on": true, "note": 82, "velocity": 101, "until": 44.22265200000016}, {"on": false, "note": 82, "velocity": 0, "until": 47.92699900000011}, {"on": true, "note": 84, "velocity": 86, "until": 48.03569458333344}, {"on": false, "note": 84, "velocity": 0, "until": 48.03569458333344}, {"on": true, "note": 86, "velocity": 86, "until": 48.14439016666677}, {"on": false, "note": 86, "velocity": 0, "until": 48.14439016666677}, {"on": true, "note": 84, "velocity": 86, "until": 48.36178133333343}, {"on": false, "note": 84, "velocity": 0, "until": 48.36178133333343}, {"on": true, "note": 82, "velocity": 86, "until": 48.7422158750001}, {"on": false, "note": 82, "velocity": 0, "until": 48.79656366666676}, {"on": true, "note": 82, "velocity": 86, "until": 49.035693950000095}, {"on": false, "note": 82, "velocity": 0, "until": 49.231346000000094}, {"on": true, "note": 84, "velocity": 86, "until": 49.331346000000096}, {"on": false, "note": 84, "velocity": 0, "until": 49.331346000000096}, {"on": true, "note": 86, "velocity": 86, "until": 49.4313460000001}, {"on": false, "note": 86, "velocity": 0, "until": 49.4313460000001}, {"on": true, "note": 84, "velocity": 86, "until": 49.63134600000009}, {"on": false, "note": 84, "velocity": 0, "until": 49.63134600000009}, {"on": true, "note": 82, "velocity": 86, "until": 49.981346000000094}, {"on": false, "note": 82, "velocity": 0, "until": 50.03134600000009}, {"on": true, "note": 82, "velocity": 86, "until": 50.25134600000009}, {"on": false, "note": 82, "velocity": 0, "until": 50.43134600000009}, {"on": true, "note": 87, "velocity": 86, "until": 50.831346000000096}, {"on": false, "note": 87, "velocity": 0, "until": 50.831346000000096}, {"on": true, "note": 82, "velocity": 86, "until": 51.1813460000001}, {"on": false, "note": 82, "velocity": 0, "until": 51.231346000000094}, {"on": true, "note": 82, "velocity": 86, "until": 51.45134600000009}, {"on": false, "note": 82, "velocity": 0, "until": 55.335693000000035}, {"on": true, "note": 84, "velocity": 86, "until": 55.444388583333364}, {"on": false, "note": 84, "velocity": 0, "until": 55.444388583333364}, {"on": true, "note": 86, "velocity": 86, "until": 55.55308416666669}, {"on": false, "note": 86, "velocity": 0, "until": 55.55308416666669}, {"on": true, "note": 84, "velocity": 86, "until": 55.77047533333336}, {"on": false, "note": 84, "velocity": 0, "until": 55.77047533333336}, {"on": true, "note": 82, "velocity": 86, "until": 56.150909875000025}, {"on": false, "note": 82, "velocity": 0, "until": 56.20525766666669}, {"on": true, "note": 82, "velocity": 86, "until": 56.44438795000002}, {"on": false, "note": 82, "velocity": 0, "until": 56.64004000000002}, {"on": true, "note": 84, "velocity": 86, "until": 56.74004000000002}, {"on": false, "note": 84, "velocity": 0, "until": 56.74004000000002}, {"on": true, "note": 86, "velocity": 86, "until": 56.84004000000002}, {"on": false, "note": 86, "velocity": 0, "until": 56.84004000000002}, {"on": true, "note": 84, "velocity": 86, "until": 57.04004000000002}, {"on": false, "note": 84, "velocity": 0, "until": 57.04004000000002}, {"on": true, "note": 82, "velocity": 86, "until": 57.39004000000001}, {"on": false, "note": 82, "velocity": 0, "until": 57.44004000000001}, {"on": true, "note": 82, "velocity": 86, "until": 57.66004}, {"on": false, "note": 82, "velocity": 0, "until": 57.84004}, {"on": true, "note": 87, "velocity": 86, "until": 58.24004000000001}, {"on": false, "note": 87, "velocity": 0, "until": 58.24004000000001}, {"on": true, "note": 82, "velocity": 86, "until": 58.59004000000001}, {"on": false, "note": 82, "velocity": 0, "until": 58.640040000000006}, {"on": true, "note": 82, "velocity": 86, "until": 58.90194468333332}, {"on": false, "note": 82, "velocity": 0, "until": 59.11623033333331}, {"on": true, "note": 83, "velocity": 101, "until": 59.11623033333331}, {"on": true, "note": 77, "velocity": 101, "until": 59.79804833333322}, {"on": false, "note": 77, "velocity": 0, "until": 59.79804833333322}, {"on": false, "note": 83, "velocity": 0, "until": 61.67986633333321}, {"on": true, "note": 80, "velocity": 101, "until": 61.92986633333321}, {"on": false, "note": 80, "velocity": 0, "until": 62.07986633333321}, {"on": true, "note": 80, "velocity": 101, "until": 62.32986633333321}, {"on": false, "note": 80, "velocity": 0, "until": 62.479866333333206}, {"on": true, "note": 80, "velocity": 101, "until": 62.770563833333206}, {"on": false, "note": 80, "velocity": 0, "until": 62.94498233333321}, {"on": true, "note": 75, "velocity": 101, "until": 62.94498233333321}, {"on": true, "note": 79, "velocity": 101, "until": 63.626800333333115}, {"on": false, "note": 79, "velocity": 0, "until": 63.626800333333115}, {"on": false, "note": 75, "velocity": 0, "until": 65.50861833333313}, {"on": true, "note": 79, "velocity": 101, "until": 65.75861833333313}, {"on": false, "note": 79, "velocity": 0, "until": 65.90861833333314}, {"on": true, "note": 79, "velocity": 101, "until": 66.15861833333314}, {"on": false, "note": 79, "velocity": 0, "until": 66.30861833333314}, {"on": true, "note": 79, "velocity": 101, "until": 66.59931583333314}, {"on": false, "note": 79, "velocity": 0, "until": 66.77373433333314}, {"on": true, "note": 84, "velocity": 101, "until": 66.77373433333314}, {"on": true, "note": 80, "velocity": 101, "until": 67.42590783333343}, {"on": false, "note": 80, "velocity": 0, "until": 67.42590783333343}, {"on": false, "note": 84, "velocity": 0, "until": 74.51499850000009}, {"on": true, "note": 84, "velocity": 101, "until": 74.98011450000007}, {"on": false, "note": 84, "velocity": 0, "until": 74.98011450000007}, {"on": true, "note": 83, "velocity": 101, "until": 75.44523050000005}, {"on": false, "note": 83, "velocity": 0, "until": 75.44523050000005}, {"on": true, "note": 84, "velocity": 101, "until": 75.91034650000003}, {"on": false, "note": 84, "velocity": 0, "until": 75.91034650000003}, {"on": true, "note": 87, "velocity": 101, "until": 76.34512883333339}, {"on": false, "note": 87, "velocity": 0, "until": 76.34512883333339}, {"on": true, "note": 84, "velocity": 101, "until": 76.77991116666672}, {"on": false, "note": 84, "velocity": 0, "until": 76.77991116666672}, {"on": true, "note": 80, "velocity": 101, "until": 77.21469350000005}, {"on": false, "note": 80, "velocity": 0, "until": 77.21469350000005}, {"on": true, "note": 79, "velocity": 101, "until": 77.64947583333344}, {"on": false, "note": 79, "velocity": 0, "until": 77.64947583333344}, {"on": true, "note": 85, "velocity": 101, "until": 78.08425816666681}, {"on": false, "note": 85, "velocity": 0, "until": 78.08425816666681}, {"on": true, "note": 82, "velocity": 101, "until": 78.30164933333349}, {"on": false, "note": 82, "velocity": 0, "until": 78.30164933333349}, {"on": true, "note": 79, "velocity": 101, "until": 78.51904050000016}, {"on": false, "note": 79, "velocity": 0, "until": 78.51904050000016}, {"on": true, "note": 80, "velocity": 101, "until": 79.91438850000013}, {"on": false, "note": 80, "velocity": 0, "until": 79.91438850000013}, {"on": true, "note": 84, "velocity": 101, "until": 79.91438850000013}, {"on": true, "note": 90, "velocity": 101, "until": 81.11003991666705}, {"on": false, "note": 90, "velocity": 0, "until": 81.11003991666705}, {"on": false, "note": 84, "velocity": 0, "until": 81.21873550000042}, {"on": true, "note": 84, "velocity": 101, "until": 81.21873550000042}, {"on": true, "note": 90, "velocity": 101, "until": 82.41438691666734}, {"on": false, "note": 90, "velocity": 0, "until": 82.41438691666734}, {"on": false, "note": 84, "velocity": 0, "until": 82.52308250000073}, {"on": true, "note": 88, "velocity": 101, "until": 82.52308250000073}, {"on": true, "note": 91, "velocity": 101, "until": 84.97742950000124}, {"on": false, "note": 91, "velocity": 0, "until": 84.97742950000124}, {"on": false, "note": 88, "velocity": 0, "until": 85.02742950000125}, {"on": true, "note": 89, "velocity": 101, "until": 85.02742950000125}, {"on": true, "note": 86, "velocity": 101, "until": 85.42742950000127}, {"on": false, "note": 86, "velocity": 0, "until": 85.42742950000127}, {"on": false, "note": 89, "velocity": 0, "until": 85.42742950000127}, {"on": true, "note": 83, "velocity": 101, "until": 85.42742950000127}, {"on": true, "note": 86, "velocity": 101, "until": 85.82742950000127}, {"on": false, "note": 86, "velocity": 0, "until": 85.82742950000127}, {"on": false, "note": 83, "velocity": 0, "until": 85.82742950000127}, {"on": true, "note": 83, "velocity": 101, "until": 85.82742950000127}, {"on": true, "note": 77, "velocity": 101, "until": 86.3036198333346}, {"on": false, "note": 77, "velocity": 0, "until": 86.3036198333346}, {"on": false, "note": 83, "velocity": 0, "until": 86.3036198333346}, {"on": true, "note": 76, "velocity": 101, "until": 86.3036198333346}, {"on": true, "note": 84, "velocity": 101, "until": 87.6079668333348}, {"on": false, "note": 84, "velocity": 0, "until": 87.6079668333348}, {"on": false, "note": 76, "velocity": 0, "until": 92.56685916666832}, {"on": true, "note": 84, "velocity": 71, "until": 92.73685916666832}, {"on": false, "note": 84, "velocity": 0, "until": 92.96685916666833}, {"on": true, "note": 84, "velocity": 81, "until": 93.13685916666833}, {"on": false, "note": 84, "velocity": 0, "until": 93.36685916666833}, {"on": true, "note": 84, "velocity": 91, "until": 93.569240058335}, {"on": false, "note": 84, "velocity": 0, "until": 93.84304950000165}, {"on": true, "note": 84, "velocity": 101, "until": 95.14739650000169}, {"on": false, "note": 84, "velocity": 0, "until": 95.14739650000169}, {"on": true, "note": 84, "velocity": 101, "until": 95.14739650000169}, {"on": true, "note": 90, "velocity": 101, "until": 95.39739650000173}, {"on": false, "note": 90, "velocity": 0, "until": 95.39739650000173}, {"on": false, "note": 84, "velocity": 0, "until": 95.54739650000177}, {"on": true, "note": 84, "velocity": 101, "until": 95.54739650000177}, {"on": true, "note": 90, "velocity": 101, "until": 95.79739650000182}, {"on": false, "note": 90, "velocity": 0, "until": 95.79739650000182}, {"on": false, "note": 84, "velocity": 0, "until": 95.94739650000186}, {"on": true, "note": 84, "velocity": 101, "until": 95.94739650000186}, {"on": true, "note": 90, "velocity": 101, "until": 96.19739650000191}, {"on": false, "note": 90, "velocity": 0, "until": 96.19739650000191}, {"on": false, "note": 84, "velocity": 0, "until": 96.34739650000195}, {"on": true, "note": 84, "velocity": 101, "until": 96.34739650000195}, {"on": true, "note": 90, "velocity": 101, "until": 96.59739650000199}, {"on": false, "note": 90, "velocity": 0, "until": 96.59739650000199}, {"on": false, "note": 84, "velocity": 0, "until": 96.74739650000203}, {"on": true, "note": 84, "velocity": 101, "until": 96.74739650000203}, {"on": true, "note": 90, "velocity": 101, "until": 96.99739650000204}, {"on": false, "note": 90, "velocity": 0, "until": 96.99739650000204}, {"on": false, "note": 84, "velocity": 0, "until": 97.14739650000206}, {"on": true, "note": 90, "velocity": 101, "until": 97.14739650000206}, {"on": true, "note": 84, "velocity": 101, "until": 97.39739650000207}, {"on": false, "note": 84, "velocity": 0, "until": 97.39739650000207}, {"on": false, "note": 90, "velocity": 0, "until": 97.61798462500211}, {"on": true, "note": 84, "velocity": 101, "until": 97.61798462500211}, {"on": true, "note": 88, "velocity": 120, "until": 98.92233162500233}, {"on": false, "note": 88, "velocity": 0, "until": 98.92233162500233}, {"on": true, "note": 91, "velocity": 120, "until": 99.32233162500236}, {"on": false, "note": 91, "velocity": 0, "until": 99.32233162500236}, {"on": true, "note": 88, "velocity": 120, "until": 99.72233162500238}, {"on": false, "note": 88, "velocity": 0, "until": 99.72233162500238}, {"on": true, "note": 84, "velocity": 120, "until": 100.12233162500242}, {"on": false, "note": 84, "velocity": 0, "until": 100.12233162500242}, {"on": false, "note": 84, "velocity": 0, "until": 100.12233162500242}, {"on": true, "note": 91, "velocity": 105, "until": 100.12233162500242}, {"on": true, "note": 83, "velocity": 101, "until": 100.54786329166907}, {"on": false, "note": 91, "velocity": 0, "until": 100.54786329166907}, {"on": true, "note": 89, "velocity": 105, "until": 100.97339495833575}, {"on": false, "note": 89, "velocity": 0, "until": 100.97339495833575}, {"on": true, "note": 86, "velocity": 105, "until": 101.46662487500241}, {"on": false, "note": 86, "velocity": 0, "until": 101.46662487500241}, {"on": false, "note": 83, "velocity": 0, "until": 101.46662487500241}, {"on": true, "note": 86, "velocity": 115, "until": 101.59482995833575}, {"on": false, "note": 86, "velocity": 0, "until": 101.59482995833575}, {"on": true, "note": 84, "velocity": 104, "until": 101.97944520833576}, {"on": false, "note": 84, "velocity": 0, "until": 101.97944520833576}, {"on": true, "note": 83, "velocity": 104, "until": 102.4049768750024}, {"on": false, "note": 83, "velocity": 0, "until": 102.4049768750024}, {"on": true, "note": 84, "velocity": 104, "until": 102.83050854166905}, {"on": false, "note": 84, "velocity": 0, "until": 102.83050854166905}, {"on": true, "note": 88, "velocity": 91, "until": 103.23867154166905}, {"on": false, "note": 88, "velocity": 0, "until": 103.23867154166905}, {"on": true, "note": 86, "velocity": 90, "until": 103.64683454166905}, {"on": false, "note": 86, "velocity": 0, "until": 103.64683454166905}, {"on": true, "note": 83, "velocity": 89, "until": 104.05499754166905}, {"on": false, "note": 83, "velocity": 0, "until": 104.05499754166905}, {"on": true, "note": 86, "velocity": 87, "until": 104.48052920833572}, {"on": false, "note": 86, "velocity": 0, "until": 104.48052920833572}, {"on": true, "note": 84, "velocity": 86, "until": 104.9060608750024}, {"on": false, "note": 84, "velocity": 0, "until": 104.9060608750024}, {"on": true, "note": 81, "velocity": 85, "until": 105.38630379166906}, {"on": false, "note": 81, "velocity": 0, "until": 105.38630379166906}, {"on": true, "note": 79, "velocity": 93, "until": 107.21643412500238}, {"on": false, "note": 79, "velocity": 0, "until": 107.21643412500238}, {"on": true, "note": 76, "velocity": 88, "until": 107.65121645833571}, {"on": false, "note": 76, "velocity": 0, "until": 107.65121645833571}, {"on": true, "note": 72, "velocity": 87, "until": 108.08599879166904}, {"on": false, "note": 72, "velocity": 0, "until": 108.08599879166904}, {"on": true, "note": 79, "velocity": 85, "until": 108.5207811250024}, {"on": false, "note": 79, "velocity": 0, "until": 108.5207811250024}, {"on": true, "note": 77, "velocity": 84, "until": 108.95556345833573}, {"on": false, "note": 77, "velocity": 0, "until": 108.95556345833573}, {"on": true, "note": 74, "velocity": 83, "until": 109.43563566666906}, {"on": false, "note": 74, "velocity": 0, "until": 109.43563566666906}, {"on": true, "note": 72, "velocity": 81, "until": 110.92855666666904}, {"on": false, "note": 72, "velocity": 0, "until": 119.93429158333564}, {"on": true, "note": 79, "velocity": 116, "until": 119.93429158333564}, {"on": true, "note": 76, "velocity": 101, "until": 120.32055658333562}, {"on": false, "note": 76, "velocity": 0, "until": 120.44931158333561}, {"on": false, "note": 79, "velocity": 0, "until": 120.44931158333561}, {"on": true, "note": 75, "velocity": 101, "until": 120.44931158333561}, {"on": true, "note": 78, "velocity": 116, "until": 120.68008058333561}, {"on": false, "note": 78, "velocity": 0, "until": 120.68008058333561}, {"on": true, "note": 79, "velocity": 116, "until": 120.79546508333561}, {"on": false, "note": 79, "velocity": 0, "until": 120.79546508333561}, {"on": false, "note": 75, "velocity": 0, "until": 120.79546508333561}, {"on": true, "note": 81, "velocity": 116, "until": 120.9108495833356}, {"on": false, "note": 81, "velocity": 0, "until": 120.9108495833356}, {"on": true, "note": 76, "velocity": 101, "until": 120.9108495833356}, {"on": true, "note": 79, "velocity": 116, "until": 121.40064358333561}, {"on": false, "note": 76, "velocity": 0, "until": 121.51922058333561}, {"on": false, "note": 79, "velocity": 0, "until": 121.51922058333561}, {"on": true, "note": 81, "velocity": 116, "until": 121.63779758333561}, {"on": false, "note": 81, "velocity": 0, "until": 121.63779758333561}, {"on": true, "note": 83, "velocity": 116, "until": 121.75637458333561}, {"on": false, "note": 83, "velocity": 0, "until": 121.75637458333561}, {"on": true, "note": 84, "velocity": 116, "until": 121.87495158333562}, {"on": false, "note": 84, "velocity": 0, "until": 121.87495158333562}, {"on": true, "note": 88, "velocity": 116, "until": 121.87495158333562}, {"on": true, "note": 77, "velocity": 101, "until": 121.91447725000228}, {"on": false, "note": 88, "velocity": 0, "until": 121.91447725000228}, {"on": true, "note": 86, "velocity": 116, "until": 121.99352858333562}, {"on": false, "note": 86, "velocity": 0, "until": 121.99352858333562}, {"on": false, "note": 77, "velocity": 0, "until": 122.11210558333562}, {"on": true, "note": 77, "velocity": 101, "until": 122.11210558333562}, {"on": true, "note": 85, "velocity": 116, "until": 122.23068258333562}, {"on": false, "note": 85, "velocity": 0, "until": 122.23068258333562}, {"on": false, "note": 77, "velocity": 0, "until": 122.34925958333562}, {"on": true, "note": 88, "velocity": 116, "until": 122.34925958333562}, {"on": true, "note": 77, "velocity": 101, "until": 122.38878525000229}, {"on": false, "note": 88, "velocity": 0, "until": 122.38878525000229}, {"on": true, "note": 86, "velocity": 116, "until": 122.46783658333563}, {"on": false, "note": 86, "velocity": 0, "until": 122.46783658333563}, {"on": false, "note": 77, "velocity": 0, "until": 122.58641358333563}, {"on": true, "note": 85, "velocity": 116, "until": 122.58641358333563}, {"on": true, "note": 77, "velocity": 101, "until": 122.70499058333563}, {"on": false, "note": 77, "velocity": 0, "until": 122.70499058333563}, {"on": false, "note": 85, "velocity": 0, "until": 122.82356758333563}, {"on": true, "note": 77, "velocity": 101, "until": 122.82356758333563}, {"on": true, "note": 86, "velocity": 116, "until": 123.31336158333563}, {"on": false, "note": 86, "velocity": 0, "until": 123.31336158333563}, {"on": false, "note": 77, "velocity": 0, "until": 123.31336158333563}, {"on": true, "note": 79, "velocity": 101, "until": 123.54413058333562}, {"on": false, "note": 79, "velocity": 0, "until": 123.77489958333561}, {"on": true, "note": 76, "velocity": 101, "until": 123.77489958333561}, {"on": true, "note": 79, "velocity": 116, "until": 124.14224508333561}, {"on": false, "note": 76, "velocity": 0, "until": 124.26469358333561}, {"on": false, "note": 79, "velocity": 0, "until": 124.26469358333561}, {"on": true, "note": 75, "velocity": 101, "until": 124.26469358333561}, {"on": true, "note": 78, "velocity": 116, "until": 124.49546258333561}, {"on": false, "note": 78, "velocity": 0, "until": 124.49546258333561}, {"on": true, "note": 79, "velocity": 116, "until": 124.61084708333561}, {"on": false, "note": 79, "velocity": 0, "until": 124.61084708333561}, {"on": false, "note": 75, "velocity": 0, "until": 124.61084708333561}, {"on": true, "note": 81, "velocity": 116, "until": 124.7262315833356}, {"on": false, "note": 81, "velocity": 0, "until": 124.7262315833356}, {"on": true, "note": 79, "velocity": 116, "until": 124.7262315833356}, {"on": true, "note": 76, "velocity": 101, "until": 125.21602558333561}, {"on": false, "note": 76, "velocity": 0, "until": 125.33460258333561}, {"on": false, "note": 79, "velocity": 0, "until": 125.33460258333561}, {"on": true, "note": 81, "velocity": 116, "until": 125.45317958333561}, {"on": false, "note": 81, "velocity": 0, "until": 125.45317958333561}, {"on": true, "note": 83, "velocity": 116, "until": 125.57175658333561}, {"on": false, "note": 83, "velocity": 0, "until": 125.57175658333561}, {"on": true, "note": 84, "velocity": 116, "until": 125.69033358333562}, {"on": false, "note": 84, "velocity": 0, "until": 125.69033358333562}, {"on": true, "note": 88, "velocity": 116, "until": 125.69033358333562}, {"on": true, "note": 76, "velocity": 101, "until": 125.80891058333562}, {"on": false, "note": 76, "velocity": 0, "until": 125.80891058333562}, {"on": false, "note": 88, "velocity": 0, "until": 125.92748758333562}, {"on": true, "note": 90, "velocity": 116, "until": 125.92748758333562}, {"on": true, "note": 76, "velocity": 101, "until": 126.04606458333562}, {"on": false, "note": 76, "velocity": 0, "until": 126.04606458333562}, {"on": false, "note": 90, "velocity": 0, "until": 126.04606458333562}, {"on": true, "note": 91, "velocity": 116, "until": 126.16464158333562}, {"on": false, "note": 91, "velocity": 0, "until": 126.16464158333562}, {"on": true, "note": 76, "velocity": 101, "until": 126.16464158333562}, {"on": true, "note": 86, "velocity": 116, "until": 126.28321858333562}, {"on": false, "note": 86, "velocity": 0, "until": 126.28321858333562}, {"on": false, "note": 76, "velocity": 0, "until": 126.40179558333563}, {"on": true, "note": 76, "velocity": 101, "until": 126.40179558333563}, {"on": true, "note": 90, "velocity": 116, "until": 126.52037258333563}, {"on": false, "note": 90, "velocity": 0, "until": 126.52037258333563}, {"on": false, "note": 76, "velocity": 0, "until": 126.52037258333563}, {"on": true, "note": 91, "velocity": 116, "until": 126.63894958333563}, {"on": false, "note": 91, "velocity": 0, "until": 126.63894958333563}, {"on": true, "note": 76, "velocity": 101, "until": 126.63894958333563}, {"on": true, "note": 84, "velocity": 116, "until": 126.88384658333565}, {"on": false, "note": 84, "velocity": 0, "until": 126.88384658333565}, {"on": false, "note": 76, "velocity": 0, "until": 127.5902815833355}, {"on": true, "note": 91, "velocity": 101, "until": 127.5902815833355}, {"on": true, "note": 88, "velocity": 91, "until": 128.0800755833355}, {"on": false, "note": 88, "velocity": 0, "until": 128.0800755833355}, {"on": false, "note": 91, "velocity": 0, "until": 128.0800755833355}, {"on": true, "note": 90, "velocity": 101, "until": 128.0800755833355}, {"on": true, "note": 87, "velocity": 91, "until": 128.31084458333552}, {"on": false, "note": 90, "velocity": 0, "until": 128.31084458333552}, {"on": true, "note": 91, "velocity": 101, "until": 128.42622908333553}, {"on": false, "note": 91, "velocity": 0, "until": 128.42622908333553}, {"on": true, "note": 93, "velocity": 101, "until": 128.54161358333556}, {"on": false, "note": 93, "velocity": 0, "until": 128.54161358333556}, {"on": false, "note": 87, "velocity": 0, "until": 128.54161358333556}, {"on": true, "note": 88, "velocity": 91, "until": 128.54161358333556}, {"on": true, "note": 91, "velocity": 101, "until": 129.03140758333555}, {"on": false, "note": 91, "velocity": 0, "until": 129.03140758333555}, {"on": false, "note": 88, "velocity": 0, "until": 129.73294558333558}, {"on": true, "note": 91, "velocity": 101, "until": 129.85294558333558}, {"on": false, "note": 91, "velocity": 0, "until": 129.9729455833356}, {"on": true, "note": 91, "velocity": 101, "until": 130.0929455833356}, {"on": false, "note": 91, "velocity": 0, "until": 130.2129455833356}, {"on": true, "note": 91, "velocity": 101, "until": 130.3329455833356}, {"on": false, "note": 91, "velocity": 0, "until": 130.4529455833356}, {"on": true, "note": 86, "velocity": 101, "until": 130.4529455833356}, {"on": true, "note": 91, "velocity": 101, "until": 130.6929455833356}, {"on": false, "note": 91, "velocity": 0, "until": 130.6929455833356}, {"on": false, "note": 86, "velocity": 0, "until": 131.39448358333536}, {"on": true, "note": 88, "velocity": 91, "until": 131.39448358333536}, {"on": true, "note": 91, "velocity": 101, "until": 131.88427758333535}, {"on": false, "note": 91, "velocity": 0, "until": 131.88427758333535}, {"on": false, "note": 88, "velocity": 0, "until": 131.88427758333535}, {"on": true, "note": 87, "velocity": 91, "until": 131.88427758333535}, {"on": true, "note": 90, "velocity": 101, "until": 132.11504658333536}, {"on": false, "note": 90, "velocity": 0, "until": 132.11504658333536}, {"on": true, "note": 91, "velocity": 101, "until": 132.23043108333536}, {"on": false, "note": 91, "velocity": 0, "until": 132.23043108333536}, {"on": true, "note": 93, "velocity": 101, "until": 132.34581558333537}, {"on": false, "note": 93, "velocity": 0, "until": 132.34581558333537}, {"on": false, "note": 87, "velocity": 0, "until": 132.34581558333537}, {"on": true, "note": 91, "velocity": 101, "until": 132.34581558333537}, {"on": true, "note": 88, "velocity": 91, "until": 132.83560958333535}, {"on": false, "note": 88, "velocity": 0, "until": 132.83560958333535}, {"on": false, "note": 91, "velocity": 0, "until": 133.29714758333537}, {"on": true, "note": 88, "velocity": 101, "until": 133.29714758333537}, {"on": true, "note": 83, "velocity": 101, "until": 133.4152575833354}, {"on": false, "note": 83, "velocity": 0, "until": 133.4152575833354}, {"on": false, "note": 88, "velocity": 0, "until": 133.53336758333543}, {"on": true, "note": 87, "velocity": 101, "until": 133.53336758333543}, {"on": true, "note": 84, "velocity": 101, "until": 133.65147758333546}, {"on": false, "note": 84, "velocity": 0, "until": 133.65147758333546}, {"on": false, "note": 87, "velocity": 0, "until": 133.7695875833355}, {"on": true, "note": 88, "velocity": 101, "until": 133.7695875833355}, {"on": true, "note": 83, "velocity": 101, "until": 133.88769758333552}, {"on": false, "note": 83, "velocity": 0, "until": 133.88769758333552}, {"on": false, "note": 88, "velocity": 0, "until": 134.00580758333555}, {"on": true, "note": 84, "velocity": 101, "until": 134.00580758333555}, {"on": true, "note": 87, "velocity": 101, "until": 134.12391758333558}, {"on": false, "note": 87, "velocity": 0, "until": 134.12391758333558}, {"on": false, "note": 84, "velocity": 0, "until": 134.2420275833356}, {"on": true, "note": 88, "velocity": 101, "until": 134.2420275833356}, {"on": true, "note": 83, "velocity": 101, "until": 134.714467583336}, {"on": false, "note": 83, "velocity": 0, "until": 134.714467583336}, {"on": false, "note": 88, "velocity": 0, "until": 135.22301358333598}, {"on": true, "note": 88, "velocity": 101, "until": 135.22301358333598}, {"on": true, "note": 81, "velocity": 101, "until": 135.26382975000266}, {"on": false, "note": 88, "velocity": 0, "until": 135.26382975000266}, {"on": true, "note": 86, "velocity": 101, "until": 135.345462083336}, {"on": false, "note": 86, "velocity": 0, "until": 135.345462083336}, {"on": false, "note": 81, "velocity": 0, "until": 135.467910583336}, {"on": true, "note": 85, "velocity": 101, "until": 135.467910583336}, {"on": true, "note": 81, "velocity": 101, "until": 135.59035908333598}, {"on": false, "note": 81, "velocity": 0, "until": 135.59035908333598}, {"on": false, "note": 85, "velocity": 0, "until": 135.71280758333597}, {"on": true, "note": 88, "velocity": 101, "until": 135.71280758333597}, {"on": true, "note": 81, "velocity": 101, "until": 135.75126908333598}, {"on": false, "note": 88, "velocity": 0, "until": 135.75126908333598}, {"on": true, "note": 86, "velocity": 101, "until": 135.82819208333598}, {"on": false, "note": 86, "velocity": 0, "until": 135.82819208333598}, {"on": false, "note": 81, "velocity": 0, "until": 135.94357658333598}, {"on": true, "note": 85, "velocity": 101, "until": 135.94357658333598}, {"on": true, "note": 81, "velocity": 101, "until": 136.058961083336}, {"on": false, "note": 81, "velocity": 0, "until": 136.058961083336}, {"on": false, "note": 85, "velocity": 0, "until": 136.174345583336}, {"on": true, "note": 86, "velocity": 101, "until": 136.174345583336}, {"on": true, "note": 81, "velocity": 101, "until": 136.41924258333603}, {"on": false, "note": 81, "velocity": 0, "until": 136.41924258333603}, {"on": false, "note": 86, "velocity": 0, "until": 137.12567758333614}, {"on": true, "note": 86, "velocity": 101, "until": 137.12567758333614}, {"on": true, "note": 79, "velocity": 101, "until": 137.16649375000281}, {"on": false, "note": 86, "velocity": 0, "until": 137.16649375000281}, {"on": true, "note": 84, "velocity": 101, "until": 137.24812608333616}, {"on": false, "note": 84, "velocity": 0, "until": 137.24812608333616}, {"on": false, "note": 79, "velocity": 0, "until": 137.37057458333615}, {"on": true, "note": 83, "velocity": 101, "until": 137.37057458333615}, {"on": true, "note": 79, "velocity": 101, "until": 137.49302308333614}, {"on": false, "note": 79, "velocity": 0, "until": 137.49302308333614}, {"on": false, "note": 83, "velocity": 0, "until": 137.61547158333613}, {"on": true, "note": 86, "velocity": 101, "until": 137.61547158333613}, {"on": true, "note": 79, "velocity": 101, "until": 137.65393308333614}, {"on": false, "note": 86, "velocity": 0, "until": 137.65393308333614}, {"on": true, "note": 84, "velocity": 101, "until": 137.73085608333614}, {"on": false, "note": 84, "velocity": 0, "until": 137.73085608333614}, {"on": false, "note": 79, "velocity": 0, "until": 137.84624058333614}, {"on": true, "note": 83, "velocity": 101, "until": 137.84624058333614}, {"on": true, "note": 79, "velocity": 101, "until": 137.96162508333614}, {"on": false, "note": 79, "velocity": 0, "until": 137.96162508333614}, {"on": false, "note": 83, "velocity": 0, "until": 138.07700958333615}, {"on": true, "note": 84, "velocity": 101, "until": 138.07700958333615}, {"on": true, "note": 79, "velocity": 101, "until": 138.3219065833362}, {"on": false, "note": 79, "velocity": 0, "until": 138.3219065833362}, {"on": false, "note": 84, "velocity": 0, "until": 139.02834158333638}, {"on": true, "note": 91, "velocity": 101, "until": 139.02834158333638}, {"on": true, "note": 86, "velocity": 101, "until": 139.15079008333637}, {"on": false, "note": 86, "velocity": 0, "until": 139.15079008333637}, {"on": false, "note": 91, "velocity": 0, "until": 139.2732385833364}, {"on": true, "note": 86, "velocity": 101, "until": 139.2732385833364}, {"on": true, "note": 91, "velocity": 101, "until": 139.74890458333647}, {"on": false, "note": 86, "velocity": 0, "until": 139.74890458333647}, {"on": true, "note": 88, "velocity": 101, "until": 139.97967358333648}, {"on": false, "note": 88, "velocity": 0, "until": 139.97967358333648}, {"on": false, "note": 91, "velocity": 0, "until": 139.97967358333648}, {"on": true, "note": 91, "velocity": 101, "until": 139.97967358333648}, {"on": true, "note": 89, "velocity": 101, "until": 140.10212208333647}, {"on": false, "note": 89, "velocity": 0, "until": 140.10212208333647}, {"on": false, "note": 91, "velocity": 0, "until": 140.2245705833365}, {"on": true, "note": 86, "velocity": 101, "until": 140.2245705833365}, {"on": true, "note": 91, "velocity": 101, "until": 140.70023658333656}, {"on": false, "note": 86, "velocity": 0, "until": 140.70023658333656}, {"on": true, "note": 88, "velocity": 101, "until": 140.93100558333657}, {"on": false, "note": 88, "velocity": 0, "until": 140.93100558333657}, {"on": false, "note": 91, "velocity": 0, "until": 140.93100558333657}, {"on": true, "note": 91, "velocity": 101, "until": 140.93100558333657}, {"on": true, "note": 89, "velocity": 101, "until": 141.05345408333656}, {"on": false, "note": 89, "velocity": 0, "until": 141.05345408333656}, {"on": false, "note": 91, "velocity": 0, "until": 141.17590258333658}, {"on": true, "note": 86, "velocity": 101, "until": 141.17590258333658}, {"on": true, "note": 91, "velocity": 101, "until": 141.65156858333665}, {"on": false, "note": 86, "velocity": 0, "until": 141.65156858333665}, {"on": true, "note": 88, "velocity": 101, "until": 141.88233758333666}, {"on": false, "note": 88, "velocity": 0, "until": 141.88233758333666}, {"on": false, "note": 91, "velocity": 0, "until": 141.88233758333666}, {"on": true, "note": 91, "velocity": 101, "until": 141.88233758333666}, {"on": true, "note": 86, "velocity": 101, "until": 142.1272345833367}, {"on": false, "note": 86, "velocity": 0, "until": 142.1272345833367}, {"on": false, "note": 91, "velocity": 0, "until": 142.90102958333676}, {"on": true, "note": 79, "velocity": 101, "until": 142.90102958333676}, {"on": true, "note": 76, "velocity": 101, "until": 143.39082358333675}, {"on": false, "note": 76, "velocity": 0, "until": 143.39082358333675}, {"on": false, "note": 79, "velocity": 0, "until": 143.39082358333675}, {"on": true, "note": 78, "velocity": 101, "until": 143.39082358333675}, {"on": true, "note": 75, "velocity": 101, "until": 143.62159258333676}, {"on": false, "note": 78, "velocity": 0, "until": 143.62159258333676}, {"on": true, "note": 79, "velocity": 101, "until": 143.73697708333677}, {"on": false, "note": 79, "velocity": 0, "until": 143.73697708333677}, {"on": true, "note": 81, "velocity": 101, "until": 143.85236158333677}, {"on": false, "note": 81, "velocity": 0, "until": 143.85236158333677}, {"on": false, "note": 75, "velocity": 0, "until": 143.85236158333677}, {"on": true, "note": 76, "velocity": 101, "until": 143.85236158333677}, {"on": true, "note": 79, "velocity": 101, "until": 144.34215558333676}, {"on": false, "note": 76, "velocity": 0, "until": 144.45754008333677}, {"on": false, "note": 79, "velocity": 0, "until": 144.45754008333677}, {"on": true, "note": 81, "velocity": 101, "until": 144.57292458333677}, {"on": false, "note": 81, "velocity": 0, "until": 144.57292458333677}, {"on": true, "note": 83, "velocity": 101, "until": 144.68830908333678}, {"on": false, "note": 83, "velocity": 0, "until": 144.68830908333678}, {"on": true, "note": 84, "velocity": 101, "until": 144.80369358333678}, {"on": false, "note": 84, "velocity": 0, "until": 144.80369358333678}, {"on": true, "note": 88, "velocity": 101, "until": 144.80369358333678}, {"on": true, "note": 77, "velocity": 101, "until": 144.84353408333678}, {"on": false, "note": 88, "velocity": 0, "until": 144.84353408333678}, {"on": true, "note": 86, "velocity": 101, "until": 144.92321508333677}, {"on": false, "note": 86, "velocity": 0, "until": 144.92321508333677}, {"on": false, "note": 77, "velocity": 0, "until": 145.04273658333676}, {"on": true, "note": 85, "velocity": 101, "until": 145.04273658333676}, {"on": true, "note": 77, "velocity": 101, "until": 145.16225808333675}, {"on": false, "note": 77, "velocity": 0, "until": 145.16225808333675}, {"on": false, "note": 85, "velocity": 0, "until": 145.28177958333674}, {"on": true, "note": 88, "velocity": 101, "until": 145.28177958333674}, {"on": true, "note": 77, "velocity": 101, "until": 145.32162008333674}, {"on": false, "note": 88, "velocity": 0, "until": 145.32162008333674}, {"on": true, "note": 86, "velocity": 101, "until": 145.40130108333673}, {"on": false, "note": 86, "velocity": 0, "until": 145.40130108333673}, {"on": false, "note": 77, "velocity": 0, "until": 145.52082258333672}, {"on": true, "note": 85, "velocity": 101, "until": 145.52082258333672}, {"on": true, "note": 77, "velocity": 101, "until": 145.64034408333671}, {"on": false, "note": 77, "velocity": 0, "until": 145.64034408333671}, {"on": false, "note": 85, "velocity": 0, "until": 145.7598655833367}, {"on": true, "note": 86, "velocity": 101, "until": 145.7598655833367}, {"on": true, "note": 77, "velocity": 101, "until": 146.2379515833367}, {"on": false, "note": 77, "velocity": 0, "until": 146.2379515833367}, {"on": false, "note": 86, "velocity": 0, "until": 146.4687205833367}, {"on": true, "note": 88, "velocity": 101, "until": 146.4687205833367}, {"on": true, "note": 82, "velocity": 101, "until": 146.5841050833367}, {"on": false, "note": 82, "velocity": 0, "until": 146.5841050833367}, {"on": false, "note": 88, "velocity": 0, "until": 146.69948958333674}, {"on": true, "note": 89, "velocity": 101, "until": 146.69948958333674}, {"on": true, "note": 81, "velocity": 101, "until": 146.81948958333678}, {"on": false, "note": 81, "velocity": 0, "until": 146.81948958333678}, {"on": false, "note": 89, "velocity": 0, "until": 146.9394895833368}, {"on": true, "note": 88, "velocity": 101, "until": 146.9394895833368}, {"on": true, "note": 82, "velocity": 101, "until": 147.05948958333684}, {"on": false, "note": 82, "velocity": 0, "until": 147.05948958333684}, {"on": false, "note": 88, "velocity": 0, "until": 147.17948958333687}, {"on": true, "note": 89, "velocity": 101, "until": 147.17948958333687}, {"on": true, "note": 81, "velocity": 101, "until": 147.2994895833369}, {"on": false, "note": 81, "velocity": 0, "until": 147.2994895833369}, {"on": false, "note": 89, "velocity": 0, "until": 147.41948958333694}, {"on": true, "note": 88, "velocity": 101, "until": 147.41948958333694}, {"on": true, "note": 82, "velocity": 101, "until": 147.53948958333697}, {"on": false, "note": 82, "velocity": 0, "until": 147.53948958333697}, {"on": false, "note": 88, "velocity": 0, "until": 147.659489583337}, {"on": true, "note": 89, "velocity": 101, "until": 147.659489583337}, {"on": true, "note": 81, "velocity": 101, "until": 148.1394895833373}, {"on": false, "note": 81, "velocity": 0, "until": 148.1394895833373}, {"on": false, "note": 89, "velocity": 0, "until": 148.37025858333732}, {"on": true, "note": 88, "velocity": 101, "until": 148.37025858333732}, {"on": true, "note": 80, "velocity": 101, "until": 148.48564308333732}, {"on": false, "note": 80, "velocity": 0, "until": 148.48564308333732}, {"on": false, "note": 88, "velocity": 0, "until": 148.60102758333733}, {"on": true, "note": 88, "velocity": 101, "until": 148.60102758333733}, {"on": true, "note": 81, "velocity": 101, "until": 148.71960458333734}, {"on": false, "note": 81, "velocity": 0, "until": 148.71960458333734}, {"on": false, "note": 88, "velocity": 0, "until": 148.83818158333736}, {"on": true, "note": 88, "velocity": 101, "until": 148.83818158333736}, {"on": true, "note": 80, "velocity": 101, "until": 148.95675858333738}, {"on": false, "note": 80, "velocity": 0, "until": 148.95675858333738}, {"on": false, "note": 88, "velocity": 0, "until": 149.0753355833374}, {"on": true, "note": 88, "velocity": 101, "until": 149.0753355833374}, {"on": true, "note": 81, "velocity": 101, "until": 149.1939125833374}, {"on": false, "note": 81, "velocity": 0, "until": 149.1939125833374}, {"on": false, "note": 88, "velocity": 0, "until": 149.31248958333742}, {"on": true, "note": 88, "velocity": 101, "until": 149.31248958333742}, {"on": true, "note": 80, "velocity": 101, "until": 149.43106658333744}, {"on": false, "note": 80, "velocity": 0, "until": 149.43106658333744}, {"on": false, "note": 88, "velocity": 0, "until": 149.54964358333746}, {"on": true, "note": 81, "velocity": 101, "until": 149.54964358333746}, {"on": true, "note": 88, "velocity": 101, "until": 150.02395158333746}, {"on": false, "note": 88, "velocity": 0, "until": 150.02395158333746}, {"on": false, "note": 81, "velocity": 0, "until": 150.25472058333747}, {"on": true, "note": 86, "velocity": 101, "until": 150.25472058333747}, {"on": true, "note": 83, "velocity": 101, "until": 150.37010508333748}, {"on": false, "note": 83, "velocity": 0, "until": 150.37010508333748}, {"on": false, "note": 86, "velocity": 0, "until": 150.48548958333748}, {"on": true, "note": 88, "velocity": 101, "until": 150.48548958333748}, {"on": true, "note": 84, "velocity": 101, "until": 150.6035995833375}, {"on": false, "note": 84, "velocity": 0, "until": 150.6035995833375}, {"on": false, "note": 88, "velocity": 0, "until": 150.72170958333754}, {"on": true, "note": 86, "velocity": 101, "until": 150.72170958333754}, {"on": true, "note": 83, "velocity": 101, "until": 150.83981958333757}, {"on": false, "note": 83, "velocity": 0, "until": 150.83981958333757}, {"on": false, "note": 86, "velocity": 0, "until": 150.9579295833376}, {"on": true, "note": 88, "velocity": 101, "until": 150.9579295833376}, {"on": true, "note": 84, "velocity": 101, "until": 151.07603958333763}, {"on": false, "note": 84, "velocity": 0, "until": 151.07603958333763}, {"on": false, "note": 88, "velocity": 0, "until": 151.19414958333766}, {"on": true, "note": 86, "velocity": 101, "until": 151.19414958333766}, {"on": true, "note": 83, "velocity": 101, "until": 151.3122595833377}, {"on": false, "note": 83, "velocity": 0, "until": 151.3122595833377}, {"on": false, "note": 86, "velocity": 0, "until": 151.43036958333772}, {"on": true, "note": 88, "velocity": 101, "until": 151.43036958333772}, {"on": true, "note": 84, "velocity": 101, "until": 151.66658958333775}, {"on": false, "note": 84, "velocity": 0, "until": 151.66658958333775}, {"on": false, "note": 88, "velocity": 0, "until": 151.90280958333778}, {"on": true, "note": 86, "velocity": 101, "until": 151.90280958333778}, {"on": true, "note": 83, "velocity": 101, "until": 152.34511683333778}, {"on": false, "note": 83, "velocity": 0, "until": 152.34511683333778}, {"on": false, "note": 86, "velocity": 0, "until": 152.3643475833378}, {"on": true, "note": 85, "velocity": 101, "until": 152.3643475833378}, {"on": true, "note": 82, "velocity": 101, "until": 152.8337335000045}, {"on": false, "note": 82, "velocity": 0, "until": 152.8337335000045}, {"on": false, "note": 85, "velocity": 0, "until": 152.85414158333785}, {"on": true, "note": 84, "velocity": 101, "until": 152.85414158333785}, {"on": true, "note": 81, "velocity": 101, "until": 153.29644883333785}, {"on": false, "note": 81, "velocity": 0, "until": 153.29644883333785}, {"on": false, "note": 84, "velocity": 0, "until": 153.31567958333787}, {"on": true, "note": 83, "velocity": 101, "until": 153.31567958333787}, {"on": true, "note": 79, "velocity": 101, "until": 153.78506550000458}, {"on": false, "note": 79, "velocity": 0, "until": 153.78506550000458}, {"on": false, "note": 83, "velocity": 0, "until": 153.8054735833379}, {"on": true, "note": 82, "velocity": 101, "until": 153.8054735833379}, {"on": true, "note": 79, "velocity": 101, "until": 154.2477808333379}, {"on": false, "note": 79, "velocity": 0, "until": 154.2477808333379}, {"on": false, "note": 82, "velocity": 0, "until": 154.26701158333793}, {"on": true, "note": 80, "velocity": 101, "until": 154.51190858333797}, {"on": true, "note": 84, "velocity": 116, "until": 154.634357083338}, {"on": false, "note": 84, "velocity": 0, "until": 154.634357083338}, {"on": true, "note": 86, "velocity": 116, "until": 154.74660154167134}, {"on": false, "note": 86, "velocity": 0, "until": 154.756805583338}, {"on": true, "note": 87, "velocity": 101, "until": 154.987574583338}, {"on": false, "note": 80, "velocity": 0, "until": 154.987574583338}, {"on": true, "note": 79, "velocity": 101, "until": 155.17411285833796}, {"on": false, "note": 79, "velocity": 0, "until": 155.21834358333797}, {"on": true, "note": 80, "velocity": 101, "until": 155.44283250000467}, {"on": false, "note": 87, "velocity": 0, "until": 155.463240583338}, {"on": true, "note": 84, "velocity": 116, "until": 155.58568908333802}, {"on": false, "note": 84, "velocity": 0, "until": 155.58568908333802}, {"on": true, "note": 86, "velocity": 116, "until": 155.69793354167138}, {"on": false, "note": 86, "velocity": 0, "until": 155.70813758333804}, {"on": true, "note": 87, "velocity": 101, "until": 155.93890658333817}, {"on": false, "note": 80, "velocity": 0, "until": 155.93890658333817}, {"on": true, "note": 79, "velocity": 101, "until": 156.12544485833814}, {"on": false, "note": 79, "velocity": 0, "until": 156.16967558333815}, {"on": false, "note": 87, "velocity": 0, "until": 156.16967558333815}, {"on": true, "note": 80, "velocity": 101, "until": 156.16967558333815}, {"on": true, "note": 87, "velocity": 101, "until": 156.41457258333818}, {"on": false, "note": 80, "velocity": 0, "until": 156.41457258333818}, {"on": true, "note": 79, "velocity": 101, "until": 156.63906150000489}, {"on": false, "note": 79, "velocity": 0, "until": 156.63906150000489}, {"on": false, "note": 87, "velocity": 0, "until": 156.65946958333822}, {"on": true, "note": 80, "velocity": 101, "until": 156.65946958333822}, {"on": true, "note": 87, "velocity": 101, "until": 156.89023858333826}, {"on": false, "note": 80, "velocity": 0, "until": 156.89023858333826}, {"on": true, "note": 79, "velocity": 101, "until": 157.10177683333825}, {"on": false, "note": 79, "velocity": 0, "until": 157.10177683333825}, {"on": false, "note": 87, "velocity": 0, "until": 157.12100758333827}, {"on": true, "note": 80, "velocity": 101, "until": 157.12100758333827}, {"on": true, "note": 87, "velocity": 101, "until": 157.3659045833383}, {"on": false, "note": 80, "velocity": 0, "until": 157.3659045833383}, {"on": true, "note": 79, "velocity": 101, "until": 157.590393500005}, {"on": false, "note": 79, "velocity": 0, "until": 157.590393500005}, {"on": false, "note": 87, "velocity": 0, "until": 157.61080158333834}, {"on": true, "note": 80, "velocity": 101, "until": 157.61080158333834}, {"on": true, "note": 87, "velocity": 101, "until": 157.84157058333838}, {"on": false, "note": 80, "velocity": 0, "until": 157.84157058333838}, {"on": true, "note": 79, "velocity": 101, "until": 158.05310883333837}, {"on": false, "note": 79, "velocity": 0, "until": 158.05310883333837}, {"on": false, "note": 87, "velocity": 0, "until": 158.0723395833384}, {"on": true, "note": 82, "velocity": 101, "until": 158.0723395833384}, {"on": true, "note": 79, "velocity": 101, "until": 158.31723658333843}, {"on": false, "note": 82, "velocity": 0, "until": 158.31723658333843}, {"on": true, "note": 79, "velocity": 116, "until": 158.43968508333845}, {"on": true, "note": 81, "velocity": 116, "until": 158.56213358333846}, {"on": false, "note": 81, "velocity": 0, "until": 158.56213358333846}, {"on": true, "note": 82, "velocity": 101, "until": 159.02367158333857}, {"on": false, "note": 79, "velocity": 0, "until": 159.02367158333857}, {"on": false, "note": 79, "velocity": 0, "until": 159.02367158333857}, {"on": true, "note": 79, "velocity": 101, "until": 159.24816050000527}, {"on": false, "note": 82, "velocity": 0, "until": 159.2685685833386}, {"on": true, "note": 79, "velocity": 116, "until": 159.39101708333862}, {"on": true, "note": 81, "velocity": 116, "until": 159.51346558333864}, {"on": false, "note": 81, "velocity": 0, "until": 159.51346558333864}, {"on": true, "note": 82, "velocity": 101, "until": 159.97500358333875}, {"on": false, "note": 79, "velocity": 0, "until": 159.97500358333875}, {"on": false, "note": 79, "velocity": 0, "until": 159.97500358333875}, {"on": true, "note": 79, "velocity": 101, "until": 160.19949250000545}, {"on": false, "note": 82, "velocity": 0, "until": 160.21990058333878}, {"on": true, "note": 79, "velocity": 116, "until": 160.3423490833388}, {"on": true, "note": 81, "velocity": 116, "until": 160.45459354167212}, {"on": false, "note": 81, "velocity": 0, "until": 160.4647975833388}, {"on": false, "note": 79, "velocity": 0, "until": 160.4647975833388}, {"on": false, "note": 79, "velocity": 0, "until": 160.4647975833388}, {"on": true, "note": 79, "velocity": 101, "until": 160.69556658333886}, {"on": true, "note": 79, "velocity": 101, "until": 160.8109510833389}, {"on": true, "note": 81, "velocity": 101, "until": 160.9071048333389}, {"on": false, "note": 79, "velocity": 0, "until": 160.91672020833892}, {"on": false, "note": 81, "velocity": 0, "until": 160.92633558333893}, {"on": false, "note": 79, "velocity": 0, "until": 160.92633558333893}, {"on": true, "note": 79, "velocity": 101, "until": 161.17123258333896}, {"on": true, "note": 79, "velocity": 101, "until": 161.29368108333898}, {"on": true, "note": 81, "velocity": 101, "until": 161.39572150000564}, {"on": false, "note": 79, "velocity": 0, "until": 161.4059255416723}, {"on": false, "note": 81, "velocity": 0, "until": 161.41612958333897}, {"on": false, "note": 79, "velocity": 0, "until": 161.41612958333897}, {"on": true, "note": 79, "velocity": 101, "until": 161.646898583339}, {"on": true, "note": 79, "velocity": 101, "until": 161.762283083339}, {"on": true, "note": 81, "velocity": 101, "until": 161.868052208339}, {"on": false, "note": 81, "velocity": 0, "until": 161.87766758333902}, {"on": false, "note": 79, "velocity": 0, "until": 161.87766758333902}, {"on": false, "note": 79, "velocity": 0, "until": 161.87766758333902}, {"on": true, "note": 86, "velocity": 101, "until": 161.87766758333902}, {"on": true, "note": 81, "velocity": 101, "until": 162.60368158333912}, {"on": false, "note": 81, "velocity": 0, "until": 162.60368158333912}, {"on": false, "note": 86, "velocity": 0, "until": 162.60368158333912}, {"on": true, "note": 85, "velocity": 101, "until": 162.60368158333912}, {"on": true, "note": 82, "velocity": 101, "until": 162.83990158333916}, {"on": false, "note": 82, "velocity": 0, "until": 162.83990158333916}, {"on": false, "note": 85, "velocity": 0, "until": 162.83990158333916}, {"on": true, "note": 81, "velocity": 101, "until": 162.83990158333916}, {"on": true, "note": 86, "velocity": 101, "until": 163.57686858333886}, {"on": false, "note": 86, "velocity": 0, "until": 163.57686858333886}, {"on": false, "note": 81, "velocity": 0, "until": 163.57686858333886}, {"on": true, "note": 85, "velocity": 101, "until": 163.57686858333886}, {"on": true, "note": 82, "velocity": 101, "until": 163.81591158333885}, {"on": false, "note": 82, "velocity": 0, "until": 163.81591158333885}, {"on": false, "note": 85, "velocity": 0, "until": 163.81591158333885}, {"on": true, "note": 86, "velocity": 101, "until": 163.81591158333885}, {"on": true, "note": 81, "velocity": 101, "until": 164.06591158333885}, {"on": false, "note": 81, "velocity": 0, "until": 164.06591158333885}, {"on": false, "note": 86, "velocity": 0, "until": 164.06591158333885}, {"on": true, "note": 88, "velocity": 101, "until": 164.06591158333885}, {"on": true, "note": 83, "velocity": 101, "until": 164.31591158333885}, {"on": false, "note": 83, "velocity": 0, "until": 164.31591158333885}, {"on": false, "note": 88, "velocity": 0, "until": 164.31591158333885}, {"on": true, "note": 86, "velocity": 101, "until": 164.31591158333885}, {"on": true, "note": 81, "velocity": 101, "until": 164.5578465833389}, {"on": false, "note": 81, "velocity": 0, "until": 164.5578465833389}, {"on": false, "note": 86, "velocity": 0, "until": 164.5578465833389}, {"on": true, "note": 84, "velocity": 101, "until": 164.5578465833389}, {"on": true, "note": 79, "velocity": 101, "until": 164.79978158333893}, {"on": false, "note": 79, "velocity": 0, "until": 164.79978158333893}, {"on": false, "note": 84, "velocity": 0, "until": 164.79978158333893}, {"on": true, "note": 83, "velocity": 101, "until": 164.79978158333893}, {"on": true, "note": 78, "velocity": 101, "until": 165.04467858333894}, {"on": false, "note": 78, "velocity": 0, "until": 165.04467858333894}, {"on": false, "note": 83, "velocity": 0, "until": 165.04467858333894}, {"on": true, "note": 86, "velocity": 101, "until": 165.04467858333894}, {"on": true, "note": 79, "velocity": 101, "until": 165.0854947500056}, {"on": false, "note": 86, "velocity": 0, "until": 165.0854947500056}, {"on": true, "note": 84, "velocity": 101, "until": 165.28957558333894}, {"on": false, "note": 84, "velocity": 0, "until": 165.28957558333894}, {"on": false, "note": 79, "velocity": 0, "until": 165.28957558333894}, {"on": true, "note": 83, "velocity": 101, "until": 165.28957558333894}, {"on": true, "note": 78, "velocity": 101, "until": 165.53648858333892}, {"on": false, "note": 78, "velocity": 0, "until": 165.53648858333892}, {"on": false, "note": 83, "velocity": 0, "until": 165.53648858333892}, {"on": true, "note": 81, "velocity": 101, "until": 165.53648858333892}, {"on": true, "note": 76, "velocity": 101, "until": 165.7834015833389}, {"on": false, "note": 76, "velocity": 0, "until": 165.7834015833389}, {"on": false, "note": 81, "velocity": 0, "until": 165.7834015833389}, {"on": true, "note": 79, "velocity": 101, "until": 165.7834015833389}, {"on": true, "note": 74, "velocity": 101, "until": 165.9089245833389}, {"on": false, "note": 79, "velocity": 0, "until": 166.03444758333887}, {"on": false, "note": 74, "velocity": 0, "until": 166.03444758333887}, {"on": true, "note": 74, "velocity": 101, "until": 166.15997058333883}, {"on": false, "note": 74, "velocity": 0, "until": 166.2854935833388}, {"on": true, "note": 79, "velocity": 101, "until": 167.02040958333876}, {"on": false, "note": 79, "velocity": 0, "until": 167.02040958333876}, {"on": true, "note": 74, "velocity": 101, "until": 167.14593258333872}, {"on": false, "note": 74, "velocity": 0, "until": 167.27145558333868}, {"on": true, "note": 83, "velocity": 101, "until": 168.00637158333865}, {"on": false, "note": 83, "velocity": 0, "until": 168.00637158333865}, {"on": true, "note": 81, "velocity": 101, "until": 168.1318945833386}, {"on": false, "note": 81, "velocity": 0, "until": 168.25741758333857}, {"on": true, "note": 84, "velocity": 101, "until": 168.99233358333854}, {"on": false, "note": 84, "velocity": 0, "until": 168.99233358333854}, {"on": true, "note": 81, "velocity": 101, "until": 169.1178565833385}, {"on": false, "note": 81, "velocity": 0, "until": 169.24337958333845}, {"on": true, "note": 88, "velocity": 101, "until": 169.72724958333845}, {"on": false, "note": 88, "velocity": 0, "until": 169.72724958333845}, {"on": true, "note": 86, "velocity": 101, "until": 170.1038185833381}, {"on": false, "note": 86, "velocity": 0, "until": 170.1038185833381}, {"on": true, "note": 88, "velocity": 101, "until": 170.22934158333794}, {"on": false, "note": 88, "velocity": 0, "until": 170.22934158333794}, {"on": true, "note": 86, "velocity": 101, "until": 170.47127658333798}, {"on": false, "note": 86, "velocity": 0, "until": 170.47127658333798}, {"on": true, "note": 84, "velocity": 101, "until": 170.59224408333802}, {"on": false, "note": 84, "velocity": 0, "until": 170.71321158333802}, {"on": true, "note": 83, "velocity": 101, "until": 170.83873458333798}, {"on": false, "note": 83, "velocity": 0, "until": 170.83873458333798}, {"on": true, "note": 84, "velocity": 101, "until": 170.96425758333794}, {"on": false, "note": 84, "velocity": 0, "until": 170.96425758333794}, {"on": true, "note": 83, "velocity": 101, "until": 171.0897805833379}, {"on": false, "note": 83, "velocity": 0, "until": 171.0897805833379}, {"on": true, "note": 81, "velocity": 101, "until": 171.21530358333786}, {"on": false, "note": 81, "velocity": 0, "until": 171.21530358333786}, {"on": true, "note": 83, "velocity": 101, "until": 171.28385183333788}, {"on": false, "note": 83, "velocity": 0, "until": 171.45723858333787}, {"on": true, "note": 91, "velocity": 101, "until": 171.5257868333379}, {"on": false, "note": 91, "velocity": 0, "until": 171.69917358333788}, {"on": true, "note": 86, "velocity": 101, "until": 172.07574258333764}, {"on": false, "note": 86, "velocity": 0, "until": 172.07574258333764}, {"on": true, "note": 88, "velocity": 101, "until": 172.20126558333757}, {"on": false, "note": 88, "velocity": 0, "until": 172.20126558333757}, {"on": true, "note": 86, "velocity": 101, "until": 172.4432005833376}, {"on": false, "note": 86, "velocity": 0, "until": 172.4432005833376}, {"on": true, "note": 84, "velocity": 101, "until": 172.56416808333765}, {"on": false, "note": 84, "velocity": 0, "until": 172.68513558333765}, {"on": true, "note": 83, "velocity": 101, "until": 172.8106585833376}, {"on": false, "note": 83, "velocity": 0, "until": 172.8106585833376}, {"on": true, "note": 84, "velocity": 101, "until": 172.93618158333757}, {"on": false, "note": 84, "velocity": 0, "until": 172.93618158333757}, {"on": true, "note": 83, "velocity": 101, "until": 173.06170458333753}, {"on": false, "note": 83, "velocity": 0, "until": 173.06170458333753}, {"on": true, "note": 81, "velocity": 101, "until": 173.1872275833375}, {"on": false, "note": 81, "velocity": 0, "until": 173.1872275833375}, {"on": true, "note": 79, "velocity": 101, "until": 173.42916258333753}, {"on": false, "note": 79, "velocity": 0, "until": 174.4698975833377}, {"on": true, "note": 74, "velocity": 81, "until": 174.59234608333773}, {"on": false, "note": 74, "velocity": 0, "until": 174.71479458333775}, {"on": true, "note": 86, "velocity": 81, "until": 175.47251158333816}, {"on": false, "note": 86, "velocity": 0, "until": 175.47251158333816}, {"on": true, "note": 82, "velocity": 81, "until": 175.59496008333818}, {"on": false, "note": 82, "velocity": 0, "until": 175.7174085833382}, {"on": true, "note": 79, "velocity": 81, "until": 176.4751255833386}, {"on": false, "note": 79, "velocity": 0, "until": 176.4751255833386}, {"on": true, "note": 79, "velocity": 81, "until": 176.59757408333863}, {"on": false, "note": 79, "velocity": 0, "until": 176.72002258333865}, {"on": true, "note": 85, "velocity": 81, "until": 177.2328425833388}, {"on": false, "note": 85, "velocity": 0, "until": 181.76092258334026}, {"on": true, "note": 86, "velocity": 101, "until": 182.2630145833402}, {"on": false, "note": 86, "velocity": 0, "until": 182.50494958334025}, {"on": true, "note": 78, "velocity": 101, "until": 182.50494958334025}, {"on": true, "note": 81, "velocity": 101, "until": 182.62591708334025}, {"on": false, "note": 81, "velocity": 0, "until": 182.62591708334025}, {"on": false, "note": 78, "velocity": 0, "until": 182.74688458334026}, {"on": true, "note": 82, "velocity": 101, "until": 182.74688458334026}, {"on": true, "note": 79, "velocity": 101, "until": 182.87240758334025}, {"on": false, "note": 79, "velocity": 0, "until": 182.87240758334025}, {"on": false, "note": 82, "velocity": 0, "until": 182.99793058334023}, {"on": true, "note": 84, "velocity": 101, "until": 182.99793058334023}, {"on": true, "note": 81, "velocity": 101, "until": 183.12345358334022}, {"on": false, "note": 81, "velocity": 0, "until": 183.12345358334022}, {"on": false, "note": 84, "velocity": 0, "until": 183.2489765833402}, {"on": true, "note": 86, "velocity": 101, "until": 183.2489765833402}, {"on": true, "note": 82, "velocity": 101, "until": 183.36994408334022}, {"on": false, "note": 82, "velocity": 0, "until": 183.36994408334022}, {"on": false, "note": 86, "velocity": 0, "until": 185.70477058333998}, {"on": true, "note": 86, "velocity": 101, "until": 186.20063658334027}, {"on": false, "note": 86, "velocity": 0, "until": 186.4377905833403}, {"on": true, "note": 78, "velocity": 101, "until": 186.4377905833403}, {"on": true, "note": 81, "velocity": 101, "until": 186.55636758334032}, {"on": false, "note": 81, "velocity": 0, "until": 186.55636758334032}, {"on": false, "note": 78, "velocity": 0, "until": 186.67494458334033}, {"on": true, "note": 82, "velocity": 101, "until": 186.67494458334033}, {"on": true, "note": 79, "velocity": 101, "until": 186.79891108334036}, {"on": false, "note": 79, "velocity": 0, "until": 186.79891108334036}, {"on": false, "note": 82, "velocity": 0, "until": 186.9228775833404}, {"on": true, "note": 84, "velocity": 101, "until": 186.9228775833404}, {"on": true, "note": 81, "velocity": 101, "until": 187.04684408334046}, {"on": false, "note": 81, "velocity": 0, "until": 187.04684408334046}, {"on": false, "note": 84, "velocity": 0, "until": 187.1708105833405}, {"on": true, "note": 86, "velocity": 101, "until": 187.1708105833405}, {"on": true, "note": 82, "velocity": 101, "until": 187.28938758334053}, {"on": false, "note": 82, "velocity": 0, "until": 187.28938758334053}, {"on": false, "note": 86, "velocity": 0, "until": 187.64511858334052}, {"on": true, "note": 81, "velocity": 101, "until": 187.64511858334052}, {"on": true, "note": 89, "velocity": 101, "until": 188.0170180833405}, {"on": false, "note": 89, "velocity": 0, "until": 188.0170180833405}, {"on": true, "note": 91, "velocity": 101, "until": 188.1409845833405}, {"on": false, "note": 91, "velocity": 0, "until": 188.1409845833405}, {"on": true, "note": 89, "velocity": 101, "until": 188.36825716667386}, {"on": false, "note": 89, "velocity": 0, "until": 188.37813858334053}, {"on": false, "note": 81, "velocity": 0, "until": 188.37813858334053}, {"on": true, "note": 81, "velocity": 101, "until": 188.37813858334053}, {"on": true, "note": 87, "velocity": 101, "until": 188.49671558334055}, {"on": false, "note": 87, "velocity": 0, "until": 188.49671558334055}, {"on": false, "note": 81, "velocity": 0, "until": 188.61529258334056}, {"on": true, "note": 82, "velocity": 101, "until": 188.61529258334056}, {"on": true, "note": 86, "velocity": 101, "until": 188.72479632500722}, {"on": false, "note": 86, "velocity": 0, "until": 188.73925908334056}, {"on": false, "note": 82, "velocity": 0, "until": 188.73925908334056}, {"on": true, "note": 89, "velocity": 101, "until": 188.8528950416739}, {"on": false, "note": 89, "velocity": 0, "until": 188.86322558334055}, {"on": true, "note": 81, "velocity": 101, "until": 188.86322558334055}, {"on": true, "note": 87, "velocity": 101, "until": 188.92520883334055}, {"on": false, "note": 87, "velocity": 0, "until": 188.98719208334055}, {"on": false, "note": 81, "velocity": 0, "until": 188.98719208334055}, {"on": true, "note": 84, "velocity": 101, "until": 189.0574397666739}, {"on": false, "note": 84, "velocity": 0, "until": 189.11115858334057}, {"on": true, "note": 82, "velocity": 101, "until": 189.22973558334056}, {"on": false, "note": 82, "velocity": 0, "until": 189.58546658334055}, {"on": true, "note": 88, "velocity": 101, "until": 189.58546658334055}, {"on": true, "note": 85, "velocity": 101, "until": 190.30030158333997}, {"on": false, "note": 85, "velocity": 0, "until": 190.30030158333997}, {"on": false, "note": 88, "velocity": 0, "until": 190.30030158333997}, {"on": true, "note": 88, "velocity": 101, "until": 190.30030158333997}, {"on": true, "note": 85, "velocity": 101, "until": 190.41480508333993}, {"on": false, "note": 85, "velocity": 0, "until": 190.41480508333993}, {"on": false, "note": 88, "velocity": 0, "until": 190.52930858333988}, {"on": true, "note": 89, "velocity": 101, "until": 190.52930858333988}, {"on": true, "note": 86, "velocity": 101, "until": 190.65076558333985}, {"on": false, "note": 86, "velocity": 0, "until": 190.65076558333985}, {"on": false, "note": 89, "velocity": 0, "until": 190.77222258333978}, {"on": true, "note": 91, "velocity": 101, "until": 190.77222258333978}, {"on": true, "note": 88, "velocity": 101, "until": 190.89367958333972}, {"on": false, "note": 88, "velocity": 0, "until": 190.89367958333972}, {"on": false, "note": 91, "velocity": 0, "until": 191.01513658333965}, {"on": true, "note": 93, "velocity": 101, "until": 191.01513658333965}, {"on": true, "note": 89, "velocity": 101, "until": 191.1296400833396}, {"on": false, "note": 89, "velocity": 0, "until": 191.1296400833396}, {"on": false, "note": 93, "velocity": 0, "until": 191.47315058333956}, {"on": true, "note": 91, "velocity": 101, "until": 191.47315058333956}, {"on": true, "note": 88, "velocity": 101, "until": 192.18798558333896}, {"on": false, "note": 88, "velocity": 0, "until": 192.18798558333896}, {"on": false, "note": 91, "velocity": 0, "until": 192.18798558333896}, {"on": true, "note": 76, "velocity": 101, "until": 192.18798558333896}, {"on": true, "note": 79, "velocity": 101, "until": 192.3024890833389}, {"on": false, "note": 79, "velocity": 0, "until": 192.3024890833389}, {"on": false, "note": 76, "velocity": 0, "until": 192.4169925833389}, {"on": true, "note": 81, "velocity": 101, "until": 192.4169925833389}, {"on": true, "note": 77, "velocity": 101, "until": 192.53844958333886}, {"on": false, "note": 77, "velocity": 0, "until": 192.53844958333886}, {"on": false, "note": 81, "velocity": 0, "until": 192.65990658333877}, {"on": true, "note": 82, "velocity": 101, "until": 192.65990658333877}, {"on": true, "note": 79, "velocity": 101, "until": 192.78136358333867}, {"on": false, "note": 79, "velocity": 0, "until": 192.78136358333867}, {"on": false, "note": 82, "velocity": 0, "until": 192.9028205833386}, {"on": true, "note": 84, "velocity": 101, "until": 192.9028205833386}, {"on": true, "note": 81, "velocity": 101, "until": 193.01732408333856}, {"on": false, "note": 81, "velocity": 0, "until": 193.01732408333856}, {"on": false, "note": 84, "velocity": 0, "until": 193.36083458333852}, {"on": true, "note": 85, "velocity": 101, "until": 193.36083458333852}, {"on": true, "note": 79, "velocity": 101, "until": 193.77429558333873}, {"on": false, "note": 85, "velocity": 0, "until": 193.77429558333873}, {"on": true, "note": 86, "velocity": 101, "until": 193.88887891667204}, {"on": false, "note": 79, "velocity": 0, "until": 193.8992955833387}, {"on": false, "note": 86, "velocity": 0, "until": 193.8992955833387}, {"on": true, "note": 85, "velocity": 101, "until": 193.8992955833387}, {"on": true, "note": 79, "velocity": 101, "until": 194.01834308333872}, {"on": false, "note": 79, "velocity": 0, "until": 194.12746995833874}, {"on": false, "note": 85, "velocity": 0, "until": 194.13739058333874}, {"on": true, "note": 85, "velocity": 101, "until": 194.13739058333874}, {"on": true, "note": 79, "velocity": 101, "until": 194.25643808333876}, {"on": false, "note": 79, "velocity": 0, "until": 194.25643808333876}, {"on": false, "note": 85, "velocity": 0, "until": 194.3754855833388}, {"on": true, "note": 85, "velocity": 101, "until": 194.3754855833388}, {"on": true, "note": 79, "velocity": 101, "until": 195.37809958333878}, {"on": false, "note": 79, "velocity": 0, "until": 195.37809958333878}, {"on": false, "note": 85, "velocity": 0, "until": 195.37809958333878}, {"on": true, "note": 86, "velocity": 101, "until": 195.37809958333878}, {"on": true, "note": 79, "velocity": 101, "until": 195.76271458333886}, {"on": false, "note": 86, "velocity": 0, "until": 195.76271458333886}, {"on": true, "note": 88, "velocity": 101, "until": 195.88023583333887}, {"on": false, "note": 79, "velocity": 0, "until": 195.8909195833389}, {"on": false, "note": 88, "velocity": 0, "until": 195.8909195833389}, {"on": true, "note": 86, "velocity": 101, "until": 195.8909195833389}, {"on": true, "note": 79, "velocity": 101, "until": 196.0133680833389}, {"on": false, "note": 79, "velocity": 0, "until": 196.13581658333888}, {"on": false, "note": 86, "velocity": 0, "until": 196.13581658333888}, {"on": true, "note": 86, "velocity": 101, "until": 196.13581658333888}, {"on": true, "note": 79, "velocity": 101, "until": 196.2582650833389}, {"on": false, "note": 79, "velocity": 0, "until": 196.2582650833389}, {"on": false, "note": 86, "velocity": 0, "until": 196.38071358333892}, {"on": true, "note": 86, "velocity": 101, "until": 196.38071358333892}, {"on": true, "note": 78, "velocity": 101, "until": 197.42707058333912}, {"on": false, "note": 78, "velocity": 0, "until": 197.42707058333912}, {"on": false, "note": 86, "velocity": 0, "until": 199.47978058333908}, {"on": true, "note": 86, "velocity": 101, "until": 199.87108408333907}, {"on": false, "note": 86, "velocity": 0, "until": 199.87108408333907}, {"on": true, "note": 88, "velocity": 101, "until": 200.00151858333905}, {"on": false, "note": 88, "velocity": 0, "until": 200.00151858333905}, {"on": true, "note": 86, "velocity": 101, "until": 200.25151858333905}, {"on": false, "note": 86, "velocity": 0, "until": 200.25151858333905}, {"on": true, "note": 86, "velocity": 101, "until": 200.37651858333905}, {"on": false, "note": 86, "velocity": 0, "until": 200.50151858333905}, {"on": true, "note": 86, "velocity": 101, "until": 200.76238758333903}, {"on": false, "note": 86, "velocity": 0, "until": 200.76238758333903}, {"on": true, "note": 78, "velocity": 101, "until": 201.023256583339}, {"on": false, "note": 78, "velocity": 0, "until": 201.023256583339}, {"on": true, "note": 81, "velocity": 101, "until": 201.27325658333896}, {"on": false, "note": 81, "velocity": 0, "until": 201.27325658333896}, {"on": true, "note": 84, "velocity": 101, "until": 201.52325658333893}, {"on": false, "note": 84, "velocity": 0, "until": 201.52325658333893}, {"on": true, "note": 83, "velocity": 101, "until": 202.0449945833389}, {"on": false, "note": 83, "velocity": 0, "until": 202.0449945833389}, {"on": true, "note": 81, "velocity": 76, "until": 202.1699945833389}, {"on": false, "note": 81, "velocity": 0, "until": 202.1699945833389}, {"on": true, "note": 79, "velocity": 76, "until": 202.2949945833389}, {"on": false, "note": 79, "velocity": 0, "until": 202.2949945833389}, {"on": true, "note": 78, "velocity": 76, "until": 202.4199945833389}, {"on": false, "note": 78, "velocity": 0, "until": 202.4199945833389}, {"on": true, "note": 76, "velocity": 76, "until": 202.5449945833389}, {"on": false, "note": 76, "velocity": 0, "until": 202.5449945833389}, {"on": true, "note": 74, "velocity": 76, "until": 202.6754290833389}, {"on": false, "note": 74, "velocity": 0, "until": 202.80586358333892}, {"on": true, "note": 74, "velocity": 82, "until": 202.9362980833389}, {"on": false, "note": 74, "velocity": 0, "until": 203.06673258333888}, {"on": true, "note": 74, "velocity": 88, "until": 203.19173258333888}, {"on": false, "note": 74, "velocity": 0, "until": 203.31673258333888}, {"on": true, "note": 74, "velocity": 94, "until": 203.44173258333888}, {"on": false, "note": 74, "velocity": 0, "until": 203.56673258333888}, {"on": true, "note": 86, "velocity": 101, "until": 203.95134758333893}, {"on": false, "note": 86, "velocity": 0, "until": 203.95134758333893}, {"on": true, "note": 88, "velocity": 101, "until": 204.07955258333897}, {"on": false, "note": 88, "velocity": 0, "until": 204.07955258333897}, {"on": true, "note": 86, "velocity": 101, "until": 204.32444958333895}, {"on": false, "note": 86, "velocity": 0, "until": 204.32444958333895}, {"on": true, "note": 86, "velocity": 101, "until": 204.44689808333897}, {"on": false, "note": 86, "velocity": 0, "until": 204.56934658333898}, {"on": true, "note": 86, "velocity": 101, "until": 204.825756583339}, {"on": false, "note": 86, "velocity": 0, "until": 204.825756583339}, {"on": true, "note": 78, "velocity": 101, "until": 205.08216658333907}, {"on": false, "note": 78, "velocity": 0, "until": 205.08216658333907}, {"on": true, "note": 81, "velocity": 101, "until": 205.32706358333908}, {"on": false, "note": 81, "velocity": 0, "until": 205.32706358333908}, {"on": true, "note": 84, "velocity": 101, "until": 205.57196058333912}, {"on": false, "note": 84, "velocity": 0, "until": 205.57196058333912}, {"on": true, "note": 83, "velocity": 101, "until": 205.82837058333914}, {"on": false, "note": 83, "velocity": 0, "until": 206.08478058333915}, {"on": true, "note": 88, "velocity": 101, "until": 206.08478058333915}, {"on": true, "note": 76, "velocity": 101, "until": 207.06286658333914}, {"on": false, "note": 76, "velocity": 0, "until": 207.06286658333914}, {"on": false, "note": 88, "velocity": 0, "until": 207.06286658333914}, {"on": true, "note": 91, "velocity": 101, "until": 207.06286658333914}, {"on": true, "note": 79, "velocity": 101, "until": 207.7822195833393}, {"on": false, "note": 79, "velocity": 0, "until": 207.7822195833393}, {"on": false, "note": 91, "velocity": 0, "until": 208.08221958333928}, {"on": true, "note": 88, "velocity": 101, "until": 208.08221958333928}, {"on": true, "note": 84, "velocity": 101, "until": 208.20970918333927}, {"on": false, "note": 84, "velocity": 0, "until": 208.20970918333927}, {"on": false, "note": 88, "velocity": 0, "until": 208.32126258333926}, {"on": true, "note": 84, "velocity": 101, "until": 208.32126258333926}, {"on": true, "note": 88, "velocity": 101, "until": 208.44875218333925}, {"on": false, "note": 88, "velocity": 0, "until": 208.44875218333925}, {"on": false, "note": 84, "velocity": 0, "until": 208.56030558333924}, {"on": true, "note": 91, "velocity": 101, "until": 208.56030558333924}, {"on": true, "note": 88, "velocity": 101, "until": 209.5629195833392}, {"on": false, "note": 88, "velocity": 0, "until": 209.5629195833392}, {"on": false, "note": 91, "velocity": 0, "until": 209.5629195833392}, {"on": true, "note": 86, "velocity": 101, "until": 209.5629195833392}, {"on": true, "note": 89, "velocity": 101, "until": 210.07573958333936}, {"on": false, "note": 89, "velocity": 0, "until": 210.07573958333936}, {"on": false, "note": 86, "velocity": 0, "until": 210.07573958333936}, {"on": true, "note": 84, "velocity": 101, "until": 210.07573958333936}, {"on": true, "note": 88, "velocity": 101, "until": 210.32063658333936}, {"on": false, "note": 88, "velocity": 0, "until": 210.32063658333936}, {"on": false, "note": 84, "velocity": 0, "until": 210.32063658333936}, {"on": true, "note": 83, "velocity": 101, "until": 210.32063658333936}, {"on": true, "note": 86, "velocity": 101, "until": 210.5553295416727}, {"on": false, "note": 86, "velocity": 0, "until": 210.5553295416727}, {"on": false, "note": 83, "velocity": 0, "until": 210.56553358333937}, {"on": true, "note": 81, "velocity": 101, "until": 210.56553358333937}, {"on": true, "note": 84, "velocity": 101, "until": 210.8197705833394}, {"on": false, "note": 84, "velocity": 0, "until": 210.8197705833394}, {"on": false, "note": 81, "velocity": 0, "until": 212.06013358333942}, {"on": true, "note": 74, "velocity": 101, "until": 212.18968771667275}, {"on": false, "note": 74, "velocity": 0, "until": 212.3030475833394}, {"on": true, "note": 74, "velocity": 101, "until": 212.43260171667274}, {"on": false, "note": 74, "velocity": 0, "until": 212.5459615833394}, {"on": true, "note": 88, "velocity": 101, "until": 213.04805358333937}, {"on": false, "note": 88, "velocity": 0, "until": 213.04805358333937}, {"on": true, "note": 86, "velocity": 101, "until": 213.16902108333937}, {"on": false, "note": 86, "velocity": 0, "until": 213.16902108333937}, {"on": true, "note": 84, "velocity": 101, "until": 213.28998858333938}, {"on": false, "note": 84, "velocity": 0, "until": 213.28998858333938}, {"on": true, "note": 83, "velocity": 101, "until": 213.41095608333939}, {"on": false, "note": 83, "velocity": 0, "until": 213.41095608333939}, {"on": true, "note": 81, "velocity": 101, "until": 213.5218429583394}, {"on": false, "note": 81, "velocity": 0, "until": 213.5319235833394}, {"on": true, "note": 79, "velocity": 101, "until": 213.78088558333928}, {"on": false, "note": 79, "velocity": 0, "until": 214.02984758333926}, {"on": true, "note": 88, "velocity": 101, "until": 214.02984758333926}, {"on": true, "note": 76, "velocity": 101, "until": 214.99408958333933}, {"on": false, "note": 76, "velocity": 0, "until": 214.99408958333933}, {"on": false, "note": 88, "velocity": 0, "until": 214.99408958333933}, {"on": true, "note": 91, "velocity": 101, "until": 214.99408958333933}, {"on": true, "note": 79, "velocity": 101, "until": 215.7057535833393}, {"on": false, "note": 79, "velocity": 0, "until": 215.7057535833393}, {"on": false, "note": 91, "velocity": 0, "until": 216.00575358333927}, {"on": true, "note": 88, "velocity": 101, "until": 216.00575358333927}, {"on": true, "note": 84, "velocity": 101, "until": 216.12690730833927}, {"on": false, "note": 84, "velocity": 0, "until": 216.12690730833927}, {"on": false, "note": 88, "velocity": 0, "until": 216.23652258333928}, {"on": true, "note": 84, "velocity": 101, "until": 216.23652258333928}, {"on": true, "note": 88, "velocity": 101, "until": 216.35767630833928}, {"on": false, "note": 88, "velocity": 0, "until": 216.35767630833928}, {"on": false, "note": 84, "velocity": 0, "until": 216.4672915833393}, {"on": true, "note": 91, "velocity": 101, "until": 216.4672915833393}, {"on": true, "note": 88, "velocity": 101, "until": 218.84080358333898}, {"on": false, "note": 88, "velocity": 0, "until": 218.84080358333898}, {"on": false, "note": 91, "velocity": 0, "until": 218.84080358333898}, {"on": true, "note": 88, "velocity": 101, "until": 218.84080358333898}, {"on": true, "note": 81, "velocity": 101, "until": 219.05072666667223}, {"on": false, "note": 81, "velocity": 0, "until": 219.05072666667223}, {"on": false, "note": 88, "velocity": 0, "until": 219.0698105833389}, {"on": true, "note": 88, "velocity": 101, "until": 219.0698105833389}, {"on": true, "note": 81, "velocity": 101, "until": 219.27973366667214}, {"on": false, "note": 81, "velocity": 0, "until": 219.27973366667214}, {"on": false, "note": 88, "velocity": 0, "until": 219.2988175833388}, {"on": true, "note": 83, "velocity": 101, "until": 219.2988175833388}, {"on": true, "note": 86, "velocity": 101, "until": 219.78464558333837}, {"on": false, "note": 86, "velocity": 0, "until": 219.78464558333837}, {"on": false, "note": 83, "velocity": 0, "until": 219.78464558333837}, {"on": true, "note": 74, "velocity": 101, "until": 219.9139555833383}, {"on": false, "note": 74, "velocity": 0, "until": 220.04326558333827}, {"on": true, "note": 74, "velocity": 101, "until": 220.27403458333825}, {"on": false, "note": 74, "velocity": 0, "until": 220.27403458333825}, {"on": true, "note": 88, "velocity": 121, "until": 220.75986258333816}, {"on": false, "note": 88, "velocity": 0, "until": 220.75986258333816}, {"on": true, "note": 86, "velocity": 114, "until": 220.87750958333817}, {"on": false, "note": 86, "velocity": 0, "until": 220.87750958333817}, {"on": true, "note": 84, "velocity": 112, "until": 220.99515658333817}, {"on": false, "note": 84, "velocity": 0, "until": 220.99515658333817}, {"on": true, "note": 83, "velocity": 110, "until": 221.11280358333818}, {"on": false, "note": 83, "velocity": 0, "until": 221.11280358333818}, {"on": true, "note": 81, "velocity": 108, "until": 221.23045058333818}, {"on": false, "note": 81, "velocity": 0, "until": 221.23045058333818}, {"on": true, "note": 79, "velocity": 106, "until": 221.47336458333814}, {"on": false, "note": 79, "velocity": 0, "until": 223.62911058333773}, {"on": true, "note": 81, "velocity": 101, "until": 223.74675758333774}, {"on": false, "note": 81, "velocity": 0, "until": 223.86440458333774}, {"on": true, "note": 81, "velocity": 101, "until": 224.09969858333776}, {"on": false, "note": 81, "velocity": 0, "until": 224.09969858333776}, {"on": true, "note": 78, "velocity": 101, "until": 224.09969858333776}, {"on": true, "note": 88, "velocity": 121, "until": 224.5855265833377}, {"on": false, "note": 88, "velocity": 0, "until": 224.5855265833377}, {"on": true, "note": 86, "velocity": 114, "until": 224.7031735833377}, {"on": false, "note": 86, "velocity": 0, "until": 224.7031735833377}, {"on": true, "note": 84, "velocity": 112, "until": 224.8208205833377}, {"on": false, "note": 84, "velocity": 0, "until": 224.8208205833377}, {"on": true, "note": 83, "velocity": 110, "until": 224.9384675833377}, {"on": false, "note": 83, "velocity": 0, "until": 224.9384675833377}, {"on": true, "note": 81, "velocity": 108, "until": 225.05611458333772}, {"on": false, "note": 81, "velocity": 0, "until": 225.05611458333772}, {"on": false, "note": 78, "velocity": 0, "until": 225.05611458333772}, {"on": true, "note": 79, "velocity": 106, "until": 225.29902858333767}, {"on": false, "note": 79, "velocity": 0, "until": 227.45477458333727}, {"on": true, "note": 81, "velocity": 101, "until": 227.57242158333727}, {"on": false, "note": 81, "velocity": 0, "until": 227.69006858333728}, {"on": true, "note": 81, "velocity": 101, "until": 227.9253625833373}, {"on": false, "note": 81, "velocity": 0, "until": 227.9253625833373}, {"on": true, "note": 88, "velocity": 114, "until": 227.9253625833373}, {"on": true, "note": 78, "velocity": 101, "until": 228.4111905833372}, {"on": false, "note": 88, "velocity": 0, "until": 228.4111905833372}, {"on": true, "note": 86, "velocity": 110, "until": 228.5288375833372}, {"on": false, "note": 86, "velocity": 0, "until": 228.5288375833372}, {"on": true, "note": 84, "velocity": 109, "until": 228.6464845833372}, {"on": false, "note": 84, "velocity": 0, "until": 228.6464845833372}, {"on": true, "note": 83, "velocity": 108, "until": 228.76413158333722}, {"on": false, "note": 83, "velocity": 0, "until": 228.76413158333722}, {"on": true, "note": 81, "velocity": 107, "until": 228.88177858333722}, {"on": false, "note": 81, "velocity": 0, "until": 228.88177858333722}, {"on": false, "note": 78, "velocity": 0, "until": 228.88177858333722}, {"on": true, "note": 79, "velocity": 106, "until": 229.12469258333718}, {"on": false, "note": 79, "velocity": 0, "until": 229.85843458333724}, {"on": true, "note": 81, "velocity": 101, "until": 229.85843458333724}, {"on": true, "note": 78, "velocity": 101, "until": 230.09843458333725}, {"on": false, "note": 78, "velocity": 0, "until": 230.09843458333725}, {"on": false, "note": 81, "velocity": 0, "until": 230.79644858333725}, {"on": true, "note": 83, "velocity": 101, "until": 230.79644858333725}, {"on": true, "note": 79, "velocity": 101, "until": 231.0393625833372}, {"on": false, "note": 79, "velocity": 0, "until": 231.0393625833372}, {"on": false, "note": 83, "velocity": 0, "until": 231.74029058333718}, {"on": true, "note": 90, "velocity": 101, "until": 231.74029058333718}, {"on": true, "note": 84, "velocity": 101, "until": 231.98320458333714}, {"on": false, "note": 84, "velocity": 0, "until": 231.98320458333714}, {"on": false, "note": 90, "velocity": 0, "until": 232.68413258333712}, {"on": true, "note": 83, "velocity": 101, "until": 232.68413258333712}, {"on": true, "note": 91, "velocity": 101, "until": 232.92222758333716}, {"on": false, "note": 91, "velocity": 0, "until": 232.92222758333716}, {"on": false, "note": 83, "velocity": 0, "until": 233.26508458333723}, {"on": true, "note": 79, "velocity": 101, "until": 233.38905108333722}, {"on": false, "note": 79, "velocity": 0, "until": 233.51301758333722}, {"on": true, "note": 79, "velocity": 101, "until": 233.6369840833372}, {"on": false, "note": 79, "velocity": 0, "until": 233.7609505833372}, {"on": true, "note": 79, "velocity": 101, "until": 234.22625488333722}, {"on": false, "note": 79, "velocity": 0, "until": 234.25074458333722}, {"on": true, "note": 79, "velocity": 101, "until": 234.37471108333722}, {"on": false, "note": 79, "velocity": 0, "until": 234.4986775833372}, {"on": true, "note": 79, "velocity": 101, "until": 234.6226440833372}, {"on": false, "note": 79, "velocity": 0, "until": 234.7466105833372}, {"on": true, "note": 77, "velocity": 101, "until": 234.7466105833372}, {"on": true, "note": 79, "velocity": 101, "until": 235.2216105833372}, {"on": false, "note": 79, "velocity": 0, "until": 235.2216105833372}, {"on": false, "note": 77, "velocity": 0, "until": 235.2466105833372}, {"on": true, "note": 79, "velocity": 101, "until": 235.2466105833372}, {"on": true, "note": 77, "velocity": 101, "until": 235.37266058333722}, {"on": false, "note": 77, "velocity": 0, "until": 235.37266058333722}, {"on": false, "note": 79, "velocity": 0, "until": 235.4987105833372}, {"on": true, "note": 77, "velocity": 101, "until": 235.4987105833372}, {"on": true, "note": 79, "velocity": 101, "until": 235.6247605833372}, {"on": false, "note": 79, "velocity": 0, "until": 235.6247605833372}, {"on": false, "note": 77, "velocity": 0, "until": 235.75081058333723}, {"on": true, "note": 79, "velocity": 101, "until": 235.75081058333723}, {"on": true, "note": 77, "velocity": 101, "until": 236.2338608833372}, {"on": false, "note": 77, "velocity": 0, "until": 236.2338608833372}, {"on": false, "note": 79, "velocity": 0, "until": 236.2592845833372}, {"on": true, "note": 77, "velocity": 101, "until": 236.2592845833372}, {"on": true, "note": 79, "velocity": 101, "until": 236.38803958333722}, {"on": false, "note": 79, "velocity": 0, "until": 236.38803958333722}, {"on": false, "note": 77, "velocity": 0, "until": 236.51679458333723}, {"on": true, "note": 79, "velocity": 101, "until": 236.51679458333723}, {"on": true, "note": 77, "velocity": 101, "until": 236.64554958333724}, {"on": false, "note": 77, "velocity": 0, "until": 236.64554958333724}, {"on": false, "note": 79, "velocity": 0, "until": 236.77430458333725}, {"on": true, "note": 79, "velocity": 101, "until": 236.77430458333725}, {"on": true, "note": 77, "velocity": 101, "until": 237.26995568333726}, {"on": false, "note": 77, "velocity": 0, "until": 237.26995568333726}, {"on": false, "note": 79, "velocity": 0, "until": 237.29604258333725}, {"on": true, "note": 77, "velocity": 101, "until": 237.29604258333725}, {"on": true, "note": 79, "velocity": 101, "until": 237.42762108333727}, {"on": false, "note": 79, "velocity": 0, "until": 237.42762108333727}, {"on": false, "note": 77, "velocity": 0, "until": 237.5591995833373}, {"on": true, "note": 79, "velocity": 101, "until": 237.5591995833373}, {"on": true, "note": 77, "velocity": 101, "until": 237.6907780833373}, {"on": false, "note": 77, "velocity": 0, "until": 237.6907780833373}, {"on": false, "note": 79, "velocity": 0, "until": 237.82235658333732}, {"on": true, "note": 79, "velocity": 101, "until": 237.82235658333732}, {"on": true, "note": 77, "velocity": 101, "until": 238.32455888333735}, {"on": false, "note": 77, "velocity": 0, "until": 238.32455888333735}, {"on": false, "note": 79, "velocity": 0, "until": 238.35099058333734}, {"on": true, "note": 77, "velocity": 101, "until": 238.35099058333734}, {"on": true, "note": 79, "velocity": 101, "until": 238.48860508333735}, {"on": false, "note": 79, "velocity": 0, "until": 238.48860508333735}, {"on": false, "note": 77, "velocity": 0, "until": 238.62621958333736}, {"on": true, "note": 79, "velocity": 101, "until": 238.62621958333736}, {"on": true, "note": 77, "velocity": 101, "until": 238.76383408333737}, {"on": false, "note": 77, "velocity": 0, "until": 238.76383408333737}, {"on": false, "note": 79, "velocity": 0, "until": 238.9811560833374}, {"on": true, "note": 79, "velocity": 116, "until": 238.9811560833374}, {"on": true, "note": 76, "velocity": 101, "until": 239.39399958333743}, {"on": false, "note": 76, "velocity": 0, "until": 239.53161408333744}, {"on": false, "note": 79, "velocity": 0, "until": 239.53161408333744}, {"on": true, "note": 75, "velocity": 101, "until": 239.53161408333744}, {"on": true, "note": 78, "velocity": 116, "until": 239.77257708333747}, {"on": false, "note": 78, "velocity": 0, "until": 239.77257708333747}, {"on": true, "note": 79, "velocity": 116, "until": 239.89305858333748}, {"on": false, "note": 79, "velocity": 0, "until": 239.89305858333748}, {"on": false, "note": 75, "velocity": 0, "until": 239.89305858333748}, {"on": true, "note": 81, "velocity": 116, "until": 240.0135400833375}, {"on": false, "note": 81, "velocity": 0, "until": 240.0135400833375}, {"on": true, "note": 76, "velocity": 101, "until": 240.0135400833375}, {"on": true, "note": 79, "velocity": 116, "until": 240.53302008333748}, {"on": false, "note": 76, "velocity": 0, "until": 240.65159708333746}, {"on": false, "note": 79, "velocity": 0, "until": 240.65159708333746}, {"on": true, "note": 81, "velocity": 116, "until": 240.77017408333745}, {"on": false, "note": 81, "velocity": 0, "until": 240.77017408333745}, {"on": true, "note": 83, "velocity": 116, "until": 240.88875108333744}, {"on": false, "note": 83, "velocity": 0, "until": 240.88875108333744}, {"on": true, "note": 84, "velocity": 116, "until": 241.00732808333743}, {"on": false, "note": 84, "velocity": 0, "until": 241.00732808333743}, {"on": true, "note": 77, "velocity": 101, "until": 241.00732808333743}, {"on": true, "note": 88, "velocity": 116, "until": 241.0468537500041}, {"on": false, "note": 88, "velocity": 0, "until": 241.0468537500041}, {"on": true, "note": 86, "velocity": 116, "until": 241.12590508333741}, {"on": false, "note": 86, "velocity": 0, "until": 241.12590508333741}, {"on": false, "note": 77, "velocity": 0, "until": 241.24448208333743}, {"on": true, "note": 85, "velocity": 116, "until": 241.24448208333743}, {"on": true, "note": 77, "velocity": 101, "until": 241.36305908333745}, {"on": false, "note": 77, "velocity": 0, "until": 241.36305908333745}, {"on": false, "note": 85, "velocity": 0, "until": 241.48163608333746}, {"on": true, "note": 77, "velocity": 101, "until": 241.48163608333746}, {"on": true, "note": 88, "velocity": 116, "until": 241.52116175000413}, {"on": false, "note": 88, "velocity": 0, "until": 241.52116175000413}, {"on": true, "note": 86, "velocity": 116, "until": 241.60021308333745}, {"on": false, "note": 86, "velocity": 0, "until": 241.60021308333745}, {"on": false, "note": 77, "velocity": 0, "until": 241.71879008333747}, {"on": true, "note": 85, "velocity": 116, "until": 241.71879008333747}, {"on": true, "note": 77, "velocity": 101, "until": 241.83736708333748}, {"on": false, "note": 77, "velocity": 0, "until": 241.83736708333748}, {"on": false, "note": 85, "velocity": 0, "until": 241.9559440833375}, {"on": true, "note": 86, "velocity": 116, "until": 241.9559440833375}, {"on": true, "note": 77, "velocity": 101, "until": 242.4457380833375}, {"on": false, "note": 77, "velocity": 0, "until": 242.4457380833375}, {"on": false, "note": 86, "velocity": 0, "until": 242.4457380833375}, {"on": true, "note": 79, "velocity": 101, "until": 242.6765070833375}, {"on": false, "note": 79, "velocity": 0, "until": 242.9072760833375}, {"on": true, "note": 76, "velocity": 101, "until": 242.9072760833375}, {"on": true, "note": 79, "velocity": 116, "until": 243.2746215833375}, {"on": false, "note": 76, "velocity": 0, "until": 243.3970700833375}, {"on": false, "note": 79, "velocity": 0, "until": 243.3970700833375}, {"on": true, "note": 75, "velocity": 101, "until": 243.3970700833375}, {"on": true, "note": 78, "velocity": 116, "until": 243.6278390833375}, {"on": false, "note": 78, "velocity": 0, "until": 243.6278390833375}, {"on": true, "note": 79, "velocity": 116, "until": 243.7432235833375}, {"on": false, "note": 79, "velocity": 0, "until": 243.7432235833375}, {"on": false, "note": 75, "velocity": 0, "until": 243.7432235833375}, {"on": true, "note": 81, "velocity": 116, "until": 243.85860808333751}, {"on": false, "note": 81, "velocity": 0, "until": 243.85860808333751}, {"on": true, "note": 76, "velocity": 101, "until": 243.85860808333751}, {"on": true, "note": 79, "velocity": 116, "until": 244.3484020833375}, {"on": false, "note": 76, "velocity": 0, "until": 244.4669790833375}, {"on": false, "note": 79, "velocity": 0, "until": 244.4669790833375}, {"on": true, "note": 81, "velocity": 116, "until": 244.58555608333748}, {"on": false, "note": 81, "velocity": 0, "until": 244.58555608333748}, {"on": true, "note": 83, "velocity": 116, "until": 244.70413308333747}, {"on": false, "note": 83, "velocity": 0, "until": 244.70413308333747}, {"on": true, "note": 84, "velocity": 116, "until": 244.82271008333745}, {"on": false, "note": 84, "velocity": 0, "until": 244.82271008333745}, {"on": true, "note": 88, "velocity": 116, "until": 244.82271008333745}, {"on": true, "note": 76, "velocity": 101, "until": 244.94128708333747}, {"on": false, "note": 76, "velocity": 0, "until": 244.94128708333747}, {"on": false, "note": 88, "velocity": 0, "until": 245.0598640833375}, {"on": true, "note": 90, "velocity": 116, "until": 245.0598640833375}, {"on": true, "note": 76, "velocity": 101, "until": 245.1784410833375}, {"on": false, "note": 76, "velocity": 0, "until": 245.1784410833375}, {"on": false, "note": 90, "velocity": 0, "until": 245.1784410833375}, {"on": true, "note": 91, "velocity": 116, "until": 245.29701808333752}, {"on": false, "note": 91, "velocity": 0, "until": 245.29701808333752}, {"on": true, "note": 76, "velocity": 101, "until": 245.29701808333752}, {"on": true, "note": 86, "velocity": 116, "until": 245.41559508333754}, {"on": false, "note": 86, "velocity": 0, "until": 245.41559508333754}, {"on": false, "note": 76, "velocity": 0, "until": 245.53417208333755}, {"on": true, "note": 76, "velocity": 101, "until": 245.53417208333755}, {"on": true, "note": 90, "velocity": 116, "until": 245.65274908333757}, {"on": false, "note": 90, "velocity": 0, "until": 245.65274908333757}, {"on": false, "note": 76, "velocity": 0, "until": 245.65274908333757}, {"on": true, "note": 91, "velocity": 116, "until": 245.77132608333758}, {"on": false, "note": 91, "velocity": 0, "until": 245.77132608333758}, {"on": true, "note": 84, "velocity": 116, "until": 245.77132608333758}, {"on": true, "note": 76, "velocity": 101, "until": 246.0162230833376}, {"on": false, "note": 76, "velocity": 0, "until": 246.0162230833376}, {"on": false, "note": 84, "velocity": 0, "until": 246.7226580833378}, {"on": true, "note": 91, "velocity": 101, "until": 246.7226580833378}, {"on": true, "note": 88, "velocity": 91, "until": 247.2124520833378}, {"on": false, "note": 88, "velocity": 0, "until": 247.2124520833378}, {"on": false, "note": 91, "velocity": 0, "until": 247.2124520833378}, {"on": true, "note": 87, "velocity": 91, "until": 247.2124520833378}, {"on": true, "note": 90, "velocity": 101, "until": 247.44322108333782}, {"on": false, "note": 90, "velocity": 0, "until": 247.44322108333782}, {"on": true, "note": 91, "velocity": 101, "until": 247.55860558333782}, {"on": false, "note": 91, "velocity": 0, "until": 247.55860558333782}, {"on": true, "note": 93, "velocity": 101, "until": 247.67399008333786}, {"on": false, "note": 93, "velocity": 0, "until": 247.67399008333786}, {"on": false, "note": 87, "velocity": 0, "until": 247.67399008333786}, {"on": true, "note": 91, "velocity": 101, "until": 247.67399008333786}, {"on": true, "note": 88, "velocity": 91, "until": 248.16378408333784}, {"on": false, "note": 88, "velocity": 0, "until": 248.16378408333784}, {"on": false, "note": 91, "velocity": 0, "until": 248.86532208333787}, {"on": true, "note": 91, "velocity": 101, "until": 248.98532208333788}, {"on": false, "note": 91, "velocity": 0, "until": 249.10532208333788}, {"on": true, "note": 91, "velocity": 101, "until": 249.2253220833379}, {"on": false, "note": 91, "velocity": 0, "until": 249.3453220833379}, {"on": true, "note": 91, "velocity": 101, "until": 249.4653220833379}, {"on": false, "note": 91, "velocity": 0, "until": 249.5853220833379}, {"on": true, "note": 91, "velocity": 101, "until": 249.5853220833379}, {"on": true, "note": 86, "velocity": 101, "until": 249.82532208333788}, {"on": false, "note": 86, "velocity": 0, "until": 249.82532208333788}, {"on": false, "note": 91, "velocity": 0, "until": 250.52686008333765}, {"on": true, "note": 88, "velocity": 91, "until": 250.52686008333765}, {"on": true, "note": 91, "velocity": 101, "until": 251.01665408333764}, {"on": false, "note": 91, "velocity": 0, "until": 251.01665408333764}, {"on": false, "note": 88, "velocity": 0, "until": 251.01665408333764}, {"on": true, "note": 90, "velocity": 101, "until": 251.01665408333764}, {"on": true, "note": 87, "velocity": 91, "until": 251.24742308333765}, {"on": false, "note": 90, "velocity": 0, "until": 251.24742308333765}, {"on": true, "note": 91, "velocity": 101, "until": 251.36280758333766}, {"on": false, "note": 91, "velocity": 0, "until": 251.36280758333766}, {"on": true, "note": 93, "velocity": 101, "until": 251.47819208333766}, {"on": false, "note": 93, "velocity": 0, "until": 251.47819208333766}, {"on": false, "note": 87, "velocity": 0, "until": 251.47819208333766}, {"on": true, "note": 91, "velocity": 101, "until": 251.47819208333766}, {"on": true, "note": 88, "velocity": 91, "until": 251.96798608333765}, {"on": false, "note": 88, "velocity": 0, "until": 251.96798608333765}, {"on": false, "note": 91, "velocity": 0, "until": 252.42952408333767}, {"on": true, "note": 88, "velocity": 101, "until": 252.42952408333767}, {"on": true, "note": 83, "velocity": 101, "until": 252.5476340833377}, {"on": false, "note": 83, "velocity": 0, "until": 252.5476340833377}, {"on": false, "note": 88, "velocity": 0, "until": 252.66574408333773}, {"on": true, "note": 84, "velocity": 101, "until": 252.66574408333773}, {"on": true, "note": 87, "velocity": 101, "until": 252.78385408333776}, {"on": false, "note": 87, "velocity": 0, "until": 252.78385408333776}, {"on": false, "note": 84, "velocity": 0, "until": 252.9019640833378}, {"on": true, "note": 83, "velocity": 101, "until": 252.9019640833378}, {"on": true, "note": 88, "velocity": 101, "until": 253.02007408333782}, {"on": false, "note": 88, "velocity": 0, "until": 253.02007408333782}, {"on": false, "note": 83, "velocity": 0, "until": 253.13818408333785}, {"on": true, "note": 87, "velocity": 101, "until": 253.13818408333785}, {"on": true, "note": 84, "velocity": 101, "until": 253.25629408333788}, {"on": false, "note": 84, "velocity": 0, "until": 253.25629408333788}, {"on": false, "note": 87, "velocity": 0, "until": 253.3744040833379}, {"on": true, "note": 83, "velocity": 101, "until": 253.3744040833379}, {"on": true, "note": 88, "velocity": 101, "until": 253.84684408333828}, {"on": false, "note": 88, "velocity": 0, "until": 253.84684408333828}, {"on": false, "note": 83, "velocity": 0, "until": 254.35539008333828}, {"on": true, "note": 81, "velocity": 101, "until": 254.35539008333828}, {"on": true, "note": 88, "velocity": 101, "until": 254.39620625000495}, {"on": false, "note": 88, "velocity": 0, "until": 254.39620625000495}, {"on": true, "note": 86, "velocity": 101, "until": 254.4778385833383}, {"on": false, "note": 86, "velocity": 0, "until": 254.4778385833383}, {"on": false, "note": 81, "velocity": 0, "until": 254.6002870833383}, {"on": true, "note": 85, "velocity": 101, "until": 254.6002870833383}, {"on": true, "note": 81, "velocity": 101, "until": 254.72273558333828}, {"on": false, "note": 81, "velocity": 0, "until": 254.72273558333828}, {"on": false, "note": 85, "velocity": 0, "until": 254.84518408333827}, {"on": true, "note": 88, "velocity": 101, "until": 254.84518408333827}, {"on": true, "note": 81, "velocity": 101, "until": 254.88364558333828}, {"on": false, "note": 88, "velocity": 0, "until": 254.88364558333828}, {"on": true, "note": 86, "velocity": 101, "until": 254.96056858333827}, {"on": false, "note": 86, "velocity": 0, "until": 254.96056858333827}, {"on": false, "note": 81, "velocity": 0, "until": 255.07595308333828}, {"on": true, "note": 85, "velocity": 101, "until": 255.07595308333828}, {"on": true, "note": 81, "velocity": 101, "until": 255.19133758333828}, {"on": false, "note": 81, "velocity": 0, "until": 255.19133758333828}, {"on": false, "note": 85, "velocity": 0, "until": 255.3067220833383}, {"on": true, "note": 86, "velocity": 101, "until": 255.3067220833383}, {"on": true, "note": 81, "velocity": 101, "until": 255.55161908333832}, {"on": false, "note": 81, "velocity": 0, "until": 255.55161908333832}, {"on": false, "note": 86, "velocity": 0, "until": 256.2580540833383}, {"on": true, "note": 86, "velocity": 101, "until": 256.2580540833383}, {"on": true, "note": 79, "velocity": 101, "until": 256.298870250005}, {"on": false, "note": 86, "velocity": 0, "until": 256.298870250005}, {"on": true, "note": 84, "velocity": 101, "until": 256.38050258333834}, {"on": false, "note": 84, "velocity": 0, "until": 256.38050258333834}, {"on": false, "note": 79, "velocity": 0, "until": 256.50295108333836}, {"on": true, "note": 83, "velocity": 101, "until": 256.50295108333836}, {"on": true, "note": 79, "velocity": 101, "until": 256.6253995833384}, {"on": false, "note": 79, "velocity": 0, "until": 256.6253995833384}, {"on": false, "note": 83, "velocity": 0, "until": 256.7478480833384}, {"on": true, "note": 79, "velocity": 101, "until": 256.7478480833384}, {"on": true, "note": 86, "velocity": 101, "until": 256.7863095833384}, {"on": false, "note": 86, "velocity": 0, "until": 256.7863095833384}, {"on": true, "note": 84, "velocity": 101, "until": 256.8632325833384}, {"on": false, "note": 84, "velocity": 0, "until": 256.8632325833384}, {"on": false, "note": 79, "velocity": 0, "until": 256.9786170833384}, {"on": true, "note": 83, "velocity": 101, "until": 256.9786170833384}, {"on": true, "note": 79, "velocity": 101, "until": 257.0940015833384}, {"on": false, "note": 79, "velocity": 0, "until": 257.0940015833384}, {"on": false, "note": 83, "velocity": 0, "until": 257.2093860833384}, {"on": true, "note": 79, "velocity": 101, "until": 257.2093860833384}, {"on": true, "note": 84, "velocity": 101, "until": 257.45428308333845}, {"on": false, "note": 84, "velocity": 0, "until": 257.45428308333845}, {"on": false, "note": 79, "velocity": 0, "until": 258.16071808333794}, {"on": true, "note": 91, "velocity": 101, "until": 258.16071808333794}, {"on": true, "note": 86, "velocity": 101, "until": 258.28316658333796}, {"on": false, "note": 86, "velocity": 0, "until": 258.28316658333796}, {"on": false, "note": 91, "velocity": 0, "until": 258.405615083338}, {"on": true, "note": 86, "velocity": 101, "until": 258.405615083338}, {"on": true, "note": 91, "velocity": 101, "until": 258.8812810833378}, {"on": false, "note": 86, "velocity": 0, "until": 258.8812810833378}, {"on": true, "note": 88, "velocity": 101, "until": 259.11205008333775}, {"on": false, "note": 88, "velocity": 0, "until": 259.11205008333775}, {"on": false, "note": 91, "velocity": 0, "until": 259.11205008333775}, {"on": true, "note": 91, "velocity": 101, "until": 259.11205008333775}, {"on": true, "note": 89, "velocity": 101, "until": 259.23449858333777}, {"on": false, "note": 89, "velocity": 0, "until": 259.23449858333777}, {"on": false, "note": 91, "velocity": 0, "until": 259.3569470833378}, {"on": true, "note": 86, "velocity": 101, "until": 259.3569470833378}, {"on": true, "note": 91, "velocity": 101, "until": 259.8326130833376}, {"on": false, "note": 86, "velocity": 0, "until": 259.8326130833376}, {"on": true, "note": 88, "velocity": 101, "until": 260.06338208333756}, {"on": false, "note": 88, "velocity": 0, "until": 260.06338208333756}, {"on": false, "note": 91, "velocity": 0, "until": 260.06338208333756}, {"on": true, "note": 91, "velocity": 101, "until": 260.06338208333756}, {"on": true, "note": 89, "velocity": 101, "until": 260.1858305833376}, {"on": false, "note": 89, "velocity": 0, "until": 260.1858305833376}, {"on": false, "note": 91, "velocity": 0, "until": 260.3082790833376}, {"on": true, "note": 86, "velocity": 101, "until": 260.3082790833376}, {"on": true, "note": 91, "velocity": 101, "until": 260.7839450833374}, {"on": false, "note": 86, "velocity": 0, "until": 260.7839450833374}, {"on": true, "note": 88, "velocity": 101, "until": 261.01471408333737}, {"on": false, "note": 88, "velocity": 0, "until": 261.01471408333737}, {"on": false, "note": 91, "velocity": 0, "until": 261.01471408333737}, {"on": true, "note": 86, "velocity": 101, "until": 261.01471408333737}, {"on": true, "note": 91, "velocity": 101, "until": 261.2596110833374}, {"on": false, "note": 91, "velocity": 0, "until": 261.2596110833374}, {"on": false, "note": 86, "velocity": 0, "until": 262.04601908333757}, {"on": true, "note": 76, "velocity": 101, "until": 262.04601908333757}, {"on": true, "note": 79, "velocity": 101, "until": 262.5358130833376}, {"on": false, "note": 79, "velocity": 0, "until": 262.5358130833376}, {"on": false, "note": 76, "velocity": 0, "until": 262.5358130833376}, {"on": true, "note": 75, "velocity": 101, "until": 262.5358130833376}, {"on": true, "note": 78, "velocity": 101, "until": 262.76658208333754}, {"on": false, "note": 78, "velocity": 0, "until": 262.76658208333754}, {"on": true, "note": 79, "velocity": 101, "until": 262.88196658333754}, {"on": false, "note": 79, "velocity": 0, "until": 262.88196658333754}, {"on": true, "note": 81, "velocity": 101, "until": 262.9973510833375}, {"on": false, "note": 81, "velocity": 0, "until": 262.9973510833375}, {"on": false, "note": 75, "velocity": 0, "until": 262.9973510833375}, {"on": true, "note": 79, "velocity": 101, "until": 262.9973510833375}, {"on": true, "note": 76, "velocity": 101, "until": 263.4871450833375}, {"on": false, "note": 76, "velocity": 0, "until": 263.6025295833375}, {"on": false, "note": 79, "velocity": 0, "until": 263.6025295833375}, {"on": true, "note": 81, "velocity": 101, "until": 263.7179140833375}, {"on": false, "note": 81, "velocity": 0, "until": 263.7179140833375}, {"on": true, "note": 83, "velocity": 101, "until": 263.8332985833375}, {"on": false, "note": 83, "velocity": 0, "until": 263.8332985833375}, {"on": true, "note": 84, "velocity": 101, "until": 263.9486830833375}, {"on": false, "note": 84, "velocity": 0, "until": 263.9486830833375}, {"on": true, "note": 77, "velocity": 101, "until": 263.9486830833375}, {"on": true, "note": 88, "velocity": 101, "until": 263.9885235833375}, {"on": false, "note": 88, "velocity": 0, "until": 263.9885235833375}, {"on": true, "note": 86, "velocity": 101, "until": 264.0682045833375}, {"on": false, "note": 86, "velocity": 0, "until": 264.0682045833375}, {"on": false, "note": 77, "velocity": 0, "until": 264.18772608333745}, {"on": true, "note": 85, "velocity": 101, "until": 264.18772608333745}, {"on": true, "note": 77, "velocity": 101, "until": 264.3072475833374}, {"on": false, "note": 77, "velocity": 0, "until": 264.3072475833374}, {"on": false, "note": 85, "velocity": 0, "until": 264.4267690833374}, {"on": true, "note": 88, "velocity": 101, "until": 264.4267690833374}, {"on": true, "note": 77, "velocity": 101, "until": 264.46660958333734}, {"on": false, "note": 88, "velocity": 0, "until": 264.46660958333734}, {"on": true, "note": 86, "velocity": 101, "until": 264.54629058333734}, {"on": false, "note": 86, "velocity": 0, "until": 264.54629058333734}, {"on": false, "note": 77, "velocity": 0, "until": 264.6658120833373}, {"on": true, "note": 85, "velocity": 101, "until": 264.6658120833373}, {"on": true, "note": 77, "velocity": 101, "until": 264.78533358333726}, {"on": false, "note": 77, "velocity": 0, "until": 264.78533358333726}, {"on": false, "note": 85, "velocity": 0, "until": 264.9048550833372}, {"on": true, "note": 86, "velocity": 101, "until": 264.9048550833372}, {"on": true, "note": 77, "velocity": 101, "until": 265.3829410833372}, {"on": false, "note": 77, "velocity": 0, "until": 265.3829410833372}, {"on": false, "note": 86, "velocity": 0, "until": 265.61371008333714}, {"on": true, "note": 82, "velocity": 101, "until": 265.61371008333714}, {"on": true, "note": 88, "velocity": 101, "until": 265.7290945833371}, {"on": false, "note": 88, "velocity": 0, "until": 265.7290945833371}, {"on": false, "note": 82, "velocity": 0, "until": 265.844479083337}, {"on": true, "note": 89, "velocity": 101, "until": 265.844479083337}, {"on": true, "note": 81, "velocity": 101, "until": 265.96447908333704}, {"on": false, "note": 81, "velocity": 0, "until": 265.96447908333704}, {"on": false, "note": 89, "velocity": 0, "until": 266.0844790833371}, {"on": true, "note": 82, "velocity": 101, "until": 266.0844790833371}, {"on": true, "note": 88, "velocity": 101, "until": 266.20447908333716}, {"on": false, "note": 88, "velocity": 0, "until": 266.20447908333716}, {"on": false, "note": 82, "velocity": 0, "until": 266.3244790833372}, {"on": true, "note": 89, "velocity": 101, "until": 266.3244790833372}, {"on": true, "note": 81, "velocity": 101, "until": 266.4444790833373}, {"on": false, "note": 81, "velocity": 0, "until": 266.4444790833373}, {"on": false, "note": 89, "velocity": 0, "until": 266.56447908333735}, {"on": true, "note": 88, "velocity": 101, "until": 266.56447908333735}, {"on": true, "note": 82, "velocity": 101, "until": 266.6844790833374}, {"on": false, "note": 82, "velocity": 0, "until": 266.6844790833374}, {"on": false, "note": 88, "velocity": 0, "until": 266.80447908333747}, {"on": true, "note": 89, "velocity": 101, "until": 266.80447908333747}, {"on": true, "note": 81, "velocity": 101, "until": 267.2844790833384}, {"on": false, "note": 81, "velocity": 0, "until": 267.2844790833384}, {"on": false, "note": 89, "velocity": 0, "until": 267.51524808333835}, {"on": true, "note": 88, "velocity": 101, "until": 267.51524808333835}, {"on": true, "note": 80, "velocity": 101, "until": 267.6306325833383}, {"on": false, "note": 80, "velocity": 0, "until": 267.6306325833383}, {"on": false, "note": 88, "velocity": 0, "until": 267.74601708333824}, {"on": true, "note": 88, "velocity": 101, "until": 267.74601708333824}, {"on": true, "note": 81, "velocity": 101, "until": 267.8645940833382}, {"on": false, "note": 81, "velocity": 0, "until": 267.8645940833382}, {"on": false, "note": 88, "velocity": 0, "until": 267.98317108333816}, {"on": true, "note": 80, "velocity": 101, "until": 267.98317108333816}, {"on": true, "note": 88, "velocity": 101, "until": 268.1017480833381}, {"on": false, "note": 88, "velocity": 0, "until": 268.1017480833381}, {"on": false, "note": 80, "velocity": 0, "until": 268.2203250833381}, {"on": true, "note": 88, "velocity": 101, "until": 268.2203250833381}, {"on": true, "note": 81, "velocity": 101, "until": 268.33890208333804}, {"on": false, "note": 81, "velocity": 0, "until": 268.33890208333804}, {"on": false, "note": 88, "velocity": 0, "until": 268.457479083338}, {"on": true, "note": 88, "velocity": 101, "until": 268.457479083338}, {"on": true, "note": 80, "velocity": 101, "until": 268.57605608333796}, {"on": false, "note": 80, "velocity": 0, "until": 268.57605608333796}, {"on": false, "note": 88, "velocity": 0, "until": 268.6946330833379}, {"on": true, "note": 81, "velocity": 101, "until": 268.6946330833379}, {"on": true, "note": 88, "velocity": 101, "until": 269.16894108333787}, {"on": false, "note": 88, "velocity": 0, "until": 269.16894108333787}, {"on": false, "note": 81, "velocity": 0, "until": 269.3997100833378}, {"on": true, "note": 86, "velocity": 101, "until": 269.3997100833378}, {"on": true, "note": 83, "velocity": 101, "until": 269.51509458333777}, {"on": false, "note": 83, "velocity": 0, "until": 269.51509458333777}, {"on": false, "note": 86, "velocity": 0, "until": 269.63047908333766}, {"on": true, "note": 88, "velocity": 101, "until": 269.63047908333766}, {"on": true, "note": 84, "velocity": 101, "until": 269.74858908333755}, {"on": false, "note": 84, "velocity": 0, "until": 269.74858908333755}, {"on": false, "note": 88, "velocity": 0, "until": 269.86669908333744}, {"on": true, "note": 83, "velocity": 101, "until": 269.86669908333744}, {"on": true, "note": 86, "velocity": 101, "until": 269.9848090833373}, {"on": false, "note": 86, "velocity": 0, "until": 269.9848090833373}, {"on": false, "note": 83, "velocity": 0, "until": 270.1029190833372}, {"on": true, "note": 88, "velocity": 101, "until": 270.1029190833372}, {"on": true, "note": 84, "velocity": 101, "until": 270.2210290833371}, {"on": false, "note": 84, "velocity": 0, "until": 270.2210290833371}, {"on": false, "note": 88, "velocity": 0, "until": 270.339139083337}, {"on": true, "note": 83, "velocity": 101, "until": 270.339139083337}, {"on": true, "note": 86, "velocity": 101, "until": 270.4572490833369}, {"on": false, "note": 86, "velocity": 0, "until": 270.4572490833369}, {"on": false, "note": 83, "velocity": 0, "until": 270.57535908333676}, {"on": true, "note": 88, "velocity": 101, "until": 270.57535908333676}, {"on": true, "note": 84, "velocity": 101, "until": 270.81157908333665}, {"on": false, "note": 84, "velocity": 0, "until": 270.81157908333665}, {"on": false, "note": 88, "velocity": 0, "until": 271.04779908333654}, {"on": true, "note": 83, "velocity": 101, "until": 271.04779908333654}, {"on": true, "note": 86, "velocity": 101, "until": 271.49010633333626}, {"on": false, "note": 86, "velocity": 0, "until": 271.49010633333626}, {"on": false, "note": 83, "velocity": 0, "until": 271.5093370833362}, {"on": true, "note": 82, "velocity": 101, "until": 271.5093370833362}, {"on": true, "note": 85, "velocity": 101, "until": 271.9787230000029}, {"on": false, "note": 85, "velocity": 0, "until": 271.9787230000029}, {"on": false, "note": 82, "velocity": 0, "until": 271.99913108333624}, {"on": true, "note": 84, "velocity": 101, "until": 271.99913108333624}, {"on": true, "note": 81, "velocity": 101, "until": 272.44143833333595}, {"on": false, "note": 81, "velocity": 0, "until": 272.44143833333595}, {"on": false, "note": 84, "velocity": 0, "until": 272.4606690833359}, {"on": true, "note": 79, "velocity": 101, "until": 272.4606690833359}, {"on": true, "note": 83, "velocity": 101, "until": 272.9300550000026}, {"on": false, "note": 83, "velocity": 0, "until": 272.9300550000026}, {"on": false, "note": 79, "velocity": 0, "until": 272.95046308333593}, {"on": true, "note": 79, "velocity": 101, "until": 272.95046308333593}, {"on": true, "note": 82, "velocity": 101, "until": 273.39277033333565}, {"on": false, "note": 82, "velocity": 0, "until": 273.39277033333565}, {"on": false, "note": 79, "velocity": 0, "until": 273.4120010833356}, {"on": true, "note": 80, "velocity": 101, "until": 273.65689808333565}, {"on": true, "note": 84, "velocity": 116, "until": 273.77934658333567}, {"on": false, "note": 84, "velocity": 0, "until": 273.77934658333567}, {"on": true, "note": 86, "velocity": 116, "until": 273.891591041669}, {"on": false, "note": 86, "velocity": 0, "until": 273.9017950833357}, {"on": true, "note": 87, "velocity": 101, "until": 274.13256408333564}, {"on": false, "note": 80, "velocity": 0, "until": 274.13256408333564}, {"on": true, "note": 79, "velocity": 101, "until": 274.3191023583356}, {"on": false, "note": 79, "velocity": 0, "until": 274.3633330833356}, {"on": true, "note": 80, "velocity": 101, "until": 274.5878220000023}, {"on": false, "note": 87, "velocity": 0, "until": 274.6082300833356}, {"on": true, "note": 84, "velocity": 116, "until": 274.73067858333565}, {"on": false, "note": 84, "velocity": 0, "until": 274.73067858333565}, {"on": true, "note": 86, "velocity": 116, "until": 274.842923041669}, {"on": false, "note": 86, "velocity": 0, "until": 274.85312708333566}, {"on": true, "note": 87, "velocity": 101, "until": 275.08389608333516}, {"on": false, "note": 80, "velocity": 0, "until": 275.08389608333516}, {"on": true, "note": 79, "velocity": 101, "until": 275.27043435833514}, {"on": false, "note": 79, "velocity": 0, "until": 275.3146650833351}, {"on": false, "note": 87, "velocity": 0, "until": 275.3146650833351}, {"on": true, "note": 87, "velocity": 101, "until": 275.3146650833351}, {"on": true, "note": 80, "velocity": 101, "until": 275.55956208333515}, {"on": false, "note": 80, "velocity": 0, "until": 275.55956208333515}, {"on": true, "note": 79, "velocity": 101, "until": 275.78405100000185}, {"on": false, "note": 79, "velocity": 0, "until": 275.78405100000185}, {"on": false, "note": 87, "velocity": 0, "until": 275.8044590833352}, {"on": true, "note": 87, "velocity": 101, "until": 275.8044590833352}, {"on": true, "note": 80, "velocity": 101, "until": 276.03522808333486}, {"on": false, "note": 80, "velocity": 0, "until": 276.03522808333486}, {"on": true, "note": 79, "velocity": 101, "until": 276.2467663333348}, {"on": false, "note": 79, "velocity": 0, "until": 276.2467663333348}, {"on": false, "note": 87, "velocity": 0, "until": 276.26599708333475}, {"on": true, "note": 87, "velocity": 101, "until": 276.26599708333475}, {"on": true, "note": 80, "velocity": 101, "until": 276.5108940833348}, {"on": false, "note": 80, "velocity": 0, "until": 276.5108940833348}, {"on": true, "note": 79, "velocity": 101, "until": 276.7353830000015}, {"on": false, "note": 79, "velocity": 0, "until": 276.7353830000015}, {"on": false, "note": 87, "velocity": 0, "until": 276.7557910833348}, {"on": true, "note": 87, "velocity": 101, "until": 276.7557910833348}, {"on": true, "note": 80, "velocity": 101, "until": 276.9865600833345}, {"on": false, "note": 80, "velocity": 0, "until": 276.9865600833345}, {"on": true, "note": 79, "velocity": 101, "until": 277.1980983333344}, {"on": false, "note": 79, "velocity": 0, "until": 277.1980983333344}, {"on": false, "note": 87, "velocity": 0, "until": 277.2173290833344}, {"on": true, "note": 79, "velocity": 101, "until": 277.2173290833344}, {"on": true, "note": 82, "velocity": 101, "until": 277.46222608333443}, {"on": false, "note": 82, "velocity": 0, "until": 277.46222608333443}, {"on": true, "note": 79, "velocity": 116, "until": 277.58467458333445}, {"on": true, "note": 81, "velocity": 116, "until": 277.70712308333447}, {"on": false, "note": 81, "velocity": 0, "until": 277.70712308333447}, {"on": true, "note": 82, "velocity": 101, "until": 278.16866108333386}, {"on": false, "note": 79, "velocity": 0, "until": 278.16866108333386}, {"on": false, "note": 79, "velocity": 0, "until": 278.16866108333386}, {"on": true, "note": 79, "velocity": 101, "until": 278.39315000000056}, {"on": false, "note": 82, "velocity": 0, "until": 278.4135580833339}, {"on": true, "note": 79, "velocity": 116, "until": 278.5360065833339}, {"on": true, "note": 81, "velocity": 116, "until": 278.65845508333393}, {"on": false, "note": 81, "velocity": 0, "until": 278.65845508333393}, {"on": true, "note": 82, "velocity": 101, "until": 279.1199930833333}, {"on": false, "note": 79, "velocity": 0, "until": 279.1199930833333}, {"on": false, "note": 79, "velocity": 0, "until": 279.1199930833333}, {"on": true, "note": 79, "velocity": 101, "until": 279.344482}, {"on": false, "note": 82, "velocity": 0, "until": 279.36489008333336}, {"on": true, "note": 79, "velocity": 116, "until": 279.4873385833334}, {"on": true, "note": 81, "velocity": 116, "until": 279.59958304166673}, {"on": false, "note": 81, "velocity": 0, "until": 279.6097870833334}, {"on": false, "note": 79, "velocity": 0, "until": 279.6097870833334}, {"on": false, "note": 79, "velocity": 0, "until": 279.6097870833334}, {"on": true, "note": 79, "velocity": 101, "until": 279.840556083333}, {"on": true, "note": 79, "velocity": 101, "until": 279.9559405833329}, {"on": true, "note": 81, "velocity": 101, "until": 280.0520943333329}, {"on": false, "note": 79, "velocity": 0, "until": 280.06170970833284}, {"on": false, "note": 81, "velocity": 0, "until": 280.0713250833328}, {"on": false, "note": 79, "velocity": 0, "until": 280.0713250833328}, {"on": true, "note": 79, "velocity": 101, "until": 280.31622208333283}, {"on": true, "note": 79, "velocity": 101, "until": 280.43867058333285}, {"on": true, "note": 81, "velocity": 101, "until": 280.54071099999953}, {"on": false, "note": 79, "velocity": 0, "until": 280.5509150416662}, {"on": false, "note": 81, "velocity": 0, "until": 280.56111908333287}, {"on": false, "note": 79, "velocity": 0, "until": 280.56111908333287}, {"on": true, "note": 79, "velocity": 101, "until": 280.79188808333254}, {"on": true, "note": 79, "velocity": 101, "until": 280.9072725833325}, {"on": true, "note": 81, "velocity": 101, "until": 281.0130417083324}, {"on": false, "note": 81, "velocity": 0, "until": 281.0226570833324}, {"on": false, "note": 79, "velocity": 0, "until": 281.0226570833324}, {"on": false, "note": 79, "velocity": 0, "until": 281.0226570833324}, {"on": true, "note": 81, "velocity": 101, "until": 281.0226570833324}, {"on": true, "note": 86, "velocity": 101, "until": 281.74867108333234}, {"on": false, "note": 86, "velocity": 0, "until": 281.74867108333234}, {"on": false, "note": 81, "velocity": 0, "until": 281.74867108333234}, {"on": true, "note": 85, "velocity": 101, "until": 281.74867108333234}, {"on": true, "note": 82, "velocity": 101, "until": 281.98489108333223}, {"on": false, "note": 82, "velocity": 0, "until": 281.98489108333223}, {"on": false, "note": 85, "velocity": 0, "until": 281.98489108333223}, {"on": true, "note": 81, "velocity": 101, "until": 281.98489108333223}, {"on": true, "note": 86, "velocity": 101, "until": 282.7218580833322}, {"on": false, "note": 86, "velocity": 0, "until": 282.7218580833322}, {"on": false, "note": 81, "velocity": 0, "until": 282.7218580833322}, {"on": true, "note": 82, "velocity": 101, "until": 282.7218580833322}, {"on": true, "note": 85, "velocity": 101, "until": 282.9609010833322}, {"on": false, "note": 85, "velocity": 0, "until": 282.9609010833322}, {"on": false, "note": 82, "velocity": 0, "until": 282.9609010833322}, {"on": true, "note": 81, "velocity": 101, "until": 282.9609010833322}, {"on": true, "note": 86, "velocity": 101, "until": 283.2109010833322}, {"on": false, "note": 86, "velocity": 0, "until": 283.2109010833322}, {"on": false, "note": 81, "velocity": 0, "until": 283.2109010833322}, {"on": true, "note": 83, "velocity": 101, "until": 283.2109010833322}, {"on": true, "note": 88, "velocity": 101, "until": 283.46090108333226}, {"on": false, "note": 88, "velocity": 0, "until": 283.46090108333226}, {"on": false, "note": 83, "velocity": 0, "until": 283.46090108333226}, {"on": true, "note": 81, "velocity": 101, "until": 283.46090108333226}, {"on": true, "note": 86, "velocity": 101, "until": 283.7028360833322}, {"on": false, "note": 86, "velocity": 0, "until": 283.7028360833322}, {"on": false, "note": 81, "velocity": 0, "until": 283.7028360833322}, {"on": true, "note": 79, "velocity": 101, "until": 283.7028360833322}, {"on": true, "note": 84, "velocity": 101, "until": 283.9447710833322}, {"on": false, "note": 84, "velocity": 0, "until": 283.9447710833322}, {"on": false, "note": 79, "velocity": 0, "until": 283.9447710833322}, {"on": true, "note": 78, "velocity": 101, "until": 283.9447710833322}, {"on": true, "note": 83, "velocity": 101, "until": 284.18966808333226}, {"on": false, "note": 83, "velocity": 0, "until": 284.18966808333226}, {"on": false, "note": 78, "velocity": 0, "until": 284.18966808333226}, {"on": true, "note": 86, "velocity": 101, "until": 284.18966808333226}, {"on": true, "note": 79, "velocity": 101, "until": 284.23048424999894}, {"on": false, "note": 86, "velocity": 0, "until": 284.23048424999894}, {"on": true, "note": 84, "velocity": 101, "until": 284.4345650833323}, {"on": false, "note": 84, "velocity": 0, "until": 284.4345650833323}, {"on": false, "note": 79, "velocity": 0, "until": 284.4345650833323}, {"on": true, "note": 78, "velocity": 101, "until": 284.4345650833323}, {"on": true, "note": 83, "velocity": 101, "until": 284.68147808333237}, {"on": false, "note": 83, "velocity": 0, "until": 284.68147808333237}, {"on": false, "note": 78, "velocity": 0, "until": 284.68147808333237}, {"on": true, "note": 76, "velocity": 101, "until": 284.68147808333237}, {"on": true, "note": 81, "velocity": 101, "until": 284.9283910833325}, {"on": false, "note": 81, "velocity": 0, "until": 284.9283910833325}, {"on": false, "note": 76, "velocity": 0, "until": 284.9283910833325}, {"on": true, "note": 79, "velocity": 101, "until": 284.9283910833325}, {"on": true, "note": 74, "velocity": 101, "until": 285.0539140833324}, {"on": false, "note": 79, "velocity": 0, "until": 285.17943708333235}, {"on": false, "note": 74, "velocity": 0, "until": 285.17943708333235}, {"on": true, "note": 74, "velocity": 101, "until": 285.3049600833323}, {"on": false, "note": 74, "velocity": 0, "until": 285.4304830833322}, {"on": true, "note": 79, "velocity": 101, "until": 286.16539908333255}, {"on": false, "note": 79, "velocity": 0, "until": 286.16539908333255}, {"on": true, "note": 74, "velocity": 101, "until": 286.2909220833325}, {"on": false, "note": 74, "velocity": 0, "until": 286.4164450833324}, {"on": true, "note": 83, "velocity": 101, "until": 287.15136108333274}, {"on": false, "note": 83, "velocity": 0, "until": 287.15136108333274}, {"on": true, "note": 81, "velocity": 101, "until": 287.2768840833327}, {"on": false, "note": 81, "velocity": 0, "until": 287.4024070833326}, {"on": true, "note": 84, "velocity": 101, "until": 288.13732308333294}, {"on": false, "note": 84, "velocity": 0, "until": 288.13732308333294}, {"on": true, "note": 81, "velocity": 101, "until": 288.2628460833329}, {"on": false, "note": 81, "velocity": 0, "until": 288.3883690833328}, {"on": true, "note": 88, "velocity": 101, "until": 288.8722390833333}, {"on": false, "note": 88, "velocity": 0, "until": 288.8722390833333}, {"on": true, "note": 86, "velocity": 101, "until": 289.24880808333205}, {"on": false, "note": 86, "velocity": 0, "until": 289.24880808333205}, {"on": true, "note": 88, "velocity": 101, "until": 289.37433108333175}, {"on": false, "note": 88, "velocity": 0, "until": 289.37433108333175}, {"on": true, "note": 86, "velocity": 101, "until": 289.6162660833319}, {"on": false, "note": 86, "velocity": 0, "until": 289.6162660833319}, {"on": true, "note": 84, "velocity": 101, "until": 289.73723358333194}, {"on": false, "note": 84, "velocity": 0, "until": 289.858201083332}, {"on": true, "note": 83, "velocity": 101, "until": 289.98372408333194}, {"on": false, "note": 83, "velocity": 0, "until": 289.98372408333194}, {"on": true, "note": 84, "velocity": 101, "until": 290.10924708333187}, {"on": false, "note": 84, "velocity": 0, "until": 290.10924708333187}, {"on": true, "note": 83, "velocity": 101, "until": 290.2347700833318}, {"on": false, "note": 83, "velocity": 0, "until": 290.2347700833318}, {"on": true, "note": 81, "velocity": 101, "until": 290.3602930833317}, {"on": false, "note": 81, "velocity": 0, "until": 290.3602930833317}, {"on": true, "note": 83, "velocity": 101, "until": 290.4288413333318}, {"on": false, "note": 83, "velocity": 0, "until": 290.60222808333185}, {"on": true, "note": 91, "velocity": 101, "until": 290.6707763333319}, {"on": false, "note": 91, "velocity": 0, "until": 290.844163083332}, {"on": true, "note": 86, "velocity": 101, "until": 291.2207320833312}, {"on": false, "note": 86, "velocity": 0, "until": 291.2207320833312}, {"on": true, "note": 88, "velocity": 101, "until": 291.346255083331}, {"on": false, "note": 88, "velocity": 0, "until": 291.346255083331}, {"on": true, "note": 86, "velocity": 101, "until": 291.58819008333114}, {"on": false, "note": 86, "velocity": 0, "until": 291.58819008333114}, {"on": true, "note": 84, "velocity": 101, "until": 291.7091575833312}, {"on": false, "note": 84, "velocity": 0, "until": 291.83012508333127}, {"on": true, "note": 83, "velocity": 101, "until": 291.9556480833312}, {"on": false, "note": 83, "velocity": 0, "until": 291.9556480833312}, {"on": true, "note": 84, "velocity": 101, "until": 292.0811710833311}, {"on": false, "note": 84, "velocity": 0, "until": 292.0811710833311}, {"on": true, "note": 83, "velocity": 101, "until": 292.20669408333106}, {"on": false, "note": 83, "velocity": 0, "until": 292.20669408333106}, {"on": true, "note": 81, "velocity": 101, "until": 292.332217083331}, {"on": false, "note": 81, "velocity": 0, "until": 292.332217083331}, {"on": true, "note": 79, "velocity": 101, "until": 292.57415208333106}, {"on": false, "note": 79, "velocity": 0, "until": 293.61488708333104}, {"on": true, "note": 74, "velocity": 81, "until": 293.73733558333106}, {"on": false, "note": 74, "velocity": 0, "until": 293.8597840833311}, {"on": true, "note": 86, "velocity": 81, "until": 294.617501083331}, {"on": false, "note": 86, "velocity": 0, "until": 294.617501083331}, {"on": true, "note": 82, "velocity": 81, "until": 294.739949583331}, {"on": false, "note": 82, "velocity": 0, "until": 294.862398083331}, {"on": true, "note": 79, "velocity": 81, "until": 295.6201150833309}, {"on": false, "note": 79, "velocity": 0, "until": 295.6201150833309}, {"on": true, "note": 79, "velocity": 81, "until": 295.74256358333093}, {"on": false, "note": 79, "velocity": 0, "until": 295.86501208333095}, {"on": true, "note": 85, "velocity": 81, "until": 296.3778320833308}, {"on": false, "note": 85, "velocity": 0, "until": 300.90591208333063}, {"on": true, "note": 86, "velocity": 101, "until": 301.40800408333}, {"on": false, "note": 86, "velocity": 0, "until": 301.64993908333014}, {"on": true, "note": 81, "velocity": 101, "until": 301.64993908333014}, {"on": true, "note": 78, "velocity": 101, "until": 301.7709065833302}, {"on": false, "note": 78, "velocity": 0, "until": 301.7709065833302}, {"on": false, "note": 81, "velocity": 0, "until": 301.89187408333026}, {"on": true, "note": 79, "velocity": 101, "until": 301.89187408333026}, {"on": true, "note": 82, "velocity": 101, "until": 302.0173970833302}, {"on": false, "note": 82, "velocity": 0, "until": 302.0173970833302}, {"on": false, "note": 79, "velocity": 0, "until": 302.14292008333007}, {"on": true, "note": 81, "velocity": 101, "until": 302.14292008333007}, {"on": true, "note": 84, "velocity": 101, "until": 302.26844308333}, {"on": false, "note": 84, "velocity": 0, "until": 302.26844308333}, {"on": false, "note": 81, "velocity": 0, "until": 302.39396608332993}, {"on": true, "note": 82, "velocity": 101, "until": 302.39396608332993}, {"on": true, "note": 86, "velocity": 101, "until": 302.51493358333}, {"on": false, "note": 86, "velocity": 0, "until": 302.51493358333}, {"on": false, "note": 82, "velocity": 0, "until": 304.84976008333}, {"on": true, "note": 86, "velocity": 101, "until": 305.34562608333033}, {"on": false, "note": 86, "velocity": 0, "until": 305.5827800833302}, {"on": true, "note": 78, "velocity": 101, "until": 305.5827800833302}, {"on": true, "note": 81, "velocity": 101, "until": 305.70135708333015}, {"on": false, "note": 81, "velocity": 0, "until": 305.70135708333015}, {"on": false, "note": 78, "velocity": 0, "until": 305.8199340833301}, {"on": true, "note": 82, "velocity": 101, "until": 305.8199340833301}, {"on": true, "note": 79, "velocity": 101, "until": 305.94390058333016}, {"on": false, "note": 79, "velocity": 0, "until": 305.94390058333016}, {"on": false, "note": 82, "velocity": 0, "until": 306.0678670833302}, {"on": true, "note": 84, "velocity": 101, "until": 306.0678670833302}, {"on": true, "note": 81, "velocity": 101, "until": 306.19183358333026}, {"on": false, "note": 81, "velocity": 0, "until": 306.19183358333026}, {"on": false, "note": 84, "velocity": 0, "until": 306.3158000833303}, {"on": true, "note": 86, "velocity": 101, "until": 306.3158000833303}, {"on": true, "note": 82, "velocity": 101, "until": 306.4343770833303}, {"on": false, "note": 82, "velocity": 0, "until": 306.4343770833303}, {"on": false, "note": 86, "velocity": 0, "until": 306.7901080833302}, {"on": true, "note": 89, "velocity": 101, "until": 306.7901080833302}, {"on": true, "note": 81, "velocity": 101, "until": 307.1620075833305}, {"on": false, "note": 89, "velocity": 0, "until": 307.1620075833305}, {"on": true, "note": 91, "velocity": 101, "until": 307.28597408333053}, {"on": false, "note": 91, "velocity": 0, "until": 307.28597408333053}, {"on": true, "note": 89, "velocity": 101, "until": 307.51324666666375}, {"on": false, "note": 89, "velocity": 0, "until": 307.5231280833304}, {"on": false, "note": 81, "velocity": 0, "until": 307.5231280833304}, {"on": true, "note": 81, "velocity": 101, "until": 307.5231280833304}, {"on": true, "note": 87, "velocity": 101, "until": 307.64170508333035}, {"on": false, "note": 87, "velocity": 0, "until": 307.64170508333035}, {"on": false, "note": 81, "velocity": 0, "until": 307.7602820833303}, {"on": true, "note": 82, "velocity": 101, "until": 307.7602820833303}, {"on": true, "note": 86, "velocity": 101, "until": 307.869785824997}, {"on": false, "note": 86, "velocity": 0, "until": 307.8842485833303}, {"on": false, "note": 82, "velocity": 0, "until": 307.8842485833303}, {"on": true, "note": 89, "velocity": 101, "until": 307.99788454166367}, {"on": false, "note": 89, "velocity": 0, "until": 308.00821508333036}, {"on": true, "note": 87, "velocity": 101, "until": 308.00821508333036}, {"on": true, "note": 81, "velocity": 101, "until": 308.0701983333304}, {"on": false, "note": 87, "velocity": 0, "until": 308.1321815833304}, {"on": false, "note": 81, "velocity": 0, "until": 308.1321815833304}, {"on": true, "note": 84, "velocity": 101, "until": 308.2024292666637}, {"on": false, "note": 84, "velocity": 0, "until": 308.2561480833304}, {"on": true, "note": 82, "velocity": 101, "until": 308.37472508333036}, {"on": false, "note": 82, "velocity": 0, "until": 308.73045608333035}, {"on": true, "note": 85, "velocity": 101, "until": 308.73045608333035}, {"on": true, "note": 88, "velocity": 101, "until": 309.44529108333114}, {"on": false, "note": 88, "velocity": 0, "until": 309.44529108333114}, {"on": false, "note": 85, "velocity": 0, "until": 309.44529108333114}, {"on": true, "note": 88, "velocity": 101, "until": 309.44529108333114}, {"on": true, "note": 85, "velocity": 101, "until": 309.5597945833312}, {"on": false, "note": 85, "velocity": 0, "until": 309.5597945833312}, {"on": false, "note": 88, "velocity": 0, "until": 309.6742980833313}, {"on": true, "note": 89, "velocity": 101, "until": 309.6742980833313}, {"on": true, "note": 86, "velocity": 101, "until": 309.79575508333136}, {"on": false, "note": 86, "velocity": 0, "until": 309.79575508333136}, {"on": false, "note": 89, "velocity": 0, "until": 309.9172120833314}, {"on": true, "note": 91, "velocity": 101, "until": 309.9172120833314}, {"on": true, "note": 88, "velocity": 101, "until": 310.0386690833314}, {"on": false, "note": 88, "velocity": 0, "until": 310.0386690833314}, {"on": false, "note": 91, "velocity": 0, "until": 310.1601260833314}, {"on": true, "note": 93, "velocity": 101, "until": 310.1601260833314}, {"on": true, "note": 89, "velocity": 101, "until": 310.2746295833315}, {"on": false, "note": 89, "velocity": 0, "until": 310.2746295833315}, {"on": false, "note": 93, "velocity": 0, "until": 310.6181400833316}, {"on": true, "note": 91, "velocity": 101, "until": 310.6181400833316}, {"on": true, "note": 88, "velocity": 101, "until": 311.3329750833325}, {"on": false, "note": 88, "velocity": 0, "until": 311.3329750833325}, {"on": false, "note": 91, "velocity": 0, "until": 311.3329750833325}, {"on": true, "note": 76, "velocity": 101, "until": 311.3329750833325}, {"on": true, "note": 79, "velocity": 101, "until": 311.44747858333255}, {"on": false, "note": 79, "velocity": 0, "until": 311.44747858333255}, {"on": false, "note": 76, "velocity": 0, "until": 311.5619820833326}, {"on": true, "note": 81, "velocity": 101, "until": 311.5619820833326}, {"on": true, "note": 77, "velocity": 101, "until": 311.6834390833327}, {"on": false, "note": 77, "velocity": 0, "until": 311.6834390833327}, {"on": false, "note": 81, "velocity": 0, "until": 311.8048960833328}, {"on": true, "note": 82, "velocity": 101, "until": 311.8048960833328}, {"on": true, "note": 79, "velocity": 101, "until": 311.92635308333286}, {"on": false, "note": 79, "velocity": 0, "until": 311.92635308333286}, {"on": false, "note": 82, "velocity": 0, "until": 312.04781008333293}, {"on": true, "note": 84, "velocity": 101, "until": 312.04781008333293}, {"on": true, "note": 81, "velocity": 101, "until": 312.162313583333}, {"on": false, "note": 81, "velocity": 0, "until": 312.162313583333}, {"on": false, "note": 84, "velocity": 0, "until": 312.50582408333315}, {"on": true, "note": 85, "velocity": 101, "until": 312.50582408333315}, {"on": true, "note": 79, "velocity": 101, "until": 312.91928508333325}, {"on": false, "note": 85, "velocity": 0, "until": 312.91928508333325}, {"on": true, "note": 86, "velocity": 101, "until": 313.03386841666685}, {"on": false, "note": 79, "velocity": 0, "until": 313.0442850833336}, {"on": false, "note": 86, "velocity": 0, "until": 313.0442850833336}, {"on": true, "note": 85, "velocity": 101, "until": 313.0442850833336}, {"on": true, "note": 79, "velocity": 101, "until": 313.16333258333356}, {"on": false, "note": 79, "velocity": 0, "until": 313.27245945833357}, {"on": false, "note": 85, "velocity": 0, "until": 313.2823800833336}, {"on": true, "note": 85, "velocity": 101, "until": 313.2823800833336}, {"on": true, "note": 79, "velocity": 101, "until": 313.40142758333354}, {"on": false, "note": 79, "velocity": 0, "until": 313.40142758333354}, {"on": false, "note": 85, "velocity": 0, "until": 313.5204750833335}, {"on": true, "note": 79, "velocity": 101, "until": 313.5204750833335}, {"on": true, "note": 85, "velocity": 101, "until": 314.5230890833335}, {"on": false, "note": 85, "velocity": 0, "until": 314.5230890833335}, {"on": false, "note": 79, "velocity": 0, "until": 314.5230890833335}, {"on": true, "note": 86, "velocity": 101, "until": 314.5230890833335}, {"on": true, "note": 79, "velocity": 101, "until": 314.90770408333333}, {"on": false, "note": 86, "velocity": 0, "until": 314.90770408333333}, {"on": true, "note": 88, "velocity": 101, "until": 315.0252253333333}, {"on": false, "note": 79, "velocity": 0, "until": 315.0359090833333}, {"on": false, "note": 88, "velocity": 0, "until": 315.0359090833333}, {"on": true, "note": 79, "velocity": 101, "until": 315.0359090833333}, {"on": true, "note": 86, "velocity": 101, "until": 315.1583575833333}, {"on": false, "note": 79, "velocity": 0, "until": 315.28080608333335}, {"on": false, "note": 86, "velocity": 0, "until": 315.28080608333335}, {"on": true, "note": 79, "velocity": 101, "until": 315.28080608333335}, {"on": true, "note": 86, "velocity": 101, "until": 315.40325458333336}, {"on": false, "note": 86, "velocity": 0, "until": 315.40325458333336}, {"on": false, "note": 79, "velocity": 0, "until": 315.5257030833334}, {"on": true, "note": 78, "velocity": 101, "until": 315.5257030833334}, {"on": true, "note": 86, "velocity": 101, "until": 316.5720600833333}, {"on": false, "note": 86, "velocity": 0, "until": 316.5720600833333}, {"on": false, "note": 78, "velocity": 0, "until": 318.62477008333485}, {"on": true, "note": 86, "velocity": 101, "until": 319.01607358333507}, {"on": false, "note": 86, "velocity": 0, "until": 319.01607358333507}, {"on": true, "note": 88, "velocity": 101, "until": 319.14650808333516}, {"on": false, "note": 88, "velocity": 0, "until": 319.14650808333516}, {"on": true, "note": 86, "velocity": 101, "until": 319.3965080833353}, {"on": false, "note": 86, "velocity": 0, "until": 319.3965080833353}, {"on": true, "note": 86, "velocity": 101, "until": 319.52150808333533}, {"on": false, "note": 86, "velocity": 0, "until": 319.6465080833354}, {"on": true, "note": 86, "velocity": 101, "until": 319.9073770833355}, {"on": false, "note": 86, "velocity": 0, "until": 319.9073770833355}, {"on": true, "note": 78, "velocity": 101, "until": 320.16824608333576}, {"on": false, "note": 78, "velocity": 0, "until": 320.16824608333576}, {"on": true, "note": 81, "velocity": 101, "until": 320.4182460833359}, {"on": false, "note": 81, "velocity": 0, "until": 320.4182460833359}, {"on": true, "note": 84, "velocity": 101, "until": 320.668246083336}, {"on": false, "note": 84, "velocity": 0, "until": 320.668246083336}, {"on": true, "note": 83, "velocity": 101, "until": 321.18998408333636}, {"on": false, "note": 83, "velocity": 0, "until": 321.18998408333636}, {"on": true, "note": 81, "velocity": 76, "until": 321.3149840833364}, {"on": false, "note": 81, "velocity": 0, "until": 321.3149840833364}, {"on": true, "note": 79, "velocity": 76, "until": 321.4399840833364}, {"on": false, "note": 79, "velocity": 0, "until": 321.4399840833364}, {"on": true, "note": 78, "velocity": 76, "until": 321.56498408333647}, {"on": false, "note": 78, "velocity": 0, "until": 321.56498408333647}, {"on": true, "note": 76, "velocity": 76, "until": 321.6899840833365}, {"on": false, "note": 76, "velocity": 0, "until": 321.6899840833365}, {"on": true, "note": 74, "velocity": 76, "until": 321.8204185833366}, {"on": false, "note": 74, "velocity": 0, "until": 321.95085308333665}, {"on": true, "note": 74, "velocity": 82, "until": 322.0812875833368}, {"on": false, "note": 74, "velocity": 0, "until": 322.2117220833369}, {"on": true, "note": 74, "velocity": 88, "until": 322.33672208333695}, {"on": false, "note": 74, "velocity": 0, "until": 322.46172208333695}, {"on": true, "note": 74, "velocity": 94, "until": 322.586722083337}, {"on": false, "note": 74, "velocity": 0, "until": 322.711722083337}, {"on": true, "note": 86, "velocity": 101, "until": 323.0963370833369}, {"on": false, "note": 86, "velocity": 0, "until": 323.0963370833369}, {"on": true, "note": 88, "velocity": 101, "until": 323.22454208333687}, {"on": false, "note": 88, "velocity": 0, "until": 323.22454208333687}, {"on": true, "note": 86, "velocity": 101, "until": 323.4694390833369}, {"on": false, "note": 86, "velocity": 0, "until": 323.4694390833369}, {"on": true, "note": 86, "velocity": 101, "until": 323.5918875833369}, {"on": false, "note": 86, "velocity": 0, "until": 323.71433608333695}, {"on": true, "note": 86, "velocity": 101, "until": 323.97074608333685}, {"on": false, "note": 86, "velocity": 0, "until": 323.97074608333685}, {"on": true, "note": 78, "velocity": 101, "until": 324.2271560833367}, {"on": false, "note": 78, "velocity": 0, "until": 324.2271560833367}, {"on": true, "note": 81, "velocity": 101, "until": 324.47205308333673}, {"on": false, "note": 81, "velocity": 0, "until": 324.47205308333673}, {"on": true, "note": 84, "velocity": 101, "until": 324.71695008333677}, {"on": false, "note": 84, "velocity": 0, "until": 324.71695008333677}, {"on": true, "note": 83, "velocity": 101, "until": 324.9733600833367}, {"on": false, "note": 83, "velocity": 0, "until": 325.22977008333663}, {"on": true, "note": 88, "velocity": 101, "until": 325.22977008333663}, {"on": true, "note": 76, "velocity": 101, "until": 326.2078560833365}, {"on": false, "note": 76, "velocity": 0, "until": 326.2078560833365}, {"on": false, "note": 88, "velocity": 0, "until": 326.2078560833365}, {"on": true, "note": 91, "velocity": 101, "until": 326.2078560833365}, {"on": true, "note": 79, "velocity": 101, "until": 326.92720908333615}, {"on": false, "note": 79, "velocity": 0, "until": 326.92720908333615}, {"on": false, "note": 91, "velocity": 0, "until": 327.22720908333616}, {"on": true, "note": 88, "velocity": 101, "until": 327.22720908333616}, {"on": true, "note": 84, "velocity": 101, "until": 327.35469868333615}, {"on": false, "note": 84, "velocity": 0, "until": 327.35469868333615}, {"on": false, "note": 88, "velocity": 0, "until": 327.46625208333614}, {"on": true, "note": 84, "velocity": 101, "until": 327.46625208333614}, {"on": true, "note": 88, "velocity": 101, "until": 327.59374168333613}, {"on": false, "note": 88, "velocity": 0, "until": 327.59374168333613}, {"on": false, "note": 84, "velocity": 0, "until": 327.7052950833361}, {"on": true, "note": 91, "velocity": 101, "until": 327.7052950833361}, {"on": true, "note": 88, "velocity": 101, "until": 328.7079090833362}, {"on": false, "note": 88, "velocity": 0, "until": 328.7079090833362}, {"on": false, "note": 91, "velocity": 0, "until": 328.7079090833362}, {"on": true, "note": 86, "velocity": 101, "until": 328.7079090833362}, {"on": true, "note": 89, "velocity": 101, "until": 329.2207290833363}, {"on": false, "note": 89, "velocity": 0, "until": 329.2207290833363}, {"on": false, "note": 86, "velocity": 0, "until": 329.2207290833363}, {"on": true, "note": 84, "velocity": 101, "until": 329.2207290833363}, {"on": true, "note": 88, "velocity": 101, "until": 329.4656260833363}, {"on": false, "note": 88, "velocity": 0, "until": 329.4656260833363}, {"on": false, "note": 84, "velocity": 0, "until": 329.4656260833363}, {"on": true, "note": 86, "velocity": 101, "until": 329.4656260833363}, {"on": true, "note": 83, "velocity": 101, "until": 329.7003190416696}, {"on": false, "note": 83, "velocity": 0, "until": 329.7003190416696}, {"on": false, "note": 86, "velocity": 0, "until": 329.7105230833363}, {"on": true, "note": 81, "velocity": 101, "until": 329.7105230833363}, {"on": true, "note": 84, "velocity": 101, "until": 329.9647600833363}, {"on": false, "note": 84, "velocity": 0, "until": 329.9647600833363}, {"on": false, "note": 81, "velocity": 0, "until": 331.20512308333645}, {"on": true, "note": 74, "velocity": 101, "until": 331.3346772166698}, {"on": false, "note": 74, "velocity": 0, "until": 331.4480370833365}, {"on": true, "note": 74, "velocity": 101, "until": 331.5775912166698}, {"on": false, "note": 74, "velocity": 0, "until": 331.69095108333653}, {"on": true, "note": 88, "velocity": 101, "until": 332.1930430833364}, {"on": false, "note": 88, "velocity": 0, "until": 332.1930430833364}, {"on": true, "note": 86, "velocity": 101, "until": 332.3140105833364}, {"on": false, "note": 86, "velocity": 0, "until": 332.3140105833364}, {"on": true, "note": 84, "velocity": 101, "until": 332.43497808333643}, {"on": false, "note": 84, "velocity": 0, "until": 332.43497808333643}, {"on": true, "note": 83, "velocity": 101, "until": 332.55594558333644}, {"on": false, "note": 83, "velocity": 0, "until": 332.55594558333644}, {"on": true, "note": 81, "velocity": 101, "until": 332.66683245833644}, {"on": false, "note": 81, "velocity": 0, "until": 332.67691308333644}, {"on": true, "note": 79, "velocity": 101, "until": 332.9258750833361}, {"on": false, "note": 79, "velocity": 0, "until": 333.17483708333606}, {"on": true, "note": 88, "velocity": 101, "until": 333.17483708333606}, {"on": true, "note": 76, "velocity": 101, "until": 334.13907908333573}, {"on": false, "note": 76, "velocity": 0, "until": 334.13907908333573}, {"on": false, "note": 88, "velocity": 0, "until": 334.13907908333573}, {"on": true, "note": 79, "velocity": 101, "until": 334.13907908333573}, {"on": true, "note": 91, "velocity": 101, "until": 334.85074308333583}, {"on": false, "note": 91, "velocity": 0, "until": 334.85074308333583}, {"on": false, "note": 79, "velocity": 0, "until": 335.15074308333584}, {"on": true, "note": 88, "velocity": 101, "until": 335.15074308333584}, {"on": true, "note": 84, "velocity": 101, "until": 335.27189680833584}, {"on": false, "note": 84, "velocity": 0, "until": 335.27189680833584}, {"on": false, "note": 88, "velocity": 0, "until": 335.3815120833358}, {"on": true, "note": 88, "velocity": 101, "until": 335.3815120833358}, {"on": true, "note": 84, "velocity": 101, "until": 335.5026658083358}, {"on": false, "note": 84, "velocity": 0, "until": 335.5026658083358}, {"on": false, "note": 88, "velocity": 0, "until": 335.61228108333574}, {"on": true, "note": 88, "velocity": 101, "until": 335.61228108333574}, {"on": true, "note": 91, "velocity": 101, "until": 337.98579308333586}, {"on": false, "note": 91, "velocity": 0, "until": 337.98579308333586}, {"on": false, "note": 88, "velocity": 0, "until": 337.98579308333586}, {"on": true, "note": 88, "velocity": 101, "until": 337.98579308333586}, {"on": true, "note": 81, "velocity": 101, "until": 338.1957161666693}, {"on": false, "note": 81, "velocity": 0, "until": 338.1957161666693}, {"on": false, "note": 88, "velocity": 0, "until": 338.21480008333606}, {"on": true, "note": 88, "velocity": 101, "until": 338.21480008333606}, {"on": true, "note": 81, "velocity": 101, "until": 338.4247231666695}, {"on": false, "note": 81, "velocity": 0, "until": 338.4247231666695}, {"on": false, "note": 88, "velocity": 0, "until": 338.44380708333625}, {"on": true, "note": 83, "velocity": 101, "until": 338.44380708333625}, {"on": true, "note": 86, "velocity": 101, "until": 338.92963508333696}, {"on": false, "note": 86, "velocity": 0, "until": 338.92963508333696}, {"on": false, "note": 83, "velocity": 0, "until": 338.92963508333696}, {"on": true, "note": 74, "velocity": 101, "until": 339.058945083337}, {"on": false, "note": 74, "velocity": 0, "until": 339.188255083337}, {"on": true, "note": 74, "velocity": 101, "until": 339.41902408333704}, {"on": false, "note": 74, "velocity": 0, "until": 339.41902408333704}, {"on": true, "note": 88, "velocity": 121, "until": 339.904852083337}, {"on": false, "note": 88, "velocity": 0, "until": 339.904852083337}, {"on": true, "note": 86, "velocity": 114, "until": 340.02249908333704}, {"on": false, "note": 86, "velocity": 0, "until": 340.02249908333704}, {"on": true, "note": 84, "velocity": 112, "until": 340.1401460833371}, {"on": false, "note": 84, "velocity": 0, "until": 340.1401460833371}, {"on": true, "note": 83, "velocity": 110, "until": 340.2577930833371}, {"on": false, "note": 83, "velocity": 0, "until": 340.2577930833371}, {"on": true, "note": 81, "velocity": 108, "until": 340.3754400833371}, {"on": false, "note": 81, "velocity": 0, "until": 340.3754400833371}, {"on": true, "note": 79, "velocity": 106, "until": 340.61835408333707}, {"on": false, "note": 79, "velocity": 0, "until": 342.7741000833375}, {"on": true, "note": 81, "velocity": 101, "until": 342.8917470833375}, {"on": false, "note": 81, "velocity": 0, "until": 343.00939408333755}, {"on": true, "note": 81, "velocity": 101, "until": 343.24468808333756}, {"on": false, "note": 81, "velocity": 0, "until": 343.24468808333756}, {"on": true, "note": 88, "velocity": 121, "until": 343.24468808333756}, {"on": true, "note": 78, "velocity": 101, "until": 343.73051608333765}, {"on": false, "note": 88, "velocity": 0, "until": 343.73051608333765}, {"on": true, "note": 86, "velocity": 114, "until": 343.8481630833376}, {"on": false, "note": 86, "velocity": 0, "until": 343.8481630833376}, {"on": true, "note": 84, "velocity": 112, "until": 343.9658100833376}, {"on": false, "note": 84, "velocity": 0, "until": 343.9658100833376}, {"on": true, "note": 83, "velocity": 110, "until": 344.0834570833376}, {"on": false, "note": 83, "velocity": 0, "until": 344.0834570833376}, {"on": true, "note": 81, "velocity": 108, "until": 344.20110408333755}, {"on": false, "note": 81, "velocity": 0, "until": 344.20110408333755}, {"on": false, "note": 78, "velocity": 0, "until": 344.20110408333755}, {"on": true, "note": 79, "velocity": 106, "until": 344.44401808333754}, {"on": false, "note": 79, "velocity": 0, "until": 346.59976408333773}, {"on": true, "note": 81, "velocity": 101, "until": 346.71741108333777}, {"on": false, "note": 81, "velocity": 0, "until": 346.8350580833378}, {"on": true, "note": 81, "velocity": 101, "until": 347.0703520833378}, {"on": false, "note": 81, "velocity": 0, "until": 347.0703520833378}, {"on": true, "note": 88, "velocity": 114, "until": 347.0703520833378}, {"on": true, "note": 78, "velocity": 101, "until": 347.5561800833379}, {"on": false, "note": 88, "velocity": 0, "until": 347.5561800833379}, {"on": true, "note": 86, "velocity": 110, "until": 347.67382708333787}, {"on": false, "note": 86, "velocity": 0, "until": 347.67382708333787}, {"on": true, "note": 84, "velocity": 109, "until": 347.79147408333785}, {"on": false, "note": 84, "velocity": 0, "until": 347.79147408333785}, {"on": true, "note": 83, "velocity": 108, "until": 347.9091210833378}, {"on": false, "note": 83, "velocity": 0, "until": 347.9091210833378}, {"on": true, "note": 81, "velocity": 107, "until": 348.0267680833378}, {"on": false, "note": 81, "velocity": 0, "until": 348.0267680833378}, {"on": false, "note": 78, "velocity": 0, "until": 348.0267680833378}, {"on": true, "note": 79, "velocity": 106, "until": 348.2696820833378}, {"on": false, "note": 79, "velocity": 0, "until": 349.00342408333785}, {"on": true, "note": 81, "velocity": 101, "until": 349.00342408333785}, {"on": true, "note": 78, "velocity": 101, "until": 349.2434240833379}, {"on": false, "note": 78, "velocity": 0, "until": 349.2434240833379}, {"on": false, "note": 81, "velocity": 0, "until": 349.9414380833381}, {"on": true, "note": 83, "velocity": 101, "until": 349.9414380833381}, {"on": true, "note": 79, "velocity": 101, "until": 350.1843520833382}, {"on": false, "note": 79, "velocity": 0, "until": 350.1843520833382}, {"on": false, "note": 83, "velocity": 0, "until": 350.88528008333844}, {"on": true, "note": 90, "velocity": 101, "until": 350.88528008333844}, {"on": true, "note": 84, "velocity": 101, "until": 351.1281940833385}, {"on": false, "note": 84, "velocity": 0, "until": 351.1281940833385}, {"on": false, "note": 90, "velocity": 0, "until": 351.8291220833387}, {"on": true, "note": 91, "velocity": 101, "until": 351.8291220833387}, {"on": true, "note": 83, "velocity": 101, "until": 352.0672170833386}, {"on": false, "note": 83, "velocity": 0, "until": 352.0672170833386}, {"on": false, "note": 91, "velocity": 0, "until": 352.4100740833386}, {"on": true, "note": 79, "velocity": 101, "until": 352.5543045833386}, {"on": false, "note": 79, "velocity": 0, "until": 352.6985350833386}, {"on": true, "note": 79, "velocity": 101, "until": 352.8427655833386}, {"on": false, "note": 79, "velocity": 0, "until": 352.98699608333857}, {"on": true, "note": 79, "velocity": 101, "until": 353.50993118333855}, {"on": false, "note": 79, "velocity": 0, "until": 353.53745408333856}, {"on": true, "note": 79, "velocity": 101, "until": 353.67078708333855}, {"on": false, "note": 79, "velocity": 0, "until": 353.80412008333855}, {"on": true, "note": 79, "velocity": 101, "until": 353.93745308333854}, {"on": false, "note": 79, "velocity": 0, "until": 354.07078608333853}, {"on": true, "note": 77, "velocity": 101, "until": 354.07078608333853}, {"on": true, "note": 79, "velocity": 101, "until": 354.56643718333856}, {"on": false, "note": 79, "velocity": 0, "until": 354.56643718333856}, {"on": false, "note": 77, "velocity": 0, "until": 354.59252408333856}, {"on": true, "note": 77, "velocity": 101, "until": 354.59252408333856}, {"on": true, "note": 79, "velocity": 101, "until": 354.7212790833385}, {"on": false, "note": 79, "velocity": 0, "until": 354.7212790833385}, {"on": false, "note": 77, "velocity": 0, "until": 354.8500340833385}, {"on": true, "note": 79, "velocity": 101, "until": 354.8500340833385}, {"on": true, "note": 77, "velocity": 101, "until": 354.97878908333854}, {"on": false, "note": 77, "velocity": 0, "until": 354.97878908333854}, {"on": false, "note": 79, "velocity": 0, "until": 355.1075440833385}, {"on": true, "note": 79, "velocity": 101, "until": 355.1075440833385}, {"on": true, "note": 77, "velocity": 101, "until": 355.60105008333846}, {"on": false, "note": 77, "velocity": 0, "until": 355.60105008333846}, {"on": false, "note": 79, "velocity": 0, "until": 355.6270240833385}, {"on": true, "note": 77, "velocity": 101, "until": 355.6270240833385}, {"on": true, "note": 79, "velocity": 101, "until": 355.7580280833385}, {"on": false, "note": 79, "velocity": 0, "until": 355.7580280833385}, {"on": false, "note": 77, "velocity": 0, "until": 355.88903208333846}, {"on": true, "note": 79, "velocity": 101, "until": 355.88903208333846}, {"on": true, "note": 77, "velocity": 101, "until": 356.0200360833385}, {"on": false, "note": 77, "velocity": 0, "until": 356.0200360833385}, {"on": false, "note": 79, "velocity": 0, "until": 356.1510400833385}, {"on": true, "note": 77, "velocity": 101, "until": 356.1510400833385}, {"on": true, "note": 79, "velocity": 101, "until": 356.6532423833384}, {"on": false, "note": 79, "velocity": 0, "until": 356.6532423833384}, {"on": false, "note": 77, "velocity": 0, "until": 356.6796740833384}, {"on": true, "note": 77, "velocity": 101, "until": 356.6796740833384}, {"on": true, "note": 79, "velocity": 101, "until": 356.8130070833384}, {"on": false, "note": 79, "velocity": 0, "until": 356.8130070833384}, {"on": false, "note": 77, "velocity": 0, "until": 356.9463400833384}, {"on": true, "note": 77, "velocity": 101, "until": 356.9463400833384}, {"on": true, "note": 79, "velocity": 101, "until": 357.0796730833384}, {"on": false, "note": 79, "velocity": 0, "until": 357.0796730833384}, {"on": false, "note": 77, "velocity": 0, "until": 357.21300608333837}, {"on": true, "note": 79, "velocity": 101, "until": 357.21300608333837}, {"on": true, "note": 77, "velocity": 101, "until": 357.72193438333835}, {"on": false, "note": 77, "velocity": 0, "until": 357.72193438333835}, {"on": false, "note": 79, "velocity": 0, "until": 357.7487200833383}, {"on": true, "note": 77, "velocity": 101, "until": 357.7487200833383}, {"on": true, "note": 79, "velocity": 101, "until": 357.88385508333835}, {"on": false, "note": 79, "velocity": 0, "until": 357.88385508333835}, {"on": false, "note": 77, "velocity": 0, "until": 358.0189900833384}, {"on": true, "note": 79, "velocity": 101, "until": 358.0189900833384}, {"on": true, "note": 77, "velocity": 101, "until": 358.1541250833384}, {"on": false, "note": 77, "velocity": 0, "until": 358.1541250833384}, {"on": false, "note": 79, "velocity": 0, "until": 358.28926008333843}, {"on": true, "note": 77, "velocity": 101, "until": 358.28926008333843}, {"on": true, "note": 80, "velocity": 101, "until": 358.7849111833387}, {"on": false, "note": 80, "velocity": 0, "until": 358.7849111833387}, {"on": false, "note": 77, "velocity": 0, "until": 358.81099808333875}, {"on": true, "note": 77, "velocity": 101, "until": 358.81099808333875}, {"on": true, "note": 80, "velocity": 101, "until": 358.9414325833389}, {"on": false, "note": 80, "velocity": 0, "until": 358.9414325833389}, {"on": false, "note": 77, "velocity": 0, "until": 359.07186708333904}, {"on": true, "note": 77, "velocity": 101, "until": 359.07186708333904}, {"on": true, "note": 80, "velocity": 101, "until": 359.20230158333914}, {"on": false, "note": 80, "velocity": 0, "until": 359.20230158333914}, {"on": false, "note": 77, "velocity": 0, "until": 359.3327360833393}, {"on": true, "note": 80, "velocity": 101, "until": 359.3327360833393}, {"on": true, "note": 77, "velocity": 101, "until": 359.82838718333954}, {"on": false, "note": 77, "velocity": 0, "until": 359.82838718333954}, {"on": false, "note": 80, "velocity": 0, "until": 359.8544740833396}, {"on": true, "note": 80, "velocity": 101, "until": 359.8544740833396}, {"on": true, "note": 77, "velocity": 101, "until": 359.98490858333975}, {"on": false, "note": 77, "velocity": 0, "until": 359.98490858333975}, {"on": false, "note": 80, "velocity": 0, "until": 360.11534308333984}, {"on": true, "note": 77, "velocity": 101, "until": 360.11534308333984}, {"on": true, "note": 80, "velocity": 101, "until": 360.24577758333993}, {"on": false, "note": 80, "velocity": 0, "until": 360.24577758333993}, {"on": false, "note": 77, "velocity": 0, "until": 360.37621208334}, {"on": true, "note": 81, "velocity": 101, "until": 360.37621208334}, {"on": true, "note": 76, "velocity": 101, "until": 360.93643138334005}, {"on": false, "note": 76, "velocity": 0, "until": 360.93643138334005}, {"on": false, "note": 81, "velocity": 0, "until": 362.3760870833401}, {"on": true, "note": 88, "velocity": 101, "until": 362.3760870833401}, {"on": true, "note": 91, "velocity": 101, "until": 362.8658810833401}, {"on": false, "note": 91, "velocity": 0, "until": 362.8658810833401}, {"on": false, "note": 88, "velocity": 0, "until": 364.2787510833402}, {"on": true, "note": 85, "velocity": 101, "until": 364.2787510833402}, {"on": true, "note": 91, "velocity": 101, "until": 364.7685450833402}, {"on": false, "note": 91, "velocity": 0, "until": 364.7685450833402}, {"on": false, "note": 85, "velocity": 0, "until": 366.18141508334026}, {"on": true, "note": 88, "velocity": 101, "until": 366.18141508334026}, {"on": true, "note": 91, "velocity": 101, "until": 366.42631208334024}, {"on": false, "note": 91, "velocity": 0, "until": 366.42631208334024}, {"on": false, "note": 88, "velocity": 0, "until": 366.6712090833402}, {"on": true, "note": 88, "velocity": 101, "until": 366.6712090833402}, {"on": true, "note": 91, "velocity": 101, "until": 366.90197808334017}, {"on": false, "note": 91, "velocity": 0, "until": 366.90197808334017}, {"on": false, "note": 88, "velocity": 0, "until": 367.1327470833401}, {"on": true, "note": 91, "velocity": 101, "until": 367.1327470833401}, {"on": true, "note": 88, "velocity": 101, "until": 367.3776440833401}, {"on": false, "note": 88, "velocity": 0, "until": 367.3776440833401}, {"on": false, "note": 91, "velocity": 0, "until": 367.6225410833401}, {"on": true, "note": 88, "velocity": 101, "until": 367.6225410833401}, {"on": true, "note": 91, "velocity": 101, "until": 367.85331008334003}, {"on": false, "note": 91, "velocity": 0, "until": 367.85331008334003}, {"on": false, "note": 88, "velocity": 0, "until": 368.08407908334}, {"on": true, "note": 91, "velocity": 101, "until": 368.08407908334}, {"on": true, "note": 88, "velocity": 101, "until": 368.34956508334005}, {"on": false, "note": 88, "velocity": 0, "until": 368.34956508334005}, {"on": false, "note": 91, "velocity": 0, "until": 372.41598408334005}, {"on": true, "note": 72, "velocity": 101, "until": 372.53136858334005}, {"on": false, "note": 72, "velocity": 0, "until": 372.64675308334006}, {"on": true, "note": 72, "velocity": 101, "until": 372.87752208334007}, {"on": false, "note": 72, "velocity": 0, "until": 372.87752208334007}, {"on": true, "note": 86, "velocity": 101, "until": 373.36731608334014}, {"on": false, "note": 86, "velocity": 0, "until": 373.36731608334014}, {"on": true, "note": 84, "velocity": 101, "until": 373.48270058334015}, {"on": false, "note": 84, "velocity": 0, "until": 373.48270058334015}, {"on": true, "note": 82, "velocity": 101, "until": 373.59808508334015}, {"on": false, "note": 82, "velocity": 0, "until": 373.59808508334015}, {"on": true, "note": 81, "velocity": 101, "until": 373.71346958334016}, {"on": false, "note": 81, "velocity": 0, "until": 373.71346958334016}, {"on": true, "note": 79, "velocity": 101, "until": 373.82885408334016}, {"on": false, "note": 79, "velocity": 0, "until": 373.82885408334016}, {"on": true, "note": 77, "velocity": 101, "until": 374.0737510833402}, {"on": false, "note": 77, "velocity": 0, "until": 378.58551408334057}, {"on": true, "note": 85, "velocity": 101, "until": 379.07530808334064}, {"on": false, "note": 85, "velocity": 0, "until": 379.07530808334064}, {"on": true, "note": 84, "velocity": 101, "until": 379.19069258334065}, {"on": false, "note": 84, "velocity": 0, "until": 379.19069258334065}, {"on": true, "note": 82, "velocity": 101, "until": 379.30607708334065}, {"on": false, "note": 82, "velocity": 0, "until": 379.30607708334065}, {"on": true, "note": 81, "velocity": 101, "until": 379.42146158334066}, {"on": false, "note": 81, "velocity": 0, "until": 379.42146158334066}, {"on": true, "note": 79, "velocity": 101, "until": 379.5368460833406}, {"on": false, "note": 79, "velocity": 0, "until": 379.5368460833406}, {"on": true, "note": 77, "velocity": 101, "until": 379.6592945833406}, {"on": false, "note": 77, "velocity": 0, "until": 379.78174308334064}, {"on": true, "note": 77, "velocity": 101, "until": 379.90419158334066}, {"on": false, "note": 77, "velocity": 0, "until": 380.0266400833407}, {"on": true, "note": 77, "velocity": 101, "until": 380.14247008334064}, {"on": false, "note": 77, "velocity": 0, "until": 382.41492608334113}, {"on": true, "note": 87, "velocity": 101, "until": 382.9107920833411}, {"on": false, "note": 87, "velocity": 0, "until": 382.9107920833411}, {"on": true, "note": 86, "velocity": 101, "until": 383.02843908334114}, {"on": false, "note": 86, "velocity": 0, "until": 383.02843908334114}, {"on": true, "note": 84, "velocity": 101, "until": 383.1460860833412}, {"on": false, "note": 84, "velocity": 0, "until": 383.1460860833412}, {"on": true, "note": 82, "velocity": 101, "until": 383.26373308334115}, {"on": false, "note": 82, "velocity": 0, "until": 383.26373308334115}, {"on": true, "note": 81, "velocity": 101, "until": 383.3813800833412}, {"on": false, "note": 81, "velocity": 0, "until": 383.3813800833412}, {"on": true, "note": 79, "velocity": 81, "until": 383.5058610833411}, {"on": false, "note": 79, "velocity": 0, "until": 383.630342083341}, {"on": true, "note": 79, "velocity": 81, "until": 383.7548230833409}, {"on": false, "note": 79, "velocity": 0, "until": 383.87930408334086}, {"on": true, "note": 79, "velocity": 81, "until": 383.99649158334086}, {"on": false, "note": 79, "velocity": 0, "until": 384.34805408334086}, {"on": true, "note": 86, "velocity": 81, "until": 384.863074083341}, {"on": false, "note": 86, "velocity": 0, "until": 384.863074083341}, {"on": true, "note": 84, "velocity": 81, "until": 384.984041583341}, {"on": false, "note": 84, "velocity": 0, "until": 384.984041583341}, {"on": true, "note": 82, "velocity": 81, "until": 385.10500908334103}, {"on": false, "note": 82, "velocity": 0, "until": 385.10500908334103}, {"on": true, "note": 81, "velocity": 81, "until": 385.22597658334104}, {"on": false, "note": 81, "velocity": 0, "until": 385.22597658334104}, {"on": true, "note": 79, "velocity": 81, "until": 385.34694408334104}, {"on": false, "note": 79, "velocity": 0, "until": 385.34694408334104}, {"on": true, "note": 77, "velocity": 81, "until": 385.6055640833411}, {"on": false, "note": 77, "velocity": 0, "until": 386.3519880833412}, {"on": true, "note": 84, "velocity": 81, "until": 386.98725658334104}, {"on": false, "note": 84, "velocity": 0, "until": 386.98725658334104}, {"on": true, "note": 82, "velocity": 81, "until": 387.10970508334105}, {"on": false, "note": 82, "velocity": 0, "until": 387.10970508334105}, {"on": true, "note": 80, "velocity": 81, "until": 387.2321535833411}, {"on": false, "note": 80, "velocity": 0, "until": 387.2321535833411}, {"on": true, "note": 79, "velocity": 81, "until": 387.3546020833411}, {"on": false, "note": 79, "velocity": 0, "until": 387.3546020833411}, {"on": true, "note": 77, "velocity": 81, "until": 387.61322208334116}, {"on": false, "note": 77, "velocity": 0, "until": 388.36770808334126}, {"on": true, "note": 84, "velocity": 81, "until": 389.01830608334154}, {"on": false, "note": 84, "velocity": 0, "until": 389.01830608334154}, {"on": true, "note": 82, "velocity": 81, "until": 389.1448880833416}, {"on": false, "note": 82, "velocity": 0, "until": 389.1448880833416}, {"on": true, "note": 80, "velocity": 81, "until": 389.27147008334157}, {"on": false, "note": 80, "velocity": 0, "until": 389.27147008334157}, {"on": true, "note": 79, "velocity": 81, "until": 389.39805208334155}, {"on": false, "note": 79, "velocity": 0, "until": 389.39805208334155}, {"on": true, "note": 77, "velocity": 101, "until": 389.65337108334154}, {"on": false, "note": 77, "velocity": 0, "until": 389.65337108334154}, {"on": true, "note": 76, "velocity": 101, "until": 389.9086900833415}, {"on": false, "note": 76, "velocity": 0, "until": 389.9086900833415}, {"on": true, "note": 77, "velocity": 101, "until": 390.16620008334155}, {"on": false, "note": 77, "velocity": 0, "until": 390.16620008334155}, {"on": true, "note": 79, "velocity": 101, "until": 390.4237100833416}, {"on": false, "note": 79, "velocity": 0, "until": 390.4237100833416}, {"on": true, "note": 80, "velocity": 101, "until": 390.6834500833415}, {"on": false, "note": 80, "velocity": 0, "until": 390.6834500833415}, {"on": true, "note": 79, "velocity": 101, "until": 390.9431900833414}, {"on": false, "note": 79, "velocity": 0, "until": 390.9431900833414}, {"on": true, "note": 80, "velocity": 101, "until": 391.2086760833415}, {"on": false, "note": 80, "velocity": 0, "until": 391.2086760833415}, {"on": true, "note": 81, "velocity": 101, "until": 391.44677108334145}, {"on": false, "note": 81, "velocity": 0, "until": 391.49439008334144}, {"on": true, "note": 82, "velocity": 101, "until": 391.9964820833414}, {"on": false, "note": 82, "velocity": 0, "until": 391.9964820833414}, {"on": true, "note": 81, "velocity": 101, "until": 392.23270208334134}, {"on": false, "note": 81, "velocity": 0, "until": 392.23270208334134}, {"on": true, "note": 82, "velocity": 101, "until": 392.35081208334134}, {"on": false, "note": 82, "velocity": 0, "until": 392.35081208334134}, {"on": true, "note": 84, "velocity": 101, "until": 392.46892208334134}, {"on": false, "note": 84, "velocity": 0, "until": 392.46892208334134}, {"on": true, "note": 82, "velocity": 101, "until": 393.0741005833413}, {"on": false, "note": 82, "velocity": 0, "until": 393.0741005833413}, {"on": true, "note": 84, "velocity": 101, "until": 393.1894850833413}, {"on": false, "note": 84, "velocity": 0, "until": 393.1894850833413}, {"on": true, "note": 86, "velocity": 101, "until": 393.3048695833413}, {"on": false, "note": 86, "velocity": 0, "until": 393.3048695833413}, {"on": true, "note": 87, "velocity": 101, "until": 393.4202540833413}, {"on": false, "note": 87, "velocity": 0, "until": 393.4202540833413}, {"on": true, "note": 91, "velocity": 101, "until": 393.4202540833413}, {"on": true, "note": 82, "velocity": 101, "until": 393.461070250008}, {"on": false, "note": 91, "velocity": 0, "until": 393.461070250008}, {"on": true, "note": 89, "velocity": 101, "until": 393.54270258334134}, {"on": false, "note": 89, "velocity": 0, "until": 393.54270258334134}, {"on": false, "note": 82, "velocity": 0, "until": 393.66515108334136}, {"on": true, "note": 82, "velocity": 101, "until": 393.66515108334136}, {"on": true, "note": 88, "velocity": 101, "until": 393.7875995833414}, {"on": false, "note": 88, "velocity": 0, "until": 393.7875995833414}, {"on": false, "note": 82, "velocity": 0, "until": 393.9100480833414}, {"on": true, "note": 82, "velocity": 101, "until": 393.9100480833414}, {"on": true, "note": 91, "velocity": 101, "until": 393.9485095833414}, {"on": false, "note": 91, "velocity": 0, "until": 393.9485095833414}, {"on": true, "note": 89, "velocity": 101, "until": 394.0254325833414}, {"on": false, "note": 89, "velocity": 0, "until": 394.0254325833414}, {"on": false, "note": 82, "velocity": 0, "until": 394.14081708334135}, {"on": true, "note": 88, "velocity": 101, "until": 394.14081708334135}, {"on": true, "note": 82, "velocity": 101, "until": 394.2562015833413}, {"on": false, "note": 82, "velocity": 0, "until": 394.2562015833413}, {"on": false, "note": 88, "velocity": 0, "until": 394.37158608334124}, {"on": true, "note": 82, "velocity": 101, "until": 394.37158608334124}, {"on": true, "note": 89, "velocity": 101, "until": 394.86138008334126}, {"on": false, "note": 89, "velocity": 0, "until": 394.86138008334126}, {"on": false, "note": 82, "velocity": 0, "until": 394.86138008334126}, {"on": true, "note": 82, "velocity": 101, "until": 395.0921490833412}, {"on": false, "note": 82, "velocity": 0, "until": 403.9052940833412}, {"on": true, "note": 80, "velocity": 101, "until": 404.3950880833412}, {"on": false, "note": 80, "velocity": 0, "until": 404.3950880833412}, {"on": true, "note": 79, "velocity": 101, "until": 404.6370230833412}, {"on": false, "note": 79, "velocity": 0, "until": 404.6370230833412}, {"on": true, "note": 80, "velocity": 101, "until": 404.7579905833412}, {"on": false, "note": 80, "velocity": 0, "until": 404.7579905833412}, {"on": true, "note": 82, "velocity": 101, "until": 404.8789580833412}, {"on": false, "note": 82, "velocity": 0, "until": 404.8789580833412}, {"on": true, "note": 84, "velocity": 101, "until": 405.1248590833413}, {"on": false, "note": 84, "velocity": 0, "until": 405.85658808334136}, {"on": true, "note": 87, "velocity": 101, "until": 406.35041408334143}, {"on": false, "note": 87, "velocity": 0, "until": 406.35041408334143}, {"on": true, "note": 86, "velocity": 101, "until": 406.5933280833415}, {"on": false, "note": 86, "velocity": 0, "until": 406.5933280833415}, {"on": true, "note": 87, "velocity": 101, "until": 406.7147850833415}, {"on": false, "note": 87, "velocity": 0, "until": 406.7147850833415}, {"on": true, "note": 89, "velocity": 101, "until": 406.8362420833415}, {"on": false, "note": 89, "velocity": 0, "until": 406.8362420833415}, {"on": true, "note": 91, "velocity": 101, "until": 407.0791560833416}, {"on": false, "note": 91, "velocity": 0, "until": 409.28541008334156}, {"on": true, "note": 74, "velocity": 101, "until": 409.5343720833415}, {"on": false, "note": 74, "velocity": 0, "until": 409.5343720833415}, {"on": true, "note": 75, "velocity": 101, "until": 409.65885308334146}, {"on": false, "note": 75, "velocity": 0, "until": 409.65885308334146}, {"on": true, "note": 77, "velocity": 101, "until": 409.78333408334146}, {"on": false, "note": 77, "velocity": 0, "until": 409.78333408334146}, {"on": true, "note": 79, "velocity": 101, "until": 410.03649808334154}, {"on": false, "note": 79, "velocity": 0, "until": 410.2896620833416}, {"on": true, "note": 74, "velocity": 101, "until": 410.54282608334165}, {"on": false, "note": 74, "velocity": 0, "until": 410.54282608334165}, {"on": true, "note": 75, "velocity": 101, "until": 410.66940808334164}, {"on": false, "note": 75, "velocity": 0, "until": 410.66940808334164}, {"on": true, "note": 77, "velocity": 101, "until": 410.7959900833416}, {"on": false, "note": 77, "velocity": 0, "until": 410.7959900833416}, {"on": true, "note": 79, "velocity": 101, "until": 411.05350008334176}, {"on": false, "note": 79, "velocity": 0, "until": 411.31101008334196}, {"on": true, "note": 74, "velocity": 101, "until": 411.56852008334204}, {"on": false, "note": 74, "velocity": 0, "until": 411.56852008334204}, {"on": true, "note": 75, "velocity": 101, "until": 411.69727508334205}, {"on": false, "note": 75, "velocity": 0, "until": 411.69727508334205}, {"on": true, "note": 77, "velocity": 101, "until": 411.82603008334206}, {"on": false, "note": 77, "velocity": 0, "until": 411.82603008334206}, {"on": true, "note": 79, "velocity": 101, "until": 416.1420625833426}, {"on": false, "note": 79, "velocity": 0, "until": 416.1976180833426}, {"on": true, "note": 79, "velocity": 116, "until": 416.1976180833426}, {"on": true, "note": 76, "velocity": 101, "until": 416.58388308334264}, {"on": false, "note": 76, "velocity": 0, "until": 416.71263808334265}, {"on": false, "note": 79, "velocity": 0, "until": 416.71263808334265}, {"on": true, "note": 75, "velocity": 101, "until": 416.71263808334265}, {"on": true, "note": 78, "velocity": 116, "until": 416.9434070833426}, {"on": false, "note": 78, "velocity": 0, "until": 416.9434070833426}, {"on": true, "note": 79, "velocity": 116, "until": 417.0587915833426}, {"on": false, "note": 79, "velocity": 0, "until": 417.0587915833426}, {"on": false, "note": 75, "velocity": 0, "until": 417.0587915833426}, {"on": true, "note": 81, "velocity": 116, "until": 417.1741760833426}, {"on": false, "note": 81, "velocity": 0, "until": 417.1741760833426}, {"on": true, "note": 79, "velocity": 116, "until": 417.1741760833426}, {"on": true, "note": 76, "velocity": 101, "until": 417.66397008334263}, {"on": false, "note": 76, "velocity": 0, "until": 417.7825470833426}, {"on": false, "note": 79, "velocity": 0, "until": 417.7825470833426}, {"on": true, "note": 81, "velocity": 116, "until": 417.9011240833426}, {"on": false, "note": 81, "velocity": 0, "until": 417.9011240833426}, {"on": true, "note": 83, "velocity": 116, "until": 418.0197010833426}, {"on": false, "note": 83, "velocity": 0, "until": 418.0197010833426}, {"on": true, "note": 84, "velocity": 116, "until": 418.13827808334264}, {"on": false, "note": 84, "velocity": 0, "until": 418.13827808334264}, {"on": true, "note": 77, "velocity": 101, "until": 418.13827808334264}, {"on": true, "note": 88, "velocity": 116, "until": 418.1778037500093}, {"on": false, "note": 88, "velocity": 0, "until": 418.1778037500093}, {"on": true, "note": 86, "velocity": 116, "until": 418.2568550833426}, {"on": false, "note": 86, "velocity": 0, "until": 418.2568550833426}, {"on": false, "note": 77, "velocity": 0, "until": 418.37543208334256}, {"on": true, "note": 77, "velocity": 101, "until": 418.37543208334256}, {"on": true, "note": 85, "velocity": 116, "until": 418.4940090833425}, {"on": false, "note": 85, "velocity": 0, "until": 418.4940090833425}, {"on": false, "note": 77, "velocity": 0, "until": 418.6125860833425}, {"on": true, "note": 77, "velocity": 101, "until": 418.6125860833425}, {"on": true, "note": 88, "velocity": 116, "until": 418.6521117500091}, {"on": false, "note": 88, "velocity": 0, "until": 418.6521117500091}, {"on": true, "note": 86, "velocity": 116, "until": 418.73116308334244}, {"on": false, "note": 86, "velocity": 0, "until": 418.73116308334244}, {"on": false, "note": 77, "velocity": 0, "until": 418.8497400833424}, {"on": true, "note": 77, "velocity": 101, "until": 418.8497400833424}, {"on": true, "note": 85, "velocity": 116, "until": 418.96831708334236}, {"on": false, "note": 85, "velocity": 0, "until": 418.96831708334236}, {"on": false, "note": 77, "velocity": 0, "until": 419.0868940833423}, {"on": true, "note": 86, "velocity": 116, "until": 419.0868940833423}, {"on": true, "note": 77, "velocity": 101, "until": 419.57668808334233}, {"on": false, "note": 77, "velocity": 0, "until": 419.57668808334233}, {"on": false, "note": 86, "velocity": 0, "until": 419.57668808334233}, {"on": true, "note": 79, "velocity": 101, "until": 419.80745708334234}, {"on": false, "note": 79, "velocity": 0, "until": 420.03822608334235}, {"on": true, "note": 79, "velocity": 116, "until": 420.03822608334235}, {"on": true, "note": 76, "velocity": 101, "until": 420.40557158334235}, {"on": false, "note": 76, "velocity": 0, "until": 420.52802008334237}, {"on": false, "note": 79, "velocity": 0, "until": 420.52802008334237}, {"on": true, "note": 78, "velocity": 116, "until": 420.52802008334237}, {"on": true, "note": 75, "velocity": 101, "until": 420.7587890833423}, {"on": false, "note": 78, "velocity": 0, "until": 420.7587890833423}, {"on": true, "note": 79, "velocity": 116, "until": 420.8741735833423}, {"on": false, "note": 79, "velocity": 0, "until": 420.8741735833423}, {"on": false, "note": 75, "velocity": 0, "until": 420.8741735833423}, {"on": true, "note": 81, "velocity": 116, "until": 420.98955808334233}, {"on": false, "note": 81, "velocity": 0, "until": 420.98955808334233}, {"on": true, "note": 79, "velocity": 116, "until": 420.98955808334233}, {"on": true, "note": 76, "velocity": 101, "until": 421.47935208334235}, {"on": false, "note": 76, "velocity": 0, "until": 421.5979290833423}, {"on": false, "note": 79, "velocity": 0, "until": 421.5979290833423}, {"on": true, "note": 81, "velocity": 116, "until": 421.7165060833423}, {"on": false, "note": 81, "velocity": 0, "until": 421.7165060833423}, {"on": true, "note": 83, "velocity": 116, "until": 421.83508308334234}, {"on": false, "note": 83, "velocity": 0, "until": 421.83508308334234}, {"on": true, "note": 84, "velocity": 116, "until": 421.95366008334236}, {"on": false, "note": 84, "velocity": 0, "until": 421.95366008334236}, {"on": true, "note": 88, "velocity": 116, "until": 421.95366008334236}, {"on": true, "note": 76, "velocity": 101, "until": 422.0722370833423}, {"on": false, "note": 76, "velocity": 0, "until": 422.0722370833423}, {"on": false, "note": 88, "velocity": 0, "until": 422.1908140833423}, {"on": true, "note": 90, "velocity": 116, "until": 422.1908140833423}, {"on": true, "note": 76, "velocity": 101, "until": 422.30939108334223}, {"on": false, "note": 76, "velocity": 0, "until": 422.30939108334223}, {"on": false, "note": 90, "velocity": 0, "until": 422.30939108334223}, {"on": true, "note": 91, "velocity": 116, "until": 422.4279680833422}, {"on": false, "note": 91, "velocity": 0, "until": 422.4279680833422}, {"on": true, "note": 76, "velocity": 101, "until": 422.4279680833422}, {"on": true, "note": 86, "velocity": 116, "until": 422.54654508334215}, {"on": false, "note": 86, "velocity": 0, "until": 422.54654508334215}, {"on": false, "note": 76, "velocity": 0, "until": 422.6651220833421}, {"on": true, "note": 76, "velocity": 101, "until": 422.6651220833421}, {"on": true, "note": 90, "velocity": 116, "until": 422.78369908334207}, {"on": false, "note": 90, "velocity": 0, "until": 422.78369908334207}, {"on": false, "note": 76, "velocity": 0, "until": 422.78369908334207}, {"on": true, "note": 91, "velocity": 116, "until": 422.90227608334203}, {"on": false, "note": 91, "velocity": 0, "until": 422.90227608334203}, {"on": true, "note": 84, "velocity": 116, "until": 422.90227608334203}, {"on": true, "note": 76, "velocity": 101, "until": 423.14717308334207}, {"on": false, "note": 76, "velocity": 0, "until": 423.14717308334207}, {"on": false, "note": 84, "velocity": 0, "until": 423.85360808334144}, {"on": true, "note": 88, "velocity": 91, "until": 423.85360808334144}, {"on": true, "note": 91, "velocity": 101, "until": 424.34340208334146}, {"on": false, "note": 91, "velocity": 0, "until": 424.34340208334146}, {"on": false, "note": 88, "velocity": 0, "until": 424.34340208334146}, {"on": true, "note": 87, "velocity": 91, "until": 424.34340208334146}, {"on": true, "note": 90, "velocity": 101, "until": 424.5741710833414}, {"on": false, "note": 90, "velocity": 0, "until": 424.5741710833414}, {"on": true, "note": 91, "velocity": 101, "until": 424.68955558334136}, {"on": false, "note": 91, "velocity": 0, "until": 424.68955558334136}, {"on": true, "note": 93, "velocity": 101, "until": 424.8049400833413}, {"on": false, "note": 93, "velocity": 0, "until": 424.8049400833413}, {"on": false, "note": 87, "velocity": 0, "until": 424.8049400833413}, {"on": true, "note": 88, "velocity": 91, "until": 424.8049400833413}, {"on": true, "note": 91, "velocity": 101, "until": 425.2947340833413}, {"on": false, "note": 91, "velocity": 0, "until": 425.2947340833413}, {"on": false, "note": 88, "velocity": 0, "until": 425.9962720833414}, {"on": true, "note": 91, "velocity": 101, "until": 426.11627208334147}, {"on": false, "note": 91, "velocity": 0, "until": 426.23627208334153}, {"on": true, "note": 91, "velocity": 101, "until": 426.35627208334154}, {"on": false, "note": 91, "velocity": 0, "until": 426.4762720833416}, {"on": true, "note": 91, "velocity": 101, "until": 426.59627208334166}, {"on": false, "note": 91, "velocity": 0, "until": 426.7162720833417}, {"on": true, "note": 91, "velocity": 101, "until": 426.7162720833417}, {"on": true, "note": 86, "velocity": 101, "until": 426.9562720833418}, {"on": false, "note": 86, "velocity": 0, "until": 426.9562720833418}, {"on": false, "note": 91, "velocity": 0, "until": 427.65781008334193}, {"on": true, "note": 88, "velocity": 91, "until": 427.65781008334193}, {"on": true, "note": 91, "velocity": 101, "until": 428.14760408334195}, {"on": false, "note": 91, "velocity": 0, "until": 428.14760408334195}, {"on": false, "note": 88, "velocity": 0, "until": 428.14760408334195}, {"on": true, "note": 87, "velocity": 91, "until": 428.14760408334195}, {"on": true, "note": 90, "velocity": 101, "until": 428.3783730833419}, {"on": false, "note": 90, "velocity": 0, "until": 428.3783730833419}, {"on": true, "note": 91, "velocity": 101, "until": 428.49375758334185}, {"on": false, "note": 91, "velocity": 0, "until": 428.49375758334185}, {"on": true, "note": 93, "velocity": 101, "until": 428.6091420833418}, {"on": false, "note": 93, "velocity": 0, "until": 428.6091420833418}, {"on": false, "note": 87, "velocity": 0, "until": 428.6091420833418}, {"on": true, "note": 88, "velocity": 91, "until": 428.6091420833418}, {"on": true, "note": 91, "velocity": 101, "until": 429.0989360833418}, {"on": false, "note": 91, "velocity": 0, "until": 429.0989360833418}, {"on": false, "note": 88, "velocity": 0, "until": 429.5604740833416}, {"on": true, "note": 88, "velocity": 101, "until": 429.5604740833416}, {"on": true, "note": 83, "velocity": 101, "until": 429.67858408334155}, {"on": false, "note": 83, "velocity": 0, "until": 429.67858408334155}, {"on": false, "note": 88, "velocity": 0, "until": 429.79669408334144}, {"on": true, "note": 87, "velocity": 101, "until": 429.79669408334144}, {"on": true, "note": 84, "velocity": 101, "until": 429.9148040833414}, {"on": false, "note": 84, "velocity": 0, "until": 429.9148040833414}, {"on": false, "note": 87, "velocity": 0, "until": 430.03291408334127}, {"on": true, "note": 83, "velocity": 101, "until": 430.03291408334127}, {"on": true, "note": 88, "velocity": 101, "until": 430.1510240833412}, {"on": false, "note": 88, "velocity": 0, "until": 430.1510240833412}, {"on": false, "note": 83, "velocity": 0, "until": 430.2691340833411}, {"on": true, "note": 87, "velocity": 101, "until": 430.2691340833411}, {"on": true, "note": 84, "velocity": 101, "until": 430.38724408334105}, {"on": false, "note": 84, "velocity": 0, "until": 430.38724408334105}, {"on": false, "note": 87, "velocity": 0, "until": 430.50535408334093}, {"on": true, "note": 83, "velocity": 101, "until": 430.50535408334093}, {"on": true, "note": 88, "velocity": 101, "until": 430.97779408333986}, {"on": false, "note": 88, "velocity": 0, "until": 430.97779408333986}, {"on": false, "note": 83, "velocity": 0, "until": 431.4863400833398}, {"on": true, "note": 88, "velocity": 101, "until": 431.4863400833398}, {"on": true, "note": 81, "velocity": 101, "until": 431.5271562500065}, {"on": false, "note": 88, "velocity": 0, "until": 431.5271562500065}, {"on": true, "note": 86, "velocity": 101, "until": 431.60878858333984}, {"on": false, "note": 86, "velocity": 0, "until": 431.60878858333984}, {"on": false, "note": 81, "velocity": 0, "until": 431.73123708333986}, {"on": true, "note": 85, "velocity": 101, "until": 431.73123708333986}, {"on": true, "note": 81, "velocity": 101, "until": 431.8536855833399}, {"on": false, "note": 81, "velocity": 0, "until": 431.8536855833399}, {"on": false, "note": 85, "velocity": 0, "until": 431.9761340833399}, {"on": true, "note": 81, "velocity": 101, "until": 431.9761340833399}, {"on": true, "note": 88, "velocity": 101, "until": 432.0145955833399}, {"on": false, "note": 88, "velocity": 0, "until": 432.0145955833399}, {"on": true, "note": 86, "velocity": 101, "until": 432.0915185833399}, {"on": false, "note": 86, "velocity": 0, "until": 432.0915185833399}, {"on": false, "note": 81, "velocity": 0, "until": 432.2069030833399}, {"on": true, "note": 81, "velocity": 101, "until": 432.2069030833399}, {"on": true, "note": 85, "velocity": 101, "until": 432.3222875833399}, {"on": false, "note": 85, "velocity": 0, "until": 432.3222875833399}, {"on": false, "note": 81, "velocity": 0, "until": 432.4376720833399}, {"on": true, "note": 86, "velocity": 101, "until": 432.4376720833399}, {"on": true, "note": 81, "velocity": 101, "until": 432.68256908333996}, {"on": false, "note": 81, "velocity": 0, "until": 432.68256908333996}, {"on": false, "note": 86, "velocity": 0, "until": 433.3890040833397}, {"on": true, "note": 79, "velocity": 101, "until": 433.3890040833397}, {"on": true, "note": 86, "velocity": 101, "until": 433.4298202500064}, {"on": false, "note": 86, "velocity": 0, "until": 433.4298202500064}, {"on": true, "note": 84, "velocity": 101, "until": 433.51145258333975}, {"on": false, "note": 84, "velocity": 0, "until": 433.51145258333975}, {"on": false, "note": 79, "velocity": 0, "until": 433.63390108333977}, {"on": true, "note": 79, "velocity": 101, "until": 433.63390108333977}, {"on": true, "note": 83, "velocity": 101, "until": 433.7563495833398}, {"on": false, "note": 83, "velocity": 0, "until": 433.7563495833398}, {"on": false, "note": 79, "velocity": 0, "until": 433.8787980833398}, {"on": true, "note": 79, "velocity": 101, "until": 433.8787980833398}, {"on": true, "note": 86, "velocity": 101, "until": 433.9172595833398}, {"on": false, "note": 86, "velocity": 0, "until": 433.9172595833398}, {"on": true, "note": 84, "velocity": 101, "until": 433.9941825833398}, {"on": false, "note": 84, "velocity": 0, "until": 433.9941825833398}, {"on": false, "note": 79, "velocity": 0, "until": 434.1095670833398}, {"on": true, "note": 79, "velocity": 101, "until": 434.1095670833398}, {"on": true, "note": 83, "velocity": 101, "until": 434.2249515833398}, {"on": false, "note": 83, "velocity": 0, "until": 434.2249515833398}, {"on": false, "note": 79, "velocity": 0, "until": 434.3403360833398}, {"on": true, "note": 84, "velocity": 101, "until": 434.3403360833398}, {"on": true, "note": 79, "velocity": 101, "until": 434.58523308333986}, {"on": false, "note": 79, "velocity": 0, "until": 434.58523308333986}, {"on": false, "note": 84, "velocity": 0, "until": 435.29166808333935}, {"on": true, "note": 86, "velocity": 101, "until": 435.29166808333935}, {"on": true, "note": 91, "velocity": 101, "until": 435.41411658333936}, {"on": false, "note": 91, "velocity": 0, "until": 435.41411658333936}, {"on": false, "note": 86, "velocity": 0, "until": 435.5365650833394}, {"on": true, "note": 86, "velocity": 101, "until": 435.5365650833394}, {"on": true, "note": 91, "velocity": 101, "until": 436.0122310833392}, {"on": false, "note": 86, "velocity": 0, "until": 436.0122310833392}, {"on": true, "note": 88, "velocity": 101, "until": 436.24300008333915}, {"on": false, "note": 88, "velocity": 0, "until": 436.24300008333915}, {"on": false, "note": 91, "velocity": 0, "until": 436.24300008333915}, {"on": true, "note": 91, "velocity": 101, "until": 436.24300008333915}, {"on": true, "note": 89, "velocity": 101, "until": 436.3654485833392}, {"on": false, "note": 89, "velocity": 0, "until": 436.3654485833392}, {"on": false, "note": 91, "velocity": 0, "until": 436.4878970833392}, {"on": true, "note": 91, "velocity": 101, "until": 436.4878970833392}, {"on": true, "note": 86, "velocity": 101, "until": 436.963563083339}, {"on": false, "note": 86, "velocity": 0, "until": 436.963563083339}, {"on": true, "note": 88, "velocity": 101, "until": 437.19433208333896}, {"on": false, "note": 88, "velocity": 0, "until": 437.19433208333896}, {"on": false, "note": 91, "velocity": 0, "until": 437.19433208333896}, {"on": true, "note": 89, "velocity": 101, "until": 437.19433208333896}, {"on": true, "note": 91, "velocity": 101, "until": 437.316780583339}, {"on": false, "note": 91, "velocity": 0, "until": 437.316780583339}, {"on": false, "note": 89, "velocity": 0, "until": 437.439229083339}, {"on": true, "note": 86, "velocity": 101, "until": 437.439229083339}, {"on": true, "note": 91, "velocity": 101, "until": 437.9148950833388}, {"on": false, "note": 86, "velocity": 0, "until": 437.9148950833388}, {"on": true, "note": 88, "velocity": 101, "until": 438.1456640833388}, {"on": false, "note": 88, "velocity": 0, "until": 438.1456640833388}, {"on": false, "note": 91, "velocity": 0, "until": 438.1456640833388}, {"on": true, "note": 86, "velocity": 101, "until": 438.1456640833388}, {"on": true, "note": 91, "velocity": 101, "until": 438.3905610833388}, {"on": false, "note": 91, "velocity": 0, "until": 438.3905610833388}, {"on": false, "note": 86, "velocity": 0, "until": 439.1643560833389}, {"on": true, "note": 76, "velocity": 101, "until": 439.1643560833389}, {"on": true, "note": 79, "velocity": 101, "until": 439.6541500833389}, {"on": false, "note": 79, "velocity": 0, "until": 439.6541500833389}, {"on": false, "note": 76, "velocity": 0, "until": 439.6541500833389}, {"on": true, "note": 78, "velocity": 101, "until": 439.6541500833389}, {"on": true, "note": 75, "velocity": 101, "until": 439.88491908333884}, {"on": false, "note": 78, "velocity": 0, "until": 439.88491908333884}, {"on": true, "note": 79, "velocity": 101, "until": 440.00030358333885}, {"on": false, "note": 79, "velocity": 0, "until": 440.00030358333885}, {"on": true, "note": 81, "velocity": 101, "until": 440.1156880833388}, {"on": false, "note": 81, "velocity": 0, "until": 440.1156880833388}, {"on": false, "note": 75, "velocity": 0, "until": 440.1156880833388}, {"on": true, "note": 79, "velocity": 101, "until": 440.1156880833388}, {"on": true, "note": 76, "velocity": 101, "until": 440.6054820833388}, {"on": false, "note": 76, "velocity": 0, "until": 440.7208665833388}, {"on": false, "note": 79, "velocity": 0, "until": 440.7208665833388}, {"on": true, "note": 81, "velocity": 101, "until": 440.8362510833388}, {"on": false, "note": 81, "velocity": 0, "until": 440.8362510833388}, {"on": true, "note": 83, "velocity": 101, "until": 440.9516355833388}, {"on": false, "note": 83, "velocity": 0, "until": 440.9516355833388}, {"on": true, "note": 84, "velocity": 101, "until": 441.06702008333883}, {"on": false, "note": 84, "velocity": 0, "until": 441.06702008333883}, {"on": true, "note": 88, "velocity": 101, "until": 441.06702008333883}, {"on": true, "note": 77, "velocity": 101, "until": 441.1068605833388}, {"on": false, "note": 88, "velocity": 0, "until": 441.1068605833388}, {"on": true, "note": 86, "velocity": 101, "until": 441.1865415833388}, {"on": false, "note": 86, "velocity": 0, "until": 441.1865415833388}, {"on": false, "note": 77, "velocity": 0, "until": 441.30606308333876}, {"on": true, "note": 85, "velocity": 101, "until": 441.30606308333876}, {"on": true, "note": 77, "velocity": 101, "until": 441.4255845833387}, {"on": false, "note": 77, "velocity": 0, "until": 441.4255845833387}, {"on": false, "note": 85, "velocity": 0, "until": 441.5451060833387}, {"on": true, "note": 88, "velocity": 101, "until": 441.5451060833387}, {"on": true, "note": 77, "velocity": 101, "until": 441.58494658333865}, {"on": false, "note": 88, "velocity": 0, "until": 441.58494658333865}, {"on": true, "note": 86, "velocity": 101, "until": 441.66462758333864}, {"on": false, "note": 86, "velocity": 0, "until": 441.66462758333864}, {"on": false, "note": 77, "velocity": 0, "until": 441.7841490833386}, {"on": true, "note": 85, "velocity": 101, "until": 441.7841490833386}, {"on": true, "note": 77, "velocity": 101, "until": 441.90367058333857}, {"on": false, "note": 77, "velocity": 0, "until": 441.90367058333857}, {"on": false, "note": 85, "velocity": 0, "until": 442.02319208333853}, {"on": true, "note": 86, "velocity": 101, "until": 442.02319208333853}, {"on": true, "note": 77, "velocity": 101, "until": 442.5012780833385}, {"on": false, "note": 77, "velocity": 0, "until": 442.5012780833385}, {"on": false, "note": 86, "velocity": 0, "until": 442.73204708333844}, {"on": true, "note": 88, "velocity": 101, "until": 442.73204708333844}, {"on": true, "note": 82, "velocity": 101, "until": 442.8474315833384}, {"on": false, "note": 82, "velocity": 0, "until": 442.8474315833384}, {"on": false, "note": 88, "velocity": 0, "until": 442.9628160833383}, {"on": true, "note": 81, "velocity": 101, "until": 442.9628160833383}, {"on": true, "note": 89, "velocity": 101, "until": 443.08281608333834}, {"on": false, "note": 89, "velocity": 0, "until": 443.08281608333834}, {"on": false, "note": 81, "velocity": 0, "until": 443.2028160833384}, {"on": true, "note": 82, "velocity": 101, "until": 443.2028160833384}, {"on": true, "note": 88, "velocity": 101, "until": 443.32281608333847}, {"on": false, "note": 88, "velocity": 0, "until": 443.32281608333847}, {"on": false, "note": 82, "velocity": 0, "until": 443.4428160833385}, {"on": true, "note": 89, "velocity": 101, "until": 443.4428160833385}, {"on": true, "note": 81, "velocity": 101, "until": 443.5628160833386}, {"on": false, "note": 81, "velocity": 0, "until": 443.5628160833386}, {"on": false, "note": 89, "velocity": 0, "until": 443.68281608333865}, {"on": true, "note": 82, "velocity": 101, "until": 443.68281608333865}, {"on": true, "note": 88, "velocity": 101, "until": 443.8028160833387}, {"on": false, "note": 88, "velocity": 0, "until": 443.8028160833387}, {"on": false, "note": 82, "velocity": 0, "until": 443.9228160833388}, {"on": true, "note": 81, "velocity": 101, "until": 443.9228160833388}, {"on": true, "note": 89, "velocity": 101, "until": 444.4028160833397}, {"on": false, "note": 89, "velocity": 0, "until": 444.4028160833397}, {"on": false, "note": 81, "velocity": 0, "until": 444.63358508333965}, {"on": true, "note": 88, "velocity": 101, "until": 444.63358508333965}, {"on": true, "note": 80, "velocity": 101, "until": 444.7489695833396}, {"on": false, "note": 80, "velocity": 0, "until": 444.7489695833396}, {"on": false, "note": 88, "velocity": 0, "until": 444.86435408333955}, {"on": true, "note": 81, "velocity": 101, "until": 444.86435408333955}, {"on": true, "note": 88, "velocity": 101, "until": 444.9829310833395}, {"on": false, "note": 88, "velocity": 0, "until": 444.9829310833395}, {"on": false, "note": 81, "velocity": 0, "until": 445.10150808333947}, {"on": true, "note": 80, "velocity": 101, "until": 445.10150808333947}, {"on": true, "note": 88, "velocity": 101, "until": 445.2200850833394}, {"on": false, "note": 88, "velocity": 0, "until": 445.2200850833394}, {"on": false, "note": 80, "velocity": 0, "until": 445.3386620833394}, {"on": true, "note": 81, "velocity": 101, "until": 445.3386620833394}, {"on": true, "note": 88, "velocity": 101, "until": 445.45723908333935}, {"on": false, "note": 88, "velocity": 0, "until": 445.45723908333935}, {"on": false, "note": 81, "velocity": 0, "until": 445.5758160833393}, {"on": true, "note": 88, "velocity": 101, "until": 445.5758160833393}, {"on": true, "note": 80, "velocity": 101, "until": 445.69439308333926}, {"on": false, "note": 80, "velocity": 0, "until": 445.69439308333926}, {"on": false, "note": 88, "velocity": 0, "until": 445.8129700833392}, {"on": true, "note": 88, "velocity": 101, "until": 445.8129700833392}, {"on": true, "note": 81, "velocity": 101, "until": 446.2872780833392}, {"on": false, "note": 81, "velocity": 0, "until": 446.2872780833392}, {"on": false, "note": 88, "velocity": 0, "until": 446.5180470833391}, {"on": true, "note": 86, "velocity": 101, "until": 446.5180470833391}, {"on": true, "note": 83, "velocity": 101, "until": 446.6334315833391}, {"on": false, "note": 83, "velocity": 0, "until": 446.6334315833391}, {"on": false, "note": 86, "velocity": 0, "until": 446.74881608333897}, {"on": true, "note": 84, "velocity": 101, "until": 446.74881608333897}, {"on": true, "note": 88, "velocity": 101, "until": 446.86692608333885}, {"on": false, "note": 88, "velocity": 0, "until": 446.86692608333885}, {"on": false, "note": 84, "velocity": 0, "until": 446.98503608333874}, {"on": true, "note": 83, "velocity": 101, "until": 446.98503608333874}, {"on": true, "note": 86, "velocity": 101, "until": 447.10314608333863}, {"on": false, "note": 86, "velocity": 0, "until": 447.10314608333863}, {"on": false, "note": 83, "velocity": 0, "until": 447.2212560833385}, {"on": true, "note": 84, "velocity": 101, "until": 447.2212560833385}, {"on": true, "note": 88, "velocity": 101, "until": 447.3393660833384}, {"on": false, "note": 88, "velocity": 0, "until": 447.3393660833384}, {"on": false, "note": 84, "velocity": 0, "until": 447.4574760833383}, {"on": true, "note": 86, "velocity": 101, "until": 447.4574760833383}, {"on": true, "note": 83, "velocity": 101, "until": 447.5755860833382}, {"on": false, "note": 83, "velocity": 0, "until": 447.5755860833382}, {"on": false, "note": 86, "velocity": 0, "until": 447.69369608333807}, {"on": true, "note": 84, "velocity": 101, "until": 447.69369608333807}, {"on": true, "note": 88, "velocity": 101, "until": 447.92991608333796}, {"on": false, "note": 88, "velocity": 0, "until": 447.92991608333796}, {"on": false, "note": 84, "velocity": 0, "until": 448.16613608333785}, {"on": true, "note": 83, "velocity": 101, "until": 448.16613608333785}, {"on": true, "note": 86, "velocity": 101, "until": 448.60844333333756}, {"on": false, "note": 86, "velocity": 0, "until": 448.60844333333756}, {"on": false, "note": 83, "velocity": 0, "until": 448.6276740833375}, {"on": true, "note": 85, "velocity": 101, "until": 448.6276740833375}, {"on": true, "note": 82, "velocity": 101, "until": 449.0970600000042}, {"on": false, "note": 82, "velocity": 0, "until": 449.0970600000042}, {"on": false, "note": 85, "velocity": 0, "until": 449.11746808333754}, {"on": true, "note": 84, "velocity": 101, "until": 449.11746808333754}, {"on": true, "note": 81, "velocity": 101, "until": 449.55977533333726}, {"on": false, "note": 81, "velocity": 0, "until": 449.55977533333726}, {"on": false, "note": 84, "velocity": 0, "until": 449.5790060833372}, {"on": true, "note": 83, "velocity": 101, "until": 449.5790060833372}, {"on": true, "note": 79, "velocity": 101, "until": 450.0483920000039}, {"on": false, "note": 79, "velocity": 0, "until": 450.0483920000039}, {"on": false, "note": 83, "velocity": 0, "until": 450.06880008333724}, {"on": true, "note": 79, "velocity": 101, "until": 450.06880008333724}, {"on": true, "note": 82, "velocity": 101, "until": 450.51110733333695}, {"on": false, "note": 82, "velocity": 0, "until": 450.51110733333695}, {"on": false, "note": 79, "velocity": 0, "until": 450.5303380833369}, {"on": true, "note": 80, "velocity": 101, "until": 450.77523508333695}, {"on": true, "note": 84, "velocity": 116, "until": 450.89768358333697}, {"on": false, "note": 84, "velocity": 0, "until": 450.89768358333697}, {"on": true, "note": 86, "velocity": 116, "until": 451.0099280416703}, {"on": false, "note": 86, "velocity": 0, "until": 451.020132083337}, {"on": true, "note": 87, "velocity": 101, "until": 451.25090108333694}, {"on": false, "note": 80, "velocity": 0, "until": 451.25090108333694}, {"on": true, "note": 79, "velocity": 101, "until": 451.4374393583369}, {"on": false, "note": 79, "velocity": 0, "until": 451.4816700833369}, {"on": true, "note": 80, "velocity": 101, "until": 451.7061590000036}, {"on": false, "note": 87, "velocity": 0, "until": 451.72656708333693}, {"on": true, "note": 84, "velocity": 116, "until": 451.84901558333695}, {"on": false, "note": 84, "velocity": 0, "until": 451.84901558333695}, {"on": true, "note": 86, "velocity": 116, "until": 451.9612600416703}, {"on": false, "note": 86, "velocity": 0, "until": 451.97146408333697}, {"on": true, "note": 87, "velocity": 101, "until": 452.20223308333647}, {"on": false, "note": 80, "velocity": 0, "until": 452.20223308333647}, {"on": true, "note": 79, "velocity": 101, "until": 452.38877135833644}, {"on": false, "note": 79, "velocity": 0, "until": 452.4330020833364}, {"on": false, "note": 87, "velocity": 0, "until": 452.4330020833364}, {"on": true, "note": 87, "velocity": 101, "until": 452.4330020833364}, {"on": true, "note": 80, "velocity": 101, "until": 452.67789908333646}, {"on": false, "note": 80, "velocity": 0, "until": 452.67789908333646}, {"on": true, "note": 79, "velocity": 101, "until": 452.90238800000316}, {"on": false, "note": 79, "velocity": 0, "until": 452.90238800000316}, {"on": false, "note": 87, "velocity": 0, "until": 452.9227960833365}, {"on": true, "note": 87, "velocity": 101, "until": 452.9227960833365}, {"on": true, "note": 80, "velocity": 101, "until": 453.15356508333616}, {"on": false, "note": 80, "velocity": 0, "until": 453.15356508333616}, {"on": true, "note": 79, "velocity": 101, "until": 453.3651033333361}, {"on": false, "note": 79, "velocity": 0, "until": 453.3651033333361}, {"on": false, "note": 87, "velocity": 0, "until": 453.38433408333606}, {"on": true, "note": 80, "velocity": 101, "until": 453.38433408333606}, {"on": true, "note": 87, "velocity": 101, "until": 453.6292310833361}, {"on": false, "note": 80, "velocity": 0, "until": 453.6292310833361}, {"on": true, "note": 79, "velocity": 101, "until": 453.8537200000028}, {"on": false, "note": 79, "velocity": 0, "until": 453.8537200000028}, {"on": false, "note": 87, "velocity": 0, "until": 453.87412808333613}, {"on": true, "note": 87, "velocity": 101, "until": 453.87412808333613}, {"on": true, "note": 80, "velocity": 101, "until": 454.1048970833358}, {"on": false, "note": 80, "velocity": 0, "until": 454.1048970833358}, {"on": true, "note": 79, "velocity": 101, "until": 454.31643533333573}, {"on": false, "note": 79, "velocity": 0, "until": 454.31643533333573}, {"on": false, "note": 87, "velocity": 0, "until": 454.3356660833357}, {"on": true, "note": 90, "velocity": 101, "until": 454.3356660833357}, {"on": true, "note": 87, "velocity": 101, "until": 454.5601550000024}, {"on": false, "note": 87, "velocity": 0, "until": 454.58056308333573}, {"on": true, "note": 84, "velocity": 116, "until": 454.70301158333575}, {"on": false, "note": 84, "velocity": 0, "until": 454.70301158333575}, {"on": true, "note": 86, "velocity": 116, "until": 454.82546008333577}, {"on": false, "note": 86, "velocity": 0, "until": 454.82546008333577}, {"on": true, "note": 87, "velocity": 101, "until": 455.0562290833357}, {"on": false, "note": 90, "velocity": 0, "until": 455.0562290833357}, {"on": true, "note": 91, "velocity": 101, "until": 455.26776733333566}, {"on": false, "note": 91, "velocity": 0, "until": 455.2869980833356}, {"on": true, "note": 90, "velocity": 101, "until": 455.5114870000023}, {"on": false, "note": 87, "velocity": 0, "until": 455.53189508333566}, {"on": true, "note": 84, "velocity": 116, "until": 455.6543435833357}, {"on": false, "note": 84, "velocity": 0, "until": 455.6543435833357}, {"on": true, "note": 86, "velocity": 116, "until": 455.7767920833357}, {"on": false, "note": 86, "velocity": 0, "until": 455.7767920833357}, {"on": true, "note": 87, "velocity": 101, "until": 456.00756108333564}, {"on": false, "note": 90, "velocity": 0, "until": 456.00756108333564}, {"on": true, "note": 91, "velocity": 101, "until": 456.2190993333356}, {"on": false, "note": 91, "velocity": 0, "until": 456.2190993333356}, {"on": false, "note": 87, "velocity": 0, "until": 456.23833008333554}, {"on": true, "note": 87, "velocity": 101, "until": 456.23833008333554}, {"on": true, "note": 90, "velocity": 101, "until": 456.4832270833356}, {"on": false, "note": 90, "velocity": 0, "until": 456.4832270833356}, {"on": true, "note": 91, "velocity": 101, "until": 456.7077160000023}, {"on": false, "note": 91, "velocity": 0, "until": 456.7077160000023}, {"on": false, "note": 87, "velocity": 0, "until": 456.7281240833356}, {"on": true, "note": 87, "velocity": 101, "until": 456.7281240833356}, {"on": true, "note": 90, "velocity": 101, "until": 456.9588930833353}, {"on": false, "note": 90, "velocity": 0, "until": 456.9588930833353}, {"on": true, "note": 91, "velocity": 101, "until": 457.1704313333352}, {"on": false, "note": 91, "velocity": 0, "until": 457.1704313333352}, {"on": false, "note": 87, "velocity": 0, "until": 457.1896620833352}, {"on": true, "note": 87, "velocity": 101, "until": 457.1896620833352}, {"on": true, "note": 90, "velocity": 101, "until": 457.4345590833352}, {"on": false, "note": 90, "velocity": 0, "until": 457.4345590833352}, {"on": true, "note": 91, "velocity": 101, "until": 457.6590480000019}, {"on": false, "note": 91, "velocity": 0, "until": 457.6590480000019}, {"on": false, "note": 87, "velocity": 0, "until": 457.67945608333525}, {"on": true, "note": 87, "velocity": 101, "until": 457.67945608333525}, {"on": true, "note": 90, "velocity": 101, "until": 457.9102250833349}, {"on": false, "note": 87, "velocity": 0, "until": 457.9102250833349}, {"on": true, "note": 84, "velocity": 101, "until": 458.12176333333485}, {"on": false, "note": 84, "velocity": 0, "until": 458.12176333333485}, {"on": false, "note": 90, "velocity": 0, "until": 458.1409940833348}, {"on": true, "note": 91, "velocity": 101, "until": 458.1409940833348}, {"on": true, "note": 86, "velocity": 101, "until": 458.38589108333485}, {"on": false, "note": 86, "velocity": 0, "until": 458.38589108333485}, {"on": false, "note": 91, "velocity": 0, "until": 470.2319170833321}, {"on": true, "note": 67, "velocity": 86, "until": 470.36012208333204}, {"on": false, "note": 67, "velocity": 0, "until": 470.48832708333197}, {"on": true, "note": 72, "velocity": 86, "until": 471.23453108333206}, {"on": false, "note": 72, "velocity": 0, "until": 471.23453108333206}, {"on": true, "note": 67, "velocity": 86, "until": 471.36273608333204}, {"on": false, "note": 67, "velocity": 0, "until": 471.490941083332}, {"on": true, "note": 75, "velocity": 86, "until": 472.2371450833321}, {"on": false, "note": 75, "velocity": 0, "until": 472.2371450833321}, {"on": true, "note": 72, "velocity": 86, "until": 472.3653500833321}, {"on": false, "note": 72, "velocity": 0, "until": 472.49355508333207}, {"on": true, "note": 80, "velocity": 86, "until": 473.23975908333216}, {"on": false, "note": 80, "velocity": 0, "until": 473.23975908333216}, {"on": true, "note": 75, "velocity": 86, "until": 473.36796408333214}, {"on": false, "note": 75, "velocity": 0, "until": 473.4961690833321}, {"on": true, "note": 84, "velocity": 86, "until": 473.9859630833322}, {"on": false, "note": 84, "velocity": 0, "until": 473.9859630833322}, {"on": true, "note": 82, "velocity": 86, "until": 474.37057808333185}, {"on": false, "note": 82, "velocity": 0, "until": 474.37057808333185}, {"on": true, "note": 84, "velocity": 86, "until": 474.49878308333166}, {"on": false, "note": 84, "velocity": 0, "until": 474.49878308333166}, {"on": true, "note": 82, "velocity": 86, "until": 474.74368008333164}, {"on": false, "note": 82, "velocity": 0, "until": 474.74368008333164}, {"on": true, "note": 80, "velocity": 86, "until": 474.86612858333166}, {"on": false, "note": 80, "velocity": 0, "until": 474.9885770833317}, {"on": true, "note": 79, "velocity": 86, "until": 475.1167820833316}, {"on": false, "note": 79, "velocity": 0, "until": 475.1167820833316}, {"on": true, "note": 82, "velocity": 86, "until": 475.2449870833315}, {"on": false, "note": 82, "velocity": 0, "until": 475.2449870833315}, {"on": true, "note": 80, "velocity": 86, "until": 475.37319208333145}, {"on": false, "note": 80, "velocity": 0, "until": 475.37319208333145}, {"on": true, "note": 77, "velocity": 86, "until": 475.50139708333137}, {"on": false, "note": 77, "velocity": 0, "until": 475.50139708333137}, {"on": true, "note": 79, "velocity": 86, "until": 475.5707845666647}, {"on": false, "note": 79, "velocity": 0, "until": 475.7462940833314}, {"on": true, "note": 87, "velocity": 86, "until": 475.81568156666475}, {"on": false, "note": 87, "velocity": 0, "until": 475.99119108333144}, {"on": true, "note": 82, "velocity": 86, "until": 476.3758060833311}, {"on": false, "note": 82, "velocity": 0, "until": 476.3758060833311}, {"on": true, "note": 84, "velocity": 86, "until": 476.5040110833309}, {"on": false, "note": 84, "velocity": 0, "until": 476.5040110833309}, {"on": true, "note": 82, "velocity": 86, "until": 476.74890808333095}, {"on": false, "note": 82, "velocity": 0, "until": 476.74890808333095}, {"on": true, "note": 80, "velocity": 86, "until": 476.87135658333096}, {"on": false, "note": 80, "velocity": 0, "until": 476.993805083331}, {"on": true, "note": 79, "velocity": 86, "until": 477.1220100833309}, {"on": false, "note": 79, "velocity": 0, "until": 477.1220100833309}, {"on": true, "note": 82, "velocity": 86, "until": 477.25021508333083}, {"on": false, "note": 82, "velocity": 0, "until": 477.25021508333083}, {"on": true, "note": 80, "velocity": 86, "until": 477.37842008333075}, {"on": false, "note": 80, "velocity": 0, "until": 477.37842008333075}, {"on": true, "note": 77, "velocity": 86, "until": 477.5066250833307}, {"on": false, "note": 77, "velocity": 0, "until": 477.5066250833307}, {"on": true, "note": 75, "velocity": 86, "until": 477.75152208333066}, {"on": false, "note": 75, "velocity": 0, "until": 478.0242490833307}, {"on": true, "note": 91, "velocity": 101, "until": 478.0242490833307}, {"on": true, "note": 79, "velocity": 101, "until": 478.52634108332995}, {"on": false, "note": 79, "velocity": 0, "until": 478.52634108332995}, {"on": false, "note": 91, "velocity": 0, "until": 478.7682760833301}, {"on": true, "note": 86, "velocity": 101, "until": 478.7682760833301}, {"on": true, "note": 83, "velocity": 101, "until": 478.88924358333014}, {"on": false, "note": 83, "velocity": 0, "until": 478.88924358333014}, {"on": false, "note": 86, "velocity": 0, "until": 479.0102110833302}, {"on": true, "note": 84, "velocity": 101, "until": 479.0102110833302}, {"on": true, "note": 87, "velocity": 101, "until": 479.13573408333014}, {"on": false, "note": 87, "velocity": 0, "until": 479.13573408333014}, {"on": false, "note": 84, "velocity": 0, "until": 479.26125708333}, {"on": true, "note": 89, "velocity": 101, "until": 479.26125708333}, {"on": true, "note": 86, "velocity": 101, "until": 479.38678008332994}, {"on": false, "note": 86, "velocity": 0, "until": 479.38678008332994}, {"on": false, "note": 89, "velocity": 0, "until": 479.51230308332987}, {"on": true, "note": 91, "velocity": 101, "until": 479.51230308332987}, {"on": true, "note": 87, "velocity": 101, "until": 479.63327058332993}, {"on": false, "note": 87, "velocity": 0, "until": 479.63327058332993}, {"on": false, "note": 91, "velocity": 0, "until": 479.99617308333}, {"on": true, "note": 82, "velocity": 101, "until": 480.37274208332946}, {"on": false, "note": 82, "velocity": 0, "until": 480.37274208332946}, {"on": true, "note": 84, "velocity": 101, "until": 480.49826508332944}, {"on": false, "note": 84, "velocity": 0, "until": 480.49826508332944}, {"on": true, "note": 82, "velocity": 101, "until": 480.74020008332946}, {"on": false, "note": 82, "velocity": 0, "until": 480.74020008332946}, {"on": true, "note": 80, "velocity": 101, "until": 480.86116758332946}, {"on": false, "note": 80, "velocity": 0, "until": 480.98213508332947}, {"on": true, "note": 79, "velocity": 101, "until": 481.10765808332945}, {"on": false, "note": 79, "velocity": 0, "until": 481.10765808332945}, {"on": true, "note": 82, "velocity": 101, "until": 481.2227208333294}, {"on": false, "note": 82, "velocity": 0, "until": 481.2331810833294}, {"on": true, "note": 80, "velocity": 101, "until": 481.30431078332936}, {"on": false, "note": 80, "velocity": 0, "until": 481.35870408332937}, {"on": true, "note": 77, "velocity": 101, "until": 481.42983378332934}, {"on": false, "note": 77, "velocity": 0, "until": 481.48422708332936}, {"on": true, "note": 75, "velocity": 101, "until": 481.60519458332936}, {"on": false, "note": 75, "velocity": 0, "until": 481.9680970833294}, {"on": true, "note": 91, "velocity": 101, "until": 481.9680970833294}, {"on": true, "note": 79, "velocity": 101, "until": 482.4639630833294}, {"on": false, "note": 79, "velocity": 0, "until": 482.4639630833294}, {"on": false, "note": 91, "velocity": 0, "until": 482.7011170833293}, {"on": true, "note": 83, "velocity": 101, "until": 482.7011170833293}, {"on": true, "note": 86, "velocity": 101, "until": 482.8196940833292}, {"on": false, "note": 86, "velocity": 0, "until": 482.8196940833292}, {"on": false, "note": 83, "velocity": 0, "until": 482.9382710833291}, {"on": true, "note": 87, "velocity": 101, "until": 482.9382710833291}, {"on": true, "note": 84, "velocity": 101, "until": 483.06223758332914}, {"on": false, "note": 84, "velocity": 0, "until": 483.06223758332914}, {"on": false, "note": 87, "velocity": 0, "until": 483.1862040833292}, {"on": true, "note": 86, "velocity": 101, "until": 483.1862040833292}, {"on": true, "note": 89, "velocity": 101, "until": 483.31017058332924}, {"on": false, "note": 89, "velocity": 0, "until": 483.31017058332924}, {"on": false, "note": 86, "velocity": 0, "until": 483.4341370833293}, {"on": true, "note": 91, "velocity": 101, "until": 483.4341370833293}, {"on": true, "note": 87, "velocity": 101, "until": 483.5527140833292}, {"on": false, "note": 87, "velocity": 0, "until": 483.5527140833292}, {"on": false, "note": 91, "velocity": 0, "until": 483.9084450833291}, {"on": true, "note": 82, "velocity": 101, "until": 484.2803445833294}, {"on": false, "note": 82, "velocity": 0, "until": 484.2803445833294}, {"on": true, "note": 84, "velocity": 101, "until": 484.4043110833294}, {"on": false, "note": 84, "velocity": 0, "until": 484.4043110833294}, {"on": true, "note": 82, "velocity": 101, "until": 484.64146508332936}, {"on": false, "note": 82, "velocity": 0, "until": 484.64146508332936}, {"on": true, "note": 80, "velocity": 101, "until": 484.76004208332927}, {"on": false, "note": 80, "velocity": 0, "until": 484.87861908332917}, {"on": true, "note": 79, "velocity": 101, "until": 485.00258558332916}, {"on": false, "note": 79, "velocity": 0, "until": 485.00258558332916}, {"on": true, "note": 82, "velocity": 101, "until": 485.1162215416625}, {"on": false, "note": 82, "velocity": 0, "until": 485.1265520833292}, {"on": true, "note": 80, "velocity": 101, "until": 485.19679976666254}, {"on": false, "note": 80, "velocity": 0, "until": 485.2505185833292}, {"on": true, "note": 77, "velocity": 101, "until": 485.32076626666253}, {"on": false, "note": 77, "velocity": 0, "until": 485.3744850833292}, {"on": true, "note": 75, "velocity": 101, "until": 485.4930620833291}, {"on": false, "note": 75, "velocity": 0, "until": 485.84879308332904}, {"on": true, "note": 86, "velocity": 101, "until": 486.3346210833293}, {"on": false, "note": 86, "velocity": 0, "until": 486.5636280833293}, {"on": true, "note": 81, "velocity": 101, "until": 486.5636280833293}, {"on": true, "note": 78, "velocity": 101, "until": 486.6781315833294}, {"on": false, "note": 78, "velocity": 0, "until": 486.6781315833294}, {"on": false, "note": 81, "velocity": 0, "until": 486.79263508332946}, {"on": true, "note": 82, "velocity": 101, "until": 486.79263508332946}, {"on": true, "note": 79, "velocity": 101, "until": 486.91409208332954}, {"on": false, "note": 79, "velocity": 0, "until": 486.91409208332954}, {"on": false, "note": 82, "velocity": 0, "until": 487.03554908332956}, {"on": true, "note": 84, "velocity": 101, "until": 487.03554908332956}, {"on": true, "note": 81, "velocity": 101, "until": 487.1570060833296}, {"on": false, "note": 81, "velocity": 0, "until": 487.1570060833296}, {"on": false, "note": 84, "velocity": 0, "until": 487.2784630833296}, {"on": true, "note": 86, "velocity": 101, "until": 487.2784630833296}, {"on": true, "note": 82, "velocity": 101, "until": 487.39296658332967}, {"on": false, "note": 82, "velocity": 0, "until": 487.39296658332967}, {"on": false, "note": 86, "velocity": 0, "until": 487.7364770833298}, {"on": true, "note": 89, "velocity": 101, "until": 488.22230508333087}, {"on": false, "note": 89, "velocity": 0, "until": 488.4513120833309}, {"on": true, "note": 84, "velocity": 101, "until": 488.4513120833309}, {"on": true, "note": 81, "velocity": 101, "until": 488.56581558333096}, {"on": false, "note": 81, "velocity": 0, "until": 488.56581558333096}, {"on": false, "note": 84, "velocity": 0, "until": 488.680319083331}, {"on": true, "note": 86, "velocity": 101, "until": 488.680319083331}, {"on": true, "note": 82, "velocity": 101, "until": 488.8017760833311}, {"on": false, "note": 82, "velocity": 0, "until": 488.8017760833311}, {"on": false, "note": 86, "velocity": 0, "until": 488.9232330833311}, {"on": true, "note": 87, "velocity": 101, "until": 488.9232330833311}, {"on": true, "note": 84, "velocity": 101, "until": 489.04469008333115}, {"on": false, "note": 84, "velocity": 0, "until": 489.04469008333115}, {"on": false, "note": 87, "velocity": 0, "until": 489.16614708333117}, {"on": true, "note": 89, "velocity": 101, "until": 489.16614708333117}, {"on": true, "note": 86, "velocity": 101, "until": 489.28065058333124}, {"on": false, "note": 86, "velocity": 0, "until": 489.28065058333124}, {"on": false, "note": 89, "velocity": 0, "until": 489.62416108333133}, {"on": true, "note": 84, "velocity": 101, "until": 489.62416108333133}, {"on": true, "note": 90, "velocity": 101, "until": 489.9126220833309}, {"on": false, "note": 90, "velocity": 0, "until": 489.9126220833309}, {"on": false, "note": 84, "velocity": 0, "until": 491.641426083331}, {"on": true, "note": 84, "velocity": 101, "until": 491.641426083331}, {"on": true, "note": 91, "velocity": 101, "until": 491.8978360833309}, {"on": false, "note": 91, "velocity": 0, "until": 491.8978360833309}, {"on": false, "note": 84, "velocity": 0, "until": 492.6440400833308}, {"on": true, "note": 91, "velocity": 101, "until": 492.6440400833308}, {"on": true, "note": 83, "velocity": 101, "until": 492.9004500833307}, {"on": false, "note": 83, "velocity": 0, "until": 492.9004500833307}, {"on": false, "note": 91, "velocity": 0, "until": 495.74310708333127}, {"on": true, "note": 91, "velocity": 101, "until": 495.74310708333127}, {"on": true, "note": 79, "velocity": 101, "until": 496.1344105833315}, {"on": false, "note": 79, "velocity": 0, "until": 496.1344105833315}, {"on": false, "note": 91, "velocity": 0, "until": 496.1344105833315}, {"on": true, "note": 81, "velocity": 101, "until": 496.1344105833315}, {"on": true, "note": 93, "velocity": 101, "until": 496.2648450833316}, {"on": false, "note": 93, "velocity": 0, "until": 496.2648450833316}, {"on": false, "note": 81, "velocity": 0, "until": 496.2648450833316}, {"on": true, "note": 91, "velocity": 101, "until": 496.2648450833316}, {"on": true, "note": 79, "velocity": 101, "until": 496.50442841666495}, {"on": false, "note": 79, "velocity": 0, "until": 496.50442841666495}, {"on": false, "note": 91, "velocity": 0, "until": 496.51484508333164}, {"on": true, "note": 91, "velocity": 101, "until": 496.51484508333164}, {"on": true, "note": 79, "velocity": 101, "until": 496.63984508333164}, {"on": false, "note": 79, "velocity": 0, "until": 496.63984508333164}, {"on": false, "note": 91, "velocity": 0, "until": 496.76484508333164}, {"on": true, "note": 91, "velocity": 101, "until": 496.76484508333164}, {"on": true, "note": 79, "velocity": 101, "until": 498.0474520833325}, {"on": false, "note": 79, "velocity": 0, "until": 498.0474520833325}, {"on": false, "note": 91, "velocity": 0, "until": 499.8300590833333}, {"on": true, "note": 91, "velocity": 101, "until": 499.8300590833333}, {"on": true, "note": 79, "velocity": 101, "until": 500.2146740833332}, {"on": false, "note": 79, "velocity": 0, "until": 500.2146740833332}, {"on": false, "note": 91, "velocity": 0, "until": 500.2146740833332}, {"on": true, "note": 93, "velocity": 101, "until": 500.2146740833332}, {"on": true, "note": 81, "velocity": 101, "until": 500.3428790833332}, {"on": false, "note": 81, "velocity": 0, "until": 500.3428790833332}, {"on": false, "note": 93, "velocity": 0, "until": 500.3428790833332}, {"on": true, "note": 79, "velocity": 101, "until": 500.3428790833332}, {"on": true, "note": 91, "velocity": 101, "until": 500.57757204166654}, {"on": false, "note": 91, "velocity": 0, "until": 500.57757204166654}, {"on": false, "note": 79, "velocity": 0, "until": 500.5877760833332}, {"on": true, "note": 79, "velocity": 101, "until": 500.5877760833332}, {"on": true, "note": 91, "velocity": 101, "until": 500.71022458333323}, {"on": false, "note": 91, "velocity": 0, "until": 500.71022458333323}, {"on": false, "note": 79, "velocity": 0, "until": 500.83267308333325}, {"on": true, "note": 91, "velocity": 101, "until": 500.83267308333325}, {"on": true, "note": 79, "velocity": 101, "until": 501.8352870833332}, {"on": false, "note": 79, "velocity": 0, "until": 501.8352870833332}, {"on": false, "note": 91, "velocity": 0, "until": 501.8352870833332}, {"on": true, "note": 76, "velocity": 101, "until": 501.8352870833332}, {"on": true, "note": 88, "velocity": 101, "until": 502.0916970833331}, {"on": false, "note": 88, "velocity": 0, "until": 502.0916970833331}, {"on": false, "note": 76, "velocity": 0, "until": 502.34810708333305}, {"on": true, "note": 81, "velocity": 116, "until": 503.3261930833329}, {"on": false, "note": 81, "velocity": 0, "until": 503.3261930833329}, {"on": true, "note": 84, "velocity": 101, "until": 504.04554608333257}, {"on": false, "note": 84, "velocity": 0, "until": 504.3455460833326}, {"on": true, "note": 77, "velocity": 101, "until": 504.3455460833326}, {"on": true, "note": 81, "velocity": 101, "until": 504.46506758333254}, {"on": false, "note": 81, "velocity": 0, "until": 504.46506758333254}, {"on": false, "note": 77, "velocity": 0, "until": 504.5845890833325}, {"on": true, "note": 77, "velocity": 101, "until": 504.5845890833325}, {"on": true, "note": 81, "velocity": 101, "until": 504.70411058333247}, {"on": false, "note": 81, "velocity": 0, "until": 504.70411058333247}, {"on": false, "note": 77, "velocity": 0, "until": 504.8236320833324}, {"on": true, "note": 84, "velocity": 101, "until": 504.8236320833324}, {"on": true, "note": 81, "velocity": 101, "until": 505.82624608333253}, {"on": false, "note": 81, "velocity": 0, "until": 505.82624608333253}, {"on": false, "note": 84, "velocity": 0, "until": 505.82624608333253}, {"on": true, "note": 79, "velocity": 101, "until": 505.82624608333253}, {"on": true, "note": 82, "velocity": 101, "until": 506.3390660833326}, {"on": false, "note": 82, "velocity": 0, "until": 506.3390660833326}, {"on": false, "note": 79, "velocity": 0, "until": 506.3390660833326}, {"on": true, "note": 81, "velocity": 101, "until": 506.3390660833326}, {"on": true, "note": 77, "velocity": 101, "until": 506.58396308333266}, {"on": false, "note": 77, "velocity": 0, "until": 506.58396308333266}, {"on": false, "note": 81, "velocity": 0, "until": 506.58396308333266}, {"on": true, "note": 76, "velocity": 101, "until": 506.58396308333266}, {"on": true, "note": 79, "velocity": 101, "until": 506.8288600833327}, {"on": false, "note": 79, "velocity": 0, "until": 506.8288600833327}, {"on": false, "note": 76, "velocity": 0, "until": 506.8288600833327}, {"on": true, "note": 74, "velocity": 101, "until": 506.8288600833327}, {"on": true, "note": 77, "velocity": 101, "until": 507.08309708333263}, {"on": false, "note": 77, "velocity": 0, "until": 507.08309708333263}, {"on": false, "note": 74, "velocity": 0, "until": 510.29317408333225}, {"on": true, "note": 81, "velocity": 116, "until": 511.25741608333186}, {"on": false, "note": 81, "velocity": 0, "until": 511.25741608333186}, {"on": true, "note": 84, "velocity": 101, "until": 511.96908008333196}, {"on": false, "note": 84, "velocity": 0, "until": 512.2690800833319}, {"on": true, "note": 77, "velocity": 101, "until": 512.2690800833319}, {"on": true, "note": 81, "velocity": 101, "until": 512.3844645833319}, {"on": false, "note": 81, "velocity": 0, "until": 512.3844645833319}, {"on": false, "note": 77, "velocity": 0, "until": 512.4998490833319}, {"on": true, "note": 81, "velocity": 101, "until": 512.4998490833319}, {"on": true, "note": 77, "velocity": 101, "until": 512.6152335833319}, {"on": false, "note": 77, "velocity": 0, "until": 512.6152335833319}, {"on": false, "note": 81, "velocity": 0, "until": 512.7306180833319}, {"on": true, "note": 81, "velocity": 101, "until": 512.7306180833319}, {"on": true, "note": 84, "velocity": 101, "until": 515.1041300833336}, {"on": false, "note": 84, "velocity": 0, "until": 515.1041300833336}, {"on": false, "note": 81, "velocity": 0, "until": 515.1041300833336}, {"on": true, "note": 86, "velocity": 101, "until": 515.1041300833336}, {"on": true, "note": 81, "velocity": 101, "until": 515.3235951250006}, {"on": false, "note": 81, "velocity": 0, "until": 515.3235951250006}, {"on": false, "note": 86, "velocity": 0, "until": 515.333137083334}, {"on": true, "note": 81, "velocity": 101, "until": 515.333137083334}, {"on": true, "note": 86, "velocity": 101, "until": 515.5526021250009}, {"on": false, "note": 86, "velocity": 0, "until": 515.5526021250009}, {"on": false, "note": 81, "velocity": 0, "until": 515.5621440833344}, {"on": true, "note": 88, "velocity": 101, "until": 515.5621440833344}, {"on": true, "note": 84, "velocity": 101, "until": 516.0479720833342}, {"on": false, "note": 84, "velocity": 0, "until": 516.0479720833342}, {"on": false, "note": 88, "velocity": 0, "until": 516.0479720833342}, {"on": true, "note": 79, "velocity": 101, "until": 516.1772820833341}, {"on": false, "note": 79, "velocity": 0, "until": 516.3065920833342}, {"on": true, "note": 79, "velocity": 101, "until": 516.5373610833342}, {"on": false, "note": 79, "velocity": 0, "until": 516.5373610833342}, {"on": true, "note": 93, "velocity": 101, "until": 517.0231890833346}, {"on": false, "note": 93, "velocity": 0, "until": 517.0231890833346}, {"on": true, "note": 91, "velocity": 101, "until": 517.1408360833345}, {"on": false, "note": 91, "velocity": 0, "until": 517.1408360833345}, {"on": true, "note": 89, "velocity": 101, "until": 517.2584830833345}, {"on": false, "note": 89, "velocity": 0, "until": 517.2584830833345}, {"on": true, "note": 88, "velocity": 101, "until": 517.3761300833344}, {"on": false, "note": 88, "velocity": 0, "until": 517.3761300833344}, {"on": true, "note": 86, "velocity": 101, "until": 517.4937770833344}, {"on": false, "note": 86, "velocity": 0, "until": 519.8924370833349}, {"on": true, "note": 86, "velocity": 101, "until": 520.010084083335}, {"on": false, "note": 86, "velocity": 0, "until": 520.127731083335}, {"on": true, "note": 86, "velocity": 101, "until": 520.3630250833351}, {"on": false, "note": 86, "velocity": 0, "until": 520.3630250833351}, {"on": true, "note": 93, "velocity": 116, "until": 520.3630250833351}, {"on": true, "note": 83, "velocity": 101, "until": 520.8488530833349}, {"on": false, "note": 93, "velocity": 0, "until": 520.8488530833349}, {"on": true, "note": 91, "velocity": 101, "until": 520.9665000833348}, {"on": false, "note": 91, "velocity": 0, "until": 520.9665000833348}, {"on": true, "note": 89, "velocity": 101, "until": 521.0841470833348}, {"on": false, "note": 89, "velocity": 0, "until": 521.0841470833348}, {"on": true, "note": 88, "velocity": 101, "until": 521.2017940833347}, {"on": false, "note": 88, "velocity": 0, "until": 521.2017940833347}, {"on": true, "note": 86, "velocity": 101, "until": 521.3194410833347}, {"on": false, "note": 86, "velocity": 0, "until": 521.3194410833347}, {"on": false, "note": 83, "velocity": 0, "until": 521.3194410833347}, {"on": true, "note": 84, "velocity": 101, "until": 521.5623550833345}, {"on": false, "note": 84, "velocity": 0, "until": 524.1886890833352}, {"on": true, "note": 86, "velocity": 101, "until": 524.1886890833352}, {"on": true, "note": 81, "velocity": 101, "until": 524.4316030833352}, {"on": false, "note": 81, "velocity": 0, "until": 524.4316030833352}, {"on": false, "note": 86, "velocity": 0, "until": 525.1325310833349}, {"on": true, "note": 83, "velocity": 101, "until": 525.1325310833349}, {"on": true, "note": 91, "velocity": 101, "until": 525.3754450833347}, {"on": false, "note": 91, "velocity": 0, "until": 525.3754450833347}, {"on": false, "note": 83, "velocity": 0, "until": 527.020215083334}, {"on": true, "note": 79, "velocity": 116, "until": 527.020215083334}, {"on": true, "note": 76, "velocity": 101, "until": 527.384586083334}, {"on": false, "note": 76, "velocity": 0, "until": 527.506043083334}, {"on": false, "note": 79, "velocity": 0, "until": 527.506043083334}, {"on": true, "note": 78, "velocity": 116, "until": 527.506043083334}, {"on": true, "note": 75, "velocity": 101, "until": 527.735050083334}, {"on": false, "note": 78, "velocity": 0, "until": 527.735050083334}, {"on": true, "note": 79, "velocity": 116, "until": 527.849553583334}, {"on": false, "note": 79, "velocity": 0, "until": 527.849553583334}, {"on": false, "note": 75, "velocity": 0, "until": 527.849553583334}, {"on": true, "note": 81, "velocity": 116, "until": 527.9640570833341}, {"on": false, "note": 81, "velocity": 0, "until": 527.9640570833341}, {"on": true, "note": 79, "velocity": 116, "until": 527.9640570833341}, {"on": true, "note": 76, "velocity": 101, "until": 528.449885083334}, {"on": false, "note": 76, "velocity": 0, "until": 528.5643885833341}, {"on": false, "note": 79, "velocity": 0, "until": 528.5643885833341}, {"on": true, "note": 81, "velocity": 116, "until": 528.6788920833341}, {"on": false, "note": 81, "velocity": 0, "until": 528.6788920833341}, {"on": true, "note": 83, "velocity": 116, "until": 528.793395583334}, {"on": false, "note": 83, "velocity": 0, "until": 528.793395583334}, {"on": true, "note": 84, "velocity": 116, "until": 528.907899083334}, {"on": false, "note": 84, "velocity": 0, "until": 528.907899083334}, {"on": true, "note": 88, "velocity": 116, "until": 528.907899083334}, {"on": true, "note": 77, "velocity": 101, "until": 528.9483847500005}, {"on": false, "note": 88, "velocity": 0, "until": 528.9483847500005}, {"on": true, "note": 86, "velocity": 116, "until": 529.0293560833338}, {"on": false, "note": 86, "velocity": 0, "until": 529.0293560833338}, {"on": false, "note": 77, "velocity": 0, "until": 529.1508130833338}, {"on": true, "note": 77, "velocity": 101, "until": 529.1508130833338}, {"on": true, "note": 85, "velocity": 116, "until": 529.2722700833338}, {"on": false, "note": 85, "velocity": 0, "until": 529.2722700833338}, {"on": false, "note": 77, "velocity": 0, "until": 529.3937270833337}, {"on": true, "note": 88, "velocity": 116, "until": 529.3937270833337}, {"on": true, "note": 77, "velocity": 101, "until": 529.4318949166671}, {"on": false, "note": 88, "velocity": 0, "until": 529.4318949166671}, {"on": true, "note": 86, "velocity": 116, "until": 529.5082305833338}, {"on": false, "note": 86, "velocity": 0, "until": 529.5082305833338}, {"on": false, "note": 77, "velocity": 0, "until": 529.6227340833339}, {"on": true, "note": 85, "velocity": 116, "until": 529.6227340833339}, {"on": true, "note": 77, "velocity": 101, "until": 529.7372375833339}, {"on": false, "note": 77, "velocity": 0, "until": 529.7372375833339}, {"on": false, "note": 85, "velocity": 0, "until": 529.851741083334}, {"on": true, "note": 77, "velocity": 101, "until": 529.851741083334}, {"on": true, "note": 86, "velocity": 116, "until": 530.337569083334}, {"on": false, "note": 86, "velocity": 0, "until": 530.337569083334}, {"on": false, "note": 77, "velocity": 0, "until": 530.337569083334}, {"on": true, "note": 79, "velocity": 101, "until": 530.566576083334}, {"on": false, "note": 79, "velocity": 0, "until": 538.8321470833329}, {"on": true, "note": 91, "velocity": 116, "until": 538.9466505833329}, {"on": false, "note": 91, "velocity": 0, "until": 538.9466505833329}, {"on": true, "note": 89, "velocity": 116, "until": 539.061154083333}, {"on": false, "note": 89, "velocity": 0, "until": 539.061154083333}, {"on": true, "note": 88, "velocity": 116, "until": 539.1756575833331}, {"on": false, "note": 88, "velocity": 0, "until": 539.1756575833331}, {"on": true, "note": 86, "velocity": 116, "until": 539.2901610833331}, {"on": false, "note": 86, "velocity": 0, "until": 539.2901610833331}, {"on": true, "note": 84, "velocity": 116, "until": 539.5330750833332}, {"on": false, "note": 84, "velocity": 0, "until": 541.1778450833336}, {"on": true, "note": 91, "velocity": 116, "until": 541.1778450833336}, {"on": true, "note": 88, "velocity": 116, "until": 541.5807750833335}, {"on": false, "note": 88, "velocity": 0, "until": 541.5807750833335}, {"on": false, "note": 91, "velocity": 0, "until": 541.6174050833333}, {"on": true, "note": 87, "velocity": 116, "until": 541.6174050833333}, {"on": true, "note": 90, "velocity": 116, "until": 541.8243010833335}, {"on": false, "note": 90, "velocity": 0, "until": 541.8243010833335}, {"on": true, "note": 91, "velocity": 101, "until": 541.9277490833335}, {"on": false, "note": 91, "velocity": 0, "until": 541.9277490833335}, {"on": true, "note": 93, "velocity": 101, "until": 541.9967144166669}, {"on": false, "note": 93, "velocity": 0, "until": 541.9967144166669}, {"on": false, "note": 87, "velocity": 0, "until": 542.0311970833337}, {"on": true, "note": 88, "velocity": 116, "until": 542.0311970833337}, {"on": true, "note": 91, "velocity": 116, "until": 542.4254609166671}, {"on": false, "note": 91, "velocity": 0, "until": 542.4254609166671}, {"on": false, "note": 88, "velocity": 0, "until": 542.4613030833339}, {"on": true, "note": 87, "velocity": 116, "until": 542.4613030833339}, {"on": true, "note": 90, "velocity": 116, "until": 542.6674880833341}, {"on": false, "note": 90, "velocity": 0, "until": 542.6674880833341}, {"on": true, "note": 91, "velocity": 101, "until": 542.7705805833342}, {"on": false, "note": 91, "velocity": 0, "until": 542.7705805833342}, {"on": true, "note": 93, "velocity": 101, "until": 542.8393089166676}, {"on": false, "note": 93, "velocity": 0, "until": 542.8393089166676}, {"on": false, "note": 87, "velocity": 0, "until": 542.8736730833344}, {"on": true, "note": 88, "velocity": 116, "until": 542.8736730833344}, {"on": true, "note": 91, "velocity": 116, "until": 543.266528916668}, {"on": false, "note": 91, "velocity": 0, "until": 543.266528916668}, {"on": false, "note": 88, "velocity": 0, "until": 543.3022430833348}, {"on": true, "note": 90, "velocity": 116, "until": 543.3022430833348}, {"on": true, "note": 88, "velocity": 116, "until": 543.507021083335}, {"on": false, "note": 90, "velocity": 0, "until": 543.507021083335}, {"on": true, "note": 91, "velocity": 101, "until": 543.609410083335}, {"on": false, "note": 91, "velocity": 0, "until": 543.609410083335}, {"on": true, "note": 93, "velocity": 101, "until": 543.6776694166683}, {"on": false, "note": 93, "velocity": 0, "until": 543.6776694166683}, {"on": false, "note": 88, "velocity": 0, "until": 543.7117990833351}, {"on": true, "note": 91, "velocity": 101, "until": 544.1046549166687}, {"on": false, "note": 91, "velocity": 0, "until": 544.1403690833354}, {"on": true, "note": 79, "velocity": 101, "until": 544.2222802833355}, {"on": false, "note": 79, "velocity": 0, "until": 544.2222802833355}, {"on": true, "note": 81, "velocity": 101, "until": 544.3041914833356}, {"on": false, "note": 81, "velocity": 0, "until": 544.3041914833356}, {"on": true, "note": 83, "velocity": 101, "until": 544.3861026833356}, {"on": false, "note": 83, "velocity": 0, "until": 544.3861026833356}, {"on": true, "note": 85, "velocity": 101, "until": 544.4680138833356}, {"on": false, "note": 85, "velocity": 0, "until": 544.4680138833356}, {"on": true, "note": 86, "velocity": 101, "until": 544.5499250833357}, {"on": false, "note": 86, "velocity": 0, "until": 544.5499250833357}, {"on": true, "note": 88, "velocity": 116, "until": 544.5499250833357}, {"on": true, "note": 85, "velocity": 116, "until": 544.9427809166694}, {"on": false, "note": 85, "velocity": 0, "until": 544.9427809166694}, {"on": false, "note": 88, "velocity": 0, "until": 544.9784950833362}, {"on": true, "note": 81, "velocity": 101, "until": 545.0604062833363}, {"on": false, "note": 81, "velocity": 0, "until": 545.0604062833363}, {"on": true, "note": 83, "velocity": 101, "until": 545.1423174833363}, {"on": false, "note": 83, "velocity": 0, "until": 545.1423174833363}, {"on": true, "note": 85, "velocity": 101, "until": 545.2242286833364}, {"on": false, "note": 85, "velocity": 0, "until": 545.2242286833364}, {"on": true, "note": 86, "velocity": 101, "until": 545.3061398833364}, {"on": false, "note": 86, "velocity": 0, "until": 545.3061398833364}, {"on": true, "note": 88, "velocity": 101, "until": 545.3880510833364}, {"on": false, "note": 88, "velocity": 0, "until": 545.3880510833364}, {"on": true, "note": 89, "velocity": 116, "until": 545.3880510833364}, {"on": true, "note": 86, "velocity": 116, "until": 545.7809069166702}, {"on": false, "note": 86, "velocity": 0, "until": 545.7809069166702}, {"on": false, "note": 89, "velocity": 0, "until": 545.8166210833369}, {"on": true, "note": 79, "velocity": 101, "until": 545.898532283337}, {"on": false, "note": 79, "velocity": 0, "until": 545.898532283337}, {"on": true, "note": 81, "velocity": 101, "until": 545.980443483337}, {"on": false, "note": 81, "velocity": 0, "until": 545.980443483337}, {"on": true, "note": 83, "velocity": 101, "until": 546.062354683337}, {"on": false, "note": 83, "velocity": 0, "until": 546.062354683337}, {"on": true, "note": 85, "velocity": 101, "until": 546.1442658833371}, {"on": false, "note": 85, "velocity": 0, "until": 546.1442658833371}, {"on": true, "note": 86, "velocity": 101, "until": 546.2261770833371}, {"on": false, "note": 86, "velocity": 0, "until": 546.2261770833371}, {"on": true, "note": 85, "velocity": 116, "until": 546.2261770833371}, {"on": true, "note": 88, "velocity": 116, "until": 546.6190329166709}, {"on": false, "note": 88, "velocity": 0, "until": 546.6190329166709}, {"on": false, "note": 85, "velocity": 0, "until": 546.6547470833376}, {"on": true, "note": 81, "velocity": 101, "until": 546.7366582833378}, {"on": false, "note": 81, "velocity": 0, "until": 546.7366582833378}, {"on": true, "note": 83, "velocity": 101, "until": 546.8185694833378}, {"on": false, "note": 83, "velocity": 0, "until": 546.8185694833378}, {"on": true, "note": 85, "velocity": 101, "until": 546.9004806833378}, {"on": false, "note": 85, "velocity": 0, "until": 546.9004806833378}, {"on": true, "note": 86, "velocity": 101, "until": 546.9823918833379}, {"on": false, "note": 86, "velocity": 0, "until": 546.9823918833379}, {"on": true, "note": 88, "velocity": 101, "until": 547.0643030833379}, {"on": false, "note": 88, "velocity": 0, "until": 547.0643030833379}, {"on": true, "note": 86, "velocity": 116, "until": 547.0643030833379}, {"on": true, "note": 89, "velocity": 116, "until": 547.4571589166717}, {"on": false, "note": 89, "velocity": 0, "until": 547.4571589166717}, {"on": false, "note": 86, "velocity": 0, "until": 547.4928730833384}, {"on": true, "note": 83, "velocity": 101, "until": 547.5611324166719}, {"on": false, "note": 83, "velocity": 0, "until": 547.5611324166719}, {"on": true, "note": 84, "velocity": 101, "until": 547.6293917500052}, {"on": false, "note": 84, "velocity": 0, "until": 547.6293917500052}, {"on": true, "note": 86, "velocity": 101, "until": 547.6976510833385}, {"on": false, "note": 86, "velocity": 0, "until": 547.6976510833385}, {"on": true, "note": 88, "velocity": 101, "until": 547.7659104166719}, {"on": false, "note": 88, "velocity": 0, "until": 547.7659104166719}, {"on": true, "note": 89, "velocity": 101, "until": 547.8341697500052}, {"on": false, "note": 89, "velocity": 0, "until": 547.8341697500052}, {"on": true, "note": 91, "velocity": 101, "until": 547.9024290833386}, {"on": false, "note": 91, "velocity": 0, "until": 547.9024290833386}, {"on": true, "note": 89, "velocity": 116, "until": 547.9024290833386}, {"on": true, "note": 93, "velocity": 116, "until": 549.5786810833413}, {"on": false, "note": 93, "velocity": 0, "until": 549.5786810833413}, {"on": false, "note": 89, "velocity": 0, "until": 549.5786810833413}, {"on": true, "note": 93, "velocity": 101, "until": 549.5786810833413}, {"on": true, "note": 89, "velocity": 101, "until": 550.4168070833437}, {"on": false, "note": 89, "velocity": 0, "until": 550.4168070833437}, {"on": false, "note": 93, "velocity": 0, "until": 550.4168070833437}, {"on": true, "note": 89, "velocity": 101, "until": 550.4168070833437}, {"on": true, "note": 93, "velocity": 101, "until": 551.254933083346}, {"on": false, "note": 93, "velocity": 0, "until": 551.254933083346}, {"on": false, "note": 89, "velocity": 0, "until": 551.254933083346}, {"on": true, "note": 89, "velocity": 101, "until": 551.254933083346}, {"on": true, "note": 92, "velocity": 101, "until": 552.9311850833495}, {"on": false, "note": 92, "velocity": 0, "until": 552.9311850833495}, {"on": false, "note": 89, "velocity": 0, "until": 552.9311850833495}, {"on": true, "note": 89, "velocity": 101, "until": 552.9311850833495}, {"on": true, "note": 92, "velocity": 101, "until": 553.7693110833519}, {"on": false, "note": 92, "velocity": 0, "until": 553.7693110833519}, {"on": false, "note": 89, "velocity": 0, "until": 553.7693110833519}, {"on": true, "note": 89, "velocity": 101, "until": 553.7693110833519}, {"on": true, "note": 92, "velocity": 101, "until": 554.6074370833543}, {"on": false, "note": 92, "velocity": 0, "until": 554.6074370833543}, {"on": false, "note": 89, "velocity": 0, "until": 554.6074370833543}, {"on": true, "note": 91, "velocity": 101, "until": 554.6074370833543}, {"on": true, "note": 87, "velocity": 101, "until": 557.1218150833587}, {"on": false, "note": 91, "velocity": 0, "until": 557.9599410833598}, {"on": false, "note": 87, "velocity": 0, "until": 557.9599410833598}, {"on": true, "note": 87, "velocity": 101, "until": 557.9599410833598}, {"on": true, "note": 92, "velocity": 101, "until": 558.17422608336}, {"on": false, "note": 92, "velocity": 0, "until": 558.17422608336}, {"on": false, "note": 87, "velocity": 0, "until": 558.7980670833604}, {"on": true, "note": 90, "velocity": 101, "until": 558.7980670833604}, {"on": true, "note": 87, "velocity": 101, "until": 559.0123520833608}, {"on": false, "note": 87, "velocity": 0, "until": 559.0123520833608}, {"on": false, "note": 90, "velocity": 0, "until": 559.6361930833611}, {"on": true, "note": 88, "velocity": 101, "until": 559.6361930833611}, {"on": true, "note": 91, "velocity": 101, "until": 559.8504780833616}, {"on": false, "note": 91, "velocity": 0, "until": 559.8504780833616}, {"on": false, "note": 88, "velocity": 0, "until": 560.4743190833619}, {"on": true, "note": 86, "velocity": 101, "until": 560.4743190833619}, {"on": true, "note": 83, "velocity": 101, "until": 560.6886040833624}, {"on": false, "note": 83, "velocity": 0, "until": 560.6886040833624}, {"on": false, "note": 86, "velocity": 0, "until": 561.3880420833625}, {"on": true, "note": 87, "velocity": 116, "until": 561.3880420833625}, {"on": true, "note": 91, "velocity": 116, "until": 563.9024200833661}, {"on": false, "note": 91, "velocity": 0, "until": 564.7405460833672}, {"on": false, "note": 87, "velocity": 0, "until": 564.7405460833672}, {"on": true, "note": 87, "velocity": 101, "until": 564.7405460833672}, {"on": true, "note": 92, "velocity": 101, "until": 564.9548310833675}, {"on": false, "note": 92, "velocity": 0, "until": 564.9548310833675}, {"on": false, "note": 87, "velocity": 0, "until": 565.5786720833678}, {"on": true, "note": 87, "velocity": 101, "until": 565.5786720833678}, {"on": true, "note": 90, "velocity": 101, "until": 565.7929570833683}, {"on": false, "note": 90, "velocity": 0, "until": 565.7929570833683}, {"on": false, "note": 87, "velocity": 0, "until": 566.4167980833686}, {"on": true, "note": 91, "velocity": 101, "until": 566.4167980833686}, {"on": true, "note": 88, "velocity": 101, "until": 566.6341890833681}, {"on": false, "note": 88, "velocity": 0, "until": 566.6341890833681}, {"on": false, "note": 91, "velocity": 0, "until": 567.2696980833676}, {"on": true, "note": 83, "velocity": 101, "until": 567.2696980833676}, {"on": true, "note": 86, "velocity": 101, "until": 567.5004670833682}, {"on": false, "note": 86, "velocity": 0, "until": 567.5004670833682}, {"on": false, "note": 83, "velocity": 0, "until": 568.2504670833683}, {"on": true, "note": 79, "velocity": 101, "until": 568.3632485833683}, {"on": false, "note": 79, "velocity": 0, "until": 568.3632485833683}, {"on": true, "note": 81, "velocity": 101, "until": 568.4760300833683}, {"on": false, "note": 81, "velocity": 0, "until": 568.4760300833683}, {"on": true, "note": 83, "velocity": 101, "until": 568.5888115833683}, {"on": false, "note": 83, "velocity": 0, "until": 568.5888115833683}, {"on": true, "note": 84, "velocity": 101, "until": 568.7015930833683}, {"on": false, "note": 84, "velocity": 0, "until": 568.7015930833683}, {"on": true, "note": 86, "velocity": 101, "until": 568.7015930833683}, {"on": true, "note": 79, "velocity": 101, "until": 568.8087355833684}, {"on": false, "note": 79, "velocity": 0, "until": 568.8087355833684}, {"on": false, "note": 86, "velocity": 0, "until": 568.9158780833685}, {"on": true, "note": 79, "velocity": 101, "until": 568.9158780833685}, {"on": true, "note": 85, "velocity": 101, "until": 569.0230205833686}, {"on": false, "note": 85, "velocity": 0, "until": 569.0230205833686}, {"on": false, "note": 79, "velocity": 0, "until": 569.1301630833688}, {"on": true, "note": 79, "velocity": 101, "until": 569.1301630833688}, {"on": true, "note": 86, "velocity": 101, "until": 569.2325520833688}, {"on": false, "note": 86, "velocity": 0, "until": 569.2325520833688}, {"on": false, "note": 79, "velocity": 0, "until": 569.3349410833688}, {"on": true, "note": 79, "velocity": 101, "until": 569.3349410833688}, {"on": true, "note": 85, "velocity": 101, "until": 569.4373300833688}, {"on": false, "note": 85, "velocity": 0, "until": 569.4373300833688}, {"on": false, "note": 79, "velocity": 0, "until": 569.5397190833688}, {"on": true, "note": 79, "velocity": 101, "until": 569.5397190833688}, {"on": true, "note": 86, "velocity": 101, "until": 569.968289083369}, {"on": false, "note": 86, "velocity": 0, "until": 569.968289083369}, {"on": false, "note": 79, "velocity": 0, "until": 571.6445410833696}, {"on": true, "note": 79, "velocity": 101, "until": 571.7469300833698}, {"on": false, "note": 79, "velocity": 0, "until": 571.7469300833698}, {"on": true, "note": 81, "velocity": 101, "until": 571.8493190833698}, {"on": false, "note": 81, "velocity": 0, "until": 571.8493190833698}, {"on": true, "note": 83, "velocity": 101, "until": 571.9517080833698}, {"on": false, "note": 83, "velocity": 0, "until": 571.9517080833698}, {"on": true, "note": 84, "velocity": 101, "until": 572.0540970833698}, {"on": false, "note": 84, "velocity": 0, "until": 572.0540970833698}, {"on": true, "note": 86, "velocity": 101, "until": 572.0540970833698}, {"on": true, "note": 79, "velocity": 101, "until": 572.1612395833699}, {"on": false, "note": 79, "velocity": 0, "until": 572.1612395833699}, {"on": false, "note": 86, "velocity": 0, "until": 572.26838208337}, {"on": true, "note": 85, "velocity": 101, "until": 572.26838208337}, {"on": true, "note": 79, "velocity": 101, "until": 572.3755245833702}, {"on": false, "note": 79, "velocity": 0, "until": 572.3755245833702}, {"on": false, "note": 85, "velocity": 0, "until": 572.4826670833703}, {"on": true, "note": 79, "velocity": 101, "until": 572.4826670833703}, {"on": true, "note": 86, "velocity": 101, "until": 572.5850560833703}, {"on": false, "note": 86, "velocity": 0, "until": 572.5850560833703}, {"on": false, "note": 79, "velocity": 0, "until": 572.6874450833703}, {"on": true, "note": 79, "velocity": 101, "until": 572.6874450833703}, {"on": true, "note": 85, "velocity": 101, "until": 572.7898340833704}, {"on": false, "note": 85, "velocity": 0, "until": 572.7898340833704}, {"on": false, "note": 79, "velocity": 0, "until": 572.8922230833704}, {"on": true, "note": 86, "velocity": 101, "until": 572.8922230833704}, {"on": true, "note": 79, "velocity": 101, "until": 573.3207930833705}, {"on": false, "note": 79, "velocity": 0, "until": 573.3207930833705}, {"on": false, "note": 86, "velocity": 0, "until": 574.9970450833712}, {"on": true, "note": 79, "velocity": 101, "until": 575.0994340833713}, {"on": false, "note": 79, "velocity": 0, "until": 575.0994340833713}, {"on": true, "note": 81, "velocity": 101, "until": 575.2018230833713}, {"on": false, "note": 81, "velocity": 0, "until": 575.2018230833713}, {"on": true, "note": 83, "velocity": 101, "until": 575.3042120833713}, {"on": false, "note": 83, "velocity": 0, "until": 575.3042120833713}, {"on": true, "note": 84, "velocity": 101, "until": 575.4066010833714}, {"on": false, "note": 84, "velocity": 0, "until": 575.4066010833714}, {"on": true, "note": 79, "velocity": 101, "until": 575.4066010833714}, {"on": true, "note": 86, "velocity": 101, "until": 575.5137435833715}, {"on": false, "note": 86, "velocity": 0, "until": 575.5137435833715}, {"on": false, "note": 79, "velocity": 0, "until": 575.6208860833716}, {"on": true, "note": 79, "velocity": 101, "until": 575.6208860833716}, {"on": true, "note": 85, "velocity": 101, "until": 575.7280285833717}, {"on": false, "note": 85, "velocity": 0, "until": 575.7280285833717}, {"on": false, "note": 79, "velocity": 0, "until": 575.8351710833718}, {"on": true, "note": 79, "velocity": 101, "until": 575.8351710833718}, {"on": true, "note": 86, "velocity": 101, "until": 575.9375600833719}, {"on": false, "note": 86, "velocity": 0, "until": 575.9375600833719}, {"on": false, "note": 79, "velocity": 0, "until": 576.0399490833719}, {"on": true, "note": 79, "velocity": 101, "until": 576.0399490833719}, {"on": true, "note": 85, "velocity": 101, "until": 576.1423380833719}, {"on": false, "note": 85, "velocity": 0, "until": 576.1423380833719}, {"on": false, "note": 79, "velocity": 0, "until": 576.2447270833719}, {"on": true, "note": 86, "velocity": 101, "until": 576.2447270833719}, {"on": true, "note": 79, "velocity": 101, "until": 576.351869583372}, {"on": false, "note": 79, "velocity": 0, "until": 576.351869583372}, {"on": false, "note": 86, "velocity": 0, "until": 576.4590120833722}, {"on": true, "note": 79, "velocity": 101, "until": 576.4590120833722}, {"on": true, "note": 85, "velocity": 101, "until": 576.5661545833723}, {"on": false, "note": 85, "velocity": 0, "until": 576.5661545833723}, {"on": false, "note": 79, "velocity": 0, "until": 576.6732970833724}, {"on": true, "note": 86, "velocity": 101, "until": 576.6732970833724}, {"on": true, "note": 79, "velocity": 101, "until": 576.7756860833724}, {"on": false, "note": 79, "velocity": 0, "until": 576.7756860833724}, {"on": false, "note": 86, "velocity": 0, "until": 576.8780750833724}, {"on": true, "note": 79, "velocity": 101, "until": 576.8780750833724}, {"on": true, "note": 85, "velocity": 101, "until": 576.9804640833726}, {"on": false, "note": 85, "velocity": 0, "until": 576.9804640833726}, {"on": false, "note": 79, "velocity": 0, "until": 577.0828530833727}, {"on": true, "note": 86, "velocity": 101, "until": 577.0828530833727}, {"on": true, "note": 79, "velocity": 101, "until": 577.189995583373}, {"on": false, "note": 79, "velocity": 0, "until": 577.189995583373}, {"on": false, "note": 86, "velocity": 0, "until": 577.2971380833735}, {"on": true, "note": 79, "velocity": 101, "until": 577.2971380833735}, {"on": true, "note": 85, "velocity": 101, "until": 577.4042805833739}, {"on": false, "note": 85, "velocity": 0, "until": 577.4042805833739}, {"on": false, "note": 79, "velocity": 0, "until": 577.5114230833743}, {"on": true, "note": 79, "velocity": 101, "until": 577.5114230833743}, {"on": true, "note": 86, "velocity": 101, "until": 577.6138120833745}, {"on": false, "note": 86, "velocity": 0, "until": 577.6138120833745}, {"on": false, "note": 79, "velocity": 0, "until": 577.7162010833746}, {"on": true, "note": 79, "velocity": 101, "until": 577.7162010833746}, {"on": true, "note": 85, "velocity": 101, "until": 577.8185900833747}, {"on": false, "note": 85, "velocity": 0, "until": 577.8185900833747}, {"on": false, "note": 79, "velocity": 0, "until": 577.9209790833747}, {"on": true, "note": 86, "velocity": 101, "until": 577.9209790833747}, {"on": true, "note": 79, "velocity": 101, "until": 578.0281215833752}, {"on": false, "note": 79, "velocity": 0, "until": 578.0281215833752}, {"on": false, "note": 86, "velocity": 0, "until": 578.1352640833755}, {"on": true, "note": 79, "velocity": 101, "until": 578.1352640833755}, {"on": true, "note": 85, "velocity": 101, "until": 578.242406583376}, {"on": false, "note": 85, "velocity": 0, "until": 578.242406583376}, {"on": false, "note": 79, "velocity": 0, "until": 578.3495490833764}, {"on": true, "note": 86, "velocity": 101, "until": 578.3495490833764}, {"on": true, "note": 79, "velocity": 101, "until": 578.4519380833764}, {"on": false, "note": 79, "velocity": 0, "until": 578.4519380833764}, {"on": false, "note": 86, "velocity": 0, "until": 580.435357083378}, {"on": true, "note": 84, "velocity": 101, "until": 580.435357083378}, {"on": true, "note": 79, "velocity": 101, "until": 580.6174993333782}, {"on": false, "note": 79, "velocity": 0, "until": 580.6174993333782}, {"on": false, "note": 84, "velocity": 0, "until": 580.6496420833784}, {"on": true, "note": 83, "velocity": 101, "until": 580.6496420833784}, {"on": true, "note": 79, "velocity": 101, "until": 580.8317843333787}, {"on": false, "note": 79, "velocity": 0, "until": 580.8317843333787}, {"on": false, "note": 83, "velocity": 0, "until": 580.8639270833788}, {"on": true, "note": 84, "velocity": 101, "until": 580.8639270833788}, {"on": true, "note": 79, "velocity": 101, "until": 581.037988383379}, {"on": false, "note": 79, "velocity": 0, "until": 581.037988383379}, {"on": false, "note": 84, "velocity": 0, "until": 581.068705083379}, {"on": true, "note": 79, "velocity": 101, "until": 581.068705083379}, {"on": true, "note": 83, "velocity": 101, "until": 581.2427663833791}, {"on": false, "note": 83, "velocity": 0, "until": 581.2427663833791}, {"on": false, "note": 79, "velocity": 0, "until": 581.2734830833791}, {"on": true, "note": 79, "velocity": 101, "until": 581.2734830833791}, {"on": true, "note": 84, "velocity": 101, "until": 581.4556253333794}, {"on": false, "note": 84, "velocity": 0, "until": 581.4556253333794}, {"on": false, "note": 79, "velocity": 0, "until": 581.4877680833796}, {"on": true, "note": 83, "velocity": 101, "until": 581.4877680833796}, {"on": true, "note": 79, "velocity": 101, "until": 581.6699103333799}, {"on": false, "note": 79, "velocity": 0, "until": 581.6699103333799}, {"on": false, "note": 83, "velocity": 0, "until": 581.7020530833801}, {"on": true, "note": 84, "velocity": 101, "until": 581.7020530833801}, {"on": true, "note": 79, "velocity": 101, "until": 581.8761143833802}, {"on": false, "note": 79, "velocity": 0, "until": 581.8761143833802}, {"on": false, "note": 84, "velocity": 0, "until": 581.9068310833802}, {"on": true, "note": 83, "velocity": 101, "until": 581.9068310833802}, {"on": true, "note": 79, "velocity": 101, "until": 582.0808923833804}, {"on": false, "note": 79, "velocity": 0, "until": 582.0808923833804}, {"on": false, "note": 83, "velocity": 0, "until": 582.1116090833804}, {"on": true, "note": 79, "velocity": 101, "until": 582.1116090833804}, {"on": true, "note": 84, "velocity": 101, "until": 582.3185050833804}, {"on": false, "note": 84, "velocity": 0, "until": 582.3185050833804}, {"on": false, "note": 79, "velocity": 0, "until": 583.0254010833805}, {"on": true, "note": 88, "velocity": 101, "until": 583.0254010833805}, {"on": true, "note": 84, "velocity": 101, "until": 583.2389240833807}, {"on": false, "note": 84, "velocity": 0, "until": 583.2389240833807}, {"on": false, "note": 88, "velocity": 0, "until": 583.9954330833808}, {"on": true, "note": 84, "velocity": 101, "until": 583.9954330833808}, {"on": true, "note": 76, "velocity": 101, "until": 584.5641530833809}, {"on": false, "note": 76, "velocity": 0, "until": 584.5641530833809}]}, {"id": 1, "states": [{"on": true, "note": 72, "velocity": 100, "until": 0}, {"on": false, "note": 0, "velocity": 0, "until": 5.410638291666643}, {"on": false, "note": 72, "velocity": 0, "until": 5.410638291666643}, {"on": true, "note": 67, "velocity": 100, "until": 5.410638291666643}, {"on": true, "note": 76, "velocity": 100, "until": 6.176595291666645}, {"on": false, "note": 76, "velocity": 0, "until": 6.176595291666645}, {"on": false, "note": 67, "velocity": 0, "until": 6.687233291666646}, {"on": true, "note": 65, "velocity": 100, "until": 6.687233291666646}, {"on": true, "note": 77, "velocity": 100, "until": 7.4531902916666475}, {"on": false, "note": 77, "velocity": 0, "until": 7.4531902916666475}, {"on": false, "note": 65, "velocity": 0, "until": 9.67747499999999}, {"on": true, "note": 72, "velocity": 100, "until": 13.278586108333295}, {"on": false, "note": 72, "velocity": 0, "until": 13.278586108333295}, {"on": true, "note": 72, "velocity": 100, "until": 13.278586108333295}, {"on": true, "note": 78, "velocity": 100, "until": 14.078585908333292}, {"on": false, "note": 78, "velocity": 0, "until": 14.078585908333292}, {"on": false, "note": 72, "velocity": 0, "until": 14.611919108333291}, {"on": true, "note": 79, "velocity": 100, "until": 14.611919108333291}, {"on": true, "note": 71, "velocity": 100, "until": 15.411918908333288}, {"on": false, "note": 71, "velocity": 0, "until": 15.411918908333288}, {"on": false, "note": 79, "velocity": 0, "until": 17.565761999999946}, {"on": true, "note": 71, "velocity": 72, "until": 18.165761999999976}, {"on": false, "note": 71, "velocity": 0, "until": 18.76687310833331}, {"on": true, "note": 72, "velocity": 76, "until": 19.433539608333323}, {"on": false, "note": 72, "velocity": 0, "until": 21.323583999999986}, {"on": true, "note": 68, "velocity": 86, "until": 21.92358400000002}, {"on": false, "note": 68, "velocity": 0, "until": 22.52521190000002}, {"on": true, "note": 69, "velocity": 90, "until": 23.223758000000043}, {"on": false, "note": 69, "velocity": 0, "until": 23.971462075000044}, {"on": true, "note": 65, "velocity": 95, "until": 25.19685810833339}, {"on": false, "note": 65, "velocity": 0, "until": 25.19685810833339}, {"on": true, "note": 64, "velocity": 100, "until": 27.729080000000053}, {"on": false, "note": 64, "velocity": 0, "until": 27.729080000000053}, {"on": true, "note": 67, "velocity": 100, "until": 28.62908000000008}, {"on": false, "note": 67, "velocity": 0, "until": 28.62908000000008}, {"on": true, "note": 65, "velocity": 100, "until": 28.929949558333423}, {"on": false, "note": 65, "velocity": 0, "until": 28.929949558333423}, {"on": true, "note": 64, "velocity": 100, "until": 29.58212305833342}, {"on": false, "note": 64, "velocity": 0, "until": 30.233427000000084}, {"on": true, "note": 79, "velocity": 100, "until": 30.483427000000088}, {"on": false, "note": 79, "velocity": 0, "until": 30.63342700000009}, {"on": true, "note": 79, "velocity": 100, "until": 30.883427000000097}, {"on": false, "note": 79, "velocity": 0, "until": 31.0334270000001}, {"on": true, "note": 79, "velocity": 100, "until": 31.2834270000001}, {"on": false, "note": 79, "velocity": 0, "until": 31.4334270000001}, {"on": true, "note": 79, "velocity": 100, "until": 32.033427000000174}, {"on": false, "note": 79, "velocity": 0, "until": 33.937774000000154}, {"on": true, "note": 79, "velocity": 100, "until": 34.18777400000015}, {"on": false, "note": 79, "velocity": 0, "until": 34.337774000000145}, {"on": true, "note": 79, "velocity": 100, "until": 34.58777400000014}, {"on": false, "note": 79, "velocity": 0, "until": 34.73777400000014}, {"on": true, "note": 79, "velocity": 100, "until": 34.98777400000014}, {"on": false, "note": 79, "velocity": 0, "until": 35.1384122916668}, {"on": true, "note": 79, "velocity": 100, "until": 35.77922939166677}, {"on": false, "note": 79, "velocity": 0, "until": 40.49071800833347}, {"on": true, "note": 74, "velocity": 100, "until": 44.23352155833349}, {"on": false, "note": 74, "velocity": 0, "until": 47.93786855833344}, {"on": true, "note": 72, "velocity": 100, "until": 48.04656414166677}, {"on": false, "note": 72, "velocity": 0, "until": 48.04656414166677}, {"on": true, "note": 74, "velocity": 100, "until": 48.1552597250001}, {"on": false, "note": 74, "velocity": 0, "until": 48.1552597250001}, {"on": true, "note": 72, "velocity": 100, "until": 48.372650891666765}, {"on": false, "note": 72, "velocity": 0, "until": 48.372650891666765}, {"on": true, "note": 70, "velocity": 100, "until": 48.75308543333343}, {"on": false, "note": 70, "velocity": 0, "until": 48.807433225000096}, {"on": true, "note": 70, "velocity": 100, "until": 49.04656350833343}, {"on": false, "note": 70, "velocity": 0, "until": 49.24134600000009}, {"on": true, "note": 72, "velocity": 100, "until": 49.341346000000094}, {"on": false, "note": 72, "velocity": 0, "until": 49.341346000000094}, {"on": true, "note": 74, "velocity": 100, "until": 49.441346000000095}, {"on": false, "note": 74, "velocity": 0, "until": 49.441346000000095}, {"on": true, "note": 72, "velocity": 100, "until": 49.64134600000009}, {"on": false, "note": 72, "velocity": 0, "until": 49.64134600000009}, {"on": true, "note": 70, "velocity": 100, "until": 49.99134600000009}, {"on": false, "note": 70, "velocity": 0, "until": 50.04134600000009}, {"on": true, "note": 70, "velocity": 100, "until": 50.26134600000009}, {"on": false, "note": 70, "velocity": 0, "until": 50.44134600000009}, {"on": true, "note": 75, "velocity": 100, "until": 50.841346000000094}, {"on": false, "note": 75, "velocity": 0, "until": 50.841346000000094}, {"on": true, "note": 70, "velocity": 100, "until": 51.191346000000095}, {"on": false, "note": 70, "velocity": 0, "until": 51.24134600000009}, {"on": true, "note": 70, "velocity": 100, "until": 51.46134600000009}, {"on": false, "note": 70, "velocity": 0, "until": 55.34656255833337}, {"on": true, "note": 72, "velocity": 100, "until": 55.4552581416667}, {"on": false, "note": 72, "velocity": 0, "until": 55.4552581416667}, {"on": true, "note": 74, "velocity": 100, "until": 55.563953725000026}, {"on": false, "note": 74, "velocity": 0, "until": 55.563953725000026}, {"on": true, "note": 72, "velocity": 100, "until": 55.78134489166669}, {"on": false, "note": 72, "velocity": 0, "until": 55.78134489166669}, {"on": true, "note": 70, "velocity": 100, "until": 56.16177943333336}, {"on": false, "note": 70, "velocity": 0, "until": 56.21612722500002}, {"on": true, "note": 70, "velocity": 100, "until": 56.455257508333354}, {"on": false, "note": 70, "velocity": 0, "until": 56.65004000000002}, {"on": true, "note": 72, "velocity": 100, "until": 56.75004000000002}, {"on": false, "note": 72, "velocity": 0, "until": 56.75004000000002}, {"on": true, "note": 74, "velocity": 100, "until": 56.85004000000002}, {"on": false, "note": 74, "velocity": 0, "until": 56.85004000000002}, {"on": true, "note": 72, "velocity": 100, "until": 57.05004000000002}, {"on": false, "note": 72, "velocity": 0, "until": 57.05004000000002}, {"on": true, "note": 70, "velocity": 100, "until": 57.40004000000001}, {"on": false, "note": 70, "velocity": 0, "until": 57.45004000000001}, {"on": true, "note": 70, "velocity": 100, "until": 57.67004}, {"on": false, "note": 70, "velocity": 0, "until": 57.85004}, {"on": true, "note": 75, "velocity": 100, "until": 58.250040000000006}, {"on": false, "note": 75, "velocity": 0, "until": 58.250040000000006}, {"on": true, "note": 70, "velocity": 100, "until": 58.60004000000001}, {"on": false, "note": 70, "velocity": 0, "until": 58.651944758333336}, {"on": true, "note": 70, "velocity": 100, "until": 58.91384944166665}, {"on": false, "note": 70, "velocity": 0, "until": 59.127593966666645}, {"on": true, "note": 80, "velocity": 100, "until": 59.127593966666645}, {"on": true, "note": 74, "velocity": 100, "until": 59.80941196666655}, {"on": false, "note": 74, "velocity": 0, "until": 59.80941196666655}, {"on": false, "note": 80, "velocity": 0, "until": 60.48986633333321}, {"on": true, "note": 71, "velocity": 100, "until": 60.88986633333321}, {"on": false, "note": 71, "velocity": 0, "until": 60.88986633333321}, {"on": true, "note": 71, "velocity": 100, "until": 61.28986633333321}, {"on": false, "note": 71, "velocity": 0, "until": 61.28986633333321}, {"on": true, "note": 72, "velocity": 100, "until": 61.68986633333321}, {"on": false, "note": 72, "velocity": 0, "until": 61.68986633333321}, {"on": true, "note": 73, "velocity": 100, "until": 62.089866333333205}, {"on": false, "note": 73, "velocity": 0, "until": 62.089866333333205}, {"on": true, "note": 74, "velocity": 100, "until": 62.491494233333206}, {"on": false, "note": 74, "velocity": 0, "until": 62.491494233333206}, {"on": true, "note": 77, "velocity": 100, "until": 62.95634596666654}, {"on": false, "note": 77, "velocity": 0, "until": 62.95634596666654}, {"on": true, "note": 75, "velocity": 100, "until": 62.95634596666654}, {"on": true, "note": 67, "velocity": 100, "until": 63.63816396666645}, {"on": false, "note": 67, "velocity": 0, "until": 63.63816396666645}, {"on": false, "note": 75, "velocity": 0, "until": 64.31861833333312}, {"on": true, "note": 67, "velocity": 100, "until": 64.71861833333313}, {"on": false, "note": 67, "velocity": 0, "until": 64.71861833333313}, {"on": true, "note": 69, "velocity": 100, "until": 65.11861833333313}, {"on": false, "note": 69, "velocity": 0, "until": 65.11861833333313}, {"on": true, "note": 70, "velocity": 100, "until": 65.51861833333314}, {"on": false, "note": 70, "velocity": 0, "until": 65.51861833333314}, {"on": true, "note": 71, "velocity": 100, "until": 65.91861833333314}, {"on": false, "note": 71, "velocity": 0, "until": 65.91861833333314}, {"on": true, "note": 72, "velocity": 100, "until": 66.32024623333314}, {"on": false, "note": 72, "velocity": 0, "until": 66.32024623333314}, {"on": true, "note": 75, "velocity": 100, "until": 66.78460389166648}, {"on": false, "note": 75, "velocity": 0, "until": 66.78460389166648}, {"on": true, "note": 72, "velocity": 100, "until": 66.78460389166648}, {"on": true, "note": 75, "velocity": 100, "until": 67.43677739166677}, {"on": false, "note": 75, "velocity": 0, "until": 67.43677739166677}, {"on": false, "note": 72, "velocity": 0, "until": 79.92525805833347}, {"on": true, "note": 78, "velocity": 100, "until": 79.92525805833347}, {"on": true, "note": 72, "velocity": 100, "until": 81.12090947500039}, {"on": false, "note": 72, "velocity": 0, "until": 81.12090947500039}, {"on": false, "note": 78, "velocity": 0, "until": 81.22960505833376}, {"on": true, "note": 72, "velocity": 100, "until": 81.22960505833376}, {"on": true, "note": 78, "velocity": 100, "until": 82.42525647500068}, {"on": false, "note": 78, "velocity": 0, "until": 82.42525647500068}, {"on": false, "note": 72, "velocity": 0, "until": 82.53395205833407}, {"on": true, "note": 79, "velocity": 100, "until": 82.53395205833407}, {"on": true, "note": 76, "velocity": 100, "until": 84.98742950000124}, {"on": false, "note": 76, "velocity": 0, "until": 84.98742950000124}, {"on": false, "note": 79, "velocity": 0, "until": 85.03742950000125}, {"on": true, "note": 77, "velocity": 100, "until": 85.03742950000125}, {"on": true, "note": 74, "velocity": 100, "until": 86.31448939166793}, {"on": false, "note": 74, "velocity": 0, "until": 86.31448939166793}, {"on": false, "note": 77, "velocity": 0, "until": 86.31448939166793}, {"on": true, "note": 76, "velocity": 100, "until": 86.31448939166793}, {"on": true, "note": 72, "velocity": 100, "until": 87.6179668333348}, {"on": false, "note": 72, "velocity": 0, "until": 87.6179668333348}, {"on": false, "note": 76, "velocity": 0, "until": 92.57685916666833}, {"on": true, "note": 72, "velocity": 70, "until": 92.74685916666833}, {"on": false, "note": 72, "velocity": 0, "until": 92.97685916666833}, {"on": true, "note": 72, "velocity": 80, "until": 93.14685916666834}, {"on": false, "note": 72, "velocity": 0, "until": 93.37876392500166}, {"on": true, "note": 72, "velocity": 90, "until": 93.58114481666833}, {"on": false, "note": 72, "velocity": 0, "until": 93.853919058335}, {"on": true, "note": 72, "velocity": 100, "until": 95.1573965000017}, {"on": false, "note": 72, "velocity": 0, "until": 95.1573965000017}, {"on": true, "note": 75, "velocity": 100, "until": 95.1573965000017}, {"on": true, "note": 72, "velocity": 100, "until": 95.40739650000174}, {"on": false, "note": 72, "velocity": 0, "until": 95.40739650000174}, {"on": false, "note": 75, "velocity": 0, "until": 95.55739650000177}, {"on": true, "note": 75, "velocity": 100, "until": 95.55739650000177}, {"on": true, "note": 72, "velocity": 100, "until": 95.80739650000183}, {"on": false, "note": 72, "velocity": 0, "until": 95.80739650000183}, {"on": false, "note": 75, "velocity": 0, "until": 95.95739650000186}, {"on": true, "note": 75, "velocity": 100, "until": 95.95739650000186}, {"on": true, "note": 72, "velocity": 100, "until": 96.20739650000192}, {"on": false, "note": 72, "velocity": 0, "until": 96.20739650000192}, {"on": false, "note": 75, "velocity": 0, "until": 96.35739650000195}, {"on": true, "note": 72, "velocity": 100, "until": 96.35739650000195}, {"on": true, "note": 75, "velocity": 100, "until": 96.607396500002}, {"on": false, "note": 75, "velocity": 0, "until": 96.607396500002}, {"on": false, "note": 72, "velocity": 0, "until": 96.75739650000203}, {"on": true, "note": 72, "velocity": 100, "until": 96.75739650000203}, {"on": true, "note": 75, "velocity": 100, "until": 97.00739650000205}, {"on": false, "note": 75, "velocity": 0, "until": 97.00739650000205}, {"on": false, "note": 72, "velocity": 0, "until": 97.15739650000206}, {"on": true, "note": 75, "velocity": 100, "until": 97.15739650000206}, {"on": true, "note": 72, "velocity": 100, "until": 97.41210237500208}, {"on": false, "note": 72, "velocity": 0, "until": 97.41210237500208}, {"on": false, "note": 75, "velocity": 0, "until": 97.62885418333545}, {"on": true, "note": 72, "velocity": 100, "until": 97.62885418333545}, {"on": true, "note": 76, "velocity": 115, "until": 98.93233162500233}, {"on": false, "note": 76, "velocity": 0, "until": 98.93233162500233}, {"on": true, "note": 79, "velocity": 126, "until": 99.33233162500237}, {"on": false, "note": 79, "velocity": 0, "until": 99.33233162500237}, {"on": true, "note": 76, "velocity": 126, "until": 99.73233162500239}, {"on": false, "note": 76, "velocity": 0, "until": 99.73233162500239}, {"on": true, "note": 72, "velocity": 126, "until": 100.13296991666908}, {"on": false, "note": 72, "velocity": 0, "until": 100.13296991666908}, {"on": false, "note": 72, "velocity": 0, "until": 100.13296991666908}, {"on": true, "note": 71, "velocity": 100, "until": 100.13296991666908}, {"on": true, "note": 79, "velocity": 110, "until": 100.55850158333574}, {"on": false, "note": 79, "velocity": 0, "until": 100.55850158333574}, {"on": true, "note": 77, "velocity": 110, "until": 100.98403325000241}, {"on": false, "note": 77, "velocity": 0, "until": 100.98403325000241}, {"on": true, "note": 74, "velocity": 110, "until": 101.47944538333574}, {"on": false, "note": 74, "velocity": 0, "until": 101.47944538333574}, {"on": false, "note": 71, "velocity": 0, "until": 101.47944538333574}, {"on": true, "note": 72, "velocity": 100, "until": 102.84071261666905}, {"on": false, "note": 72, "velocity": 0, "until": 119.9364375000023}, {"on": true, "note": 72, "velocity": 100, "until": 120.32270250000228}, {"on": false, "note": 72, "velocity": 0, "until": 120.45123465833561}, {"on": true, "note": 72, "velocity": 100, "until": 120.79738815833561}, {"on": false, "note": 72, "velocity": 0, "until": 120.91289039166894}, {"on": true, "note": 72, "velocity": 100, "until": 121.40261986666894}, {"on": false, "note": 72, "velocity": 0, "until": 121.87692786666895}, {"on": true, "note": 71, "velocity": 100, "until": 121.87692786666895}, {"on": true, "note": 79, "velocity": 100, "until": 121.99550486666895}, {"on": false, "note": 79, "velocity": 0, "until": 121.99550486666895}, {"on": false, "note": 71, "velocity": 0, "until": 122.11408186666895}, {"on": true, "note": 79, "velocity": 100, "until": 122.11408186666895}, {"on": true, "note": 71, "velocity": 100, "until": 122.23265886666896}, {"on": false, "note": 71, "velocity": 0, "until": 122.23265886666896}, {"on": false, "note": 79, "velocity": 0, "until": 122.35123586666896}, {"on": true, "note": 71, "velocity": 100, "until": 122.35123586666896}, {"on": true, "note": 79, "velocity": 100, "until": 122.46981286666896}, {"on": false, "note": 79, "velocity": 0, "until": 122.46981286666896}, {"on": false, "note": 71, "velocity": 0, "until": 122.58838986666896}, {"on": true, "note": 71, "velocity": 100, "until": 122.58838986666896}, {"on": true, "note": 79, "velocity": 100, "until": 122.70696686666896}, {"on": false, "note": 79, "velocity": 0, "until": 122.70696686666896}, {"on": false, "note": 71, "velocity": 0, "until": 122.82560839166896}, {"on": true, "note": 79, "velocity": 100, "until": 122.82560839166896}, {"on": true, "note": 71, "velocity": 100, "until": 123.31528465833563}, {"on": false, "note": 71, "velocity": 0, "until": 123.43066915833562}, {"on": false, "note": 79, "velocity": 0, "until": 123.43066915833562}, {"on": true, "note": 77, "velocity": 100, "until": 123.54605365833561}, {"on": false, "note": 77, "velocity": 0, "until": 123.54605365833561}, {"on": true, "note": 76, "velocity": 100, "until": 123.66143815833561}, {"on": false, "note": 76, "velocity": 0, "until": 123.66143815833561}, {"on": true, "note": 74, "velocity": 100, "until": 123.77694039166894}, {"on": false, "note": 74, "velocity": 0, "until": 123.77694039166894}, {"on": true, "note": 72, "velocity": 100, "until": 124.14428589166894}, {"on": false, "note": 72, "velocity": 0, "until": 124.26661665833561}, {"on": true, "note": 72, "velocity": 100, "until": 124.61277015833561}, {"on": false, "note": 72, "velocity": 0, "until": 124.72827239166894}, {"on": true, "note": 72, "velocity": 100, "until": 125.21800186666894}, {"on": false, "note": 72, "velocity": 0, "until": 125.69230986666895}, {"on": true, "note": 79, "velocity": 100, "until": 125.69230986666895}, {"on": true, "note": 72, "velocity": 100, "until": 125.81088686666895}, {"on": false, "note": 72, "velocity": 0, "until": 125.81088686666895}, {"on": false, "note": 79, "velocity": 0, "until": 125.92946386666895}, {"on": true, "note": 79, "velocity": 100, "until": 125.92946386666895}, {"on": true, "note": 72, "velocity": 100, "until": 126.04804086666896}, {"on": false, "note": 72, "velocity": 0, "until": 126.04804086666896}, {"on": false, "note": 79, "velocity": 0, "until": 126.16661786666896}, {"on": true, "note": 71, "velocity": 100, "until": 126.16661786666896}, {"on": true, "note": 79, "velocity": 100, "until": 126.28519486666896}, {"on": false, "note": 79, "velocity": 0, "until": 126.28519486666896}, {"on": false, "note": 71, "velocity": 0, "until": 126.40377186666896}, {"on": true, "note": 71, "velocity": 100, "until": 126.40377186666896}, {"on": true, "note": 79, "velocity": 100, "until": 126.52234886666896}, {"on": false, "note": 79, "velocity": 0, "until": 126.52234886666896}, {"on": false, "note": 71, "velocity": 0, "until": 126.64099039166896}, {"on": true, "note": 72, "velocity": 100, "until": 126.64099039166896}, {"on": true, "note": 79, "velocity": 100, "until": 126.88588739166899}, {"on": false, "note": 79, "velocity": 0, "until": 126.88588739166899}, {"on": false, "note": 72, "velocity": 0, "until": 127.59232239166883}, {"on": true, "note": 76, "velocity": 90, "until": 127.59232239166883}, {"on": true, "note": 79, "velocity": 100, "until": 128.08199865833552}, {"on": false, "note": 79, "velocity": 0, "until": 128.08199865833552}, {"on": false, "note": 76, "velocity": 0, "until": 128.08199865833552}, {"on": true, "note": 75, "velocity": 90, "until": 128.08199865833552}, {"on": true, "note": 78, "velocity": 100, "until": 128.31276765833553}, {"on": false, "note": 78, "velocity": 0, "until": 128.31276765833553}, {"on": true, "note": 79, "velocity": 100, "until": 128.42815215833554}, {"on": false, "note": 79, "velocity": 0, "until": 128.42815215833554}, {"on": true, "note": 81, "velocity": 100, "until": 128.5436543916689}, {"on": false, "note": 81, "velocity": 0, "until": 128.5436543916689}, {"on": false, "note": 75, "velocity": 0, "until": 128.5436543916689}, {"on": true, "note": 79, "velocity": 100, "until": 128.5436543916689}, {"on": true, "note": 76, "velocity": 90, "until": 129.03333065833556}, {"on": false, "note": 76, "velocity": 0, "until": 129.03333065833556}, {"on": false, "note": 79, "velocity": 0, "until": 129.7349455833356}, {"on": true, "note": 79, "velocity": 100, "until": 129.8549455833356}, {"on": false, "note": 79, "velocity": 0, "until": 129.9749455833356}, {"on": true, "note": 79, "velocity": 100, "until": 130.0949455833356}, {"on": false, "note": 79, "velocity": 0, "until": 130.2149455833356}, {"on": true, "note": 79, "velocity": 100, "until": 130.3349455833356}, {"on": false, "note": 79, "velocity": 0, "until": 130.45494558333561}, {"on": true, "note": 79, "velocity": 100, "until": 130.6949455833356}, {"on": false, "note": 79, "velocity": 0, "until": 131.3965243916687}, {"on": true, "note": 76, "velocity": 90, "until": 131.3965243916687}, {"on": true, "note": 79, "velocity": 100, "until": 131.88620065833535}, {"on": false, "note": 79, "velocity": 0, "until": 131.88620065833535}, {"on": false, "note": 76, "velocity": 0, "until": 131.88620065833535}, {"on": true, "note": 75, "velocity": 90, "until": 131.88620065833535}, {"on": true, "note": 78, "velocity": 100, "until": 132.11696965833536}, {"on": false, "note": 78, "velocity": 0, "until": 132.11696965833536}, {"on": true, "note": 79, "velocity": 100, "until": 132.23235415833537}, {"on": false, "note": 79, "velocity": 0, "until": 132.23235415833537}, {"on": true, "note": 81, "velocity": 100, "until": 132.3478563916687}, {"on": false, "note": 81, "velocity": 0, "until": 132.3478563916687}, {"on": false, "note": 75, "velocity": 0, "until": 132.3478563916687}, {"on": true, "note": 79, "velocity": 100, "until": 132.3478563916687}, {"on": true, "note": 76, "velocity": 90, "until": 132.83753265833536}, {"on": false, "note": 76, "velocity": 0, "until": 132.83753265833536}, {"on": false, "note": 79, "velocity": 0, "until": 133.29911608333538}, {"on": true, "note": 80, "velocity": 100, "until": 133.29911608333538}, {"on": true, "note": 71, "velocity": 100, "until": 133.4172260833354}, {"on": false, "note": 71, "velocity": 0, "until": 133.4172260833354}, {"on": false, "note": 80, "velocity": 0, "until": 133.53533608333544}, {"on": true, "note": 72, "velocity": 100, "until": 133.53533608333544}, {"on": true, "note": 81, "velocity": 100, "until": 133.65344608333547}, {"on": false, "note": 81, "velocity": 0, "until": 133.65344608333547}, {"on": false, "note": 72, "velocity": 0, "until": 133.7715560833355}, {"on": true, "note": 71, "velocity": 100, "until": 133.7715560833355}, {"on": true, "note": 80, "velocity": 100, "until": 133.88966608333553}, {"on": false, "note": 80, "velocity": 0, "until": 133.88966608333553}, {"on": false, "note": 71, "velocity": 0, "until": 134.00777608333556}, {"on": true, "note": 72, "velocity": 100, "until": 134.00777608333556}, {"on": true, "note": 81, "velocity": 100, "until": 134.1258860833356}, {"on": false, "note": 81, "velocity": 0, "until": 134.1258860833356}, {"on": false, "note": 72, "velocity": 0, "until": 134.24399608333562}, {"on": true, "note": 80, "velocity": 100, "until": 134.24399608333562}, {"on": true, "note": 71, "velocity": 100, "until": 134.716390658336}, {"on": false, "note": 71, "velocity": 0, "until": 134.716390658336}, {"on": false, "note": 80, "velocity": 0, "until": 135.22505439166932}, {"on": true, "note": 77, "velocity": 100, "until": 135.34750289166934}, {"on": false, "note": 77, "velocity": 0, "until": 135.46995139166933}, {"on": true, "note": 76, "velocity": 100, "until": 135.59239989166932}, {"on": false, "note": 76, "velocity": 0, "until": 135.71473065833598}, {"on": true, "note": 77, "velocity": 100, "until": 135.83011515833599}, {"on": false, "note": 77, "velocity": 0, "until": 135.945499658336}, {"on": true, "note": 76, "velocity": 100, "until": 136.060884158336}, {"on": false, "note": 76, "velocity": 0, "until": 136.17638639166933}, {"on": true, "note": 77, "velocity": 100, "until": 136.42128339166936}, {"on": false, "note": 77, "velocity": 0, "until": 137.12771839166948}, {"on": true, "note": 76, "velocity": 100, "until": 137.2501668916695}, {"on": false, "note": 76, "velocity": 0, "until": 137.37261539166948}, {"on": true, "note": 75, "velocity": 100, "until": 137.49506389166947}, {"on": false, "note": 75, "velocity": 0, "until": 137.61739465833614}, {"on": true, "note": 76, "velocity": 100, "until": 137.73277915833614}, {"on": false, "note": 76, "velocity": 0, "until": 137.84816365833615}, {"on": true, "note": 75, "velocity": 100, "until": 137.96354815833615}, {"on": false, "note": 75, "velocity": 0, "until": 138.07905039166948}, {"on": true, "note": 76, "velocity": 100, "until": 138.32394739166952}, {"on": false, "note": 76, "velocity": 0, "until": 139.03038239166972}, {"on": true, "note": 83, "velocity": 100, "until": 139.03038239166972}, {"on": true, "note": 79, "velocity": 100, "until": 139.1528308916697}, {"on": false, "note": 79, "velocity": 0, "until": 139.1528308916697}, {"on": false, "note": 83, "velocity": 0, "until": 139.27527939166973}, {"on": true, "note": 83, "velocity": 100, "until": 139.27527939166973}, {"on": true, "note": 79, "velocity": 100, "until": 139.75082765833648}, {"on": false, "note": 83, "velocity": 0, "until": 139.75082765833648}, {"on": true, "note": 84, "velocity": 100, "until": 139.9817143916698}, {"on": false, "note": 84, "velocity": 0, "until": 139.9817143916698}, {"on": false, "note": 79, "velocity": 0, "until": 139.9817143916698}, {"on": true, "note": 86, "velocity": 100, "until": 139.9817143916698}, {"on": true, "note": 79, "velocity": 100, "until": 140.1041628916698}, {"on": false, "note": 79, "velocity": 0, "until": 140.1041628916698}, {"on": false, "note": 86, "velocity": 0, "until": 140.22661139166982}, {"on": true, "note": 83, "velocity": 100, "until": 140.22661139166982}, {"on": true, "note": 79, "velocity": 100, "until": 140.70215965833657}, {"on": false, "note": 83, "velocity": 0, "until": 140.70215965833657}, {"on": true, "note": 84, "velocity": 100, "until": 140.9330463916699}, {"on": false, "note": 84, "velocity": 0, "until": 140.9330463916699}, {"on": false, "note": 79, "velocity": 0, "until": 140.9330463916699}, {"on": true, "note": 79, "velocity": 100, "until": 140.9330463916699}, {"on": true, "note": 86, "velocity": 100, "until": 141.0554948916699}, {"on": false, "note": 86, "velocity": 0, "until": 141.0554948916699}, {"on": false, "note": 79, "velocity": 0, "until": 141.1779433916699}, {"on": true, "note": 83, "velocity": 100, "until": 141.1779433916699}, {"on": true, "note": 79, "velocity": 100, "until": 141.65349165833666}, {"on": false, "note": 83, "velocity": 0, "until": 141.65349165833666}, {"on": true, "note": 84, "velocity": 100, "until": 141.88437839167}, {"on": false, "note": 84, "velocity": 0, "until": 141.88437839167}, {"on": false, "note": 79, "velocity": 0, "until": 141.88437839167}, {"on": true, "note": 79, "velocity": 100, "until": 142.49364510833672}, {"on": false, "note": 79, "velocity": 0, "until": 142.49364510833672}, {"on": true, "note": 77, "velocity": 100, "until": 142.61359004167005}, {"on": false, "note": 77, "velocity": 0, "until": 142.61359004167005}, {"on": true, "note": 76, "velocity": 100, "until": 142.75851754167007}, {"on": false, "note": 76, "velocity": 0, "until": 142.75851754167007}, {"on": true, "note": 74, "velocity": 100, "until": 142.9030703916701}, {"on": false, "note": 74, "velocity": 0, "until": 142.9030703916701}, {"on": true, "note": 72, "velocity": 100, "until": 143.38266035000342}, {"on": false, "note": 72, "velocity": 0, "until": 143.39274665833676}, {"on": true, "note": 72, "velocity": 100, "until": 143.84466928333677}, {"on": false, "note": 72, "velocity": 0, "until": 143.8544023916701}, {"on": true, "note": 72, "velocity": 100, "until": 144.33399235000343}, {"on": false, "note": 72, "velocity": 0, "until": 144.80568560833677}, {"on": true, "note": 79, "velocity": 100, "until": 144.80568560833677}, {"on": true, "note": 71, "velocity": 100, "until": 144.92520710833676}, {"on": false, "note": 71, "velocity": 0, "until": 144.92520710833676}, {"on": false, "note": 79, "velocity": 0, "until": 145.04472860833675}, {"on": true, "note": 79, "velocity": 100, "until": 145.04472860833675}, {"on": true, "note": 71, "velocity": 100, "until": 145.16425010833674}, {"on": false, "note": 71, "velocity": 0, "until": 145.16425010833674}, {"on": false, "note": 79, "velocity": 0, "until": 145.28377160833674}, {"on": true, "note": 79, "velocity": 100, "until": 145.28377160833674}, {"on": true, "note": 71, "velocity": 100, "until": 145.40329310833673}, {"on": false, "note": 71, "velocity": 0, "until": 145.40329310833673}, {"on": false, "note": 79, "velocity": 0, "until": 145.52281460833672}, {"on": true, "note": 79, "velocity": 100, "until": 145.52281460833672}, {"on": true, "note": 71, "velocity": 100, "until": 145.6423361083367}, {"on": false, "note": 71, "velocity": 0, "until": 145.6423361083367}, {"on": false, "note": 79, "velocity": 0, "until": 145.7618576083367}, {"on": true, "note": 71, "velocity": 100, "until": 145.7618576083367}, {"on": true, "note": 79, "velocity": 100, "until": 146.2398746583367}, {"on": false, "note": 79, "velocity": 0, "until": 146.2398746583367}, {"on": false, "note": 71, "velocity": 0, "until": 146.4706436583367}, {"on": true, "note": 79, "velocity": 100, "until": 146.4706436583367}, {"on": true, "note": 70, "velocity": 100, "until": 146.58602815833672}, {"on": false, "note": 70, "velocity": 0, "until": 146.58602815833672}, {"on": false, "note": 79, "velocity": 0, "until": 146.70148958333675}, {"on": true, "note": 77, "velocity": 100, "until": 146.70148958333675}, {"on": true, "note": 69, "velocity": 100, "until": 146.82148958333678}, {"on": false, "note": 69, "velocity": 0, "until": 146.82148958333678}, {"on": false, "note": 77, "velocity": 0, "until": 146.94148958333682}, {"on": true, "note": 79, "velocity": 100, "until": 146.94148958333682}, {"on": true, "note": 70, "velocity": 100, "until": 147.06148958333685}, {"on": false, "note": 70, "velocity": 0, "until": 147.06148958333685}, {"on": false, "note": 79, "velocity": 0, "until": 147.18148958333688}, {"on": true, "note": 77, "velocity": 100, "until": 147.18148958333688}, {"on": true, "note": 69, "velocity": 100, "until": 147.30148958333692}, {"on": false, "note": 69, "velocity": 0, "until": 147.30148958333692}, {"on": false, "note": 77, "velocity": 0, "until": 147.42148958333695}, {"on": true, "note": 79, "velocity": 100, "until": 147.42148958333695}, {"on": true, "note": 70, "velocity": 100, "until": 147.54148958333698}, {"on": false, "note": 70, "velocity": 0, "until": 147.54148958333698}, {"on": false, "note": 79, "velocity": 0, "until": 147.66148958333702}, {"on": true, "note": 77, "velocity": 100, "until": 147.66148958333702}, {"on": true, "note": 69, "velocity": 100, "until": 148.14141265833732}, {"on": false, "note": 69, "velocity": 0, "until": 148.14141265833732}, {"on": false, "note": 77, "velocity": 0, "until": 148.37218165833733}, {"on": true, "note": 71, "velocity": 100, "until": 148.37218165833733}, {"on": true, "note": 76, "velocity": 100, "until": 148.48756615833733}, {"on": false, "note": 76, "velocity": 0, "until": 148.48756615833733}, {"on": false, "note": 71, "velocity": 0, "until": 148.60300386667066}, {"on": true, "note": 72, "velocity": 100, "until": 148.60300386667066}, {"on": true, "note": 76, "velocity": 100, "until": 148.72158086667068}, {"on": false, "note": 76, "velocity": 0, "until": 148.72158086667068}, {"on": false, "note": 72, "velocity": 0, "until": 148.8401578666707}, {"on": true, "note": 71, "velocity": 100, "until": 148.8401578666707}, {"on": true, "note": 76, "velocity": 100, "until": 148.9587348666707}, {"on": false, "note": 76, "velocity": 0, "until": 148.9587348666707}, {"on": false, "note": 71, "velocity": 0, "until": 149.07731186667073}, {"on": true, "note": 72, "velocity": 100, "until": 149.07731186667073}, {"on": true, "note": 76, "velocity": 100, "until": 149.19588886667074}, {"on": false, "note": 76, "velocity": 0, "until": 149.19588886667074}, {"on": false, "note": 72, "velocity": 0, "until": 149.31446586667076}, {"on": true, "note": 71, "velocity": 100, "until": 149.31446586667076}, {"on": true, "note": 76, "velocity": 100, "until": 149.43304286667077}, {"on": false, "note": 76, "velocity": 0, "until": 149.43304286667077}, {"on": false, "note": 71, "velocity": 0, "until": 149.5516198666708}, {"on": true, "note": 72, "velocity": 100, "until": 149.5516198666708}, {"on": true, "note": 76, "velocity": 100, "until": 150.02587465833747}, {"on": false, "note": 76, "velocity": 0, "until": 150.02587465833747}, {"on": false, "note": 72, "velocity": 0, "until": 150.25664365833748}, {"on": true, "note": 79, "velocity": 100, "until": 150.25664365833748}, {"on": true, "note": 74, "velocity": 100, "until": 150.37202815833749}, {"on": false, "note": 74, "velocity": 0, "until": 150.37202815833749}, {"on": false, "note": 79, "velocity": 0, "until": 150.4874580833375}, {"on": true, "note": 79, "velocity": 100, "until": 150.4874580833375}, {"on": true, "note": 76, "velocity": 100, "until": 150.60556808333752}, {"on": false, "note": 76, "velocity": 0, "until": 150.60556808333752}, {"on": false, "note": 79, "velocity": 0, "until": 150.72367808333755}, {"on": true, "note": 79, "velocity": 100, "until": 150.72367808333755}, {"on": true, "note": 74, "velocity": 100, "until": 150.84178808333758}, {"on": false, "note": 74, "velocity": 0, "until": 150.84178808333758}, {"on": false, "note": 79, "velocity": 0, "until": 150.9598980833376}, {"on": true, "note": 79, "velocity": 100, "until": 150.9598980833376}, {"on": true, "note": 76, "velocity": 100, "until": 151.07800808333764}, {"on": false, "note": 76, "velocity": 0, "until": 151.07800808333764}, {"on": false, "note": 79, "velocity": 0, "until": 151.19611808333767}, {"on": true, "note": 79, "velocity": 100, "until": 151.19611808333767}, {"on": true, "note": 74, "velocity": 100, "until": 151.3142280833377}, {"on": false, "note": 74, "velocity": 0, "until": 151.3142280833377}, {"on": false, "note": 79, "velocity": 0, "until": 151.43233808333773}, {"on": true, "note": 79, "velocity": 100, "until": 151.43233808333773}, {"on": true, "note": 76, "velocity": 100, "until": 151.66855808333776}, {"on": false, "note": 76, "velocity": 0, "until": 151.66855808333776}, {"on": false, "note": 79, "velocity": 0, "until": 151.9047326583378}, {"on": true, "note": 79, "velocity": 100, "until": 151.9047326583378}, {"on": true, "note": 74, "velocity": 100, "until": 152.3470399083378}, {"on": false, "note": 74, "velocity": 0, "until": 152.3470399083378}, {"on": false, "note": 79, "velocity": 0, "until": 152.36638839167114}, {"on": true, "note": 79, "velocity": 100, "until": 152.36638839167114}, {"on": true, "note": 73, "velocity": 100, "until": 152.83577430833785}, {"on": false, "note": 73, "velocity": 0, "until": 152.83577430833785}, {"on": false, "note": 79, "velocity": 0, "until": 152.85606465833786}, {"on": true, "note": 74, "velocity": 100, "until": 152.85606465833786}, {"on": true, "note": 72, "velocity": 100, "until": 153.29837190833786}, {"on": false, "note": 72, "velocity": 0, "until": 153.29837190833786}, {"on": false, "note": 74, "velocity": 0, "until": 153.3177203916712}, {"on": true, "note": 74, "velocity": 100, "until": 153.3177203916712}, {"on": true, "note": 71, "velocity": 100, "until": 153.7871063083379}, {"on": false, "note": 71, "velocity": 0, "until": 153.7871063083379}, {"on": false, "note": 74, "velocity": 0, "until": 153.80739665833792}, {"on": true, "note": 70, "velocity": 100, "until": 153.80739665833792}, {"on": true, "note": 74, "velocity": 100, "until": 154.24970390833792}, {"on": false, "note": 74, "velocity": 0, "until": 154.24970390833792}, {"on": false, "note": 70, "velocity": 0, "until": 154.26905239167127}, {"on": true, "note": 75, "velocity": 100, "until": 154.26905239167127}, {"on": true, "note": 68, "velocity": 100, "until": 154.5139493916713}, {"on": false, "note": 75, "velocity": 0, "until": 154.5139493916713}, {"on": true, "note": 72, "velocity": 115, "until": 154.63639789167132}, {"on": false, "note": 72, "velocity": 0, "until": 154.63639789167132}, {"on": true, "note": 74, "velocity": 115, "until": 154.74864235000467}, {"on": false, "note": 74, "velocity": 0, "until": 154.75872865833801}, {"on": true, "note": 75, "velocity": 100, "until": 154.989497658338}, {"on": false, "note": 68, "velocity": 0, "until": 154.989497658338}, {"on": true, "note": 67, "velocity": 100, "until": 155.17603593333797}, {"on": false, "note": 67, "velocity": 0, "until": 155.2203843916713}, {"on": true, "note": 68, "velocity": 100, "until": 155.444873308338}, {"on": false, "note": 75, "velocity": 0, "until": 155.46528139167134}, {"on": true, "note": 72, "velocity": 115, "until": 155.58772989167136}, {"on": false, "note": 72, "velocity": 0, "until": 155.58772989167136}, {"on": true, "note": 74, "velocity": 115, "until": 155.6999743500047}, {"on": false, "note": 74, "velocity": 0, "until": 155.71006065833805}, {"on": true, "note": 75, "velocity": 100, "until": 155.94082965833817}, {"on": false, "note": 68, "velocity": 0, "until": 155.94082965833817}, {"on": true, "note": 67, "velocity": 100, "until": 156.12736793333815}, {"on": false, "note": 67, "velocity": 0, "until": 156.17171639167148}, {"on": false, "note": 75, "velocity": 0, "until": 156.17171639167148}, {"on": true, "note": 68, "velocity": 100, "until": 156.17171639167148}, {"on": true, "note": 75, "velocity": 100, "until": 156.41661339167152}, {"on": false, "note": 68, "velocity": 0, "until": 156.41661339167152}, {"on": true, "note": 67, "velocity": 100, "until": 156.64110230833822}, {"on": false, "note": 67, "velocity": 0, "until": 156.64110230833822}, {"on": false, "note": 75, "velocity": 0, "until": 156.66139265833823}, {"on": true, "note": 68, "velocity": 100, "until": 156.66139265833823}, {"on": true, "note": 75, "velocity": 100, "until": 156.89216165833827}, {"on": false, "note": 68, "velocity": 0, "until": 156.89216165833827}, {"on": true, "note": 67, "velocity": 100, "until": 157.10369990833826}, {"on": false, "note": 67, "velocity": 0, "until": 157.10369990833826}, {"on": false, "note": 75, "velocity": 0, "until": 157.1230483916716}, {"on": true, "note": 68, "velocity": 100, "until": 157.1230483916716}, {"on": true, "note": 75, "velocity": 100, "until": 157.36794539167164}, {"on": false, "note": 68, "velocity": 0, "until": 157.36794539167164}, {"on": true, "note": 67, "velocity": 100, "until": 157.59243430833834}, {"on": false, "note": 67, "velocity": 0, "until": 157.59243430833834}, {"on": false, "note": 75, "velocity": 0, "until": 157.61272465833835}, {"on": true, "note": 68, "velocity": 100, "until": 157.61272465833835}, {"on": true, "note": 75, "velocity": 100, "until": 157.8434936583384}, {"on": false, "note": 68, "velocity": 0, "until": 157.8434936583384}, {"on": true, "note": 67, "velocity": 100, "until": 158.05503190833838}, {"on": false, "note": 67, "velocity": 0, "until": 158.05503190833838}, {"on": false, "note": 75, "velocity": 0, "until": 158.07438039167172}, {"on": true, "note": 82, "velocity": 100, "until": 158.07438039167172}, {"on": true, "note": 73, "velocity": 100, "until": 158.31927739167176}, {"on": false, "note": 82, "velocity": 0, "until": 158.31927739167176}, {"on": true, "note": 79, "velocity": 115, "until": 158.44172589167178}, {"on": false, "note": 79, "velocity": 0, "until": 158.44172589167178}, {"on": true, "note": 81, "velocity": 115, "until": 158.55397035000513}, {"on": false, "note": 81, "velocity": 0, "until": 158.56405665833847}, {"on": true, "note": 82, "velocity": 100, "until": 158.7948256583386}, {"on": false, "note": 73, "velocity": 0, "until": 158.7948256583386}, {"on": true, "note": 74, "velocity": 100, "until": 158.98136393333857}, {"on": false, "note": 74, "velocity": 0, "until": 159.0257123916719}, {"on": true, "note": 73, "velocity": 100, "until": 159.2502013083386}, {"on": false, "note": 82, "velocity": 0, "until": 159.27060939167194}, {"on": true, "note": 79, "velocity": 115, "until": 159.39305789167196}, {"on": false, "note": 79, "velocity": 0, "until": 159.39305789167196}, {"on": true, "note": 81, "velocity": 115, "until": 159.5053023500053}, {"on": false, "note": 81, "velocity": 0, "until": 159.51538865833865}, {"on": true, "note": 82, "velocity": 100, "until": 159.74615765833877}, {"on": false, "note": 73, "velocity": 0, "until": 159.74615765833877}, {"on": true, "note": 74, "velocity": 100, "until": 159.93269593333875}, {"on": false, "note": 74, "velocity": 0, "until": 159.97704439167208}, {"on": true, "note": 73, "velocity": 100, "until": 160.20153330833878}, {"on": false, "note": 82, "velocity": 0, "until": 160.22194139167212}, {"on": false, "note": 73, "velocity": 0, "until": 160.22194139167212}, {"on": true, "note": 79, "velocity": 115, "until": 160.22194139167212}, {"on": true, "note": 74, "velocity": 100, "until": 160.34438989167214}, {"on": false, "note": 79, "velocity": 0, "until": 160.34438989167214}, {"on": true, "note": 81, "velocity": 115, "until": 160.4464303083388}, {"on": false, "note": 74, "velocity": 0, "until": 160.45663435000546}, {"on": false, "note": 81, "velocity": 0, "until": 160.4667206583388}, {"on": true, "note": 82, "velocity": 100, "until": 160.4667206583388}, {"on": true, "note": 73, "velocity": 100, "until": 160.69748965833887}, {"on": false, "note": 73, "velocity": 0, "until": 160.69748965833887}, {"on": false, "note": 82, "velocity": 0, "until": 160.69748965833887}, {"on": true, "note": 79, "velocity": 100, "until": 160.69748965833887}, {"on": true, "note": 74, "velocity": 100, "until": 160.8128741583389}, {"on": false, "note": 79, "velocity": 0, "until": 160.8128741583389}, {"on": true, "note": 81, "velocity": 100, "until": 160.9090279083389}, {"on": false, "note": 74, "velocity": 0, "until": 160.91864328333892}, {"on": false, "note": 81, "velocity": 0, "until": 160.92837639167226}, {"on": true, "note": 82, "velocity": 100, "until": 160.92837639167226}, {"on": true, "note": 73, "velocity": 100, "until": 161.1732733916723}, {"on": false, "note": 73, "velocity": 0, "until": 161.1732733916723}, {"on": false, "note": 82, "velocity": 0, "until": 161.1732733916723}, {"on": true, "note": 79, "velocity": 100, "until": 161.1732733916723}, {"on": true, "note": 74, "velocity": 100, "until": 161.29572189167231}, {"on": false, "note": 79, "velocity": 0, "until": 161.29572189167231}, {"on": true, "note": 81, "velocity": 100, "until": 161.39776230833897}, {"on": false, "note": 74, "velocity": 0, "until": 161.40796635000564}, {"on": false, "note": 81, "velocity": 0, "until": 161.41805265833898}, {"on": true, "note": 82, "velocity": 100, "until": 161.41805265833898}, {"on": true, "note": 73, "velocity": 100, "until": 161.64882165833902}, {"on": false, "note": 82, "velocity": 0, "until": 161.64882165833902}, {"on": true, "note": 79, "velocity": 100, "until": 161.76420615833902}, {"on": false, "note": 79, "velocity": 0, "until": 161.76420615833902}, {"on": true, "note": 81, "velocity": 100, "until": 161.86997528333902}, {"on": false, "note": 81, "velocity": 0, "until": 161.87970839167235}, {"on": false, "note": 73, "velocity": 0, "until": 161.87970839167235}, {"on": true, "note": 78, "velocity": 100, "until": 161.87970839167235}, {"on": true, "note": 74, "velocity": 100, "until": 162.1246053916724}, {"on": false, "note": 74, "velocity": 0, "until": 162.60565008333913}, {"on": false, "note": 78, "velocity": 0, "until": 162.60565008333913}, {"on": true, "note": 79, "velocity": 100, "until": 162.84197626667248}, {"on": false, "note": 79, "velocity": 0, "until": 162.84197626667248}, {"on": true, "note": 78, "velocity": 100, "until": 163.57886060833886}, {"on": false, "note": 78, "velocity": 0, "until": 163.57886060833886}, {"on": true, "note": 79, "velocity": 100, "until": 163.81799491667218}, {"on": false, "note": 79, "velocity": 0, "until": 163.81799491667218}, {"on": true, "note": 78, "velocity": 100, "until": 164.06799491667218}, {"on": false, "note": 78, "velocity": 0, "until": 164.06799491667218}, {"on": true, "note": 79, "velocity": 100, "until": 164.31792770833886}, {"on": false, "note": 79, "velocity": 0, "until": 164.31792770833886}, {"on": true, "note": 78, "velocity": 100, "until": 164.5598627083389}, {"on": false, "note": 78, "velocity": 0, "until": 164.5598627083389}, {"on": true, "note": 76, "velocity": 100, "until": 164.80182239167226}, {"on": false, "note": 76, "velocity": 0, "until": 164.80182239167226}, {"on": true, "note": 74, "velocity": 100, "until": 165.04671939167227}, {"on": false, "note": 74, "velocity": 0, "until": 165.04671939167227}, {"on": true, "note": 76, "velocity": 100, "until": 165.29163319167228}, {"on": false, "note": 76, "velocity": 0, "until": 165.29163319167228}, {"on": true, "note": 74, "velocity": 100, "until": 165.53854619167225}, {"on": false, "note": 74, "velocity": 0, "until": 165.53854619167225}, {"on": true, "note": 72, "velocity": 100, "until": 165.7854936333389}, {"on": false, "note": 72, "velocity": 0, "until": 165.7854936333389}, {"on": true, "note": 71, "velocity": 100, "until": 166.03653963333886}, {"on": false, "note": 71, "velocity": 0, "until": 173.9707273333376}, {"on": true, "note": 62, "velocity": 110, "until": 174.09893233333764}, {"on": false, "note": 62, "velocity": 0, "until": 174.227041391671}, {"on": true, "note": 67, "velocity": 110, "until": 174.97334133333794}, {"on": false, "note": 67, "velocity": 0, "until": 174.97334133333794}, {"on": true, "note": 62, "velocity": 110, "until": 175.10154633333804}, {"on": false, "note": 62, "velocity": 0, "until": 175.22965539167146}, {"on": true, "note": 70, "velocity": 110, "until": 175.9759553333384}, {"on": false, "note": 70, "velocity": 0, "until": 175.9759553333384}, {"on": true, "note": 67, "velocity": 110, "until": 176.10416033333848}, {"on": false, "note": 67, "velocity": 0, "until": 176.2322693916719}, {"on": true, "note": 75, "velocity": 110, "until": 176.97856933333873}, {"on": false, "note": 75, "velocity": 0, "until": 176.97856933333873}, {"on": true, "note": 70, "velocity": 110, "until": 177.10677433333876}, {"on": false, "note": 70, "velocity": 0, "until": 177.23488339167213}, {"on": true, "note": 79, "velocity": 110, "until": 177.72477333333887}, {"on": false, "note": 79, "velocity": 0, "until": 177.72477333333887}, {"on": true, "note": 77, "velocity": 100, "until": 178.10938833333933}, {"on": false, "note": 77, "velocity": 0, "until": 178.10938833333933}, {"on": true, "note": 79, "velocity": 100, "until": 178.23749739167275}, {"on": false, "note": 79, "velocity": 0, "until": 178.23749739167275}, {"on": true, "note": 77, "velocity": 100, "until": 178.48239439167276}, {"on": false, "note": 77, "velocity": 0, "until": 178.48239439167276}, {"on": true, "note": 75, "velocity": 100, "until": 178.60484289167275}, {"on": false, "note": 75, "velocity": 0, "until": 178.7273873333394}, {"on": true, "note": 74, "velocity": 100, "until": 178.85559233333944}, {"on": false, "note": 74, "velocity": 0, "until": 178.85559233333944}, {"on": true, "note": 75, "velocity": 100, "until": 178.98379733333948}, {"on": false, "note": 75, "velocity": 0, "until": 178.98379733333948}, {"on": true, "note": 74, "velocity": 100, "until": 179.11200233333952}, {"on": false, "note": 74, "velocity": 0, "until": 179.11200233333952}, {"on": true, "note": 72, "velocity": 100, "until": 179.24011139167288}, {"on": false, "note": 72, "velocity": 0, "until": 179.24011139167288}, {"on": true, "note": 74, "velocity": 100, "until": 179.30949887500623}, {"on": false, "note": 74, "velocity": 0, "until": 179.4850083916729}, {"on": true, "note": 82, "velocity": 100, "until": 179.55439587500624}, {"on": false, "note": 82, "velocity": 0, "until": 179.73000133333957}, {"on": true, "note": 77, "velocity": 100, "until": 180.11461633334005}, {"on": false, "note": 77, "velocity": 0, "until": 180.11461633334005}, {"on": true, "note": 79, "velocity": 100, "until": 180.24272539167345}, {"on": false, "note": 79, "velocity": 0, "until": 180.24272539167345}, {"on": true, "note": 77, "velocity": 100, "until": 180.48762239167345}, {"on": false, "note": 77, "velocity": 0, "until": 180.48762239167345}, {"on": true, "note": 75, "velocity": 100, "until": 180.61007089167344}, {"on": false, "note": 75, "velocity": 0, "until": 180.7326153333401}, {"on": true, "note": 74, "velocity": 100, "until": 180.86082033334014}, {"on": false, "note": 74, "velocity": 0, "until": 180.86082033334014}, {"on": true, "note": 75, "velocity": 100, "until": 180.98902533334018}, {"on": false, "note": 75, "velocity": 0, "until": 180.98902533334018}, {"on": true, "note": 74, "velocity": 100, "until": 181.11723033334022}, {"on": false, "note": 74, "velocity": 0, "until": 181.11723033334022}, {"on": true, "note": 72, "velocity": 100, "until": 181.24533939167358}, {"on": false, "note": 72, "velocity": 0, "until": 181.24533939167358}, {"on": true, "note": 70, "velocity": 100, "until": 181.49046830834027}, {"on": false, "note": 70, "velocity": 0, "until": 181.76301463334025}, {"on": true, "note": 74, "velocity": 100, "until": 182.26503070834022}, {"on": false, "note": 74, "velocity": 0, "until": 182.50696570834026}, {"on": true, "note": 66, "velocity": 100, "until": 182.50696570834026}, {"on": true, "note": 69, "velocity": 100, "until": 182.62793320834027}, {"on": false, "note": 69, "velocity": 0, "until": 182.62793320834027}, {"on": false, "note": 66, "velocity": 0, "until": 182.74897663334025}, {"on": true, "note": 70, "velocity": 100, "until": 182.74897663334025}, {"on": true, "note": 67, "velocity": 100, "until": 182.87449963334024}, {"on": false, "note": 67, "velocity": 0, "until": 182.87449963334024}, {"on": false, "note": 70, "velocity": 0, "until": 183.00002263334022}, {"on": true, "note": 72, "velocity": 100, "until": 183.00002263334022}, {"on": true, "note": 69, "velocity": 100, "until": 183.1255456333402}, {"on": false, "note": 69, "velocity": 0, "until": 183.1255456333402}, {"on": false, "note": 72, "velocity": 0, "until": 183.25099270834022}, {"on": true, "note": 74, "velocity": 100, "until": 183.25099270834022}, {"on": true, "note": 70, "velocity": 100, "until": 183.37196020834023}, {"on": false, "note": 70, "velocity": 0, "until": 183.37196020834023}, {"on": false, "note": 74, "velocity": 0, "until": 185.70683669167332}, {"on": true, "note": 74, "velocity": 100, "until": 186.2026128666736}, {"on": false, "note": 74, "velocity": 0, "until": 186.43976686667364}, {"on": true, "note": 66, "velocity": 100, "until": 186.43976686667364}, {"on": true, "note": 69, "velocity": 100, "until": 186.55834386667365}, {"on": false, "note": 69, "velocity": 0, "until": 186.55834386667365}, {"on": false, "note": 66, "velocity": 0, "until": 186.67701069167367}, {"on": true, "note": 70, "velocity": 100, "until": 186.67701069167367}, {"on": true, "note": 67, "velocity": 100, "until": 186.8009771916737}, {"on": false, "note": 67, "velocity": 0, "until": 186.8009771916737}, {"on": false, "note": 70, "velocity": 0, "until": 186.92494369167375}, {"on": true, "note": 72, "velocity": 100, "until": 186.92494369167375}, {"on": true, "note": 69, "velocity": 100, "until": 187.0489101916738}, {"on": false, "note": 69, "velocity": 0, "until": 187.0489101916738}, {"on": false, "note": 72, "velocity": 0, "until": 187.17278686667385}, {"on": true, "note": 74, "velocity": 100, "until": 187.17278686667385}, {"on": true, "note": 70, "velocity": 100, "until": 187.29136386667386}, {"on": false, "note": 70, "velocity": 0, "until": 187.29136386667386}, {"on": false, "note": 74, "velocity": 0, "until": 187.64718469167386}, {"on": true, "note": 65, "velocity": 100, "until": 187.64718469167386}, {"on": true, "note": 72, "velocity": 100, "until": 188.38011486667386}, {"on": false, "note": 72, "velocity": 0, "until": 188.38011486667386}, {"on": false, "note": 65, "velocity": 0, "until": 188.38011486667386}, {"on": true, "note": 72, "velocity": 100, "until": 188.38011486667386}, {"on": true, "note": 65, "velocity": 100, "until": 188.49869186667388}, {"on": false, "note": 65, "velocity": 0, "until": 188.49869186667388}, {"on": false, "note": 72, "velocity": 0, "until": 188.6173586916739}, {"on": true, "note": 74, "velocity": 100, "until": 188.6173586916739}, {"on": true, "note": 70, "velocity": 100, "until": 188.7413251916739}, {"on": false, "note": 70, "velocity": 0, "until": 188.7413251916739}, {"on": false, "note": 74, "velocity": 0, "until": 188.8652916916739}, {"on": true, "note": 75, "velocity": 100, "until": 188.8652916916739}, {"on": true, "note": 72, "velocity": 100, "until": 188.98925819167388}, {"on": false, "note": 72, "velocity": 0, "until": 188.98925819167388}, {"on": false, "note": 75, "velocity": 0, "until": 189.1131348666739}, {"on": true, "note": 77, "velocity": 100, "until": 189.1131348666739}, {"on": true, "note": 74, "velocity": 100, "until": 189.2317118666739}, {"on": false, "note": 74, "velocity": 0, "until": 189.2317118666739}, {"on": false, "note": 77, "velocity": 0, "until": 189.58749086667387}, {"on": true, "note": 76, "velocity": 100, "until": 189.58749086667387}, {"on": true, "note": 73, "velocity": 100, "until": 190.30220997500663}, {"on": false, "note": 73, "velocity": 0, "until": 190.30220997500663}, {"on": false, "note": 76, "velocity": 0, "until": 190.30220997500663}, {"on": true, "note": 76, "velocity": 100, "until": 190.30220997500663}, {"on": true, "note": 73, "velocity": 100, "until": 190.4167134750066}, {"on": false, "note": 73, "velocity": 0, "until": 190.4167134750066}, {"on": false, "note": 76, "velocity": 0, "until": 190.5313328666732}, {"on": true, "note": 77, "velocity": 100, "until": 190.5313328666732}, {"on": true, "note": 74, "velocity": 100, "until": 190.65278986667317}, {"on": false, "note": 74, "velocity": 0, "until": 190.65278986667317}, {"on": false, "note": 77, "velocity": 0, "until": 190.7742468666731}, {"on": true, "note": 79, "velocity": 100, "until": 190.7742468666731}, {"on": true, "note": 76, "velocity": 100, "until": 190.89570386667305}, {"on": false, "note": 76, "velocity": 0, "until": 190.89570386667305}, {"on": false, "note": 79, "velocity": 0, "until": 191.0170449750063}, {"on": true, "note": 81, "velocity": 100, "until": 191.0170449750063}, {"on": true, "note": 77, "velocity": 100, "until": 191.13154847500627}, {"on": false, "note": 77, "velocity": 0, "until": 191.13154847500627}, {"on": false, "note": 81, "velocity": 0, "until": 191.4751748666729}, {"on": true, "note": 79, "velocity": 100, "until": 191.4751748666729}, {"on": true, "note": 76, "velocity": 100, "until": 192.18989397500562}, {"on": false, "note": 76, "velocity": 0, "until": 192.18989397500562}, {"on": false, "note": 79, "velocity": 0, "until": 192.18989397500562}, {"on": true, "note": 76, "velocity": 100, "until": 192.18989397500562}, {"on": true, "note": 79, "velocity": 100, "until": 192.30439747500557}, {"on": false, "note": 79, "velocity": 0, "until": 192.30439747500557}, {"on": false, "note": 76, "velocity": 0, "until": 192.41901686667222}, {"on": true, "note": 81, "velocity": 100, "until": 192.41901686667222}, {"on": true, "note": 77, "velocity": 100, "until": 192.5404738666722}, {"on": false, "note": 77, "velocity": 0, "until": 192.5404738666722}, {"on": false, "note": 81, "velocity": 0, "until": 192.6619308666721}, {"on": true, "note": 82, "velocity": 100, "until": 192.6619308666721}, {"on": true, "note": 79, "velocity": 100, "until": 192.783387866672}, {"on": false, "note": 79, "velocity": 0, "until": 192.783387866672}, {"on": false, "note": 82, "velocity": 0, "until": 192.90472897500527}, {"on": true, "note": 84, "velocity": 100, "until": 192.90472897500527}, {"on": true, "note": 81, "velocity": 100, "until": 193.01923247500523}, {"on": false, "note": 81, "velocity": 0, "until": 193.01923247500523}, {"on": false, "note": 84, "velocity": 0, "until": 193.3632384250052}, {"on": true, "note": 85, "velocity": 100, "until": 193.3632384250052}, {"on": true, "note": 79, "velocity": 100, "until": 193.6513789166721}, {"on": false, "note": 79, "velocity": 0, "until": 193.6513789166721}, {"on": false, "note": 85, "velocity": 0, "until": 195.3802363333388}, {"on": true, "note": 79, "velocity": 100, "until": 195.3802363333388}, {"on": true, "note": 71, "velocity": 100, "until": 195.63664633333883}, {"on": false, "note": 71, "velocity": 0, "until": 195.63664633333883}, {"on": false, "note": 79, "velocity": 0, "until": 196.38285033333892}, {"on": true, "note": 78, "velocity": 100, "until": 196.38285033333892}, {"on": true, "note": 69, "velocity": 100, "until": 196.63926033333897}, {"on": false, "note": 69, "velocity": 0, "until": 196.63926033333897}, {"on": false, "note": 78, "velocity": 0, "until": 199.4819544916724}, {"on": true, "note": 74, "velocity": 85, "until": 199.8732579916724}, {"on": false, "note": 74, "velocity": 0, "until": 199.8732579916724}, {"on": true, "note": 76, "velocity": 85, "until": 200.00360191667238}, {"on": false, "note": 76, "velocity": 0, "until": 200.00360191667238}, {"on": true, "note": 74, "velocity": 85, "until": 200.25360191667238}, {"on": false, "note": 74, "velocity": 0, "until": 200.25360191667238}, {"on": true, "note": 74, "velocity": 85, "until": 200.37860191667238}, {"on": false, "note": 74, "velocity": 0, "until": 200.50369249167238}, {"on": true, "note": 74, "velocity": 85, "until": 200.76456149167237}, {"on": false, "note": 74, "velocity": 0, "until": 200.76456149167237}, {"on": true, "note": 66, "velocity": 85, "until": 201.02533991667232}, {"on": false, "note": 66, "velocity": 0, "until": 201.02533991667232}, {"on": true, "note": 69, "velocity": 85, "until": 201.2753399166723}, {"on": false, "note": 69, "velocity": 0, "until": 201.2753399166723}, {"on": true, "note": 72, "velocity": 85, "until": 201.52543049167227}, {"on": false, "note": 72, "velocity": 0, "until": 201.52543049167227}, {"on": true, "note": 71, "velocity": 85, "until": 202.04707791667224}, {"on": false, "note": 71, "velocity": 0, "until": 202.04707791667224}, {"on": true, "note": 69, "velocity": 63, "until": 202.17207791667224}, {"on": false, "note": 69, "velocity": 0, "until": 202.17207791667224}, {"on": true, "note": 67, "velocity": 63, "until": 202.29707791667224}, {"on": false, "note": 67, "velocity": 0, "until": 202.29707791667224}, {"on": true, "note": 66, "velocity": 63, "until": 202.42207791667224}, {"on": false, "note": 66, "velocity": 0, "until": 202.42207791667224}, {"on": true, "note": 64, "velocity": 63, "until": 202.54716849167224}, {"on": false, "note": 64, "velocity": 0, "until": 202.54716849167224}, {"on": true, "note": 62, "velocity": 63, "until": 202.67760299167225}, {"on": false, "note": 62, "velocity": 0, "until": 202.80803749167225}, {"on": true, "note": 62, "velocity": 68, "until": 202.93847199167223}, {"on": false, "note": 62, "velocity": 0, "until": 203.0688159166722}, {"on": true, "note": 62, "velocity": 73, "until": 203.1938159166722}, {"on": false, "note": 62, "velocity": 0, "until": 203.3188159166722}, {"on": true, "note": 62, "velocity": 79, "until": 203.4438159166722}, {"on": false, "note": 62, "velocity": 0, "until": 203.56886933333888}, {"on": true, "note": 74, "velocity": 85, "until": 203.95348433333893}, {"on": false, "note": 74, "velocity": 0, "until": 203.95348433333893}, {"on": true, "note": 76, "velocity": 85, "until": 204.0815933916723}, {"on": false, "note": 76, "velocity": 0, "until": 204.0815933916723}, {"on": true, "note": 74, "velocity": 85, "until": 204.32649039167228}, {"on": false, "note": 74, "velocity": 0, "until": 204.32649039167228}, {"on": true, "note": 74, "velocity": 85, "until": 204.4489388916723}, {"on": false, "note": 74, "velocity": 0, "until": 204.571483333339}, {"on": true, "note": 74, "velocity": 85, "until": 204.827893333339}, {"on": false, "note": 74, "velocity": 0, "until": 204.827893333339}, {"on": true, "note": 66, "velocity": 85, "until": 205.0842073916724}, {"on": false, "note": 66, "velocity": 0, "until": 205.0842073916724}, {"on": true, "note": 69, "velocity": 85, "until": 205.32910439167242}, {"on": false, "note": 69, "velocity": 0, "until": 205.32910439167242}, {"on": true, "note": 72, "velocity": 85, "until": 205.57409733333913}, {"on": false, "note": 72, "velocity": 0, "until": 205.57409733333913}, {"on": true, "note": 71, "velocity": 85, "until": 205.83050733333914}, {"on": false, "note": 71, "velocity": 0, "until": 206.08677260833915}, {"on": true, "note": 76, "velocity": 100, "until": 207.06483508333915}, {"on": false, "note": 76, "velocity": 0, "until": 207.06483508333915}, {"on": true, "note": 79, "velocity": 100, "until": 207.7847195833393}, {"on": false, "note": 79, "velocity": 0, "until": 208.08421160833927}, {"on": true, "note": 76, "velocity": 100, "until": 208.08421160833927}, {"on": true, "note": 72, "velocity": 100, "until": 208.21170120833926}, {"on": false, "note": 72, "velocity": 0, "until": 208.21170120833926}, {"on": false, "note": 76, "velocity": 0, "until": 208.32325460833925}, {"on": true, "note": 76, "velocity": 100, "until": 208.32325460833925}, {"on": true, "note": 72, "velocity": 100, "until": 208.45074420833924}, {"on": false, "note": 72, "velocity": 0, "until": 208.45074420833924}, {"on": false, "note": 76, "velocity": 0, "until": 208.56244233333925}, {"on": true, "note": 79, "velocity": 100, "until": 208.56244233333925}, {"on": true, "note": 76, "velocity": 100, "until": 209.56505633333921}, {"on": false, "note": 76, "velocity": 0, "until": 209.56505633333921}, {"on": false, "note": 79, "velocity": 0, "until": 209.56505633333921}, {"on": true, "note": 74, "velocity": 100, "until": 209.56505633333921}, {"on": true, "note": 77, "velocity": 100, "until": 210.0777803916727}, {"on": false, "note": 77, "velocity": 0, "until": 210.0777803916727}, {"on": false, "note": 74, "velocity": 0, "until": 210.0777803916727}, {"on": true, "note": 72, "velocity": 100, "until": 210.0777803916727}, {"on": true, "note": 76, "velocity": 100, "until": 210.3226773916727}, {"on": false, "note": 76, "velocity": 0, "until": 210.3226773916727}, {"on": false, "note": 72, "velocity": 0, "until": 210.3226773916727}, {"on": true, "note": 71, "velocity": 100, "until": 210.3226773916727}, {"on": true, "note": 74, "velocity": 100, "until": 210.55737035000604}, {"on": false, "note": 74, "velocity": 0, "until": 210.55737035000604}, {"on": false, "note": 71, "velocity": 0, "until": 210.56765222500604}, {"on": true, "note": 69, "velocity": 100, "until": 210.56765222500604}, {"on": true, "note": 72, "velocity": 100, "until": 210.82188922500606}, {"on": false, "note": 72, "velocity": 0, "until": 210.82188922500606}, {"on": false, "note": 69, "velocity": 0, "until": 212.06215786667275}, {"on": true, "note": 62, "velocity": 100, "until": 212.19171200000608}, {"on": false, "note": 62, "velocity": 0, "until": 212.30507186667273}, {"on": true, "note": 62, "velocity": 100, "until": 212.43462600000606}, {"on": false, "note": 62, "velocity": 0, "until": 212.54805363333938}, {"on": true, "note": 76, "velocity": 100, "until": 213.05006970833938}, {"on": false, "note": 76, "velocity": 0, "until": 213.05006970833938}, {"on": true, "note": 74, "velocity": 100, "until": 213.17103720833938}, {"on": false, "note": 74, "velocity": 0, "until": 213.17103720833938}, {"on": true, "note": 72, "velocity": 100, "until": 213.2920047083394}, {"on": false, "note": 72, "velocity": 0, "until": 213.2920047083394}, {"on": true, "note": 71, "velocity": 100, "until": 213.4129722083394}, {"on": false, "note": 71, "velocity": 0, "until": 213.4129722083394}, {"on": true, "note": 69, "velocity": 100, "until": 213.5238590833394}, {"on": false, "note": 69, "velocity": 0, "until": 213.5339982666727}, {"on": true, "note": 67, "velocity": 100, "until": 213.7829602666726}, {"on": false, "note": 67, "velocity": 0, "until": 214.03181608333927}, {"on": true, "note": 76, "velocity": 100, "until": 214.99604270833933}, {"on": false, "note": 76, "velocity": 0, "until": 214.99604270833933}, {"on": true, "note": 79, "velocity": 100, "until": 215.70825358333929}, {"on": false, "note": 79, "velocity": 0, "until": 216.00767665833928}, {"on": true, "note": 76, "velocity": 100, "until": 216.00767665833928}, {"on": true, "note": 72, "velocity": 100, "until": 216.12883038333928}, {"on": false, "note": 72, "velocity": 0, "until": 216.12883038333928}, {"on": false, "note": 76, "velocity": 0, "until": 216.2384456583393}, {"on": true, "note": 76, "velocity": 100, "until": 216.2384456583393}, {"on": true, "note": 72, "velocity": 100, "until": 216.3595993833393}, {"on": false, "note": 72, "velocity": 0, "until": 216.3595993833393}, {"on": false, "note": 76, "velocity": 0, "until": 216.46931586667262}, {"on": true, "note": 79, "velocity": 100, "until": 216.46931586667262}, {"on": true, "note": 76, "velocity": 100, "until": 218.84271197500564}, {"on": false, "note": 76, "velocity": 0, "until": 218.84271197500564}, {"on": false, "note": 79, "velocity": 0, "until": 218.84271197500564}, {"on": true, "note": 76, "velocity": 100, "until": 218.84271197500564}, {"on": true, "note": 69, "velocity": 100, "until": 219.0526350583389}, {"on": false, "note": 69, "velocity": 0, "until": 219.0526350583389}, {"on": false, "note": 76, "velocity": 0, "until": 219.07171897500555}, {"on": true, "note": 76, "velocity": 100, "until": 219.07171897500555}, {"on": true, "note": 69, "velocity": 100, "until": 219.2816420583388}, {"on": false, "note": 69, "velocity": 0, "until": 219.2816420583388}, {"on": false, "note": 76, "velocity": 0, "until": 219.30084186667213}, {"on": true, "note": 71, "velocity": 100, "until": 219.30084186667213}, {"on": true, "note": 74, "velocity": 100, "until": 219.78680075000503}, {"on": false, "note": 74, "velocity": 0, "until": 219.78680075000503}, {"on": false, "note": 71, "velocity": 0, "until": 220.7618233666715}, {"on": true, "note": 74, "velocity": 100, "until": 220.8794703666715}, {"on": false, "note": 74, "velocity": 0, "until": 220.99711736667152}, {"on": true, "note": 74, "velocity": 100, "until": 221.2324748666715}, {"on": false, "note": 74, "velocity": 0, "until": 221.2324748666715}, {"on": true, "note": 79, "velocity": 120, "until": 221.71823936667144}, {"on": false, "note": 79, "velocity": 0, "until": 221.71823936667144}, {"on": true, "note": 78, "velocity": 113, "until": 221.83588636667145}, {"on": false, "note": 78, "velocity": 0, "until": 221.83588636667145}, {"on": true, "note": 76, "velocity": 111, "until": 221.95353336667145}, {"on": false, "note": 76, "velocity": 0, "until": 221.95353336667145}, {"on": true, "note": 74, "velocity": 109, "until": 222.07118036667146}, {"on": false, "note": 74, "velocity": 0, "until": 222.07118036667146}, {"on": true, "note": 72, "velocity": 107, "until": 222.18889086667144}, {"on": false, "note": 72, "velocity": 0, "until": 222.18889086667144}, {"on": true, "note": 71, "velocity": 105, "until": 222.43180486667126}, {"on": false, "note": 71, "velocity": 0, "until": 224.10172286667108}, {"on": true, "note": 72, "velocity": 100, "until": 224.10172286667108}, {"on": true, "note": 62, "velocity": 100, "until": 225.05813886667104}, {"on": false, "note": 62, "velocity": 0, "until": 225.05813886667104}, {"on": false, "note": 72, "velocity": 0, "until": 225.05813886667104}, {"on": true, "note": 71, "velocity": 100, "until": 225.05813886667104}, {"on": true, "note": 67, "velocity": 100, "until": 225.301052866671}, {"on": false, "note": 67, "velocity": 0, "until": 225.301052866671}, {"on": false, "note": 71, "velocity": 0, "until": 227.92738686667062}, {"on": true, "note": 72, "velocity": 100, "until": 228.88380286667055}, {"on": false, "note": 72, "velocity": 0, "until": 228.88380286667055}, {"on": true, "note": 71, "velocity": 100, "until": 229.12697568333718}, {"on": false, "note": 71, "velocity": 0, "until": 229.4005802916705}, {"on": true, "note": 74, "velocity": 100, "until": 229.5768254583372}, {"on": false, "note": 74, "velocity": 0, "until": 229.63046529167053}, {"on": true, "note": 74, "velocity": 100, "until": 229.80671045833722}, {"on": false, "note": 74, "velocity": 0, "until": 229.86043458333725}, {"on": true, "note": 74, "velocity": 100, "until": 230.26843458333727}, {"on": false, "note": 74, "velocity": 0, "until": 230.34034297500392}, {"on": true, "note": 74, "velocity": 100, "until": 230.51591500833726}, {"on": false, "note": 74, "velocity": 0, "until": 230.56934997500392}, {"on": true, "note": 74, "velocity": 100, "until": 230.74492200833726}, {"on": false, "note": 74, "velocity": 0, "until": 230.79847286667058}, {"on": true, "note": 74, "velocity": 100, "until": 231.21142666667052}, {"on": false, "note": 74, "velocity": 0, "until": 231.28418497500385}, {"on": true, "note": 74, "velocity": 100, "until": 231.4597570083372}, {"on": false, "note": 74, "velocity": 0, "until": 231.51319197500385}, {"on": true, "note": 74, "velocity": 100, "until": 231.6887640083372}, {"on": false, "note": 74, "velocity": 0, "until": 231.7423148666705}, {"on": true, "note": 74, "velocity": 100, "until": 232.15526866667045}, {"on": false, "note": 74, "velocity": 0, "until": 232.2280269750038}, {"on": true, "note": 74, "velocity": 100, "until": 232.40359900833712}, {"on": false, "note": 74, "velocity": 0, "until": 232.45703397500378}, {"on": true, "note": 74, "velocity": 100, "until": 232.63260600833712}, {"on": false, "note": 74, "velocity": 0, "until": 232.68611670833712}, {"on": true, "note": 67, "velocity": 100, "until": 232.92508472500384}, {"on": false, "note": 67, "velocity": 0, "until": 236.7764784916706}, {"on": true, "note": 71, "velocity": 100, "until": 236.7764784916706}, {"on": true, "note": 74, "velocity": 100, "until": 237.2721295916706}, {"on": false, "note": 74, "velocity": 0, "until": 237.2721295916706}, {"on": false, "note": 71, "velocity": 0, "until": 237.29823555833727}, {"on": true, "note": 74, "velocity": 100, "until": 237.29823555833727}, {"on": true, "note": 71, "velocity": 100, "until": 237.42981405833729}, {"on": false, "note": 71, "velocity": 0, "until": 237.42981405833729}, {"on": false, "note": 74, "velocity": 0, "until": 237.5613925583373}, {"on": true, "note": 74, "velocity": 100, "until": 237.5613925583373}, {"on": true, "note": 71, "velocity": 100, "until": 237.69297105833732}, {"on": false, "note": 71, "velocity": 0, "until": 237.69297105833732}, {"on": false, "note": 74, "velocity": 0, "until": 237.82455922500398}, {"on": true, "note": 74, "velocity": 100, "until": 237.82455922500398}, {"on": true, "note": 71, "velocity": 100, "until": 238.326761525004}, {"on": false, "note": 71, "velocity": 0, "until": 238.326761525004}, {"on": false, "note": 74, "velocity": 0, "until": 238.35328415833735}, {"on": true, "note": 74, "velocity": 100, "until": 238.35328415833735}, {"on": true, "note": 71, "velocity": 100, "until": 238.49089865833736}, {"on": false, "note": 71, "velocity": 0, "until": 238.49089865833736}, {"on": false, "note": 74, "velocity": 0, "until": 238.62851315833737}, {"on": true, "note": 71, "velocity": 100, "until": 238.62851315833737}, {"on": true, "note": 74, "velocity": 100, "until": 238.76612765833738}, {"on": false, "note": 74, "velocity": 0, "until": 238.76612765833738}, {"on": false, "note": 71, "velocity": 0, "until": 238.9834496583374}, {"on": true, "note": 72, "velocity": 100, "until": 239.39629315833744}, {"on": false, "note": 72, "velocity": 0, "until": 239.53362210833745}, {"on": true, "note": 72, "velocity": 100, "until": 239.8950666083375}, {"on": false, "note": 72, "velocity": 0, "until": 240.01570458333748}, {"on": true, "note": 72, "velocity": 100, "until": 240.5349963666708}, {"on": false, "note": 72, "velocity": 0, "until": 241.00930436667076}, {"on": true, "note": 71, "velocity": 100, "until": 241.00930436667076}, {"on": true, "note": 79, "velocity": 100, "until": 241.12788136667075}, {"on": false, "note": 79, "velocity": 0, "until": 241.12788136667075}, {"on": false, "note": 71, "velocity": 0, "until": 241.24645836667077}, {"on": true, "note": 71, "velocity": 100, "until": 241.24645836667077}, {"on": true, "note": 79, "velocity": 100, "until": 241.36503536667078}, {"on": false, "note": 79, "velocity": 0, "until": 241.36503536667078}, {"on": false, "note": 71, "velocity": 0, "until": 241.4836123666708}, {"on": true, "note": 79, "velocity": 100, "until": 241.4836123666708}, {"on": true, "note": 71, "velocity": 100, "until": 241.60218936667079}, {"on": false, "note": 71, "velocity": 0, "until": 241.60218936667079}, {"on": false, "note": 79, "velocity": 0, "until": 241.7207663666708}, {"on": true, "note": 79, "velocity": 100, "until": 241.7207663666708}, {"on": true, "note": 71, "velocity": 100, "until": 241.83934336667082}, {"on": false, "note": 71, "velocity": 0, "until": 241.83934336667082}, {"on": false, "note": 79, "velocity": 0, "until": 241.95798489167083}, {"on": true, "note": 71, "velocity": 100, "until": 241.95798489167083}, {"on": true, "note": 79, "velocity": 100, "until": 242.4476611583375}, {"on": false, "note": 71, "velocity": 0, "until": 242.5630456583375}, {"on": false, "note": 79, "velocity": 0, "until": 242.5630456583375}, {"on": true, "note": 77, "velocity": 100, "until": 242.6784301583375}, {"on": false, "note": 77, "velocity": 0, "until": 242.6784301583375}, {"on": true, "note": 76, "velocity": 100, "until": 242.7938146583375}, {"on": false, "note": 76, "velocity": 0, "until": 242.7938146583375}, {"on": true, "note": 74, "velocity": 100, "until": 242.90931689167084}, {"on": false, "note": 74, "velocity": 0, "until": 242.90931689167084}, {"on": true, "note": 72, "velocity": 100, "until": 243.27666239167084}, {"on": false, "note": 72, "velocity": 0, "until": 243.3989931583375}, {"on": true, "note": 72, "velocity": 100, "until": 243.74514665833752}, {"on": false, "note": 72, "velocity": 0, "until": 243.86064889167085}, {"on": true, "note": 72, "velocity": 100, "until": 244.35037836667084}, {"on": false, "note": 72, "velocity": 0, "until": 244.8246863666708}, {"on": true, "note": 72, "velocity": 100, "until": 244.8246863666708}, {"on": true, "note": 79, "velocity": 100, "until": 244.9432633666708}, {"on": false, "note": 79, "velocity": 0, "until": 244.9432633666708}, {"on": false, "note": 72, "velocity": 0, "until": 245.06184036667082}, {"on": true, "note": 79, "velocity": 100, "until": 245.06184036667082}, {"on": true, "note": 72, "velocity": 100, "until": 245.18041736667084}, {"on": false, "note": 72, "velocity": 0, "until": 245.18041736667084}, {"on": false, "note": 79, "velocity": 0, "until": 245.29899436667085}, {"on": true, "note": 79, "velocity": 100, "until": 245.29899436667085}, {"on": true, "note": 71, "velocity": 100, "until": 245.41757136667087}, {"on": false, "note": 71, "velocity": 0, "until": 245.41757136667087}, {"on": false, "note": 79, "velocity": 0, "until": 245.5361483666709}, {"on": true, "note": 71, "velocity": 100, "until": 245.5361483666709}, {"on": true, "note": 79, "velocity": 100, "until": 245.6547253666709}, {"on": false, "note": 79, "velocity": 0, "until": 245.6547253666709}, {"on": false, "note": 71, "velocity": 0, "until": 245.77336689167092}, {"on": true, "note": 79, "velocity": 100, "until": 245.77336689167092}, {"on": true, "note": 72, "velocity": 100, "until": 246.01826389167093}, {"on": false, "note": 72, "velocity": 0, "until": 246.01826389167093}, {"on": false, "note": 79, "velocity": 0, "until": 246.72469889167112}, {"on": true, "note": 76, "velocity": 90, "until": 246.72469889167112}, {"on": true, "note": 79, "velocity": 100, "until": 247.21437515833782}, {"on": false, "note": 79, "velocity": 0, "until": 247.21437515833782}, {"on": false, "note": 76, "velocity": 0, "until": 247.21437515833782}, {"on": true, "note": 75, "velocity": 90, "until": 247.21437515833782}, {"on": true, "note": 78, "velocity": 100, "until": 247.44514415833783}, {"on": false, "note": 78, "velocity": 0, "until": 247.44514415833783}, {"on": true, "note": 79, "velocity": 100, "until": 247.56052865833783}, {"on": false, "note": 79, "velocity": 0, "until": 247.56052865833783}, {"on": true, "note": 81, "velocity": 100, "until": 247.6760308916712}, {"on": false, "note": 81, "velocity": 0, "until": 247.6760308916712}, {"on": false, "note": 75, "velocity": 0, "until": 247.6760308916712}, {"on": true, "note": 79, "velocity": 100, "until": 247.6760308916712}, {"on": true, "note": 76, "velocity": 90, "until": 248.16570715833785}, {"on": false, "note": 76, "velocity": 0, "until": 248.16570715833785}, {"on": false, "note": 79, "velocity": 0, "until": 248.86732208333788}, {"on": true, "note": 79, "velocity": 100, "until": 248.9873220833379}, {"on": false, "note": 79, "velocity": 0, "until": 249.1073220833379}, {"on": true, "note": 79, "velocity": 100, "until": 249.2273220833379}, {"on": false, "note": 79, "velocity": 0, "until": 249.3473220833379}, {"on": true, "note": 79, "velocity": 100, "until": 249.4673220833379}, {"on": false, "note": 79, "velocity": 0, "until": 249.5873220833379}, {"on": true, "note": 79, "velocity": 100, "until": 249.8273220833379}, {"on": false, "note": 79, "velocity": 0, "until": 250.528900891671}, {"on": true, "note": 76, "velocity": 90, "until": 250.528900891671}, {"on": true, "note": 79, "velocity": 100, "until": 251.01857715833765}, {"on": false, "note": 79, "velocity": 0, "until": 251.01857715833765}, {"on": false, "note": 76, "velocity": 0, "until": 251.01857715833765}, {"on": true, "note": 75, "velocity": 90, "until": 251.01857715833765}, {"on": true, "note": 78, "velocity": 100, "until": 251.24934615833766}, {"on": false, "note": 78, "velocity": 0, "until": 251.24934615833766}, {"on": true, "note": 79, "velocity": 100, "until": 251.36473065833766}, {"on": false, "note": 79, "velocity": 0, "until": 251.36473065833766}, {"on": true, "note": 81, "velocity": 100, "until": 251.480232891671}, {"on": false, "note": 81, "velocity": 0, "until": 251.480232891671}, {"on": false, "note": 75, "velocity": 0, "until": 251.480232891671}, {"on": true, "note": 76, "velocity": 90, "until": 251.480232891671}, {"on": true, "note": 79, "velocity": 100, "until": 251.96990915833766}, {"on": false, "note": 79, "velocity": 0, "until": 251.96990915833766}, {"on": false, "note": 76, "velocity": 0, "until": 252.43149258333767}, {"on": true, "note": 71, "velocity": 100, "until": 252.43149258333767}, {"on": true, "note": 80, "velocity": 100, "until": 252.5496025833377}, {"on": false, "note": 80, "velocity": 0, "until": 252.5496025833377}, {"on": false, "note": 71, "velocity": 0, "until": 252.66771258333773}, {"on": true, "note": 72, "velocity": 100, "until": 252.66771258333773}, {"on": true, "note": 81, "velocity": 100, "until": 252.78582258333776}, {"on": false, "note": 81, "velocity": 0, "until": 252.78582258333776}, {"on": false, "note": 72, "velocity": 0, "until": 252.9039325833378}, {"on": true, "note": 80, "velocity": 100, "until": 252.9039325833378}, {"on": true, "note": 71, "velocity": 100, "until": 253.02204258333782}, {"on": false, "note": 71, "velocity": 0, "until": 253.02204258333782}, {"on": false, "note": 80, "velocity": 0, "until": 253.14015258333785}, {"on": true, "note": 72, "velocity": 100, "until": 253.14015258333785}, {"on": true, "note": 81, "velocity": 100, "until": 253.25826258333788}, {"on": false, "note": 81, "velocity": 0, "until": 253.25826258333788}, {"on": false, "note": 72, "velocity": 0, "until": 253.3763725833379}, {"on": true, "note": 71, "velocity": 100, "until": 253.3763725833379}, {"on": true, "note": 80, "velocity": 100, "until": 253.8487671583383}, {"on": false, "note": 80, "velocity": 0, "until": 253.8487671583383}, {"on": false, "note": 71, "velocity": 0, "until": 254.3574308916716}, {"on": true, "note": 77, "velocity": 100, "until": 254.47987939167163}, {"on": false, "note": 77, "velocity": 0, "until": 254.60232789167162}, {"on": true, "note": 76, "velocity": 100, "until": 254.7247763916716}, {"on": false, "note": 76, "velocity": 0, "until": 254.84710715833828}, {"on": true, "note": 77, "velocity": 100, "until": 254.96249165833828}, {"on": false, "note": 77, "velocity": 0, "until": 255.07787615833828}, {"on": true, "note": 76, "velocity": 100, "until": 255.1932606583383}, {"on": false, "note": 76, "velocity": 0, "until": 255.30876289167162}, {"on": true, "note": 77, "velocity": 100, "until": 255.55365989167166}, {"on": false, "note": 77, "velocity": 0, "until": 256.26009489167166}, {"on": true, "note": 76, "velocity": 100, "until": 256.3825433916717}, {"on": false, "note": 76, "velocity": 0, "until": 256.5049918916717}, {"on": true, "note": 75, "velocity": 100, "until": 256.6274403916717}, {"on": false, "note": 75, "velocity": 0, "until": 256.7497711583384}, {"on": true, "note": 76, "velocity": 100, "until": 256.8651556583384}, {"on": false, "note": 76, "velocity": 0, "until": 256.9805401583384}, {"on": true, "note": 75, "velocity": 100, "until": 257.0959246583384}, {"on": false, "note": 75, "velocity": 0, "until": 257.21142689167175}, {"on": true, "note": 76, "velocity": 100, "until": 257.4563238916718}, {"on": false, "note": 76, "velocity": 0, "until": 258.1627588916713}, {"on": true, "note": 79, "velocity": 100, "until": 258.1627588916713}, {"on": true, "note": 83, "velocity": 100, "until": 258.2852073916713}, {"on": false, "note": 83, "velocity": 0, "until": 258.2852073916713}, {"on": false, "note": 79, "velocity": 0, "until": 258.4076558916713}, {"on": true, "note": 83, "velocity": 100, "until": 258.4076558916713}, {"on": true, "note": 79, "velocity": 100, "until": 258.8832041583378}, {"on": false, "note": 83, "velocity": 0, "until": 258.8832041583378}, {"on": true, "note": 84, "velocity": 100, "until": 259.1140908916711}, {"on": false, "note": 84, "velocity": 0, "until": 259.1140908916711}, {"on": false, "note": 79, "velocity": 0, "until": 259.1140908916711}, {"on": true, "note": 79, "velocity": 100, "until": 259.1140908916711}, {"on": true, "note": 86, "velocity": 100, "until": 259.2365393916711}, {"on": false, "note": 86, "velocity": 0, "until": 259.2365393916711}, {"on": false, "note": 79, "velocity": 0, "until": 259.3589878916711}, {"on": true, "note": 79, "velocity": 100, "until": 259.3589878916711}, {"on": true, "note": 83, "velocity": 100, "until": 259.8345361583376}, {"on": false, "note": 83, "velocity": 0, "until": 259.8345361583376}, {"on": true, "note": 84, "velocity": 100, "until": 260.0654228916709}, {"on": false, "note": 84, "velocity": 0, "until": 260.0654228916709}, {"on": false, "note": 79, "velocity": 0, "until": 260.0654228916709}, {"on": true, "note": 79, "velocity": 100, "until": 260.0654228916709}, {"on": true, "note": 86, "velocity": 100, "until": 260.1878713916709}, {"on": false, "note": 86, "velocity": 0, "until": 260.1878713916709}, {"on": false, "note": 79, "velocity": 0, "until": 260.31031989167093}, {"on": true, "note": 79, "velocity": 100, "until": 260.31031989167093}, {"on": true, "note": 83, "velocity": 100, "until": 260.7858681583374}, {"on": false, "note": 83, "velocity": 0, "until": 260.7858681583374}, {"on": true, "note": 84, "velocity": 100, "until": 261.0167548916707}, {"on": false, "note": 84, "velocity": 0, "until": 261.0167548916707}, {"on": false, "note": 79, "velocity": 0, "until": 261.0167548916707}, {"on": true, "note": 79, "velocity": 100, "until": 261.63863460833755}, {"on": false, "note": 79, "velocity": 0, "until": 261.63863460833755}, {"on": true, "note": 77, "velocity": 100, "until": 261.75857954167094}, {"on": false, "note": 77, "velocity": 0, "until": 261.75857954167094}, {"on": true, "note": 76, "velocity": 100, "until": 261.90350704167093}, {"on": false, "note": 76, "velocity": 0, "until": 261.90350704167093}, {"on": true, "note": 74, "velocity": 100, "until": 262.0480598916709}, {"on": false, "note": 74, "velocity": 0, "until": 262.0480598916709}, {"on": true, "note": 72, "velocity": 100, "until": 262.52764985000425}, {"on": false, "note": 72, "velocity": 0, "until": 262.53773615833757}, {"on": true, "note": 72, "velocity": 100, "until": 262.9896587833375}, {"on": false, "note": 72, "velocity": 0, "until": 262.9993918916708}, {"on": true, "note": 72, "velocity": 100, "until": 263.4789818500042}, {"on": false, "note": 72, "velocity": 0, "until": 263.9506751083375}, {"on": true, "note": 71, "velocity": 100, "until": 263.9506751083375}, {"on": true, "note": 79, "velocity": 100, "until": 264.0701966083375}, {"on": false, "note": 79, "velocity": 0, "until": 264.0701966083375}, {"on": false, "note": 71, "velocity": 0, "until": 264.18971810833744}, {"on": true, "note": 79, "velocity": 100, "until": 264.18971810833744}, {"on": true, "note": 71, "velocity": 100, "until": 264.3092396083374}, {"on": false, "note": 71, "velocity": 0, "until": 264.3092396083374}, {"on": false, "note": 79, "velocity": 0, "until": 264.42876110833737}, {"on": true, "note": 71, "velocity": 100, "until": 264.42876110833737}, {"on": true, "note": 79, "velocity": 100, "until": 264.54828260833733}, {"on": false, "note": 79, "velocity": 0, "until": 264.54828260833733}, {"on": false, "note": 71, "velocity": 0, "until": 264.6678041083373}, {"on": true, "note": 79, "velocity": 100, "until": 264.6678041083373}, {"on": true, "note": 71, "velocity": 100, "until": 264.78732560833726}, {"on": false, "note": 71, "velocity": 0, "until": 264.78732560833726}, {"on": false, "note": 79, "velocity": 0, "until": 264.9068471083372}, {"on": true, "note": 71, "velocity": 100, "until": 264.9068471083372}, {"on": true, "note": 79, "velocity": 100, "until": 265.38486415833717}, {"on": false, "note": 79, "velocity": 0, "until": 265.38486415833717}, {"on": false, "note": 71, "velocity": 0, "until": 265.6156331583371}, {"on": true, "note": 70, "velocity": 100, "until": 265.6156331583371}, {"on": true, "note": 79, "velocity": 100, "until": 265.73101765833707}, {"on": false, "note": 79, "velocity": 0, "until": 265.73101765833707}, {"on": false, "note": 70, "velocity": 0, "until": 265.846479083337}, {"on": true, "note": 77, "velocity": 100, "until": 265.846479083337}, {"on": true, "note": 69, "velocity": 100, "until": 265.96647908333705}, {"on": false, "note": 69, "velocity": 0, "until": 265.96647908333705}, {"on": false, "note": 77, "velocity": 0, "until": 266.0864790833371}, {"on": true, "note": 70, "velocity": 100, "until": 266.0864790833371}, {"on": true, "note": 79, "velocity": 100, "until": 266.2064790833372}, {"on": false, "note": 79, "velocity": 0, "until": 266.2064790833372}, {"on": false, "note": 70, "velocity": 0, "until": 266.32647908333723}, {"on": true, "note": 77, "velocity": 100, "until": 266.32647908333723}, {"on": true, "note": 69, "velocity": 100, "until": 266.4464790833373}, {"on": false, "note": 69, "velocity": 0, "until": 266.4464790833373}, {"on": false, "note": 77, "velocity": 0, "until": 266.56647908333736}, {"on": true, "note": 79, "velocity": 100, "until": 266.56647908333736}, {"on": true, "note": 70, "velocity": 100, "until": 266.6864790833374}, {"on": false, "note": 70, "velocity": 0, "until": 266.6864790833374}, {"on": false, "note": 79, "velocity": 0, "until": 266.8064790833375}, {"on": true, "note": 77, "velocity": 100, "until": 266.8064790833375}, {"on": true, "note": 69, "velocity": 100, "until": 267.2864021583384}, {"on": false, "note": 69, "velocity": 0, "until": 267.2864021583384}, {"on": false, "note": 77, "velocity": 0, "until": 267.51717115833833}, {"on": true, "note": 76, "velocity": 100, "until": 267.51717115833833}, {"on": true, "note": 71, "velocity": 100, "until": 267.6325556583383}, {"on": false, "note": 71, "velocity": 0, "until": 267.6325556583383}, {"on": false, "note": 76, "velocity": 0, "until": 267.74799336667155}, {"on": true, "note": 72, "velocity": 100, "until": 267.74799336667155}, {"on": true, "note": 76, "velocity": 100, "until": 267.8665703666715}, {"on": false, "note": 76, "velocity": 0, "until": 267.8665703666715}, {"on": false, "note": 72, "velocity": 0, "until": 267.98514736667147}, {"on": true, "note": 71, "velocity": 100, "until": 267.98514736667147}, {"on": true, "note": 76, "velocity": 100, "until": 268.10372436667143}, {"on": false, "note": 76, "velocity": 0, "until": 268.10372436667143}, {"on": false, "note": 71, "velocity": 0, "until": 268.2223013666714}, {"on": true, "note": 76, "velocity": 100, "until": 268.2223013666714}, {"on": true, "note": 72, "velocity": 100, "until": 268.34087836667135}, {"on": false, "note": 72, "velocity": 0, "until": 268.34087836667135}, {"on": false, "note": 76, "velocity": 0, "until": 268.4594553666713}, {"on": true, "note": 71, "velocity": 100, "until": 268.4594553666713}, {"on": true, "note": 76, "velocity": 100, "until": 268.57803236667127}, {"on": false, "note": 76, "velocity": 0, "until": 268.57803236667127}, {"on": false, "note": 71, "velocity": 0, "until": 268.6966093666712}, {"on": true, "note": 76, "velocity": 100, "until": 268.6966093666712}, {"on": true, "note": 72, "velocity": 100, "until": 269.17086415833785}, {"on": false, "note": 72, "velocity": 0, "until": 269.17086415833785}, {"on": false, "note": 76, "velocity": 0, "until": 269.4016331583378}, {"on": true, "note": 79, "velocity": 100, "until": 269.4016331583378}, {"on": true, "note": 74, "velocity": 100, "until": 269.51701765833775}, {"on": false, "note": 74, "velocity": 0, "until": 269.51701765833775}, {"on": false, "note": 79, "velocity": 0, "until": 269.63244758333764}, {"on": true, "note": 79, "velocity": 100, "until": 269.63244758333764}, {"on": true, "note": 76, "velocity": 100, "until": 269.7505575833375}, {"on": false, "note": 76, "velocity": 0, "until": 269.7505575833375}, {"on": false, "note": 79, "velocity": 0, "until": 269.8686675833374}, {"on": true, "note": 79, "velocity": 100, "until": 269.8686675833374}, {"on": true, "note": 74, "velocity": 100, "until": 269.9867775833373}, {"on": false, "note": 74, "velocity": 0, "until": 269.9867775833373}, {"on": false, "note": 79, "velocity": 0, "until": 270.1048875833372}, {"on": true, "note": 76, "velocity": 100, "until": 270.1048875833372}, {"on": true, "note": 79, "velocity": 100, "until": 270.2229975833371}, {"on": false, "note": 79, "velocity": 0, "until": 270.2229975833371}, {"on": false, "note": 76, "velocity": 0, "until": 270.34110758333696}, {"on": true, "note": 74, "velocity": 100, "until": 270.34110758333696}, {"on": true, "note": 79, "velocity": 100, "until": 270.45921758333685}, {"on": false, "note": 79, "velocity": 0, "until": 270.45921758333685}, {"on": false, "note": 74, "velocity": 0, "until": 270.57732758333674}, {"on": true, "note": 76, "velocity": 100, "until": 270.57732758333674}, {"on": true, "note": 79, "velocity": 100, "until": 270.81354758333663}, {"on": false, "note": 79, "velocity": 0, "until": 270.81354758333663}, {"on": false, "note": 76, "velocity": 0, "until": 271.0497221583365}, {"on": true, "note": 79, "velocity": 100, "until": 271.0497221583365}, {"on": true, "note": 74, "velocity": 100, "until": 271.49202940833624}, {"on": false, "note": 74, "velocity": 0, "until": 271.49202940833624}, {"on": false, "note": 79, "velocity": 0, "until": 271.51137789166955}, {"on": true, "note": 73, "velocity": 100, "until": 271.51137789166955}, {"on": true, "note": 79, "velocity": 100, "until": 271.98076380833623}, {"on": false, "note": 79, "velocity": 0, "until": 271.98076380833623}, {"on": false, "note": 73, "velocity": 0, "until": 272.0010541583362}, {"on": true, "note": 74, "velocity": 100, "until": 272.0010541583362}, {"on": true, "note": 72, "velocity": 100, "until": 272.44336140833593}, {"on": false, "note": 72, "velocity": 0, "until": 272.44336140833593}, {"on": false, "note": 74, "velocity": 0, "until": 272.46270989166925}, {"on": true, "note": 71, "velocity": 100, "until": 272.46270989166925}, {"on": true, "note": 74, "velocity": 100, "until": 272.93209580833593}, {"on": false, "note": 74, "velocity": 0, "until": 272.93209580833593}, {"on": false, "note": 71, "velocity": 0, "until": 272.9523861583359}, {"on": true, "note": 74, "velocity": 100, "until": 272.9523861583359}, {"on": true, "note": 70, "velocity": 100, "until": 273.3946934083356}, {"on": false, "note": 70, "velocity": 0, "until": 273.3946934083356}, {"on": false, "note": 74, "velocity": 0, "until": 273.41404189166894}, {"on": true, "note": 75, "velocity": 100, "until": 273.41404189166894}, {"on": true, "note": 68, "velocity": 100, "until": 273.658938891669}, {"on": false, "note": 75, "velocity": 0, "until": 273.658938891669}, {"on": true, "note": 72, "velocity": 115, "until": 273.781387391669}, {"on": false, "note": 72, "velocity": 0, "until": 273.781387391669}, {"on": true, "note": 74, "velocity": 115, "until": 273.89363185000235}, {"on": false, "note": 74, "velocity": 0, "until": 273.90371815833566}, {"on": true, "note": 75, "velocity": 100, "until": 274.1344871583356}, {"on": false, "note": 68, "velocity": 0, "until": 274.1344871583356}, {"on": true, "note": 67, "velocity": 100, "until": 274.3210254333356}, {"on": false, "note": 67, "velocity": 0, "until": 274.3653738916689}, {"on": true, "note": 68, "velocity": 100, "until": 274.5898628083356}, {"on": false, "note": 75, "velocity": 0, "until": 274.61027089166896}, {"on": true, "note": 72, "velocity": 115, "until": 274.732719391669}, {"on": false, "note": 72, "velocity": 0, "until": 274.732719391669}, {"on": true, "note": 74, "velocity": 115, "until": 274.84496385000233}, {"on": false, "note": 74, "velocity": 0, "until": 274.85505015833564}, {"on": true, "note": 75, "velocity": 100, "until": 275.08581915833514}, {"on": false, "note": 68, "velocity": 0, "until": 275.08581915833514}, {"on": true, "note": 67, "velocity": 100, "until": 275.2723574333351}, {"on": false, "note": 67, "velocity": 0, "until": 275.31670589166845}, {"on": false, "note": 75, "velocity": 0, "until": 275.31670589166845}, {"on": true, "note": 75, "velocity": 100, "until": 275.31670589166845}, {"on": true, "note": 68, "velocity": 100, "until": 275.5616028916685}, {"on": false, "note": 68, "velocity": 0, "until": 275.5616028916685}, {"on": true, "note": 67, "velocity": 100, "until": 275.7860918083352}, {"on": false, "note": 67, "velocity": 0, "until": 275.7860918083352}, {"on": false, "note": 75, "velocity": 0, "until": 275.80638215833517}, {"on": true, "note": 75, "velocity": 100, "until": 275.80638215833517}, {"on": true, "note": 68, "velocity": 100, "until": 276.03715115833484}, {"on": false, "note": 68, "velocity": 0, "until": 276.03715115833484}, {"on": true, "note": 67, "velocity": 100, "until": 276.24868940833477}, {"on": false, "note": 67, "velocity": 0, "until": 276.24868940833477}, {"on": false, "note": 75, "velocity": 0, "until": 276.2680378916681}, {"on": true, "note": 75, "velocity": 100, "until": 276.2680378916681}, {"on": true, "note": 68, "velocity": 100, "until": 276.5129348916681}, {"on": false, "note": 68, "velocity": 0, "until": 276.5129348916681}, {"on": true, "note": 67, "velocity": 100, "until": 276.7374238083348}, {"on": false, "note": 67, "velocity": 0, "until": 276.7374238083348}, {"on": false, "note": 75, "velocity": 0, "until": 276.7577141583348}, {"on": true, "note": 68, "velocity": 100, "until": 276.7577141583348}, {"on": true, "note": 75, "velocity": 100, "until": 276.9884831583345}, {"on": false, "note": 68, "velocity": 0, "until": 276.9884831583345}, {"on": true, "note": 67, "velocity": 100, "until": 277.2000214083344}, {"on": false, "note": 67, "velocity": 0, "until": 277.2000214083344}, {"on": false, "note": 75, "velocity": 0, "until": 277.2193698916677}, {"on": true, "note": 82, "velocity": 100, "until": 277.2193698916677}, {"on": true, "note": 73, "velocity": 100, "until": 277.46426689166776}, {"on": false, "note": 82, "velocity": 0, "until": 277.46426689166776}, {"on": true, "note": 79, "velocity": 115, "until": 277.5867153916678}, {"on": false, "note": 79, "velocity": 0, "until": 277.5867153916678}, {"on": true, "note": 81, "velocity": 115, "until": 277.69895985000113}, {"on": false, "note": 81, "velocity": 0, "until": 277.70904615833444}, {"on": true, "note": 82, "velocity": 100, "until": 277.93981515833394}, {"on": false, "note": 73, "velocity": 0, "until": 277.93981515833394}, {"on": true, "note": 74, "velocity": 100, "until": 278.1263534333339}, {"on": false, "note": 74, "velocity": 0, "until": 278.1707018916672}, {"on": true, "note": 73, "velocity": 100, "until": 278.3951908083339}, {"on": false, "note": 82, "velocity": 0, "until": 278.41559889166723}, {"on": true, "note": 79, "velocity": 115, "until": 278.53804739166725}, {"on": false, "note": 79, "velocity": 0, "until": 278.53804739166725}, {"on": true, "note": 81, "velocity": 115, "until": 278.6502918500006}, {"on": false, "note": 81, "velocity": 0, "until": 278.6603781583339}, {"on": true, "note": 82, "velocity": 100, "until": 278.8911471583334}, {"on": false, "note": 73, "velocity": 0, "until": 278.8911471583334}, {"on": true, "note": 74, "velocity": 100, "until": 279.0776854333334}, {"on": false, "note": 74, "velocity": 0, "until": 279.12203389166666}, {"on": true, "note": 73, "velocity": 100, "until": 279.34652280833336}, {"on": false, "note": 82, "velocity": 0, "until": 279.3669308916667}, {"on": false, "note": 73, "velocity": 0, "until": 279.3669308916667}, {"on": true, "note": 74, "velocity": 100, "until": 279.3669308916667}, {"on": true, "note": 79, "velocity": 115, "until": 279.4893793916667}, {"on": false, "note": 79, "velocity": 0, "until": 279.4893793916667}, {"on": true, "note": 81, "velocity": 115, "until": 279.5914198083334}, {"on": false, "note": 74, "velocity": 0, "until": 279.60162385000007}, {"on": false, "note": 81, "velocity": 0, "until": 279.6117101583334}, {"on": true, "note": 73, "velocity": 100, "until": 279.6117101583334}, {"on": true, "note": 82, "velocity": 100, "until": 279.842479158333}, {"on": false, "note": 82, "velocity": 0, "until": 279.842479158333}, {"on": false, "note": 73, "velocity": 0, "until": 279.842479158333}, {"on": true, "note": 74, "velocity": 100, "until": 279.842479158333}, {"on": true, "note": 79, "velocity": 100, "until": 279.9578636583329}, {"on": false, "note": 79, "velocity": 0, "until": 279.9578636583329}, {"on": true, "note": 81, "velocity": 100, "until": 280.05401740833287}, {"on": false, "note": 74, "velocity": 0, "until": 280.0636327833328}, {"on": false, "note": 81, "velocity": 0, "until": 280.0733658916661}, {"on": true, "note": 82, "velocity": 100, "until": 280.0733658916661}, {"on": true, "note": 73, "velocity": 100, "until": 280.31826289166617}, {"on": false, "note": 73, "velocity": 0, "until": 280.31826289166617}, {"on": false, "note": 82, "velocity": 0, "until": 280.31826289166617}, {"on": true, "note": 74, "velocity": 100, "until": 280.31826289166617}, {"on": true, "note": 79, "velocity": 100, "until": 280.4407113916662}, {"on": false, "note": 79, "velocity": 0, "until": 280.4407113916662}, {"on": true, "note": 81, "velocity": 100, "until": 280.54275180833287}, {"on": false, "note": 74, "velocity": 0, "until": 280.55295584999953}, {"on": false, "note": 81, "velocity": 0, "until": 280.56304215833285}, {"on": true, "note": 82, "velocity": 100, "until": 280.56304215833285}, {"on": true, "note": 73, "velocity": 100, "until": 280.7938111583325}, {"on": false, "note": 82, "velocity": 0, "until": 280.7938111583325}, {"on": true, "note": 79, "velocity": 100, "until": 280.90919565833246}, {"on": false, "note": 79, "velocity": 0, "until": 280.90919565833246}, {"on": true, "note": 81, "velocity": 100, "until": 281.0149647833324}, {"on": false, "note": 81, "velocity": 0, "until": 281.0246978916657}, {"on": false, "note": 73, "velocity": 0, "until": 281.0246978916657}, {"on": true, "note": 74, "velocity": 100, "until": 281.0246978916657}, {"on": true, "note": 78, "velocity": 100, "until": 281.26959489166575}, {"on": false, "note": 74, "velocity": 0, "until": 281.7506395833323}, {"on": false, "note": 78, "velocity": 0, "until": 281.7506395833323}, {"on": true, "note": 79, "velocity": 100, "until": 281.98696576666555}, {"on": false, "note": 79, "velocity": 0, "until": 281.98696576666555}, {"on": true, "note": 78, "velocity": 100, "until": 282.7238501083322}, {"on": false, "note": 78, "velocity": 0, "until": 282.7238501083322}, {"on": true, "note": 79, "velocity": 100, "until": 282.96298441666556}, {"on": false, "note": 79, "velocity": 0, "until": 282.96298441666556}, {"on": true, "note": 78, "velocity": 100, "until": 283.21298441666556}, {"on": false, "note": 78, "velocity": 0, "until": 283.21298441666556}, {"on": true, "note": 79, "velocity": 100, "until": 283.46291720833227}, {"on": false, "note": 79, "velocity": 0, "until": 283.46291720833227}, {"on": true, "note": 78, "velocity": 100, "until": 283.7048522083322}, {"on": false, "note": 78, "velocity": 0, "until": 283.7048522083322}, {"on": true, "note": 76, "velocity": 100, "until": 283.94681189166556}, {"on": false, "note": 76, "velocity": 0, "until": 283.94681189166556}, {"on": true, "note": 74, "velocity": 100, "until": 284.1917088916656}, {"on": false, "note": 74, "velocity": 0, "until": 284.1917088916656}, {"on": true, "note": 76, "velocity": 100, "until": 284.43662269166566}, {"on": false, "note": 76, "velocity": 0, "until": 284.43662269166566}, {"on": true, "note": 74, "velocity": 100, "until": 284.6835356916657}, {"on": false, "note": 74, "velocity": 0, "until": 284.6835356916657}, {"on": true, "note": 72, "velocity": 100, "until": 284.9304831333325}, {"on": false, "note": 72, "velocity": 0, "until": 284.9304831333325}, {"on": true, "note": 71, "velocity": 100, "until": 285.18152913333233}, {"on": false, "note": 71, "velocity": 0, "until": 293.115716833331}, {"on": true, "note": 62, "velocity": 110, "until": 293.243921833331}, {"on": false, "note": 62, "velocity": 0, "until": 293.37203089166434}, {"on": true, "note": 67, "velocity": 110, "until": 294.11833083333096}, {"on": false, "note": 67, "velocity": 0, "until": 294.11833083333096}, {"on": true, "note": 62, "velocity": 110, "until": 294.24653583333094}, {"on": false, "note": 62, "velocity": 0, "until": 294.3746448916643}, {"on": true, "note": 70, "velocity": 110, "until": 295.1209448333309}, {"on": false, "note": 70, "velocity": 0, "until": 295.1209448333309}, {"on": true, "note": 67, "velocity": 110, "until": 295.2491498333309}, {"on": false, "note": 67, "velocity": 0, "until": 295.3772588916642}, {"on": true, "note": 75, "velocity": 110, "until": 296.12355883333083}, {"on": false, "note": 75, "velocity": 0, "until": 296.12355883333083}, {"on": true, "note": 70, "velocity": 110, "until": 296.2517638333308}, {"on": false, "note": 70, "velocity": 0, "until": 296.37987289166415}, {"on": true, "note": 79, "velocity": 110, "until": 296.86976283333087}, {"on": false, "note": 79, "velocity": 0, "until": 296.86976283333087}, {"on": true, "note": 77, "velocity": 100, "until": 297.25437783333075}, {"on": false, "note": 77, "velocity": 0, "until": 297.25437783333075}, {"on": true, "note": 79, "velocity": 100, "until": 297.3824868916641}, {"on": false, "note": 79, "velocity": 0, "until": 297.3824868916641}, {"on": true, "note": 77, "velocity": 100, "until": 297.62738389166407}, {"on": false, "note": 77, "velocity": 0, "until": 297.62738389166407}, {"on": true, "note": 75, "velocity": 100, "until": 297.7498323916641}, {"on": false, "note": 75, "velocity": 0, "until": 297.87237683333075}, {"on": true, "note": 74, "velocity": 100, "until": 298.0005818333307}, {"on": false, "note": 74, "velocity": 0, "until": 298.0005818333307}, {"on": true, "note": 75, "velocity": 100, "until": 298.1287868333307}, {"on": false, "note": 75, "velocity": 0, "until": 298.1287868333307}, {"on": true, "note": 74, "velocity": 100, "until": 298.2569918333307}, {"on": false, "note": 74, "velocity": 0, "until": 298.2569918333307}, {"on": true, "note": 72, "velocity": 100, "until": 298.385100891664}, {"on": false, "note": 72, "velocity": 0, "until": 298.385100891664}, {"on": true, "note": 74, "velocity": 100, "until": 298.45448837499737}, {"on": false, "note": 74, "velocity": 0, "until": 298.62999789166406}, {"on": true, "note": 82, "velocity": 100, "until": 298.6993853749974}, {"on": false, "note": 82, "velocity": 0, "until": 298.87499083333074}, {"on": true, "note": 77, "velocity": 100, "until": 299.2596058333307}, {"on": false, "note": 77, "velocity": 0, "until": 299.2596058333307}, {"on": true, "note": 79, "velocity": 100, "until": 299.387714891664}, {"on": false, "note": 79, "velocity": 0, "until": 299.387714891664}, {"on": true, "note": 77, "velocity": 100, "until": 299.632611891664}, {"on": false, "note": 77, "velocity": 0, "until": 299.632611891664}, {"on": true, "note": 75, "velocity": 100, "until": 299.755060391664}, {"on": false, "note": 75, "velocity": 0, "until": 299.8776048333307}, {"on": true, "note": 74, "velocity": 100, "until": 300.00580983333066}, {"on": false, "note": 74, "velocity": 0, "until": 300.00580983333066}, {"on": true, "note": 75, "velocity": 100, "until": 300.13401483333064}, {"on": false, "note": 75, "velocity": 0, "until": 300.13401483333064}, {"on": true, "note": 74, "velocity": 100, "until": 300.2622198333306}, {"on": false, "note": 74, "velocity": 0, "until": 300.2622198333306}, {"on": true, "note": 72, "velocity": 100, "until": 300.39032889166396}, {"on": false, "note": 72, "velocity": 0, "until": 300.39032889166396}, {"on": true, "note": 70, "velocity": 100, "until": 300.6354578083306}, {"on": false, "note": 70, "velocity": 0, "until": 300.9080041333306}, {"on": true, "note": 74, "velocity": 100, "until": 301.41002020833}, {"on": false, "note": 74, "velocity": 0, "until": 301.65195520833015}, {"on": true, "note": 66, "velocity": 100, "until": 301.65195520833015}, {"on": true, "note": 69, "velocity": 100, "until": 301.7729227083302}, {"on": false, "note": 69, "velocity": 0, "until": 301.7729227083302}, {"on": false, "note": 66, "velocity": 0, "until": 301.89396613333025}, {"on": true, "note": 70, "velocity": 100, "until": 301.89396613333025}, {"on": true, "note": 67, "velocity": 100, "until": 302.0194891333302}, {"on": false, "note": 67, "velocity": 0, "until": 302.0194891333302}, {"on": false, "note": 70, "velocity": 0, "until": 302.14501213333006}, {"on": true, "note": 72, "velocity": 100, "until": 302.14501213333006}, {"on": true, "note": 69, "velocity": 100, "until": 302.27053513333}, {"on": false, "note": 69, "velocity": 0, "until": 302.27053513333}, {"on": false, "note": 72, "velocity": 0, "until": 302.39598220832994}, {"on": true, "note": 74, "velocity": 100, "until": 302.39598220832994}, {"on": true, "note": 70, "velocity": 100, "until": 302.51694970833}, {"on": false, "note": 70, "velocity": 0, "until": 302.51694970833}, {"on": false, "note": 74, "velocity": 0, "until": 304.85182619166335}, {"on": true, "note": 74, "velocity": 100, "until": 305.34760236666364}, {"on": false, "note": 74, "velocity": 0, "until": 305.5847563666635}, {"on": true, "note": 66, "velocity": 100, "until": 305.5847563666635}, {"on": true, "note": 69, "velocity": 100, "until": 305.70333336666346}, {"on": false, "note": 69, "velocity": 0, "until": 305.70333336666346}, {"on": false, "note": 66, "velocity": 0, "until": 305.82200019166345}, {"on": true, "note": 70, "velocity": 100, "until": 305.82200019166345}, {"on": true, "note": 67, "velocity": 100, "until": 305.9459666916635}, {"on": false, "note": 67, "velocity": 0, "until": 305.9459666916635}, {"on": false, "note": 70, "velocity": 0, "until": 306.06993319166355}, {"on": true, "note": 72, "velocity": 100, "until": 306.06993319166355}, {"on": true, "note": 69, "velocity": 100, "until": 306.1938996916636}, {"on": false, "note": 69, "velocity": 0, "until": 306.1938996916636}, {"on": false, "note": 72, "velocity": 0, "until": 306.3177763666636}, {"on": true, "note": 74, "velocity": 100, "until": 306.3177763666636}, {"on": true, "note": 70, "velocity": 100, "until": 306.4363533666636}, {"on": false, "note": 70, "velocity": 0, "until": 306.4363533666636}, {"on": false, "note": 74, "velocity": 0, "until": 306.79217419166355}, {"on": true, "note": 65, "velocity": 100, "until": 306.79217419166355}, {"on": true, "note": 72, "velocity": 100, "until": 307.5251043666637}, {"on": false, "note": 72, "velocity": 0, "until": 307.5251043666637}, {"on": false, "note": 65, "velocity": 0, "until": 307.5251043666637}, {"on": true, "note": 72, "velocity": 100, "until": 307.5251043666637}, {"on": true, "note": 65, "velocity": 100, "until": 307.64368136666366}, {"on": false, "note": 65, "velocity": 0, "until": 307.64368136666366}, {"on": false, "note": 72, "velocity": 0, "until": 307.76234819166365}, {"on": true, "note": 74, "velocity": 100, "until": 307.76234819166365}, {"on": true, "note": 70, "velocity": 100, "until": 307.88631469166364}, {"on": false, "note": 70, "velocity": 0, "until": 307.88631469166364}, {"on": false, "note": 74, "velocity": 0, "until": 308.0102811916637}, {"on": true, "note": 72, "velocity": 100, "until": 308.0102811916637}, {"on": true, "note": 75, "velocity": 100, "until": 308.13424769166375}, {"on": false, "note": 75, "velocity": 0, "until": 308.13424769166375}, {"on": false, "note": 72, "velocity": 0, "until": 308.2581243666637}, {"on": true, "note": 74, "velocity": 100, "until": 308.2581243666637}, {"on": true, "note": 77, "velocity": 100, "until": 308.37670136666367}, {"on": false, "note": 77, "velocity": 0, "until": 308.37670136666367}, {"on": false, "note": 74, "velocity": 0, "until": 308.7324803666637}, {"on": true, "note": 73, "velocity": 100, "until": 308.7324803666637}, {"on": true, "note": 76, "velocity": 100, "until": 309.44719947499783}, {"on": false, "note": 76, "velocity": 0, "until": 309.44719947499783}, {"on": false, "note": 73, "velocity": 0, "until": 309.44719947499783}, {"on": true, "note": 73, "velocity": 100, "until": 309.44719947499783}, {"on": true, "note": 76, "velocity": 100, "until": 309.5617029749979}, {"on": false, "note": 76, "velocity": 0, "until": 309.5617029749979}, {"on": false, "note": 73, "velocity": 0, "until": 309.67632236666464}, {"on": true, "note": 74, "velocity": 100, "until": 309.67632236666464}, {"on": true, "note": 77, "velocity": 100, "until": 309.7977793666647}, {"on": false, "note": 77, "velocity": 0, "until": 309.7977793666647}, {"on": false, "note": 74, "velocity": 0, "until": 309.91923636666473}, {"on": true, "note": 76, "velocity": 100, "until": 309.91923636666473}, {"on": true, "note": 79, "velocity": 100, "until": 310.04069336666475}, {"on": false, "note": 79, "velocity": 0, "until": 310.04069336666475}, {"on": false, "note": 76, "velocity": 0, "until": 310.1620344749981}, {"on": true, "note": 77, "velocity": 100, "until": 310.1620344749981}, {"on": true, "note": 81, "velocity": 100, "until": 310.2765379749982}, {"on": false, "note": 81, "velocity": 0, "until": 310.2765379749982}, {"on": false, "note": 77, "velocity": 0, "until": 310.62016436666494}, {"on": true, "note": 76, "velocity": 100, "until": 310.62016436666494}, {"on": true, "note": 79, "velocity": 100, "until": 311.3348834749992}, {"on": false, "note": 79, "velocity": 0, "until": 311.3348834749992}, {"on": false, "note": 76, "velocity": 0, "until": 311.3348834749992}, {"on": true, "note": 76, "velocity": 100, "until": 311.3348834749992}, {"on": true, "note": 79, "velocity": 100, "until": 311.44938697499924}, {"on": false, "note": 79, "velocity": 0, "until": 311.44938697499924}, {"on": false, "note": 76, "velocity": 0, "until": 311.564006366666}, {"on": true, "note": 81, "velocity": 100, "until": 311.564006366666}, {"on": true, "note": 77, "velocity": 100, "until": 311.68546336666606}, {"on": false, "note": 77, "velocity": 0, "until": 311.68546336666606}, {"on": false, "note": 81, "velocity": 0, "until": 311.80692036666613}, {"on": true, "note": 82, "velocity": 100, "until": 311.80692036666613}, {"on": true, "note": 79, "velocity": 100, "until": 311.9283773666662}, {"on": false, "note": 79, "velocity": 0, "until": 311.9283773666662}, {"on": false, "note": 82, "velocity": 0, "until": 312.0497184749996}, {"on": true, "note": 84, "velocity": 100, "until": 312.0497184749996}, {"on": true, "note": 81, "velocity": 100, "until": 312.1642219749997}, {"on": false, "note": 81, "velocity": 0, "until": 312.1642219749997}, {"on": false, "note": 84, "velocity": 0, "until": 312.5082279249998}, {"on": true, "note": 85, "velocity": 100, "until": 312.5082279249998}, {"on": true, "note": 79, "velocity": 100, "until": 312.79636841666627}, {"on": false, "note": 79, "velocity": 0, "until": 312.79636841666627}, {"on": false, "note": 85, "velocity": 0, "until": 314.5252258333335}, {"on": true, "note": 79, "velocity": 100, "until": 314.5252258333335}, {"on": true, "note": 71, "velocity": 100, "until": 314.7816358333334}, {"on": false, "note": 71, "velocity": 0, "until": 314.7816358333334}, {"on": false, "note": 79, "velocity": 0, "until": 315.52783983333336}, {"on": true, "note": 78, "velocity": 100, "until": 315.52783983333336}, {"on": true, "note": 69, "velocity": 100, "until": 315.78424983333326}, {"on": false, "note": 69, "velocity": 0, "until": 315.78424983333326}, {"on": false, "note": 78, "velocity": 0, "until": 318.6269439916682}, {"on": true, "note": 74, "velocity": 85, "until": 319.01824749166843}, {"on": false, "note": 74, "velocity": 0, "until": 319.01824749166843}, {"on": true, "note": 76, "velocity": 85, "until": 319.1485914166685}, {"on": false, "note": 76, "velocity": 0, "until": 319.1485914166685}, {"on": true, "note": 74, "velocity": 85, "until": 319.39859141666864}, {"on": false, "note": 74, "velocity": 0, "until": 319.39859141666864}, {"on": true, "note": 74, "velocity": 85, "until": 319.5235914166687}, {"on": false, "note": 74, "velocity": 0, "until": 319.64868199166875}, {"on": true, "note": 74, "velocity": 85, "until": 319.9095509916689}, {"on": false, "note": 74, "velocity": 0, "until": 319.9095509916689}, {"on": true, "note": 66, "velocity": 85, "until": 320.1703294166691}, {"on": false, "note": 66, "velocity": 0, "until": 320.1703294166691}, {"on": true, "note": 69, "velocity": 85, "until": 320.42032941666923}, {"on": false, "note": 69, "velocity": 0, "until": 320.42032941666923}, {"on": true, "note": 72, "velocity": 85, "until": 320.67041999166935}, {"on": false, "note": 72, "velocity": 0, "until": 320.67041999166935}, {"on": true, "note": 71, "velocity": 85, "until": 321.1920674166697}, {"on": false, "note": 71, "velocity": 0, "until": 321.1920674166697}, {"on": true, "note": 69, "velocity": 63, "until": 321.3170674166698}, {"on": false, "note": 69, "velocity": 0, "until": 321.3170674166698}, {"on": true, "note": 67, "velocity": 63, "until": 321.4420674166698}, {"on": false, "note": 67, "velocity": 0, "until": 321.4420674166698}, {"on": true, "note": 66, "velocity": 63, "until": 321.56706741666983}, {"on": false, "note": 66, "velocity": 0, "until": 321.56706741666983}, {"on": true, "note": 64, "velocity": 63, "until": 321.6921579916699}, {"on": false, "note": 64, "velocity": 0, "until": 321.6921579916699}, {"on": true, "note": 62, "velocity": 63, "until": 321.82259249167}, {"on": false, "note": 62, "velocity": 0, "until": 321.95302699167}, {"on": true, "note": 62, "velocity": 68, "until": 322.08346149167016}, {"on": false, "note": 62, "velocity": 0, "until": 322.21380541667025}, {"on": true, "note": 62, "velocity": 73, "until": 322.3388054166703}, {"on": false, "note": 62, "velocity": 0, "until": 322.4638054166703}, {"on": true, "note": 62, "velocity": 79, "until": 322.58880541667037}, {"on": false, "note": 62, "velocity": 0, "until": 322.713858833337}, {"on": true, "note": 74, "velocity": 85, "until": 323.09847383333687}, {"on": false, "note": 74, "velocity": 0, "until": 323.09847383333687}, {"on": true, "note": 76, "velocity": 85, "until": 323.2265828916702}, {"on": false, "note": 76, "velocity": 0, "until": 323.2265828916702}, {"on": true, "note": 74, "velocity": 85, "until": 323.47147989167024}, {"on": false, "note": 74, "velocity": 0, "until": 323.47147989167024}, {"on": true, "note": 74, "velocity": 85, "until": 323.59392839167026}, {"on": false, "note": 74, "velocity": 0, "until": 323.7164728333369}, {"on": true, "note": 74, "velocity": 85, "until": 323.9728828333368}, {"on": false, "note": 74, "velocity": 0, "until": 323.9728828333368}, {"on": true, "note": 66, "velocity": 85, "until": 324.22919689167003}, {"on": false, "note": 66, "velocity": 0, "until": 324.22919689167003}, {"on": true, "note": 69, "velocity": 85, "until": 324.47409389167007}, {"on": false, "note": 69, "velocity": 0, "until": 324.47409389167007}, {"on": true, "note": 72, "velocity": 85, "until": 324.71908683333675}, {"on": false, "note": 72, "velocity": 0, "until": 324.71908683333675}, {"on": true, "note": 71, "velocity": 85, "until": 324.97549683333665}, {"on": false, "note": 71, "velocity": 0, "until": 325.2317621083366}, {"on": true, "note": 76, "velocity": 100, "until": 326.20982458333646}, {"on": false, "note": 76, "velocity": 0, "until": 326.20982458333646}, {"on": true, "note": 79, "velocity": 100, "until": 326.92970908333615}, {"on": false, "note": 79, "velocity": 0, "until": 327.22920110833616}, {"on": true, "note": 72, "velocity": 100, "until": 327.22920110833616}, {"on": true, "note": 76, "velocity": 100, "until": 327.35669070833615}, {"on": false, "note": 76, "velocity": 0, "until": 327.35669070833615}, {"on": false, "note": 72, "velocity": 0, "until": 327.46824410833614}, {"on": true, "note": 72, "velocity": 100, "until": 327.46824410833614}, {"on": true, "note": 76, "velocity": 100, "until": 327.5957337083361}, {"on": false, "note": 76, "velocity": 0, "until": 327.5957337083361}, {"on": false, "note": 72, "velocity": 0, "until": 327.7074318333361}, {"on": true, "note": 76, "velocity": 100, "until": 327.7074318333361}, {"on": true, "note": 79, "velocity": 100, "until": 328.71004583333615}, {"on": false, "note": 79, "velocity": 0, "until": 328.71004583333615}, {"on": false, "note": 76, "velocity": 0, "until": 328.71004583333615}, {"on": true, "note": 77, "velocity": 100, "until": 328.71004583333615}, {"on": true, "note": 74, "velocity": 100, "until": 329.22276989166966}, {"on": false, "note": 74, "velocity": 0, "until": 329.22276989166966}, {"on": false, "note": 77, "velocity": 0, "until": 329.22276989166966}, {"on": true, "note": 72, "velocity": 100, "until": 329.22276989166966}, {"on": true, "note": 76, "velocity": 100, "until": 329.46766689166964}, {"on": false, "note": 76, "velocity": 0, "until": 329.46766689166964}, {"on": false, "note": 72, "velocity": 0, "until": 329.46766689166964}, {"on": true, "note": 71, "velocity": 100, "until": 329.46766689166964}, {"on": true, "note": 74, "velocity": 100, "until": 329.70235985000295}, {"on": false, "note": 74, "velocity": 0, "until": 329.70235985000295}, {"on": false, "note": 71, "velocity": 0, "until": 329.7126417250029}, {"on": true, "note": 72, "velocity": 100, "until": 329.7126417250029}, {"on": true, "note": 69, "velocity": 100, "until": 329.9668787250029}, {"on": false, "note": 69, "velocity": 0, "until": 329.9668787250029}, {"on": false, "note": 72, "velocity": 0, "until": 331.2071473666698}, {"on": true, "note": 62, "velocity": 100, "until": 331.33670150000313}, {"on": false, "note": 62, "velocity": 0, "until": 331.45006136666984}, {"on": true, "note": 62, "velocity": 100, "until": 331.5796155000032}, {"on": false, "note": 62, "velocity": 0, "until": 331.6930431333365}, {"on": true, "note": 76, "velocity": 100, "until": 332.19505920833643}, {"on": false, "note": 76, "velocity": 0, "until": 332.19505920833643}, {"on": true, "note": 74, "velocity": 100, "until": 332.31602670833644}, {"on": false, "note": 74, "velocity": 0, "until": 332.31602670833644}, {"on": true, "note": 72, "velocity": 100, "until": 332.43699420833644}, {"on": false, "note": 72, "velocity": 0, "until": 332.43699420833644}, {"on": true, "note": 71, "velocity": 100, "until": 332.55796170833645}, {"on": false, "note": 71, "velocity": 0, "until": 332.55796170833645}, {"on": true, "note": 69, "velocity": 100, "until": 332.66884858333646}, {"on": false, "note": 69, "velocity": 0, "until": 332.67898776666976}, {"on": true, "note": 67, "velocity": 100, "until": 332.9279497666694}, {"on": false, "note": 67, "velocity": 0, "until": 333.17680558333603}, {"on": true, "note": 76, "velocity": 100, "until": 334.14103220833573}, {"on": false, "note": 76, "velocity": 0, "until": 334.14103220833573}, {"on": true, "note": 79, "velocity": 100, "until": 334.8532430833358}, {"on": false, "note": 79, "velocity": 0, "until": 335.1526661583358}, {"on": true, "note": 76, "velocity": 100, "until": 335.1526661583358}, {"on": true, "note": 72, "velocity": 100, "until": 335.2738198833358}, {"on": false, "note": 72, "velocity": 0, "until": 335.2738198833358}, {"on": false, "note": 76, "velocity": 0, "until": 335.38343515833577}, {"on": true, "note": 76, "velocity": 100, "until": 335.38343515833577}, {"on": true, "note": 72, "velocity": 100, "until": 335.50458888333577}, {"on": false, "note": 72, "velocity": 0, "until": 335.50458888333577}, {"on": false, "note": 76, "velocity": 0, "until": 335.6143053666691}, {"on": true, "note": 79, "velocity": 100, "until": 335.6143053666691}, {"on": true, "note": 76, "velocity": 100, "until": 337.98770147500255}, {"on": false, "note": 76, "velocity": 0, "until": 337.98770147500255}, {"on": false, "note": 79, "velocity": 0, "until": 337.98770147500255}, {"on": true, "note": 76, "velocity": 100, "until": 337.98770147500255}, {"on": true, "note": 69, "velocity": 100, "until": 338.197624558336}, {"on": false, "note": 69, "velocity": 0, "until": 338.197624558336}, {"on": false, "note": 76, "velocity": 0, "until": 338.21670847500275}, {"on": true, "note": 76, "velocity": 100, "until": 338.21670847500275}, {"on": true, "note": 69, "velocity": 100, "until": 338.42663155833617}, {"on": false, "note": 69, "velocity": 0, "until": 338.42663155833617}, {"on": false, "note": 76, "velocity": 0, "until": 338.4458313666696}, {"on": true, "note": 71, "velocity": 100, "until": 338.4458313666696}, {"on": true, "note": 74, "velocity": 100, "until": 338.93179025000364}, {"on": false, "note": 74, "velocity": 0, "until": 338.93179025000364}, {"on": false, "note": 71, "velocity": 0, "until": 339.90681286667035}, {"on": true, "note": 74, "velocity": 100, "until": 340.0244598666704}, {"on": false, "note": 74, "velocity": 0, "until": 340.1421068666704}, {"on": true, "note": 74, "velocity": 100, "until": 340.37746436667044}, {"on": false, "note": 74, "velocity": 0, "until": 340.37746436667044}, {"on": true, "note": 79, "velocity": 120, "until": 340.8632288666704}, {"on": false, "note": 79, "velocity": 0, "until": 340.8632288666704}, {"on": true, "note": 78, "velocity": 113, "until": 340.98087586667043}, {"on": false, "note": 78, "velocity": 0, "until": 340.98087586667043}, {"on": true, "note": 76, "velocity": 111, "until": 341.09852286667046}, {"on": false, "note": 76, "velocity": 0, "until": 341.09852286667046}, {"on": true, "note": 74, "velocity": 109, "until": 341.2161698666705}, {"on": false, "note": 74, "velocity": 0, "until": 341.2161698666705}, {"on": true, "note": 72, "velocity": 107, "until": 341.33388036667054}, {"on": false, "note": 72, "velocity": 0, "until": 341.33388036667054}, {"on": true, "note": 71, "velocity": 105, "until": 341.57679436667064}, {"on": false, "note": 71, "velocity": 0, "until": 343.2467123666709}, {"on": true, "note": 72, "velocity": 100, "until": 343.2467123666709}, {"on": true, "note": 62, "velocity": 100, "until": 344.2031283666709}, {"on": false, "note": 62, "velocity": 0, "until": 344.2031283666709}, {"on": false, "note": 72, "velocity": 0, "until": 344.2031283666709}, {"on": true, "note": 71, "velocity": 100, "until": 344.2031283666709}, {"on": true, "note": 67, "velocity": 100, "until": 344.4460423666709}, {"on": false, "note": 67, "velocity": 0, "until": 344.4460423666709}, {"on": false, "note": 71, "velocity": 0, "until": 347.07237636667116}, {"on": true, "note": 72, "velocity": 100, "until": 348.02879236667115}, {"on": false, "note": 72, "velocity": 0, "until": 348.02879236667115}, {"on": true, "note": 71, "velocity": 100, "until": 348.2719651833378}, {"on": false, "note": 71, "velocity": 0, "until": 348.54556979167114}, {"on": true, "note": 74, "velocity": 100, "until": 348.7218149583378}, {"on": false, "note": 74, "velocity": 0, "until": 348.77545479167117}, {"on": true, "note": 74, "velocity": 100, "until": 348.9516999583378}, {"on": false, "note": 74, "velocity": 0, "until": 349.00542408333786}, {"on": true, "note": 74, "velocity": 100, "until": 349.41342408333793}, {"on": false, "note": 74, "velocity": 0, "until": 349.4853324750046}, {"on": true, "note": 74, "velocity": 100, "until": 349.660904508338}, {"on": false, "note": 74, "velocity": 0, "until": 349.7143394750047}, {"on": true, "note": 74, "velocity": 100, "until": 349.88991150833806}, {"on": false, "note": 74, "velocity": 0, "until": 349.94346236667144}, {"on": true, "note": 74, "velocity": 100, "until": 350.35641616667164}, {"on": false, "note": 74, "velocity": 0, "until": 350.42917447500497}, {"on": true, "note": 74, "velocity": 100, "until": 350.60474650833834}, {"on": false, "note": 74, "velocity": 0, "until": 350.65818147500505}, {"on": true, "note": 74, "velocity": 100, "until": 350.8337535083384}, {"on": false, "note": 74, "velocity": 0, "until": 350.8873043666718}, {"on": true, "note": 74, "velocity": 100, "until": 351.3002581666719}, {"on": false, "note": 74, "velocity": 0, "until": 351.3730164750052}, {"on": true, "note": 74, "velocity": 100, "until": 351.5485885083386}, {"on": false, "note": 74, "velocity": 0, "until": 351.6020234750053}, {"on": true, "note": 74, "velocity": 100, "until": 351.77759550833866}, {"on": false, "note": 74, "velocity": 0, "until": 351.83110620833867}, {"on": true, "note": 67, "velocity": 100, "until": 352.07007422500527}, {"on": false, "note": 67, "velocity": 0, "until": 356.15324272500516}, {"on": true, "note": 71, "velocity": 100, "until": 356.15324272500516}, {"on": true, "note": 74, "velocity": 100, "until": 356.65544502500506}, {"on": false, "note": 74, "velocity": 0, "until": 356.65544502500506}, {"on": false, "note": 71, "velocity": 0, "until": 356.68189630000506}, {"on": true, "note": 74, "velocity": 100, "until": 356.68189630000506}, {"on": true, "note": 71, "velocity": 100, "until": 356.81522930000506}, {"on": false, "note": 71, "velocity": 0, "until": 356.81522930000506}, {"on": false, "note": 74, "velocity": 0, "until": 356.94856230000505}, {"on": true, "note": 74, "velocity": 100, "until": 356.94856230000505}, {"on": true, "note": 71, "velocity": 100, "until": 357.08189530000504}, {"on": false, "note": 71, "velocity": 0, "until": 357.08189530000504}, {"on": false, "note": 74, "velocity": 0, "until": 357.215238225005}, {"on": true, "note": 74, "velocity": 100, "until": 357.215238225005}, {"on": true, "note": 71, "velocity": 100, "until": 357.724166525005}, {"on": false, "note": 71, "velocity": 0, "until": 357.724166525005}, {"on": false, "note": 74, "velocity": 0, "until": 357.7509723333383}, {"on": true, "note": 74, "velocity": 100, "until": 357.7509723333383}, {"on": true, "note": 71, "velocity": 100, "until": 357.8861073333384}, {"on": false, "note": 71, "velocity": 0, "until": 357.8861073333384}, {"on": false, "note": 74, "velocity": 0, "until": 358.0212423333384}, {"on": true, "note": 71, "velocity": 100, "until": 358.0212423333384}, {"on": true, "note": 74, "velocity": 100, "until": 358.1563773333384}, {"on": false, "note": 74, "velocity": 0, "until": 358.1563773333384}, {"on": false, "note": 71, "velocity": 0, "until": 358.2914339916718}, {"on": true, "note": 70, "velocity": 100, "until": 358.2914339916718}, {"on": true, "note": 74, "velocity": 100, "until": 358.78708509167205}, {"on": false, "note": 74, "velocity": 0, "until": 358.78708509167205}, {"on": false, "note": 70, "velocity": 0, "until": 358.8131719916721}, {"on": true, "note": 74, "velocity": 100, "until": 358.8131719916721}, {"on": true, "note": 70, "velocity": 100, "until": 358.94360649167226}, {"on": false, "note": 70, "velocity": 0, "until": 358.94360649167226}, {"on": false, "note": 74, "velocity": 0, "until": 359.0740409916724}, {"on": true, "note": 74, "velocity": 100, "until": 359.0740409916724}, {"on": true, "note": 70, "velocity": 100, "until": 359.2044754916725}, {"on": false, "note": 70, "velocity": 0, "until": 359.2044754916725}, {"on": false, "note": 74, "velocity": 0, "until": 359.33490999167265}, {"on": true, "note": 74, "velocity": 100, "until": 359.33490999167265}, {"on": true, "note": 70, "velocity": 100, "until": 359.8305610916729}, {"on": false, "note": 70, "velocity": 0, "until": 359.8305610916729}, {"on": false, "note": 74, "velocity": 0, "until": 359.85664799167296}, {"on": true, "note": 74, "velocity": 100, "until": 359.85664799167296}, {"on": true, "note": 70, "velocity": 100, "until": 359.9870824916731}, {"on": false, "note": 70, "velocity": 0, "until": 359.9870824916731}, {"on": false, "note": 74, "velocity": 0, "until": 360.1175169916732}, {"on": true, "note": 74, "velocity": 100, "until": 360.1175169916732}, {"on": true, "note": 70, "velocity": 100, "until": 360.2479514916733}, {"on": false, "note": 70, "velocity": 0, "until": 360.2479514916733}, {"on": false, "note": 74, "velocity": 0, "until": 360.3788716500067}, {"on": true, "note": 73, "velocity": 100, "until": 360.3788716500067}, {"on": true, "note": 69, "velocity": 100, "until": 360.9386635250067}, {"on": false, "note": 69, "velocity": 0, "until": 360.9386635250067}, {"on": false, "note": 73, "velocity": 0, "until": 362.37812789167344}, {"on": true, "note": 82, "velocity": 100, "until": 362.37812789167344}, {"on": true, "note": 79, "velocity": 100, "until": 362.8678041583401}, {"on": false, "note": 79, "velocity": 0, "until": 362.8678041583401}, {"on": false, "note": 82, "velocity": 0, "until": 364.2807918916735}, {"on": true, "note": 82, "velocity": 100, "until": 364.2807918916735}, {"on": true, "note": 79, "velocity": 100, "until": 364.7704681583402}, {"on": false, "note": 79, "velocity": 0, "until": 364.7704681583402}, {"on": false, "note": 82, "velocity": 0, "until": 366.1834558916736}, {"on": true, "note": 81, "velocity": 100, "until": 366.1834558916736}, {"on": true, "note": 79, "velocity": 100, "until": 366.42835289167357}, {"on": false, "note": 79, "velocity": 0, "until": 366.42835289167357}, {"on": false, "note": 81, "velocity": 0, "until": 366.6731321583402}, {"on": true, "note": 81, "velocity": 100, "until": 366.6731321583402}, {"on": true, "note": 79, "velocity": 100, "until": 366.90390115834015}, {"on": false, "note": 79, "velocity": 0, "until": 366.90390115834015}, {"on": false, "note": 81, "velocity": 0, "until": 367.13478789167345}, {"on": true, "note": 81, "velocity": 100, "until": 367.13478789167345}, {"on": true, "note": 79, "velocity": 100, "until": 367.37968489167343}, {"on": false, "note": 79, "velocity": 0, "until": 367.37968489167343}, {"on": false, "note": 81, "velocity": 0, "until": 367.62446415834006}, {"on": true, "note": 81, "velocity": 100, "until": 367.62446415834006}, {"on": true, "note": 79, "velocity": 100, "until": 367.85523315834}, {"on": false, "note": 79, "velocity": 0, "until": 367.85523315834}, {"on": false, "note": 81, "velocity": 0, "until": 368.08629146667334}, {"on": true, "note": 81, "velocity": 100, "until": 368.08629146667334}, {"on": true, "note": 79, "velocity": 100, "until": 368.3516058916734}, {"on": false, "note": 79, "velocity": 0, "until": 368.3516058916734}, {"on": false, "note": 81, "velocity": 0, "until": 371.46657515834}, {"on": true, "note": 79, "velocity": 100, "until": 371.58195965834}, {"on": false, "note": 79, "velocity": 0, "until": 371.69734415834}, {"on": true, "note": 79, "velocity": 100, "until": 371.9282308916733}, {"on": false, "note": 79, "velocity": 0, "until": 371.9282308916733}, {"on": true, "note": 81, "velocity": 100, "until": 372.41790715834003}, {"on": false, "note": 81, "velocity": 0, "until": 372.41790715834003}, {"on": true, "note": 79, "velocity": 100, "until": 372.53329165834003}, {"on": false, "note": 79, "velocity": 0, "until": 372.53329165834003}, {"on": true, "note": 77, "velocity": 100, "until": 372.64867615834004}, {"on": false, "note": 77, "velocity": 0, "until": 372.64867615834004}, {"on": true, "note": 76, "velocity": 100, "until": 372.76406065834004}, {"on": false, "note": 76, "velocity": 0, "until": 372.76406065834004}, {"on": true, "note": 74, "velocity": 100, "until": 372.8795628916734}, {"on": false, "note": 74, "velocity": 0, "until": 372.8795628916734}, {"on": true, "note": 72, "velocity": 100, "until": 373.12445989167344}, {"on": false, "note": 72, "velocity": 0, "until": 377.63622289167387}, {"on": true, "note": 84, "velocity": 100, "until": 378.1258991583406}, {"on": false, "note": 84, "velocity": 0, "until": 378.1258991583406}, {"on": true, "note": 82, "velocity": 100, "until": 378.2412836583406}, {"on": false, "note": 82, "velocity": 0, "until": 378.2412836583406}, {"on": true, "note": 81, "velocity": 100, "until": 378.3566681583406}, {"on": false, "note": 81, "velocity": 0, "until": 378.3566681583406}, {"on": true, "note": 79, "velocity": 100, "until": 378.4720526583406}, {"on": false, "note": 79, "velocity": 0, "until": 378.4720526583406}, {"on": true, "note": 77, "velocity": 100, "until": 378.5875548916739}, {"on": false, "note": 77, "velocity": 0, "until": 378.5875548916739}, {"on": true, "note": 76, "velocity": 100, "until": 378.7100033916739}, {"on": false, "note": 76, "velocity": 0, "until": 378.83245189167394}, {"on": true, "note": 76, "velocity": 100, "until": 378.95490039167396}, {"on": false, "note": 76, "velocity": 0, "until": 379.0772311583406}, {"on": true, "note": 76, "velocity": 100, "until": 379.1926156583406}, {"on": false, "note": 76, "velocity": 0, "until": 381.4525696916743}, {"on": true, "note": 84, "velocity": 100, "until": 381.9462988666744}, {"on": false, "note": 84, "velocity": 0, "until": 381.9462988666744}, {"on": true, "note": 82, "velocity": 100, "until": 382.06394586667443}, {"on": false, "note": 82, "velocity": 0, "until": 382.06394586667443}, {"on": true, "note": 81, "velocity": 100, "until": 382.18159286667446}, {"on": false, "note": 81, "velocity": 0, "until": 382.18159286667446}, {"on": true, "note": 79, "velocity": 100, "until": 382.29923986667444}, {"on": false, "note": 79, "velocity": 0, "until": 382.29923986667444}, {"on": true, "note": 77, "velocity": 100, "until": 382.41699219167447}, {"on": false, "note": 77, "velocity": 0, "until": 382.41699219167447}, {"on": true, "note": 72, "velocity": 100, "until": 382.41699219167447}, {"on": true, "note": 78, "velocity": 100, "until": 382.54095869167446}, {"on": false, "note": 78, "velocity": 0, "until": 382.54095869167446}, {"on": false, "note": 72, "velocity": 0, "until": 382.66492519167446}, {"on": true, "note": 72, "velocity": 100, "until": 382.66492519167446}, {"on": true, "note": 78, "velocity": 100, "until": 382.78889169167445}, {"on": false, "note": 78, "velocity": 0, "until": 382.78889169167445}, {"on": false, "note": 72, "velocity": 0, "until": 382.91275286667445}, {"on": true, "note": 72, "velocity": 100, "until": 382.91275286667445}, {"on": true, "note": 78, "velocity": 100, "until": 383.0303998666745}, {"on": false, "note": 78, "velocity": 0, "until": 383.0303998666745}, {"on": false, "note": 72, "velocity": 0, "until": 383.3834547666745}, {"on": true, "note": 70, "velocity": 80, "until": 383.3834547666745}, {"on": true, "note": 79, "velocity": 80, "until": 383.5079357666744}, {"on": false, "note": 79, "velocity": 0, "until": 383.5079357666744}, {"on": false, "note": 70, "velocity": 0, "until": 383.63241676667434}, {"on": true, "note": 70, "velocity": 80, "until": 383.63241676667434}, {"on": true, "note": 74, "velocity": 80, "until": 383.75689776667423}, {"on": false, "note": 74, "velocity": 0, "until": 383.75689776667423}, {"on": false, "note": 70, "velocity": 0, "until": 383.88125720834086}, {"on": true, "note": 70, "velocity": 80, "until": 383.88125720834086}, {"on": true, "note": 74, "velocity": 80, "until": 383.99844470834086}, {"on": false, "note": 74, "velocity": 0, "until": 383.99844470834086}, {"on": false, "note": 70, "velocity": 0, "until": 391.49648213334143}, {"on": true, "note": 75, "velocity": 100, "until": 391.99845058334137}, {"on": false, "note": 75, "velocity": 0, "until": 391.99845058334137}, {"on": true, "note": 75, "velocity": 100, "until": 392.4709628916747}, {"on": false, "note": 75, "velocity": 0, "until": 392.4709628916747}, {"on": true, "note": 75, "velocity": 100, "until": 392.96063915834134}, {"on": false, "note": 75, "velocity": 0, "until": 393.42229489167465}, {"on": true, "note": 74, "velocity": 100, "until": 393.42229489167465}, {"on": true, "note": 70, "velocity": 100, "until": 393.5447433916747}, {"on": false, "note": 70, "velocity": 0, "until": 393.5447433916747}, {"on": false, "note": 74, "velocity": 0, "until": 393.6671918916747}, {"on": true, "note": 74, "velocity": 100, "until": 393.6671918916747}, {"on": true, "note": 70, "velocity": 100, "until": 393.7896403916747}, {"on": false, "note": 70, "velocity": 0, "until": 393.7896403916747}, {"on": false, "note": 74, "velocity": 0, "until": 393.9119711583414}, {"on": true, "note": 74, "velocity": 100, "until": 393.9119711583414}, {"on": true, "note": 70, "velocity": 100, "until": 394.0273556583414}, {"on": false, "note": 70, "velocity": 0, "until": 394.0273556583414}, {"on": false, "note": 74, "velocity": 0, "until": 394.1427401583413}, {"on": true, "note": 74, "velocity": 100, "until": 394.1427401583413}, {"on": true, "note": 70, "velocity": 100, "until": 394.2581246583413}, {"on": false, "note": 70, "velocity": 0, "until": 394.2581246583413}, {"on": false, "note": 74, "velocity": 0, "until": 394.3736268916746}, {"on": true, "note": 70, "velocity": 100, "until": 394.3736268916746}, {"on": true, "note": 74, "velocity": 100, "until": 394.86330315834124}, {"on": false, "note": 74, "velocity": 0, "until": 394.86330315834124}, {"on": false, "note": 70, "velocity": 0, "until": 404.3971042083412}, {"on": true, "note": 75, "velocity": 100, "until": 405.1269082583413}, {"on": false, "note": 75, "velocity": 0, "until": 406.3524383666748}, {"on": true, "note": 82, "velocity": 100, "until": 407.08118036667497}, {"on": false, "note": 82, "velocity": 0, "until": 407.324094366675}, {"on": true, "note": 71, "velocity": 100, "until": 407.567008366675}, {"on": false, "note": 71, "velocity": 0, "until": 407.567008366675}, {"on": true, "note": 72, "velocity": 100, "until": 407.688465366675}, {"on": false, "note": 72, "velocity": 0, "until": 407.688465366675}, {"on": true, "note": 74, "velocity": 100, "until": 407.809938891675}, {"on": false, "note": 74, "velocity": 0, "until": 407.809938891675}, {"on": true, "note": 75, "velocity": 100, "until": 408.05483589167505}, {"on": false, "note": 75, "velocity": 0, "until": 408.2997328916751}, {"on": true, "note": 71, "velocity": 100, "until": 408.5446298916751}, {"on": false, "note": 71, "velocity": 0, "until": 408.5446298916751}, {"on": true, "note": 72, "velocity": 100, "until": 408.6670783916751}, {"on": false, "note": 72, "velocity": 0, "until": 408.6670783916751}, {"on": true, "note": 74, "velocity": 100, "until": 408.7895607666751}, {"on": false, "note": 74, "velocity": 0, "until": 408.7895607666751}, {"on": true, "note": 75, "velocity": 100, "until": 409.038522766675}, {"on": false, "note": 75, "velocity": 0, "until": 409.2874847666749}, {"on": true, "note": 71, "velocity": 100, "until": 409.5364467666748}, {"on": false, "note": 71, "velocity": 0, "until": 409.5364467666748}, {"on": true, "note": 72, "velocity": 100, "until": 409.6609277666748}, {"on": false, "note": 72, "velocity": 0, "until": 409.6609277666748}, {"on": true, "note": 74, "velocity": 100, "until": 409.78544378334146}, {"on": false, "note": 74, "velocity": 0, "until": 409.78544378334146}, {"on": true, "note": 75, "velocity": 100, "until": 410.03860778334155}, {"on": false, "note": 75, "velocity": 0, "until": 410.29177178334163}, {"on": true, "note": 71, "velocity": 100, "until": 410.54493578334166}, {"on": false, "note": 71, "velocity": 0, "until": 410.54493578334166}, {"on": true, "note": 72, "velocity": 100, "until": 410.67151778334164}, {"on": false, "note": 72, "velocity": 0, "until": 410.67151778334164}, {"on": true, "note": 74, "velocity": 100, "until": 410.7981360000083}, {"on": false, "note": 74, "velocity": 0, "until": 410.7981360000083}, {"on": true, "note": 75, "velocity": 100, "until": 411.05564600000844}, {"on": false, "note": 75, "velocity": 0, "until": 411.31315600000863}, {"on": true, "note": 71, "velocity": 100, "until": 411.5706660000087}, {"on": false, "note": 71, "velocity": 0, "until": 411.5706660000087}, {"on": true, "note": 72, "velocity": 100, "until": 411.6994210000087}, {"on": false, "note": 72, "velocity": 0, "until": 411.6994210000087}, {"on": true, "note": 74, "velocity": 100, "until": 411.8282039916754}, {"on": false, "note": 74, "velocity": 0, "until": 411.8282039916754}, {"on": true, "note": 75, "velocity": 100, "until": 413.9384428083425}, {"on": false, "note": 75, "velocity": 0, "until": 413.9384428083425}, {"on": true, "note": 76, "velocity": 100, "until": 416.1448403583426}, {"on": false, "note": 76, "velocity": 0, "until": 416.1997640000093}, {"on": true, "note": 72, "velocity": 100, "until": 416.5860290000093}, {"on": false, "note": 72, "velocity": 0, "until": 416.71456115834263}, {"on": true, "note": 72, "velocity": 100, "until": 417.0607146583426}, {"on": false, "note": 72, "velocity": 0, "until": 417.17621689167595}, {"on": true, "note": 72, "velocity": 100, "until": 417.66594636667594}, {"on": false, "note": 72, "velocity": 0, "until": 418.14025436667595}, {"on": true, "note": 71, "velocity": 100, "until": 418.14025436667595}, {"on": true, "note": 79, "velocity": 100, "until": 418.2588313666759}, {"on": false, "note": 79, "velocity": 0, "until": 418.2588313666759}, {"on": false, "note": 71, "velocity": 0, "until": 418.37740836667587}, {"on": true, "note": 79, "velocity": 100, "until": 418.37740836667587}, {"on": true, "note": 71, "velocity": 100, "until": 418.4959853666758}, {"on": false, "note": 71, "velocity": 0, "until": 418.4959853666758}, {"on": false, "note": 79, "velocity": 0, "until": 418.6145623666758}, {"on": true, "note": 71, "velocity": 100, "until": 418.6145623666758}, {"on": true, "note": 79, "velocity": 100, "until": 418.73313936667574}, {"on": false, "note": 79, "velocity": 0, "until": 418.73313936667574}, {"on": false, "note": 71, "velocity": 0, "until": 418.8517163666757}, {"on": true, "note": 71, "velocity": 100, "until": 418.8517163666757}, {"on": true, "note": 79, "velocity": 100, "until": 418.97029336667566}, {"on": false, "note": 79, "velocity": 0, "until": 418.97029336667566}, {"on": false, "note": 71, "velocity": 0, "until": 419.08893489167565}, {"on": true, "note": 79, "velocity": 100, "until": 419.08893489167565}, {"on": true, "note": 71, "velocity": 100, "until": 419.5786111583423}, {"on": false, "note": 71, "velocity": 0, "until": 419.6939956583423}, {"on": false, "note": 79, "velocity": 0, "until": 419.6939956583423}, {"on": true, "note": 77, "velocity": 100, "until": 419.8093801583423}, {"on": false, "note": 77, "velocity": 0, "until": 419.8093801583423}, {"on": true, "note": 76, "velocity": 100, "until": 419.9247646583423}, {"on": false, "note": 76, "velocity": 0, "until": 419.9247646583423}, {"on": true, "note": 74, "velocity": 100, "until": 420.0402668916757}, {"on": false, "note": 74, "velocity": 0, "until": 420.0402668916757}, {"on": true, "note": 72, "velocity": 100, "until": 420.4076123916757}, {"on": false, "note": 72, "velocity": 0, "until": 420.52994315834235}, {"on": true, "note": 72, "velocity": 100, "until": 420.8760966583423}, {"on": false, "note": 72, "velocity": 0, "until": 420.99159889167566}, {"on": true, "note": 72, "velocity": 100, "until": 421.48132836667565}, {"on": false, "note": 72, "velocity": 0, "until": 421.95563636667566}, {"on": true, "note": 79, "velocity": 100, "until": 421.95563636667566}, {"on": true, "note": 72, "velocity": 100, "until": 422.0742133666756}, {"on": false, "note": 72, "velocity": 0, "until": 422.0742133666756}, {"on": false, "note": 79, "velocity": 0, "until": 422.1927903666756}, {"on": true, "note": 79, "velocity": 100, "until": 422.1927903666756}, {"on": true, "note": 72, "velocity": 100, "until": 422.31136736667554}, {"on": false, "note": 72, "velocity": 0, "until": 422.31136736667554}, {"on": false, "note": 79, "velocity": 0, "until": 422.4299443666755}, {"on": true, "note": 71, "velocity": 100, "until": 422.4299443666755}, {"on": true, "note": 79, "velocity": 100, "until": 422.54852136667546}, {"on": false, "note": 79, "velocity": 0, "until": 422.54852136667546}, {"on": false, "note": 71, "velocity": 0, "until": 422.6670983666754}, {"on": true, "note": 71, "velocity": 100, "until": 422.6670983666754}, {"on": true, "note": 79, "velocity": 100, "until": 422.7856753666754}, {"on": false, "note": 79, "velocity": 0, "until": 422.7856753666754}, {"on": false, "note": 71, "velocity": 0, "until": 422.90431689167536}, {"on": true, "note": 72, "velocity": 100, "until": 422.90431689167536}, {"on": true, "note": 79, "velocity": 100, "until": 423.1492138916754}, {"on": false, "note": 79, "velocity": 0, "until": 423.1492138916754}, {"on": false, "note": 72, "velocity": 0, "until": 423.8556488916748}, {"on": true, "note": 76, "velocity": 90, "until": 423.8556488916748}, {"on": true, "note": 79, "velocity": 100, "until": 424.34532515834144}, {"on": false, "note": 79, "velocity": 0, "until": 424.34532515834144}, {"on": false, "note": 76, "velocity": 0, "until": 424.34532515834144}, {"on": true, "note": 75, "velocity": 90, "until": 424.34532515834144}, {"on": true, "note": 78, "velocity": 100, "until": 424.5760941583414}, {"on": false, "note": 78, "velocity": 0, "until": 424.5760941583414}, {"on": true, "note": 79, "velocity": 100, "until": 424.69147865834134}, {"on": false, "note": 79, "velocity": 0, "until": 424.69147865834134}, {"on": true, "note": 81, "velocity": 100, "until": 424.80698089167464}, {"on": false, "note": 81, "velocity": 0, "until": 424.80698089167464}, {"on": false, "note": 75, "velocity": 0, "until": 424.80698089167464}, {"on": true, "note": 79, "velocity": 100, "until": 424.80698089167464}, {"on": true, "note": 76, "velocity": 90, "until": 425.2966571583413}, {"on": false, "note": 76, "velocity": 0, "until": 425.2966571583413}, {"on": false, "note": 79, "velocity": 0, "until": 425.9982720833414}, {"on": true, "note": 79, "velocity": 100, "until": 426.1182720833415}, {"on": false, "note": 79, "velocity": 0, "until": 426.23827208334154}, {"on": true, "note": 79, "velocity": 100, "until": 426.35827208334155}, {"on": false, "note": 79, "velocity": 0, "until": 426.4782720833416}, {"on": true, "note": 79, "velocity": 100, "until": 426.59827208334167}, {"on": false, "note": 79, "velocity": 0, "until": 426.71827208334173}, {"on": true, "note": 79, "velocity": 100, "until": 426.9582720833418}, {"on": false, "note": 79, "velocity": 0, "until": 427.65985089167526}, {"on": true, "note": 79, "velocity": 100, "until": 427.65985089167526}, {"on": true, "note": 76, "velocity": 90, "until": 428.1495271583419}, {"on": false, "note": 76, "velocity": 0, "until": 428.1495271583419}, {"on": false, "note": 79, "velocity": 0, "until": 428.1495271583419}, {"on": true, "note": 75, "velocity": 90, "until": 428.1495271583419}, {"on": true, "note": 78, "velocity": 100, "until": 428.3802961583419}, {"on": false, "note": 78, "velocity": 0, "until": 428.3802961583419}, {"on": true, "note": 79, "velocity": 100, "until": 428.4956806583418}, {"on": false, "note": 79, "velocity": 0, "until": 428.4956806583418}, {"on": true, "note": 81, "velocity": 100, "until": 428.6111828916751}, {"on": false, "note": 81, "velocity": 0, "until": 428.6111828916751}, {"on": false, "note": 75, "velocity": 0, "until": 428.6111828916751}, {"on": true, "note": 79, "velocity": 100, "until": 428.6111828916751}, {"on": true, "note": 76, "velocity": 90, "until": 429.1008591583418}, {"on": false, "note": 76, "velocity": 0, "until": 429.1008591583418}, {"on": false, "note": 79, "velocity": 0, "until": 429.5624425833416}, {"on": true, "note": 80, "velocity": 100, "until": 429.5624425833416}, {"on": true, "note": 71, "velocity": 100, "until": 429.6805525833415}, {"on": false, "note": 71, "velocity": 0, "until": 429.6805525833415}, {"on": false, "note": 80, "velocity": 0, "until": 429.7986625833414}, {"on": true, "note": 72, "velocity": 100, "until": 429.7986625833414}, {"on": true, "note": 81, "velocity": 100, "until": 429.91677258334136}, {"on": false, "note": 81, "velocity": 0, "until": 429.91677258334136}, {"on": false, "note": 72, "velocity": 0, "until": 430.03488258334124}, {"on": true, "note": 71, "velocity": 100, "until": 430.03488258334124}, {"on": true, "note": 80, "velocity": 100, "until": 430.1529925833412}, {"on": false, "note": 80, "velocity": 0, "until": 430.1529925833412}, {"on": false, "note": 71, "velocity": 0, "until": 430.2711025833411}, {"on": true, "note": 72, "velocity": 100, "until": 430.2711025833411}, {"on": true, "note": 81, "velocity": 100, "until": 430.389212583341}, {"on": false, "note": 81, "velocity": 0, "until": 430.389212583341}, {"on": false, "note": 72, "velocity": 0, "until": 430.5073225833409}, {"on": true, "note": 80, "velocity": 100, "until": 430.5073225833409}, {"on": true, "note": 71, "velocity": 100, "until": 430.97971715833984}, {"on": false, "note": 71, "velocity": 0, "until": 430.97971715833984}, {"on": false, "note": 80, "velocity": 0, "until": 431.48838089167316}, {"on": true, "note": 77, "velocity": 100, "until": 431.6108293916732}, {"on": false, "note": 77, "velocity": 0, "until": 431.7332778916732}, {"on": true, "note": 76, "velocity": 100, "until": 431.8557263916732}, {"on": false, "note": 76, "velocity": 0, "until": 431.9780571583399}, {"on": true, "note": 77, "velocity": 100, "until": 432.0934416583399}, {"on": false, "note": 77, "velocity": 0, "until": 432.2088261583399}, {"on": true, "note": 76, "velocity": 100, "until": 432.3242106583399}, {"on": false, "note": 76, "velocity": 0, "until": 432.43971289167325}, {"on": true, "note": 77, "velocity": 100, "until": 432.6846098916733}, {"on": false, "note": 77, "velocity": 0, "until": 433.39104489167306}, {"on": true, "note": 76, "velocity": 100, "until": 433.5134933916731}, {"on": false, "note": 76, "velocity": 0, "until": 433.6359418916731}, {"on": true, "note": 75, "velocity": 100, "until": 433.7583903916731}, {"on": false, "note": 75, "velocity": 0, "until": 433.8807211583398}, {"on": true, "note": 76, "velocity": 100, "until": 433.9961056583398}, {"on": false, "note": 76, "velocity": 0, "until": 434.1114901583398}, {"on": true, "note": 75, "velocity": 100, "until": 434.2268746583398}, {"on": false, "note": 75, "velocity": 0, "until": 434.34237689167315}, {"on": true, "note": 76, "velocity": 100, "until": 434.5872738916732}, {"on": false, "note": 76, "velocity": 0, "until": 435.2937088916727}, {"on": true, "note": 83, "velocity": 100, "until": 435.2937088916727}, {"on": true, "note": 79, "velocity": 100, "until": 435.4161573916727}, {"on": false, "note": 79, "velocity": 0, "until": 435.4161573916727}, {"on": false, "note": 83, "velocity": 0, "until": 435.5386058916727}, {"on": true, "note": 83, "velocity": 100, "until": 435.5386058916727}, {"on": true, "note": 79, "velocity": 100, "until": 436.0141541583392}, {"on": false, "note": 83, "velocity": 0, "until": 436.0141541583392}, {"on": true, "note": 84, "velocity": 100, "until": 436.2450408916725}, {"on": false, "note": 84, "velocity": 0, "until": 436.2450408916725}, {"on": false, "note": 79, "velocity": 0, "until": 436.2450408916725}, {"on": true, "note": 86, "velocity": 100, "until": 436.2450408916725}, {"on": true, "note": 79, "velocity": 100, "until": 436.3674893916725}, {"on": false, "note": 79, "velocity": 0, "until": 436.3674893916725}, {"on": false, "note": 86, "velocity": 0, "until": 436.4899378916725}, {"on": true, "note": 83, "velocity": 100, "until": 436.4899378916725}, {"on": true, "note": 79, "velocity": 100, "until": 436.965486158339}, {"on": false, "note": 83, "velocity": 0, "until": 436.965486158339}, {"on": true, "note": 84, "velocity": 100, "until": 437.1963728916723}, {"on": false, "note": 84, "velocity": 0, "until": 437.1963728916723}, {"on": false, "note": 79, "velocity": 0, "until": 437.1963728916723}, {"on": true, "note": 79, "velocity": 100, "until": 437.1963728916723}, {"on": true, "note": 86, "velocity": 100, "until": 437.3188213916723}, {"on": false, "note": 86, "velocity": 0, "until": 437.3188213916723}, {"on": false, "note": 79, "velocity": 0, "until": 437.44126989167233}, {"on": true, "note": 83, "velocity": 100, "until": 437.44126989167233}, {"on": true, "note": 79, "velocity": 100, "until": 437.9168181583388}, {"on": false, "note": 83, "velocity": 0, "until": 437.9168181583388}, {"on": true, "note": 84, "velocity": 100, "until": 438.1477048916721}, {"on": false, "note": 84, "velocity": 0, "until": 438.1477048916721}, {"on": false, "note": 79, "velocity": 0, "until": 438.1477048916721}, {"on": true, "note": 79, "velocity": 100, "until": 438.75697160833886}, {"on": false, "note": 79, "velocity": 0, "until": 438.75697160833886}, {"on": true, "note": 77, "velocity": 100, "until": 438.87691654167224}, {"on": false, "note": 77, "velocity": 0, "until": 438.87691654167224}, {"on": true, "note": 76, "velocity": 100, "until": 439.02184404167224}, {"on": false, "note": 76, "velocity": 0, "until": 439.02184404167224}, {"on": true, "note": 74, "velocity": 100, "until": 439.1663968916722}, {"on": false, "note": 74, "velocity": 0, "until": 439.1663968916722}, {"on": true, "note": 72, "velocity": 100, "until": 439.64598685000556}, {"on": false, "note": 72, "velocity": 0, "until": 439.65607315833887}, {"on": true, "note": 72, "velocity": 100, "until": 440.1079957833388}, {"on": false, "note": 72, "velocity": 0, "until": 440.11772889167213}, {"on": true, "note": 72, "velocity": 100, "until": 440.5973188500055}, {"on": false, "note": 72, "velocity": 0, "until": 441.0690121083388}, {"on": true, "note": 79, "velocity": 100, "until": 441.0690121083388}, {"on": true, "note": 71, "velocity": 100, "until": 441.1885336083388}, {"on": false, "note": 71, "velocity": 0, "until": 441.1885336083388}, {"on": false, "note": 79, "velocity": 0, "until": 441.30805510833875}, {"on": true, "note": 79, "velocity": 100, "until": 441.30805510833875}, {"on": true, "note": 71, "velocity": 100, "until": 441.4275766083387}, {"on": false, "note": 71, "velocity": 0, "until": 441.4275766083387}, {"on": false, "note": 79, "velocity": 0, "until": 441.5470981083387}, {"on": true, "note": 79, "velocity": 100, "until": 441.5470981083387}, {"on": true, "note": 71, "velocity": 100, "until": 441.66661960833864}, {"on": false, "note": 71, "velocity": 0, "until": 441.66661960833864}, {"on": false, "note": 79, "velocity": 0, "until": 441.7861411083386}, {"on": true, "note": 79, "velocity": 100, "until": 441.7861411083386}, {"on": true, "note": 71, "velocity": 100, "until": 441.90566260833856}, {"on": false, "note": 71, "velocity": 0, "until": 441.90566260833856}, {"on": false, "note": 79, "velocity": 0, "until": 442.0251841083385}, {"on": true, "note": 71, "velocity": 100, "until": 442.0251841083385}, {"on": true, "note": 79, "velocity": 100, "until": 442.50320115833847}, {"on": false, "note": 79, "velocity": 0, "until": 442.50320115833847}, {"on": false, "note": 71, "velocity": 0, "until": 442.7339701583384}, {"on": true, "note": 70, "velocity": 100, "until": 442.7339701583384}, {"on": true, "note": 79, "velocity": 100, "until": 442.84935465833837}, {"on": false, "note": 79, "velocity": 0, "until": 442.84935465833837}, {"on": false, "note": 70, "velocity": 0, "until": 442.9648160833383}, {"on": true, "note": 77, "velocity": 100, "until": 442.9648160833383}, {"on": true, "note": 69, "velocity": 100, "until": 443.08481608333835}, {"on": false, "note": 69, "velocity": 0, "until": 443.08481608333835}, {"on": false, "note": 77, "velocity": 0, "until": 443.2048160833384}, {"on": true, "note": 79, "velocity": 100, "until": 443.2048160833384}, {"on": true, "note": 70, "velocity": 100, "until": 443.3248160833385}, {"on": false, "note": 70, "velocity": 0, "until": 443.3248160833385}, {"on": false, "note": 79, "velocity": 0, "until": 443.44481608333854}, {"on": true, "note": 77, "velocity": 100, "until": 443.44481608333854}, {"on": true, "note": 69, "velocity": 100, "until": 443.5648160833386}, {"on": false, "note": 69, "velocity": 0, "until": 443.5648160833386}, {"on": false, "note": 77, "velocity": 0, "until": 443.68481608333866}, {"on": true, "note": 79, "velocity": 100, "until": 443.68481608333866}, {"on": true, "note": 70, "velocity": 100, "until": 443.8048160833387}, {"on": false, "note": 70, "velocity": 0, "until": 443.8048160833387}, {"on": false, "note": 79, "velocity": 0, "until": 443.9248160833388}, {"on": true, "note": 77, "velocity": 100, "until": 443.9248160833388}, {"on": true, "note": 69, "velocity": 100, "until": 444.4047391583397}, {"on": false, "note": 69, "velocity": 0, "until": 444.4047391583397}, {"on": false, "note": 77, "velocity": 0, "until": 444.63550815833963}, {"on": true, "note": 71, "velocity": 100, "until": 444.63550815833963}, {"on": true, "note": 76, "velocity": 100, "until": 444.7508926583396}, {"on": false, "note": 76, "velocity": 0, "until": 444.7508926583396}, {"on": false, "note": 71, "velocity": 0, "until": 444.86633036667286}, {"on": true, "note": 72, "velocity": 100, "until": 444.86633036667286}, {"on": true, "note": 76, "velocity": 100, "until": 444.9849073666728}, {"on": false, "note": 76, "velocity": 0, "until": 444.9849073666728}, {"on": false, "note": 72, "velocity": 0, "until": 445.1034843666728}, {"on": true, "note": 71, "velocity": 100, "until": 445.1034843666728}, {"on": true, "note": 76, "velocity": 100, "until": 445.22206136667273}, {"on": false, "note": 76, "velocity": 0, "until": 445.22206136667273}, {"on": false, "note": 71, "velocity": 0, "until": 445.3406383666727}, {"on": true, "note": 72, "velocity": 100, "until": 445.3406383666727}, {"on": true, "note": 76, "velocity": 100, "until": 445.45921536667265}, {"on": false, "note": 76, "velocity": 0, "until": 445.45921536667265}, {"on": false, "note": 72, "velocity": 0, "until": 445.5777923666726}, {"on": true, "note": 71, "velocity": 100, "until": 445.5777923666726}, {"on": true, "note": 76, "velocity": 100, "until": 445.69636936667257}, {"on": false, "note": 76, "velocity": 0, "until": 445.69636936667257}, {"on": false, "note": 71, "velocity": 0, "until": 445.81494636667253}, {"on": true, "note": 72, "velocity": 100, "until": 445.81494636667253}, {"on": true, "note": 76, "velocity": 100, "until": 446.28920115833915}, {"on": false, "note": 76, "velocity": 0, "until": 446.28920115833915}, {"on": false, "note": 72, "velocity": 0, "until": 446.5199701583391}, {"on": true, "note": 74, "velocity": 100, "until": 446.5199701583391}, {"on": true, "note": 79, "velocity": 100, "until": 446.63535465833905}, {"on": false, "note": 79, "velocity": 0, "until": 446.63535465833905}, {"on": false, "note": 74, "velocity": 0, "until": 446.75078458333894}, {"on": true, "note": 79, "velocity": 100, "until": 446.75078458333894}, {"on": true, "note": 76, "velocity": 100, "until": 446.86889458333883}, {"on": false, "note": 76, "velocity": 0, "until": 446.86889458333883}, {"on": false, "note": 79, "velocity": 0, "until": 446.9870045833387}, {"on": true, "note": 79, "velocity": 100, "until": 446.9870045833387}, {"on": true, "note": 74, "velocity": 100, "until": 447.1051145833386}, {"on": false, "note": 74, "velocity": 0, "until": 447.1051145833386}, {"on": false, "note": 79, "velocity": 0, "until": 447.2232245833385}, {"on": true, "note": 79, "velocity": 100, "until": 447.2232245833385}, {"on": true, "note": 76, "velocity": 100, "until": 447.3413345833384}, {"on": false, "note": 76, "velocity": 0, "until": 447.3413345833384}, {"on": false, "note": 79, "velocity": 0, "until": 447.45944458333827}, {"on": true, "note": 79, "velocity": 100, "until": 447.45944458333827}, {"on": true, "note": 74, "velocity": 100, "until": 447.57755458333816}, {"on": false, "note": 74, "velocity": 0, "until": 447.57755458333816}, {"on": false, "note": 79, "velocity": 0, "until": 447.69566458333804}, {"on": true, "note": 79, "velocity": 100, "until": 447.69566458333804}, {"on": true, "note": 76, "velocity": 100, "until": 447.93188458333793}, {"on": false, "note": 76, "velocity": 0, "until": 447.93188458333793}, {"on": false, "note": 79, "velocity": 0, "until": 448.1680591583378}, {"on": true, "note": 79, "velocity": 100, "until": 448.1680591583378}, {"on": true, "note": 74, "velocity": 100, "until": 448.61036640833754}, {"on": false, "note": 74, "velocity": 0, "until": 448.61036640833754}, {"on": false, "note": 79, "velocity": 0, "until": 448.62971489167086}, {"on": true, "note": 79, "velocity": 100, "until": 448.62971489167086}, {"on": true, "note": 73, "velocity": 100, "until": 449.09910080833754}, {"on": false, "note": 73, "velocity": 0, "until": 449.09910080833754}, {"on": false, "note": 79, "velocity": 0, "until": 449.1193911583375}, {"on": true, "note": 74, "velocity": 100, "until": 449.1193911583375}, {"on": true, "note": 72, "velocity": 100, "until": 449.56169840833724}, {"on": false, "note": 72, "velocity": 0, "until": 449.56169840833724}, {"on": false, "note": 74, "velocity": 0, "until": 449.58104689167055}, {"on": true, "note": 74, "velocity": 100, "until": 449.58104689167055}, {"on": true, "note": 71, "velocity": 100, "until": 450.05043280833723}, {"on": false, "note": 71, "velocity": 0, "until": 450.05043280833723}, {"on": false, "note": 74, "velocity": 0, "until": 450.0707231583372}, {"on": true, "note": 70, "velocity": 100, "until": 450.0707231583372}, {"on": true, "note": 74, "velocity": 100, "until": 450.51303040833693}, {"on": false, "note": 74, "velocity": 0, "until": 450.51303040833693}, {"on": false, "note": 70, "velocity": 0, "until": 450.53237889167025}, {"on": true, "note": 75, "velocity": 100, "until": 450.53237889167025}, {"on": true, "note": 68, "velocity": 100, "until": 450.7772758916703}, {"on": false, "note": 75, "velocity": 0, "until": 450.7772758916703}, {"on": true, "note": 72, "velocity": 115, "until": 450.8997243916703}, {"on": false, "note": 72, "velocity": 0, "until": 450.8997243916703}, {"on": true, "note": 74, "velocity": 115, "until": 451.01196885000365}, {"on": false, "note": 74, "velocity": 0, "until": 451.02205515833697}, {"on": true, "note": 75, "velocity": 100, "until": 451.2528241583369}, {"on": false, "note": 68, "velocity": 0, "until": 451.2528241583369}, {"on": true, "note": 67, "velocity": 100, "until": 451.4393624333369}, {"on": false, "note": 67, "velocity": 0, "until": 451.4837108916702}, {"on": true, "note": 68, "velocity": 100, "until": 451.70819980833693}, {"on": false, "note": 75, "velocity": 0, "until": 451.72860789167026}, {"on": true, "note": 72, "velocity": 115, "until": 451.8510563916703}, {"on": false, "note": 72, "velocity": 0, "until": 451.8510563916703}, {"on": true, "note": 74, "velocity": 115, "until": 451.96330085000363}, {"on": false, "note": 74, "velocity": 0, "until": 451.97338715833695}, {"on": true, "note": 75, "velocity": 100, "until": 452.20415615833645}, {"on": false, "note": 68, "velocity": 0, "until": 452.20415615833645}, {"on": true, "note": 67, "velocity": 100, "until": 452.3906944333364}, {"on": false, "note": 67, "velocity": 0, "until": 452.43504289166975}, {"on": false, "note": 75, "velocity": 0, "until": 452.43504289166975}, {"on": true, "note": 68, "velocity": 100, "until": 452.43504289166975}, {"on": true, "note": 75, "velocity": 100, "until": 452.6799398916698}, {"on": false, "note": 68, "velocity": 0, "until": 452.6799398916698}, {"on": true, "note": 67, "velocity": 100, "until": 452.9044288083365}, {"on": false, "note": 67, "velocity": 0, "until": 452.9044288083365}, {"on": false, "note": 75, "velocity": 0, "until": 452.9247191583365}, {"on": true, "note": 68, "velocity": 100, "until": 452.9247191583365}, {"on": true, "note": 75, "velocity": 100, "until": 453.15548815833614}, {"on": false, "note": 68, "velocity": 0, "until": 453.15548815833614}, {"on": true, "note": 67, "velocity": 100, "until": 453.3670264083361}, {"on": false, "note": 67, "velocity": 0, "until": 453.3670264083361}, {"on": false, "note": 75, "velocity": 0, "until": 453.3863748916694}, {"on": true, "note": 68, "velocity": 100, "until": 453.3863748916694}, {"on": true, "note": 75, "velocity": 100, "until": 453.6312718916694}, {"on": false, "note": 68, "velocity": 0, "until": 453.6312718916694}, {"on": true, "note": 67, "velocity": 100, "until": 453.85576080833613}, {"on": false, "note": 67, "velocity": 0, "until": 453.85576080833613}, {"on": false, "note": 75, "velocity": 0, "until": 453.8760511583361}, {"on": true, "note": 68, "velocity": 100, "until": 453.8760511583361}, {"on": true, "note": 75, "velocity": 100, "until": 454.1068201583358}, {"on": false, "note": 68, "velocity": 0, "until": 454.1068201583358}, {"on": true, "note": 67, "velocity": 100, "until": 454.3183584083357}, {"on": false, "note": 67, "velocity": 0, "until": 454.3183584083357}, {"on": false, "note": 75, "velocity": 0, "until": 454.33770689166903}, {"on": true, "note": 75, "velocity": 100, "until": 454.33770689166903}, {"on": true, "note": 78, "velocity": 100, "until": 454.56219580833573}, {"on": false, "note": 75, "velocity": 0, "until": 454.58260389166907}, {"on": true, "note": 72, "velocity": 115, "until": 454.7050523916691}, {"on": false, "note": 72, "velocity": 0, "until": 454.7050523916691}, {"on": true, "note": 74, "velocity": 115, "until": 454.82738315833575}, {"on": false, "note": 74, "velocity": 0, "until": 454.82738315833575}, {"on": true, "note": 75, "velocity": 100, "until": 455.0581521583357}, {"on": false, "note": 78, "velocity": 0, "until": 455.0581521583357}, {"on": true, "note": 79, "velocity": 100, "until": 455.26969040833563}, {"on": false, "note": 79, "velocity": 0, "until": 455.28903889166895}, {"on": true, "note": 78, "velocity": 100, "until": 455.51352780833565}, {"on": false, "note": 75, "velocity": 0, "until": 455.533935891669}, {"on": true, "note": 72, "velocity": 115, "until": 455.656384391669}, {"on": false, "note": 72, "velocity": 0, "until": 455.656384391669}, {"on": true, "note": 74, "velocity": 115, "until": 455.7787151583357}, {"on": false, "note": 74, "velocity": 0, "until": 455.7787151583357}, {"on": true, "note": 75, "velocity": 100, "until": 456.0094841583356}, {"on": false, "note": 78, "velocity": 0, "until": 456.0094841583356}, {"on": true, "note": 79, "velocity": 100, "until": 456.22102240833556}, {"on": false, "note": 79, "velocity": 0, "until": 456.22102240833556}, {"on": false, "note": 75, "velocity": 0, "until": 456.2403708916689}, {"on": true, "note": 75, "velocity": 100, "until": 456.2403708916689}, {"on": true, "note": 78, "velocity": 100, "until": 456.4852678916689}, {"on": false, "note": 78, "velocity": 0, "until": 456.4852678916689}, {"on": true, "note": 79, "velocity": 100, "until": 456.7097568083356}, {"on": false, "note": 79, "velocity": 0, "until": 456.7097568083356}, {"on": false, "note": 75, "velocity": 0, "until": 456.7300471583356}, {"on": true, "note": 75, "velocity": 100, "until": 456.7300471583356}, {"on": true, "note": 78, "velocity": 100, "until": 456.96081615833526}, {"on": false, "note": 78, "velocity": 0, "until": 456.96081615833526}, {"on": true, "note": 79, "velocity": 100, "until": 457.1723544083352}, {"on": false, "note": 79, "velocity": 0, "until": 457.1723544083352}, {"on": false, "note": 75, "velocity": 0, "until": 457.1917028916685}, {"on": true, "note": 75, "velocity": 100, "until": 457.1917028916685}, {"on": true, "note": 78, "velocity": 100, "until": 457.43659989166855}, {"on": false, "note": 78, "velocity": 0, "until": 457.43659989166855}, {"on": true, "note": 79, "velocity": 100, "until": 457.66108880833525}, {"on": false, "note": 79, "velocity": 0, "until": 457.66108880833525}, {"on": false, "note": 75, "velocity": 0, "until": 457.68137915833523}, {"on": true, "note": 75, "velocity": 100, "until": 457.68137915833523}, {"on": true, "note": 78, "velocity": 100, "until": 457.9121481583349}, {"on": false, "note": 75, "velocity": 0, "until": 457.9121481583349}, {"on": true, "note": 72, "velocity": 100, "until": 458.12368640833483}, {"on": false, "note": 72, "velocity": 0, "until": 458.12368640833483}, {"on": false, "note": 78, "velocity": 0, "until": 458.14303489166815}, {"on": true, "note": 74, "velocity": 100, "until": 458.14303489166815}, {"on": true, "note": 79, "velocity": 100, "until": 458.86897658333476}, {"on": false, "note": 79, "velocity": 0, "until": 458.86897658333476}, {"on": false, "note": 74, "velocity": 0, "until": 458.86897658333476}, {"on": true, "note": 78, "velocity": 100, "until": 458.86897658333476}, {"on": true, "note": 75, "velocity": 100, "until": 459.105302766668}, {"on": false, "note": 75, "velocity": 0, "until": 459.105302766668}, {"on": false, "note": 78, "velocity": 0, "until": 459.105302766668}, {"on": true, "note": 79, "velocity": 100, "until": 459.105302766668}, {"on": true, "note": 74, "velocity": 100, "until": 459.84218710833426}, {"on": false, "note": 74, "velocity": 0, "until": 459.84218710833426}, {"on": false, "note": 79, "velocity": 0, "until": 459.84218710833426}, {"on": true, "note": 75, "velocity": 100, "until": 459.84218710833426}, {"on": true, "note": 78, "velocity": 100, "until": 460.0813214166676}, {"on": false, "note": 78, "velocity": 0, "until": 460.0813214166676}, {"on": false, "note": 75, "velocity": 0, "until": 460.0813214166676}, {"on": true, "note": 79, "velocity": 100, "until": 460.0813214166676}, {"on": true, "note": 74, "velocity": 100, "until": 460.33132141666766}, {"on": false, "note": 74, "velocity": 0, "until": 460.33132141666766}, {"on": false, "note": 79, "velocity": 0, "until": 460.33132141666766}, {"on": true, "note": 81, "velocity": 100, "until": 460.33132141666766}, {"on": true, "note": 76, "velocity": 100, "until": 460.58125420833437}, {"on": false, "note": 76, "velocity": 0, "until": 460.58125420833437}, {"on": false, "note": 81, "velocity": 0, "until": 460.58125420833437}, {"on": true, "note": 79, "velocity": 100, "until": 460.58125420833437}, {"on": true, "note": 74, "velocity": 100, "until": 460.8231892083344}, {"on": false, "note": 74, "velocity": 0, "until": 460.8231892083344}, {"on": false, "note": 79, "velocity": 0, "until": 460.8231892083344}, {"on": true, "note": 77, "velocity": 100, "until": 460.8231892083344}, {"on": true, "note": 72, "velocity": 100, "until": 461.0651488916678}, {"on": false, "note": 72, "velocity": 0, "until": 461.0651488916678}, {"on": false, "note": 77, "velocity": 0, "until": 461.0651488916678}, {"on": true, "note": 76, "velocity": 100, "until": 461.0651488916678}, {"on": true, "note": 71, "velocity": 100, "until": 461.3100458916678}, {"on": false, "note": 71, "velocity": 0, "until": 461.3100458916678}, {"on": false, "note": 76, "velocity": 0, "until": 461.3100458916678}, {"on": true, "note": 77, "velocity": 100, "until": 461.3100458916678}, {"on": true, "note": 72, "velocity": 100, "until": 461.5549596916679}, {"on": false, "note": 72, "velocity": 0, "until": 461.5549596916679}, {"on": false, "note": 77, "velocity": 0, "until": 461.5549596916679}, {"on": true, "note": 76, "velocity": 100, "until": 461.5549596916679}, {"on": true, "note": 71, "velocity": 100, "until": 461.80187269166794}, {"on": false, "note": 71, "velocity": 0, "until": 461.80187269166794}, {"on": false, "note": 76, "velocity": 0, "until": 461.80187269166794}, {"on": true, "note": 74, "velocity": 100, "until": 461.80187269166794}, {"on": true, "note": 67, "velocity": 100, "until": 462.0488201333346}, {"on": false, "note": 67, "velocity": 0, "until": 462.0488201333346}, {"on": false, "note": 74, "velocity": 0, "until": 462.0488201333346}, {"on": true, "note": 72, "velocity": 100, "until": 462.0488201333346}, {"on": true, "note": 67, "velocity": 100, "until": 462.29986613333443}, {"on": false, "note": 67, "velocity": 0, "until": 462.29986613333443}, {"on": false, "note": 72, "velocity": 0, "until": 462.29986613333443}, {"on": true, "note": 67, "velocity": 100, "until": 462.42538913333436}, {"on": false, "note": 67, "velocity": 0, "until": 462.5508362083343}, {"on": true, "note": 72, "velocity": 100, "until": 463.2858281333344}, {"on": false, "note": 72, "velocity": 0, "until": 463.2858281333344}, {"on": true, "note": 67, "velocity": 100, "until": 463.41135113333434}, {"on": false, "note": 67, "velocity": 0, "until": 463.5367982083343}, {"on": true, "note": 76, "velocity": 100, "until": 464.2717901333344}, {"on": false, "note": 76, "velocity": 0, "until": 464.2717901333344}, {"on": true, "note": 74, "velocity": 100, "until": 464.3973131333343}, {"on": false, "note": 74, "velocity": 0, "until": 464.52276020833426}, {"on": true, "note": 77, "velocity": 100, "until": 465.25775213333435}, {"on": false, "note": 77, "velocity": 0, "until": 465.25775213333435}, {"on": true, "note": 74, "velocity": 100, "until": 465.3832751333343}, {"on": false, "note": 74, "velocity": 0, "until": 465.50872220833423}, {"on": true, "note": 81, "velocity": 100, "until": 465.99266813333446}, {"on": false, "note": 81, "velocity": 0, "until": 465.99266813333446}, {"on": true, "note": 79, "velocity": 100, "until": 466.3692371333334}, {"on": false, "note": 79, "velocity": 0, "until": 466.3692371333334}, {"on": true, "note": 81, "velocity": 100, "until": 466.4946842083332}, {"on": false, "note": 81, "velocity": 0, "until": 466.4946842083332}, {"on": true, "note": 79, "velocity": 100, "until": 466.7366192083333}, {"on": false, "note": 79, "velocity": 0, "until": 466.7366192083333}, {"on": true, "note": 77, "velocity": 100, "until": 466.8575867083334}, {"on": false, "note": 77, "velocity": 0, "until": 466.9786301333334}, {"on": true, "note": 76, "velocity": 100, "until": 467.10415313333334}, {"on": false, "note": 76, "velocity": 0, "until": 467.10415313333334}, {"on": true, "note": 77, "velocity": 100, "until": 467.22967613333327}, {"on": false, "note": 77, "velocity": 0, "until": 467.22967613333327}, {"on": true, "note": 76, "velocity": 100, "until": 467.3551991333332}, {"on": false, "note": 76, "velocity": 0, "until": 467.3551991333332}, {"on": true, "note": 74, "velocity": 100, "until": 467.48064620833316}, {"on": false, "note": 74, "velocity": 0, "until": 467.48064620833316}, {"on": true, "note": 76, "velocity": 100, "until": 467.5491944583332}, {"on": false, "note": 76, "velocity": 0, "until": 467.7225812083333}, {"on": true, "note": 84, "velocity": 100, "until": 467.79112945833333}, {"on": false, "note": 84, "velocity": 0, "until": 467.9645921333334}, {"on": true, "note": 79, "velocity": 100, "until": 468.3411611333323}, {"on": false, "note": 79, "velocity": 0, "until": 468.3411611333323}, {"on": true, "note": 81, "velocity": 100, "until": 468.4666082083321}, {"on": false, "note": 81, "velocity": 0, "until": 468.4666082083321}, {"on": true, "note": 79, "velocity": 100, "until": 468.70854320833223}, {"on": false, "note": 79, "velocity": 0, "until": 468.70854320833223}, {"on": true, "note": 77, "velocity": 100, "until": 468.8295107083323}, {"on": false, "note": 77, "velocity": 0, "until": 468.95055413333233}, {"on": true, "note": 76, "velocity": 100, "until": 469.07607713333226}, {"on": false, "note": 76, "velocity": 0, "until": 469.07607713333226}, {"on": true, "note": 77, "velocity": 100, "until": 469.2016001333322}, {"on": false, "note": 77, "velocity": 0, "until": 469.2016001333322}, {"on": true, "note": 76, "velocity": 100, "until": 469.3271231333321}, {"on": false, "note": 76, "velocity": 0, "until": 469.3271231333321}, {"on": true, "note": 74, "velocity": 100, "until": 469.4525702083321}, {"on": false, "note": 74, "velocity": 0, "until": 469.4525702083321}, {"on": true, "note": 72, "velocity": 100, "until": 469.6948475666655}, {"on": false, "note": 72, "velocity": 0, "until": 470.73526489166534}, {"on": true, "note": 67, "velocity": 80, "until": 470.85771339166536}, {"on": false, "note": 67, "velocity": 0, "until": 470.980257833332}, {"on": true, "note": 79, "velocity": 80, "until": 471.7378788916654}, {"on": false, "note": 79, "velocity": 0, "until": 471.7378788916654}, {"on": true, "note": 75, "velocity": 80, "until": 471.8603273916654}, {"on": false, "note": 75, "velocity": 0, "until": 471.98287183333207}, {"on": true, "note": 72, "velocity": 80, "until": 472.7302888499988}, {"on": false, "note": 72, "velocity": 0, "until": 472.74049289166544}, {"on": true, "note": 72, "velocity": 80, "until": 472.86294139166546}, {"on": false, "note": 72, "velocity": 0, "until": 472.9854858333321}, {"on": true, "note": 78, "velocity": 80, "until": 473.49820989166545}, {"on": false, "note": 78, "velocity": 0, "until": 478.0263411333307}, {"on": true, "note": 79, "velocity": 100, "until": 478.0263411333307}, {"on": true, "note": 67, "velocity": 100, "until": 478.52835720832996}, {"on": false, "note": 67, "velocity": 0, "until": 478.52835720832996}, {"on": false, "note": 79, "velocity": 0, "until": 478.7702922083301}, {"on": true, "note": 71, "velocity": 100, "until": 478.7702922083301}, {"on": true, "note": 74, "velocity": 100, "until": 478.89125970833015}, {"on": false, "note": 74, "velocity": 0, "until": 478.89125970833015}, {"on": false, "note": 71, "velocity": 0, "until": 479.0123031333302}, {"on": true, "note": 75, "velocity": 100, "until": 479.0123031333302}, {"on": true, "note": 72, "velocity": 100, "until": 479.1378261333301}, {"on": false, "note": 72, "velocity": 0, "until": 479.1378261333301}, {"on": false, "note": 75, "velocity": 0, "until": 479.26334913333}, {"on": true, "note": 77, "velocity": 100, "until": 479.26334913333}, {"on": true, "note": 74, "velocity": 100, "until": 479.3888721333299}, {"on": false, "note": 74, "velocity": 0, "until": 479.3888721333299}, {"on": false, "note": 77, "velocity": 0, "until": 479.5143192083299}, {"on": true, "note": 79, "velocity": 100, "until": 479.5143192083299}, {"on": true, "note": 75, "velocity": 100, "until": 479.63528670832994}, {"on": false, "note": 75, "velocity": 0, "until": 479.63528670832994}, {"on": false, "note": 79, "velocity": 0, "until": 479.99826513333}, {"on": true, "note": 74, "velocity": 100, "until": 480.74221620832947}, {"on": false, "note": 74, "velocity": 0, "until": 480.74221620832947}, {"on": true, "note": 74, "velocity": 100, "until": 480.8631837083295}, {"on": false, "note": 74, "velocity": 0, "until": 480.98422713332945}, {"on": true, "note": 75, "velocity": 100, "until": 481.10975013332944}, {"on": false, "note": 75, "velocity": 0, "until": 481.2352731333294}, {"on": true, "note": 74, "velocity": 100, "until": 481.36079613332936}, {"on": false, "note": 74, "velocity": 0, "until": 481.48624320832937}, {"on": true, "note": 75, "velocity": 100, "until": 481.6072107083294}, {"on": false, "note": 75, "velocity": 0, "until": 481.9701631916627}, {"on": true, "note": 79, "velocity": 100, "until": 481.9701631916627}, {"on": true, "note": 67, "velocity": 100, "until": 482.4659393666627}, {"on": false, "note": 67, "velocity": 0, "until": 482.4659393666627}, {"on": false, "note": 79, "velocity": 0, "until": 482.7030933666626}, {"on": true, "note": 71, "velocity": 100, "until": 482.7030933666626}, {"on": true, "note": 74, "velocity": 100, "until": 482.8216703666625}, {"on": false, "note": 74, "velocity": 0, "until": 482.8216703666625}, {"on": false, "note": 71, "velocity": 0, "until": 482.9403371916624}, {"on": true, "note": 75, "velocity": 100, "until": 482.9403371916624}, {"on": true, "note": 72, "velocity": 100, "until": 483.0643036916625}, {"on": false, "note": 72, "velocity": 0, "until": 483.0643036916625}, {"on": false, "note": 75, "velocity": 0, "until": 483.1882701916625}, {"on": true, "note": 77, "velocity": 100, "until": 483.1882701916625}, {"on": true, "note": 74, "velocity": 100, "until": 483.3122366916626}, {"on": false, "note": 74, "velocity": 0, "until": 483.3122366916626}, {"on": false, "note": 77, "velocity": 0, "until": 483.4361133666626}, {"on": true, "note": 79, "velocity": 100, "until": 483.4361133666626}, {"on": true, "note": 75, "velocity": 100, "until": 483.5546903666625}, {"on": false, "note": 75, "velocity": 0, "until": 483.5546903666625}, {"on": false, "note": 79, "velocity": 0, "until": 483.91051119166247}, {"on": true, "note": 74, "velocity": 100, "until": 484.64344136666267}, {"on": false, "note": 74, "velocity": 0, "until": 484.64344136666267}, {"on": true, "note": 74, "velocity": 100, "until": 484.7620183666626}, {"on": false, "note": 74, "velocity": 0, "until": 484.8806851916625}, {"on": true, "note": 75, "velocity": 100, "until": 485.0046516916625}, {"on": false, "note": 75, "velocity": 0, "until": 485.12861819166255}, {"on": true, "note": 74, "velocity": 100, "until": 485.25258469166255}, {"on": false, "note": 74, "velocity": 0, "until": 485.3764613666625}, {"on": true, "note": 75, "velocity": 100, "until": 485.4950383666624}, {"on": false, "note": 75, "velocity": 0, "until": 485.8508173666624}, {"on": true, "note": 74, "velocity": 100, "until": 486.336529474996}, {"on": false, "note": 74, "velocity": 0, "until": 486.565536474996}, {"on": true, "note": 69, "velocity": 100, "until": 486.565536474996}, {"on": true, "note": 66, "velocity": 100, "until": 486.6800399749961}, {"on": false, "note": 66, "velocity": 0, "until": 486.6800399749961}, {"on": false, "note": 69, "velocity": 0, "until": 486.7946593666628}, {"on": true, "note": 70, "velocity": 100, "until": 486.7946593666628}, {"on": true, "note": 67, "velocity": 100, "until": 486.9161163666629}, {"on": false, "note": 67, "velocity": 0, "until": 486.9161163666629}, {"on": false, "note": 70, "velocity": 0, "until": 487.0375733666629}, {"on": true, "note": 72, "velocity": 100, "until": 487.0375733666629}, {"on": true, "note": 69, "velocity": 100, "until": 487.15903036666293}, {"on": false, "note": 69, "velocity": 0, "until": 487.15903036666293}, {"on": false, "note": 72, "velocity": 0, "until": 487.2803714749963}, {"on": true, "note": 74, "velocity": 100, "until": 487.2803714749963}, {"on": true, "note": 70, "velocity": 100, "until": 487.39487497499636}, {"on": false, "note": 70, "velocity": 0, "until": 487.39487497499636}, {"on": false, "note": 74, "velocity": 0, "until": 487.7385013666632}, {"on": true, "note": 77, "velocity": 100, "until": 488.22421347499755}, {"on": false, "note": 77, "velocity": 0, "until": 488.4532204749976}, {"on": true, "note": 72, "velocity": 100, "until": 488.4532204749976}, {"on": true, "note": 69, "velocity": 100, "until": 488.56772397499765}, {"on": false, "note": 69, "velocity": 0, "until": 488.56772397499765}, {"on": false, "note": 72, "velocity": 0, "until": 488.6823433666644}, {"on": true, "note": 74, "velocity": 100, "until": 488.6823433666644}, {"on": true, "note": 70, "velocity": 100, "until": 488.80380036666446}, {"on": false, "note": 70, "velocity": 0, "until": 488.80380036666446}, {"on": false, "note": 74, "velocity": 0, "until": 488.9252573666645}, {"on": true, "note": 75, "velocity": 100, "until": 488.9252573666645}, {"on": true, "note": 72, "velocity": 100, "until": 489.0467143666645}, {"on": false, "note": 72, "velocity": 0, "until": 489.0467143666645}, {"on": false, "note": 75, "velocity": 0, "until": 489.16805547499786}, {"on": true, "note": 77, "velocity": 100, "until": 489.16805547499786}, {"on": true, "note": 74, "velocity": 100, "until": 489.2825589749979}, {"on": false, "note": 74, "velocity": 0, "until": 489.2825589749979}, {"on": false, "note": 77, "velocity": 0, "until": 489.626564924998}, {"on": true, "note": 72, "velocity": 100, "until": 489.626564924998}, {"on": true, "note": 78, "velocity": 100, "until": 490.03970541666456}, {"on": false, "note": 78, "velocity": 0, "until": 490.03970541666456}, {"on": true, "note": 79, "velocity": 100, "until": 490.1542887499979}, {"on": false, "note": 72, "velocity": 0, "until": 490.16460620833124}, {"on": false, "note": 79, "velocity": 0, "until": 490.16460620833124}, {"on": true, "note": 78, "velocity": 100, "until": 490.16460620833124}, {"on": true, "note": 72, "velocity": 100, "until": 490.2836537083312}, {"on": false, "note": 72, "velocity": 0, "until": 490.2836537083312}, {"on": false, "note": 78, "velocity": 0, "until": 490.40270120833117}, {"on": true, "note": 78, "velocity": 100, "until": 490.40270120833117}, {"on": true, "note": 72, "velocity": 100, "until": 490.52174870833113}, {"on": false, "note": 72, "velocity": 0, "until": 490.52174870833113}, {"on": false, "note": 78, "velocity": 0, "until": 490.64094883333104}, {"on": true, "note": 84, "velocity": 100, "until": 490.64094883333104}, {"on": true, "note": 72, "velocity": 100, "until": 491.15367289166426}, {"on": false, "note": 84, "velocity": 0, "until": 491.15367289166426}, {"on": true, "note": 78, "velocity": 100, "until": 491.643562833331}, {"on": false, "note": 78, "velocity": 0, "until": 491.643562833331}, {"on": false, "note": 72, "velocity": 0, "until": 491.643562833331}, {"on": true, "note": 79, "velocity": 100, "until": 491.643562833331}, {"on": true, "note": 72, "velocity": 100, "until": 492.0281778333308}, {"on": false, "note": 79, "velocity": 0, "until": 492.0281778333308}, {"on": true, "note": 81, "velocity": 100, "until": 492.1456990833308}, {"on": false, "note": 72, "velocity": 0, "until": 492.1562868916641}, {"on": false, "note": 81, "velocity": 0, "until": 492.1562868916641}, {"on": true, "note": 79, "velocity": 100, "until": 492.1562868916641}, {"on": true, "note": 72, "velocity": 100, "until": 492.2787353916641}, {"on": false, "note": 72, "velocity": 0, "until": 492.2787353916641}, {"on": false, "note": 79, "velocity": 0, "until": 492.4011838916641}, {"on": true, "note": 79, "velocity": 100, "until": 492.4011838916641}, {"on": true, "note": 72, "velocity": 100, "until": 492.52363239166414}, {"on": false, "note": 72, "velocity": 0, "until": 492.52363239166414}, {"on": false, "note": 79, "velocity": 0, "until": 492.6461768333308}, {"on": true, "note": 71, "velocity": 100, "until": 492.6461768333308}, {"on": true, "note": 79, "velocity": 100, "until": 493.6926094666641}, {"on": false, "note": 79, "velocity": 0, "until": 493.6926094666641}, {"on": false, "note": 71, "velocity": 0, "until": 493.6926094666641}, {"on": true, "note": 72, "velocity": 100, "until": 493.6926094666641}, {"on": true, "note": 67, "velocity": 100, "until": 493.95809546666413}, {"on": false, "note": 72, "velocity": 0, "until": 494.0908384666642}, {"on": false, "note": 67, "velocity": 0, "until": 494.0908384666642}, {"on": true, "note": 69, "velocity": 100, "until": 494.2234524166642}, {"on": false, "note": 69, "velocity": 0, "until": 494.2234524166642}, {"on": true, "note": 67, "velocity": 100, "until": 494.4630357499976}, {"on": false, "note": 67, "velocity": 0, "until": 494.47345241666426}, {"on": true, "note": 67, "velocity": 100, "until": 494.59845241666426}, {"on": false, "note": 67, "velocity": 0, "until": 494.72354299166426}, {"on": true, "note": 67, "velocity": 100, "until": 494.9844119916644}, {"on": false, "note": 67, "velocity": 0, "until": 494.9844119916644}, {"on": true, "note": 71, "velocity": 100, "until": 495.24519041666457}, {"on": false, "note": 71, "velocity": 0, "until": 495.24519041666457}, {"on": true, "note": 74, "velocity": 100, "until": 495.4951904166646}, {"on": false, "note": 74, "velocity": 0, "until": 495.4951904166646}, {"on": true, "note": 77, "velocity": 100, "until": 495.73477374999794}, {"on": false, "note": 77, "velocity": 0, "until": 495.74528099166463}, {"on": true, "note": 76, "velocity": 100, "until": 496.767018991665}, {"on": false, "note": 76, "velocity": 0, "until": 496.767018991665}, {"on": true, "note": 77, "velocity": 100, "until": 497.0278879916652}, {"on": false, "note": 77, "velocity": 0, "until": 497.0278879916652}, {"on": true, "note": 74, "velocity": 100, "until": 497.2886664166654}, {"on": false, "note": 74, "velocity": 0, "until": 497.2886664166654}, {"on": true, "note": 71, "velocity": 100, "until": 497.53866641666554}, {"on": false, "note": 71, "velocity": 0, "until": 497.53866641666554}, {"on": true, "note": 67, "velocity": 100, "until": 497.7782497499989}, {"on": false, "note": 67, "velocity": 0, "until": 497.78875699166565}, {"on": true, "note": 67, "velocity": 100, "until": 498.1800604916659}, {"on": false, "note": 67, "velocity": 0, "until": 498.1800604916659}, {"on": true, "note": 69, "velocity": 100, "until": 498.310404416666}, {"on": false, "note": 69, "velocity": 0, "until": 498.310404416666}, {"on": true, "note": 67, "velocity": 100, "until": 498.5499877499994}, {"on": false, "note": 67, "velocity": 0, "until": 498.5604044166661}, {"on": true, "note": 67, "velocity": 100, "until": 498.6854044166661}, {"on": false, "note": 67, "velocity": 0, "until": 498.8104949916661}, {"on": true, "note": 67, "velocity": 100, "until": 499.07136399166626}, {"on": false, "note": 67, "velocity": 0, "until": 499.07136399166626}, {"on": true, "note": 71, "velocity": 100, "until": 499.3321424166665}, {"on": false, "note": 71, "velocity": 0, "until": 499.3321424166665}, {"on": true, "note": 74, "velocity": 100, "until": 499.5821424166666}, {"on": false, "note": 74, "velocity": 0, "until": 499.5821424166666}, {"on": true, "note": 77, "velocity": 100, "until": 499.82172575}, {"on": false, "note": 77, "velocity": 0, "until": 499.8321958333333}, {"on": true, "note": 76, "velocity": 100, "until": 500.8348098333332}, {"on": false, "note": 76, "velocity": 0, "until": 500.8348098333332}, {"on": true, "note": 77, "velocity": 100, "until": 501.0912198333332}, {"on": false, "note": 77, "velocity": 0, "until": 501.0912198333332}, {"on": true, "note": 74, "velocity": 100, "until": 501.34753389166644}, {"on": false, "note": 74, "velocity": 0, "until": 501.34753389166644}, {"on": true, "note": 71, "velocity": 100, "until": 501.5924308916665}, {"on": false, "note": 71, "velocity": 0, "until": 501.5924308916665}, {"on": true, "note": 67, "velocity": 100, "until": 501.82712384999985}, {"on": false, "note": 67, "velocity": 0, "until": 501.83742383333316}, {"on": true, "note": 72, "velocity": 100, "until": 502.09383383333306}, {"on": false, "note": 72, "velocity": 0, "until": 502.35009910833304}, {"on": true, "note": 69, "velocity": 115, "until": 502.35009910833304}, {"on": true, "note": 81, "velocity": 115, "until": 503.32816158333287}, {"on": false, "note": 81, "velocity": 0, "until": 503.32816158333287}, {"on": false, "note": 69, "velocity": 0, "until": 503.32816158333287}, {"on": true, "note": 84, "velocity": 100, "until": 503.32816158333287}, {"on": true, "note": 72, "velocity": 100, "until": 504.04804608333257}, {"on": false, "note": 72, "velocity": 0, "until": 504.04804608333257}, {"on": false, "note": 84, "velocity": 0, "until": 508.32548436666605}, {"on": true, "note": 67, "velocity": 100, "until": 508.446941366666}, {"on": false, "note": 67, "velocity": 0, "until": 508.568398366666}, {"on": true, "note": 67, "velocity": 100, "until": 508.8113801333326}, {"on": false, "note": 67, "velocity": 0, "until": 508.8113801333326}, {"on": true, "note": 81, "velocity": 100, "until": 509.31339620833234}, {"on": false, "note": 81, "velocity": 0, "until": 509.31339620833234}, {"on": true, "note": 79, "velocity": 100, "until": 509.43436370833234}, {"on": false, "note": 79, "velocity": 0, "until": 509.43436370833234}, {"on": true, "note": 77, "velocity": 100, "until": 509.55533120833235}, {"on": false, "note": 77, "velocity": 0, "until": 509.55533120833235}, {"on": true, "note": 76, "velocity": 100, "until": 509.67629870833235}, {"on": false, "note": 76, "velocity": 0, "until": 509.67629870833235}, {"on": true, "note": 74, "velocity": 100, "until": 509.79732476666567}, {"on": false, "note": 74, "velocity": 0, "until": 509.79732476666567}, {"on": true, "note": 72, "velocity": 100, "until": 510.0462867666656}, {"on": false, "note": 72, "velocity": 0, "until": 510.2951425833322}, {"on": true, "note": 69, "velocity": 115, "until": 510.2951425833322}, {"on": true, "note": 81, "velocity": 115, "until": 511.25936920833186}, {"on": false, "note": 81, "velocity": 0, "until": 511.25936920833186}, {"on": false, "note": 69, "velocity": 0, "until": 511.25936920833186}, {"on": true, "note": 84, "velocity": 100, "until": 511.25936920833186}, {"on": true, "note": 72, "velocity": 100, "until": 511.97158008333196}, {"on": false, "note": 72, "velocity": 0, "until": 511.97158008333196}, {"on": false, "note": 84, "velocity": 0, "until": 515.1060384750003}, {"on": true, "note": 72, "velocity": 100, "until": 515.1060384750003}, {"on": true, "note": 74, "velocity": 100, "until": 515.3255035166673}, {"on": false, "note": 74, "velocity": 0, "until": 515.3255035166673}, {"on": false, "note": 72, "velocity": 0, "until": 515.3350454750007}, {"on": true, "note": 74, "velocity": 100, "until": 515.3350454750007}, {"on": true, "note": 72, "velocity": 100, "until": 515.5545105166676}, {"on": false, "note": 72, "velocity": 0, "until": 515.5545105166676}, {"on": false, "note": 74, "velocity": 0, "until": 515.5641683666677}, {"on": true, "note": 76, "velocity": 100, "until": 515.5641683666677}, {"on": true, "note": 72, "velocity": 100, "until": 516.0501272500009}, {"on": false, "note": 72, "velocity": 0, "until": 516.0501272500009}, {"on": false, "note": 76, "velocity": 0, "until": 517.0251498666679}, {"on": true, "note": 79, "velocity": 100, "until": 517.1427968666678}, {"on": false, "note": 79, "velocity": 0, "until": 517.2604438666677}, {"on": true, "note": 79, "velocity": 100, "until": 517.4958013666677}, {"on": false, "note": 79, "velocity": 0, "until": 517.4958013666677}, {"on": true, "note": 84, "velocity": 100, "until": 517.9815658666677}, {"on": false, "note": 84, "velocity": 0, "until": 517.9815658666677}, {"on": true, "note": 83, "velocity": 100, "until": 518.0992128666676}, {"on": false, "note": 83, "velocity": 0, "until": 518.0992128666676}, {"on": true, "note": 81, "velocity": 100, "until": 518.2168598666675}, {"on": false, "note": 81, "velocity": 0, "until": 518.2168598666675}, {"on": true, "note": 79, "velocity": 100, "until": 518.3345068666675}, {"on": false, "note": 79, "velocity": 0, "until": 518.3345068666675}, {"on": true, "note": 77, "velocity": 100, "until": 518.4522173666675}, {"on": false, "note": 77, "velocity": 0, "until": 518.4522173666675}, {"on": true, "note": 76, "velocity": 100, "until": 518.6951313666679}, {"on": false, "note": 76, "velocity": 0, "until": 520.8508138666682}, {"on": true, "note": 79, "velocity": 100, "until": 520.9684608666681}, {"on": false, "note": 79, "velocity": 0, "until": 521.086107866668}, {"on": true, "note": 79, "velocity": 100, "until": 521.321465366668}, {"on": false, "note": 79, "velocity": 0, "until": 521.321465366668}, {"on": true, "note": 84, "velocity": 100, "until": 521.8072298666676}, {"on": false, "note": 84, "velocity": 0, "until": 521.8072298666676}, {"on": true, "note": 83, "velocity": 100, "until": 521.9248768666677}, {"on": false, "note": 83, "velocity": 0, "until": 521.9248768666677}, {"on": true, "note": 81, "velocity": 100, "until": 522.0425238666676}, {"on": false, "note": 81, "velocity": 0, "until": 522.0425238666676}, {"on": true, "note": 79, "velocity": 100, "until": 522.1601708666676}, {"on": false, "note": 79, "velocity": 0, "until": 522.1601708666676}, {"on": true, "note": 77, "velocity": 100, "until": 522.2778813666675}, {"on": false, "note": 77, "velocity": 0, "until": 522.2778813666675}, {"on": true, "note": 76, "velocity": 100, "until": 522.5207953666679}, {"on": false, "note": 76, "velocity": 0, "until": 524.1907133666685}, {"on": true, "note": 77, "velocity": 100, "until": 524.1907133666685}, {"on": true, "note": 74, "velocity": 100, "until": 524.4336273666685}, {"on": false, "note": 74, "velocity": 0, "until": 524.4336273666685}, {"on": false, "note": 77, "velocity": 0, "until": 525.1345553666682}, {"on": true, "note": 71, "velocity": 100, "until": 525.1345553666682}, {"on": true, "note": 74, "velocity": 100, "until": 525.377469366668}, {"on": false, "note": 74, "velocity": 0, "until": 525.377469366668}, {"on": false, "note": 71, "velocity": 0, "until": 527.0222393666673}, {"on": true, "note": 72, "velocity": 100, "until": 527.3866103666674}, {"on": false, "note": 72, "velocity": 0, "until": 527.5079514750007}, {"on": true, "note": 72, "velocity": 100, "until": 527.8514619750007}, {"on": false, "note": 72, "velocity": 0, "until": 527.9660813666674}, {"on": true, "note": 72, "velocity": 100, "until": 528.4517934750007}, {"on": false, "note": 72, "velocity": 0, "until": 528.9099233666673}, {"on": true, "note": 71, "velocity": 100, "until": 528.9099233666673}, {"on": true, "note": 79, "velocity": 100, "until": 529.0313803666671}, {"on": false, "note": 79, "velocity": 0, "until": 529.0313803666671}, {"on": false, "note": 71, "velocity": 0, "until": 529.1528373666671}, {"on": true, "note": 79, "velocity": 100, "until": 529.1528373666671}, {"on": true, "note": 71, "velocity": 100, "until": 529.274294366667}, {"on": false, "note": 71, "velocity": 0, "until": 529.274294366667}, {"on": false, "note": 79, "velocity": 0, "until": 529.3956354750004}, {"on": true, "note": 71, "velocity": 100, "until": 529.3956354750004}, {"on": true, "note": 79, "velocity": 100, "until": 529.5101389750005}, {"on": false, "note": 79, "velocity": 0, "until": 529.5101389750005}, {"on": false, "note": 71, "velocity": 0, "until": 529.6246424750005}, {"on": true, "note": 71, "velocity": 100, "until": 529.6246424750005}, {"on": true, "note": 79, "velocity": 100, "until": 529.7391459750006}, {"on": false, "note": 79, "velocity": 0, "until": 529.7391459750006}, {"on": false, "note": 71, "velocity": 0, "until": 529.8537653666673}, {"on": true, "note": 79, "velocity": 100, "until": 529.8537653666673}, {"on": true, "note": 71, "velocity": 100, "until": 530.3394774750006}, {"on": false, "note": 71, "velocity": 0, "until": 530.3394774750006}, {"on": false, "note": 79, "velocity": 0, "until": 538.8340554749996}, {"on": true, "note": 79, "velocity": 115, "until": 538.9485589749996}, {"on": false, "note": 79, "velocity": 0, "until": 538.9485589749996}, {"on": true, "note": 77, "velocity": 115, "until": 539.0630624749997}, {"on": false, "note": 77, "velocity": 0, "until": 539.0630624749997}, {"on": true, "note": 76, "velocity": 115, "until": 539.1775659749998}, {"on": false, "note": 76, "velocity": 0, "until": 539.1775659749998}, {"on": true, "note": 74, "velocity": 115, "until": 539.2921853666664}, {"on": false, "note": 74, "velocity": 0, "until": 539.2921853666664}, {"on": true, "note": 72, "velocity": 115, "until": 539.5350993666665}, {"on": false, "note": 72, "velocity": 0, "until": 541.1796765833336}, {"on": true, "note": 76, "velocity": 115, "until": 541.1796765833336}, {"on": true, "note": 79, "velocity": 115, "until": 541.5826065833335}, {"on": false, "note": 79, "velocity": 0, "until": 541.5826065833335}, {"on": false, "note": 76, "velocity": 0, "until": 541.6191292166667}, {"on": true, "note": 78, "velocity": 115, "until": 541.6191292166667}, {"on": true, "note": 75, "velocity": 115, "until": 541.8260252166668}, {"on": false, "note": 78, "velocity": 0, "until": 541.8260252166668}, {"on": true, "note": 79, "velocity": 100, "until": 541.9294732166669}, {"on": false, "note": 79, "velocity": 0, "until": 541.9294732166669}, {"on": true, "note": 81, "velocity": 100, "until": 541.9984385500003}, {"on": false, "note": 81, "velocity": 0, "until": 541.9984385500003}, {"on": false, "note": 75, "velocity": 0, "until": 542.0329891916671}, {"on": true, "note": 79, "velocity": 115, "until": 542.0329891916671}, {"on": true, "note": 76, "velocity": 115, "until": 542.4272530250005}, {"on": false, "note": 76, "velocity": 0, "until": 542.4272530250005}, {"on": false, "note": 79, "velocity": 0, "until": 542.4630212916672}, {"on": true, "note": 75, "velocity": 115, "until": 542.4630212916672}, {"on": true, "note": 78, "velocity": 115, "until": 542.6692062916675}, {"on": false, "note": 78, "velocity": 0, "until": 542.6692062916675}, {"on": true, "note": 79, "velocity": 100, "until": 542.7722987916676}, {"on": false, "note": 79, "velocity": 0, "until": 542.7722987916676}, {"on": true, "note": 81, "velocity": 100, "until": 542.841027125001}, {"on": false, "note": 81, "velocity": 0, "until": 542.841027125001}, {"on": false, "note": 75, "velocity": 0, "until": 542.8754587916678}, {"on": true, "note": 79, "velocity": 115, "until": 542.8754587916678}, {"on": true, "note": 76, "velocity": 115, "until": 543.2683146250014}, {"on": false, "note": 76, "velocity": 0, "until": 543.2683146250014}, {"on": false, "note": 79, "velocity": 0, "until": 543.3039495666682}, {"on": true, "note": 76, "velocity": 115, "until": 543.3039495666682}, {"on": true, "note": 78, "velocity": 115, "until": 543.5087275666683}, {"on": false, "note": 78, "velocity": 0, "until": 543.5087275666683}, {"on": true, "note": 79, "velocity": 100, "until": 543.6111165666683}, {"on": false, "note": 79, "velocity": 0, "until": 543.6111165666683}, {"on": true, "note": 81, "velocity": 100, "until": 543.6793759000017}, {"on": false, "note": 81, "velocity": 0, "until": 543.6793759000017}, {"on": false, "note": 76, "velocity": 0, "until": 543.7135847916685}, {"on": true, "note": 76, "velocity": 100, "until": 543.7135847916685}, {"on": true, "note": 79, "velocity": 100, "until": 544.1420755666687}, {"on": false, "note": 79, "velocity": 0, "until": 544.1420755666687}, {"on": false, "note": 76, "velocity": 0, "until": 544.551710791669}, {"on": true, "note": 76, "velocity": 100, "until": 544.551710791669}, {"on": true, "note": 73, "velocity": 100, "until": 544.9802015666695}, {"on": false, "note": 73, "velocity": 0, "until": 544.9802015666695}, {"on": false, "note": 76, "velocity": 0, "until": 545.3898367916698}, {"on": true, "note": 77, "velocity": 100, "until": 545.3898367916698}, {"on": true, "note": 74, "velocity": 100, "until": 545.8183275666703}, {"on": false, "note": 74, "velocity": 0, "until": 545.8183275666703}, {"on": false, "note": 77, "velocity": 0, "until": 546.2279627916705}, {"on": true, "note": 76, "velocity": 100, "until": 546.2279627916705}, {"on": true, "note": 73, "velocity": 100, "until": 546.656453566671}, {"on": false, "note": 73, "velocity": 0, "until": 546.656453566671}, {"on": false, "note": 76, "velocity": 0, "until": 547.0660887916713}, {"on": true, "note": 77, "velocity": 100, "until": 547.0660887916713}, {"on": true, "note": 74, "velocity": 100, "until": 547.4945795666717}, {"on": false, "note": 74, "velocity": 0, "until": 547.4945795666717}, {"on": false, "note": 77, "velocity": 0, "until": 547.904214791672}, {"on": true, "note": 77, "velocity": 115, "until": 547.904214791672}, {"on": true, "note": 81, "velocity": 115, "until": 549.5804667916747}, {"on": false, "note": 81, "velocity": 0, "until": 549.5804667916747}, {"on": false, "note": 77, "velocity": 0, "until": 549.5804667916747}, {"on": true, "note": 77, "velocity": 100, "until": 549.5804667916747}, {"on": true, "note": 81, "velocity": 100, "until": 550.418592791677}, {"on": false, "note": 81, "velocity": 0, "until": 550.418592791677}, {"on": false, "note": 77, "velocity": 0, "until": 550.418592791677}, {"on": true, "note": 81, "velocity": 100, "until": 550.418592791677}, {"on": true, "note": 77, "velocity": 100, "until": 551.2567187916794}, {"on": false, "note": 77, "velocity": 0, "until": 551.2567187916794}, {"on": false, "note": 81, "velocity": 0, "until": 551.2567187916794}, {"on": true, "note": 77, "velocity": 100, "until": 551.2567187916794}, {"on": true, "note": 80, "velocity": 100, "until": 552.9329707916829}, {"on": false, "note": 80, "velocity": 0, "until": 552.9329707916829}, {"on": false, "note": 77, "velocity": 0, "until": 552.9329707916829}, {"on": true, "note": 80, "velocity": 100, "until": 552.9329707916829}, {"on": true, "note": 77, "velocity": 100, "until": 553.7710967916853}, {"on": false, "note": 77, "velocity": 0, "until": 553.7710967916853}, {"on": false, "note": 80, "velocity": 0, "until": 553.7710967916853}, {"on": true, "note": 80, "velocity": 100, "until": 553.7710967916853}, {"on": true, "note": 77, "velocity": 100, "until": 554.6092227916877}, {"on": false, "note": 77, "velocity": 0, "until": 554.6092227916877}, {"on": false, "note": 80, "velocity": 0, "until": 554.6092227916877}, {"on": true, "note": 75, "velocity": 100, "until": 554.6092227916877}, {"on": true, "note": 79, "velocity": 100, "until": 555.4473487916899}, {"on": false, "note": 75, "velocity": 0, "until": 555.4473487916899}, {"on": true, "note": 71, "velocity": 100, "until": 556.285474791691}, {"on": false, "note": 71, "velocity": 0, "until": 556.285474791691}, {"on": true, "note": 72, "velocity": 100, "until": 557.1236007916921}, {"on": false, "note": 72, "velocity": 0, "until": 557.1236007916921}, {"on": false, "note": 79, "velocity": 0, "until": 557.1236007916921}, {"on": true, "note": 82, "velocity": 100, "until": 557.1236007916921}, {"on": true, "note": 73, "velocity": 100, "until": 557.9617267916932}, {"on": false, "note": 73, "velocity": 0, "until": 557.9617267916932}, {"on": false, "note": 82, "velocity": 0, "until": 557.9617267916932}, {"on": true, "note": 80, "velocity": 100, "until": 557.9617267916932}, {"on": true, "note": 72, "velocity": 100, "until": 558.1760117916934}, {"on": false, "note": 72, "velocity": 0, "until": 558.1760117916934}, {"on": false, "note": 80, "velocity": 0, "until": 558.7998527916938}, {"on": true, "note": 84, "velocity": 100, "until": 558.7998527916938}, {"on": true, "note": 78, "velocity": 100, "until": 559.0141377916942}, {"on": false, "note": 78, "velocity": 0, "until": 559.0141377916942}, {"on": false, "note": 84, "velocity": 0, "until": 559.6379787916945}, {"on": true, "note": 84, "velocity": 100, "until": 559.6379787916945}, {"on": true, "note": 79, "velocity": 100, "until": 559.852263791695}, {"on": false, "note": 79, "velocity": 0, "until": 559.852263791695}, {"on": false, "note": 84, "velocity": 0, "until": 560.4761047916953}, {"on": true, "note": 77, "velocity": 100, "until": 560.4761047916953}, {"on": true, "note": 79, "velocity": 100, "until": 560.6906874166957}, {"on": false, "note": 79, "velocity": 0, "until": 560.6906874166957}, {"on": false, "note": 77, "velocity": 0, "until": 561.3898277916959}, {"on": true, "note": 75, "velocity": 115, "until": 561.3898277916959}, {"on": true, "note": 79, "velocity": 115, "until": 562.2279537916974}, {"on": false, "note": 75, "velocity": 0, "until": 562.2279537916974}, {"on": true, "note": 71, "velocity": 100, "until": 563.0660797916984}, {"on": false, "note": 71, "velocity": 0, "until": 563.0660797916984}, {"on": true, "note": 72, "velocity": 100, "until": 563.9042057916995}, {"on": false, "note": 72, "velocity": 0, "until": 563.9042057916995}, {"on": false, "note": 79, "velocity": 0, "until": 563.9042057916995}, {"on": true, "note": 82, "velocity": 100, "until": 563.9042057916995}, {"on": true, "note": 73, "velocity": 100, "until": 564.7423317917006}, {"on": false, "note": 73, "velocity": 0, "until": 564.7423317917006}, {"on": false, "note": 82, "velocity": 0, "until": 564.7423317917006}, {"on": true, "note": 80, "velocity": 100, "until": 564.7423317917006}, {"on": true, "note": 72, "velocity": 100, "until": 564.9566167917009}, {"on": false, "note": 72, "velocity": 0, "until": 564.9566167917009}, {"on": false, "note": 80, "velocity": 0, "until": 565.5804577917012}, {"on": true, "note": 84, "velocity": 100, "until": 565.5804577917012}, {"on": true, "note": 78, "velocity": 100, "until": 565.7947427917017}, {"on": false, "note": 78, "velocity": 0, "until": 565.7947427917017}, {"on": false, "note": 84, "velocity": 0, "until": 566.4186096750352}, {"on": true, "note": 84, "velocity": 100, "until": 566.4186096750352}, {"on": true, "note": 79, "velocity": 100, "until": 566.6360006750348}, {"on": false, "note": 79, "velocity": 0, "until": 566.6360006750348}, {"on": false, "note": 84, "velocity": 0, "until": 567.2716211583677}, {"on": true, "note": 77, "velocity": 100, "until": 567.2716211583677}, {"on": true, "note": 79, "velocity": 100, "until": 567.5067170833682}, {"on": false, "note": 79, "velocity": 0, "until": 567.5067170833682}, {"on": false, "note": 77, "velocity": 0, "until": 568.7033787917017}, {"on": true, "note": 71, "velocity": 100, "until": 568.7033787917017}, {"on": true, "note": 77, "velocity": 100, "until": 568.8105212917018}, {"on": false, "note": 77, "velocity": 0, "until": 568.8105212917018}, {"on": false, "note": 71, "velocity": 0, "until": 568.9176637917019}, {"on": true, "note": 71, "velocity": 100, "until": 568.9176637917019}, {"on": true, "note": 77, "velocity": 100, "until": 569.024806291702}, {"on": false, "note": 77, "velocity": 0, "until": 569.024806291702}, {"on": false, "note": 71, "velocity": 0, "until": 569.1318695667021}, {"on": true, "note": 71, "velocity": 100, "until": 569.1318695667021}, {"on": true, "note": 77, "velocity": 100, "until": 569.2342585667021}, {"on": false, "note": 77, "velocity": 0, "until": 569.2342585667021}, {"on": false, "note": 71, "velocity": 0, "until": 569.3366475667021}, {"on": true, "note": 71, "velocity": 100, "until": 569.3366475667021}, {"on": true, "note": 77, "velocity": 100, "until": 569.4390365667022}, {"on": false, "note": 77, "velocity": 0, "until": 569.4390365667022}, {"on": false, "note": 71, "velocity": 0, "until": 569.5415047917022}, {"on": true, "note": 77, "velocity": 100, "until": 569.5415047917022}, {"on": true, "note": 71, "velocity": 100, "until": 569.9699955667023}, {"on": false, "note": 71, "velocity": 0, "until": 569.9699955667023}, {"on": false, "note": 77, "velocity": 0, "until": 572.0558827917032}, {"on": true, "note": 71, "velocity": 100, "until": 572.0558827917032}, {"on": true, "note": 77, "velocity": 100, "until": 572.1630252917033}, {"on": false, "note": 77, "velocity": 0, "until": 572.1630252917033}, {"on": false, "note": 71, "velocity": 0, "until": 572.2701677917034}, {"on": true, "note": 71, "velocity": 100, "until": 572.2701677917034}, {"on": true, "note": 77, "velocity": 100, "until": 572.3773102917036}, {"on": false, "note": 77, "velocity": 0, "until": 572.3773102917036}, {"on": false, "note": 71, "velocity": 0, "until": 572.4843735667037}, {"on": true, "note": 71, "velocity": 100, "until": 572.4843735667037}, {"on": true, "note": 77, "velocity": 100, "until": 572.5867625667037}, {"on": false, "note": 77, "velocity": 0, "until": 572.5867625667037}, {"on": false, "note": 71, "velocity": 0, "until": 572.6891515667037}, {"on": true, "note": 71, "velocity": 100, "until": 572.6891515667037}, {"on": true, "note": 77, "velocity": 100, "until": 572.7915405667037}, {"on": false, "note": 77, "velocity": 0, "until": 572.7915405667037}, {"on": false, "note": 71, "velocity": 0, "until": 572.8940087917038}, {"on": true, "note": 77, "velocity": 100, "until": 572.8940087917038}, {"on": true, "note": 71, "velocity": 100, "until": 573.3224995667039}, {"on": false, "note": 71, "velocity": 0, "until": 573.3224995667039}, {"on": false, "note": 77, "velocity": 0, "until": 575.4083867917047}, {"on": true, "note": 71, "velocity": 100, "until": 575.4083867917047}, {"on": true, "note": 77, "velocity": 100, "until": 575.5155292917049}, {"on": false, "note": 77, "velocity": 0, "until": 575.5155292917049}, {"on": false, "note": 71, "velocity": 0, "until": 575.622671791705}, {"on": true, "note": 71, "velocity": 100, "until": 575.622671791705}, {"on": true, "note": 77, "velocity": 100, "until": 575.7298142917051}, {"on": false, "note": 77, "velocity": 0, "until": 575.7298142917051}, {"on": false, "note": 71, "velocity": 0, "until": 575.8368775667052}, {"on": true, "note": 71, "velocity": 100, "until": 575.8368775667052}, {"on": true, "note": 77, "velocity": 100, "until": 575.9392665667052}, {"on": false, "note": 77, "velocity": 0, "until": 575.9392665667052}, {"on": false, "note": 71, "velocity": 0, "until": 576.0416555667052}, {"on": true, "note": 71, "velocity": 100, "until": 576.0416555667052}, {"on": true, "note": 77, "velocity": 100, "until": 576.1440445667052}, {"on": false, "note": 77, "velocity": 0, "until": 576.1440445667052}, {"on": false, "note": 71, "velocity": 0, "until": 576.2465127917053}, {"on": true, "note": 71, "velocity": 100, "until": 576.2465127917053}, {"on": true, "note": 77, "velocity": 100, "until": 576.3536552917054}, {"on": false, "note": 77, "velocity": 0, "until": 576.3536552917054}, {"on": false, "note": 71, "velocity": 0, "until": 576.4607977917055}, {"on": true, "note": 71, "velocity": 100, "until": 576.4607977917055}, {"on": true, "note": 77, "velocity": 100, "until": 576.5679402917057}, {"on": false, "note": 77, "velocity": 0, "until": 576.5679402917057}, {"on": false, "note": 71, "velocity": 0, "until": 576.6750035667058}, {"on": true, "note": 71, "velocity": 100, "until": 576.6750035667058}, {"on": true, "note": 77, "velocity": 100, "until": 576.7773925667058}, {"on": false, "note": 77, "velocity": 0, "until": 576.7773925667058}, {"on": false, "note": 71, "velocity": 0, "until": 576.8797815667058}, {"on": true, "note": 71, "velocity": 100, "until": 576.8797815667058}, {"on": true, "note": 77, "velocity": 100, "until": 576.9821705667059}, {"on": false, "note": 77, "velocity": 0, "until": 576.9821705667059}, {"on": false, "note": 71, "velocity": 0, "until": 577.0846387917061}, {"on": true, "note": 71, "velocity": 100, "until": 577.0846387917061}, {"on": true, "note": 77, "velocity": 100, "until": 577.1917812917064}, {"on": false, "note": 77, "velocity": 0, "until": 577.1917812917064}, {"on": false, "note": 71, "velocity": 0, "until": 577.2989237917069}, {"on": true, "note": 71, "velocity": 100, "until": 577.2989237917069}, {"on": true, "note": 77, "velocity": 100, "until": 577.4060662917072}, {"on": false, "note": 77, "velocity": 0, "until": 577.4060662917072}, {"on": false, "note": 71, "velocity": 0, "until": 577.5131295667077}, {"on": true, "note": 71, "velocity": 100, "until": 577.5131295667077}, {"on": true, "note": 77, "velocity": 100, "until": 577.6155185667078}, {"on": false, "note": 77, "velocity": 0, "until": 577.6155185667078}, {"on": false, "note": 71, "velocity": 0, "until": 577.7179075667079}, {"on": true, "note": 71, "velocity": 100, "until": 577.7179075667079}, {"on": true, "note": 77, "velocity": 100, "until": 577.8202965667081}, {"on": false, "note": 77, "velocity": 0, "until": 577.8202965667081}, {"on": false, "note": 71, "velocity": 0, "until": 577.9227647917081}, {"on": true, "note": 71, "velocity": 100, "until": 577.9227647917081}, {"on": true, "note": 77, "velocity": 100, "until": 578.0299072917086}, {"on": false, "note": 77, "velocity": 0, "until": 578.0299072917086}, {"on": false, "note": 71, "velocity": 0, "until": 578.1370497917089}, {"on": true, "note": 71, "velocity": 100, "until": 578.1370497917089}, {"on": true, "note": 77, "velocity": 100, "until": 578.2441922917094}, {"on": false, "note": 77, "velocity": 0, "until": 578.2441922917094}, {"on": false, "note": 71, "velocity": 0, "until": 578.3512555667097}, {"on": true, "note": 71, "velocity": 100, "until": 578.3512555667097}, {"on": true, "note": 77, "velocity": 100, "until": 578.4536445667097}, {"on": false, "note": 77, "velocity": 0, "until": 578.4536445667097}, {"on": false, "note": 71, "velocity": 0, "until": 580.4371427917114}, {"on": true, "note": 76, "velocity": 100, "until": 580.4371427917114}, {"on": true, "note": 72, "velocity": 100, "until": 580.6192850417116}, {"on": false, "note": 72, "velocity": 0, "until": 580.6192850417116}, {"on": false, "note": 76, "velocity": 0, "until": 580.6514277917117}, {"on": true, "note": 71, "velocity": 100, "until": 580.6514277917117}, {"on": true, "note": 74, "velocity": 100, "until": 580.833570041712}, {"on": false, "note": 74, "velocity": 0, "until": 580.833570041712}, {"on": false, "note": 71, "velocity": 0, "until": 580.8656335667122}, {"on": true, "note": 76, "velocity": 100, "until": 580.8656335667122}, {"on": true, "note": 72, "velocity": 100, "until": 581.0396948667124}, {"on": false, "note": 72, "velocity": 0, "until": 581.0396948667124}, {"on": false, "note": 76, "velocity": 0, "until": 581.0704115667123}, {"on": true, "note": 71, "velocity": 100, "until": 581.0704115667123}, {"on": true, "note": 74, "velocity": 100, "until": 581.2444728667125}, {"on": false, "note": 74, "velocity": 0, "until": 581.2444728667125}, {"on": false, "note": 71, "velocity": 0, "until": 581.2752687917125}, {"on": true, "note": 76, "velocity": 100, "until": 581.2752687917125}, {"on": true, "note": 72, "velocity": 100, "until": 581.4574110417128}, {"on": false, "note": 72, "velocity": 0, "until": 581.4574110417128}, {"on": false, "note": 76, "velocity": 0, "until": 581.489553791713}, {"on": true, "note": 71, "velocity": 100, "until": 581.489553791713}, {"on": true, "note": 74, "velocity": 100, "until": 581.6716960417133}, {"on": false, "note": 74, "velocity": 0, "until": 581.6716960417133}, {"on": false, "note": 71, "velocity": 0, "until": 581.7037595667134}, {"on": true, "note": 76, "velocity": 100, "until": 581.7037595667134}, {"on": true, "note": 72, "velocity": 100, "until": 581.8778208667136}, {"on": false, "note": 72, "velocity": 0, "until": 581.8778208667136}, {"on": false, "note": 76, "velocity": 0, "until": 581.9085375667136}, {"on": true, "note": 71, "velocity": 100, "until": 581.9085375667136}, {"on": true, "note": 74, "velocity": 100, "until": 582.0825988667137}, {"on": false, "note": 74, "velocity": 0, "until": 582.0825988667137}, {"on": false, "note": 71, "velocity": 0, "until": 582.1133332167137}, {"on": true, "note": 76, "velocity": 100, "until": 582.1133332167137}, {"on": true, "note": 72, "velocity": 100, "until": 582.3202292167138}, {"on": false, "note": 72, "velocity": 0, "until": 582.3202292167138}, {"on": false, "note": 76, "velocity": 0, "until": 583.0271804417139}, {"on": true, "note": 79, "velocity": 100, "until": 583.0271804417139}, {"on": true, "note": 76, "velocity": 100, "until": 583.240703441714}, {"on": false, "note": 76, "velocity": 0, "until": 583.240703441714}, {"on": false, "note": 79, "velocity": 0, "until": 583.9978027500475}, {"on": true, "note": 72, "velocity": 100, "until": 583.9978027500475}, {"on": true, "note": 64, "velocity": 100, "until": 584.5665227500476}, {"on": false, "note": 64, "velocity": 0, "until": 584.5665227500476}]}, {"id": 2, "states": [{"on": true, "note": 60, "velocity": 101, "until": 0}, {"on": false, "note": 0, "velocity": 0, "until": 5.42127658333331}, {"on": false, "note": 60, "velocity": 0, "until": 5.42127658333331}, {"on": true, "note": 67, "velocity": 101, "until": 5.42127658333331}, {"on": true, "note": 64, "velocity": 101, "until": 6.187233583333312}, {"on": false, "note": 64, "velocity": 0, "until": 6.187233583333312}, {"on": false, "note": 67, "velocity": 0, "until": 6.697871583333313}, {"on": true, "note": 69, "velocity": 101, "until": 6.697871583333313}, {"on": true, "note": 65, "velocity": 101, "until": 7.4638285833333144}, {"on": false, "note": 65, "velocity": 0, "until": 7.4638285833333144}, {"on": false, "note": 69, "velocity": 0, "until": 9.68747499999999}, {"on": true, "note": 60, "velocity": 101, "until": 13.289697216666628}, {"on": false, "note": 60, "velocity": 0, "until": 13.289697216666628}, {"on": true, "note": 60, "velocity": 101, "until": 13.289697216666628}, {"on": true, "note": 66, "velocity": 101, "until": 14.089697016666625}, {"on": false, "note": 66, "velocity": 0, "until": 14.089697016666625}, {"on": false, "note": 60, "velocity": 0, "until": 14.623030216666624}, {"on": true, "note": 67, "velocity": 101, "until": 14.623030216666624}, {"on": true, "note": 59, "velocity": 101, "until": 15.42303001666662}, {"on": false, "note": 59, "velocity": 0, "until": 15.42303001666662}, {"on": false, "note": 67, "velocity": 0, "until": 20.10950314999999}, {"on": true, "note": 79, "velocity": 82, "until": 20.517666149999986}, {"on": false, "note": 79, "velocity": 0, "until": 20.517666149999986}, {"on": true, "note": 76, "velocity": 83, "until": 20.925829149999984}, {"on": false, "note": 76, "velocity": 0, "until": 20.925829149999984}, {"on": true, "note": 72, "velocity": 85, "until": 21.333583999999988}, {"on": false, "note": 72, "velocity": 0, "until": 21.333583999999988}, {"on": true, "note": 71, "velocity": 87, "until": 21.93358400000002}, {"on": false, "note": 71, "velocity": 0, "until": 22.53683980000002}, {"on": true, "note": 72, "velocity": 91, "until": 23.236258000000042}, {"on": false, "note": 72, "velocity": 0, "until": 27.739080000000055}, {"on": true, "note": 67, "velocity": 101, "until": 28.940819116666756}, {"on": false, "note": 67, "velocity": 0, "until": 28.940819116666756}, {"on": true, "note": 76, "velocity": 101, "until": 28.940819116666756}, {"on": true, "note": 72, "velocity": 101, "until": 29.91907936666675}, {"on": false, "note": 72, "velocity": 0, "until": 29.91907936666675}, {"on": false, "note": 76, "velocity": 0, "until": 29.91907936666675}, {"on": true, "note": 77, "velocity": 101, "until": 29.91907936666675}, {"on": true, "note": 74, "velocity": 101, "until": 30.243427000000086}, {"on": false, "note": 74, "velocity": 0, "until": 30.243427000000086}, {"on": false, "note": 77, "velocity": 0, "until": 30.243427000000086}, {"on": true, "note": 76, "velocity": 101, "until": 30.243427000000086}, {"on": true, "note": 79, "velocity": 101, "until": 30.843427000000094}, {"on": false, "note": 79, "velocity": 0, "until": 30.843427000000094}, {"on": false, "note": 76, "velocity": 0, "until": 31.443427000000103}, {"on": true, "note": 71, "velocity": 101, "until": 31.443427000000103}, {"on": true, "note": 74, "velocity": 101, "until": 32.04342700000017}, {"on": false, "note": 74, "velocity": 0, "until": 32.04342700000017}, {"on": false, "note": 71, "velocity": 0, "until": 32.645166116666836}, {"on": true, "note": 76, "velocity": 101, "until": 32.645166116666836}, {"on": true, "note": 72, "velocity": 101, "until": 33.62342636666682}, {"on": false, "note": 72, "velocity": 0, "until": 33.62342636666682}, {"on": false, "note": 76, "velocity": 0, "until": 33.62342636666682}, {"on": true, "note": 74, "velocity": 101, "until": 33.62342636666682}, {"on": true, "note": 77, "velocity": 101, "until": 33.94777400000015}, {"on": false, "note": 77, "velocity": 0, "until": 33.94777400000015}, {"on": false, "note": 74, "velocity": 0, "until": 33.94777400000015}, {"on": true, "note": 76, "velocity": 101, "until": 33.94777400000015}, {"on": true, "note": 79, "velocity": 101, "until": 34.54777400000014}, {"on": false, "note": 79, "velocity": 0, "until": 34.54777400000014}, {"on": false, "note": 76, "velocity": 0, "until": 35.14905058333347}, {"on": true, "note": 74, "velocity": 101, "until": 35.14905058333347}, {"on": true, "note": 71, "velocity": 101, "until": 35.79238728333343}, {"on": false, "note": 71, "velocity": 0, "until": 35.79238728333343}, {"on": false, "note": 74, "velocity": 0, "until": 36.578800800000096}, {"on": true, "note": 75, "velocity": 101, "until": 36.578800800000096}, {"on": true, "note": 72, "velocity": 101, "until": 37.62531180000014}, {"on": false, "note": 72, "velocity": 0, "until": 37.62531180000014}, {"on": false, "note": 75, "velocity": 0, "until": 37.62531180000014}, {"on": true, "note": 77, "velocity": 101, "until": 37.62531180000014}, {"on": true, "note": 74, "velocity": 101, "until": 37.97263211666681}, {"on": false, "note": 74, "velocity": 0, "until": 37.97263211666681}, {"on": false, "note": 77, "velocity": 0, "until": 37.97263211666681}, {"on": true, "note": 75, "velocity": 101, "until": 37.97263211666681}, {"on": true, "note": 79, "velocity": 101, "until": 39.05958795000013}, {"on": false, "note": 79, "velocity": 0, "until": 39.05958795000013}, {"on": false, "note": 75, "velocity": 0, "until": 39.27564815000013}, {"on": true, "note": 79, "velocity": 101, "until": 39.27564815000013}, {"on": true, "note": 75, "velocity": 101, "until": 40.296055650000135}, {"on": false, "note": 75, "velocity": 0, "until": 40.296055650000135}, {"on": false, "note": 79, "velocity": 0, "until": 40.5017070166668}, {"on": true, "note": 77, "velocity": 101, "until": 40.5017070166668}, {"on": true, "note": 80, "velocity": 101, "until": 44.244391116666826}, {"on": false, "note": 80, "velocity": 0, "until": 44.244391116666826}, {"on": false, "note": 77, "velocity": 0, "until": 44.244391116666826}, {"on": true, "note": 62, "velocity": 101, "until": 44.244391116666826}, {"on": true, "note": 65, "velocity": 101, "until": 45.222651366666824}, {"on": false, "note": 65, "velocity": 0, "until": 45.222651366666824}, {"on": false, "note": 62, "velocity": 0, "until": 45.222651366666824}, {"on": true, "note": 67, "velocity": 101, "until": 45.222651366666824}, {"on": true, "note": 63, "velocity": 101, "until": 45.546999000000156}, {"on": false, "note": 63, "velocity": 0, "until": 45.546999000000156}, {"on": false, "note": 67, "velocity": 0, "until": 45.546999000000156}, {"on": true, "note": 65, "velocity": 101, "until": 45.546999000000156}, {"on": true, "note": 68, "velocity": 101, "until": 45.796999000000156}, {"on": false, "note": 68, "velocity": 0, "until": 45.796999000000156}, {"on": false, "note": 65, "velocity": 0, "until": 45.94699900000015}, {"on": true, "note": 68, "velocity": 101, "until": 45.94699900000015}, {"on": true, "note": 65, "velocity": 101, "until": 46.196999000000154}, {"on": false, "note": 65, "velocity": 0, "until": 46.196999000000154}, {"on": false, "note": 68, "velocity": 0, "until": 46.346999000000146}, {"on": true, "note": 68, "velocity": 101, "until": 46.346999000000146}, {"on": true, "note": 65, "velocity": 101, "until": 46.59699900000014}, {"on": false, "note": 65, "velocity": 0, "until": 46.59699900000014}, {"on": false, "note": 68, "velocity": 0, "until": 46.74699900000013}, {"on": true, "note": 68, "velocity": 101, "until": 46.74699900000013}, {"on": true, "note": 65, "velocity": 101, "until": 46.99699900000013}, {"on": false, "note": 65, "velocity": 0, "until": 46.99699900000013}, {"on": false, "note": 68, "velocity": 0, "until": 47.14699900000012}, {"on": true, "note": 68, "velocity": 101, "until": 47.14699900000012}, {"on": true, "note": 65, "velocity": 101, "until": 47.39699900000013}, {"on": false, "note": 65, "velocity": 0, "until": 47.39699900000013}, {"on": false, "note": 68, "velocity": 0, "until": 47.54699900000012}, {"on": true, "note": 68, "velocity": 101, "until": 47.54699900000012}, {"on": true, "note": 65, "velocity": 101, "until": 47.79699900000011}, {"on": false, "note": 65, "velocity": 0, "until": 47.79699900000011}, {"on": false, "note": 68, "velocity": 0, "until": 47.948738116666775}, {"on": true, "note": 67, "velocity": 101, "until": 47.948738116666775}, {"on": true, "note": 63, "velocity": 101, "until": 48.600911616666764}, {"on": false, "note": 63, "velocity": 0, "until": 48.600911616666764}, {"on": false, "note": 67, "velocity": 0, "until": 51.65308511666675}, {"on": true, "note": 62, "velocity": 101, "until": 51.65308511666675}, {"on": true, "note": 65, "velocity": 101, "until": 52.63134536666675}, {"on": false, "note": 65, "velocity": 0, "until": 52.63134536666675}, {"on": false, "note": 62, "velocity": 0, "until": 52.63134536666675}, {"on": true, "note": 63, "velocity": 101, "until": 52.63134536666675}, {"on": true, "note": 67, "velocity": 101, "until": 52.95569300000008}, {"on": false, "note": 67, "velocity": 0, "until": 52.95569300000008}, {"on": false, "note": 63, "velocity": 0, "until": 52.95569300000008}, {"on": true, "note": 68, "velocity": 101, "until": 52.95569300000008}, {"on": true, "note": 65, "velocity": 101, "until": 53.20569300000008}, {"on": false, "note": 65, "velocity": 0, "until": 53.20569300000008}, {"on": false, "note": 68, "velocity": 0, "until": 53.35569300000007}, {"on": true, "note": 65, "velocity": 101, "until": 53.35569300000007}, {"on": true, "note": 68, "velocity": 101, "until": 53.60569300000008}, {"on": false, "note": 68, "velocity": 0, "until": 53.60569300000008}, {"on": false, "note": 65, "velocity": 0, "until": 53.75569300000007}, {"on": true, "note": 68, "velocity": 101, "until": 53.75569300000007}, {"on": true, "note": 65, "velocity": 101, "until": 54.005693000000065}, {"on": false, "note": 65, "velocity": 0, "until": 54.005693000000065}, {"on": false, "note": 68, "velocity": 0, "until": 54.155693000000056}, {"on": true, "note": 65, "velocity": 101, "until": 54.155693000000056}, {"on": true, "note": 68, "velocity": 101, "until": 54.405693000000056}, {"on": false, "note": 68, "velocity": 0, "until": 54.405693000000056}, {"on": false, "note": 65, "velocity": 0, "until": 54.55569300000005}, {"on": true, "note": 68, "velocity": 101, "until": 54.55569300000005}, {"on": true, "note": 65, "velocity": 101, "until": 54.805693000000055}, {"on": false, "note": 65, "velocity": 0, "until": 54.805693000000055}, {"on": false, "note": 68, "velocity": 0, "until": 54.955693000000046}, {"on": true, "note": 65, "velocity": 101, "until": 54.955693000000046}, {"on": true, "note": 68, "velocity": 101, "until": 55.20569300000004}, {"on": false, "note": 68, "velocity": 0, "until": 55.20569300000004}, {"on": false, "note": 65, "velocity": 0, "until": 55.3574321166667}, {"on": true, "note": 67, "velocity": 101, "until": 55.3574321166667}, {"on": true, "note": 63, "velocity": 101, "until": 56.00960561666669}, {"on": false, "note": 63, "velocity": 0, "until": 56.00960561666669}, {"on": false, "note": 67, "velocity": 0, "until": 59.138957599999976}, {"on": true, "note": 62, "velocity": 101, "until": 59.138957599999976}, {"on": true, "note": 65, "velocity": 101, "until": 60.16168459999988}, {"on": false, "note": 65, "velocity": 0, "until": 60.16168459999988}, {"on": false, "note": 62, "velocity": 0, "until": 60.16168459999988}, {"on": true, "note": 67, "velocity": 101, "until": 60.16168459999988}, {"on": true, "note": 63, "velocity": 101, "until": 60.49986633333321}, {"on": false, "note": 63, "velocity": 0, "until": 60.49986633333321}, {"on": false, "note": 67, "velocity": 0, "until": 60.49986633333321}, {"on": true, "note": 68, "velocity": 101, "until": 60.49986633333321}, {"on": true, "note": 65, "velocity": 101, "until": 62.96770959999987}, {"on": false, "note": 65, "velocity": 0, "until": 62.96770959999987}, {"on": false, "note": 68, "velocity": 0, "until": 62.96770959999987}, {"on": true, "note": 60, "velocity": 101, "until": 62.96770959999987}, {"on": true, "note": 63, "velocity": 101, "until": 63.990436599999775}, {"on": false, "note": 63, "velocity": 0, "until": 63.990436599999775}, {"on": false, "note": 60, "velocity": 0, "until": 63.990436599999775}, {"on": true, "note": 65, "velocity": 101, "until": 63.990436599999775}, {"on": true, "note": 62, "velocity": 101, "until": 64.32861833333313}, {"on": false, "note": 62, "velocity": 0, "until": 64.32861833333313}, {"on": false, "note": 65, "velocity": 0, "until": 64.32861833333313}, {"on": true, "note": 63, "velocity": 101, "until": 64.32861833333313}, {"on": true, "note": 67, "velocity": 101, "until": 66.79547344999982}, {"on": false, "note": 67, "velocity": 0, "until": 66.79547344999982}, {"on": false, "note": 63, "velocity": 0, "until": 66.79547344999982}, {"on": true, "note": 80, "velocity": 101, "until": 68.49808133333346}, {"on": false, "note": 80, "velocity": 0, "until": 68.49808133333346}, {"on": true, "note": 79, "velocity": 101, "until": 68.84808133333347}, {"on": true, "note": 80, "velocity": 101, "until": 68.89808133333347}, {"on": false, "note": 79, "velocity": 0, "until": 69.24808133333349}, {"on": false, "note": 80, "velocity": 0, "until": 69.29935791666682}, {"on": true, "note": 82, "velocity": 101, "until": 69.72488958333346}, {"on": false, "note": 82, "velocity": 0, "until": 69.72488958333346}, {"on": true, "note": 80, "velocity": 101, "until": 70.15295418333343}, {"on": false, "note": 80, "velocity": 0, "until": 70.15295418333343}, {"on": true, "note": 79, "velocity": 101, "until": 71.07724490000005}, {"on": false, "note": 79, "velocity": 0, "until": 71.07724490000005}, {"on": true, "note": 77, "velocity": 101, "until": 71.51862228333339}, {"on": false, "note": 77, "velocity": 0, "until": 71.51862228333339}, {"on": true, "note": 76, "velocity": 101, "until": 71.9524988333334}, {"on": false, "note": 76, "velocity": 0, "until": 71.9524988333334}, {"on": true, "note": 77, "velocity": 101, "until": 72.36916550000007}, {"on": false, "note": 77, "velocity": 0, "until": 72.36916550000007}, {"on": true, "note": 72, "velocity": 101, "until": 72.78583216666674}, {"on": false, "note": 72, "velocity": 0, "until": 72.78583216666674}, {"on": true, "note": 73, "velocity": 101, "until": 73.20388771666674}, {"on": false, "note": 73, "velocity": 0, "until": 73.20388771666674}, {"on": true, "note": 77, "velocity": 101, "until": 73.64833205000008}, {"on": false, "note": 77, "velocity": 0, "until": 73.64833205000008}, {"on": true, "note": 73, "velocity": 101, "until": 74.09277638333342}, {"on": false, "note": 73, "velocity": 0, "until": 74.09277638333342}, {"on": true, "note": 70, "velocity": 101, "until": 74.53825430000008}, {"on": false, "note": 70, "velocity": 0, "until": 74.53825430000008}, {"on": true, "note": 68, "velocity": 101, "until": 75.00337030000006}, {"on": false, "note": 68, "velocity": 0, "until": 75.00337030000006}, {"on": true, "note": 67, "velocity": 101, "until": 75.46848630000004}, {"on": false, "note": 67, "velocity": 0, "until": 75.46848630000004}, {"on": true, "note": 68, "velocity": 101, "until": 75.93208561666671}, {"on": false, "note": 68, "velocity": 0, "until": 75.93208561666671}, {"on": true, "note": 72, "velocity": 101, "until": 76.36686795000006}, {"on": false, "note": 72, "velocity": 0, "until": 76.36686795000006}, {"on": true, "note": 75, "velocity": 101, "until": 76.80165028333339}, {"on": false, "note": 75, "velocity": 0, "until": 76.80165028333339}, {"on": true, "note": 72, "velocity": 101, "until": 77.23643261666673}, {"on": false, "note": 72, "velocity": 0, "until": 77.23643261666673}, {"on": true, "note": 70, "velocity": 101, "until": 77.6712149500001}, {"on": false, "note": 70, "velocity": 0, "until": 77.6712149500001}, {"on": true, "note": 67, "velocity": 101, "until": 78.10599728333348}, {"on": false, "note": 67, "velocity": 0, "until": 78.10599728333348}, {"on": true, "note": 73, "velocity": 101, "until": 78.54229630000015}, {"on": false, "note": 73, "velocity": 0, "until": 78.54229630000015}, {"on": true, "note": 72, "velocity": 101, "until": 79.93612761666681}, {"on": false, "note": 72, "velocity": 0, "until": 79.93612761666681}, {"on": true, "note": 75, "velocity": 101, "until": 79.93612761666681}, {"on": true, "note": 66, "velocity": 101, "until": 81.13177903333373}, {"on": false, "note": 66, "velocity": 0, "until": 81.13177903333373}, {"on": false, "note": 75, "velocity": 0, "until": 81.2404746166671}, {"on": true, "note": 75, "velocity": 101, "until": 81.2404746166671}, {"on": true, "note": 66, "velocity": 101, "until": 82.43612603333402}, {"on": false, "note": 66, "velocity": 0, "until": 82.43612603333402}, {"on": false, "note": 75, "velocity": 0, "until": 82.5448216166674}, {"on": true, "note": 76, "velocity": 101, "until": 82.5448216166674}, {"on": true, "note": 67, "velocity": 101, "until": 84.99742950000125}, {"on": false, "note": 67, "velocity": 0, "until": 84.99742950000125}, {"on": false, "note": 76, "velocity": 0, "until": 85.04742950000126}, {"on": true, "note": 65, "velocity": 101, "until": 85.04742950000126}, {"on": true, "note": 71, "velocity": 101, "until": 86.32535895000127}, {"on": false, "note": 71, "velocity": 0, "until": 86.32535895000127}, {"on": false, "note": 65, "velocity": 0, "until": 86.32535895000127}, {"on": true, "note": 72, "velocity": 101, "until": 86.32535895000127}, {"on": true, "note": 64, "velocity": 101, "until": 87.62796683333481}, {"on": false, "note": 64, "velocity": 0, "until": 87.62796683333481}, {"on": false, "note": 72, "velocity": 0, "until": 95.1673965000017}, {"on": true, "note": 66, "velocity": 101, "until": 95.1673965000017}, {"on": true, "note": 78, "velocity": 101, "until": 95.41739650000174}, {"on": false, "note": 78, "velocity": 0, "until": 95.41739650000174}, {"on": false, "note": 66, "velocity": 0, "until": 95.56739650000178}, {"on": true, "note": 66, "velocity": 101, "until": 95.56739650000178}, {"on": true, "note": 78, "velocity": 101, "until": 95.81739650000183}, {"on": false, "note": 78, "velocity": 0, "until": 95.81739650000183}, {"on": false, "note": 66, "velocity": 0, "until": 95.96739650000187}, {"on": true, "note": 66, "velocity": 101, "until": 95.96739650000187}, {"on": true, "note": 78, "velocity": 101, "until": 96.21739650000193}, {"on": false, "note": 78, "velocity": 0, "until": 96.21739650000193}, {"on": false, "note": 66, "velocity": 0, "until": 96.36739650000196}, {"on": true, "note": 78, "velocity": 101, "until": 96.36739650000196}, {"on": true, "note": 66, "velocity": 101, "until": 96.617396500002}, {"on": false, "note": 66, "velocity": 0, "until": 96.617396500002}, {"on": false, "note": 78, "velocity": 0, "until": 96.76739650000204}, {"on": true, "note": 78, "velocity": 101, "until": 96.76739650000204}, {"on": true, "note": 66, "velocity": 101, "until": 97.01739650000205}, {"on": false, "note": 66, "velocity": 0, "until": 97.01739650000205}, {"on": false, "note": 78, "velocity": 0, "until": 97.16739650000207}, {"on": true, "note": 66, "velocity": 101, "until": 97.16739650000207}, {"on": true, "note": 78, "velocity": 101, "until": 97.42680825000208}, {"on": false, "note": 78, "velocity": 0, "until": 97.42680825000208}, {"on": false, "note": 66, "velocity": 0, "until": 97.63972374166879}, {"on": true, "note": 79, "velocity": 101, "until": 97.63972374166879}, {"on": true, "note": 67, "velocity": 101, "until": 98.94233162500234}, {"on": false, "note": 79, "velocity": 0, "until": 98.94233162500234}, {"on": true, "note": 76, "velocity": 88, "until": 100.14360820833575}, {"on": false, "note": 76, "velocity": 0, "until": 100.14360820833575}, {"on": false, "note": 67, "velocity": 0, "until": 100.14360820833575}, {"on": true, "note": 65, "velocity": 75, "until": 100.14360820833575}, {"on": true, "note": 71, "velocity": 75, "until": 101.49226589166908}, {"on": false, "note": 71, "velocity": 0, "until": 101.49226589166908}, {"on": false, "note": 65, "velocity": 0, "until": 101.49226589166908}, {"on": true, "note": 64, "velocity": 61, "until": 101.49226589166908}, {"on": true, "note": 72, "velocity": 61, "until": 102.85091669166906}, {"on": false, "note": 72, "velocity": 0, "until": 102.85091669166906}, {"on": false, "note": 64, "velocity": 0, "until": 121.87890415000228}, {"on": true, "note": 67, "velocity": 101, "until": 121.99748115000229}, {"on": false, "note": 67, "velocity": 0, "until": 122.11605815000229}, {"on": true, "note": 67, "velocity": 101, "until": 122.23463515000229}, {"on": false, "note": 67, "velocity": 0, "until": 122.35321215000229}, {"on": true, "note": 67, "velocity": 101, "until": 122.4717891500023}, {"on": false, "note": 67, "velocity": 0, "until": 122.5903661500023}, {"on": true, "note": 67, "velocity": 101, "until": 122.7089431500023}, {"on": false, "note": 67, "velocity": 0, "until": 122.8276492000023}, {"on": true, "note": 67, "velocity": 101, "until": 123.31720773333562}, {"on": false, "note": 67, "velocity": 0, "until": 125.69428615000228}, {"on": true, "note": 67, "velocity": 101, "until": 125.81286315000229}, {"on": false, "note": 67, "velocity": 0, "until": 125.93144015000229}, {"on": true, "note": 67, "velocity": 101, "until": 126.05001715000229}, {"on": false, "note": 67, "velocity": 0, "until": 126.16859415000229}, {"on": true, "note": 67, "velocity": 101, "until": 126.2871711500023}, {"on": false, "note": 67, "velocity": 0, "until": 126.4057481500023}, {"on": true, "note": 67, "velocity": 101, "until": 126.5243251500023}, {"on": false, "note": 67, "velocity": 0, "until": 126.6430312000023}, {"on": true, "note": 72, "velocity": 101, "until": 126.88792820000232}, {"on": false, "note": 72, "velocity": 0, "until": 127.59436320000216}, {"on": true, "note": 67, "velocity": 101, "until": 127.59436320000216}, {"on": true, "note": 64, "velocity": 91, "until": 128.08392173333553}, {"on": false, "note": 64, "velocity": 0, "until": 128.08392173333553}, {"on": false, "note": 67, "velocity": 0, "until": 128.08392173333553}, {"on": true, "note": 66, "velocity": 101, "until": 128.08392173333553}, {"on": true, "note": 63, "velocity": 91, "until": 128.31469073333554}, {"on": false, "note": 66, "velocity": 0, "until": 128.31469073333554}, {"on": true, "note": 67, "velocity": 101, "until": 128.43007523333554}, {"on": false, "note": 67, "velocity": 0, "until": 128.43007523333554}, {"on": true, "note": 69, "velocity": 101, "until": 128.54569520000223}, {"on": false, "note": 69, "velocity": 0, "until": 128.54569520000223}, {"on": false, "note": 63, "velocity": 0, "until": 128.54569520000223}, {"on": true, "note": 64, "velocity": 91, "until": 128.54569520000223}, {"on": true, "note": 67, "velocity": 101, "until": 129.03525373333557}, {"on": false, "note": 67, "velocity": 0, "until": 129.03525373333557}, {"on": false, "note": 64, "velocity": 0, "until": 131.39856520000203}, {"on": true, "note": 64, "velocity": 91, "until": 131.39856520000203}, {"on": true, "note": 67, "velocity": 101, "until": 131.88812373333536}, {"on": false, "note": 67, "velocity": 0, "until": 131.88812373333536}, {"on": false, "note": 64, "velocity": 0, "until": 131.88812373333536}, {"on": true, "note": 66, "velocity": 101, "until": 131.88812373333536}, {"on": true, "note": 63, "velocity": 91, "until": 132.11889273333537}, {"on": false, "note": 66, "velocity": 0, "until": 132.11889273333537}, {"on": true, "note": 67, "velocity": 101, "until": 132.23427723333538}, {"on": false, "note": 67, "velocity": 0, "until": 132.23427723333538}, {"on": true, "note": 69, "velocity": 101, "until": 132.34989720000203}, {"on": false, "note": 69, "velocity": 0, "until": 132.34989720000203}, {"on": false, "note": 63, "velocity": 0, "until": 132.34989720000203}, {"on": true, "note": 64, "velocity": 91, "until": 132.34989720000203}, {"on": true, "note": 67, "velocity": 101, "until": 132.83945573333537}, {"on": false, "note": 67, "velocity": 0, "until": 132.83945573333537}, {"on": false, "note": 64, "velocity": 0, "until": 132.83945573333537}, {"on": true, "note": 69, "velocity": 101, "until": 132.94522485833537}, {"on": false, "note": 69, "velocity": 0, "until": 132.95484023333537}, {"on": true, "note": 71, "velocity": 101, "until": 133.06060935833537}, {"on": false, "note": 71, "velocity": 0, "until": 133.07022473333538}, {"on": true, "note": 72, "velocity": 101, "until": 133.17599385833537}, {"on": false, "note": 72, "velocity": 0, "until": 133.18560923333538}, {"on": true, "note": 74, "velocity": 101, "until": 133.29137835833538}, {"on": false, "note": 74, "velocity": 0, "until": 133.30108458333538}, {"on": true, "note": 76, "velocity": 101, "until": 133.30108458333538}, {"on": true, "note": 68, "velocity": 101, "until": 133.4191945833354}, {"on": false, "note": 68, "velocity": 0, "until": 133.4191945833354}, {"on": false, "note": 76, "velocity": 0, "until": 133.53730458333544}, {"on": true, "note": 69, "velocity": 101, "until": 133.53730458333544}, {"on": true, "note": 75, "velocity": 101, "until": 133.65541458333547}, {"on": false, "note": 75, "velocity": 0, "until": 133.65541458333547}, {"on": false, "note": 69, "velocity": 0, "until": 133.7735245833355}, {"on": true, "note": 76, "velocity": 101, "until": 133.7735245833355}, {"on": true, "note": 68, "velocity": 101, "until": 133.89163458333553}, {"on": false, "note": 68, "velocity": 0, "until": 133.89163458333553}, {"on": false, "note": 76, "velocity": 0, "until": 134.00974458333556}, {"on": true, "note": 75, "velocity": 101, "until": 134.00974458333556}, {"on": true, "note": 69, "velocity": 101, "until": 134.1278545833356}, {"on": false, "note": 69, "velocity": 0, "until": 134.1278545833356}, {"on": false, "note": 75, "velocity": 0, "until": 134.24596458333562}, {"on": true, "note": 76, "velocity": 101, "until": 134.24596458333562}, {"on": true, "note": 68, "velocity": 101, "until": 134.718313733336}, {"on": false, "note": 68, "velocity": 0, "until": 134.718313733336}, {"on": false, "note": 76, "velocity": 0, "until": 136.4233242000027}, {"on": true, "note": 69, "velocity": 101, "until": 136.4233242000027}, {"on": true, "note": 81, "velocity": 101, "until": 136.6110785666694}, {"on": false, "note": 81, "velocity": 0, "until": 136.6110785666694}, {"on": false, "note": 69, "velocity": 0, "until": 136.66798573333608}, {"on": true, "note": 69, "velocity": 101, "until": 136.66798573333608}, {"on": true, "note": 77, "velocity": 101, "until": 136.8449086333361}, {"on": false, "note": 77, "velocity": 0, "until": 136.8449086333361}, {"on": false, "note": 69, "velocity": 0, "until": 136.89875473333612}, {"on": true, "note": 69, "velocity": 101, "until": 136.89875473333612}, {"on": true, "note": 74, "velocity": 101, "until": 137.07567763333614}, {"on": false, "note": 74, "velocity": 0, "until": 137.07567763333614}, {"on": false, "note": 69, "velocity": 0, "until": 137.1297592000028}, {"on": true, "note": 72, "velocity": 101, "until": 137.1297592000028}, {"on": true, "note": 67, "velocity": 101, "until": 137.37465620000282}, {"on": false, "note": 67, "velocity": 0, "until": 137.37465620000282}, {"on": false, "note": 72, "velocity": 0, "until": 138.32598820000285}, {"on": true, "note": 79, "velocity": 101, "until": 138.32598820000285}, {"on": true, "note": 67, "velocity": 101, "until": 138.51374256666955}, {"on": false, "note": 67, "velocity": 0, "until": 138.51374256666955}, {"on": false, "note": 79, "velocity": 0, "until": 138.57064973333624}, {"on": true, "note": 76, "velocity": 101, "until": 138.57064973333624}, {"on": true, "note": 67, "velocity": 101, "until": 138.7475726333363}, {"on": false, "note": 67, "velocity": 0, "until": 138.7475726333363}, {"on": false, "note": 76, "velocity": 0, "until": 138.80141873333633}, {"on": true, "note": 72, "velocity": 101, "until": 138.80141873333633}, {"on": true, "note": 67, "velocity": 101, "until": 138.97834163333638}, {"on": false, "note": 67, "velocity": 0, "until": 138.97834163333638}, {"on": false, "note": 72, "velocity": 0, "until": 139.03242320000305}, {"on": true, "note": 71, "velocity": 101, "until": 139.03242320000305}, {"on": true, "note": 67, "velocity": 101, "until": 139.15487170000304}, {"on": false, "note": 67, "velocity": 0, "until": 139.15487170000304}, {"on": false, "note": 71, "velocity": 0, "until": 139.27732020000306}, {"on": true, "note": 71, "velocity": 101, "until": 139.27732020000306}, {"on": true, "note": 74, "velocity": 101, "until": 139.75275073333648}, {"on": false, "note": 74, "velocity": 0, "until": 139.75275073333648}, {"on": false, "note": 71, "velocity": 0, "until": 139.75275073333648}, {"on": true, "note": 72, "velocity": 101, "until": 139.75275073333648}, {"on": true, "note": 76, "velocity": 101, "until": 139.98375520000315}, {"on": false, "note": 76, "velocity": 0, "until": 139.98375520000315}, {"on": false, "note": 72, "velocity": 0, "until": 139.98375520000315}, {"on": true, "note": 77, "velocity": 101, "until": 139.98375520000315}, {"on": true, "note": 74, "velocity": 101, "until": 140.10620370000314}, {"on": false, "note": 74, "velocity": 0, "until": 140.10620370000314}, {"on": false, "note": 77, "velocity": 0, "until": 140.22865220000315}, {"on": true, "note": 71, "velocity": 101, "until": 140.22865220000315}, {"on": true, "note": 74, "velocity": 101, "until": 140.70408273333658}, {"on": false, "note": 74, "velocity": 0, "until": 140.70408273333658}, {"on": false, "note": 71, "velocity": 0, "until": 140.70408273333658}, {"on": true, "note": 72, "velocity": 101, "until": 140.70408273333658}, {"on": true, "note": 76, "velocity": 101, "until": 140.93508720000324}, {"on": false, "note": 76, "velocity": 0, "until": 140.93508720000324}, {"on": false, "note": 72, "velocity": 0, "until": 140.93508720000324}, {"on": true, "note": 77, "velocity": 101, "until": 140.93508720000324}, {"on": true, "note": 74, "velocity": 101, "until": 141.05753570000323}, {"on": false, "note": 74, "velocity": 0, "until": 141.05753570000323}, {"on": false, "note": 77, "velocity": 0, "until": 141.17998420000325}, {"on": true, "note": 71, "velocity": 101, "until": 141.17998420000325}, {"on": true, "note": 74, "velocity": 101, "until": 141.65541473333667}, {"on": false, "note": 74, "velocity": 0, "until": 141.65541473333667}, {"on": false, "note": 71, "velocity": 0, "until": 141.65541473333667}, {"on": true, "note": 72, "velocity": 101, "until": 141.65541473333667}, {"on": true, "note": 76, "velocity": 101, "until": 141.88641920000333}, {"on": false, "note": 76, "velocity": 0, "until": 141.88641920000333}, {"on": false, "note": 72, "velocity": 0, "until": 141.88641920000333}, {"on": true, "note": 71, "velocity": 101, "until": 141.88641920000333}, {"on": true, "note": 74, "velocity": 101, "until": 142.13131620000337}, {"on": false, "note": 74, "velocity": 0, "until": 142.13131620000337}, {"on": false, "note": 71, "velocity": 0, "until": 144.80767763333677}, {"on": true, "note": 67, "velocity": 101, "until": 144.92719913333676}, {"on": false, "note": 67, "velocity": 0, "until": 145.04672063333675}, {"on": true, "note": 67, "velocity": 101, "until": 145.16624213333674}, {"on": false, "note": 67, "velocity": 0, "until": 145.28576363333673}, {"on": true, "note": 67, "velocity": 101, "until": 145.40528513333672}, {"on": false, "note": 67, "velocity": 0, "until": 145.5248066333367}, {"on": true, "note": 67, "velocity": 101, "until": 145.6443281333367}, {"on": false, "note": 67, "velocity": 0, "until": 145.7638496333367}, {"on": true, "note": 67, "velocity": 101, "until": 146.2417977333367}, {"on": false, "note": 67, "velocity": 0, "until": 146.47256673333672}, {"on": true, "note": 76, "velocity": 101, "until": 146.47256673333672}, {"on": true, "note": 67, "velocity": 101, "until": 146.58795123333672}, {"on": false, "note": 67, "velocity": 0, "until": 146.58795123333672}, {"on": false, "note": 76, "velocity": 0, "until": 146.70348958333676}, {"on": true, "note": 77, "velocity": 101, "until": 146.70348958333676}, {"on": true, "note": 69, "velocity": 101, "until": 146.8234895833368}, {"on": false, "note": 69, "velocity": 0, "until": 146.8234895833368}, {"on": false, "note": 77, "velocity": 0, "until": 146.94348958333683}, {"on": true, "note": 76, "velocity": 101, "until": 146.94348958333683}, {"on": true, "note": 67, "velocity": 101, "until": 147.06348958333686}, {"on": false, "note": 67, "velocity": 0, "until": 147.06348958333686}, {"on": false, "note": 76, "velocity": 0, "until": 147.1834895833369}, {"on": true, "note": 77, "velocity": 101, "until": 147.1834895833369}, {"on": true, "note": 69, "velocity": 101, "until": 147.30348958333693}, {"on": false, "note": 69, "velocity": 0, "until": 147.30348958333693}, {"on": false, "note": 77, "velocity": 0, "until": 147.42348958333696}, {"on": true, "note": 76, "velocity": 101, "until": 147.42348958333696}, {"on": true, "note": 67, "velocity": 101, "until": 147.543489583337}, {"on": false, "note": 67, "velocity": 0, "until": 147.543489583337}, {"on": false, "note": 76, "velocity": 0, "until": 147.66348958333703}, {"on": true, "note": 77, "velocity": 101, "until": 147.66348958333703}, {"on": true, "note": 69, "velocity": 101, "until": 148.14333573333732}, {"on": false, "note": 69, "velocity": 0, "until": 148.14333573333732}, {"on": false, "note": 77, "velocity": 0, "until": 148.37410473333733}, {"on": true, "note": 64, "velocity": 101, "until": 148.48948923333734}, {"on": false, "note": 64, "velocity": 0, "until": 148.604980150004}, {"on": true, "note": 69, "velocity": 101, "until": 148.723557150004}, {"on": false, "note": 69, "velocity": 0, "until": 148.84213415000403}, {"on": true, "note": 64, "velocity": 101, "until": 148.96071115000404}, {"on": false, "note": 64, "velocity": 0, "until": 149.07928815000406}, {"on": true, "note": 69, "velocity": 101, "until": 149.19786515000408}, {"on": false, "note": 69, "velocity": 0, "until": 149.3164421500041}, {"on": true, "note": 64, "velocity": 101, "until": 149.4350191500041}, {"on": false, "note": 64, "velocity": 0, "until": 149.55359615000413}, {"on": true, "note": 69, "velocity": 101, "until": 150.02779773333748}, {"on": false, "note": 69, "velocity": 0, "until": 150.2585667333375}, {"on": true, "note": 71, "velocity": 101, "until": 150.2585667333375}, {"on": true, "note": 67, "velocity": 101, "until": 150.3739512333375}, {"on": false, "note": 67, "velocity": 0, "until": 150.3739512333375}, {"on": false, "note": 71, "velocity": 0, "until": 150.4894265833375}, {"on": true, "note": 72, "velocity": 101, "until": 150.4894265833375}, {"on": true, "note": 67, "velocity": 101, "until": 150.60753658333752}, {"on": false, "note": 67, "velocity": 0, "until": 150.60753658333752}, {"on": false, "note": 72, "velocity": 0, "until": 150.72564658333755}, {"on": true, "note": 71, "velocity": 101, "until": 150.72564658333755}, {"on": true, "note": 67, "velocity": 101, "until": 150.84375658333758}, {"on": false, "note": 67, "velocity": 0, "until": 150.84375658333758}, {"on": false, "note": 71, "velocity": 0, "until": 150.9618665833376}, {"on": true, "note": 72, "velocity": 101, "until": 150.9618665833376}, {"on": true, "note": 67, "velocity": 101, "until": 151.07997658333764}, {"on": false, "note": 67, "velocity": 0, "until": 151.07997658333764}, {"on": false, "note": 72, "velocity": 0, "until": 151.19808658333767}, {"on": true, "note": 71, "velocity": 101, "until": 151.19808658333767}, {"on": true, "note": 67, "velocity": 101, "until": 151.3161965833377}, {"on": false, "note": 67, "velocity": 0, "until": 151.3161965833377}, {"on": false, "note": 71, "velocity": 0, "until": 151.43430658333773}, {"on": true, "note": 72, "velocity": 101, "until": 151.43430658333773}, {"on": true, "note": 67, "velocity": 101, "until": 151.67052658333776}, {"on": false, "note": 67, "velocity": 0, "until": 151.67052658333776}, {"on": false, "note": 72, "velocity": 0, "until": 151.9066557333378}, {"on": true, "note": 71, "velocity": 101, "until": 151.9066557333378}, {"on": true, "note": 62, "velocity": 101, "until": 152.3489629833378}, {"on": false, "note": 62, "velocity": 0, "until": 152.3489629833378}, {"on": false, "note": 71, "velocity": 0, "until": 152.36842920000447}, {"on": true, "note": 70, "velocity": 101, "until": 152.36842920000447}, {"on": true, "note": 67, "velocity": 101, "until": 152.83781511667118}, {"on": false, "note": 67, "velocity": 0, "until": 152.83781511667118}, {"on": false, "note": 70, "velocity": 0, "until": 152.85798773333786}, {"on": true, "note": 62, "velocity": 101, "until": 152.85798773333786}, {"on": true, "note": 69, "velocity": 101, "until": 153.30029498333786}, {"on": false, "note": 69, "velocity": 0, "until": 153.30029498333786}, {"on": false, "note": 62, "velocity": 0, "until": 153.31976120000454}, {"on": true, "note": 67, "velocity": 101, "until": 153.31976120000454}, {"on": true, "note": 62, "velocity": 101, "until": 153.78914711667124}, {"on": false, "note": 62, "velocity": 0, "until": 153.78914711667124}, {"on": false, "note": 67, "velocity": 0, "until": 153.80931973333793}, {"on": true, "note": 62, "velocity": 101, "until": 153.80931973333793}, {"on": true, "note": 67, "velocity": 101, "until": 154.25162698333793}, {"on": false, "note": 67, "velocity": 0, "until": 154.25162698333793}, {"on": false, "note": 62, "velocity": 0, "until": 154.2710932000046}, {"on": true, "note": 68, "velocity": 101, "until": 154.2710932000046}, {"on": true, "note": 63, "velocity": 101, "until": 154.51599020000464}, {"on": false, "note": 63, "velocity": 0, "until": 154.51599020000464}, {"on": false, "note": 68, "velocity": 0, "until": 154.51599020000464}, {"on": true, "note": 72, "velocity": 116, "until": 154.51599020000464}, {"on": true, "note": 68, "velocity": 101, "until": 154.63843870000466}, {"on": false, "note": 72, "velocity": 0, "until": 154.63843870000466}, {"on": true, "note": 74, "velocity": 116, "until": 154.750683158338}, {"on": false, "note": 74, "velocity": 0, "until": 154.76065173333802}, {"on": true, "note": 75, "velocity": 101, "until": 154.991420733338}, {"on": false, "note": 68, "velocity": 0, "until": 154.991420733338}, {"on": true, "note": 67, "velocity": 101, "until": 155.17795900833798}, {"on": false, "note": 67, "velocity": 0, "until": 155.22242520000464}, {"on": true, "note": 68, "velocity": 101, "until": 155.44691411667134}, {"on": false, "note": 75, "velocity": 0, "until": 155.46732220000467}, {"on": true, "note": 72, "velocity": 116, "until": 155.5897707000047}, {"on": false, "note": 72, "velocity": 0, "until": 155.5897707000047}, {"on": true, "note": 74, "velocity": 116, "until": 155.70201515833804}, {"on": false, "note": 74, "velocity": 0, "until": 155.71198373333806}, {"on": true, "note": 75, "velocity": 101, "until": 155.94275273333818}, {"on": false, "note": 68, "velocity": 0, "until": 155.94275273333818}, {"on": true, "note": 67, "velocity": 101, "until": 156.12929100833816}, {"on": false, "note": 67, "velocity": 0, "until": 156.17375720000481}, {"on": false, "note": 75, "velocity": 0, "until": 156.17375720000481}, {"on": true, "note": 68, "velocity": 101, "until": 156.17375720000481}, {"on": true, "note": 75, "velocity": 101, "until": 156.41865420000485}, {"on": false, "note": 68, "velocity": 0, "until": 156.41865420000485}, {"on": true, "note": 67, "velocity": 101, "until": 156.64314311667155}, {"on": false, "note": 67, "velocity": 0, "until": 156.64314311667155}, {"on": false, "note": 75, "velocity": 0, "until": 156.66331573333824}, {"on": true, "note": 68, "velocity": 101, "until": 156.66331573333824}, {"on": true, "note": 75, "velocity": 101, "until": 156.89408473333827}, {"on": false, "note": 68, "velocity": 0, "until": 156.89408473333827}, {"on": true, "note": 67, "velocity": 101, "until": 157.10562298333826}, {"on": false, "note": 67, "velocity": 0, "until": 157.10562298333826}, {"on": false, "note": 75, "velocity": 0, "until": 157.12508920000494}, {"on": true, "note": 68, "velocity": 101, "until": 157.12508920000494}, {"on": true, "note": 75, "velocity": 101, "until": 157.36998620000497}, {"on": false, "note": 68, "velocity": 0, "until": 157.36998620000497}, {"on": true, "note": 67, "velocity": 101, "until": 157.59447511667167}, {"on": false, "note": 67, "velocity": 0, "until": 157.59447511667167}, {"on": false, "note": 75, "velocity": 0, "until": 157.61464773333836}, {"on": true, "note": 68, "velocity": 101, "until": 157.61464773333836}, {"on": true, "note": 75, "velocity": 101, "until": 157.8454167333384}, {"on": false, "note": 68, "velocity": 0, "until": 157.8454167333384}, {"on": true, "note": 67, "velocity": 101, "until": 158.0569549833384}, {"on": false, "note": 67, "velocity": 0, "until": 158.0569549833384}, {"on": false, "note": 75, "velocity": 0, "until": 158.07642120000506}, {"on": true, "note": 70, "velocity": 101, "until": 158.07642120000506}, {"on": true, "note": 73, "velocity": 101, "until": 158.3213182000051}, {"on": false, "note": 70, "velocity": 0, "until": 158.3213182000051}, {"on": true, "note": 67, "velocity": 116, "until": 158.4437667000051}, {"on": false, "note": 67, "velocity": 0, "until": 158.4437667000051}, {"on": true, "note": 69, "velocity": 116, "until": 158.55601115833846}, {"on": false, "note": 69, "velocity": 0, "until": 158.56597973333848}, {"on": true, "note": 70, "velocity": 101, "until": 158.7967487333386}, {"on": false, "note": 73, "velocity": 0, "until": 158.7967487333386}, {"on": true, "note": 74, "velocity": 101, "until": 158.98328700833858}, {"on": false, "note": 74, "velocity": 0, "until": 159.02775320000524}, {"on": true, "note": 73, "velocity": 101, "until": 159.25224211667194}, {"on": false, "note": 70, "velocity": 0, "until": 159.27265020000527}, {"on": true, "note": 67, "velocity": 116, "until": 159.3950987000053}, {"on": false, "note": 67, "velocity": 0, "until": 159.3950987000053}, {"on": true, "note": 69, "velocity": 116, "until": 159.50734315833864}, {"on": false, "note": 69, "velocity": 0, "until": 159.51731173333866}, {"on": true, "note": 70, "velocity": 101, "until": 159.74808073333878}, {"on": false, "note": 73, "velocity": 0, "until": 159.74808073333878}, {"on": true, "note": 74, "velocity": 101, "until": 159.93461900833876}, {"on": false, "note": 74, "velocity": 0, "until": 159.97908520000541}, {"on": true, "note": 73, "velocity": 101, "until": 160.20357411667212}, {"on": false, "note": 70, "velocity": 0, "until": 160.22398220000545}, {"on": false, "note": 73, "velocity": 0, "until": 160.22398220000545}, {"on": true, "note": 67, "velocity": 116, "until": 160.22398220000545}, {"on": true, "note": 74, "velocity": 101, "until": 160.34643070000547}, {"on": false, "note": 67, "velocity": 0, "until": 160.34643070000547}, {"on": true, "note": 69, "velocity": 116, "until": 160.44847111667212}, {"on": false, "note": 74, "velocity": 0, "until": 160.4586751583388}, {"on": false, "note": 69, "velocity": 0, "until": 160.4686437333388}, {"on": true, "note": 70, "velocity": 101, "until": 160.4686437333388}, {"on": true, "note": 73, "velocity": 101, "until": 160.69941273333887}, {"on": false, "note": 73, "velocity": 0, "until": 160.69941273333887}, {"on": false, "note": 70, "velocity": 0, "until": 160.69941273333887}, {"on": true, "note": 67, "velocity": 101, "until": 160.69941273333887}, {"on": true, "note": 74, "velocity": 101, "until": 160.8147972333389}, {"on": false, "note": 67, "velocity": 0, "until": 160.8147972333389}, {"on": true, "note": 69, "velocity": 101, "until": 160.91095098333892}, {"on": false, "note": 74, "velocity": 0, "until": 160.92056635833893}, {"on": false, "note": 69, "velocity": 0, "until": 160.9304172000056}, {"on": true, "note": 70, "velocity": 101, "until": 160.9304172000056}, {"on": true, "note": 73, "velocity": 101, "until": 161.17531420000563}, {"on": false, "note": 73, "velocity": 0, "until": 161.17531420000563}, {"on": false, "note": 70, "velocity": 0, "until": 161.17531420000563}, {"on": true, "note": 67, "velocity": 101, "until": 161.17531420000563}, {"on": true, "note": 74, "velocity": 101, "until": 161.29776270000565}, {"on": false, "note": 67, "velocity": 0, "until": 161.29776270000565}, {"on": true, "note": 69, "velocity": 101, "until": 161.3998031166723}, {"on": false, "note": 74, "velocity": 0, "until": 161.41000715833897}, {"on": false, "note": 69, "velocity": 0, "until": 161.419975733339}, {"on": true, "note": 70, "velocity": 101, "until": 161.419975733339}, {"on": true, "note": 73, "velocity": 101, "until": 161.65074473333902}, {"on": false, "note": 70, "velocity": 0, "until": 161.65074473333902}, {"on": true, "note": 67, "velocity": 101, "until": 161.76612923333903}, {"on": false, "note": 67, "velocity": 0, "until": 161.76612923333903}, {"on": true, "note": 69, "velocity": 101, "until": 161.87189835833902}, {"on": false, "note": 69, "velocity": 0, "until": 161.8817492000057}, {"on": false, "note": 73, "velocity": 0, "until": 161.8817492000057}, {"on": true, "note": 74, "velocity": 101, "until": 161.8817492000057}, {"on": true, "note": 66, "velocity": 101, "until": 162.12664620000572}, {"on": false, "note": 66, "velocity": 0, "until": 162.12664620000572}, {"on": false, "note": 74, "velocity": 0, "until": 166.03863168333885}, {"on": true, "note": 62, "velocity": 101, "until": 166.1641546833388}, {"on": false, "note": 62, "velocity": 0, "until": 166.2895258333388}, {"on": true, "note": 67, "velocity": 101, "until": 167.02459368333874}, {"on": false, "note": 67, "velocity": 0, "until": 167.02459368333874}, {"on": true, "note": 62, "velocity": 101, "until": 167.1501166833387}, {"on": false, "note": 62, "velocity": 0, "until": 167.2754878333387}, {"on": true, "note": 71, "velocity": 101, "until": 168.01055568333862}, {"on": false, "note": 71, "velocity": 0, "until": 168.01055568333862}, {"on": true, "note": 69, "velocity": 101, "until": 168.13607868333858}, {"on": false, "note": 69, "velocity": 0, "until": 168.2614498333386}, {"on": true, "note": 72, "velocity": 101, "until": 168.9965176833385}, {"on": false, "note": 72, "velocity": 0, "until": 168.9965176833385}, {"on": true, "note": 69, "velocity": 101, "until": 169.12204068333847}, {"on": false, "note": 69, "velocity": 0, "until": 169.24741183333848}, {"on": true, "note": 76, "velocity": 101, "until": 169.73143368333842}, {"on": false, "note": 76, "velocity": 0, "until": 169.73143368333842}, {"on": true, "note": 74, "velocity": 101, "until": 170.10800268333807}, {"on": false, "note": 74, "velocity": 0, "until": 170.10800268333807}, {"on": true, "note": 76, "velocity": 101, "until": 170.23337383333796}, {"on": false, "note": 76, "velocity": 0, "until": 170.23337383333796}, {"on": true, "note": 74, "velocity": 101, "until": 170.475308833338}, {"on": false, "note": 74, "velocity": 0, "until": 170.475308833338}, {"on": true, "note": 72, "velocity": 101, "until": 170.596276333338}, {"on": false, "note": 72, "velocity": 0, "until": 170.717395683338}, {"on": true, "note": 71, "velocity": 101, "until": 170.84291868333796}, {"on": false, "note": 71, "velocity": 0, "until": 170.84291868333796}, {"on": true, "note": 72, "velocity": 101, "until": 170.96844168333791}, {"on": false, "note": 72, "velocity": 0, "until": 170.96844168333791}, {"on": true, "note": 71, "velocity": 101, "until": 171.09396468333787}, {"on": false, "note": 71, "velocity": 0, "until": 171.09396468333787}, {"on": true, "note": 69, "velocity": 101, "until": 171.21933583333788}, {"on": false, "note": 69, "velocity": 0, "until": 171.21933583333788}, {"on": true, "note": 71, "velocity": 101, "until": 171.28788408333787}, {"on": false, "note": 71, "velocity": 0, "until": 171.4612708333379}, {"on": true, "note": 79, "velocity": 101, "until": 171.52981908333788}, {"on": false, "note": 79, "velocity": 0, "until": 171.70335768333786}, {"on": true, "note": 74, "velocity": 101, "until": 172.07992668333762}, {"on": false, "note": 74, "velocity": 0, "until": 172.07992668333762}, {"on": true, "note": 76, "velocity": 101, "until": 172.2052978333376}, {"on": false, "note": 76, "velocity": 0, "until": 172.2052978333376}, {"on": true, "note": 74, "velocity": 101, "until": 172.44723283333764}, {"on": false, "note": 74, "velocity": 0, "until": 172.44723283333764}, {"on": true, "note": 72, "velocity": 101, "until": 172.56820033333764}, {"on": false, "note": 72, "velocity": 0, "until": 172.68931968333763}, {"on": true, "note": 71, "velocity": 101, "until": 172.8148426833376}, {"on": false, "note": 71, "velocity": 0, "until": 172.8148426833376}, {"on": true, "note": 72, "velocity": 101, "until": 172.94036568333755}, {"on": false, "note": 72, "velocity": 0, "until": 172.94036568333755}, {"on": true, "note": 71, "velocity": 101, "until": 173.0658886833375}, {"on": false, "note": 71, "velocity": 0, "until": 173.0658886833375}, {"on": true, "note": 69, "velocity": 101, "until": 173.1912598333375}, {"on": false, "note": 69, "velocity": 0, "until": 173.1912598333375}, {"on": true, "note": 67, "velocity": 101, "until": 173.43387955000418}, {"on": false, "note": 67, "velocity": 0, "until": 174.47397920000438}, {"on": true, "note": 62, "velocity": 81, "until": 174.5964277000044}, {"on": false, "note": 62, "velocity": 0, "until": 174.71906808333776}, {"on": true, "note": 74, "velocity": 81, "until": 175.47659320000483}, {"on": false, "note": 74, "velocity": 0, "until": 175.47659320000483}, {"on": true, "note": 70, "velocity": 81, "until": 175.59904170000485}, {"on": false, "note": 70, "velocity": 0, "until": 175.7216820833382}, {"on": true, "note": 67, "velocity": 81, "until": 176.47920720000528}, {"on": false, "note": 67, "velocity": 0, "until": 176.47920720000528}, {"on": true, "note": 67, "velocity": 81, "until": 176.6016557000053}, {"on": false, "note": 67, "velocity": 0, "until": 176.72429608333866}, {"on": true, "note": 73, "velocity": 81, "until": 177.23692420000546}, {"on": false, "note": 73, "velocity": 0, "until": 181.76510668334024}, {"on": true, "note": 62, "velocity": 101, "until": 182.26704683334023}, {"on": false, "note": 62, "velocity": 0, "until": 183.73703068334024}, {"on": true, "note": 69, "velocity": 101, "until": 183.73703068334024}, {"on": true, "note": 77, "velocity": 101, "until": 184.11359968333997}, {"on": false, "note": 77, "velocity": 0, "until": 184.11359968333997}, {"on": true, "note": 79, "velocity": 101, "until": 184.23897083333995}, {"on": false, "note": 79, "velocity": 0, "until": 184.23897083333995}, {"on": true, "note": 77, "velocity": 101, "until": 184.47082520833996}, {"on": false, "note": 77, "velocity": 0, "until": 184.48090583333996}, {"on": false, "note": 69, "velocity": 0, "until": 184.48090583333996}, {"on": true, "note": 69, "velocity": 101, "until": 184.48090583333996}, {"on": true, "note": 75, "velocity": 101, "until": 184.60187333333997}, {"on": false, "note": 75, "velocity": 0, "until": 184.60187333333997}, {"on": false, "note": 69, "velocity": 0, "until": 184.72299268333998}, {"on": true, "note": 70, "velocity": 101, "until": 184.72299268333998}, {"on": true, "note": 74, "velocity": 101, "until": 184.83387133333997}, {"on": false, "note": 74, "velocity": 0, "until": 184.84851568333997}, {"on": false, "note": 70, "velocity": 0, "until": 184.84851568333997}, {"on": true, "note": 77, "velocity": 101, "until": 184.96357843333996}, {"on": false, "note": 77, "velocity": 0, "until": 184.97403868333996}, {"on": true, "note": 69, "velocity": 101, "until": 184.97403868333996}, {"on": true, "note": 75, "velocity": 101, "until": 185.04516838333996}, {"on": false, "note": 75, "velocity": 0, "until": 185.09956168333994}, {"on": false, "note": 69, "velocity": 0, "until": 185.09956168333994}, {"on": true, "note": 72, "velocity": 101, "until": 185.17069138333994}, {"on": false, "note": 72, "velocity": 0, "until": 185.22493283333995}, {"on": true, "note": 70, "velocity": 101, "until": 185.34590033333996}, {"on": false, "note": 70, "velocity": 0, "until": 185.70890280000665}, {"on": true, "note": 62, "velocity": 101, "until": 186.20458915000694}, {"on": false, "note": 62, "velocity": 0, "until": 189.5895151500072}, {"on": true, "note": 64, "velocity": 101, "until": 189.5895151500072}, {"on": true, "note": 61, "velocity": 101, "until": 190.3041183666733}, {"on": false, "note": 61, "velocity": 0, "until": 190.3041183666733}, {"on": false, "note": 64, "velocity": 0, "until": 190.3041183666733}, {"on": true, "note": 64, "velocity": 101, "until": 190.3041183666733}, {"on": true, "note": 61, "velocity": 101, "until": 190.41862186667325}, {"on": false, "note": 61, "velocity": 0, "until": 190.41862186667325}, {"on": false, "note": 64, "velocity": 0, "until": 190.53335715000654}, {"on": true, "note": 65, "velocity": 101, "until": 190.53335715000654}, {"on": true, "note": 62, "velocity": 101, "until": 190.6548141500065}, {"on": false, "note": 62, "velocity": 0, "until": 190.6548141500065}, {"on": false, "note": 65, "velocity": 0, "until": 190.77627115000644}, {"on": true, "note": 67, "velocity": 101, "until": 190.77627115000644}, {"on": true, "note": 64, "velocity": 101, "until": 190.89772815000637}, {"on": false, "note": 64, "velocity": 0, "until": 190.89772815000637}, {"on": false, "note": 67, "velocity": 0, "until": 191.01895336667297}, {"on": true, "note": 69, "velocity": 101, "until": 191.01895336667297}, {"on": true, "note": 65, "velocity": 101, "until": 191.13345686667293}, {"on": false, "note": 65, "velocity": 0, "until": 191.13345686667293}, {"on": false, "note": 69, "velocity": 0, "until": 191.47719915000621}, {"on": true, "note": 67, "velocity": 101, "until": 191.47719915000621}, {"on": true, "note": 64, "velocity": 101, "until": 192.19180236667228}, {"on": false, "note": 64, "velocity": 0, "until": 192.19180236667228}, {"on": false, "note": 67, "velocity": 0, "until": 192.19180236667228}, {"on": true, "note": 64, "velocity": 101, "until": 192.19180236667228}, {"on": true, "note": 67, "velocity": 101, "until": 192.30630586667223}, {"on": false, "note": 67, "velocity": 0, "until": 192.30630586667223}, {"on": false, "note": 64, "velocity": 0, "until": 192.42104115000555}, {"on": true, "note": 69, "velocity": 101, "until": 192.42104115000555}, {"on": true, "note": 65, "velocity": 101, "until": 192.5424981500055}, {"on": false, "note": 65, "velocity": 0, "until": 192.5424981500055}, {"on": false, "note": 69, "velocity": 0, "until": 192.66395515000542}, {"on": true, "note": 70, "velocity": 101, "until": 192.66395515000542}, {"on": true, "note": 67, "velocity": 101, "until": 192.78541215000533}, {"on": false, "note": 67, "velocity": 0, "until": 192.78541215000533}, {"on": false, "note": 70, "velocity": 0, "until": 192.90663736667193}, {"on": true, "note": 72, "velocity": 101, "until": 192.90663736667193}, {"on": true, "note": 69, "velocity": 101, "until": 193.02114086667189}, {"on": false, "note": 69, "velocity": 0, "until": 193.02114086667189}, {"on": false, "note": 72, "velocity": 0, "until": 193.36564226667187}, {"on": true, "note": 67, "velocity": 101, "until": 193.36564226667187}, {"on": true, "note": 70, "velocity": 101, "until": 193.65346225000542}, {"on": false, "note": 67, "velocity": 0, "until": 193.8930455833387}, {"on": false, "note": 70, "velocity": 0, "until": 193.9032638333387}, {"on": true, "note": 70, "velocity": 101, "until": 194.02231133333873}, {"on": false, "note": 70, "velocity": 0, "until": 194.14135883333876}, {"on": true, "note": 70, "velocity": 101, "until": 194.26040633333878}, {"on": false, "note": 70, "velocity": 0, "until": 194.3797590833388}, {"on": true, "note": 70, "velocity": 101, "until": 195.3823730833388}, {"on": false, "note": 70, "velocity": 0, "until": 195.3823730833388}, {"on": true, "note": 67, "velocity": 101, "until": 195.3823730833388}, {"on": true, "note": 71, "velocity": 101, "until": 195.63878308333884}, {"on": false, "note": 67, "velocity": 0, "until": 195.88450933333888}, {"on": false, "note": 71, "velocity": 0, "until": 195.89500120000557}, {"on": true, "note": 71, "velocity": 101, "until": 196.01744970000556}, {"on": false, "note": 71, "velocity": 0, "until": 196.13989820000555}, {"on": true, "note": 71, "velocity": 101, "until": 196.26234670000557}, {"on": false, "note": 71, "velocity": 0, "until": 196.38498708333893}, {"on": true, "note": 72, "velocity": 101, "until": 196.38498708333893}, {"on": true, "note": 66, "velocity": 101, "until": 196.64139708333897}, {"on": false, "note": 66, "velocity": 0, "until": 197.15137046667246}, {"on": false, "note": 72, "velocity": 0, "until": 197.15137046667246}, {"on": true, "note": 71, "velocity": 101, "until": 197.43149535000578}, {"on": false, "note": 71, "velocity": 0, "until": 197.43149535000578}, {"on": true, "note": 62, "velocity": 86, "until": 197.8297243500058}, {"on": false, "note": 62, "velocity": 0, "until": 197.8297243500058}, {"on": true, "note": 64, "velocity": 86, "until": 197.9622092500058}, {"on": false, "note": 64, "velocity": 0, "until": 197.9622092500058}, {"on": true, "note": 62, "velocity": 86, "until": 198.21220925000577}, {"on": false, "note": 62, "velocity": 0, "until": 198.21220925000577}, {"on": true, "note": 62, "velocity": 86, "until": 198.33720925000577}, {"on": false, "note": 62, "velocity": 0, "until": 198.46239040000577}, {"on": true, "note": 62, "velocity": 86, "until": 198.7232594000058}, {"on": false, "note": 62, "velocity": 0, "until": 198.7232594000058}, {"on": true, "note": 66, "velocity": 86, "until": 198.98394725000574}, {"on": false, "note": 66, "velocity": 0, "until": 198.98394725000574}, {"on": true, "note": 69, "velocity": 86, "until": 199.23394725000574}, {"on": false, "note": 69, "velocity": 0, "until": 199.23394725000574}, {"on": true, "note": 72, "velocity": 86, "until": 199.48412840000574}, {"on": false, "note": 72, "velocity": 0, "until": 199.48412840000574}, {"on": true, "note": 71, "velocity": 86, "until": 200.0056852500057}, {"on": false, "note": 71, "velocity": 0, "until": 200.0056852500057}, {"on": true, "note": 67, "velocity": 86, "until": 200.1306852500057}, {"on": false, "note": 67, "velocity": 0, "until": 200.1306852500057}, {"on": true, "note": 69, "velocity": 86, "until": 200.2556852500057}, {"on": false, "note": 69, "velocity": 0, "until": 200.2556852500057}, {"on": true, "note": 74, "velocity": 86, "until": 200.2556852500057}, {"on": true, "note": 71, "velocity": 86, "until": 200.3806852500057}, {"on": false, "note": 71, "velocity": 0, "until": 200.3806852500057}, {"on": true, "note": 72, "velocity": 86, "until": 200.50586640000571}, {"on": false, "note": 72, "velocity": 0, "until": 200.50586640000571}, {"on": false, "note": 74, "velocity": 0, "until": 200.50586640000571}, {"on": true, "note": 72, "velocity": 86, "until": 200.50586640000571}, {"on": true, "note": 74, "velocity": 86, "until": 200.71238769167238}, {"on": false, "note": 74, "velocity": 0, "until": 200.7667354000057}, {"on": false, "note": 72, "velocity": 0, "until": 200.7667354000057}, {"on": true, "note": 69, "velocity": 86, "until": 200.7667354000057}, {"on": true, "note": 74, "velocity": 86, "until": 200.97325669167233}, {"on": false, "note": 74, "velocity": 0, "until": 201.02742325000565}, {"on": false, "note": 69, "velocity": 0, "until": 201.02742325000565}, {"on": true, "note": 66, "velocity": 86, "until": 201.02742325000565}, {"on": true, "note": 74, "velocity": 86, "until": 201.2253399166723}, {"on": false, "note": 74, "velocity": 0, "until": 201.27742325000563}, {"on": false, "note": 66, "velocity": 0, "until": 201.27742325000563}, {"on": true, "note": 62, "velocity": 86, "until": 201.27742325000563}, {"on": true, "note": 74, "velocity": 86, "until": 201.47533991667228}, {"on": false, "note": 74, "velocity": 0, "until": 201.5276044000056}, {"on": false, "note": 62, "velocity": 0, "until": 201.5276044000056}, {"on": true, "note": 67, "velocity": 86, "until": 201.5276044000056}, {"on": true, "note": 62, "velocity": 86, "until": 201.7884734000056}, {"on": false, "note": 67, "velocity": 0, "until": 201.9189079000056}, {"on": false, "note": 62, "velocity": 0, "until": 201.9189079000056}, {"on": true, "note": 64, "velocity": 86, "until": 202.04916125000557}, {"on": false, "note": 64, "velocity": 0, "until": 202.04916125000557}, {"on": true, "note": 62, "velocity": 86, "until": 202.29916125000557}, {"on": false, "note": 62, "velocity": 0, "until": 202.29916125000557}, {"on": true, "note": 62, "velocity": 86, "until": 202.42416125000557}, {"on": false, "note": 62, "velocity": 0, "until": 202.54934240000557}, {"on": true, "note": 62, "velocity": 86, "until": 202.81021140000558}, {"on": false, "note": 62, "velocity": 0, "until": 202.81021140000558}, {"on": true, "note": 66, "velocity": 86, "until": 203.07089925000554}, {"on": false, "note": 66, "velocity": 0, "until": 203.07089925000554}, {"on": true, "note": 69, "velocity": 86, "until": 203.32089925000554}, {"on": false, "note": 69, "velocity": 0, "until": 203.32089925000554}, {"on": true, "note": 72, "velocity": 86, "until": 203.5710060833389}, {"on": false, "note": 72, "velocity": 0, "until": 203.5710060833389}, {"on": true, "note": 71, "velocity": 86, "until": 204.08363420000563}, {"on": false, "note": 71, "velocity": 0, "until": 204.08363420000563}, {"on": true, "note": 67, "velocity": 86, "until": 204.20608270000562}, {"on": false, "note": 67, "velocity": 0, "until": 204.20608270000562}, {"on": true, "note": 69, "velocity": 86, "until": 204.3285312000056}, {"on": false, "note": 69, "velocity": 0, "until": 204.3285312000056}, {"on": true, "note": 74, "velocity": 86, "until": 204.3285312000056}, {"on": true, "note": 71, "velocity": 86, "until": 204.45097970000563}, {"on": false, "note": 71, "velocity": 0, "until": 204.45097970000563}, {"on": true, "note": 72, "velocity": 86, "until": 204.573620083339}, {"on": false, "note": 72, "velocity": 0, "until": 204.573620083339}, {"on": false, "note": 74, "velocity": 0, "until": 204.573620083339}, {"on": true, "note": 72, "velocity": 86, "until": 204.573620083339}, {"on": true, "note": 74, "velocity": 86, "until": 204.776611333339}, {"on": false, "note": 74, "velocity": 0, "until": 204.830030083339}, {"on": false, "note": 72, "velocity": 0, "until": 204.830030083339}, {"on": true, "note": 69, "velocity": 86, "until": 204.830030083339}, {"on": true, "note": 74, "velocity": 86, "until": 205.03302133333906}, {"on": false, "note": 74, "velocity": 0, "until": 205.08624820000574}, {"on": false, "note": 69, "velocity": 0, "until": 205.08624820000574}, {"on": true, "note": 66, "velocity": 86, "until": 205.08624820000574}, {"on": true, "note": 74, "velocity": 86, "until": 205.2801249916724}, {"on": false, "note": 74, "velocity": 0, "until": 205.33114520000575}, {"on": false, "note": 66, "velocity": 0, "until": 205.33114520000575}, {"on": true, "note": 62, "velocity": 86, "until": 205.33114520000575}, {"on": true, "note": 74, "velocity": 86, "until": 205.52502199167245}, {"on": false, "note": 74, "velocity": 0, "until": 205.57623408333913}, {"on": false, "note": 62, "velocity": 0, "until": 205.57623408333913}, {"on": true, "note": 71, "velocity": 86, "until": 205.57623408333913}, {"on": true, "note": 67, "velocity": 86, "until": 205.83264408333915}, {"on": false, "note": 67, "velocity": 0, "until": 205.83264408333915}, {"on": false, "note": 71, "velocity": 0, "until": 206.08876463333914}, {"on": true, "note": 64, "velocity": 101, "until": 207.06680358333915}, {"on": false, "note": 64, "velocity": 0, "until": 207.06680358333915}, {"on": true, "note": 67, "velocity": 101, "until": 207.7872195833393}, {"on": false, "note": 67, "velocity": 0, "until": 214.03378458333927}, {"on": true, "note": 64, "velocity": 101, "until": 214.99799583333933}, {"on": false, "note": 64, "velocity": 0, "until": 214.99799583333933}, {"on": true, "note": 67, "velocity": 101, "until": 215.71075358333928}, {"on": false, "note": 67, "velocity": 0, "until": 218.8446203666723}, {"on": true, "note": 76, "velocity": 101, "until": 218.8446203666723}, {"on": true, "note": 69, "velocity": 101, "until": 219.05454345000555}, {"on": false, "note": 69, "velocity": 0, "until": 219.05454345000555}, {"on": false, "note": 76, "velocity": 0, "until": 219.0736273666722}, {"on": true, "note": 76, "velocity": 101, "until": 219.0736273666722}, {"on": true, "note": 69, "velocity": 101, "until": 219.28355045000546}, {"on": false, "note": 69, "velocity": 0, "until": 219.28355045000546}, {"on": false, "note": 76, "velocity": 0, "until": 219.30286615000546}, {"on": true, "note": 71, "velocity": 101, "until": 219.30286615000546}, {"on": true, "note": 74, "velocity": 101, "until": 219.78895591667168}, {"on": false, "note": 74, "velocity": 0, "until": 219.78895591667168}, {"on": false, "note": 71, "velocity": 0, "until": 222.67661615000443}, {"on": true, "note": 76, "velocity": 101, "until": 222.79426315000444}, {"on": false, "note": 76, "velocity": 0, "until": 222.91191015000445}, {"on": true, "note": 76, "velocity": 101, "until": 223.14733115000445}, {"on": false, "note": 76, "velocity": 0, "until": 223.14733115000445}, {"on": true, "note": 84, "velocity": 121, "until": 223.5117021500044}, {"on": false, "note": 84, "velocity": 0, "until": 223.5117021500044}, {"on": true, "note": 83, "velocity": 116, "until": 223.6330321500044}, {"on": false, "note": 83, "velocity": 0, "until": 223.6330321500044}, {"on": true, "note": 81, "velocity": 114, "until": 223.7506791500044}, {"on": false, "note": 81, "velocity": 0, "until": 223.7506791500044}, {"on": true, "note": 79, "velocity": 112, "until": 223.8683261500044}, {"on": false, "note": 79, "velocity": 0, "until": 223.8683261500044}, {"on": true, "note": 78, "velocity": 110, "until": 223.9859731500044}, {"on": false, "note": 78, "velocity": 0, "until": 223.9859731500044}, {"on": true, "note": 76, "velocity": 108, "until": 224.1037471500044}, {"on": false, "note": 76, "velocity": 0, "until": 224.1037471500044}, {"on": true, "note": 74, "velocity": 106, "until": 224.34666115000437}, {"on": false, "note": 74, "velocity": 0, "until": 226.50228015000397}, {"on": true, "note": 76, "velocity": 101, "until": 226.61992715000397}, {"on": false, "note": 76, "velocity": 0, "until": 226.73757415000398}, {"on": true, "note": 76, "velocity": 101, "until": 226.97299515000398}, {"on": false, "note": 76, "velocity": 0, "until": 226.97299515000398}, {"on": true, "note": 84, "velocity": 121, "until": 227.33736615000393}, {"on": false, "note": 84, "velocity": 0, "until": 227.33736615000393}, {"on": true, "note": 83, "velocity": 119, "until": 227.45869615000393}, {"on": false, "note": 83, "velocity": 0, "until": 227.45869615000393}, {"on": true, "note": 81, "velocity": 118, "until": 227.57634315000394}, {"on": false, "note": 81, "velocity": 0, "until": 227.57634315000394}, {"on": true, "note": 79, "velocity": 117, "until": 227.69399015000394}, {"on": false, "note": 79, "velocity": 0, "until": 227.69399015000394}, {"on": true, "note": 78, "velocity": 116, "until": 227.81163715000395}, {"on": false, "note": 78, "velocity": 0, "until": 227.81163715000395}, {"on": true, "note": 76, "velocity": 115, "until": 227.92941115000394}, {"on": false, "note": 76, "velocity": 0, "until": 227.92941115000394}, {"on": true, "note": 74, "velocity": 114, "until": 228.1723251500039}, {"on": false, "note": 74, "velocity": 0, "until": 229.86243458333726}, {"on": true, "note": 69, "velocity": 101, "until": 229.86243458333726}, {"on": true, "note": 66, "velocity": 101, "until": 230.10243458333727}, {"on": false, "note": 66, "velocity": 0, "until": 230.10243458333727}, {"on": false, "note": 69, "velocity": 0, "until": 230.8004971500039}, {"on": true, "note": 71, "velocity": 101, "until": 230.8004971500039}, {"on": true, "note": 67, "velocity": 101, "until": 231.04341115000386}, {"on": false, "note": 67, "velocity": 0, "until": 231.04341115000386}, {"on": false, "note": 71, "velocity": 0, "until": 231.74433915000384}, {"on": true, "note": 78, "velocity": 101, "until": 231.74433915000384}, {"on": true, "note": 72, "velocity": 101, "until": 231.9872531500038}, {"on": false, "note": 72, "velocity": 0, "until": 231.9872531500038}, {"on": false, "note": 78, "velocity": 0, "until": 232.68810083333713}, {"on": true, "note": 79, "velocity": 101, "until": 232.68810083333713}, {"on": true, "note": 71, "velocity": 101, "until": 232.92794186667052}, {"on": false, "note": 71, "velocity": 0, "until": 232.92794186667052}, {"on": false, "note": 79, "velocity": 0, "until": 241.0112806500041}, {"on": true, "note": 67, "velocity": 101, "until": 241.12985765000408}, {"on": false, "note": 67, "velocity": 0, "until": 241.2484346500041}, {"on": true, "note": 67, "velocity": 101, "until": 241.36701165000412}, {"on": false, "note": 67, "velocity": 0, "until": 241.48558865000413}, {"on": true, "note": 67, "velocity": 101, "until": 241.60416565000412}, {"on": false, "note": 67, "velocity": 0, "until": 241.72274265000414}, {"on": true, "note": 67, "velocity": 101, "until": 241.84131965000415}, {"on": false, "note": 67, "velocity": 0, "until": 241.96002570000417}, {"on": true, "note": 67, "velocity": 101, "until": 242.4495842333375}, {"on": false, "note": 67, "velocity": 0, "until": 244.82666265000412}, {"on": true, "note": 67, "velocity": 101, "until": 244.94523965000414}, {"on": false, "note": 67, "velocity": 0, "until": 245.06381665000416}, {"on": true, "note": 67, "velocity": 101, "until": 245.18239365000417}, {"on": false, "note": 67, "velocity": 0, "until": 245.3009706500042}, {"on": true, "note": 67, "velocity": 101, "until": 245.4195476500042}, {"on": false, "note": 67, "velocity": 0, "until": 245.53812465000422}, {"on": true, "note": 67, "velocity": 101, "until": 245.65670165000424}, {"on": false, "note": 67, "velocity": 0, "until": 245.77540770000425}, {"on": true, "note": 72, "velocity": 101, "until": 246.02030470000426}, {"on": false, "note": 72, "velocity": 0, "until": 246.72673970000446}, {"on": true, "note": 67, "velocity": 101, "until": 246.72673970000446}, {"on": true, "note": 64, "velocity": 91, "until": 247.21629823333782}, {"on": false, "note": 64, "velocity": 0, "until": 247.21629823333782}, {"on": false, "note": 67, "velocity": 0, "until": 247.21629823333782}, {"on": true, "note": 66, "velocity": 101, "until": 247.21629823333782}, {"on": true, "note": 63, "velocity": 91, "until": 247.44706723333783}, {"on": false, "note": 66, "velocity": 0, "until": 247.44706723333783}, {"on": true, "note": 67, "velocity": 101, "until": 247.56245173333784}, {"on": false, "note": 67, "velocity": 0, "until": 247.56245173333784}, {"on": true, "note": 69, "velocity": 101, "until": 247.67807170000452}, {"on": false, "note": 69, "velocity": 0, "until": 247.67807170000452}, {"on": false, "note": 63, "velocity": 0, "until": 247.67807170000452}, {"on": true, "note": 64, "velocity": 91, "until": 247.67807170000452}, {"on": true, "note": 67, "velocity": 101, "until": 248.16763023333786}, {"on": false, "note": 67, "velocity": 0, "until": 248.16763023333786}, {"on": false, "note": 64, "velocity": 0, "until": 250.53094170000432}, {"on": true, "note": 64, "velocity": 91, "until": 250.53094170000432}, {"on": true, "note": 67, "velocity": 101, "until": 251.02050023333766}, {"on": false, "note": 67, "velocity": 0, "until": 251.02050023333766}, {"on": false, "note": 64, "velocity": 0, "until": 251.02050023333766}, {"on": true, "note": 66, "velocity": 101, "until": 251.02050023333766}, {"on": true, "note": 63, "velocity": 91, "until": 251.25126923333767}, {"on": false, "note": 66, "velocity": 0, "until": 251.25126923333767}, {"on": true, "note": 67, "velocity": 101, "until": 251.36665373333767}, {"on": false, "note": 67, "velocity": 0, "until": 251.36665373333767}, {"on": true, "note": 69, "velocity": 101, "until": 251.48227370000433}, {"on": false, "note": 69, "velocity": 0, "until": 251.48227370000433}, {"on": false, "note": 63, "velocity": 0, "until": 251.48227370000433}, {"on": true, "note": 64, "velocity": 91, "until": 251.48227370000433}, {"on": true, "note": 67, "velocity": 101, "until": 251.97183223333766}, {"on": false, "note": 67, "velocity": 0, "until": 251.97183223333766}, {"on": false, "note": 64, "velocity": 0, "until": 251.97183223333766}, {"on": true, "note": 69, "velocity": 101, "until": 252.07760135833766}, {"on": false, "note": 69, "velocity": 0, "until": 252.08721673333767}, {"on": true, "note": 71, "velocity": 101, "until": 252.19298585833766}, {"on": false, "note": 71, "velocity": 0, "until": 252.20260123333767}, {"on": true, "note": 72, "velocity": 101, "until": 252.30837035833767}, {"on": false, "note": 72, "velocity": 0, "until": 252.31798573333768}, {"on": true, "note": 74, "velocity": 101, "until": 252.42375485833767}, {"on": false, "note": 74, "velocity": 0, "until": 252.43346108333768}, {"on": true, "note": 76, "velocity": 101, "until": 252.43346108333768}, {"on": true, "note": 68, "velocity": 101, "until": 252.5515710833377}, {"on": false, "note": 68, "velocity": 0, "until": 252.5515710833377}, {"on": false, "note": 76, "velocity": 0, "until": 252.66968108333774}, {"on": true, "note": 69, "velocity": 101, "until": 252.66968108333774}, {"on": true, "note": 75, "velocity": 101, "until": 252.78779108333777}, {"on": false, "note": 75, "velocity": 0, "until": 252.78779108333777}, {"on": false, "note": 69, "velocity": 0, "until": 252.9059010833378}, {"on": true, "note": 76, "velocity": 101, "until": 252.9059010833378}, {"on": true, "note": 68, "velocity": 101, "until": 253.02401108333783}, {"on": false, "note": 68, "velocity": 0, "until": 253.02401108333783}, {"on": false, "note": 76, "velocity": 0, "until": 253.14212108333786}, {"on": true, "note": 75, "velocity": 101, "until": 253.14212108333786}, {"on": true, "note": 69, "velocity": 101, "until": 253.26023108333789}, {"on": false, "note": 69, "velocity": 0, "until": 253.26023108333789}, {"on": false, "note": 75, "velocity": 0, "until": 253.37834108333792}, {"on": true, "note": 76, "velocity": 101, "until": 253.37834108333792}, {"on": true, "note": 68, "velocity": 101, "until": 253.8506902333383}, {"on": false, "note": 68, "velocity": 0, "until": 253.8506902333383}, {"on": false, "note": 76, "velocity": 0, "until": 255.555700700005}, {"on": true, "note": 69, "velocity": 101, "until": 255.555700700005}, {"on": true, "note": 81, "velocity": 101, "until": 255.7434550666717}, {"on": false, "note": 81, "velocity": 0, "until": 255.7434550666717}, {"on": false, "note": 69, "velocity": 0, "until": 255.80036223333838}, {"on": true, "note": 69, "velocity": 101, "until": 255.80036223333838}, {"on": true, "note": 77, "velocity": 101, "until": 255.9772851333384}, {"on": false, "note": 77, "velocity": 0, "until": 255.9772851333384}, {"on": false, "note": 69, "velocity": 0, "until": 256.0311312333384}, {"on": true, "note": 69, "velocity": 101, "until": 256.0311312333384}, {"on": true, "note": 74, "velocity": 101, "until": 256.20805413333835}, {"on": false, "note": 74, "velocity": 0, "until": 256.20805413333835}, {"on": false, "note": 69, "velocity": 0, "until": 256.262135700005}, {"on": true, "note": 72, "velocity": 101, "until": 256.262135700005}, {"on": true, "note": 67, "velocity": 101, "until": 256.507032700005}, {"on": false, "note": 67, "velocity": 0, "until": 256.507032700005}, {"on": false, "note": 72, "velocity": 0, "until": 257.4583647000051}, {"on": true, "note": 79, "velocity": 101, "until": 257.4583647000051}, {"on": true, "note": 67, "velocity": 101, "until": 257.6461190666718}, {"on": false, "note": 67, "velocity": 0, "until": 257.6461190666718}, {"on": false, "note": 79, "velocity": 0, "until": 257.70302623333845}, {"on": true, "note": 76, "velocity": 101, "until": 257.70302623333845}, {"on": true, "note": 67, "velocity": 101, "until": 257.87994913333824}, {"on": false, "note": 67, "velocity": 0, "until": 257.87994913333824}, {"on": false, "note": 76, "velocity": 0, "until": 257.9337952333381}, {"on": true, "note": 72, "velocity": 101, "until": 257.9337952333381}, {"on": true, "note": 67, "velocity": 101, "until": 258.11071813333797}, {"on": false, "note": 67, "velocity": 0, "until": 258.11071813333797}, {"on": false, "note": 72, "velocity": 0, "until": 258.1647997000046}, {"on": true, "note": 71, "velocity": 101, "until": 258.1647997000046}, {"on": true, "note": 67, "velocity": 101, "until": 258.2872482000046}, {"on": false, "note": 67, "velocity": 0, "until": 258.2872482000046}, {"on": false, "note": 71, "velocity": 0, "until": 258.40969670000464}, {"on": true, "note": 71, "velocity": 101, "until": 258.40969670000464}, {"on": true, "note": 74, "velocity": 101, "until": 258.88512723333776}, {"on": false, "note": 74, "velocity": 0, "until": 258.88512723333776}, {"on": false, "note": 71, "velocity": 0, "until": 258.88512723333776}, {"on": true, "note": 72, "velocity": 101, "until": 258.88512723333776}, {"on": true, "note": 76, "velocity": 101, "until": 259.1161317000044}, {"on": false, "note": 76, "velocity": 0, "until": 259.1161317000044}, {"on": false, "note": 72, "velocity": 0, "until": 259.1161317000044}, {"on": true, "note": 77, "velocity": 101, "until": 259.1161317000044}, {"on": true, "note": 74, "velocity": 101, "until": 259.23858020000444}, {"on": false, "note": 74, "velocity": 0, "until": 259.23858020000444}, {"on": false, "note": 77, "velocity": 0, "until": 259.36102870000445}, {"on": true, "note": 71, "velocity": 101, "until": 259.36102870000445}, {"on": true, "note": 74, "velocity": 101, "until": 259.83645923333756}, {"on": false, "note": 74, "velocity": 0, "until": 259.83645923333756}, {"on": false, "note": 71, "velocity": 0, "until": 259.83645923333756}, {"on": true, "note": 72, "velocity": 101, "until": 259.83645923333756}, {"on": true, "note": 76, "velocity": 101, "until": 260.0674637000042}, {"on": false, "note": 76, "velocity": 0, "until": 260.0674637000042}, {"on": false, "note": 72, "velocity": 0, "until": 260.0674637000042}, {"on": true, "note": 77, "velocity": 101, "until": 260.0674637000042}, {"on": true, "note": 74, "velocity": 101, "until": 260.18991220000424}, {"on": false, "note": 74, "velocity": 0, "until": 260.18991220000424}, {"on": false, "note": 77, "velocity": 0, "until": 260.31236070000426}, {"on": true, "note": 71, "velocity": 101, "until": 260.31236070000426}, {"on": true, "note": 74, "velocity": 101, "until": 260.7877912333374}, {"on": false, "note": 74, "velocity": 0, "until": 260.7877912333374}, {"on": false, "note": 71, "velocity": 0, "until": 260.7877912333374}, {"on": true, "note": 72, "velocity": 101, "until": 260.7877912333374}, {"on": true, "note": 76, "velocity": 101, "until": 261.01879570000403}, {"on": false, "note": 76, "velocity": 0, "until": 261.01879570000403}, {"on": false, "note": 72, "velocity": 0, "until": 261.01879570000403}, {"on": true, "note": 71, "velocity": 101, "until": 261.01879570000403}, {"on": true, "note": 74, "velocity": 101, "until": 261.26390291667076}, {"on": false, "note": 74, "velocity": 0, "until": 261.26390291667076}, {"on": false, "note": 71, "velocity": 0, "until": 263.9526671333375}, {"on": true, "note": 67, "velocity": 101, "until": 264.0721886333375}, {"on": false, "note": 67, "velocity": 0, "until": 264.19171013333744}, {"on": true, "note": 67, "velocity": 101, "until": 264.3112316333374}, {"on": false, "note": 67, "velocity": 0, "until": 264.43075313333736}, {"on": true, "note": 67, "velocity": 101, "until": 264.5502746333373}, {"on": false, "note": 67, "velocity": 0, "until": 264.6697961333373}, {"on": true, "note": 67, "velocity": 101, "until": 264.78931763333725}, {"on": false, "note": 67, "velocity": 0, "until": 264.9088391333372}, {"on": true, "note": 67, "velocity": 101, "until": 265.38678723333715}, {"on": false, "note": 67, "velocity": 0, "until": 265.6175562333371}, {"on": true, "note": 76, "velocity": 101, "until": 265.6175562333371}, {"on": true, "note": 67, "velocity": 101, "until": 265.73294073333705}, {"on": false, "note": 67, "velocity": 0, "until": 265.73294073333705}, {"on": false, "note": 76, "velocity": 0, "until": 265.848479083337}, {"on": true, "note": 77, "velocity": 101, "until": 265.848479083337}, {"on": true, "note": 69, "velocity": 101, "until": 265.96847908333706}, {"on": false, "note": 69, "velocity": 0, "until": 265.96847908333706}, {"on": false, "note": 77, "velocity": 0, "until": 266.0884790833371}, {"on": true, "note": 76, "velocity": 101, "until": 266.0884790833371}, {"on": true, "note": 67, "velocity": 101, "until": 266.2084790833372}, {"on": false, "note": 67, "velocity": 0, "until": 266.2084790833372}, {"on": false, "note": 76, "velocity": 0, "until": 266.32847908333724}, {"on": true, "note": 77, "velocity": 101, "until": 266.32847908333724}, {"on": true, "note": 69, "velocity": 101, "until": 266.4484790833373}, {"on": false, "note": 69, "velocity": 0, "until": 266.4484790833373}, {"on": false, "note": 77, "velocity": 0, "until": 266.56847908333737}, {"on": true, "note": 76, "velocity": 101, "until": 266.56847908333737}, {"on": true, "note": 67, "velocity": 101, "until": 266.6884790833374}, {"on": false, "note": 67, "velocity": 0, "until": 266.6884790833374}, {"on": false, "note": 76, "velocity": 0, "until": 266.8084790833375}, {"on": true, "note": 77, "velocity": 101, "until": 266.8084790833375}, {"on": true, "note": 69, "velocity": 101, "until": 267.28832523333836}, {"on": false, "note": 69, "velocity": 0, "until": 267.28832523333836}, {"on": false, "note": 77, "velocity": 0, "until": 267.5190942333383}, {"on": true, "note": 64, "velocity": 101, "until": 267.63447873333826}, {"on": false, "note": 64, "velocity": 0, "until": 267.74996965000486}, {"on": true, "note": 69, "velocity": 101, "until": 267.8685466500048}, {"on": false, "note": 69, "velocity": 0, "until": 267.9871236500048}, {"on": true, "note": 64, "velocity": 101, "until": 268.10570065000474}, {"on": false, "note": 64, "velocity": 0, "until": 268.2242776500047}, {"on": true, "note": 69, "velocity": 101, "until": 268.34285465000465}, {"on": false, "note": 69, "velocity": 0, "until": 268.4614316500046}, {"on": true, "note": 64, "velocity": 101, "until": 268.5800086500046}, {"on": false, "note": 64, "velocity": 0, "until": 268.69858565000453}, {"on": true, "note": 69, "velocity": 101, "until": 269.17278723333783}, {"on": false, "note": 69, "velocity": 0, "until": 269.4035562333378}, {"on": true, "note": 71, "velocity": 101, "until": 269.4035562333378}, {"on": true, "note": 67, "velocity": 101, "until": 269.51894073333773}, {"on": false, "note": 67, "velocity": 0, "until": 269.51894073333773}, {"on": false, "note": 71, "velocity": 0, "until": 269.6344160833376}, {"on": true, "note": 72, "velocity": 101, "until": 269.6344160833376}, {"on": true, "note": 67, "velocity": 101, "until": 269.7525260833375}, {"on": false, "note": 67, "velocity": 0, "until": 269.7525260833375}, {"on": false, "note": 72, "velocity": 0, "until": 269.8706360833374}, {"on": true, "note": 71, "velocity": 101, "until": 269.8706360833374}, {"on": true, "note": 67, "velocity": 101, "until": 269.9887460833373}, {"on": false, "note": 67, "velocity": 0, "until": 269.9887460833373}, {"on": false, "note": 71, "velocity": 0, "until": 270.10685608333716}, {"on": true, "note": 72, "velocity": 101, "until": 270.10685608333716}, {"on": true, "note": 67, "velocity": 101, "until": 270.22496608333705}, {"on": false, "note": 67, "velocity": 0, "until": 270.22496608333705}, {"on": false, "note": 72, "velocity": 0, "until": 270.34307608333694}, {"on": true, "note": 71, "velocity": 101, "until": 270.34307608333694}, {"on": true, "note": 67, "velocity": 101, "until": 270.4611860833368}, {"on": false, "note": 67, "velocity": 0, "until": 270.4611860833368}, {"on": false, "note": 71, "velocity": 0, "until": 270.5792960833367}, {"on": true, "note": 72, "velocity": 101, "until": 270.5792960833367}, {"on": true, "note": 67, "velocity": 101, "until": 270.8155160833366}, {"on": false, "note": 67, "velocity": 0, "until": 270.8155160833366}, {"on": false, "note": 72, "velocity": 0, "until": 271.0516452333365}, {"on": true, "note": 71, "velocity": 101, "until": 271.0516452333365}, {"on": true, "note": 62, "velocity": 101, "until": 271.4939524833362}, {"on": false, "note": 62, "velocity": 0, "until": 271.4939524833362}, {"on": false, "note": 71, "velocity": 0, "until": 271.5134187000029}, {"on": true, "note": 70, "velocity": 101, "until": 271.5134187000029}, {"on": true, "note": 67, "velocity": 101, "until": 271.98280461666957}, {"on": false, "note": 67, "velocity": 0, "until": 271.98280461666957}, {"on": false, "note": 70, "velocity": 0, "until": 272.0029772333362}, {"on": true, "note": 62, "velocity": 101, "until": 272.0029772333362}, {"on": true, "note": 69, "velocity": 101, "until": 272.4452844833359}, {"on": false, "note": 69, "velocity": 0, "until": 272.4452844833359}, {"on": false, "note": 62, "velocity": 0, "until": 272.4647507000026}, {"on": true, "note": 67, "velocity": 101, "until": 272.4647507000026}, {"on": true, "note": 62, "velocity": 101, "until": 272.93413661666926}, {"on": false, "note": 62, "velocity": 0, "until": 272.93413661666926}, {"on": false, "note": 67, "velocity": 0, "until": 272.9543092333359}, {"on": true, "note": 62, "velocity": 101, "until": 272.9543092333359}, {"on": true, "note": 67, "velocity": 101, "until": 273.3966164833356}, {"on": false, "note": 67, "velocity": 0, "until": 273.3966164833356}, {"on": false, "note": 62, "velocity": 0, "until": 273.4160827000023}, {"on": true, "note": 68, "velocity": 101, "until": 273.4160827000023}, {"on": true, "note": 63, "velocity": 101, "until": 273.6609797000023}, {"on": false, "note": 63, "velocity": 0, "until": 273.6609797000023}, {"on": false, "note": 68, "velocity": 0, "until": 273.6609797000023}, {"on": true, "note": 72, "velocity": 116, "until": 273.6609797000023}, {"on": true, "note": 68, "velocity": 101, "until": 273.78342820000233}, {"on": false, "note": 72, "velocity": 0, "until": 273.78342820000233}, {"on": true, "note": 74, "velocity": 116, "until": 273.8956726583357}, {"on": false, "note": 74, "velocity": 0, "until": 273.90564123333564}, {"on": true, "note": 75, "velocity": 101, "until": 274.1364102333356}, {"on": false, "note": 68, "velocity": 0, "until": 274.1364102333356}, {"on": true, "note": 67, "velocity": 101, "until": 274.32294850833557}, {"on": false, "note": 67, "velocity": 0, "until": 274.36741470000226}, {"on": true, "note": 68, "velocity": 101, "until": 274.59190361666896}, {"on": false, "note": 75, "velocity": 0, "until": 274.6123117000023}, {"on": true, "note": 72, "velocity": 116, "until": 274.7347602000023}, {"on": false, "note": 72, "velocity": 0, "until": 274.7347602000023}, {"on": true, "note": 74, "velocity": 116, "until": 274.84700465833566}, {"on": false, "note": 74, "velocity": 0, "until": 274.8569732333356}, {"on": true, "note": 75, "velocity": 101, "until": 275.0877422333351}, {"on": false, "note": 68, "velocity": 0, "until": 275.0877422333351}, {"on": true, "note": 67, "velocity": 101, "until": 275.2742805083351}, {"on": false, "note": 67, "velocity": 0, "until": 275.3187467000018}, {"on": false, "note": 75, "velocity": 0, "until": 275.3187467000018}, {"on": true, "note": 68, "velocity": 101, "until": 275.3187467000018}, {"on": true, "note": 75, "velocity": 101, "until": 275.5636437000018}, {"on": false, "note": 68, "velocity": 0, "until": 275.5636437000018}, {"on": true, "note": 67, "velocity": 101, "until": 275.7881326166685}, {"on": false, "note": 67, "velocity": 0, "until": 275.7881326166685}, {"on": false, "note": 75, "velocity": 0, "until": 275.80830523333515}, {"on": true, "note": 68, "velocity": 101, "until": 275.80830523333515}, {"on": true, "note": 75, "velocity": 101, "until": 276.0390742333348}, {"on": false, "note": 68, "velocity": 0, "until": 276.0390742333348}, {"on": true, "note": 67, "velocity": 101, "until": 276.25061248333475}, {"on": false, "note": 67, "velocity": 0, "until": 276.25061248333475}, {"on": false, "note": 75, "velocity": 0, "until": 276.2700787000014}, {"on": true, "note": 68, "velocity": 101, "until": 276.2700787000014}, {"on": true, "note": 75, "velocity": 101, "until": 276.51497570000146}, {"on": false, "note": 68, "velocity": 0, "until": 276.51497570000146}, {"on": true, "note": 67, "velocity": 101, "until": 276.73946461666816}, {"on": false, "note": 67, "velocity": 0, "until": 276.73946461666816}, {"on": false, "note": 75, "velocity": 0, "until": 276.7596372333348}, {"on": true, "note": 68, "velocity": 101, "until": 276.7596372333348}, {"on": true, "note": 75, "velocity": 101, "until": 276.99040623333445}, {"on": false, "note": 68, "velocity": 0, "until": 276.99040623333445}, {"on": true, "note": 67, "velocity": 101, "until": 277.2019444833344}, {"on": false, "note": 67, "velocity": 0, "until": 277.2019444833344}, {"on": false, "note": 75, "velocity": 0, "until": 277.22141070000106}, {"on": true, "note": 70, "velocity": 101, "until": 277.22141070000106}, {"on": true, "note": 73, "velocity": 101, "until": 277.4663077000011}, {"on": false, "note": 70, "velocity": 0, "until": 277.4663077000011}, {"on": true, "note": 67, "velocity": 116, "until": 277.5887562000011}, {"on": false, "note": 67, "velocity": 0, "until": 277.5887562000011}, {"on": true, "note": 69, "velocity": 116, "until": 277.70100065833446}, {"on": false, "note": 69, "velocity": 0, "until": 277.7109692333344}, {"on": true, "note": 70, "velocity": 101, "until": 277.9417382333339}, {"on": false, "note": 73, "velocity": 0, "until": 277.9417382333339}, {"on": true, "note": 74, "velocity": 101, "until": 278.1282765083339}, {"on": false, "note": 74, "velocity": 0, "until": 278.1727427000005}, {"on": true, "note": 73, "velocity": 101, "until": 278.3972316166672}, {"on": false, "note": 70, "velocity": 0, "until": 278.41763970000056}, {"on": true, "note": 67, "velocity": 116, "until": 278.5400882000006}, {"on": false, "note": 67, "velocity": 0, "until": 278.5400882000006}, {"on": true, "note": 69, "velocity": 116, "until": 278.65233265833393}, {"on": false, "note": 69, "velocity": 0, "until": 278.6623012333339}, {"on": true, "note": 70, "velocity": 101, "until": 278.8930702333334}, {"on": false, "note": 73, "velocity": 0, "until": 278.8930702333334}, {"on": true, "note": 74, "velocity": 101, "until": 279.07960850833337}, {"on": false, "note": 74, "velocity": 0, "until": 279.1240747}, {"on": true, "note": 73, "velocity": 101, "until": 279.3485636166667}, {"on": false, "note": 70, "velocity": 0, "until": 279.36897170000003}, {"on": false, "note": 73, "velocity": 0, "until": 279.36897170000003}, {"on": true, "note": 67, "velocity": 116, "until": 279.36897170000003}, {"on": true, "note": 74, "velocity": 101, "until": 279.49142020000005}, {"on": false, "note": 67, "velocity": 0, "until": 279.49142020000005}, {"on": true, "note": 69, "velocity": 116, "until": 279.59346061666673}, {"on": false, "note": 74, "velocity": 0, "until": 279.6036646583334}, {"on": false, "note": 69, "velocity": 0, "until": 279.61363323333336}, {"on": true, "note": 70, "velocity": 101, "until": 279.61363323333336}, {"on": true, "note": 73, "velocity": 101, "until": 279.84440223333297}, {"on": false, "note": 73, "velocity": 0, "until": 279.84440223333297}, {"on": false, "note": 70, "velocity": 0, "until": 279.84440223333297}, {"on": true, "note": 67, "velocity": 101, "until": 279.84440223333297}, {"on": true, "note": 74, "velocity": 101, "until": 279.95978673333286}, {"on": false, "note": 67, "velocity": 0, "until": 279.95978673333286}, {"on": true, "note": 69, "velocity": 101, "until": 280.05594048333285}, {"on": false, "note": 74, "velocity": 0, "until": 280.0655558583328}, {"on": false, "note": 69, "velocity": 0, "until": 280.07540669999946}, {"on": true, "note": 70, "velocity": 101, "until": 280.07540669999946}, {"on": true, "note": 73, "velocity": 101, "until": 280.3203036999995}, {"on": false, "note": 73, "velocity": 0, "until": 280.3203036999995}, {"on": false, "note": 70, "velocity": 0, "until": 280.3203036999995}, {"on": true, "note": 67, "velocity": 101, "until": 280.3203036999995}, {"on": true, "note": 74, "velocity": 101, "until": 280.4427521999995}, {"on": false, "note": 67, "velocity": 0, "until": 280.4427521999995}, {"on": true, "note": 69, "velocity": 101, "until": 280.5447926166662}, {"on": false, "note": 74, "velocity": 0, "until": 280.55499665833287}, {"on": false, "note": 69, "velocity": 0, "until": 280.5649652333328}, {"on": true, "note": 70, "velocity": 101, "until": 280.5649652333328}, {"on": true, "note": 73, "velocity": 101, "until": 280.7957342333325}, {"on": false, "note": 70, "velocity": 0, "until": 280.7957342333325}, {"on": true, "note": 67, "velocity": 101, "until": 280.91111873333244}, {"on": false, "note": 67, "velocity": 0, "until": 280.91111873333244}, {"on": true, "note": 69, "velocity": 101, "until": 281.0168878583324}, {"on": false, "note": 69, "velocity": 0, "until": 281.02673869999904}, {"on": false, "note": 73, "velocity": 0, "until": 281.02673869999904}, {"on": true, "note": 66, "velocity": 101, "until": 281.02673869999904}, {"on": true, "note": 74, "velocity": 101, "until": 281.2716356999991}, {"on": false, "note": 74, "velocity": 0, "until": 281.2716356999991}, {"on": false, "note": 66, "velocity": 0, "until": 285.1836211833323}, {"on": true, "note": 62, "velocity": 101, "until": 285.30914418333225}, {"on": false, "note": 62, "velocity": 0, "until": 285.43451533333223}, {"on": true, "note": 67, "velocity": 101, "until": 286.1695831833325}, {"on": false, "note": 67, "velocity": 0, "until": 286.1695831833325}, {"on": true, "note": 62, "velocity": 101, "until": 286.29510618333245}, {"on": false, "note": 62, "velocity": 0, "until": 286.4204773333324}, {"on": true, "note": 71, "velocity": 101, "until": 287.1555451833327}, {"on": false, "note": 71, "velocity": 0, "until": 287.1555451833327}, {"on": true, "note": 69, "velocity": 101, "until": 287.28106818333265}, {"on": false, "note": 69, "velocity": 0, "until": 287.4064393333326}, {"on": true, "note": 72, "velocity": 101, "until": 288.1415071833329}, {"on": false, "note": 72, "velocity": 0, "until": 288.1415071833329}, {"on": true, "note": 69, "velocity": 101, "until": 288.26703018333285}, {"on": false, "note": 69, "velocity": 0, "until": 288.3924013333328}, {"on": true, "note": 76, "velocity": 101, "until": 288.87642318333326}, {"on": false, "note": 76, "velocity": 0, "until": 288.87642318333326}, {"on": true, "note": 74, "velocity": 101, "until": 289.252992183332}, {"on": false, "note": 74, "velocity": 0, "until": 289.252992183332}, {"on": true, "note": 76, "velocity": 101, "until": 289.3783633333318}, {"on": false, "note": 76, "velocity": 0, "until": 289.3783633333318}, {"on": true, "note": 74, "velocity": 101, "until": 289.6202983333319}, {"on": false, "note": 74, "velocity": 0, "until": 289.6202983333319}, {"on": true, "note": 72, "velocity": 101, "until": 289.74126583333197}, {"on": false, "note": 72, "velocity": 0, "until": 289.862385183332}, {"on": true, "note": 71, "velocity": 101, "until": 289.9879081833319}, {"on": false, "note": 71, "velocity": 0, "until": 289.9879081833319}, {"on": true, "note": 72, "velocity": 101, "until": 290.11343118333184}, {"on": false, "note": 72, "velocity": 0, "until": 290.11343118333184}, {"on": true, "note": 71, "velocity": 101, "until": 290.23895418333177}, {"on": false, "note": 71, "velocity": 0, "until": 290.23895418333177}, {"on": true, "note": 69, "velocity": 101, "until": 290.36432533333175}, {"on": false, "note": 69, "velocity": 0, "until": 290.36432533333175}, {"on": true, "note": 71, "velocity": 101, "until": 290.4328735833318}, {"on": false, "note": 71, "velocity": 0, "until": 290.6062603333319}, {"on": true, "note": 79, "velocity": 101, "until": 290.6748085833319}, {"on": false, "note": 79, "velocity": 0, "until": 290.84834718333195}, {"on": true, "note": 74, "velocity": 101, "until": 291.2249161833312}, {"on": false, "note": 74, "velocity": 0, "until": 291.2249161833312}, {"on": true, "note": 76, "velocity": 101, "until": 291.35028733333104}, {"on": false, "note": 76, "velocity": 0, "until": 291.35028733333104}, {"on": true, "note": 74, "velocity": 101, "until": 291.59222233333116}, {"on": false, "note": 74, "velocity": 0, "until": 291.59222233333116}, {"on": true, "note": 72, "velocity": 101, "until": 291.7131898333312}, {"on": false, "note": 72, "velocity": 0, "until": 291.83430918333124}, {"on": true, "note": 71, "velocity": 101, "until": 291.9598321833312}, {"on": false, "note": 71, "velocity": 0, "until": 291.9598321833312}, {"on": true, "note": 72, "velocity": 101, "until": 292.0853551833311}, {"on": false, "note": 72, "velocity": 0, "until": 292.0853551833311}, {"on": true, "note": 71, "velocity": 101, "until": 292.21087818333103}, {"on": false, "note": 71, "velocity": 0, "until": 292.21087818333103}, {"on": true, "note": 69, "velocity": 101, "until": 292.336249333331}, {"on": false, "note": 69, "velocity": 0, "until": 292.336249333331}, {"on": true, "note": 67, "velocity": 101, "until": 292.57886904999776}, {"on": false, "note": 67, "velocity": 0, "until": 293.6189686999977}, {"on": true, "note": 62, "velocity": 81, "until": 293.7414171999977}, {"on": false, "note": 62, "velocity": 0, "until": 293.86405758333103}, {"on": true, "note": 74, "velocity": 81, "until": 294.62158269999765}, {"on": false, "note": 74, "velocity": 0, "until": 294.62158269999765}, {"on": true, "note": 70, "velocity": 81, "until": 294.74403119999766}, {"on": false, "note": 70, "velocity": 0, "until": 294.86667158333097}, {"on": true, "note": 67, "velocity": 81, "until": 295.6241966999976}, {"on": false, "note": 67, "velocity": 0, "until": 295.6241966999976}, {"on": true, "note": 67, "velocity": 81, "until": 295.7466451999976}, {"on": false, "note": 67, "velocity": 0, "until": 295.8692855833309}, {"on": true, "note": 73, "velocity": 81, "until": 296.3819136999975}, {"on": false, "note": 73, "velocity": 0, "until": 300.9100961833306}, {"on": true, "note": 62, "velocity": 101, "until": 301.41203633333004}, {"on": false, "note": 62, "velocity": 0, "until": 302.88202018333004}, {"on": true, "note": 77, "velocity": 101, "until": 302.88202018333004}, {"on": true, "note": 69, "velocity": 101, "until": 303.25858918333006}, {"on": false, "note": 77, "velocity": 0, "until": 303.25858918333006}, {"on": true, "note": 79, "velocity": 101, "until": 303.38396033333004}, {"on": false, "note": 79, "velocity": 0, "until": 303.38396033333004}, {"on": true, "note": 77, "velocity": 101, "until": 303.61581470833005}, {"on": false, "note": 77, "velocity": 0, "until": 303.62589533333005}, {"on": false, "note": 69, "velocity": 0, "until": 303.62589533333005}, {"on": true, "note": 69, "velocity": 101, "until": 303.62589533333005}, {"on": true, "note": 75, "velocity": 101, "until": 303.74686283333006}, {"on": false, "note": 75, "velocity": 0, "until": 303.74686283333006}, {"on": false, "note": 69, "velocity": 0, "until": 303.86798218333007}, {"on": true, "note": 70, "velocity": 101, "until": 303.86798218333007}, {"on": true, "note": 74, "velocity": 101, "until": 303.97886083333003}, {"on": false, "note": 74, "velocity": 0, "until": 303.99350518333006}, {"on": false, "note": 70, "velocity": 0, "until": 303.99350518333006}, {"on": true, "note": 77, "velocity": 101, "until": 304.10856793333005}, {"on": false, "note": 77, "velocity": 0, "until": 304.11902818333004}, {"on": true, "note": 75, "velocity": 101, "until": 304.11902818333004}, {"on": true, "note": 69, "velocity": 101, "until": 304.19015788333}, {"on": false, "note": 75, "velocity": 0, "until": 304.24455118333003}, {"on": false, "note": 69, "velocity": 0, "until": 304.24455118333003}, {"on": true, "note": 72, "velocity": 101, "until": 304.31568088333}, {"on": false, "note": 72, "velocity": 0, "until": 304.36992233333}, {"on": true, "note": 70, "velocity": 101, "until": 304.49088983333}, {"on": false, "note": 70, "velocity": 0, "until": 304.8538922999967}, {"on": true, "note": 62, "velocity": 101, "until": 305.34957864999694}, {"on": false, "note": 62, "velocity": 0, "until": 308.73450464999706}, {"on": true, "note": 64, "velocity": 101, "until": 308.73450464999706}, {"on": true, "note": 61, "velocity": 101, "until": 309.4491078666645}, {"on": false, "note": 61, "velocity": 0, "until": 309.4491078666645}, {"on": false, "note": 64, "velocity": 0, "until": 309.4491078666645}, {"on": true, "note": 64, "velocity": 101, "until": 309.4491078666645}, {"on": true, "note": 61, "velocity": 101, "until": 309.5636113666646}, {"on": false, "note": 61, "velocity": 0, "until": 309.5636113666646}, {"on": false, "note": 64, "velocity": 0, "until": 309.678346649998}, {"on": true, "note": 62, "velocity": 101, "until": 309.678346649998}, {"on": true, "note": 65, "velocity": 101, "until": 309.79980364999807}, {"on": false, "note": 65, "velocity": 0, "until": 309.79980364999807}, {"on": false, "note": 62, "velocity": 0, "until": 309.9212606499981}, {"on": true, "note": 67, "velocity": 101, "until": 309.9212606499981}, {"on": true, "note": 64, "velocity": 101, "until": 310.0427176499981}, {"on": false, "note": 64, "velocity": 0, "until": 310.0427176499981}, {"on": false, "note": 67, "velocity": 0, "until": 310.1639428666648}, {"on": true, "note": 69, "velocity": 101, "until": 310.1639428666648}, {"on": true, "note": 65, "velocity": 101, "until": 310.27844636666487}, {"on": false, "note": 65, "velocity": 0, "until": 310.27844636666487}, {"on": false, "note": 69, "velocity": 0, "until": 310.6221886499983}, {"on": true, "note": 64, "velocity": 101, "until": 310.6221886499983}, {"on": true, "note": 67, "velocity": 101, "until": 311.33679186666586}, {"on": false, "note": 67, "velocity": 0, "until": 311.33679186666586}, {"on": false, "note": 64, "velocity": 0, "until": 311.33679186666586}, {"on": true, "note": 67, "velocity": 101, "until": 311.33679186666586}, {"on": true, "note": 64, "velocity": 101, "until": 311.45129536666593}, {"on": false, "note": 64, "velocity": 0, "until": 311.45129536666593}, {"on": false, "note": 67, "velocity": 0, "until": 311.56603064999933}, {"on": true, "note": 69, "velocity": 101, "until": 311.56603064999933}, {"on": true, "note": 65, "velocity": 101, "until": 311.6874876499994}, {"on": false, "note": 65, "velocity": 0, "until": 311.6874876499994}, {"on": false, "note": 69, "velocity": 0, "until": 311.8089446499995}, {"on": true, "note": 70, "velocity": 101, "until": 311.8089446499995}, {"on": true, "note": 67, "velocity": 101, "until": 311.93040164999957}, {"on": false, "note": 67, "velocity": 0, "until": 311.93040164999957}, {"on": false, "note": 70, "velocity": 0, "until": 312.0516268666663}, {"on": true, "note": 69, "velocity": 101, "until": 312.0516268666663}, {"on": true, "note": 72, "velocity": 101, "until": 312.1661303666664}, {"on": false, "note": 72, "velocity": 0, "until": 312.1661303666664}, {"on": false, "note": 69, "velocity": 0, "until": 312.51063176666645}, {"on": true, "note": 67, "velocity": 101, "until": 312.51063176666645}, {"on": true, "note": 70, "velocity": 101, "until": 312.79845174999963}, {"on": false, "note": 67, "velocity": 0, "until": 313.03803508333357}, {"on": false, "note": 70, "velocity": 0, "until": 313.0482533333336}, {"on": true, "note": 70, "velocity": 101, "until": 313.16730083333357}, {"on": false, "note": 70, "velocity": 0, "until": 313.2863483333336}, {"on": true, "note": 70, "velocity": 101, "until": 313.40539583333356}, {"on": false, "note": 70, "velocity": 0, "until": 313.5247485833335}, {"on": true, "note": 70, "velocity": 101, "until": 314.52736258333346}, {"on": false, "note": 70, "velocity": 0, "until": 314.52736258333346}, {"on": true, "note": 71, "velocity": 101, "until": 314.52736258333346}, {"on": true, "note": 67, "velocity": 101, "until": 314.78377258333336}, {"on": false, "note": 67, "velocity": 0, "until": 315.0294988333333}, {"on": false, "note": 71, "velocity": 0, "until": 315.0399907}, {"on": true, "note": 71, "velocity": 101, "until": 315.1624392}, {"on": false, "note": 71, "velocity": 0, "until": 315.2848877}, {"on": true, "note": 71, "velocity": 101, "until": 315.40733620000003}, {"on": false, "note": 71, "velocity": 0, "until": 315.52997658333334}, {"on": true, "note": 66, "velocity": 101, "until": 315.52997658333334}, {"on": true, "note": 72, "velocity": 101, "until": 315.78638658333324}, {"on": false, "note": 66, "velocity": 0, "until": 316.2963599666666}, {"on": false, "note": 72, "velocity": 0, "until": 316.2963599666666}, {"on": true, "note": 71, "velocity": 101, "until": 316.57648485000004}, {"on": false, "note": 71, "velocity": 0, "until": 316.57648485000004}, {"on": true, "note": 62, "velocity": 86, "until": 316.9747138500006}, {"on": false, "note": 62, "velocity": 0, "until": 316.9747138500006}, {"on": true, "note": 64, "velocity": 86, "until": 317.1071987500007}, {"on": false, "note": 64, "velocity": 0, "until": 317.1071987500007}, {"on": true, "note": 62, "velocity": 86, "until": 317.35719875000086}, {"on": false, "note": 62, "velocity": 0, "until": 317.35719875000086}, {"on": true, "note": 62, "velocity": 86, "until": 317.482198750001}, {"on": false, "note": 62, "velocity": 0, "until": 317.6073799000011}, {"on": true, "note": 62, "velocity": 86, "until": 317.8682489000012}, {"on": false, "note": 62, "velocity": 0, "until": 317.8682489000012}, {"on": true, "note": 66, "velocity": 86, "until": 318.12893675000146}, {"on": false, "note": 66, "velocity": 0, "until": 318.12893675000146}, {"on": true, "note": 69, "velocity": 86, "until": 318.3789367500015}, {"on": false, "note": 69, "velocity": 0, "until": 318.3789367500015}, {"on": true, "note": 72, "velocity": 86, "until": 318.6291179000016}, {"on": false, "note": 72, "velocity": 0, "until": 318.6291179000016}, {"on": true, "note": 71, "velocity": 86, "until": 319.1506747500019}, {"on": false, "note": 71, "velocity": 0, "until": 319.1506747500019}, {"on": true, "note": 67, "velocity": 86, "until": 319.27567475000194}, {"on": false, "note": 67, "velocity": 0, "until": 319.27567475000194}, {"on": true, "note": 69, "velocity": 86, "until": 319.400674750002}, {"on": false, "note": 69, "velocity": 0, "until": 319.400674750002}, {"on": true, "note": 74, "velocity": 86, "until": 319.400674750002}, {"on": true, "note": 71, "velocity": 86, "until": 319.52567475000205}, {"on": false, "note": 71, "velocity": 0, "until": 319.52567475000205}, {"on": true, "note": 72, "velocity": 86, "until": 319.6508559000021}, {"on": false, "note": 72, "velocity": 0, "until": 319.6508559000021}, {"on": false, "note": 74, "velocity": 0, "until": 319.6508559000021}, {"on": true, "note": 74, "velocity": 86, "until": 319.6508559000021}, {"on": true, "note": 72, "velocity": 86, "until": 319.85737719166883}, {"on": false, "note": 74, "velocity": 0, "until": 319.91172490000224}, {"on": false, "note": 72, "velocity": 0, "until": 319.91172490000224}, {"on": true, "note": 74, "velocity": 86, "until": 319.91172490000224}, {"on": true, "note": 69, "velocity": 86, "until": 320.1182461916691}, {"on": false, "note": 74, "velocity": 0, "until": 320.1724127500025}, {"on": false, "note": 69, "velocity": 0, "until": 320.1724127500025}, {"on": true, "note": 66, "velocity": 86, "until": 320.1724127500025}, {"on": true, "note": 74, "velocity": 86, "until": 320.37032941666916}, {"on": false, "note": 74, "velocity": 0, "until": 320.4224127500026}, {"on": false, "note": 66, "velocity": 0, "until": 320.4224127500026}, {"on": true, "note": 74, "velocity": 86, "until": 320.4224127500026}, {"on": true, "note": 62, "velocity": 86, "until": 320.6203294166693}, {"on": false, "note": 74, "velocity": 0, "until": 320.6725939000027}, {"on": false, "note": 62, "velocity": 0, "until": 320.6725939000027}, {"on": true, "note": 67, "velocity": 86, "until": 320.6725939000027}, {"on": true, "note": 62, "velocity": 86, "until": 320.93346290000284}, {"on": false, "note": 67, "velocity": 0, "until": 321.06389740000293}, {"on": false, "note": 62, "velocity": 0, "until": 321.06389740000293}, {"on": true, "note": 64, "velocity": 86, "until": 321.1941507500031}, {"on": false, "note": 64, "velocity": 0, "until": 321.1941507500031}, {"on": true, "note": 62, "velocity": 86, "until": 321.44415075000313}, {"on": false, "note": 62, "velocity": 0, "until": 321.44415075000313}, {"on": true, "note": 62, "velocity": 86, "until": 321.5691507500032}, {"on": false, "note": 62, "velocity": 0, "until": 321.69433190000325}, {"on": true, "note": 62, "velocity": 86, "until": 321.9552009000034}, {"on": false, "note": 62, "velocity": 0, "until": 321.9552009000034}, {"on": true, "note": 66, "velocity": 86, "until": 322.2158887500036}, {"on": false, "note": 66, "velocity": 0, "until": 322.2158887500036}, {"on": true, "note": 69, "velocity": 86, "until": 322.46588875000367}, {"on": false, "note": 69, "velocity": 0, "until": 322.46588875000367}, {"on": true, "note": 72, "velocity": 86, "until": 322.71599558333696}, {"on": false, "note": 72, "velocity": 0, "until": 322.71599558333696}, {"on": true, "note": 71, "velocity": 86, "until": 323.22862370000354}, {"on": false, "note": 71, "velocity": 0, "until": 323.22862370000354}, {"on": true, "note": 67, "velocity": 86, "until": 323.35107220000356}, {"on": false, "note": 67, "velocity": 0, "until": 323.35107220000356}, {"on": true, "note": 69, "velocity": 86, "until": 323.4735207000036}, {"on": false, "note": 69, "velocity": 0, "until": 323.4735207000036}, {"on": true, "note": 74, "velocity": 86, "until": 323.4735207000036}, {"on": true, "note": 71, "velocity": 86, "until": 323.5959692000036}, {"on": false, "note": 71, "velocity": 0, "until": 323.5959692000036}, {"on": true, "note": 72, "velocity": 86, "until": 323.7186095833369}, {"on": false, "note": 72, "velocity": 0, "until": 323.7186095833369}, {"on": false, "note": 74, "velocity": 0, "until": 323.7186095833369}, {"on": true, "note": 74, "velocity": 86, "until": 323.7186095833369}, {"on": true, "note": 72, "velocity": 86, "until": 323.92160083333687}, {"on": false, "note": 74, "velocity": 0, "until": 323.9750195833368}, {"on": false, "note": 72, "velocity": 0, "until": 323.9750195833368}, {"on": true, "note": 69, "velocity": 86, "until": 323.9750195833368}, {"on": true, "note": 74, "velocity": 86, "until": 324.1780108333367}, {"on": false, "note": 74, "velocity": 0, "until": 324.23123770000336}, {"on": false, "note": 69, "velocity": 0, "until": 324.23123770000336}, {"on": true, "note": 74, "velocity": 86, "until": 324.23123770000336}, {"on": true, "note": 66, "velocity": 86, "until": 324.42511449167006}, {"on": false, "note": 74, "velocity": 0, "until": 324.4761347000034}, {"on": false, "note": 66, "velocity": 0, "until": 324.4761347000034}, {"on": true, "note": 62, "velocity": 86, "until": 324.4761347000034}, {"on": true, "note": 74, "velocity": 86, "until": 324.6700114916701}, {"on": false, "note": 74, "velocity": 0, "until": 324.7212235833367}, {"on": false, "note": 62, "velocity": 0, "until": 324.7212235833367}, {"on": true, "note": 71, "velocity": 86, "until": 324.7212235833367}, {"on": true, "note": 67, "velocity": 86, "until": 324.9776335833366}, {"on": false, "note": 67, "velocity": 0, "until": 324.9776335833366}, {"on": false, "note": 71, "velocity": 0, "until": 325.2337541333366}, {"on": true, "note": 64, "velocity": 101, "until": 326.21179308333643}, {"on": false, "note": 64, "velocity": 0, "until": 326.21179308333643}, {"on": true, "note": 67, "velocity": 101, "until": 326.93220908333615}, {"on": false, "note": 67, "velocity": 0, "until": 333.178774083336}, {"on": true, "note": 64, "velocity": 101, "until": 334.14298533333573}, {"on": false, "note": 64, "velocity": 0, "until": 334.14298533333573}, {"on": true, "note": 67, "velocity": 101, "until": 334.8557430833358}, {"on": false, "note": 67, "velocity": 0, "until": 337.98960986666924}, {"on": true, "note": 69, "velocity": 101, "until": 337.98960986666924}, {"on": true, "note": 76, "velocity": 101, "until": 338.19953295000266}, {"on": false, "note": 76, "velocity": 0, "until": 338.19953295000266}, {"on": false, "note": 69, "velocity": 0, "until": 338.21861686666944}, {"on": true, "note": 76, "velocity": 101, "until": 338.21861686666944}, {"on": true, "note": 69, "velocity": 101, "until": 338.42853995000286}, {"on": false, "note": 69, "velocity": 0, "until": 338.42853995000286}, {"on": false, "note": 76, "velocity": 0, "until": 338.44785565000296}, {"on": true, "note": 71, "velocity": 101, "until": 338.44785565000296}, {"on": true, "note": 74, "velocity": 101, "until": 338.9339454166703}, {"on": false, "note": 74, "velocity": 0, "until": 338.9339454166703}, {"on": false, "note": 71, "velocity": 0, "until": 341.8216056500041}, {"on": true, "note": 76, "velocity": 101, "until": 341.9392526500041}, {"on": false, "note": 76, "velocity": 0, "until": 342.05689965000414}, {"on": true, "note": 76, "velocity": 101, "until": 342.29232065000417}, {"on": false, "note": 76, "velocity": 0, "until": 342.29232065000417}, {"on": true, "note": 84, "velocity": 121, "until": 342.6566916500042}, {"on": false, "note": 84, "velocity": 0, "until": 342.6566916500042}, {"on": true, "note": 83, "velocity": 116, "until": 342.7780216500042}, {"on": false, "note": 83, "velocity": 0, "until": 342.7780216500042}, {"on": true, "note": 81, "velocity": 114, "until": 342.8956686500042}, {"on": false, "note": 81, "velocity": 0, "until": 342.8956686500042}, {"on": true, "note": 79, "velocity": 112, "until": 343.01331565000424}, {"on": false, "note": 79, "velocity": 0, "until": 343.01331565000424}, {"on": true, "note": 78, "velocity": 110, "until": 343.1309626500042}, {"on": false, "note": 78, "velocity": 0, "until": 343.1309626500042}, {"on": true, "note": 76, "velocity": 108, "until": 343.2487366500043}, {"on": false, "note": 76, "velocity": 0, "until": 343.2487366500043}, {"on": true, "note": 74, "velocity": 106, "until": 343.4916506500043}, {"on": false, "note": 74, "velocity": 0, "until": 345.6472696500043}, {"on": true, "note": 76, "velocity": 101, "until": 345.76491665000435}, {"on": false, "note": 76, "velocity": 0, "until": 345.8825636500044}, {"on": true, "note": 76, "velocity": 101, "until": 346.1179846500044}, {"on": false, "note": 76, "velocity": 0, "until": 346.1179846500044}, {"on": true, "note": 84, "velocity": 121, "until": 346.4823556500044}, {"on": false, "note": 84, "velocity": 0, "until": 346.4823556500044}, {"on": true, "note": 83, "velocity": 119, "until": 346.6036856500044}, {"on": false, "note": 83, "velocity": 0, "until": 346.6036856500044}, {"on": true, "note": 81, "velocity": 118, "until": 346.72133265000446}, {"on": false, "note": 81, "velocity": 0, "until": 346.72133265000446}, {"on": true, "note": 79, "velocity": 117, "until": 346.8389796500045}, {"on": false, "note": 79, "velocity": 0, "until": 346.8389796500045}, {"on": true, "note": 78, "velocity": 116, "until": 346.95662665000447}, {"on": false, "note": 78, "velocity": 0, "until": 346.95662665000447}, {"on": true, "note": 76, "velocity": 115, "until": 347.0744006500045}, {"on": false, "note": 76, "velocity": 0, "until": 347.0744006500045}, {"on": true, "note": 74, "velocity": 114, "until": 347.31731465000456}, {"on": false, "note": 74, "velocity": 0, "until": 349.00742408333787}, {"on": true, "note": 69, "velocity": 101, "until": 349.00742408333787}, {"on": true, "note": 66, "velocity": 101, "until": 349.24742408333793}, {"on": false, "note": 66, "velocity": 0, "until": 349.24742408333793}, {"on": false, "note": 69, "velocity": 0, "until": 349.9454866500048}, {"on": true, "note": 67, "velocity": 101, "until": 349.9454866500048}, {"on": true, "note": 71, "velocity": 101, "until": 350.1884006500049}, {"on": false, "note": 71, "velocity": 0, "until": 350.1884006500049}, {"on": false, "note": 67, "velocity": 0, "until": 350.88932865000515}, {"on": true, "note": 78, "velocity": 101, "until": 350.88932865000515}, {"on": true, "note": 72, "velocity": 101, "until": 351.1322426500052}, {"on": false, "note": 72, "velocity": 0, "until": 351.1322426500052}, {"on": false, "note": 78, "velocity": 0, "until": 351.83309033333865}, {"on": true, "note": 79, "velocity": 101, "until": 351.83309033333865}, {"on": true, "note": 71, "velocity": 101, "until": 352.0729313666719}, {"on": false, "note": 71, "velocity": 0, "until": 352.0729313666719}, {"on": false, "note": 79, "velocity": 0, "until": 362.3801687000068}, {"on": true, "note": 70, "velocity": 101, "until": 362.3801687000068}, {"on": true, "note": 76, "velocity": 101, "until": 362.8697272333401}, {"on": false, "note": 76, "velocity": 0, "until": 362.8697272333401}, {"on": false, "note": 70, "velocity": 0, "until": 364.28283270000685}, {"on": true, "note": 73, "velocity": 101, "until": 364.28283270000685}, {"on": true, "note": 70, "velocity": 101, "until": 364.77239123334016}, {"on": false, "note": 70, "velocity": 0, "until": 364.77239123334016}, {"on": false, "note": 73, "velocity": 0, "until": 366.1854967000069}, {"on": true, "note": 73, "velocity": 101, "until": 366.1854967000069}, {"on": true, "note": 69, "velocity": 101, "until": 366.4303937000069}, {"on": false, "note": 69, "velocity": 0, "until": 366.4303937000069}, {"on": false, "note": 73, "velocity": 0, "until": 366.6750552333402}, {"on": true, "note": 73, "velocity": 101, "until": 366.6750552333402}, {"on": true, "note": 69, "velocity": 101, "until": 366.9058242333401}, {"on": false, "note": 69, "velocity": 0, "until": 366.9058242333401}, {"on": false, "note": 73, "velocity": 0, "until": 367.1368287000068}, {"on": true, "note": 73, "velocity": 101, "until": 367.1368287000068}, {"on": true, "note": 69, "velocity": 101, "until": 367.38172570000677}, {"on": false, "note": 69, "velocity": 0, "until": 367.38172570000677}, {"on": false, "note": 73, "velocity": 0, "until": 367.62638723334004}, {"on": true, "note": 73, "velocity": 101, "until": 367.62638723334004}, {"on": true, "note": 69, "velocity": 101, "until": 367.85715623334}, {"on": false, "note": 69, "velocity": 0, "until": 367.85715623334}, {"on": false, "note": 73, "velocity": 0, "until": 368.0885038500067}, {"on": true, "note": 73, "velocity": 101, "until": 368.0885038500067}, {"on": true, "note": 69, "velocity": 101, "until": 368.3536467000067}, {"on": false, "note": 69, "velocity": 0, "until": 368.3536467000067}, {"on": false, "note": 73, "velocity": 0, "until": 368.3536467000067}, {"on": true, "note": 69, "velocity": 101, "until": 368.5983082333401}, {"on": false, "note": 69, "velocity": 0, "until": 368.5983082333401}, {"on": true, "note": 70, "velocity": 101, "until": 368.8290772333401}, {"on": false, "note": 70, "velocity": 0, "until": 368.8290772333401}, {"on": true, "note": 71, "velocity": 101, "until": 369.0600817000068}, {"on": false, "note": 71, "velocity": 0, "until": 369.0600817000068}, {"on": true, "note": 72, "velocity": 101, "until": 369.30497870000676}, {"on": false, "note": 72, "velocity": 0, "until": 369.30497870000676}, {"on": true, "note": 73, "velocity": 101, "until": 369.5496402333401}, {"on": false, "note": 73, "velocity": 0, "until": 369.5496402333401}, {"on": true, "note": 74, "velocity": 101, "until": 369.7804092333401}, {"on": false, "note": 74, "velocity": 0, "until": 369.7804092333401}, {"on": true, "note": 76, "velocity": 101, "until": 370.02760770000674}, {"on": false, "note": 76, "velocity": 0, "until": 370.02760770000674}, {"on": true, "note": 77, "velocity": 101, "until": 370.02760770000674}, {"on": true, "note": 69, "velocity": 101, "until": 370.51716623334016}, {"on": false, "note": 77, "velocity": 0, "until": 370.51716623334016}, {"on": true, "note": 74, "velocity": 101, "until": 370.6325507333401}, {"on": false, "note": 74, "velocity": 0, "until": 370.74793523334006}, {"on": true, "note": 74, "velocity": 101, "until": 370.97893970000666}, {"on": false, "note": 74, "velocity": 0, "until": 370.97893970000666}, {"on": false, "note": 69, "velocity": 0, "until": 370.97893970000666}, {"on": true, "note": 70, "velocity": 101, "until": 370.97893970000666}, {"on": true, "note": 77, "velocity": 101, "until": 371.46849823334}, {"on": false, "note": 70, "velocity": 0, "until": 371.46849823334}, {"on": true, "note": 71, "velocity": 101, "until": 371.93027170000664}, {"on": false, "note": 71, "velocity": 0, "until": 371.93027170000664}, {"on": false, "note": 77, "velocity": 0, "until": 371.93027170000664}, {"on": true, "note": 77, "velocity": 101, "until": 371.93027170000664}, {"on": true, "note": 72, "velocity": 101, "until": 372.1751687000067}, {"on": false, "note": 72, "velocity": 0, "until": 372.1751687000067}, {"on": false, "note": 77, "velocity": 0, "until": 372.88160370000674}, {"on": true, "note": 70, "velocity": 101, "until": 372.88160370000674}, {"on": true, "note": 76, "velocity": 101, "until": 373.1265007000068}, {"on": false, "note": 76, "velocity": 0, "until": 373.1265007000068}, {"on": false, "note": 70, "velocity": 0, "until": 379.5409277000073}, {"on": true, "note": 72, "velocity": 101, "until": 380.03050108334065}, {"on": false, "note": 72, "velocity": 0, "until": 380.03050108334065}, {"on": true, "note": 70, "velocity": 101, "until": 380.1463310833406}, {"on": false, "note": 70, "velocity": 0, "until": 380.1463310833406}, {"on": true, "note": 69, "velocity": 101, "until": 380.26216108334063}, {"on": false, "note": 69, "velocity": 0, "until": 380.26216108334063}, {"on": true, "note": 67, "velocity": 101, "until": 380.37799108334065}, {"on": false, "note": 67, "velocity": 0, "until": 380.37799108334065}, {"on": true, "note": 65, "velocity": 101, "until": 380.49405843334074}, {"on": false, "note": 65, "velocity": 0, "until": 380.49405843334074}, {"on": true, "note": 64, "velocity": 101, "until": 380.49405843334074}, {"on": true, "note": 73, "velocity": 101, "until": 380.6170089333408}, {"on": false, "note": 64, "velocity": 0, "until": 380.73995943334086}, {"on": true, "note": 64, "velocity": 101, "until": 380.8629099333409}, {"on": false, "note": 64, "velocity": 0, "until": 380.9856683333409}, {"on": false, "note": 73, "velocity": 0, "until": 380.9856683333409}, {"on": true, "note": 64, "velocity": 101, "until": 380.9856683333409}, {"on": true, "note": 72, "velocity": 101, "until": 381.1028558333409}, {"on": false, "note": 72, "velocity": 0, "until": 381.1028558333409}, {"on": false, "note": 64, "velocity": 0, "until": 381.1028558333409}, {"on": true, "note": 70, "velocity": 101, "until": 381.2200433333409}, {"on": false, "note": 70, "velocity": 0, "until": 381.2200433333409}, {"on": true, "note": 69, "velocity": 101, "until": 381.3372308333409}, {"on": false, "note": 69, "velocity": 0, "until": 381.3372308333409}, {"on": true, "note": 67, "velocity": 101, "until": 381.45462730000764}, {"on": false, "note": 67, "velocity": 0, "until": 381.45462730000764}, {"on": true, "note": 65, "velocity": 101, "until": 381.5780838000077}, {"on": false, "note": 65, "velocity": 0, "until": 381.7015403000077}, {"on": true, "note": 65, "velocity": 101, "until": 381.82499680000774}, {"on": false, "note": 65, "velocity": 0, "until": 381.94825965000774}, {"on": true, "note": 65, "velocity": 101, "until": 382.0659066500078}, {"on": false, "note": 65, "velocity": 0, "until": 383.3855294500078}, {"on": true, "note": 74, "velocity": 81, "until": 383.88321033334086}, {"on": false, "note": 74, "velocity": 0, "until": 383.88321033334086}, {"on": true, "note": 72, "velocity": 81, "until": 384.00039783334086}, {"on": false, "note": 72, "velocity": 0, "until": 384.00039783334086}, {"on": true, "note": 70, "velocity": 81, "until": 384.11758533334086}, {"on": false, "note": 70, "velocity": 0, "until": 384.11758533334086}, {"on": true, "note": 69, "velocity": 81, "until": 384.23477283334086}, {"on": false, "note": 69, "velocity": 0, "until": 384.23477283334086}, {"on": true, "note": 67, "velocity": 81, "until": 384.3523459166742}, {"on": false, "note": 67, "velocity": 0, "until": 384.3523459166742}, {"on": true, "note": 65, "velocity": 81, "until": 384.4811009166742}, {"on": false, "note": 65, "velocity": 0, "until": 384.6098559166743}, {"on": true, "note": 65, "velocity": 81, "until": 384.7386109166743}, {"on": false, "note": 65, "velocity": 0, "until": 384.86710633334104}, {"on": true, "note": 65, "velocity": 81, "until": 384.98807383334105}, {"on": false, "note": 65, "velocity": 0, "until": 385.3512544166744}, {"on": true, "note": 68, "velocity": 65, "until": 385.3512544166744}, {"on": true, "note": 80, "velocity": 81, "until": 385.48056441667444}, {"on": false, "note": 68, "velocity": 0, "until": 385.6098744166745}, {"on": true, "note": 68, "velocity": 65, "until": 385.7391844166745}, {"on": false, "note": 68, "velocity": 0, "until": 385.8682491166745}, {"on": true, "note": 68, "velocity": 65, "until": 385.99020011667454}, {"on": false, "note": 68, "velocity": 0, "until": 385.99020011667454}, {"on": false, "note": 80, "velocity": 0, "until": 385.99020011667454}, {"on": true, "note": 79, "velocity": 81, "until": 386.1121511166745}, {"on": false, "note": 79, "velocity": 0, "until": 386.1121511166745}, {"on": true, "note": 77, "velocity": 81, "until": 386.23410211667453}, {"on": false, "note": 77, "velocity": 0, "until": 386.23410211667453}, {"on": true, "note": 75, "velocity": 81, "until": 386.35626158334117}, {"on": false, "note": 75, "velocity": 0, "until": 386.35626158334117}, {"on": true, "note": 74, "velocity": 81, "until": 386.35626158334117}, {"on": true, "note": 68, "velocity": 81, "until": 386.48446658334115}, {"on": false, "note": 68, "velocity": 0, "until": 386.61267158334107}, {"on": false, "note": 74, "velocity": 0, "until": 386.61267158334107}, {"on": true, "note": 68, "velocity": 81, "until": 386.74087658334105}, {"on": false, "note": 68, "velocity": 0, "until": 386.8688897000077}, {"on": true, "note": 68, "velocity": 81, "until": 386.9913382000077}, {"on": false, "note": 68, "velocity": 0, "until": 387.35891241667446}, {"on": true, "note": 68, "velocity": 65, "until": 387.35891241667446}, {"on": true, "note": 80, "velocity": 81, "until": 387.4882224166745}, {"on": false, "note": 68, "velocity": 0, "until": 387.6175324166745}, {"on": true, "note": 68, "velocity": 65, "until": 387.74684241667455}, {"on": false, "note": 68, "velocity": 0, "until": 387.8759743000079}, {"on": true, "note": 68, "velocity": 65, "until": 387.99994080000795}, {"on": false, "note": 68, "velocity": 0, "until": 387.99994080000795}, {"on": false, "note": 80, "velocity": 0, "until": 387.99994080000795}, {"on": true, "note": 79, "velocity": 81, "until": 388.12390730000794}, {"on": false, "note": 79, "velocity": 0, "until": 388.12390730000794}, {"on": true, "note": 77, "velocity": 81, "until": 388.24787380000794}, {"on": false, "note": 77, "velocity": 0, "until": 388.24787380000794}, {"on": true, "note": 75, "velocity": 81, "until": 388.3720748833412}, {"on": false, "note": 75, "velocity": 0, "until": 388.3720748833412}, {"on": true, "note": 74, "velocity": 81, "until": 388.3720748833412}, {"on": true, "note": 68, "velocity": 81, "until": 388.5030788833413}, {"on": false, "note": 68, "velocity": 0, "until": 388.6340828833413}, {"on": false, "note": 74, "velocity": 0, "until": 388.6340828833413}, {"on": true, "note": 68, "velocity": 81, "until": 388.7650868833414}, {"on": false, "note": 68, "velocity": 0, "until": 388.89594348334145}, {"on": true, "note": 68, "velocity": 81, "until": 389.02252548334155}, {"on": false, "note": 68, "velocity": 0, "until": 389.4023074000082}, {"on": true, "note": 74, "velocity": 101, "until": 389.6576264000082}, {"on": false, "note": 74, "velocity": 0, "until": 389.6576264000082}, {"on": true, "note": 73, "velocity": 101, "until": 389.9129819166749}, {"on": false, "note": 73, "velocity": 0, "until": 389.9129819166749}, {"on": true, "note": 74, "velocity": 101, "until": 390.1704919166749}, {"on": false, "note": 74, "velocity": 0, "until": 390.1704919166749}, {"on": true, "note": 76, "velocity": 101, "until": 390.42803908334156}, {"on": false, "note": 76, "velocity": 0, "until": 390.42803908334156}, {"on": true, "note": 77, "velocity": 101, "until": 390.68777908334147}, {"on": false, "note": 77, "velocity": 0, "until": 390.68777908334147}, {"on": true, "note": 76, "velocity": 101, "until": 390.9476148500081}, {"on": false, "note": 76, "velocity": 0, "until": 390.9476148500081}, {"on": true, "note": 77, "velocity": 101, "until": 391.2134379833415}, {"on": false, "note": 77, "velocity": 0, "until": 391.2134379833415}, {"on": true, "note": 78, "velocity": 101, "until": 391.45153298334145}, {"on": false, "note": 78, "velocity": 0, "until": 391.4985741833414}, {"on": true, "note": 79, "velocity": 101, "until": 392.00041908334134}, {"on": false, "note": 79, "velocity": 0, "until": 392.00041908334134}, {"on": true, "note": 78, "velocity": 101, "until": 392.473003700008}, {"on": false, "note": 78, "velocity": 0, "until": 392.473003700008}, {"on": true, "note": 79, "velocity": 101, "until": 392.9625622333413}, {"on": false, "note": 79, "velocity": 0, "until": 393.424335700008}, {"on": true, "note": 80, "velocity": 101, "until": 393.546784200008}, {"on": false, "note": 80, "velocity": 0, "until": 393.669232700008}, {"on": true, "note": 80, "velocity": 101, "until": 393.79168120000804}, {"on": false, "note": 80, "velocity": 0, "until": 393.91389423334135}, {"on": true, "note": 80, "velocity": 101, "until": 394.02927873334136}, {"on": false, "note": 80, "velocity": 0, "until": 394.1446632333413}, {"on": true, "note": 80, "velocity": 101, "until": 394.26004773334125}, {"on": false, "note": 80, "velocity": 0, "until": 394.3756677000079}, {"on": true, "note": 80, "velocity": 101, "until": 394.8652262333412}, {"on": false, "note": 80, "velocity": 0, "until": 396.2783317000079}, {"on": true, "note": 82, "velocity": 101, "until": 396.8832747333413}, {"on": false, "note": 82, "velocity": 0, "until": 396.8832747333413}, {"on": true, "note": 80, "velocity": 101, "until": 396.99865923334124}, {"on": false, "note": 80, "velocity": 0, "until": 396.99865923334124}, {"on": true, "note": 79, "velocity": 101, "until": 397.11404373334125}, {"on": false, "note": 79, "velocity": 0, "until": 397.11404373334125}, {"on": true, "note": 77, "velocity": 101, "until": 397.2296637000079}, {"on": false, "note": 77, "velocity": 0, "until": 397.2296637000079}, {"on": true, "note": 77, "velocity": 101, "until": 397.2704798666746}, {"on": false, "note": 77, "velocity": 0, "until": 397.2704798666746}, {"on": true, "note": 75, "velocity": 101, "until": 397.38476513334126}, {"on": false, "note": 75, "velocity": 0, "until": 397.47456070000794}, {"on": true, "note": 74, "velocity": 101, "until": 397.59700920000796}, {"on": false, "note": 74, "velocity": 0, "until": 397.71922223334127}, {"on": true, "note": 77, "velocity": 101, "until": 397.75768373334125}, {"on": false, "note": 77, "velocity": 0, "until": 397.75768373334125}, {"on": true, "note": 75, "velocity": 101, "until": 397.8653759333412}, {"on": false, "note": 75, "velocity": 0, "until": 397.9499912333412}, {"on": true, "note": 74, "velocity": 101, "until": 398.0653757333412}, {"on": false, "note": 74, "velocity": 0, "until": 398.1809957000079}, {"on": true, "note": 75, "velocity": 101, "until": 398.67055423334125}, {"on": false, "note": 75, "velocity": 0, "until": 398.67055423334125}, {"on": true, "note": 70, "velocity": 101, "until": 398.90132323334126}, {"on": false, "note": 70, "velocity": 0, "until": 400.08365970000796}, {"on": true, "note": 82, "velocity": 101, "until": 400.6886027333413}, {"on": false, "note": 82, "velocity": 0, "until": 400.6886027333413}, {"on": true, "note": 80, "velocity": 101, "until": 400.8039872333413}, {"on": false, "note": 80, "velocity": 0, "until": 400.8039872333413}, {"on": true, "note": 79, "velocity": 101, "until": 400.9193717333413}, {"on": false, "note": 79, "velocity": 0, "until": 400.9193717333413}, {"on": true, "note": 77, "velocity": 101, "until": 401.03499170000794}, {"on": false, "note": 77, "velocity": 0, "until": 401.03499170000794}, {"on": true, "note": 77, "velocity": 101, "until": 401.0758078666746}, {"on": false, "note": 77, "velocity": 0, "until": 401.0758078666746}, {"on": true, "note": 75, "velocity": 101, "until": 401.1900931333413}, {"on": false, "note": 75, "velocity": 0, "until": 401.279888700008}, {"on": true, "note": 74, "velocity": 101, "until": 401.402337200008}, {"on": false, "note": 74, "velocity": 0, "until": 401.5245502333413}, {"on": true, "note": 77, "velocity": 101, "until": 401.5630117333413}, {"on": false, "note": 77, "velocity": 0, "until": 401.5630117333413}, {"on": true, "note": 75, "velocity": 101, "until": 401.67070393334126}, {"on": false, "note": 75, "velocity": 0, "until": 401.75531923334125}, {"on": true, "note": 74, "velocity": 101, "until": 401.8707037333412}, {"on": false, "note": 74, "velocity": 0, "until": 401.98632370000786}, {"on": true, "note": 75, "velocity": 101, "until": 402.4758822333412}, {"on": false, "note": 75, "velocity": 0, "until": 402.4758822333412}, {"on": true, "note": 70, "velocity": 101, "until": 402.7066512333412}, {"on": false, "note": 70, "velocity": 0, "until": 403.90937570000784}, {"on": true, "note": 68, "velocity": 101, "until": 404.3991203333412}, {"on": false, "note": 68, "velocity": 0, "until": 404.3991203333412}, {"on": true, "note": 73, "velocity": 101, "until": 404.88305643334127}, {"on": false, "note": 73, "velocity": 0, "until": 404.88305643334127}, {"on": true, "note": 72, "velocity": 101, "until": 405.1289574333413}, {"on": false, "note": 72, "velocity": 0, "until": 405.8607033000081}, {"on": true, "note": 75, "velocity": 101, "until": 405.8607033000081}, {"on": true, "note": 72, "velocity": 101, "until": 406.35446265000814}, {"on": false, "note": 72, "velocity": 0, "until": 406.35446265000814}, {"on": false, "note": 75, "velocity": 0, "until": 406.35446265000814}, {"on": true, "note": 70, "velocity": 101, "until": 406.35446265000814}, {"on": true, "note": 80, "velocity": 101, "until": 406.8402906500082}, {"on": false, "note": 80, "velocity": 0, "until": 406.8402906500082}, {"on": false, "note": 70, "velocity": 0, "until": 406.8402906500082}, {"on": true, "note": 63, "velocity": 101, "until": 406.8402906500082}, {"on": true, "note": 79, "velocity": 101, "until": 407.0832046500083}, {"on": false, "note": 79, "velocity": 0, "until": 407.0832046500083}, {"on": false, "note": 63, "velocity": 0, "until": 407.81197970000835}, {"on": true, "note": 79, "velocity": 101, "until": 408.0568767000084}, {"on": false, "note": 79, "velocity": 0, "until": 408.0568767000084}, {"on": true, "note": 77, "velocity": 101, "until": 408.1793252000084}, {"on": false, "note": 77, "velocity": 0, "until": 408.1793252000084}, {"on": true, "note": 75, "velocity": 101, "until": 408.3017737000084}, {"on": false, "note": 75, "velocity": 0, "until": 408.3017737000084}, {"on": true, "note": 74, "velocity": 101, "until": 408.5466707000084}, {"on": false, "note": 74, "velocity": 0, "until": 408.7916354500084}, {"on": true, "note": 79, "velocity": 101, "until": 409.0405974500083}, {"on": false, "note": 79, "velocity": 0, "until": 409.0405974500083}, {"on": true, "note": 77, "velocity": 101, "until": 409.16507845000825}, {"on": false, "note": 77, "velocity": 0, "until": 409.16507845000825}, {"on": true, "note": 75, "velocity": 101, "until": 409.2895594500082}, {"on": false, "note": 75, "velocity": 0, "until": 409.2895594500082}, {"on": true, "note": 74, "velocity": 101, "until": 409.53852145000815}, {"on": false, "note": 74, "velocity": 0, "until": 409.78755348334147}, {"on": true, "note": 79, "velocity": 101, "until": 409.78755348334147}, {"on": true, "note": 75, "velocity": 101, "until": 410.04071748334155}, {"on": false, "note": 75, "velocity": 0, "until": 410.04071748334155}, {"on": false, "note": 79, "velocity": 0, "until": 410.04071748334155}, {"on": true, "note": 74, "velocity": 101, "until": 410.04071748334155}, {"on": true, "note": 77, "velocity": 101, "until": 410.1672994833416}, {"on": false, "note": 77, "velocity": 0, "until": 410.1672994833416}, {"on": false, "note": 74, "velocity": 0, "until": 410.1672994833416}, {"on": true, "note": 72, "velocity": 101, "until": 410.1672994833416}, {"on": true, "note": 75, "velocity": 101, "until": 410.29388148334164}, {"on": false, "note": 75, "velocity": 0, "until": 410.29388148334164}, {"on": false, "note": 72, "velocity": 0, "until": 410.29388148334164}, {"on": true, "note": 71, "velocity": 101, "until": 410.29388148334164}, {"on": true, "note": 74, "velocity": 101, "until": 410.54704548334166}, {"on": false, "note": 74, "velocity": 0, "until": 410.54704548334166}, {"on": false, "note": 71, "velocity": 0, "until": 410.800281916675}, {"on": true, "note": 79, "velocity": 101, "until": 410.800281916675}, {"on": true, "note": 75, "velocity": 101, "until": 411.0577919166751}, {"on": false, "note": 75, "velocity": 0, "until": 411.0577919166751}, {"on": false, "note": 79, "velocity": 0, "until": 411.0577919166751}, {"on": true, "note": 74, "velocity": 101, "until": 411.0577919166751}, {"on": true, "note": 77, "velocity": 101, "until": 411.18654691667524}, {"on": false, "note": 77, "velocity": 0, "until": 411.18654691667524}, {"on": false, "note": 74, "velocity": 0, "until": 411.18654691667524}, {"on": true, "note": 72, "velocity": 101, "until": 411.18654691667524}, {"on": true, "note": 75, "velocity": 101, "until": 411.3153019166753}, {"on": false, "note": 75, "velocity": 0, "until": 411.3153019166753}, {"on": false, "note": 72, "velocity": 0, "until": 411.3153019166753}, {"on": true, "note": 71, "velocity": 101, "until": 411.3153019166753}, {"on": true, "note": 74, "velocity": 101, "until": 411.5728119166754}, {"on": false, "note": 74, "velocity": 0, "until": 411.5728119166754}, {"on": false, "note": 71, "velocity": 0, "until": 418.14223065000925}, {"on": true, "note": 67, "velocity": 101, "until": 418.2608076500092}, {"on": false, "note": 67, "velocity": 0, "until": 418.3793846500092}, {"on": true, "note": 67, "velocity": 101, "until": 418.49796165000913}, {"on": false, "note": 67, "velocity": 0, "until": 418.6165386500091}, {"on": true, "note": 67, "velocity": 101, "until": 418.73511565000905}, {"on": false, "note": 67, "velocity": 0, "until": 418.853692650009}, {"on": true, "note": 67, "velocity": 101, "until": 418.97226965000897}, {"on": false, "note": 67, "velocity": 0, "until": 419.090975700009}, {"on": true, "note": 67, "velocity": 101, "until": 419.5805342333423}, {"on": false, "note": 67, "velocity": 0, "until": 421.95761265000897}, {"on": true, "note": 67, "velocity": 101, "until": 422.0761896500089}, {"on": false, "note": 67, "velocity": 0, "until": 422.1947666500089}, {"on": true, "note": 67, "velocity": 101, "until": 422.31334365000885}, {"on": false, "note": 67, "velocity": 0, "until": 422.4319206500088}, {"on": true, "note": 67, "velocity": 101, "until": 422.55049765000877}, {"on": false, "note": 67, "velocity": 0, "until": 422.6690746500087}, {"on": true, "note": 67, "velocity": 101, "until": 422.7876516500087}, {"on": false, "note": 67, "velocity": 0, "until": 422.9063577000087}, {"on": true, "note": 72, "velocity": 101, "until": 423.15125470000874}, {"on": false, "note": 72, "velocity": 0, "until": 423.8576897000081}, {"on": true, "note": 67, "velocity": 101, "until": 423.8576897000081}, {"on": true, "note": 64, "velocity": 91, "until": 424.3472482333414}, {"on": false, "note": 64, "velocity": 0, "until": 424.3472482333414}, {"on": false, "note": 67, "velocity": 0, "until": 424.3472482333414}, {"on": true, "note": 66, "velocity": 101, "until": 424.3472482333414}, {"on": true, "note": 63, "velocity": 91, "until": 424.57801723334137}, {"on": false, "note": 66, "velocity": 0, "until": 424.57801723334137}, {"on": true, "note": 67, "velocity": 101, "until": 424.6934017333413}, {"on": false, "note": 67, "velocity": 0, "until": 424.6934017333413}, {"on": true, "note": 69, "velocity": 101, "until": 424.809021700008}, {"on": false, "note": 69, "velocity": 0, "until": 424.809021700008}, {"on": false, "note": 63, "velocity": 0, "until": 424.809021700008}, {"on": true, "note": 64, "velocity": 91, "until": 424.809021700008}, {"on": true, "note": 67, "velocity": 101, "until": 425.2985802333413}, {"on": false, "note": 67, "velocity": 0, "until": 425.2985802333413}, {"on": false, "note": 64, "velocity": 0, "until": 427.6618917000086}, {"on": true, "note": 64, "velocity": 91, "until": 427.6618917000086}, {"on": true, "note": 67, "velocity": 101, "until": 428.1514502333419}, {"on": false, "note": 67, "velocity": 0, "until": 428.1514502333419}, {"on": false, "note": 64, "velocity": 0, "until": 428.1514502333419}, {"on": true, "note": 66, "velocity": 101, "until": 428.1514502333419}, {"on": true, "note": 63, "velocity": 91, "until": 428.38221923334186}, {"on": false, "note": 66, "velocity": 0, "until": 428.38221923334186}, {"on": true, "note": 67, "velocity": 101, "until": 428.4976037333418}, {"on": false, "note": 67, "velocity": 0, "until": 428.4976037333418}, {"on": true, "note": 69, "velocity": 101, "until": 428.61322370000846}, {"on": false, "note": 69, "velocity": 0, "until": 428.61322370000846}, {"on": false, "note": 63, "velocity": 0, "until": 428.61322370000846}, {"on": true, "note": 64, "velocity": 91, "until": 428.61322370000846}, {"on": true, "note": 67, "velocity": 101, "until": 429.10278223334177}, {"on": false, "note": 67, "velocity": 0, "until": 429.10278223334177}, {"on": false, "note": 64, "velocity": 0, "until": 429.10278223334177}, {"on": true, "note": 69, "velocity": 101, "until": 429.20855135834177}, {"on": false, "note": 69, "velocity": 0, "until": 429.2181667333417}, {"on": true, "note": 71, "velocity": 101, "until": 429.3239358583417}, {"on": false, "note": 71, "velocity": 0, "until": 429.33355123334167}, {"on": true, "note": 72, "velocity": 101, "until": 429.43932035834166}, {"on": false, "note": 72, "velocity": 0, "until": 429.4489357333416}, {"on": true, "note": 74, "velocity": 101, "until": 429.5547048583416}, {"on": false, "note": 74, "velocity": 0, "until": 429.56441108334155}, {"on": true, "note": 76, "velocity": 101, "until": 429.56441108334155}, {"on": true, "note": 68, "velocity": 101, "until": 429.6825210833415}, {"on": false, "note": 68, "velocity": 0, "until": 429.6825210833415}, {"on": false, "note": 76, "velocity": 0, "until": 429.8006310833414}, {"on": true, "note": 69, "velocity": 101, "until": 429.8006310833414}, {"on": true, "note": 75, "velocity": 101, "until": 429.91874108334133}, {"on": false, "note": 75, "velocity": 0, "until": 429.91874108334133}, {"on": false, "note": 69, "velocity": 0, "until": 430.0368510833412}, {"on": true, "note": 76, "velocity": 101, "until": 430.0368510833412}, {"on": true, "note": 68, "velocity": 101, "until": 430.15496108334116}, {"on": false, "note": 68, "velocity": 0, "until": 430.15496108334116}, {"on": false, "note": 76, "velocity": 0, "until": 430.27307108334105}, {"on": true, "note": 75, "velocity": 101, "until": 430.27307108334105}, {"on": true, "note": 69, "velocity": 101, "until": 430.391181083341}, {"on": false, "note": 69, "velocity": 0, "until": 430.391181083341}, {"on": false, "note": 75, "velocity": 0, "until": 430.5092910833409}, {"on": true, "note": 76, "velocity": 101, "until": 430.5092910833409}, {"on": true, "note": 68, "velocity": 101, "until": 430.9816402333398}, {"on": false, "note": 68, "velocity": 0, "until": 430.9816402333398}, {"on": false, "note": 76, "velocity": 0, "until": 432.6866507000066}, {"on": true, "note": 69, "velocity": 101, "until": 432.6866507000066}, {"on": true, "note": 81, "velocity": 101, "until": 432.8744050666733}, {"on": false, "note": 81, "velocity": 0, "until": 432.8744050666733}, {"on": false, "note": 69, "velocity": 0, "until": 432.93131223333995}, {"on": true, "note": 69, "velocity": 101, "until": 432.93131223333995}, {"on": true, "note": 77, "velocity": 101, "until": 433.10823513333986}, {"on": false, "note": 77, "velocity": 0, "until": 433.10823513333986}, {"on": false, "note": 69, "velocity": 0, "until": 433.1620812333398}, {"on": true, "note": 69, "velocity": 101, "until": 433.1620812333398}, {"on": true, "note": 74, "velocity": 101, "until": 433.33900413333976}, {"on": false, "note": 74, "velocity": 0, "until": 433.33900413333976}, {"on": false, "note": 69, "velocity": 0, "until": 433.3930857000064}, {"on": true, "note": 72, "velocity": 101, "until": 433.3930857000064}, {"on": true, "note": 67, "velocity": 101, "until": 433.63798270000643}, {"on": false, "note": 67, "velocity": 0, "until": 433.63798270000643}, {"on": false, "note": 72, "velocity": 0, "until": 434.5893147000065}, {"on": true, "note": 79, "velocity": 101, "until": 434.5893147000065}, {"on": true, "note": 67, "velocity": 101, "until": 434.7770690666732}, {"on": false, "note": 67, "velocity": 0, "until": 434.7770690666732}, {"on": false, "note": 79, "velocity": 0, "until": 434.83397623333985}, {"on": true, "note": 76, "velocity": 101, "until": 434.83397623333985}, {"on": true, "note": 67, "velocity": 101, "until": 435.01089913333965}, {"on": false, "note": 67, "velocity": 0, "until": 435.01089913333965}, {"on": false, "note": 76, "velocity": 0, "until": 435.0647452333395}, {"on": true, "note": 72, "velocity": 101, "until": 435.0647452333395}, {"on": true, "note": 67, "velocity": 101, "until": 435.2416681333394}, {"on": false, "note": 67, "velocity": 0, "until": 435.2416681333394}, {"on": false, "note": 72, "velocity": 0, "until": 435.295749700006}, {"on": true, "note": 71, "velocity": 101, "until": 435.295749700006}, {"on": true, "note": 67, "velocity": 101, "until": 435.41819820000603}, {"on": false, "note": 67, "velocity": 0, "until": 435.41819820000603}, {"on": false, "note": 71, "velocity": 0, "until": 435.54064670000605}, {"on": true, "note": 71, "velocity": 101, "until": 435.54064670000605}, {"on": true, "note": 74, "velocity": 101, "until": 436.01607723333916}, {"on": false, "note": 74, "velocity": 0, "until": 436.01607723333916}, {"on": false, "note": 71, "velocity": 0, "until": 436.01607723333916}, {"on": true, "note": 72, "velocity": 101, "until": 436.01607723333916}, {"on": true, "note": 76, "velocity": 101, "until": 436.2470817000058}, {"on": false, "note": 76, "velocity": 0, "until": 436.2470817000058}, {"on": false, "note": 72, "velocity": 0, "until": 436.2470817000058}, {"on": true, "note": 77, "velocity": 101, "until": 436.2470817000058}, {"on": true, "note": 74, "velocity": 101, "until": 436.36953020000584}, {"on": false, "note": 74, "velocity": 0, "until": 436.36953020000584}, {"on": false, "note": 77, "velocity": 0, "until": 436.49197870000586}, {"on": true, "note": 71, "velocity": 101, "until": 436.49197870000586}, {"on": true, "note": 74, "velocity": 101, "until": 436.96740923333897}, {"on": false, "note": 74, "velocity": 0, "until": 436.96740923333897}, {"on": false, "note": 71, "velocity": 0, "until": 436.96740923333897}, {"on": true, "note": 72, "velocity": 101, "until": 436.96740923333897}, {"on": true, "note": 76, "velocity": 101, "until": 437.19841370000563}, {"on": false, "note": 76, "velocity": 0, "until": 437.19841370000563}, {"on": false, "note": 72, "velocity": 0, "until": 437.19841370000563}, {"on": true, "note": 77, "velocity": 101, "until": 437.19841370000563}, {"on": true, "note": 74, "velocity": 101, "until": 437.32086220000565}, {"on": false, "note": 74, "velocity": 0, "until": 437.32086220000565}, {"on": false, "note": 77, "velocity": 0, "until": 437.44331070000567}, {"on": true, "note": 71, "velocity": 101, "until": 437.44331070000567}, {"on": true, "note": 74, "velocity": 101, "until": 437.9187412333388}, {"on": false, "note": 74, "velocity": 0, "until": 437.9187412333388}, {"on": false, "note": 71, "velocity": 0, "until": 437.9187412333388}, {"on": true, "note": 72, "velocity": 101, "until": 437.9187412333388}, {"on": true, "note": 76, "velocity": 101, "until": 438.14974570000544}, {"on": false, "note": 76, "velocity": 0, "until": 438.14974570000544}, {"on": false, "note": 72, "velocity": 0, "until": 438.14974570000544}, {"on": true, "note": 71, "velocity": 101, "until": 438.14974570000544}, {"on": true, "note": 74, "velocity": 101, "until": 438.3946427000055}, {"on": false, "note": 74, "velocity": 0, "until": 438.3946427000055}, {"on": false, "note": 71, "velocity": 0, "until": 441.0710041333388}, {"on": true, "note": 67, "velocity": 101, "until": 441.1905256333388}, {"on": false, "note": 67, "velocity": 0, "until": 441.31004713333874}, {"on": true, "note": 67, "velocity": 101, "until": 441.4295686333387}, {"on": false, "note": 67, "velocity": 0, "until": 441.54909013333867}, {"on": true, "note": 67, "velocity": 101, "until": 441.6686116333386}, {"on": false, "note": 67, "velocity": 0, "until": 441.7881331333386}, {"on": true, "note": 67, "velocity": 101, "until": 441.90765463333855}, {"on": false, "note": 67, "velocity": 0, "until": 442.0271761333385}, {"on": true, "note": 67, "velocity": 101, "until": 442.50512423333845}, {"on": false, "note": 67, "velocity": 0, "until": 442.7358932333384}, {"on": true, "note": 76, "velocity": 101, "until": 442.7358932333384}, {"on": true, "note": 67, "velocity": 101, "until": 442.85127773333835}, {"on": false, "note": 67, "velocity": 0, "until": 442.85127773333835}, {"on": false, "note": 76, "velocity": 0, "until": 442.9668160833383}, {"on": true, "note": 77, "velocity": 101, "until": 442.9668160833383}, {"on": true, "note": 69, "velocity": 101, "until": 443.08681608333836}, {"on": false, "note": 69, "velocity": 0, "until": 443.08681608333836}, {"on": false, "note": 77, "velocity": 0, "until": 443.2068160833384}, {"on": true, "note": 76, "velocity": 101, "until": 443.2068160833384}, {"on": true, "note": 67, "velocity": 101, "until": 443.3268160833385}, {"on": false, "note": 67, "velocity": 0, "until": 443.3268160833385}, {"on": false, "note": 76, "velocity": 0, "until": 443.44681608333855}, {"on": true, "note": 77, "velocity": 101, "until": 443.44681608333855}, {"on": true, "note": 69, "velocity": 101, "until": 443.5668160833386}, {"on": false, "note": 69, "velocity": 0, "until": 443.5668160833386}, {"on": false, "note": 77, "velocity": 0, "until": 443.68681608333867}, {"on": true, "note": 76, "velocity": 101, "until": 443.68681608333867}, {"on": true, "note": 67, "velocity": 101, "until": 443.80681608333873}, {"on": false, "note": 67, "velocity": 0, "until": 443.80681608333873}, {"on": false, "note": 76, "velocity": 0, "until": 443.9268160833388}, {"on": true, "note": 77, "velocity": 101, "until": 443.9268160833388}, {"on": true, "note": 69, "velocity": 101, "until": 444.40666223333966}, {"on": false, "note": 69, "velocity": 0, "until": 444.40666223333966}, {"on": false, "note": 77, "velocity": 0, "until": 444.6374312333396}, {"on": true, "note": 64, "velocity": 101, "until": 444.75281573333956}, {"on": false, "note": 64, "velocity": 0, "until": 444.86830665000616}, {"on": true, "note": 69, "velocity": 101, "until": 444.9868836500061}, {"on": false, "note": 69, "velocity": 0, "until": 445.1054606500061}, {"on": true, "note": 64, "velocity": 101, "until": 445.22403765000604}, {"on": false, "note": 64, "velocity": 0, "until": 445.342614650006}, {"on": true, "note": 69, "velocity": 101, "until": 445.46119165000596}, {"on": false, "note": 69, "velocity": 0, "until": 445.5797686500059}, {"on": true, "note": 64, "velocity": 101, "until": 445.6983456500059}, {"on": false, "note": 64, "velocity": 0, "until": 445.81692265000584}, {"on": true, "note": 69, "velocity": 101, "until": 446.29112423333913}, {"on": false, "note": 69, "velocity": 0, "until": 446.5218932333391}, {"on": true, "note": 71, "velocity": 101, "until": 446.5218932333391}, {"on": true, "note": 67, "velocity": 101, "until": 446.63727773333903}, {"on": false, "note": 67, "velocity": 0, "until": 446.63727773333903}, {"on": false, "note": 71, "velocity": 0, "until": 446.7527530833389}, {"on": true, "note": 72, "velocity": 101, "until": 446.7527530833389}, {"on": true, "note": 67, "velocity": 101, "until": 446.8708630833388}, {"on": false, "note": 67, "velocity": 0, "until": 446.8708630833388}, {"on": false, "note": 72, "velocity": 0, "until": 446.9889730833387}, {"on": true, "note": 71, "velocity": 101, "until": 446.9889730833387}, {"on": true, "note": 67, "velocity": 101, "until": 447.1070830833386}, {"on": false, "note": 67, "velocity": 0, "until": 447.1070830833386}, {"on": false, "note": 71, "velocity": 0, "until": 447.22519308333847}, {"on": true, "note": 72, "velocity": 101, "until": 447.22519308333847}, {"on": true, "note": 67, "velocity": 101, "until": 447.34330308333836}, {"on": false, "note": 67, "velocity": 0, "until": 447.34330308333836}, {"on": false, "note": 72, "velocity": 0, "until": 447.46141308333824}, {"on": true, "note": 71, "velocity": 101, "until": 447.46141308333824}, {"on": true, "note": 67, "velocity": 101, "until": 447.57952308333813}, {"on": false, "note": 67, "velocity": 0, "until": 447.57952308333813}, {"on": false, "note": 71, "velocity": 0, "until": 447.697633083338}, {"on": true, "note": 72, "velocity": 101, "until": 447.697633083338}, {"on": true, "note": 67, "velocity": 101, "until": 447.9338530833379}, {"on": false, "note": 67, "velocity": 0, "until": 447.9338530833379}, {"on": false, "note": 72, "velocity": 0, "until": 448.1699822333378}, {"on": true, "note": 71, "velocity": 101, "until": 448.1699822333378}, {"on": true, "note": 62, "velocity": 101, "until": 448.6122894833375}, {"on": false, "note": 62, "velocity": 0, "until": 448.6122894833375}, {"on": false, "note": 71, "velocity": 0, "until": 448.6317557000042}, {"on": true, "note": 70, "velocity": 101, "until": 448.6317557000042}, {"on": true, "note": 67, "velocity": 101, "until": 449.1011416166709}, {"on": false, "note": 67, "velocity": 0, "until": 449.1011416166709}, {"on": false, "note": 70, "velocity": 0, "until": 449.1213142333375}, {"on": true, "note": 62, "velocity": 101, "until": 449.1213142333375}, {"on": true, "note": 69, "velocity": 101, "until": 449.5636214833372}, {"on": false, "note": 69, "velocity": 0, "until": 449.5636214833372}, {"on": false, "note": 62, "velocity": 0, "until": 449.5830877000039}, {"on": true, "note": 67, "velocity": 101, "until": 449.5830877000039}, {"on": true, "note": 62, "velocity": 101, "until": 450.05247361667057}, {"on": false, "note": 62, "velocity": 0, "until": 450.05247361667057}, {"on": false, "note": 67, "velocity": 0, "until": 450.0726462333372}, {"on": true, "note": 62, "velocity": 101, "until": 450.0726462333372}, {"on": true, "note": 67, "velocity": 101, "until": 450.5149534833369}, {"on": false, "note": 67, "velocity": 0, "until": 450.5149534833369}, {"on": false, "note": 62, "velocity": 0, "until": 450.5344197000036}, {"on": true, "note": 63, "velocity": 101, "until": 450.5344197000036}, {"on": true, "note": 68, "velocity": 101, "until": 450.7793167000036}, {"on": false, "note": 68, "velocity": 0, "until": 450.7793167000036}, {"on": false, "note": 63, "velocity": 0, "until": 450.7793167000036}, {"on": true, "note": 72, "velocity": 116, "until": 450.7793167000036}, {"on": true, "note": 68, "velocity": 101, "until": 450.90176520000364}, {"on": false, "note": 72, "velocity": 0, "until": 450.90176520000364}, {"on": true, "note": 74, "velocity": 116, "until": 451.014009658337}, {"on": false, "note": 74, "velocity": 0, "until": 451.02397823333695}, {"on": true, "note": 75, "velocity": 101, "until": 451.2547472333369}, {"on": false, "note": 68, "velocity": 0, "until": 451.2547472333369}, {"on": true, "note": 67, "velocity": 101, "until": 451.4412855083369}, {"on": false, "note": 67, "velocity": 0, "until": 451.48575170000356}, {"on": true, "note": 68, "velocity": 101, "until": 451.71024061667026}, {"on": false, "note": 75, "velocity": 0, "until": 451.7306487000036}, {"on": true, "note": 72, "velocity": 116, "until": 451.8530972000036}, {"on": false, "note": 72, "velocity": 0, "until": 451.8530972000036}, {"on": true, "note": 74, "velocity": 116, "until": 451.96534165833697}, {"on": false, "note": 74, "velocity": 0, "until": 451.9753102333369}, {"on": true, "note": 75, "velocity": 101, "until": 452.2060792333364}, {"on": false, "note": 68, "velocity": 0, "until": 452.2060792333364}, {"on": true, "note": 67, "velocity": 101, "until": 452.3926175083364}, {"on": false, "note": 67, "velocity": 0, "until": 452.4370837000031}, {"on": false, "note": 75, "velocity": 0, "until": 452.4370837000031}, {"on": true, "note": 68, "velocity": 101, "until": 452.4370837000031}, {"on": true, "note": 75, "velocity": 101, "until": 452.6819807000031}, {"on": false, "note": 68, "velocity": 0, "until": 452.6819807000031}, {"on": true, "note": 67, "velocity": 101, "until": 452.9064696166698}, {"on": false, "note": 67, "velocity": 0, "until": 452.9064696166698}, {"on": false, "note": 75, "velocity": 0, "until": 452.92664223333645}, {"on": true, "note": 68, "velocity": 101, "until": 452.92664223333645}, {"on": true, "note": 75, "velocity": 101, "until": 453.1574112333361}, {"on": false, "note": 68, "velocity": 0, "until": 453.1574112333361}, {"on": true, "note": 67, "velocity": 101, "until": 453.36894948333605}, {"on": false, "note": 67, "velocity": 0, "until": 453.36894948333605}, {"on": false, "note": 75, "velocity": 0, "until": 453.3884157000027}, {"on": true, "note": 68, "velocity": 101, "until": 453.3884157000027}, {"on": true, "note": 75, "velocity": 101, "until": 453.63331270000276}, {"on": false, "note": 68, "velocity": 0, "until": 453.63331270000276}, {"on": true, "note": 67, "velocity": 101, "until": 453.85780161666946}, {"on": false, "note": 67, "velocity": 0, "until": 453.85780161666946}, {"on": false, "note": 75, "velocity": 0, "until": 453.8779742333361}, {"on": true, "note": 68, "velocity": 101, "until": 453.8779742333361}, {"on": true, "note": 75, "velocity": 101, "until": 454.10874323333576}, {"on": false, "note": 68, "velocity": 0, "until": 454.10874323333576}, {"on": true, "note": 67, "velocity": 101, "until": 454.3202814833357}, {"on": false, "note": 67, "velocity": 0, "until": 454.3202814833357}, {"on": false, "note": 75, "velocity": 0, "until": 454.33974770000236}, {"on": true, "note": 66, "velocity": 101, "until": 454.33974770000236}, {"on": true, "note": 75, "velocity": 101, "until": 454.56423661666906}, {"on": false, "note": 75, "velocity": 0, "until": 454.5846447000024}, {"on": true, "note": 72, "velocity": 116, "until": 454.7070932000024}, {"on": false, "note": 72, "velocity": 0, "until": 454.7070932000024}, {"on": true, "note": 74, "velocity": 116, "until": 454.8293062333357}, {"on": false, "note": 74, "velocity": 0, "until": 454.8293062333357}, {"on": true, "note": 75, "velocity": 101, "until": 455.0600752333357}, {"on": false, "note": 66, "velocity": 0, "until": 455.0600752333357}, {"on": true, "note": 67, "velocity": 101, "until": 455.2716134833356}, {"on": false, "note": 67, "velocity": 0, "until": 455.2910797000023}, {"on": true, "note": 66, "velocity": 101, "until": 455.515568616669}, {"on": false, "note": 75, "velocity": 0, "until": 455.5359767000023}, {"on": true, "note": 72, "velocity": 116, "until": 455.65842520000234}, {"on": false, "note": 72, "velocity": 0, "until": 455.65842520000234}, {"on": true, "note": 74, "velocity": 116, "until": 455.78063823333565}, {"on": false, "note": 74, "velocity": 0, "until": 455.78063823333565}, {"on": true, "note": 75, "velocity": 101, "until": 456.0114072333356}, {"on": false, "note": 66, "velocity": 0, "until": 456.0114072333356}, {"on": true, "note": 67, "velocity": 101, "until": 456.22294548333554}, {"on": false, "note": 67, "velocity": 0, "until": 456.22294548333554}, {"on": false, "note": 75, "velocity": 0, "until": 456.2424117000022}, {"on": true, "note": 75, "velocity": 101, "until": 456.2424117000022}, {"on": true, "note": 66, "velocity": 101, "until": 456.48730870000225}, {"on": false, "note": 66, "velocity": 0, "until": 456.48730870000225}, {"on": true, "note": 67, "velocity": 101, "until": 456.71179761666895}, {"on": false, "note": 67, "velocity": 0, "until": 456.71179761666895}, {"on": false, "note": 75, "velocity": 0, "until": 456.7319702333356}, {"on": true, "note": 66, "velocity": 101, "until": 456.7319702333356}, {"on": true, "note": 75, "velocity": 101, "until": 456.96273923333524}, {"on": false, "note": 66, "velocity": 0, "until": 456.96273923333524}, {"on": true, "note": 67, "velocity": 101, "until": 457.1742774833352}, {"on": false, "note": 67, "velocity": 0, "until": 457.1742774833352}, {"on": false, "note": 75, "velocity": 0, "until": 457.19374370000185}, {"on": true, "note": 75, "velocity": 101, "until": 457.19374370000185}, {"on": true, "note": 66, "velocity": 101, "until": 457.4386407000019}, {"on": false, "note": 66, "velocity": 0, "until": 457.4386407000019}, {"on": true, "note": 67, "velocity": 101, "until": 457.6631296166686}, {"on": false, "note": 67, "velocity": 0, "until": 457.6631296166686}, {"on": false, "note": 75, "velocity": 0, "until": 457.6833022333352}, {"on": true, "note": 66, "velocity": 101, "until": 457.6833022333352}, {"on": true, "note": 75, "velocity": 101, "until": 457.9140712333349}, {"on": false, "note": 75, "velocity": 0, "until": 457.9140712333349}, {"on": true, "note": 72, "velocity": 101, "until": 458.1256094833348}, {"on": false, "note": 72, "velocity": 0, "until": 458.1256094833348}, {"on": false, "note": 66, "velocity": 0, "until": 458.1450757000015}, {"on": true, "note": 71, "velocity": 101, "until": 458.1450757000015}, {"on": true, "note": 67, "velocity": 101, "until": 458.3899727000015}, {"on": false, "note": 67, "velocity": 0, "until": 458.87094508333473}, {"on": false, "note": 71, "velocity": 0, "until": 458.87094508333473}, {"on": true, "note": 72, "velocity": 101, "until": 459.1073774500013}, {"on": false, "note": 72, "velocity": 0, "until": 459.1073774500013}, {"on": true, "note": 71, "velocity": 101, "until": 459.84417913333425}, {"on": false, "note": 71, "velocity": 0, "until": 459.84417913333425}, {"on": true, "note": 72, "velocity": 101, "until": 460.08340475000097}, {"on": false, "note": 72, "velocity": 0, "until": 460.08340475000097}, {"on": true, "note": 71, "velocity": 101, "until": 460.333404750001}, {"on": false, "note": 71, "velocity": 0, "until": 460.333404750001}, {"on": true, "note": 72, "velocity": 101, "until": 460.5832703333344}, {"on": false, "note": 72, "velocity": 0, "until": 460.5832703333344}, {"on": true, "note": 71, "velocity": 101, "until": 460.8252053333344}, {"on": false, "note": 71, "velocity": 0, "until": 460.8252053333344}, {"on": true, "note": 69, "velocity": 101, "until": 461.0671897000011}, {"on": false, "note": 69, "velocity": 0, "until": 461.0671897000011}, {"on": true, "note": 67, "velocity": 101, "until": 461.31208670000115}, {"on": false, "note": 67, "velocity": 0, "until": 461.31208670000115}, {"on": true, "note": 69, "velocity": 101, "until": 461.55701730000123}, {"on": false, "note": 69, "velocity": 0, "until": 461.55701730000123}, {"on": true, "note": 67, "velocity": 101, "until": 461.8039303000013}, {"on": false, "note": 67, "velocity": 0, "until": 461.8039303000013}, {"on": true, "note": 65, "velocity": 101, "until": 462.05091218333456}, {"on": false, "note": 65, "velocity": 0, "until": 462.05091218333456}, {"on": true, "note": 64, "velocity": 101, "until": 462.3019581833344}, {"on": false, "note": 64, "velocity": 0, "until": 462.3019581833344}, {"on": true, "note": 55, "velocity": 101, "until": 462.42748118333435}, {"on": false, "note": 55, "velocity": 0, "until": 462.55285233333433}, {"on": true, "note": 60, "velocity": 101, "until": 463.2879201833344}, {"on": false, "note": 60, "velocity": 0, "until": 463.2879201833344}, {"on": true, "note": 55, "velocity": 101, "until": 463.4134431833343}, {"on": false, "note": 55, "velocity": 0, "until": 463.5388143333343}, {"on": true, "note": 64, "velocity": 101, "until": 464.27388218333436}, {"on": false, "note": 64, "velocity": 0, "until": 464.27388218333436}, {"on": true, "note": 62, "velocity": 101, "until": 464.3994051833343}, {"on": false, "note": 62, "velocity": 0, "until": 464.5247763333343}, {"on": true, "note": 65, "velocity": 101, "until": 465.25984418333434}, {"on": false, "note": 65, "velocity": 0, "until": 465.25984418333434}, {"on": true, "note": 62, "velocity": 101, "until": 465.38536718333427}, {"on": false, "note": 62, "velocity": 0, "until": 465.51073833333425}, {"on": true, "note": 69, "velocity": 101, "until": 465.99476018333445}, {"on": false, "note": 69, "velocity": 0, "until": 465.99476018333445}, {"on": true, "note": 67, "velocity": 101, "until": 466.3713291833334}, {"on": false, "note": 67, "velocity": 0, "until": 466.3713291833334}, {"on": true, "note": 69, "velocity": 101, "until": 466.4967003333332}, {"on": false, "note": 69, "velocity": 0, "until": 466.4967003333332}, {"on": true, "note": 67, "velocity": 101, "until": 466.7386353333333}, {"on": false, "note": 67, "velocity": 0, "until": 466.7386353333333}, {"on": true, "note": 65, "velocity": 101, "until": 466.8596028333334}, {"on": false, "note": 65, "velocity": 0, "until": 466.9807221833334}, {"on": true, "note": 64, "velocity": 101, "until": 467.10624518333333}, {"on": false, "note": 64, "velocity": 0, "until": 467.10624518333333}, {"on": true, "note": 65, "velocity": 101, "until": 467.23176818333326}, {"on": false, "note": 65, "velocity": 0, "until": 467.23176818333326}, {"on": true, "note": 64, "velocity": 101, "until": 467.3572911833332}, {"on": false, "note": 64, "velocity": 0, "until": 467.3572911833332}, {"on": true, "note": 62, "velocity": 101, "until": 467.48266233333317}, {"on": false, "note": 62, "velocity": 0, "until": 467.48266233333317}, {"on": true, "note": 64, "velocity": 101, "until": 467.5512105833332}, {"on": false, "note": 64, "velocity": 0, "until": 467.7245973333333}, {"on": true, "note": 72, "velocity": 101, "until": 467.79314558333334}, {"on": false, "note": 72, "velocity": 0, "until": 467.96668418333337}, {"on": true, "note": 67, "velocity": 101, "until": 468.3432531833323}, {"on": false, "note": 67, "velocity": 0, "until": 468.3432531833323}, {"on": true, "note": 69, "velocity": 101, "until": 468.4686243333321}, {"on": false, "note": 69, "velocity": 0, "until": 468.4686243333321}, {"on": true, "note": 67, "velocity": 101, "until": 468.71055933333224}, {"on": false, "note": 67, "velocity": 0, "until": 468.71055933333224}, {"on": true, "note": 65, "velocity": 101, "until": 468.8315268333323}, {"on": false, "note": 65, "velocity": 0, "until": 468.9526461833323}, {"on": true, "note": 64, "velocity": 101, "until": 469.07816918333225}, {"on": false, "note": 64, "velocity": 0, "until": 469.07816918333225}, {"on": true, "note": 65, "velocity": 101, "until": 469.2036921833322}, {"on": false, "note": 65, "velocity": 0, "until": 469.2036921833322}, {"on": true, "note": 64, "velocity": 101, "until": 469.3292151833321}, {"on": false, "note": 64, "velocity": 0, "until": 469.3292151833321}, {"on": true, "note": 62, "velocity": 101, "until": 469.4545863333321}, {"on": false, "note": 62, "velocity": 0, "until": 469.4545863333321}, {"on": true, "note": 60, "velocity": 101, "until": 469.69720604999884}, {"on": false, "note": 60, "velocity": 0, "until": 470.2361905833321}, {"on": true, "note": 55, "velocity": 101, "until": 470.364395583332}, {"on": false, "note": 55, "velocity": 0, "until": 470.49240869999863}, {"on": true, "note": 60, "velocity": 101, "until": 471.238804583332}, {"on": false, "note": 60, "velocity": 0, "until": 471.238804583332}, {"on": true, "note": 55, "velocity": 81, "until": 471.367009583332}, {"on": false, "note": 55, "velocity": 0, "until": 471.4950226999987}, {"on": true, "note": 63, "velocity": 101, "until": 472.24141858333206}, {"on": false, "note": 63, "velocity": 0, "until": 472.24141858333206}, {"on": true, "note": 60, "velocity": 101, "until": 472.36962358333204}, {"on": false, "note": 60, "velocity": 0, "until": 472.49763669999874}, {"on": true, "note": 68, "velocity": 101, "until": 473.2440325833321}, {"on": false, "note": 68, "velocity": 0, "until": 473.2440325833321}, {"on": true, "note": 63, "velocity": 101, "until": 473.3722375833321}, {"on": false, "note": 63, "velocity": 0, "until": 473.5002506999988}, {"on": true, "note": 72, "velocity": 101, "until": 473.99023658333215}, {"on": false, "note": 72, "velocity": 0, "until": 473.99023658333215}, {"on": true, "note": 70, "velocity": 101, "until": 474.3748515833318}, {"on": false, "note": 70, "velocity": 0, "until": 474.3748515833318}, {"on": true, "note": 72, "velocity": 101, "until": 474.5028646999983}, {"on": false, "note": 72, "velocity": 0, "until": 474.5028646999983}, {"on": true, "note": 70, "velocity": 101, "until": 474.7477616999983}, {"on": false, "note": 70, "velocity": 0, "until": 474.7477616999983}, {"on": true, "note": 68, "velocity": 101, "until": 474.8702101999983}, {"on": false, "note": 68, "velocity": 0, "until": 474.99285058333163}, {"on": true, "note": 67, "velocity": 101, "until": 475.12105558333155}, {"on": false, "note": 67, "velocity": 0, "until": 475.12105558333155}, {"on": true, "note": 70, "velocity": 101, "until": 475.2492605833315}, {"on": false, "note": 70, "velocity": 0, "until": 475.2492605833315}, {"on": true, "note": 68, "velocity": 101, "until": 475.3774655833314}, {"on": false, "note": 68, "velocity": 0, "until": 475.3774655833314}, {"on": true, "note": 65, "velocity": 101, "until": 475.50547869999804}, {"on": false, "note": 65, "velocity": 0, "until": 475.50547869999804}, {"on": true, "note": 67, "velocity": 101, "until": 475.5748661833314}, {"on": false, "note": 67, "velocity": 0, "until": 475.7503756999981}, {"on": true, "note": 75, "velocity": 101, "until": 475.8197631833314}, {"on": false, "note": 75, "velocity": 0, "until": 475.9954645833314}, {"on": true, "note": 70, "velocity": 101, "until": 476.38007958333105}, {"on": false, "note": 70, "velocity": 0, "until": 476.38007958333105}, {"on": true, "note": 72, "velocity": 101, "until": 476.5080926999976}, {"on": false, "note": 72, "velocity": 0, "until": 476.5080926999976}, {"on": true, "note": 70, "velocity": 101, "until": 476.7529896999976}, {"on": false, "note": 70, "velocity": 0, "until": 476.7529896999976}, {"on": true, "note": 68, "velocity": 101, "until": 476.87543819999763}, {"on": false, "note": 68, "velocity": 0, "until": 476.99807858333094}, {"on": true, "note": 67, "velocity": 101, "until": 477.12628358333086}, {"on": false, "note": 67, "velocity": 0, "until": 477.12628358333086}, {"on": true, "note": 70, "velocity": 101, "until": 477.2544885833308}, {"on": false, "note": 70, "velocity": 0, "until": 477.2544885833308}, {"on": true, "note": 68, "velocity": 101, "until": 477.3826935833307}, {"on": false, "note": 68, "velocity": 0, "until": 477.3826935833307}, {"on": true, "note": 65, "velocity": 101, "until": 477.51070669999734}, {"on": false, "note": 65, "velocity": 0, "until": 477.51070669999734}, {"on": true, "note": 63, "velocity": 101, "until": 477.7560675333307}, {"on": false, "note": 63, "velocity": 0, "until": 478.02843318333066}, {"on": true, "note": 67, "velocity": 101, "until": 478.53037333333}, {"on": false, "note": 67, "velocity": 0, "until": 478.7723083333301}, {"on": true, "note": 59, "velocity": 101, "until": 478.7723083333301}, {"on": true, "note": 62, "velocity": 101, "until": 478.89327583333016}, {"on": false, "note": 62, "velocity": 0, "until": 478.89327583333016}, {"on": false, "note": 59, "velocity": 0, "until": 479.0143951833302}, {"on": true, "note": 63, "velocity": 101, "until": 479.0143951833302}, {"on": true, "note": 60, "velocity": 101, "until": 479.1399181833301}, {"on": false, "note": 60, "velocity": 0, "until": 479.1399181833301}, {"on": false, "note": 63, "velocity": 0, "until": 479.26544118333}, {"on": true, "note": 65, "velocity": 101, "until": 479.26544118333}, {"on": true, "note": 62, "velocity": 101, "until": 479.3909641833299}, {"on": false, "note": 62, "velocity": 0, "until": 479.3909641833299}, {"on": false, "note": 65, "velocity": 0, "until": 479.5163353333299}, {"on": true, "note": 67, "velocity": 101, "until": 479.5163353333299}, {"on": true, "note": 63, "velocity": 101, "until": 479.63730283332995}, {"on": false, "note": 63, "velocity": 0, "until": 479.63730283332995}, {"on": false, "note": 67, "velocity": 0, "until": 480.00035718333}, {"on": true, "note": 65, "velocity": 101, "until": 480.7341517083294}, {"on": false, "note": 65, "velocity": 0, "until": 480.7442323333295}, {"on": true, "note": 65, "velocity": 101, "until": 480.8651998333295}, {"on": false, "note": 65, "velocity": 0, "until": 480.98631918332944}, {"on": true, "note": 67, "velocity": 101, "until": 481.11184218332943}, {"on": false, "note": 67, "velocity": 0, "until": 481.23736518332936}, {"on": true, "note": 68, "velocity": 101, "until": 481.36288818332935}, {"on": false, "note": 68, "velocity": 0, "until": 481.4882593333294}, {"on": true, "note": 70, "velocity": 101, "until": 481.6092268333294}, {"on": false, "note": 70, "velocity": 0, "until": 481.97222929999606}, {"on": true, "note": 67, "velocity": 101, "until": 482.46791564999603}, {"on": false, "note": 67, "velocity": 0, "until": 482.7050696499959}, {"on": true, "note": 59, "velocity": 101, "until": 482.7050696499959}, {"on": true, "note": 62, "velocity": 101, "until": 482.8236466499958}, {"on": false, "note": 62, "velocity": 0, "until": 482.8236466499958}, {"on": false, "note": 59, "velocity": 0, "until": 482.94240329999576}, {"on": true, "note": 63, "velocity": 101, "until": 482.94240329999576}, {"on": true, "note": 60, "velocity": 101, "until": 483.0663697999958}, {"on": false, "note": 60, "velocity": 0, "until": 483.0663697999958}, {"on": false, "note": 63, "velocity": 0, "until": 483.19033629999586}, {"on": true, "note": 65, "velocity": 101, "until": 483.19033629999586}, {"on": true, "note": 62, "velocity": 101, "until": 483.3143027999959}, {"on": false, "note": 62, "velocity": 0, "until": 483.3143027999959}, {"on": false, "note": 65, "velocity": 0, "until": 483.4380896499959}, {"on": true, "note": 67, "velocity": 101, "until": 483.4380896499959}, {"on": true, "note": 63, "velocity": 101, "until": 483.5566666499958}, {"on": false, "note": 63, "velocity": 0, "until": 483.5566666499958}, {"on": false, "note": 67, "velocity": 0, "until": 483.9125772999958}, {"on": true, "note": 65, "velocity": 101, "until": 484.6355362333294}, {"on": false, "note": 65, "velocity": 0, "until": 484.645417649996}, {"on": true, "note": 65, "velocity": 101, "until": 484.7639946499959}, {"on": false, "note": 65, "velocity": 0, "until": 484.88275129999585}, {"on": true, "note": 67, "velocity": 101, "until": 485.00671779999584}, {"on": false, "note": 67, "velocity": 0, "until": 485.1306842999959}, {"on": true, "note": 68, "velocity": 101, "until": 485.2546507999959}, {"on": false, "note": 68, "velocity": 0, "until": 485.3784376499958}, {"on": true, "note": 70, "velocity": 101, "until": 485.4970146499957}, {"on": false, "note": 70, "velocity": 0, "until": 485.85284164999575}, {"on": true, "note": 74, "velocity": 101, "until": 485.85284164999575}, {"on": true, "note": 62, "velocity": 101, "until": 486.3384378666627}, {"on": false, "note": 62, "velocity": 0, "until": 486.3384378666627}, {"on": false, "note": 74, "velocity": 0, "until": 486.5674448666627}, {"on": true, "note": 69, "velocity": 101, "until": 486.5674448666627}, {"on": true, "note": 66, "velocity": 101, "until": 486.68194836666277}, {"on": false, "note": 66, "velocity": 0, "until": 486.68194836666277}, {"on": false, "note": 69, "velocity": 0, "until": 486.79668364999617}, {"on": true, "note": 70, "velocity": 101, "until": 486.79668364999617}, {"on": true, "note": 67, "velocity": 101, "until": 486.91814064999625}, {"on": false, "note": 67, "velocity": 0, "until": 486.91814064999625}, {"on": false, "note": 70, "velocity": 0, "until": 487.03959764999627}, {"on": true, "note": 72, "velocity": 101, "until": 487.03959764999627}, {"on": true, "note": 69, "velocity": 101, "until": 487.1610546499963}, {"on": false, "note": 69, "velocity": 0, "until": 487.1610546499963}, {"on": false, "note": 72, "velocity": 0, "until": 487.282279866663}, {"on": true, "note": 74, "velocity": 101, "until": 487.282279866663}, {"on": true, "note": 70, "velocity": 101, "until": 487.39678336666304}, {"on": false, "note": 70, "velocity": 0, "until": 487.39678336666304}, {"on": false, "note": 74, "velocity": 0, "until": 487.7405256499965}, {"on": true, "note": 77, "velocity": 101, "until": 487.7405256499965}, {"on": true, "note": 65, "velocity": 101, "until": 488.22612186666424}, {"on": false, "note": 65, "velocity": 0, "until": 488.22612186666424}, {"on": false, "note": 77, "velocity": 0, "until": 488.45512886666427}, {"on": true, "note": 72, "velocity": 101, "until": 488.45512886666427}, {"on": true, "note": 69, "velocity": 101, "until": 488.56963236666434}, {"on": false, "note": 69, "velocity": 0, "until": 488.56963236666434}, {"on": false, "note": 72, "velocity": 0, "until": 488.68436764999774}, {"on": true, "note": 74, "velocity": 101, "until": 488.68436764999774}, {"on": true, "note": 70, "velocity": 101, "until": 488.8058246499978}, {"on": false, "note": 70, "velocity": 0, "until": 488.8058246499978}, {"on": false, "note": 74, "velocity": 0, "until": 488.92728164999784}, {"on": true, "note": 75, "velocity": 101, "until": 488.92728164999784}, {"on": true, "note": 72, "velocity": 101, "until": 489.04873864999786}, {"on": false, "note": 72, "velocity": 0, "until": 489.04873864999786}, {"on": false, "note": 75, "velocity": 0, "until": 489.16996386666455}, {"on": true, "note": 77, "velocity": 101, "until": 489.16996386666455}, {"on": true, "note": 74, "velocity": 101, "until": 489.2844673666646}, {"on": false, "note": 74, "velocity": 0, "until": 489.2844673666646}, {"on": false, "note": 77, "velocity": 0, "until": 489.6289687666646}, {"on": true, "note": 63, "velocity": 101, "until": 490.15637208333123}, {"on": false, "note": 63, "velocity": 0, "until": 490.1665903333312}, {"on": true, "note": 63, "velocity": 101, "until": 490.2856378333312}, {"on": false, "note": 63, "velocity": 0, "until": 490.40468533333114}, {"on": true, "note": 63, "velocity": 101, "until": 490.5237328333311}, {"on": false, "note": 63, "velocity": 0, "until": 490.643085583331}, {"on": true, "note": 63, "velocity": 101, "until": 491.64569958333095}, {"on": false, "note": 63, "velocity": 0, "until": 491.64569958333095}, {"on": true, "note": 64, "velocity": 101, "until": 491.64569958333095}, {"on": true, "note": 76, "velocity": 101, "until": 491.90210958333086}, {"on": false, "note": 76, "velocity": 0, "until": 492.14783583333076}, {"on": false, "note": 64, "velocity": 0, "until": 492.1583276999974}, {"on": true, "note": 64, "velocity": 101, "until": 492.28077619999743}, {"on": false, "note": 64, "velocity": 0, "until": 492.40322469999745}, {"on": true, "note": 64, "velocity": 101, "until": 492.52567319999747}, {"on": false, "note": 64, "velocity": 0, "until": 492.6483135833308}, {"on": true, "note": 65, "velocity": 101, "until": 492.6483135833308}, {"on": true, "note": 74, "velocity": 101, "until": 492.9047235833307}, {"on": false, "note": 74, "velocity": 0, "until": 493.6948218499975}, {"on": false, "note": 65, "velocity": 0, "until": 493.6948218499975}, {"on": true, "note": 64, "velocity": 101, "until": 493.6948218499975}, {"on": true, "note": 72, "velocity": 101, "until": 493.9603078499975}, {"on": false, "note": 72, "velocity": 0, "until": 493.9603078499975}, {"on": false, "note": 64, "velocity": 0, "until": 496.76919289999836}, {"on": true, "note": 67, "velocity": 101, "until": 497.03006189999854}, {"on": false, "note": 67, "velocity": 0, "until": 497.03006189999854}, {"on": true, "note": 71, "velocity": 101, "until": 497.2907497499988}, {"on": false, "note": 71, "velocity": 0, "until": 497.2907497499988}, {"on": true, "note": 74, "velocity": 101, "until": 497.5407497499989}, {"on": false, "note": 74, "velocity": 0, "until": 497.5407497499989}, {"on": true, "note": 77, "velocity": 101, "until": 497.78033308333227}, {"on": false, "note": 77, "velocity": 0, "until": 497.790930899999}, {"on": true, "note": 76, "velocity": 101, "until": 498.81266889999944}, {"on": false, "note": 76, "velocity": 0, "until": 498.81266889999944}, {"on": true, "note": 77, "velocity": 101, "until": 499.0735378999996}, {"on": false, "note": 77, "velocity": 0, "until": 499.0735378999996}, {"on": true, "note": 74, "velocity": 101, "until": 499.33422574999986}, {"on": false, "note": 74, "velocity": 0, "until": 499.33422574999986}, {"on": true, "note": 71, "velocity": 101, "until": 499.58422575}, {"on": false, "note": 71, "velocity": 0, "until": 499.58422575}, {"on": true, "note": 67, "velocity": 101, "until": 499.83433258333326}, {"on": false, "note": 67, "velocity": 0, "until": 499.83433258333326}, {"on": true, "note": 67, "velocity": 101, "until": 501.09335658333316}, {"on": false, "note": 67, "velocity": 0, "until": 501.09335658333316}, {"on": true, "note": 71, "velocity": 101, "until": 501.3495746999998}, {"on": false, "note": 71, "velocity": 0, "until": 501.3495746999998}, {"on": true, "note": 74, "velocity": 101, "until": 501.5944716999998}, {"on": false, "note": 74, "velocity": 0, "until": 501.5944716999998}, {"on": true, "note": 77, "velocity": 101, "until": 501.8291646583332}, {"on": false, "note": 77, "velocity": 0, "until": 501.83956058333314}, {"on": true, "note": 76, "velocity": 101, "until": 502.09597058333304}, {"on": false, "note": 76, "velocity": 0, "until": 502.35209113333303}, {"on": true, "note": 69, "velocity": 101, "until": 503.33013008333285}, {"on": false, "note": 69, "velocity": 0, "until": 503.33013008333285}, {"on": true, "note": 72, "velocity": 101, "until": 504.05054608333256}, {"on": false, "note": 72, "velocity": 0, "until": 504.34953013333256}, {"on": true, "note": 69, "velocity": 101, "until": 504.34953013333256}, {"on": true, "note": 65, "velocity": 101, "until": 504.4690516333325}, {"on": false, "note": 65, "velocity": 0, "until": 504.4690516333325}, {"on": false, "note": 69, "velocity": 0, "until": 504.5885731333325}, {"on": true, "note": 65, "velocity": 101, "until": 504.5885731333325}, {"on": true, "note": 69, "velocity": 101, "until": 504.70809463333245}, {"on": false, "note": 69, "velocity": 0, "until": 504.70809463333245}, {"on": false, "note": 65, "velocity": 0, "until": 504.82790558333244}, {"on": true, "note": 72, "velocity": 101, "until": 504.82790558333244}, {"on": true, "note": 69, "velocity": 101, "until": 505.8305195833325}, {"on": false, "note": 69, "velocity": 0, "until": 505.8305195833325}, {"on": false, "note": 72, "velocity": 0, "until": 505.8305195833325}, {"on": true, "note": 70, "velocity": 101, "until": 505.8305195833325}, {"on": true, "note": 67, "velocity": 101, "until": 506.3431476999993}, {"on": false, "note": 67, "velocity": 0, "until": 506.3431476999993}, {"on": false, "note": 70, "velocity": 0, "until": 506.3431476999993}, {"on": true, "note": 65, "velocity": 101, "until": 506.3431476999993}, {"on": true, "note": 69, "velocity": 101, "until": 506.58804469999933}, {"on": false, "note": 69, "velocity": 0, "until": 506.58804469999933}, {"on": false, "note": 65, "velocity": 0, "until": 506.58804469999933}, {"on": true, "note": 64, "velocity": 101, "until": 506.58804469999933}, {"on": true, "note": 67, "velocity": 101, "until": 506.833097366666}, {"on": false, "note": 67, "velocity": 0, "until": 506.833097366666}, {"on": false, "note": 64, "velocity": 0, "until": 506.833097366666}, {"on": true, "note": 62, "velocity": 101, "until": 506.833097366666}, {"on": true, "note": 65, "velocity": 101, "until": 507.0873343666659}, {"on": false, "note": 65, "velocity": 0, "until": 507.0873343666659}, {"on": false, "note": 62, "velocity": 0, "until": 510.2971110833322}, {"on": true, "note": 69, "velocity": 101, "until": 511.26132233333186}, {"on": false, "note": 69, "velocity": 0, "until": 511.26132233333186}, {"on": true, "note": 72, "velocity": 101, "until": 511.97408008333196}, {"on": false, "note": 72, "velocity": 0, "until": 512.2729262333319}, {"on": true, "note": 69, "velocity": 101, "until": 512.2729262333319}, {"on": true, "note": 65, "velocity": 101, "until": 512.3883107333319}, {"on": false, "note": 65, "velocity": 0, "until": 512.3883107333319}, {"on": false, "note": 69, "velocity": 0, "until": 512.5036952333319}, {"on": true, "note": 65, "velocity": 101, "until": 512.5036952333319}, {"on": true, "note": 69, "velocity": 101, "until": 512.6190797333319}, {"on": false, "note": 69, "velocity": 0, "until": 512.6190797333319}, {"on": false, "note": 65, "velocity": 0, "until": 512.7346666499986}, {"on": true, "note": 72, "velocity": 101, "until": 512.7346666499986}, {"on": true, "note": 69, "velocity": 101, "until": 515.107946866667}, {"on": false, "note": 69, "velocity": 0, "until": 515.107946866667}, {"on": false, "note": 72, "velocity": 0, "until": 515.107946866667}, {"on": true, "note": 69, "velocity": 101, "until": 515.107946866667}, {"on": true, "note": 62, "velocity": 101, "until": 515.3274119083339}, {"on": false, "note": 62, "velocity": 0, "until": 515.3274119083339}, {"on": false, "note": 69, "velocity": 0, "until": 515.3369538666674}, {"on": true, "note": 69, "velocity": 101, "until": 515.3369538666674}, {"on": true, "note": 62, "velocity": 101, "until": 515.5564189083343}, {"on": false, "note": 62, "velocity": 0, "until": 515.5564189083343}, {"on": false, "note": 69, "velocity": 0, "until": 515.566192650001}, {"on": true, "note": 67, "velocity": 101, "until": 515.566192650001}, {"on": true, "note": 64, "velocity": 101, "until": 516.0522824166675}, {"on": false, "note": 64, "velocity": 0, "until": 516.0522824166675}, {"on": false, "note": 67, "velocity": 0, "until": 516.0522824166675}, {"on": true, "note": 67, "velocity": 101, "until": 516.1815924166675}, {"on": false, "note": 67, "velocity": 0, "until": 516.3104382333341}, {"on": true, "note": 67, "velocity": 101, "until": 516.5414096500008}, {"on": false, "note": 67, "velocity": 0, "until": 516.5414096500008}, {"on": true, "note": 81, "velocity": 101, "until": 517.0271106500012}, {"on": false, "note": 81, "velocity": 0, "until": 517.0271106500012}, {"on": true, "note": 79, "velocity": 101, "until": 517.1447576500011}, {"on": false, "note": 79, "velocity": 0, "until": 517.1447576500011}, {"on": true, "note": 77, "velocity": 101, "until": 517.262404650001}, {"on": false, "note": 77, "velocity": 0, "until": 517.262404650001}, {"on": true, "note": 76, "velocity": 101, "until": 517.3800516500011}, {"on": false, "note": 76, "velocity": 0, "until": 517.3800516500011}, {"on": true, "note": 74, "velocity": 101, "until": 517.497825650001}, {"on": false, "note": 74, "velocity": 0, "until": 518.9399426500015}, {"on": true, "note": 69, "velocity": 101, "until": 519.0575896500015}, {"on": false, "note": 69, "velocity": 0, "until": 519.1752366500016}, {"on": true, "note": 69, "velocity": 101, "until": 519.4106576500016}, {"on": false, "note": 69, "velocity": 0, "until": 519.4106576500016}, {"on": true, "note": 77, "velocity": 101, "until": 519.7750286500016}, {"on": false, "note": 77, "velocity": 0, "until": 519.7750286500016}, {"on": true, "note": 76, "velocity": 101, "until": 519.8963586500016}, {"on": false, "note": 76, "velocity": 0, "until": 519.8963586500016}, {"on": true, "note": 74, "velocity": 101, "until": 520.0140056500016}, {"on": false, "note": 74, "velocity": 0, "until": 520.0140056500016}, {"on": true, "note": 72, "velocity": 101, "until": 520.1316526500017}, {"on": false, "note": 72, "velocity": 0, "until": 520.1316526500017}, {"on": true, "note": 71, "velocity": 101, "until": 520.2492996500017}, {"on": false, "note": 71, "velocity": 0, "until": 520.2492996500017}, {"on": true, "note": 69, "velocity": 101, "until": 520.3670736500017}, {"on": false, "note": 69, "velocity": 0, "until": 520.3670736500017}, {"on": true, "note": 67, "velocity": 101, "until": 520.3670736500017}, {"on": true, "note": 77, "velocity": 101, "until": 520.6099876500016}, {"on": false, "note": 67, "velocity": 0, "until": 521.3234896500013}, {"on": false, "note": 77, "velocity": 0, "until": 521.3234896500013}, {"on": true, "note": 76, "velocity": 101, "until": 521.5664036500011}, {"on": false, "note": 76, "velocity": 0, "until": 522.7656066500016}, {"on": true, "note": 69, "velocity": 101, "until": 522.8832536500016}, {"on": false, "note": 69, "velocity": 0, "until": 523.0009006500017}, {"on": true, "note": 69, "velocity": 101, "until": 523.2363216500016}, {"on": false, "note": 69, "velocity": 0, "until": 523.2363216500016}, {"on": true, "note": 77, "velocity": 101, "until": 523.8396696500021}, {"on": false, "note": 77, "velocity": 0, "until": 523.8396696500021}, {"on": true, "note": 79, "velocity": 101, "until": 523.957316650002}, {"on": false, "note": 79, "velocity": 0, "until": 523.957316650002}, {"on": true, "note": 77, "velocity": 101, "until": 524.0749636500019}, {"on": false, "note": 77, "velocity": 0, "until": 524.0749636500019}, {"on": true, "note": 76, "velocity": 101, "until": 524.1927376500018}, {"on": false, "note": 76, "velocity": 0, "until": 524.1927376500018}, {"on": true, "note": 74, "velocity": 101, "until": 524.1927376500018}, {"on": true, "note": 69, "velocity": 101, "until": 524.4356516500018}, {"on": false, "note": 69, "velocity": 0, "until": 524.4356516500018}, {"on": false, "note": 74, "velocity": 0, "until": 525.1365796500015}, {"on": true, "note": 65, "velocity": 101, "until": 525.1365796500015}, {"on": true, "note": 71, "velocity": 101, "until": 525.3794936500013}, {"on": false, "note": 71, "velocity": 0, "until": 525.3794936500013}, {"on": false, "note": 65, "velocity": 0, "until": 528.9119476500006}, {"on": true, "note": 67, "velocity": 101, "until": 529.0334046500004}, {"on": false, "note": 67, "velocity": 0, "until": 529.1548616500004}, {"on": true, "note": 67, "velocity": 101, "until": 529.2763186500003}, {"on": false, "note": 67, "velocity": 0, "until": 529.3975438666671}, {"on": true, "note": 67, "velocity": 101, "until": 529.5120473666672}, {"on": false, "note": 67, "velocity": 0, "until": 529.6265508666672}, {"on": true, "note": 67, "velocity": 101, "until": 529.7410543666673}, {"on": false, "note": 67, "velocity": 0, "until": 529.8557896500006}, {"on": true, "note": 67, "velocity": 101, "until": 530.3413858666673}, {"on": false, "note": 67, "velocity": 0, "until": 531.7434736500006}, {"on": true, "note": 79, "velocity": 116, "until": 532.3435733666673}, {"on": false, "note": 79, "velocity": 0, "until": 532.3435733666673}, {"on": true, "note": 77, "velocity": 116, "until": 532.4580768666673}, {"on": false, "note": 77, "velocity": 0, "until": 532.4580768666673}, {"on": true, "note": 76, "velocity": 116, "until": 532.5725803666672}, {"on": false, "note": 76, "velocity": 0, "until": 532.5725803666672}, {"on": true, "note": 74, "velocity": 116, "until": 532.6873156500004}, {"on": false, "note": 74, "velocity": 0, "until": 532.6873156500004}, {"on": true, "note": 74, "velocity": 116, "until": 532.7278013166671}, {"on": false, "note": 74, "velocity": 0, "until": 532.7278013166671}, {"on": true, "note": 72, "velocity": 116, "until": 532.8087726500004}, {"on": false, "note": 72, "velocity": 0, "until": 532.9302296500003}, {"on": true, "note": 71, "velocity": 116, "until": 533.0516866500003}, {"on": false, "note": 71, "velocity": 0, "until": 533.1729118666669}, {"on": true, "note": 74, "velocity": 116, "until": 533.2110797000003}, {"on": false, "note": 74, "velocity": 0, "until": 533.2110797000003}, {"on": true, "note": 72, "velocity": 116, "until": 533.2874153666669}, {"on": false, "note": 72, "velocity": 0, "until": 533.4019188666668}, {"on": true, "note": 71, "velocity": 116, "until": 533.5164223666668}, {"on": false, "note": 71, "velocity": 0, "until": 533.63115765}, {"on": true, "note": 72, "velocity": 116, "until": 534.1167538666663}, {"on": false, "note": 72, "velocity": 0, "until": 534.1167538666663}, {"on": true, "note": 67, "velocity": 116, "until": 534.3457608666665}, {"on": false, "note": 67, "velocity": 0, "until": 535.5188416499998}, {"on": true, "note": 79, "velocity": 116, "until": 536.1189413666665}, {"on": false, "note": 79, "velocity": 0, "until": 536.1189413666665}, {"on": true, "note": 77, "velocity": 116, "until": 536.2334448666664}, {"on": false, "note": 77, "velocity": 0, "until": 536.2334448666664}, {"on": true, "note": 76, "velocity": 116, "until": 536.3479483666664}, {"on": false, "note": 76, "velocity": 0, "until": 536.3479483666664}, {"on": true, "note": 74, "velocity": 116, "until": 536.4626836499996}, {"on": false, "note": 74, "velocity": 0, "until": 536.4626836499996}, {"on": true, "note": 74, "velocity": 116, "until": 536.5031693166662}, {"on": false, "note": 74, "velocity": 0, "until": 536.5031693166662}, {"on": true, "note": 72, "velocity": 116, "until": 536.5841406499995}, {"on": false, "note": 72, "velocity": 0, "until": 536.7055976499995}, {"on": true, "note": 71, "velocity": 116, "until": 536.8270546499995}, {"on": false, "note": 71, "velocity": 0, "until": 536.9482798666661}, {"on": true, "note": 74, "velocity": 116, "until": 536.9864476999994}, {"on": false, "note": 74, "velocity": 0, "until": 536.9864476999994}, {"on": true, "note": 72, "velocity": 116, "until": 537.062783366666}, {"on": false, "note": 72, "velocity": 0, "until": 537.177286866666}, {"on": true, "note": 71, "velocity": 116, "until": 537.291790366666}, {"on": false, "note": 71, "velocity": 0, "until": 537.4065256499991}, {"on": true, "note": 72, "velocity": 116, "until": 537.8921218666662}, {"on": false, "note": 72, "velocity": 0, "until": 537.8921218666662}, {"on": true, "note": 67, "velocity": 116, "until": 538.1211288666661}, {"on": false, "note": 67, "velocity": 0, "until": 539.7798058666666}, {"on": true, "note": 83, "velocity": 116, "until": 539.8943093666667}, {"on": false, "note": 83, "velocity": 0, "until": 539.8943093666667}, {"on": true, "note": 81, "velocity": 116, "until": 540.0088128666667}, {"on": false, "note": 81, "velocity": 0, "until": 540.0088128666667}, {"on": true, "note": 79, "velocity": 116, "until": 540.1233163666668}, {"on": false, "note": 79, "velocity": 0, "until": 540.1233163666668}, {"on": true, "note": 77, "velocity": 116, "until": 540.2380516500001}, {"on": false, "note": 77, "velocity": 0, "until": 540.2380516500001}, {"on": true, "note": 76, "velocity": 116, "until": 540.48096565}, {"on": false, "note": 76, "velocity": 0, "until": 540.7236478666667}, {"on": true, "note": 74, "velocity": 116, "until": 540.9526548666669}, {"on": false, "note": 74, "velocity": 0, "until": 541.1815080833336}, {"on": true, "note": 64, "velocity": 116, "until": 541.1815080833336}, {"on": true, "note": 67, "velocity": 116, "until": 541.5844380833335}, {"on": false, "note": 67, "velocity": 0, "until": 541.5844380833335}, {"on": false, "note": 64, "velocity": 0, "until": 541.6208533500001}, {"on": true, "note": 66, "velocity": 116, "until": 541.6208533500001}, {"on": true, "note": 63, "velocity": 116, "until": 541.8277493500002}, {"on": false, "note": 66, "velocity": 0, "until": 541.8277493500002}, {"on": true, "note": 67, "velocity": 101, "until": 541.9311973500003}, {"on": false, "note": 67, "velocity": 0, "until": 541.9311973500003}, {"on": true, "note": 69, "velocity": 101, "until": 542.0001626833337}, {"on": false, "note": 69, "velocity": 0, "until": 542.0001626833337}, {"on": false, "note": 63, "velocity": 0, "until": 542.0347813000004}, {"on": true, "note": 67, "velocity": 116, "until": 542.0347813000004}, {"on": true, "note": 64, "velocity": 116, "until": 542.4290451333338}, {"on": false, "note": 64, "velocity": 0, "until": 542.4290451333338}, {"on": false, "note": 67, "velocity": 0, "until": 542.4647395000006}, {"on": true, "note": 63, "velocity": 116, "until": 542.4647395000006}, {"on": true, "note": 66, "velocity": 116, "until": 542.6709245000009}, {"on": false, "note": 66, "velocity": 0, "until": 542.6709245000009}, {"on": true, "note": 67, "velocity": 101, "until": 542.774017000001}, {"on": false, "note": 67, "velocity": 0, "until": 542.774017000001}, {"on": true, "note": 69, "velocity": 101, "until": 542.8427453333344}, {"on": false, "note": 69, "velocity": 0, "until": 542.8427453333344}, {"on": false, "note": 63, "velocity": 0, "until": 542.8772445000012}, {"on": true, "note": 67, "velocity": 116, "until": 542.8772445000012}, {"on": true, "note": 64, "velocity": 116, "until": 543.2701003333348}, {"on": false, "note": 64, "velocity": 0, "until": 543.2701003333348}, {"on": false, "note": 67, "velocity": 0, "until": 543.3056560500015}, {"on": true, "note": 64, "velocity": 116, "until": 543.3056560500015}, {"on": true, "note": 66, "velocity": 116, "until": 543.5104340500017}, {"on": false, "note": 66, "velocity": 0, "until": 543.5104340500017}, {"on": true, "note": 67, "velocity": 101, "until": 543.6128230500017}, {"on": false, "note": 67, "velocity": 0, "until": 543.6128230500017}, {"on": true, "note": 69, "velocity": 101, "until": 543.681082383335}, {"on": false, "note": 69, "velocity": 0, "until": 543.681082383335}, {"on": false, "note": 64, "velocity": 0, "until": 543.7153705000019}, {"on": true, "note": 64, "velocity": 101, "until": 543.7153705000019}, {"on": true, "note": 67, "velocity": 101, "until": 544.1437820500021}, {"on": false, "note": 67, "velocity": 0, "until": 544.1437820500021}, {"on": false, "note": 64, "velocity": 0, "until": 544.5534965000024}, {"on": true, "note": 81, "velocity": 101, "until": 544.5534965000024}, {"on": true, "note": 69, "velocity": 101, "until": 544.9819080500029}, {"on": false, "note": 69, "velocity": 0, "until": 544.9819080500029}, {"on": false, "note": 81, "velocity": 0, "until": 545.3916225000032}, {"on": true, "note": 81, "velocity": 101, "until": 545.3916225000032}, {"on": true, "note": 69, "velocity": 101, "until": 545.8200340500036}, {"on": false, "note": 69, "velocity": 0, "until": 545.8200340500036}, {"on": false, "note": 81, "velocity": 0, "until": 546.2297485000039}, {"on": true, "note": 81, "velocity": 101, "until": 546.2297485000039}, {"on": true, "note": 69, "velocity": 101, "until": 546.6581600500043}, {"on": false, "note": 69, "velocity": 0, "until": 546.6581600500043}, {"on": false, "note": 81, "velocity": 0, "until": 547.0678745000047}, {"on": true, "note": 81, "velocity": 101, "until": 547.0678745000047}, {"on": true, "note": 69, "velocity": 101, "until": 547.4962860500051}, {"on": false, "note": 69, "velocity": 0, "until": 547.4962860500051}, {"on": false, "note": 81, "velocity": 0, "until": 547.9060005000053}, {"on": true, "note": 71, "velocity": 116, "until": 547.9060005000053}, {"on": true, "note": 74, "velocity": 116, "until": 549.582252500008}, {"on": false, "note": 74, "velocity": 0, "until": 549.582252500008}, {"on": false, "note": 71, "velocity": 0, "until": 549.582252500008}, {"on": true, "note": 71, "velocity": 101, "until": 549.582252500008}, {"on": true, "note": 74, "velocity": 101, "until": 550.4203785000104}, {"on": false, "note": 74, "velocity": 0, "until": 550.4203785000104}, {"on": false, "note": 71, "velocity": 0, "until": 550.4203785000104}, {"on": true, "note": 74, "velocity": 101, "until": 550.4203785000104}, {"on": true, "note": 71, "velocity": 101, "until": 551.2585045000128}, {"on": false, "note": 71, "velocity": 0, "until": 551.2585045000128}, {"on": false, "note": 74, "velocity": 0, "until": 551.2585045000128}, {"on": true, "note": 71, "velocity": 101, "until": 551.2585045000128}, {"on": true, "note": 74, "velocity": 101, "until": 552.9347565000163}, {"on": false, "note": 74, "velocity": 0, "until": 552.9347565000163}, {"on": false, "note": 71, "velocity": 0, "until": 552.9347565000163}, {"on": true, "note": 74, "velocity": 101, "until": 552.9347565000163}, {"on": true, "note": 71, "velocity": 101, "until": 553.7728825000187}, {"on": false, "note": 71, "velocity": 0, "until": 553.7728825000187}, {"on": false, "note": 74, "velocity": 0, "until": 553.7728825000187}, {"on": true, "note": 74, "velocity": 101, "until": 553.7728825000187}, {"on": true, "note": 71, "velocity": 101, "until": 554.6110085000211}, {"on": false, "note": 71, "velocity": 0, "until": 554.6110085000211}, {"on": false, "note": 74, "velocity": 0, "until": 554.6110085000211}, {"on": true, "note": 71, "velocity": 101, "until": 554.6110085000211}, {"on": true, "note": 75, "velocity": 101, "until": 556.2872605000243}, {"on": false, "note": 71, "velocity": 0, "until": 556.2872605000243}, {"on": true, "note": 72, "velocity": 101, "until": 557.1253865000255}, {"on": false, "note": 72, "velocity": 0, "until": 557.1253865000255}, {"on": true, "note": 73, "velocity": 101, "until": 557.9635125000266}, {"on": false, "note": 73, "velocity": 0, "until": 557.9635125000266}, {"on": false, "note": 75, "velocity": 0, "until": 557.9635125000266}, {"on": true, "note": 75, "velocity": 101, "until": 557.9635125000266}, {"on": true, "note": 72, "velocity": 101, "until": 558.1777975000268}, {"on": false, "note": 72, "velocity": 0, "until": 558.1777975000268}, {"on": false, "note": 75, "velocity": 0, "until": 558.8016385000271}, {"on": true, "note": 75, "velocity": 101, "until": 558.8016385000271}, {"on": true, "note": 72, "velocity": 101, "until": 559.0159235000276}, {"on": false, "note": 72, "velocity": 0, "until": 559.0159235000276}, {"on": false, "note": 75, "velocity": 0, "until": 559.6397645000279}, {"on": true, "note": 76, "velocity": 101, "until": 559.6397645000279}, {"on": true, "note": 72, "velocity": 101, "until": 559.8540495000284}, {"on": false, "note": 72, "velocity": 0, "until": 559.8540495000284}, {"on": false, "note": 76, "velocity": 0, "until": 560.4778905000287}, {"on": true, "note": 71, "velocity": 101, "until": 560.4778905000287}, {"on": true, "note": 74, "velocity": 101, "until": 560.692770750029}, {"on": false, "note": 74, "velocity": 0, "until": 560.692770750029}, {"on": false, "note": 71, "velocity": 0, "until": 561.3916135000293}, {"on": true, "note": 71, "velocity": 116, "until": 561.3916135000293}, {"on": true, "note": 75, "velocity": 116, "until": 563.0678655000318}, {"on": false, "note": 71, "velocity": 0, "until": 563.0678655000318}, {"on": true, "note": 72, "velocity": 101, "until": 563.9059915000329}, {"on": false, "note": 72, "velocity": 0, "until": 563.9059915000329}, {"on": true, "note": 73, "velocity": 101, "until": 564.744117500034}, {"on": false, "note": 73, "velocity": 0, "until": 564.744117500034}, {"on": false, "note": 75, "velocity": 0, "until": 564.744117500034}, {"on": true, "note": 75, "velocity": 101, "until": 564.744117500034}, {"on": true, "note": 72, "velocity": 101, "until": 564.9584025000343}, {"on": false, "note": 72, "velocity": 0, "until": 564.9584025000343}, {"on": false, "note": 75, "velocity": 0, "until": 565.5822435000346}, {"on": true, "note": 75, "velocity": 101, "until": 565.5822435000346}, {"on": true, "note": 72, "velocity": 101, "until": 565.796528500035}, {"on": false, "note": 72, "velocity": 0, "until": 565.796528500035}, {"on": false, "note": 75, "velocity": 0, "until": 566.4204212667019}, {"on": true, "note": 76, "velocity": 101, "until": 566.4204212667019}, {"on": true, "note": 72, "velocity": 101, "until": 566.6378122667014}, {"on": false, "note": 72, "velocity": 0, "until": 566.6378122667014}, {"on": false, "note": 76, "velocity": 0, "until": 567.2735442333677}, {"on": true, "note": 71, "velocity": 101, "until": 567.2735442333677}, {"on": true, "note": 74, "velocity": 101, "until": 567.5129670833683}, {"on": false, "note": 74, "velocity": 0, "until": 567.5129670833683}, {"on": false, "note": 71, "velocity": 0, "until": 568.705164500035}, {"on": true, "note": 67, "velocity": 101, "until": 568.8123070000352}, {"on": false, "note": 67, "velocity": 0, "until": 568.9194495000353}, {"on": true, "note": 67, "velocity": 101, "until": 569.0265920000354}, {"on": false, "note": 67, "velocity": 0, "until": 569.1335760500355}, {"on": true, "note": 67, "velocity": 101, "until": 569.2359650500355}, {"on": false, "note": 67, "velocity": 0, "until": 569.3383540500355}, {"on": true, "note": 67, "velocity": 101, "until": 569.4407430500355}, {"on": false, "note": 67, "velocity": 0, "until": 569.5432905000356}, {"on": true, "note": 67, "velocity": 101, "until": 569.9717020500357}, {"on": false, "note": 67, "velocity": 0, "until": 572.0576685000366}, {"on": true, "note": 67, "velocity": 101, "until": 572.1648110000367}, {"on": false, "note": 67, "velocity": 0, "until": 572.2719535000368}, {"on": true, "note": 67, "velocity": 101, "until": 572.379096000037}, {"on": false, "note": 67, "velocity": 0, "until": 572.486080050037}, {"on": true, "note": 67, "velocity": 101, "until": 572.588469050037}, {"on": false, "note": 67, "velocity": 0, "until": 572.690858050037}, {"on": true, "note": 67, "velocity": 101, "until": 572.793247050037}, {"on": false, "note": 67, "velocity": 0, "until": 572.8957945000371}, {"on": true, "note": 67, "velocity": 101, "until": 573.3242060500372}, {"on": false, "note": 67, "velocity": 0, "until": 575.4101725000381}, {"on": true, "note": 67, "velocity": 101, "until": 575.5173150000383}, {"on": false, "note": 67, "velocity": 0, "until": 575.6244575000384}, {"on": true, "note": 67, "velocity": 101, "until": 575.7316000000385}, {"on": false, "note": 67, "velocity": 0, "until": 575.8385840500385}, {"on": true, "note": 67, "velocity": 101, "until": 575.9409730500386}, {"on": false, "note": 67, "velocity": 0, "until": 576.0433620500386}, {"on": true, "note": 67, "velocity": 101, "until": 576.1457510500386}, {"on": false, "note": 67, "velocity": 0, "until": 576.2482985000387}, {"on": true, "note": 67, "velocity": 101, "until": 576.3554410000388}, {"on": false, "note": 67, "velocity": 0, "until": 576.4625835000389}, {"on": true, "note": 67, "velocity": 101, "until": 576.569726000039}, {"on": false, "note": 67, "velocity": 0, "until": 576.6767100500391}, {"on": true, "note": 67, "velocity": 101, "until": 576.7790990500391}, {"on": false, "note": 67, "velocity": 0, "until": 576.8814880500391}, {"on": true, "note": 67, "velocity": 101, "until": 576.9838770500393}, {"on": false, "note": 67, "velocity": 0, "until": 577.0864245000395}, {"on": true, "note": 67, "velocity": 101, "until": 577.1935670000398}, {"on": false, "note": 67, "velocity": 0, "until": 577.3007095000403}, {"on": true, "note": 67, "velocity": 101, "until": 577.4078520000406}, {"on": false, "note": 67, "velocity": 0, "until": 577.514836050041}, {"on": true, "note": 67, "velocity": 101, "until": 577.6172250500412}, {"on": false, "note": 67, "velocity": 0, "until": 577.7196140500413}, {"on": true, "note": 67, "velocity": 101, "until": 577.8220030500414}, {"on": false, "note": 67, "velocity": 0, "until": 577.9245505000415}, {"on": true, "note": 67, "velocity": 101, "until": 578.031693000042}, {"on": false, "note": 67, "velocity": 0, "until": 578.1388355000423}, {"on": true, "note": 67, "velocity": 101, "until": 578.2459780000428}, {"on": false, "note": 67, "velocity": 0, "until": 578.3529620500431}, {"on": true, "note": 67, "velocity": 101, "until": 578.4553510500431}, {"on": false, "note": 67, "velocity": 0, "until": 580.4389285000448}, {"on": true, "note": 64, "velocity": 101, "until": 580.4389285000448}, {"on": true, "note": 67, "velocity": 101, "until": 580.621070750045}, {"on": false, "note": 67, "velocity": 0, "until": 580.621070750045}, {"on": false, "note": 64, "velocity": 0, "until": 580.6532135000451}, {"on": true, "note": 62, "velocity": 101, "until": 580.6532135000451}, {"on": true, "note": 67, "velocity": 101, "until": 580.8353557500454}, {"on": false, "note": 67, "velocity": 0, "until": 580.8353557500454}, {"on": false, "note": 62, "velocity": 0, "until": 580.8673400500455}, {"on": true, "note": 64, "velocity": 101, "until": 580.8673400500455}, {"on": true, "note": 67, "velocity": 101, "until": 581.0414013500457}, {"on": false, "note": 67, "velocity": 0, "until": 581.0414013500457}, {"on": false, "note": 64, "velocity": 0, "until": 581.0721180500457}, {"on": true, "note": 62, "velocity": 101, "until": 581.0721180500457}, {"on": true, "note": 67, "velocity": 101, "until": 581.2461793500458}, {"on": false, "note": 67, "velocity": 0, "until": 581.2461793500458}, {"on": false, "note": 62, "velocity": 0, "until": 581.2770545000459}, {"on": true, "note": 64, "velocity": 101, "until": 581.2770545000459}, {"on": true, "note": 67, "velocity": 101, "until": 581.4591967500462}, {"on": false, "note": 67, "velocity": 0, "until": 581.4591967500462}, {"on": false, "note": 64, "velocity": 0, "until": 581.4913395000464}, {"on": true, "note": 62, "velocity": 101, "until": 581.4913395000464}, {"on": true, "note": 67, "velocity": 101, "until": 581.6734817500467}, {"on": false, "note": 67, "velocity": 0, "until": 581.6734817500467}, {"on": false, "note": 62, "velocity": 0, "until": 581.7054660500468}, {"on": true, "note": 64, "velocity": 101, "until": 581.7054660500468}, {"on": true, "note": 67, "velocity": 101, "until": 581.8795273500469}, {"on": false, "note": 67, "velocity": 0, "until": 581.8795273500469}, {"on": false, "note": 64, "velocity": 0, "until": 581.9102440500469}, {"on": true, "note": 62, "velocity": 101, "until": 581.9102440500469}, {"on": true, "note": 67, "velocity": 101, "until": 582.0843053500471}, {"on": false, "note": 67, "velocity": 0, "until": 582.0843053500471}, {"on": false, "note": 62, "velocity": 0, "until": 582.1150573500471}, {"on": true, "note": 67, "velocity": 101, "until": 582.1150573500471}, {"on": true, "note": 64, "velocity": 101, "until": 582.3219533500471}, {"on": false, "note": 64, "velocity": 0, "until": 582.3219533500471}, {"on": false, "note": 67, "velocity": 0, "until": 583.0289598000472}, {"on": true, "note": 64, "velocity": 101, "until": 583.0289598000472}, {"on": true, "note": 72, "velocity": 101, "until": 583.2424828000474}, {"on": false, "note": 72, "velocity": 0, "until": 583.2424828000474}, {"on": false, "note": 64, "velocity": 0, "until": 584.0001724167142}, {"on": true, "note": 67, "velocity": 101, "until": 584.0001724167142}, {"on": true, "note": 60, "velocity": 101, "until": 584.5688924167143}, {"on": false, "note": 60, "velocity": 0, "until": 584.5688924167143}]}, {"id": 3, "states": [{"on": true, "note": 48, "velocity": 100, "until": 0}, {"on": false, "note": 0, "velocity": 0, "until": 4.829999999999983}, {"on": false, "note": 48, "velocity": 0, "until": 4.829999999999983}, {"on": true, "note": 48, "velocity": 100, "until": 4.929999999999982}, {"on": false, "note": 48, "velocity": 0, "until": 4.929999999999982}, {"on": true, "note": 50, "velocity": 100, "until": 5.029999999999981}, {"on": false, "note": 50, "velocity": 0, "until": 5.029999999999981}, {"on": true, "note": 52, "velocity": 100, "until": 5.1299999999999795}, {"on": false, "note": 52, "velocity": 0, "until": 5.1299999999999795}, {"on": true, "note": 53, "velocity": 100, "until": 5.229999999999978}, {"on": false, "note": 53, "velocity": 0, "until": 5.229999999999978}, {"on": true, "note": 55, "velocity": 100, "until": 5.329999999999977}, {"on": false, "note": 55, "velocity": 0, "until": 5.329999999999977}, {"on": true, "note": 57, "velocity": 100, "until": 5.431914874999977}, {"on": false, "note": 57, "velocity": 0, "until": 5.431914874999977}, {"on": true, "note": 58, "velocity": 100, "until": 6.197871874999979}, {"on": false, "note": 58, "velocity": 0, "until": 6.70850987499998}, {"on": true, "note": 57, "velocity": 100, "until": 7.474466874999981}, {"on": false, "note": 57, "velocity": 0, "until": 9.69747499999999}, {"on": true, "note": 48, "velocity": 100, "until": 12.697474999999969}, {"on": false, "note": 48, "velocity": 0, "until": 12.697474999999969}, {"on": true, "note": 48, "velocity": 100, "until": 12.817474999999968}, {"on": false, "note": 48, "velocity": 0, "until": 12.817474999999968}, {"on": true, "note": 50, "velocity": 100, "until": 12.937474999999965}, {"on": false, "note": 50, "velocity": 0, "until": 12.937474999999965}, {"on": true, "note": 52, "velocity": 100, "until": 13.057474999999963}, {"on": false, "note": 52, "velocity": 0, "until": 13.057474999999963}, {"on": true, "note": 53, "velocity": 100, "until": 13.177474999999962}, {"on": false, "note": 53, "velocity": 0, "until": 13.177474999999962}, {"on": true, "note": 55, "velocity": 100, "until": 13.300808324999961}, {"on": false, "note": 55, "velocity": 0, "until": 13.300808324999961}, {"on": true, "note": 56, "velocity": 100, "until": 14.100808124999958}, {"on": false, "note": 56, "velocity": 0, "until": 14.634141324999957}, {"on": true, "note": 55, "velocity": 100, "until": 15.434141124999954}, {"on": false, "note": 55, "velocity": 0, "until": 23.991870225000046}, {"on": true, "note": 53, "velocity": 100, "until": 25.219080325000057}, {"on": false, "note": 53, "velocity": 0, "until": 25.219080325000057}, {"on": true, "note": 55, "velocity": 100, "until": 28.95168867500009}, {"on": false, "note": 55, "velocity": 0, "until": 28.95168867500009}, {"on": true, "note": 60, "velocity": 100, "until": 28.95168867500009}, {"on": true, "note": 64, "velocity": 100, "until": 29.929948925000083}, {"on": false, "note": 64, "velocity": 0, "until": 29.929948925000083}, {"on": false, "note": 60, "velocity": 0, "until": 29.929948925000083}, {"on": true, "note": 62, "velocity": 100, "until": 29.929948925000083}, {"on": true, "note": 65, "velocity": 100, "until": 30.253427000000087}, {"on": false, "note": 65, "velocity": 0, "until": 30.253427000000087}, {"on": false, "note": 62, "velocity": 0, "until": 30.253427000000087}, {"on": true, "note": 67, "velocity": 100, "until": 30.253427000000087}, {"on": true, "note": 64, "velocity": 100, "until": 30.853427000000096}, {"on": false, "note": 64, "velocity": 0, "until": 30.853427000000096}, {"on": false, "note": 67, "velocity": 0, "until": 31.453427000000104}, {"on": true, "note": 62, "velocity": 100, "until": 31.453427000000104}, {"on": true, "note": 65, "velocity": 100, "until": 32.05342700000017}, {"on": false, "note": 65, "velocity": 0, "until": 32.05342700000017}, {"on": false, "note": 62, "velocity": 0, "until": 32.65603567500017}, {"on": true, "note": 60, "velocity": 100, "until": 32.65603567500017}, {"on": true, "note": 64, "velocity": 100, "until": 33.63429592500015}, {"on": false, "note": 64, "velocity": 0, "until": 33.63429592500015}, {"on": false, "note": 60, "velocity": 0, "until": 33.63429592500015}, {"on": true, "note": 62, "velocity": 100, "until": 33.63429592500015}, {"on": true, "note": 65, "velocity": 100, "until": 33.95777400000015}, {"on": false, "note": 65, "velocity": 0, "until": 33.95777400000015}, {"on": false, "note": 62, "velocity": 0, "until": 33.95777400000015}, {"on": true, "note": 67, "velocity": 100, "until": 33.95777400000015}, {"on": true, "note": 64, "velocity": 100, "until": 34.55777400000014}, {"on": false, "note": 64, "velocity": 0, "until": 34.55777400000014}, {"on": false, "note": 67, "velocity": 0, "until": 35.159688875000136}, {"on": true, "note": 62, "velocity": 100, "until": 35.159688875000136}, {"on": true, "note": 65, "velocity": 100, "until": 35.8055451750001}, {"on": false, "note": 65, "velocity": 0, "until": 35.8055451750001}, {"on": false, "note": 62, "velocity": 0, "until": 36.590428700000096}, {"on": true, "note": 64, "velocity": 100, "until": 36.590428700000096}, {"on": true, "note": 60, "velocity": 100, "until": 37.63693970000014}, {"on": false, "note": 60, "velocity": 0, "until": 37.63693970000014}, {"on": false, "note": 64, "velocity": 0, "until": 37.63693970000014}, {"on": true, "note": 62, "velocity": 100, "until": 37.63693970000014}, {"on": true, "note": 65, "velocity": 100, "until": 37.98350167500014}, {"on": false, "note": 65, "velocity": 0, "until": 37.98350167500014}, {"on": false, "note": 62, "velocity": 0, "until": 37.98350167500014}, {"on": true, "note": 67, "velocity": 100, "until": 37.98350167500014}, {"on": true, "note": 63, "velocity": 100, "until": 38.63567517500013}, {"on": false, "note": 63, "velocity": 0, "until": 38.63567517500013}, {"on": false, "note": 67, "velocity": 0, "until": 44.25526067500016}, {"on": true, "note": 53, "velocity": 100, "until": 44.25526067500016}, {"on": true, "note": 50, "velocity": 100, "until": 45.23352092500016}, {"on": false, "note": 50, "velocity": 0, "until": 45.23352092500016}, {"on": false, "note": 53, "velocity": 0, "until": 45.23352092500016}, {"on": true, "note": 55, "velocity": 100, "until": 45.23352092500016}, {"on": true, "note": 51, "velocity": 100, "until": 45.556999000000154}, {"on": false, "note": 51, "velocity": 0, "until": 45.556999000000154}, {"on": false, "note": 55, "velocity": 0, "until": 45.556999000000154}, {"on": true, "note": 56, "velocity": 100, "until": 45.556999000000154}, {"on": true, "note": 53, "velocity": 100, "until": 45.806999000000154}, {"on": false, "note": 53, "velocity": 0, "until": 45.806999000000154}, {"on": false, "note": 56, "velocity": 0, "until": 45.956999000000145}, {"on": true, "note": 56, "velocity": 100, "until": 45.956999000000145}, {"on": true, "note": 53, "velocity": 100, "until": 46.20699900000015}, {"on": false, "note": 53, "velocity": 0, "until": 46.20699900000015}, {"on": false, "note": 56, "velocity": 0, "until": 46.356999000000144}, {"on": true, "note": 56, "velocity": 100, "until": 46.356999000000144}, {"on": true, "note": 53, "velocity": 100, "until": 46.60699900000014}, {"on": false, "note": 53, "velocity": 0, "until": 46.60699900000014}, {"on": false, "note": 56, "velocity": 0, "until": 46.75699900000013}, {"on": true, "note": 53, "velocity": 100, "until": 46.75699900000013}, {"on": true, "note": 56, "velocity": 100, "until": 47.00699900000013}, {"on": false, "note": 56, "velocity": 0, "until": 47.00699900000013}, {"on": false, "note": 53, "velocity": 0, "until": 47.15699900000012}, {"on": true, "note": 56, "velocity": 100, "until": 47.15699900000012}, {"on": true, "note": 53, "velocity": 100, "until": 47.40699900000013}, {"on": false, "note": 53, "velocity": 0, "until": 47.40699900000013}, {"on": false, "note": 56, "velocity": 0, "until": 47.55699900000012}, {"on": true, "note": 56, "velocity": 100, "until": 47.55699900000012}, {"on": true, "note": 53, "velocity": 100, "until": 47.80699900000011}, {"on": false, "note": 53, "velocity": 0, "until": 47.80699900000011}, {"on": false, "note": 56, "velocity": 0, "until": 47.95960767500011}, {"on": true, "note": 51, "velocity": 100, "until": 47.95960767500011}, {"on": true, "note": 55, "velocity": 100, "until": 48.6117811750001}, {"on": false, "note": 55, "velocity": 0, "until": 48.6117811750001}, {"on": false, "note": 51, "velocity": 0, "until": 51.663954675000085}, {"on": true, "note": 53, "velocity": 100, "until": 51.663954675000085}, {"on": true, "note": 50, "velocity": 100, "until": 52.64221492500008}, {"on": false, "note": 50, "velocity": 0, "until": 52.64221492500008}, {"on": false, "note": 53, "velocity": 0, "until": 52.64221492500008}, {"on": true, "note": 55, "velocity": 100, "until": 52.64221492500008}, {"on": true, "note": 51, "velocity": 100, "until": 52.96569300000008}, {"on": false, "note": 51, "velocity": 0, "until": 52.96569300000008}, {"on": false, "note": 55, "velocity": 0, "until": 52.96569300000008}, {"on": true, "note": 53, "velocity": 100, "until": 52.96569300000008}, {"on": true, "note": 56, "velocity": 100, "until": 53.21569300000008}, {"on": false, "note": 56, "velocity": 0, "until": 53.21569300000008}, {"on": false, "note": 53, "velocity": 0, "until": 53.36569300000007}, {"on": true, "note": 53, "velocity": 100, "until": 53.36569300000007}, {"on": true, "note": 56, "velocity": 100, "until": 53.61569300000008}, {"on": false, "note": 56, "velocity": 0, "until": 53.61569300000008}, {"on": false, "note": 53, "velocity": 0, "until": 53.76569300000007}, {"on": true, "note": 53, "velocity": 100, "until": 53.76569300000007}, {"on": true, "note": 56, "velocity": 100, "until": 54.01569300000006}, {"on": false, "note": 56, "velocity": 0, "until": 54.01569300000006}, {"on": false, "note": 53, "velocity": 0, "until": 54.165693000000054}, {"on": true, "note": 53, "velocity": 100, "until": 54.165693000000054}, {"on": true, "note": 56, "velocity": 100, "until": 54.415693000000054}, {"on": false, "note": 56, "velocity": 0, "until": 54.415693000000054}, {"on": false, "note": 53, "velocity": 0, "until": 54.565693000000046}, {"on": true, "note": 53, "velocity": 100, "until": 54.565693000000046}, {"on": true, "note": 56, "velocity": 100, "until": 54.81569300000005}, {"on": false, "note": 56, "velocity": 0, "until": 54.81569300000005}, {"on": false, "note": 53, "velocity": 0, "until": 54.965693000000044}, {"on": true, "note": 53, "velocity": 100, "until": 54.965693000000044}, {"on": true, "note": 56, "velocity": 100, "until": 55.21569300000004}, {"on": false, "note": 56, "velocity": 0, "until": 55.21569300000004}, {"on": false, "note": 53, "velocity": 0, "until": 55.36830167500003}, {"on": true, "note": 55, "velocity": 100, "until": 55.36830167500003}, {"on": true, "note": 51, "velocity": 100, "until": 56.02047517500002}, {"on": false, "note": 51, "velocity": 0, "until": 56.02047517500002}, {"on": false, "note": 55, "velocity": 0, "until": 59.15032123333331}, {"on": true, "note": 65, "velocity": 100, "until": 59.15032123333331}, {"on": true, "note": 62, "velocity": 100, "until": 59.832139233333216}, {"on": false, "note": 62, "velocity": 0, "until": 59.832139233333216}, {"on": false, "note": 65, "velocity": 0, "until": 62.9790732333332}, {"on": true, "note": 60, "velocity": 100, "until": 62.9790732333332}, {"on": true, "note": 63, "velocity": 100, "until": 63.66089123333311}, {"on": false, "note": 63, "velocity": 0, "until": 63.66089123333311}, {"on": false, "note": 60, "velocity": 0, "until": 66.80634300833316}, {"on": true, "note": 44, "velocity": 100, "until": 66.80634300833316}, {"on": true, "note": 56, "velocity": 100, "until": 67.45851650833345}, {"on": false, "note": 56, "velocity": 0, "until": 67.45851650833345}, {"on": false, "note": 44, "velocity": 0, "until": 71.96291550000007}, {"on": true, "note": 61, "velocity": 80, "until": 72.37958216666674}, {"on": false, "note": 61, "velocity": 0, "until": 72.37958216666674}, {"on": true, "note": 57, "velocity": 84, "until": 72.79624883333341}, {"on": false, "note": 57, "velocity": 0, "until": 72.79624883333341}, {"on": true, "note": 58, "velocity": 88, "until": 73.21499882500008}, {"on": false, "note": 58, "velocity": 0, "until": 73.21499882500008}, {"on": true, "note": 61, "velocity": 92, "until": 73.65944315833342}, {"on": false, "note": 61, "velocity": 0, "until": 73.65944315833342}, {"on": true, "note": 65, "velocity": 96, "until": 74.10388749166675}, {"on": false, "note": 65, "velocity": 0, "until": 74.10388749166675}, {"on": true, "note": 61, "velocity": 100, "until": 74.54988220000007}, {"on": false, "note": 61, "velocity": 0, "until": 74.54988220000007}, {"on": true, "note": 60, "velocity": 100, "until": 75.01499820000005}, {"on": false, "note": 60, "velocity": 0, "until": 75.01499820000005}, {"on": true, "note": 63, "velocity": 100, "until": 75.48011420000003}, {"on": false, "note": 63, "velocity": 0, "until": 75.48011420000003}, {"on": true, "note": 63, "velocity": 100, "until": 75.86383490000003}, {"on": false, "note": 63, "velocity": 0, "until": 75.94295517500005}, {"on": true, "note": 63, "velocity": 100, "until": 78.55392420000014}, {"on": false, "note": 63, "velocity": 0, "until": 78.55392420000014}, {"on": true, "note": 56, "velocity": 100, "until": 79.94699717500015}, {"on": false, "note": 56, "velocity": 0, "until": 79.94699717500015}, {"on": true, "note": 44, "velocity": 100, "until": 79.94699717500015}, {"on": true, "note": 56, "velocity": 100, "until": 81.14264859166707}, {"on": false, "note": 56, "velocity": 0, "until": 81.14264859166707}, {"on": false, "note": 44, "velocity": 0, "until": 81.25134417500044}, {"on": true, "note": 56, "velocity": 100, "until": 81.25134417500044}, {"on": true, "note": 44, "velocity": 100, "until": 82.44699559166736}, {"on": false, "note": 44, "velocity": 0, "until": 82.44699559166736}, {"on": false, "note": 56, "velocity": 0, "until": 82.55569117500075}, {"on": true, "note": 43, "velocity": 100, "until": 82.55569117500075}, {"on": true, "note": 55, "velocity": 100, "until": 85.00742950000125}, {"on": false, "note": 55, "velocity": 0, "until": 85.00742950000125}, {"on": false, "note": 43, "velocity": 0, "until": 85.05742950000126}, {"on": true, "note": 55, "velocity": 100, "until": 85.05742950000126}, {"on": true, "note": 43, "velocity": 100, "until": 86.33622850833461}, {"on": false, "note": 43, "velocity": 0, "until": 86.33622850833461}, {"on": false, "note": 55, "velocity": 0, "until": 86.33622850833461}, {"on": true, "note": 48, "velocity": 100, "until": 87.63796683333481}, {"on": false, "note": 48, "velocity": 0, "until": 95.1773965000017}, {"on": true, "note": 56, "velocity": 100, "until": 95.42739650000175}, {"on": false, "note": 56, "velocity": 0, "until": 95.57739650000178}, {"on": true, "note": 56, "velocity": 100, "until": 95.82739650000184}, {"on": false, "note": 56, "velocity": 0, "until": 95.97739650000187}, {"on": true, "note": 56, "velocity": 100, "until": 96.22739650000193}, {"on": false, "note": 56, "velocity": 0, "until": 96.37739650000196}, {"on": true, "note": 56, "velocity": 100, "until": 96.627396500002}, {"on": false, "note": 56, "velocity": 0, "until": 96.77739650000204}, {"on": true, "note": 56, "velocity": 100, "until": 97.02739650000206}, {"on": false, "note": 56, "velocity": 0, "until": 97.17739650000208}, {"on": true, "note": 56, "velocity": 100, "until": 97.44151412500209}, {"on": false, "note": 56, "velocity": 0, "until": 97.65059330000213}, {"on": true, "note": 55, "velocity": 100, "until": 101.50508640000241}, {"on": false, "note": 55, "velocity": 0, "until": 101.50508640000241}, {"on": true, "note": 48, "velocity": 60, "until": 102.86112076666906}, {"on": false, "note": 48, "velocity": 0, "until": 105.42118749166904}, {"on": true, "note": 52, "velocity": 90, "until": 105.42118749166904}, {"on": true, "note": 67, "velocity": 90, "until": 108.11860746666906}, {"on": false, "note": 67, "velocity": 0, "until": 108.11860746666906}, {"on": false, "note": 52, "velocity": 0, "until": 108.11860746666906}, {"on": true, "note": 65, "velocity": 84, "until": 108.11860746666906}, {"on": true, "note": 59, "velocity": 84, "until": 109.47617619166905}, {"on": false, "note": 59, "velocity": 0, "until": 109.47617619166905}, {"on": false, "note": 65, "velocity": 0, "until": 109.47617619166905}, {"on": true, "note": 64, "velocity": 84, "until": 109.47617619166905}, {"on": true, "note": 60, "velocity": 84, "until": 110.96264756666903}, {"on": false, "note": 60, "velocity": 0, "until": 110.96264756666903}, {"on": false, "note": 64, "velocity": 0, "until": 127.5964040083355}, {"on": true, "note": 60, "velocity": 90, "until": 127.5964040083355}, {"on": true, "note": 48, "velocity": 90, "until": 128.0372186083355}, {"on": false, "note": 48, "velocity": 0, "until": 128.0372186083355}, {"on": false, "note": 60, "velocity": 0, "until": 128.08584480833554}, {"on": true, "note": 48, "velocity": 90, "until": 128.08584480833554}, {"on": true, "note": 60, "velocity": 90, "until": 128.50122900833557}, {"on": false, "note": 60, "velocity": 0, "until": 128.50122900833557}, {"on": false, "note": 48, "velocity": 0, "until": 128.54773600833556}, {"on": true, "note": 60, "velocity": 90, "until": 128.54773600833556}, {"on": true, "note": 48, "velocity": 90, "until": 129.03717680833557}, {"on": false, "note": 48, "velocity": 0, "until": 129.03717680833557}, {"on": false, "note": 60, "velocity": 0, "until": 131.40060600833536}, {"on": true, "note": 60, "velocity": 90, "until": 131.40060600833536}, {"on": true, "note": 48, "velocity": 90, "until": 131.89004680833537}, {"on": false, "note": 48, "velocity": 0, "until": 131.89004680833537}, {"on": false, "note": 60, "velocity": 0, "until": 131.89004680833537}, {"on": true, "note": 60, "velocity": 90, "until": 131.89004680833537}, {"on": true, "note": 48, "velocity": 90, "until": 132.35193800833537}, {"on": false, "note": 48, "velocity": 0, "until": 132.35193800833537}, {"on": false, "note": 60, "velocity": 0, "until": 132.35193800833537}, {"on": true, "note": 60, "velocity": 90, "until": 132.35193800833537}, {"on": true, "note": 48, "velocity": 90, "until": 132.84137880833538}, {"on": false, "note": 48, "velocity": 0, "until": 132.84137880833538}, {"on": false, "note": 60, "velocity": 0, "until": 133.30305308333539}, {"on": true, "note": 56, "velocity": 100, "until": 133.30305308333539}, {"on": true, "note": 59, "velocity": 100, "until": 133.42116308333541}, {"on": false, "note": 59, "velocity": 0, "until": 133.42116308333541}, {"on": false, "note": 56, "velocity": 0, "until": 133.53927308333544}, {"on": true, "note": 57, "velocity": 100, "until": 133.53927308333544}, {"on": true, "note": 60, "velocity": 100, "until": 133.65738308333547}, {"on": false, "note": 60, "velocity": 0, "until": 133.65738308333547}, {"on": false, "note": 57, "velocity": 0, "until": 133.7754930833355}, {"on": true, "note": 56, "velocity": 100, "until": 133.7754930833355}, {"on": true, "note": 59, "velocity": 100, "until": 133.89360308333553}, {"on": false, "note": 59, "velocity": 0, "until": 133.89360308333553}, {"on": false, "note": 56, "velocity": 0, "until": 134.01171308333556}, {"on": true, "note": 57, "velocity": 100, "until": 134.01171308333556}, {"on": true, "note": 60, "velocity": 100, "until": 134.1298230833356}, {"on": false, "note": 60, "velocity": 0, "until": 134.1298230833356}, {"on": false, "note": 57, "velocity": 0, "until": 134.24793308333562}, {"on": true, "note": 59, "velocity": 100, "until": 134.24793308333562}, {"on": true, "note": 56, "velocity": 100, "until": 134.720236808336}, {"on": false, "note": 56, "velocity": 0, "until": 134.720236808336}, {"on": false, "note": 59, "velocity": 0, "until": 136.42536500833603}, {"on": true, "note": 65, "velocity": 100, "until": 136.61311937500273}, {"on": false, "note": 65, "velocity": 0, "until": 136.6699088083361}, {"on": true, "note": 65, "velocity": 100, "until": 136.8468317083361}, {"on": false, "note": 65, "velocity": 0, "until": 136.90067780833613}, {"on": true, "note": 65, "velocity": 100, "until": 137.07760070833615}, {"on": false, "note": 65, "velocity": 0, "until": 137.13180000833614}, {"on": true, "note": 64, "velocity": 100, "until": 137.37669700833615}, {"on": false, "note": 64, "velocity": 0, "until": 138.3280290083362}, {"on": true, "note": 64, "velocity": 100, "until": 138.51578337500288}, {"on": false, "note": 64, "velocity": 0, "until": 138.57257280833625}, {"on": true, "note": 64, "velocity": 100, "until": 138.7494957083363}, {"on": false, "note": 64, "velocity": 0, "until": 138.80334180833634}, {"on": true, "note": 64, "velocity": 100, "until": 138.9802647083364}, {"on": false, "note": 64, "velocity": 0, "until": 139.03446400833639}, {"on": true, "note": 62, "velocity": 100, "until": 139.03446400833639}, {"on": true, "note": 55, "velocity": 100, "until": 139.15691250833638}, {"on": false, "note": 55, "velocity": 0, "until": 139.15691250833638}, {"on": false, "note": 62, "velocity": 0, "until": 139.2793610083364}, {"on": true, "note": 62, "velocity": 100, "until": 139.2793610083364}, {"on": true, "note": 59, "velocity": 100, "until": 139.7546738083365}, {"on": false, "note": 59, "velocity": 0, "until": 139.7546738083365}, {"on": false, "note": 62, "velocity": 0, "until": 139.7546738083365}, {"on": true, "note": 64, "velocity": 100, "until": 139.7546738083365}, {"on": true, "note": 60, "velocity": 100, "until": 139.98579600833648}, {"on": false, "note": 60, "velocity": 0, "until": 139.98579600833648}, {"on": false, "note": 64, "velocity": 0, "until": 139.98579600833648}, {"on": true, "note": 65, "velocity": 100, "until": 139.98579600833648}, {"on": true, "note": 62, "velocity": 100, "until": 140.10824450833647}, {"on": false, "note": 62, "velocity": 0, "until": 140.10824450833647}, {"on": false, "note": 65, "velocity": 0, "until": 140.2306930083365}, {"on": true, "note": 62, "velocity": 100, "until": 140.2306930083365}, {"on": true, "note": 59, "velocity": 100, "until": 140.70600580833658}, {"on": false, "note": 59, "velocity": 0, "until": 140.70600580833658}, {"on": false, "note": 62, "velocity": 0, "until": 140.70600580833658}, {"on": true, "note": 64, "velocity": 100, "until": 140.70600580833658}, {"on": true, "note": 60, "velocity": 100, "until": 140.93712800833657}, {"on": false, "note": 60, "velocity": 0, "until": 140.93712800833657}, {"on": false, "note": 64, "velocity": 0, "until": 140.93712800833657}, {"on": true, "note": 65, "velocity": 100, "until": 140.93712800833657}, {"on": true, "note": 62, "velocity": 100, "until": 141.05957650833656}, {"on": false, "note": 62, "velocity": 0, "until": 141.05957650833656}, {"on": false, "note": 65, "velocity": 0, "until": 141.18202500833658}, {"on": true, "note": 62, "velocity": 100, "until": 141.18202500833658}, {"on": true, "note": 59, "velocity": 100, "until": 141.65733780833668}, {"on": false, "note": 59, "velocity": 0, "until": 141.65733780833668}, {"on": false, "note": 62, "velocity": 0, "until": 141.65733780833668}, {"on": true, "note": 64, "velocity": 100, "until": 141.65733780833668}, {"on": true, "note": 60, "velocity": 100, "until": 141.88846000833666}, {"on": false, "note": 60, "velocity": 0, "until": 141.88846000833666}, {"on": false, "note": 64, "velocity": 0, "until": 141.88846000833666}, {"on": true, "note": 59, "velocity": 100, "until": 141.88846000833666}, {"on": true, "note": 62, "velocity": 100, "until": 142.1333570083367}, {"on": false, "note": 62, "velocity": 0, "until": 142.1333570083367}, {"on": false, "note": 59, "velocity": 0, "until": 146.47448980833673}, {"on": true, "note": 48, "velocity": 100, "until": 146.58987430833673}, {"on": false, "note": 48, "velocity": 0, "until": 146.70548958333677}, {"on": true, "note": 53, "velocity": 100, "until": 146.8254895833368}, {"on": false, "note": 53, "velocity": 0, "until": 146.94548958333684}, {"on": true, "note": 48, "velocity": 100, "until": 147.06548958333687}, {"on": false, "note": 48, "velocity": 0, "until": 147.1854895833369}, {"on": true, "note": 53, "velocity": 100, "until": 147.30548958333694}, {"on": false, "note": 53, "velocity": 0, "until": 147.42548958333697}, {"on": true, "note": 48, "velocity": 100, "until": 147.545489583337}, {"on": false, "note": 48, "velocity": 0, "until": 147.66548958333703}, {"on": true, "note": 53, "velocity": 100, "until": 148.14525880833733}, {"on": false, "note": 53, "velocity": 0, "until": 150.2604898083375}, {"on": true, "note": 55, "velocity": 100, "until": 150.3758743083375}, {"on": false, "note": 55, "velocity": 0, "until": 150.4913950833375}, {"on": true, "note": 60, "velocity": 100, "until": 150.60950508333752}, {"on": false, "note": 60, "velocity": 0, "until": 150.72761508333755}, {"on": true, "note": 55, "velocity": 100, "until": 150.84572508333758}, {"on": false, "note": 55, "velocity": 0, "until": 150.9638350833376}, {"on": true, "note": 60, "velocity": 100, "until": 151.08194508333764}, {"on": false, "note": 60, "velocity": 0, "until": 151.20005508333767}, {"on": true, "note": 55, "velocity": 100, "until": 151.3181650833377}, {"on": false, "note": 55, "velocity": 0, "until": 151.43627508333773}, {"on": true, "note": 60, "velocity": 100, "until": 151.67249508333776}, {"on": false, "note": 60, "velocity": 0, "until": 151.9085788083378}, {"on": true, "note": 55, "velocity": 100, "until": 152.3508860583378}, {"on": false, "note": 55, "velocity": 0, "until": 152.3704700083378}, {"on": true, "note": 52, "velocity": 100, "until": 152.8398559250045}, {"on": false, "note": 52, "velocity": 0, "until": 152.85991080833787}, {"on": true, "note": 54, "velocity": 100, "until": 153.30221805833787}, {"on": false, "note": 54, "velocity": 0, "until": 153.32180200833787}, {"on": true, "note": 55, "velocity": 100, "until": 153.79118792500458}, {"on": false, "note": 55, "velocity": 0, "until": 153.81124280833794}, {"on": true, "note": 43, "velocity": 100, "until": 154.25355005833794}, {"on": false, "note": 43, "velocity": 0, "until": 154.27313400833793}, {"on": true, "note": 48, "velocity": 100, "until": 154.993343808338}, {"on": false, "note": 48, "velocity": 0, "until": 154.993343808338}, {"on": true, "note": 51, "velocity": 100, "until": 155.179882083338}, {"on": false, "note": 51, "velocity": 0, "until": 155.22446600833797}, {"on": true, "note": 48, "velocity": 100, "until": 155.9446758083382}, {"on": false, "note": 48, "velocity": 0, "until": 155.9446758083382}, {"on": true, "note": 51, "velocity": 100, "until": 156.13121408333816}, {"on": false, "note": 51, "velocity": 0, "until": 156.17579800833815}, {"on": true, "note": 48, "velocity": 100, "until": 156.42069500833819}, {"on": false, "note": 48, "velocity": 0, "until": 156.42069500833819}, {"on": true, "note": 51, "velocity": 100, "until": 156.6451839250049}, {"on": false, "note": 51, "velocity": 0, "until": 156.66523880833824}, {"on": true, "note": 48, "velocity": 100, "until": 156.89600780833828}, {"on": false, "note": 48, "velocity": 0, "until": 156.89600780833828}, {"on": true, "note": 51, "velocity": 100, "until": 157.10754605833827}, {"on": false, "note": 51, "velocity": 0, "until": 157.12713000833827}, {"on": true, "note": 48, "velocity": 100, "until": 157.3720270083383}, {"on": false, "note": 48, "velocity": 0, "until": 157.3720270083383}, {"on": true, "note": 51, "velocity": 100, "until": 157.596515925005}, {"on": false, "note": 51, "velocity": 0, "until": 157.61657080833837}, {"on": true, "note": 48, "velocity": 100, "until": 157.8473398083384}, {"on": false, "note": 48, "velocity": 0, "until": 157.8473398083384}, {"on": true, "note": 51, "velocity": 100, "until": 158.0588780583384}, {"on": false, "note": 51, "velocity": 0, "until": 158.0784620083384}, {"on": true, "note": 51, "velocity": 100, "until": 158.7986718083386}, {"on": false, "note": 51, "velocity": 0, "until": 158.7986718083386}, {"on": true, "note": 50, "velocity": 100, "until": 158.9852100833386}, {"on": false, "note": 50, "velocity": 0, "until": 159.02979400833857}, {"on": true, "note": 51, "velocity": 100, "until": 159.7500038083388}, {"on": false, "note": 51, "velocity": 0, "until": 159.7500038083388}, {"on": true, "note": 50, "velocity": 100, "until": 159.93654208333876}, {"on": false, "note": 50, "velocity": 0, "until": 159.98112600833875}, {"on": true, "note": 51, "velocity": 100, "until": 160.22602300833879}, {"on": false, "note": 51, "velocity": 0, "until": 160.47056680833882}, {"on": true, "note": 51, "velocity": 100, "until": 160.70133580833888}, {"on": false, "note": 51, "velocity": 0, "until": 160.93245800833893}, {"on": true, "note": 51, "velocity": 100, "until": 161.17735500833896}, {"on": false, "note": 51, "velocity": 0, "until": 161.421898808339}, {"on": true, "note": 51, "velocity": 100, "until": 161.88379000833902}, {"on": false, "note": 51, "velocity": 0, "until": 161.88379000833902}, {"on": true, "note": 50, "velocity": 100, "until": 162.12868700833906}, {"on": false, "note": 50, "velocity": 0, "until": 173.97500083333762}, {"on": true, "note": 50, "velocity": 110, "until": 174.10320583333765}, {"on": false, "note": 50, "velocity": 0, "until": 174.23112300833768}, {"on": true, "note": 55, "velocity": 110, "until": 174.97761483333795}, {"on": false, "note": 55, "velocity": 0, "until": 174.97761483333795}, {"on": true, "note": 50, "velocity": 110, "until": 175.10581983333805}, {"on": false, "note": 50, "velocity": 0, "until": 175.23373700833812}, {"on": true, "note": 58, "velocity": 110, "until": 175.9802288333384}, {"on": false, "note": 58, "velocity": 0, "until": 175.9802288333384}, {"on": true, "note": 55, "velocity": 110, "until": 176.1084338333385}, {"on": false, "note": 55, "velocity": 0, "until": 176.23635100833857}, {"on": true, "note": 63, "velocity": 88, "until": 176.98284283333874}, {"on": false, "note": 63, "velocity": 0, "until": 176.98284283333874}, {"on": true, "note": 58, "velocity": 110, "until": 177.11104783333877}, {"on": false, "note": 58, "velocity": 0, "until": 177.2389650083388}, {"on": true, "note": 67, "velocity": 110, "until": 177.72904683333888}, {"on": false, "note": 67, "velocity": 0, "until": 177.72904683333888}, {"on": true, "note": 65, "velocity": 100, "until": 178.11366183333934}, {"on": false, "note": 65, "velocity": 0, "until": 178.11366183333934}, {"on": true, "note": 67, "velocity": 100, "until": 178.24157900833941}, {"on": false, "note": 67, "velocity": 0, "until": 178.24157900833941}, {"on": true, "note": 65, "velocity": 100, "until": 178.48647600833942}, {"on": false, "note": 65, "velocity": 0, "until": 178.48647600833942}, {"on": true, "note": 63, "velocity": 100, "until": 178.6089245083394}, {"on": false, "note": 63, "velocity": 0, "until": 178.73166083333942}, {"on": true, "note": 62, "velocity": 100, "until": 178.85986583333946}, {"on": false, "note": 62, "velocity": 0, "until": 178.85986583333946}, {"on": true, "note": 63, "velocity": 100, "until": 178.9880708333395}, {"on": false, "note": 63, "velocity": 0, "until": 178.9880708333395}, {"on": true, "note": 62, "velocity": 100, "until": 179.11627583333953}, {"on": false, "note": 62, "velocity": 0, "until": 179.11627583333953}, {"on": true, "note": 60, "velocity": 100, "until": 179.24419300833955}, {"on": false, "note": 60, "velocity": 0, "until": 179.24419300833955}, {"on": true, "note": 62, "velocity": 100, "until": 179.3135804916729}, {"on": false, "note": 62, "velocity": 0, "until": 179.48909000833956}, {"on": true, "note": 70, "velocity": 100, "until": 179.5584774916729}, {"on": false, "note": 70, "velocity": 0, "until": 179.73427483333958}, {"on": true, "note": 65, "velocity": 100, "until": 180.11888983334006}, {"on": false, "note": 65, "velocity": 0, "until": 180.11888983334006}, {"on": true, "note": 67, "velocity": 100, "until": 180.2468070083401}, {"on": false, "note": 67, "velocity": 0, "until": 180.2468070083401}, {"on": true, "note": 65, "velocity": 100, "until": 180.49170400834012}, {"on": false, "note": 65, "velocity": 0, "until": 180.49170400834012}, {"on": true, "note": 63, "velocity": 100, "until": 180.6141525083401}, {"on": false, "note": 63, "velocity": 0, "until": 180.73688883334012}, {"on": true, "note": 62, "velocity": 100, "until": 180.86509383334015}, {"on": false, "note": 62, "velocity": 0, "until": 180.86509383334015}, {"on": true, "note": 63, "velocity": 100, "until": 180.9932988333402}, {"on": false, "note": 63, "velocity": 0, "until": 180.9932988333402}, {"on": true, "note": 62, "velocity": 100, "until": 181.12150383334023}, {"on": false, "note": 62, "velocity": 0, "until": 181.12150383334023}, {"on": true, "note": 60, "velocity": 100, "until": 181.24942100834025}, {"on": false, "note": 60, "velocity": 0, "until": 181.24942100834025}, {"on": true, "note": 58, "velocity": 100, "until": 181.49501375834026}, {"on": false, "note": 58, "velocity": 0, "until": 181.76719873334022}, {"on": true, "note": 62, "velocity": 100, "until": 181.76719873334022}, {"on": true, "note": 50, "velocity": 100, "until": 182.26906295834024}, {"on": false, "note": 50, "velocity": 0, "until": 182.26906295834024}, {"on": false, "note": 62, "velocity": 0, "until": 183.73912273334022}, {"on": true, "note": 53, "velocity": 100, "until": 183.73912273334022}, {"on": true, "note": 60, "velocity": 100, "until": 184.48292195833997}, {"on": false, "note": 60, "velocity": 0, "until": 184.48292195833997}, {"on": false, "note": 53, "velocity": 0, "until": 184.48292195833997}, {"on": true, "note": 60, "velocity": 100, "until": 184.48292195833997}, {"on": true, "note": 53, "velocity": 100, "until": 184.60388945833998}, {"on": false, "note": 53, "velocity": 0, "until": 184.60388945833998}, {"on": false, "note": 60, "velocity": 0, "until": 184.72508473333997}, {"on": true, "note": 62, "velocity": 100, "until": 184.72508473333997}, {"on": true, "note": 58, "velocity": 100, "until": 184.85060773333996}, {"on": false, "note": 58, "velocity": 0, "until": 184.85060773333996}, {"on": false, "note": 62, "velocity": 0, "until": 184.97613073333994}, {"on": true, "note": 63, "velocity": 100, "until": 184.97613073333994}, {"on": true, "note": 60, "velocity": 100, "until": 185.10165373333993}, {"on": false, "note": 60, "velocity": 0, "until": 185.10165373333993}, {"on": false, "note": 63, "velocity": 0, "until": 185.22694895833996}, {"on": true, "note": 65, "velocity": 100, "until": 185.22694895833996}, {"on": true, "note": 62, "velocity": 100, "until": 185.34791645833997}, {"on": false, "note": 62, "velocity": 0, "until": 185.34791645833997}, {"on": false, "note": 65, "velocity": 0, "until": 185.71096890834}, {"on": true, "note": 62, "velocity": 100, "until": 185.71096890834}, {"on": true, "note": 50, "velocity": 100, "until": 186.20656543334027}, {"on": false, "note": 50, "velocity": 0, "until": 186.20656543334027}, {"on": false, "note": 62, "velocity": 0, "until": 189.59153943334053}, {"on": true, "note": 57, "velocity": 100, "until": 189.95591043334008}, {"on": false, "note": 57, "velocity": 0, "until": 189.95591043334008}, {"on": true, "note": 58, "velocity": 100, "until": 190.07701975834001}, {"on": false, "note": 58, "velocity": 0, "until": 190.07701975834001}, {"on": true, "note": 57, "velocity": 100, "until": 190.29648480000665}, {"on": false, "note": 57, "velocity": 0, "until": 190.30602675833995}, {"on": true, "note": 55, "velocity": 100, "until": 190.4205302583399}, {"on": false, "note": 55, "velocity": 0, "until": 190.53538143333986}, {"on": true, "note": 53, "velocity": 100, "until": 190.65683843333983}, {"on": false, "note": 53, "velocity": 0, "until": 190.65683843333983}, {"on": true, "note": 57, "velocity": 100, "until": 190.76817401667313}, {"on": false, "note": 57, "velocity": 0, "until": 190.77829543333976}, {"on": true, "note": 55, "velocity": 100, "until": 190.84712106667305}, {"on": false, "note": 55, "velocity": 0, "until": 190.8997524333397}, {"on": true, "note": 52, "velocity": 100, "until": 190.968578066673}, {"on": false, "note": 52, "velocity": 0, "until": 191.02086175833963}, {"on": true, "note": 50, "velocity": 100, "until": 191.24986875833957}, {"on": false, "note": 50, "velocity": 0, "until": 191.47922343333954}, {"on": true, "note": 60, "velocity": 100, "until": 191.84359443333912}, {"on": false, "note": 60, "velocity": 0, "until": 191.84359443333912}, {"on": true, "note": 62, "velocity": 100, "until": 191.96470375833903}, {"on": false, "note": 62, "velocity": 0, "until": 191.96470375833903}, {"on": true, "note": 60, "velocity": 100, "until": 192.18416880000564}, {"on": false, "note": 60, "velocity": 0, "until": 192.19371075833894}, {"on": true, "note": 58, "velocity": 100, "until": 192.3082142583389}, {"on": false, "note": 58, "velocity": 0, "until": 192.42306543333888}, {"on": true, "note": 57, "velocity": 100, "until": 192.54452243333884}, {"on": false, "note": 57, "velocity": 0, "until": 192.54452243333884}, {"on": true, "note": 60, "velocity": 100, "until": 192.6558580166721}, {"on": false, "note": 60, "velocity": 0, "until": 192.66597943333875}, {"on": true, "note": 58, "velocity": 100, "until": 192.734805066672}, {"on": false, "note": 58, "velocity": 0, "until": 192.78743643333866}, {"on": true, "note": 55, "velocity": 100, "until": 192.85626206667195}, {"on": false, "note": 55, "velocity": 0, "until": 192.9085457583386}, {"on": true, "note": 53, "velocity": 100, "until": 193.13755275833853}, {"on": false, "note": 53, "velocity": 0, "until": 193.36804610833855}, {"on": true, "note": 51, "velocity": 100, "until": 193.36804610833855}, {"on": true, "note": 63, "velocity": 100, "until": 193.65554558333875}, {"on": false, "note": 51, "velocity": 0, "until": 193.89512891667204}, {"on": false, "note": 63, "velocity": 0, "until": 193.90524795833872}, {"on": true, "note": 63, "velocity": 100, "until": 194.02429545833874}, {"on": false, "note": 63, "velocity": 0, "until": 194.14334295833876}, {"on": true, "note": 63, "velocity": 100, "until": 194.26239045833879}, {"on": false, "note": 63, "velocity": 0, "until": 194.3818958333388}, {"on": true, "note": 63, "velocity": 100, "until": 195.3845098333388}, {"on": false, "note": 63, "velocity": 0, "until": 195.3845098333388}, {"on": true, "note": 50, "velocity": 100, "until": 195.3845098333388}, {"on": true, "note": 62, "velocity": 100, "until": 195.64091983333884}, {"on": false, "note": 50, "velocity": 0, "until": 195.8866460833389}, {"on": false, "note": 62, "velocity": 0, "until": 195.8970420083389}, {"on": true, "note": 62, "velocity": 100, "until": 196.0194905083389}, {"on": false, "note": 62, "velocity": 0, "until": 196.14193900833888}, {"on": true, "note": 62, "velocity": 100, "until": 196.2643875083389}, {"on": false, "note": 62, "velocity": 0, "until": 196.38712383333893}, {"on": true, "note": 50, "velocity": 100, "until": 196.38712383333893}, {"on": true, "note": 62, "velocity": 100, "until": 196.64353383333898}, {"on": false, "note": 50, "velocity": 0, "until": 197.4337077333391}, {"on": false, "note": 62, "velocity": 0, "until": 197.4337077333391}, {"on": true, "note": 50, "velocity": 85, "until": 197.83193673333912}, {"on": false, "note": 50, "velocity": 0, "until": 197.83193673333912}, {"on": true, "note": 52, "velocity": 85, "until": 197.96429258333913}, {"on": false, "note": 52, "velocity": 0, "until": 197.96429258333913}, {"on": true, "note": 50, "velocity": 85, "until": 198.2142925833391}, {"on": false, "note": 50, "velocity": 0, "until": 198.2142925833391}, {"on": true, "note": 50, "velocity": 85, "until": 198.3392925833391}, {"on": false, "note": 50, "velocity": 0, "until": 198.4645643083391}, {"on": true, "note": 50, "velocity": 85, "until": 198.72543330833912}, {"on": false, "note": 50, "velocity": 0, "until": 198.72543330833912}, {"on": true, "note": 54, "velocity": 85, "until": 198.98603058333907}, {"on": false, "note": 54, "velocity": 0, "until": 198.98603058333907}, {"on": true, "note": 57, "velocity": 85, "until": 199.23603058333907}, {"on": false, "note": 57, "velocity": 0, "until": 199.23603058333907}, {"on": true, "note": 60, "velocity": 85, "until": 199.48630230833908}, {"on": false, "note": 60, "velocity": 0, "until": 199.48630230833908}, {"on": true, "note": 59, "velocity": 85, "until": 200.00776858333904}, {"on": false, "note": 59, "velocity": 0, "until": 200.00776858333904}, {"on": true, "note": 55, "velocity": 85, "until": 200.13276858333904}, {"on": false, "note": 55, "velocity": 0, "until": 200.13276858333904}, {"on": true, "note": 57, "velocity": 85, "until": 200.25776858333904}, {"on": false, "note": 57, "velocity": 0, "until": 200.25776858333904}, {"on": true, "note": 59, "velocity": 85, "until": 200.38276858333904}, {"on": false, "note": 59, "velocity": 0, "until": 200.38276858333904}, {"on": true, "note": 60, "velocity": 85, "until": 200.50804030833905}, {"on": false, "note": 60, "velocity": 0, "until": 200.50804030833905}, {"on": true, "note": 62, "velocity": 85, "until": 200.7145616000057}, {"on": false, "note": 62, "velocity": 0, "until": 200.76890930833903}, {"on": true, "note": 62, "velocity": 85, "until": 200.97543060000567}, {"on": false, "note": 62, "velocity": 0, "until": 201.02950658333899}, {"on": true, "note": 62, "velocity": 85, "until": 201.22742325000564}, {"on": false, "note": 62, "velocity": 0, "until": 201.27950658333896}, {"on": true, "note": 62, "velocity": 85, "until": 201.47742325000561}, {"on": false, "note": 62, "velocity": 0, "until": 201.52977830833893}, {"on": true, "note": 50, "velocity": 85, "until": 201.92108180833893}, {"on": false, "note": 50, "velocity": 0, "until": 201.92108180833893}, {"on": true, "note": 52, "velocity": 85, "until": 202.0512445833389}, {"on": false, "note": 52, "velocity": 0, "until": 202.0512445833389}, {"on": true, "note": 50, "velocity": 85, "until": 202.3012445833389}, {"on": false, "note": 50, "velocity": 0, "until": 202.3012445833389}, {"on": true, "note": 50, "velocity": 85, "until": 202.4262445833389}, {"on": false, "note": 50, "velocity": 0, "until": 202.5515163083389}, {"on": true, "note": 50, "velocity": 85, "until": 202.81238530833892}, {"on": false, "note": 50, "velocity": 0, "until": 202.81238530833892}, {"on": true, "note": 54, "velocity": 85, "until": 203.07298258333887}, {"on": false, "note": 54, "velocity": 0, "until": 203.07298258333887}, {"on": true, "note": 57, "velocity": 85, "until": 203.32298258333887}, {"on": false, "note": 57, "velocity": 0, "until": 203.32298258333887}, {"on": true, "note": 60, "velocity": 85, "until": 203.5731428333389}, {"on": false, "note": 60, "velocity": 0, "until": 203.5731428333389}, {"on": true, "note": 59, "velocity": 85, "until": 204.08567500833897}, {"on": false, "note": 59, "velocity": 0, "until": 204.08567500833897}, {"on": true, "note": 55, "velocity": 85, "until": 204.20812350833896}, {"on": false, "note": 55, "velocity": 0, "until": 204.20812350833896}, {"on": true, "note": 57, "velocity": 85, "until": 204.33057200833895}, {"on": false, "note": 57, "velocity": 0, "until": 204.33057200833895}, {"on": true, "note": 59, "velocity": 85, "until": 204.45302050833897}, {"on": false, "note": 59, "velocity": 0, "until": 204.45302050833897}, {"on": true, "note": 60, "velocity": 85, "until": 204.575756833339}, {"on": false, "note": 60, "velocity": 0, "until": 204.575756833339}, {"on": true, "note": 62, "velocity": 85, "until": 204.778748083339}, {"on": false, "note": 62, "velocity": 0, "until": 204.83216683333902}, {"on": true, "note": 62, "velocity": 85, "until": 205.03515808333907}, {"on": false, "note": 62, "velocity": 0, "until": 205.08828900833907}, {"on": true, "note": 62, "velocity": 85, "until": 205.28216580000574}, {"on": false, "note": 62, "velocity": 0, "until": 205.33318600833908}, {"on": true, "note": 62, "velocity": 85, "until": 205.52706280000578}, {"on": false, "note": 62, "velocity": 0, "until": 205.57837083333914}, {"on": true, "note": 55, "velocity": 85, "until": 205.57837083333914}, {"on": true, "note": 59, "velocity": 85, "until": 205.83478083333915}, {"on": false, "note": 59, "velocity": 0, "until": 205.83478083333915}, {"on": false, "note": 55, "velocity": 0, "until": 206.09075665833913}, {"on": true, "note": 52, "velocity": 100, "until": 206.22621435833918}, {"on": false, "note": 52, "velocity": 0, "until": 206.32979965833914}, {"on": true, "note": 52, "velocity": 100, "until": 206.4652573583392}, {"on": false, "note": 52, "velocity": 0, "until": 206.56911658333917}, {"on": true, "note": 57, "velocity": 100, "until": 206.81911658333917}, {"on": false, "note": 57, "velocity": 0, "until": 207.06877208333916}, {"on": true, "note": 55, "velocity": 100, "until": 207.20263008333922}, {"on": false, "note": 55, "velocity": 0, "until": 207.30499208333924}, {"on": true, "note": 55, "velocity": 100, "until": 207.4388500833393}, {"on": false, "note": 55, "velocity": 0, "until": 207.5414794083393}, {"on": true, "note": 60, "velocity": 100, "until": 207.7897195833393}, {"on": false, "note": 60, "velocity": 0, "until": 214.03575308333927}, {"on": true, "note": 52, "velocity": 100, "until": 214.1696110833393}, {"on": false, "note": 52, "velocity": 0, "until": 214.27197308333933}, {"on": true, "note": 52, "velocity": 100, "until": 214.40583108333936}, {"on": false, "note": 52, "velocity": 0, "until": 214.50843510833937}, {"on": true, "note": 57, "velocity": 100, "until": 214.75433610833934}, {"on": false, "note": 57, "velocity": 0, "until": 214.99994895833933}, {"on": true, "note": 55, "velocity": 100, "until": 215.13276145833933}, {"on": false, "note": 55, "velocity": 0, "until": 215.23432395833933}, {"on": true, "note": 55, "velocity": 100, "until": 215.36713645833933}, {"on": false, "note": 55, "velocity": 0, "until": 215.4689124333393}, {"on": true, "note": 60, "velocity": 100, "until": 215.71325358333928}, {"on": false, "note": 60, "velocity": 0, "until": 218.84652875833896}, {"on": true, "note": 61, "velocity": 100, "until": 218.84652875833896}, {"on": true, "note": 49, "velocity": 100, "until": 219.0564518416722}, {"on": false, "note": 49, "velocity": 0, "until": 219.0564518416722}, {"on": false, "note": 61, "velocity": 0, "until": 219.07553575833887}, {"on": true, "note": 49, "velocity": 100, "until": 219.07553575833887}, {"on": true, "note": 61, "velocity": 100, "until": 219.28545884167212}, {"on": false, "note": 61, "velocity": 0, "until": 219.28545884167212}, {"on": false, "note": 49, "velocity": 0, "until": 219.30489043333878}, {"on": true, "note": 62, "velocity": 100, "until": 219.30489043333878}, {"on": true, "note": 50, "velocity": 100, "until": 219.79111108333834}, {"on": false, "note": 50, "velocity": 0, "until": 219.79111108333834}, {"on": false, "note": 62, "velocity": 0, "until": 219.79111108333834}, {"on": true, "note": 50, "velocity": 100, "until": 219.92042108333828}, {"on": false, "note": 50, "velocity": 0, "until": 220.04903480833826}, {"on": true, "note": 50, "velocity": 100, "until": 220.28010743333823}, {"on": false, "note": 50, "velocity": 0, "until": 220.28010743333823}, {"on": true, "note": 64, "velocity": 120, "until": 220.76574493333817}, {"on": false, "note": 64, "velocity": 0, "until": 220.76574493333817}, {"on": true, "note": 62, "velocity": 113, "until": 220.88339193333817}, {"on": false, "note": 62, "velocity": 0, "until": 220.88339193333817}, {"on": true, "note": 60, "velocity": 111, "until": 221.00103893333818}, {"on": false, "note": 60, "velocity": 0, "until": 221.00103893333818}, {"on": true, "note": 59, "velocity": 109, "until": 221.11868593333818}, {"on": false, "note": 59, "velocity": 0, "until": 221.11868593333818}, {"on": true, "note": 57, "velocity": 107, "until": 221.23652343333816}, {"on": false, "note": 57, "velocity": 0, "until": 221.23652343333816}, {"on": true, "note": 55, "velocity": 105, "until": 221.47943743333812}, {"on": false, "note": 55, "velocity": 0, "until": 224.5914089333377}, {"on": true, "note": 62, "velocity": 100, "until": 224.7090559333377}, {"on": false, "note": 62, "velocity": 0, "until": 224.8267029333377}, {"on": true, "note": 62, "velocity": 100, "until": 225.0621874333377}, {"on": false, "note": 62, "velocity": 0, "until": 225.0621874333377}, {"on": true, "note": 67, "velocity": 120, "until": 225.54782493333764}, {"on": false, "note": 67, "velocity": 0, "until": 225.54782493333764}, {"on": true, "note": 66, "velocity": 113, "until": 225.66547193333764}, {"on": false, "note": 66, "velocity": 0, "until": 225.66547193333764}, {"on": true, "note": 64, "velocity": 111, "until": 225.78311893333765}, {"on": false, "note": 64, "velocity": 0, "until": 225.78311893333765}, {"on": true, "note": 62, "velocity": 109, "until": 225.90076593333765}, {"on": false, "note": 62, "velocity": 0, "until": 225.90076593333765}, {"on": true, "note": 60, "velocity": 107, "until": 226.01860343333763}, {"on": false, "note": 60, "velocity": 0, "until": 226.01860343333763}, {"on": true, "note": 59, "velocity": 105, "until": 226.26151743333745}, {"on": false, "note": 59, "velocity": 0, "until": 227.93143543333727}, {"on": true, "note": 62, "velocity": 100, "until": 228.8878514333372}, {"on": false, "note": 62, "velocity": 0, "until": 228.8878514333372}, {"on": true, "note": 55, "velocity": 100, "until": 229.13154188333718}, {"on": false, "note": 55, "velocity": 0, "until": 229.86443458333727}, {"on": true, "note": 50, "velocity": 100, "until": 230.10443458333728}, {"on": false, "note": 50, "velocity": 0, "until": 230.80252143333723}, {"on": true, "note": 55, "velocity": 100, "until": 231.0454354333372}, {"on": false, "note": 55, "velocity": 0, "until": 231.74636343333717}, {"on": true, "note": 50, "velocity": 100, "until": 231.98927743333712}, {"on": false, "note": 50, "velocity": 0, "until": 232.69008495833714}, {"on": true, "note": 43, "velocity": 100, "until": 232.9307990083372}, {"on": false, "note": 43, "velocity": 0, "until": 246.7287805083378}, {"on": true, "note": 60, "velocity": 90, "until": 246.7287805083378}, {"on": true, "note": 48, "velocity": 90, "until": 247.1695951083378}, {"on": false, "note": 48, "velocity": 0, "until": 247.1695951083378}, {"on": false, "note": 60, "velocity": 0, "until": 247.21822130833783}, {"on": true, "note": 60, "velocity": 90, "until": 247.21822130833783}, {"on": true, "note": 48, "velocity": 90, "until": 247.63360550833787}, {"on": false, "note": 48, "velocity": 0, "until": 247.63360550833787}, {"on": false, "note": 60, "velocity": 0, "until": 247.68011250833786}, {"on": true, "note": 60, "velocity": 90, "until": 247.68011250833786}, {"on": true, "note": 48, "velocity": 90, "until": 248.16955330833787}, {"on": false, "note": 48, "velocity": 0, "until": 248.16955330833787}, {"on": false, "note": 60, "velocity": 0, "until": 250.53298250833765}, {"on": true, "note": 48, "velocity": 90, "until": 250.53298250833765}, {"on": true, "note": 60, "velocity": 90, "until": 251.02242330833766}, {"on": false, "note": 60, "velocity": 0, "until": 251.02242330833766}, {"on": false, "note": 48, "velocity": 0, "until": 251.02242330833766}, {"on": true, "note": 60, "velocity": 90, "until": 251.02242330833766}, {"on": true, "note": 48, "velocity": 90, "until": 251.48431450833766}, {"on": false, "note": 48, "velocity": 0, "until": 251.48431450833766}, {"on": false, "note": 60, "velocity": 0, "until": 251.48431450833766}, {"on": true, "note": 60, "velocity": 90, "until": 251.48431450833766}, {"on": true, "note": 48, "velocity": 90, "until": 251.97375530833767}, {"on": false, "note": 48, "velocity": 0, "until": 251.97375530833767}, {"on": false, "note": 60, "velocity": 0, "until": 252.43542958333768}, {"on": true, "note": 59, "velocity": 100, "until": 252.43542958333768}, {"on": true, "note": 56, "velocity": 100, "until": 252.5535395833377}, {"on": false, "note": 56, "velocity": 0, "until": 252.5535395833377}, {"on": false, "note": 59, "velocity": 0, "until": 252.67164958333774}, {"on": true, "note": 57, "velocity": 100, "until": 252.67164958333774}, {"on": true, "note": 60, "velocity": 100, "until": 252.78975958333777}, {"on": false, "note": 60, "velocity": 0, "until": 252.78975958333777}, {"on": false, "note": 57, "velocity": 0, "until": 252.9078695833378}, {"on": true, "note": 56, "velocity": 100, "until": 252.9078695833378}, {"on": true, "note": 59, "velocity": 100, "until": 253.02597958333783}, {"on": false, "note": 59, "velocity": 0, "until": 253.02597958333783}, {"on": false, "note": 56, "velocity": 0, "until": 253.14408958333786}, {"on": true, "note": 60, "velocity": 100, "until": 253.14408958333786}, {"on": true, "note": 57, "velocity": 100, "until": 253.2621995833379}, {"on": false, "note": 57, "velocity": 0, "until": 253.2621995833379}, {"on": false, "note": 60, "velocity": 0, "until": 253.38030958333792}, {"on": true, "note": 59, "velocity": 100, "until": 253.38030958333792}, {"on": true, "note": 56, "velocity": 100, "until": 253.8526133083383}, {"on": false, "note": 56, "velocity": 0, "until": 253.8526133083383}, {"on": false, "note": 59, "velocity": 0, "until": 255.55774150833832}, {"on": true, "note": 65, "velocity": 100, "until": 255.74549587500502}, {"on": false, "note": 65, "velocity": 0, "until": 255.80228530833838}, {"on": true, "note": 65, "velocity": 100, "until": 255.9792082083384}, {"on": false, "note": 65, "velocity": 0, "until": 256.03305430833836}, {"on": true, "note": 65, "velocity": 100, "until": 256.20997720833833}, {"on": false, "note": 65, "velocity": 0, "until": 256.2641765083383}, {"on": true, "note": 64, "velocity": 100, "until": 256.50907350833836}, {"on": false, "note": 64, "velocity": 0, "until": 257.46040550833845}, {"on": true, "note": 64, "velocity": 100, "until": 257.64815987500515}, {"on": false, "note": 64, "velocity": 0, "until": 257.7049493083384}, {"on": true, "note": 64, "velocity": 100, "until": 257.8818722083382}, {"on": false, "note": 64, "velocity": 0, "until": 257.9357183083381}, {"on": true, "note": 64, "velocity": 100, "until": 258.11264120833795}, {"on": false, "note": 64, "velocity": 0, "until": 258.16684050833794}, {"on": true, "note": 62, "velocity": 100, "until": 258.16684050833794}, {"on": true, "note": 55, "velocity": 100, "until": 258.28928900833796}, {"on": false, "note": 55, "velocity": 0, "until": 258.28928900833796}, {"on": false, "note": 62, "velocity": 0, "until": 258.411737508338}, {"on": true, "note": 62, "velocity": 100, "until": 258.411737508338}, {"on": true, "note": 59, "velocity": 100, "until": 258.88705030833773}, {"on": false, "note": 59, "velocity": 0, "until": 258.88705030833773}, {"on": false, "note": 62, "velocity": 0, "until": 258.88705030833773}, {"on": true, "note": 64, "velocity": 100, "until": 258.88705030833773}, {"on": true, "note": 60, "velocity": 100, "until": 259.11817250833775}, {"on": false, "note": 60, "velocity": 0, "until": 259.11817250833775}, {"on": false, "note": 64, "velocity": 0, "until": 259.11817250833775}, {"on": true, "note": 65, "velocity": 100, "until": 259.11817250833775}, {"on": true, "note": 62, "velocity": 100, "until": 259.24062100833777}, {"on": false, "note": 62, "velocity": 0, "until": 259.24062100833777}, {"on": false, "note": 65, "velocity": 0, "until": 259.3630695083378}, {"on": true, "note": 62, "velocity": 100, "until": 259.3630695083378}, {"on": true, "note": 59, "velocity": 100, "until": 259.83838230833754}, {"on": false, "note": 59, "velocity": 0, "until": 259.83838230833754}, {"on": false, "note": 62, "velocity": 0, "until": 259.83838230833754}, {"on": true, "note": 60, "velocity": 100, "until": 259.83838230833754}, {"on": true, "note": 64, "velocity": 100, "until": 260.06950450833756}, {"on": false, "note": 64, "velocity": 0, "until": 260.06950450833756}, {"on": false, "note": 60, "velocity": 0, "until": 260.06950450833756}, {"on": true, "note": 62, "velocity": 100, "until": 260.06950450833756}, {"on": true, "note": 65, "velocity": 100, "until": 260.1919530083376}, {"on": false, "note": 65, "velocity": 0, "until": 260.1919530083376}, {"on": false, "note": 62, "velocity": 0, "until": 260.3144015083376}, {"on": true, "note": 62, "velocity": 100, "until": 260.3144015083376}, {"on": true, "note": 59, "velocity": 100, "until": 260.78971430833735}, {"on": false, "note": 59, "velocity": 0, "until": 260.78971430833735}, {"on": false, "note": 62, "velocity": 0, "until": 260.78971430833735}, {"on": true, "note": 64, "velocity": 100, "until": 260.78971430833735}, {"on": true, "note": 60, "velocity": 100, "until": 261.02083650833737}, {"on": false, "note": 60, "velocity": 0, "until": 261.02083650833737}, {"on": false, "note": 64, "velocity": 0, "until": 261.02083650833737}, {"on": true, "note": 59, "velocity": 100, "until": 261.02083650833737}, {"on": true, "note": 62, "velocity": 100, "until": 261.26604883333744}, {"on": false, "note": 62, "velocity": 0, "until": 261.26604883333744}, {"on": false, "note": 59, "velocity": 0, "until": 265.6194793083371}, {"on": true, "note": 48, "velocity": 100, "until": 265.734863808337}, {"on": false, "note": 48, "velocity": 0, "until": 265.850479083337}, {"on": true, "note": 53, "velocity": 100, "until": 265.97047908333707}, {"on": false, "note": 53, "velocity": 0, "until": 266.09047908333713}, {"on": true, "note": 48, "velocity": 100, "until": 266.2104790833372}, {"on": false, "note": 48, "velocity": 0, "until": 266.33047908333725}, {"on": true, "note": 53, "velocity": 100, "until": 266.4504790833373}, {"on": false, "note": 53, "velocity": 0, "until": 266.5704790833374}, {"on": true, "note": 48, "velocity": 100, "until": 266.69047908333744}, {"on": false, "note": 48, "velocity": 0, "until": 266.8104790833375}, {"on": true, "note": 53, "velocity": 100, "until": 267.29024830833833}, {"on": false, "note": 53, "velocity": 0, "until": 269.40547930833776}, {"on": true, "note": 55, "velocity": 100, "until": 269.5208638083377}, {"on": false, "note": 55, "velocity": 0, "until": 269.6363845833376}, {"on": true, "note": 60, "velocity": 100, "until": 269.7544945833375}, {"on": false, "note": 60, "velocity": 0, "until": 269.87260458333736}, {"on": true, "note": 55, "velocity": 100, "until": 269.99071458333725}, {"on": false, "note": 55, "velocity": 0, "until": 270.10882458333714}, {"on": true, "note": 60, "velocity": 100, "until": 270.226934583337}, {"on": false, "note": 60, "velocity": 0, "until": 270.3450445833369}, {"on": true, "note": 55, "velocity": 100, "until": 270.4631545833368}, {"on": false, "note": 55, "velocity": 0, "until": 270.5812645833367}, {"on": true, "note": 60, "velocity": 100, "until": 270.8174845833366}, {"on": false, "note": 60, "velocity": 0, "until": 271.0535683083365}, {"on": true, "note": 55, "velocity": 100, "until": 271.4958755583362}, {"on": false, "note": 55, "velocity": 0, "until": 271.5154595083362}, {"on": true, "note": 52, "velocity": 100, "until": 271.9848454250029}, {"on": false, "note": 52, "velocity": 0, "until": 272.0049003083362}, {"on": true, "note": 54, "velocity": 100, "until": 272.4472075583359}, {"on": false, "note": 54, "velocity": 0, "until": 272.4667915083359}, {"on": true, "note": 55, "velocity": 100, "until": 272.9361774250026}, {"on": false, "note": 55, "velocity": 0, "until": 272.95623230833587}, {"on": true, "note": 43, "velocity": 100, "until": 273.3985395583356}, {"on": false, "note": 43, "velocity": 0, "until": 273.4181235083356}, {"on": true, "note": 48, "velocity": 100, "until": 274.1383333083356}, {"on": false, "note": 48, "velocity": 0, "until": 274.1383333083356}, {"on": true, "note": 51, "velocity": 100, "until": 274.32487158333555}, {"on": false, "note": 51, "velocity": 0, "until": 274.3694555083356}, {"on": true, "note": 48, "velocity": 100, "until": 275.0896653083351}, {"on": false, "note": 48, "velocity": 0, "until": 275.0896653083351}, {"on": true, "note": 51, "velocity": 100, "until": 275.2762035833351}, {"on": false, "note": 51, "velocity": 0, "until": 275.3207875083351}, {"on": true, "note": 48, "velocity": 100, "until": 275.56568450833515}, {"on": false, "note": 48, "velocity": 0, "until": 275.56568450833515}, {"on": true, "note": 51, "velocity": 100, "until": 275.79017342500185}, {"on": false, "note": 51, "velocity": 0, "until": 275.8102283083351}, {"on": true, "note": 48, "velocity": 100, "until": 276.0409973083348}, {"on": false, "note": 48, "velocity": 0, "until": 276.0409973083348}, {"on": true, "note": 51, "velocity": 100, "until": 276.2525355583347}, {"on": false, "note": 51, "velocity": 0, "until": 276.27211950833475}, {"on": true, "note": 48, "velocity": 100, "until": 276.5170165083348}, {"on": false, "note": 48, "velocity": 0, "until": 276.5170165083348}, {"on": true, "note": 51, "velocity": 100, "until": 276.7415054250015}, {"on": false, "note": 51, "velocity": 0, "until": 276.76156030833477}, {"on": true, "note": 48, "velocity": 100, "until": 276.99232930833443}, {"on": false, "note": 48, "velocity": 0, "until": 276.99232930833443}, {"on": true, "note": 51, "velocity": 100, "until": 277.20386755833437}, {"on": false, "note": 51, "velocity": 0, "until": 277.2234515083344}, {"on": true, "note": 51, "velocity": 100, "until": 277.9436613083339}, {"on": false, "note": 51, "velocity": 0, "until": 277.9436613083339}, {"on": true, "note": 50, "velocity": 100, "until": 278.1301995833339}, {"on": false, "note": 50, "velocity": 0, "until": 278.17478350833386}, {"on": true, "note": 51, "velocity": 100, "until": 278.89499330833337}, {"on": false, "note": 51, "velocity": 0, "until": 278.89499330833337}, {"on": true, "note": 50, "velocity": 100, "until": 279.08153158333334}, {"on": false, "note": 50, "velocity": 0, "until": 279.1261155083333}, {"on": true, "note": 51, "velocity": 100, "until": 279.37101250833337}, {"on": false, "note": 51, "velocity": 0, "until": 279.61555630833334}, {"on": true, "note": 51, "velocity": 100, "until": 279.84632530833295}, {"on": false, "note": 51, "velocity": 0, "until": 280.0774475083328}, {"on": true, "note": 51, "velocity": 100, "until": 280.32234450833283}, {"on": false, "note": 51, "velocity": 0, "until": 280.5668883083328}, {"on": true, "note": 51, "velocity": 100, "until": 281.0287795083324}, {"on": false, "note": 51, "velocity": 0, "until": 281.0287795083324}, {"on": true, "note": 50, "velocity": 100, "until": 281.2736765083324}, {"on": false, "note": 50, "velocity": 0, "until": 293.11999033333103}, {"on": true, "note": 50, "velocity": 110, "until": 293.248195333331}, {"on": false, "note": 50, "velocity": 0, "until": 293.376112508331}, {"on": true, "note": 55, "velocity": 110, "until": 294.12260433333097}, {"on": false, "note": 55, "velocity": 0, "until": 294.12260433333097}, {"on": true, "note": 50, "velocity": 110, "until": 294.25080933333095}, {"on": false, "note": 50, "velocity": 0, "until": 294.37872650833094}, {"on": true, "note": 58, "velocity": 110, "until": 295.1252183333309}, {"on": false, "note": 58, "velocity": 0, "until": 295.1252183333309}, {"on": true, "note": 55, "velocity": 110, "until": 295.2534233333309}, {"on": false, "note": 55, "velocity": 0, "until": 295.3813405083309}, {"on": true, "note": 63, "velocity": 88, "until": 296.12783233333084}, {"on": false, "note": 63, "velocity": 0, "until": 296.12783233333084}, {"on": true, "note": 58, "velocity": 110, "until": 296.2560373333308}, {"on": false, "note": 58, "velocity": 0, "until": 296.3839545083308}, {"on": true, "note": 67, "velocity": 110, "until": 296.8740363333308}, {"on": false, "note": 67, "velocity": 0, "until": 296.8740363333308}, {"on": true, "note": 65, "velocity": 100, "until": 297.25865133333076}, {"on": false, "note": 65, "velocity": 0, "until": 297.25865133333076}, {"on": true, "note": 67, "velocity": 100, "until": 297.38656850833075}, {"on": false, "note": 67, "velocity": 0, "until": 297.38656850833075}, {"on": true, "note": 65, "velocity": 100, "until": 297.63146550833073}, {"on": false, "note": 65, "velocity": 0, "until": 297.63146550833073}, {"on": true, "note": 63, "velocity": 100, "until": 297.75391400833075}, {"on": false, "note": 63, "velocity": 0, "until": 297.87665033333076}, {"on": true, "note": 62, "velocity": 100, "until": 298.00485533333074}, {"on": false, "note": 62, "velocity": 0, "until": 298.00485533333074}, {"on": true, "note": 63, "velocity": 100, "until": 298.1330603333307}, {"on": false, "note": 63, "velocity": 0, "until": 298.1330603333307}, {"on": true, "note": 62, "velocity": 100, "until": 298.2612653333307}, {"on": false, "note": 62, "velocity": 0, "until": 298.2612653333307}, {"on": true, "note": 60, "velocity": 100, "until": 298.3891825083307}, {"on": false, "note": 60, "velocity": 0, "until": 298.3891825083307}, {"on": true, "note": 62, "velocity": 100, "until": 298.45856999166404}, {"on": false, "note": 62, "velocity": 0, "until": 298.63407950833073}, {"on": true, "note": 70, "velocity": 100, "until": 298.7034669916641}, {"on": false, "note": 70, "velocity": 0, "until": 298.87926433333075}, {"on": true, "note": 65, "velocity": 100, "until": 299.2638793333307}, {"on": false, "note": 65, "velocity": 0, "until": 299.2638793333307}, {"on": true, "note": 67, "velocity": 100, "until": 299.3917965083307}, {"on": false, "note": 67, "velocity": 0, "until": 299.3917965083307}, {"on": true, "note": 65, "velocity": 100, "until": 299.63669350833067}, {"on": false, "note": 65, "velocity": 0, "until": 299.63669350833067}, {"on": true, "note": 63, "velocity": 100, "until": 299.7591420083307}, {"on": false, "note": 63, "velocity": 0, "until": 299.8818783333307}, {"on": true, "note": 62, "velocity": 100, "until": 300.01008333333067}, {"on": false, "note": 62, "velocity": 0, "until": 300.01008333333067}, {"on": true, "note": 63, "velocity": 100, "until": 300.13828833333065}, {"on": false, "note": 63, "velocity": 0, "until": 300.13828833333065}, {"on": true, "note": 62, "velocity": 100, "until": 300.26649333333063}, {"on": false, "note": 62, "velocity": 0, "until": 300.26649333333063}, {"on": true, "note": 60, "velocity": 100, "until": 300.3944105083306}, {"on": false, "note": 60, "velocity": 0, "until": 300.3944105083306}, {"on": true, "note": 58, "velocity": 100, "until": 300.64000325833064}, {"on": false, "note": 58, "velocity": 0, "until": 300.9121882333306}, {"on": true, "note": 50, "velocity": 100, "until": 300.9121882333306}, {"on": true, "note": 62, "velocity": 100, "until": 301.41405245833005}, {"on": false, "note": 62, "velocity": 0, "until": 301.41405245833005}, {"on": false, "note": 50, "velocity": 0, "until": 302.88411223333003}, {"on": true, "note": 60, "velocity": 100, "until": 302.88411223333003}, {"on": true, "note": 53, "velocity": 100, "until": 303.62791145833006}, {"on": false, "note": 53, "velocity": 0, "until": 303.62791145833006}, {"on": false, "note": 60, "velocity": 0, "until": 303.62791145833006}, {"on": true, "note": 53, "velocity": 100, "until": 303.62791145833006}, {"on": true, "note": 60, "velocity": 100, "until": 303.74887895833007}, {"on": false, "note": 60, "velocity": 0, "until": 303.74887895833007}, {"on": false, "note": 53, "velocity": 0, "until": 303.87007423333006}, {"on": true, "note": 62, "velocity": 100, "until": 303.87007423333006}, {"on": true, "note": 58, "velocity": 100, "until": 303.99559723333005}, {"on": false, "note": 58, "velocity": 0, "until": 303.99559723333005}, {"on": false, "note": 62, "velocity": 0, "until": 304.12112023333003}, {"on": true, "note": 63, "velocity": 100, "until": 304.12112023333003}, {"on": true, "note": 60, "velocity": 100, "until": 304.24664323333}, {"on": false, "note": 60, "velocity": 0, "until": 304.24664323333}, {"on": false, "note": 63, "velocity": 0, "until": 304.37193845833}, {"on": true, "note": 65, "velocity": 100, "until": 304.37193845833}, {"on": true, "note": 62, "velocity": 100, "until": 304.49290595833}, {"on": false, "note": 62, "velocity": 0, "until": 304.49290595833}, {"on": false, "note": 65, "velocity": 0, "until": 304.85595840833}, {"on": true, "note": 62, "velocity": 100, "until": 304.85595840833}, {"on": true, "note": 50, "velocity": 100, "until": 305.35155493333025}, {"on": false, "note": 50, "velocity": 0, "until": 305.35155493333025}, {"on": false, "note": 62, "velocity": 0, "until": 308.7365289333304}, {"on": true, "note": 57, "velocity": 100, "until": 309.10089993333094}, {"on": false, "note": 57, "velocity": 0, "until": 309.10089993333094}, {"on": true, "note": 58, "velocity": 100, "until": 309.2220092583312}, {"on": false, "note": 58, "velocity": 0, "until": 309.2220092583312}, {"on": true, "note": 57, "velocity": 100, "until": 309.4414742999978}, {"on": false, "note": 57, "velocity": 0, "until": 309.4510162583312}, {"on": true, "note": 55, "velocity": 100, "until": 309.5655197583313}, {"on": false, "note": 55, "velocity": 0, "until": 309.68037093333135}, {"on": true, "note": 53, "velocity": 100, "until": 309.8018279333314}, {"on": false, "note": 53, "velocity": 0, "until": 309.8018279333314}, {"on": true, "note": 57, "velocity": 100, "until": 309.9131635166647}, {"on": false, "note": 57, "velocity": 0, "until": 309.92328493333144}, {"on": true, "note": 55, "velocity": 100, "until": 309.99211056666473}, {"on": false, "note": 55, "velocity": 0, "until": 310.04474193333147}, {"on": true, "note": 52, "velocity": 100, "until": 310.11356756666476}, {"on": false, "note": 52, "velocity": 0, "until": 310.1658512583315}, {"on": true, "note": 50, "velocity": 100, "until": 310.39485825833157}, {"on": false, "note": 50, "velocity": 0, "until": 310.62421293333165}, {"on": true, "note": 60, "velocity": 100, "until": 310.9885839333321}, {"on": false, "note": 60, "velocity": 0, "until": 310.9885839333321}, {"on": true, "note": 62, "velocity": 100, "until": 311.1096932583324}, {"on": false, "note": 62, "velocity": 0, "until": 311.1096932583324}, {"on": true, "note": 60, "velocity": 100, "until": 311.32915829999916}, {"on": false, "note": 60, "velocity": 0, "until": 311.33870025833255}, {"on": true, "note": 58, "velocity": 100, "until": 311.4532037583326}, {"on": false, "note": 58, "velocity": 0, "until": 311.5680549333327}, {"on": true, "note": 57, "velocity": 100, "until": 311.68951193333277}, {"on": false, "note": 57, "velocity": 0, "until": 311.68951193333277}, {"on": true, "note": 60, "velocity": 100, "until": 311.8008475166661}, {"on": false, "note": 60, "velocity": 0, "until": 311.81096893333284}, {"on": true, "note": 58, "velocity": 100, "until": 311.8797945666662}, {"on": false, "note": 58, "velocity": 0, "until": 311.9324259333329}, {"on": true, "note": 55, "velocity": 100, "until": 312.0012515666662}, {"on": false, "note": 55, "velocity": 0, "until": 312.053535258333}, {"on": true, "note": 53, "velocity": 100, "until": 312.28254225833314}, {"on": false, "note": 53, "velocity": 0, "until": 312.5130356083331}, {"on": true, "note": 51, "velocity": 100, "until": 312.5130356083331}, {"on": true, "note": 63, "velocity": 100, "until": 312.800535083333}, {"on": false, "note": 51, "velocity": 0, "until": 313.0401184166669}, {"on": false, "note": 63, "velocity": 0, "until": 313.0502374583336}, {"on": true, "note": 63, "velocity": 100, "until": 313.16928495833355}, {"on": false, "note": 63, "velocity": 0, "until": 313.28833245833357}, {"on": true, "note": 63, "velocity": 100, "until": 313.40737995833354}, {"on": false, "note": 63, "velocity": 0, "until": 313.5268853333335}, {"on": true, "note": 63, "velocity": 100, "until": 314.52949933333343}, {"on": false, "note": 63, "velocity": 0, "until": 314.52949933333343}, {"on": true, "note": 62, "velocity": 100, "until": 314.52949933333343}, {"on": true, "note": 50, "velocity": 100, "until": 314.78590933333334}, {"on": false, "note": 50, "velocity": 0, "until": 315.0316355833333}, {"on": false, "note": 62, "velocity": 0, "until": 315.0420315083333}, {"on": true, "note": 62, "velocity": 100, "until": 315.1644800083333}, {"on": false, "note": 62, "velocity": 0, "until": 315.28692850833335}, {"on": true, "note": 62, "velocity": 100, "until": 315.40937700833337}, {"on": false, "note": 62, "velocity": 0, "until": 315.5321133333333}, {"on": true, "note": 50, "velocity": 100, "until": 315.5321133333333}, {"on": true, "note": 62, "velocity": 100, "until": 315.7885233333332}, {"on": false, "note": 50, "velocity": 0, "until": 316.5786972333334}, {"on": false, "note": 62, "velocity": 0, "until": 316.5786972333334}, {"on": true, "note": 50, "velocity": 85, "until": 316.976926233334}, {"on": false, "note": 50, "velocity": 0, "until": 316.976926233334}, {"on": true, "note": 52, "velocity": 85, "until": 317.10928208333405}, {"on": false, "note": 52, "velocity": 0, "until": 317.10928208333405}, {"on": true, "note": 50, "velocity": 85, "until": 317.3592820833342}, {"on": false, "note": 50, "velocity": 0, "until": 317.3592820833342}, {"on": true, "note": 50, "velocity": 85, "until": 317.48428208333434}, {"on": false, "note": 50, "velocity": 0, "until": 317.60955380833445}, {"on": true, "note": 50, "velocity": 85, "until": 317.8704228083346}, {"on": false, "note": 50, "velocity": 0, "until": 317.8704228083346}, {"on": true, "note": 54, "velocity": 85, "until": 318.1310200833348}, {"on": false, "note": 54, "velocity": 0, "until": 318.1310200833348}, {"on": true, "note": 57, "velocity": 85, "until": 318.3810200833349}, {"on": false, "note": 57, "velocity": 0, "until": 318.3810200833349}, {"on": true, "note": 60, "velocity": 85, "until": 318.63129180833494}, {"on": false, "note": 60, "velocity": 0, "until": 318.63129180833494}, {"on": true, "note": 59, "velocity": 85, "until": 319.15275808333524}, {"on": false, "note": 59, "velocity": 0, "until": 319.15275808333524}, {"on": true, "note": 55, "velocity": 85, "until": 319.2777580833353}, {"on": false, "note": 55, "velocity": 0, "until": 319.2777580833353}, {"on": true, "note": 57, "velocity": 85, "until": 319.40275808333536}, {"on": false, "note": 57, "velocity": 0, "until": 319.40275808333536}, {"on": true, "note": 59, "velocity": 85, "until": 319.5277580833354}, {"on": false, "note": 59, "velocity": 0, "until": 319.5277580833354}, {"on": true, "note": 60, "velocity": 85, "until": 319.6530298083355}, {"on": false, "note": 60, "velocity": 0, "until": 319.6530298083355}, {"on": true, "note": 62, "velocity": 85, "until": 319.8595511000022}, {"on": false, "note": 62, "velocity": 0, "until": 319.9138988083356}, {"on": true, "note": 62, "velocity": 85, "until": 320.12042010000243}, {"on": false, "note": 62, "velocity": 0, "until": 320.17449608333584}, {"on": true, "note": 62, "velocity": 85, "until": 320.3724127500025}, {"on": false, "note": 62, "velocity": 0, "until": 320.42449608333595}, {"on": true, "note": 62, "velocity": 85, "until": 320.62241275000264}, {"on": false, "note": 62, "velocity": 0, "until": 320.67476780833607}, {"on": true, "note": 50, "velocity": 85, "until": 321.0660713083363}, {"on": false, "note": 50, "velocity": 0, "until": 321.0660713083363}, {"on": true, "note": 52, "velocity": 85, "until": 321.19623408333644}, {"on": false, "note": 52, "velocity": 0, "until": 321.19623408333644}, {"on": true, "note": 50, "velocity": 85, "until": 321.4462340833365}, {"on": false, "note": 50, "velocity": 0, "until": 321.4462340833365}, {"on": true, "note": 50, "velocity": 85, "until": 321.57123408333655}, {"on": false, "note": 50, "velocity": 0, "until": 321.6965058083366}, {"on": true, "note": 50, "velocity": 85, "until": 321.95737480833674}, {"on": false, "note": 50, "velocity": 0, "until": 321.95737480833674}, {"on": true, "note": 54, "velocity": 85, "until": 322.217972083337}, {"on": false, "note": 54, "velocity": 0, "until": 322.217972083337}, {"on": true, "note": 57, "velocity": 85, "until": 322.46797208333703}, {"on": false, "note": 57, "velocity": 0, "until": 322.46797208333703}, {"on": true, "note": 60, "velocity": 85, "until": 322.71813233333694}, {"on": false, "note": 60, "velocity": 0, "until": 322.71813233333694}, {"on": true, "note": 59, "velocity": 85, "until": 323.2306645083369}, {"on": false, "note": 59, "velocity": 0, "until": 323.2306645083369}, {"on": true, "note": 55, "velocity": 85, "until": 323.3531130083369}, {"on": false, "note": 55, "velocity": 0, "until": 323.3531130083369}, {"on": true, "note": 57, "velocity": 85, "until": 323.4755615083369}, {"on": false, "note": 57, "velocity": 0, "until": 323.4755615083369}, {"on": true, "note": 59, "velocity": 85, "until": 323.5980100083369}, {"on": false, "note": 59, "velocity": 0, "until": 323.5980100083369}, {"on": true, "note": 60, "velocity": 85, "until": 323.7207463333369}, {"on": false, "note": 60, "velocity": 0, "until": 323.7207463333369}, {"on": true, "note": 62, "velocity": 85, "until": 323.92373758333684}, {"on": false, "note": 62, "velocity": 0, "until": 323.9771563333368}, {"on": true, "note": 62, "velocity": 85, "until": 324.1801475833367}, {"on": false, "note": 62, "velocity": 0, "until": 324.2332785083367}, {"on": true, "note": 62, "velocity": 85, "until": 324.4271553000034}, {"on": false, "note": 62, "velocity": 0, "until": 324.47817550833673}, {"on": true, "note": 62, "velocity": 85, "until": 324.67205230000343}, {"on": false, "note": 62, "velocity": 0, "until": 324.7233603333367}, {"on": true, "note": 55, "velocity": 85, "until": 324.7233603333367}, {"on": true, "note": 59, "velocity": 85, "until": 324.9797703333366}, {"on": false, "note": 59, "velocity": 0, "until": 324.9797703333366}, {"on": false, "note": 55, "velocity": 0, "until": 325.2357461583366}, {"on": true, "note": 52, "velocity": 100, "until": 325.3712038583365}, {"on": false, "note": 52, "velocity": 0, "until": 325.4747891583365}, {"on": true, "note": 52, "velocity": 100, "until": 325.6102468583364}, {"on": false, "note": 52, "velocity": 0, "until": 325.71410608333645}, {"on": true, "note": 57, "velocity": 100, "until": 325.96410608333645}, {"on": false, "note": 57, "velocity": 0, "until": 326.2137615833364}, {"on": true, "note": 55, "velocity": 100, "until": 326.3476195833363}, {"on": false, "note": 55, "velocity": 0, "until": 326.4499815833362}, {"on": true, "note": 55, "velocity": 100, "until": 326.5838395833361}, {"on": false, "note": 55, "velocity": 0, "until": 326.6864689083361}, {"on": true, "note": 60, "velocity": 100, "until": 326.93470908333614}, {"on": false, "note": 60, "velocity": 0, "until": 333.180742583336}, {"on": true, "note": 52, "velocity": 100, "until": 333.3146005833359}, {"on": false, "note": 52, "velocity": 0, "until": 333.41696258333576}, {"on": true, "note": 52, "velocity": 100, "until": 333.5508205833357}, {"on": false, "note": 52, "velocity": 0, "until": 333.6534246083357}, {"on": true, "note": 57, "velocity": 100, "until": 333.8993256083357}, {"on": false, "note": 57, "velocity": 0, "until": 334.14493845833573}, {"on": true, "note": 55, "velocity": 100, "until": 334.27775095833573}, {"on": false, "note": 55, "velocity": 0, "until": 334.37931345833573}, {"on": true, "note": 55, "velocity": 100, "until": 334.51212595833573}, {"on": false, "note": 55, "velocity": 0, "until": 334.6139019333358}, {"on": true, "note": 60, "velocity": 100, "until": 334.8582430833358}, {"on": false, "note": 60, "velocity": 0, "until": 337.99151825833593}, {"on": true, "note": 61, "velocity": 100, "until": 337.99151825833593}, {"on": true, "note": 49, "velocity": 100, "until": 338.20144134166935}, {"on": false, "note": 49, "velocity": 0, "until": 338.20144134166935}, {"on": false, "note": 61, "velocity": 0, "until": 338.2205252583361}, {"on": true, "note": 49, "velocity": 100, "until": 338.2205252583361}, {"on": true, "note": 61, "velocity": 100, "until": 338.43044834166955}, {"on": false, "note": 61, "velocity": 0, "until": 338.43044834166955}, {"on": false, "note": 49, "velocity": 0, "until": 338.4498799333363}, {"on": true, "note": 62, "velocity": 100, "until": 338.4498799333363}, {"on": true, "note": 50, "velocity": 100, "until": 338.936100583337}, {"on": false, "note": 50, "velocity": 0, "until": 338.936100583337}, {"on": false, "note": 62, "velocity": 0, "until": 338.936100583337}, {"on": true, "note": 50, "velocity": 100, "until": 339.065410583337}, {"on": false, "note": 50, "velocity": 0, "until": 339.194024308337}, {"on": true, "note": 50, "velocity": 100, "until": 339.42509693333704}, {"on": false, "note": 50, "velocity": 0, "until": 339.42509693333704}, {"on": true, "note": 64, "velocity": 120, "until": 339.91073443333704}, {"on": false, "note": 64, "velocity": 0, "until": 339.91073443333704}, {"on": true, "note": 62, "velocity": 113, "until": 340.0283814333371}, {"on": false, "note": 62, "velocity": 0, "until": 340.0283814333371}, {"on": true, "note": 60, "velocity": 111, "until": 340.1460284333371}, {"on": false, "note": 60, "velocity": 0, "until": 340.1460284333371}, {"on": true, "note": 59, "velocity": 109, "until": 340.2636754333371}, {"on": false, "note": 59, "velocity": 0, "until": 340.2636754333371}, {"on": true, "note": 57, "velocity": 107, "until": 340.3815129333371}, {"on": false, "note": 57, "velocity": 0, "until": 340.3815129333371}, {"on": true, "note": 55, "velocity": 105, "until": 340.6244269333371}, {"on": false, "note": 55, "velocity": 0, "until": 343.7363984333376}, {"on": true, "note": 62, "velocity": 100, "until": 343.8540454333376}, {"on": false, "note": 62, "velocity": 0, "until": 343.9716924333376}, {"on": true, "note": 62, "velocity": 100, "until": 344.20717693333756}, {"on": false, "note": 62, "velocity": 0, "until": 344.20717693333756}, {"on": true, "note": 67, "velocity": 120, "until": 344.6928144333375}, {"on": false, "note": 67, "velocity": 0, "until": 344.6928144333375}, {"on": true, "note": 66, "velocity": 113, "until": 344.8104614333375}, {"on": false, "note": 66, "velocity": 0, "until": 344.8104614333375}, {"on": true, "note": 64, "velocity": 111, "until": 344.92810843333746}, {"on": false, "note": 64, "velocity": 0, "until": 344.92810843333746}, {"on": true, "note": 62, "velocity": 109, "until": 345.04575543333743}, {"on": false, "note": 62, "velocity": 0, "until": 345.04575543333743}, {"on": true, "note": 60, "velocity": 107, "until": 345.16359293333744}, {"on": false, "note": 60, "velocity": 0, "until": 345.16359293333744}, {"on": true, "note": 59, "velocity": 105, "until": 345.40650693333754}, {"on": false, "note": 59, "velocity": 0, "until": 347.0764249333379}, {"on": true, "note": 62, "velocity": 100, "until": 348.0328409333378}, {"on": false, "note": 62, "velocity": 0, "until": 348.0328409333378}, {"on": true, "note": 55, "velocity": 100, "until": 348.2765313833378}, {"on": false, "note": 55, "velocity": 0, "until": 349.0094240833379}, {"on": true, "note": 50, "velocity": 100, "until": 349.24942408333794}, {"on": false, "note": 50, "velocity": 0, "until": 349.94751093333815}, {"on": true, "note": 55, "velocity": 100, "until": 350.19042493333825}, {"on": false, "note": 55, "velocity": 0, "until": 350.8913529333385}, {"on": true, "note": 50, "velocity": 100, "until": 351.13426693333855}, {"on": false, "note": 50, "velocity": 0, "until": 351.8350744583386}, {"on": true, "note": 43, "velocity": 100, "until": 352.0757885083386}, {"on": false, "note": 43, "velocity": 0, "until": 362.3822095083401}, {"on": true, "note": 67, "velocity": 100, "until": 362.3822095083401}, {"on": true, "note": 64, "velocity": 100, "until": 362.87165030834007}, {"on": false, "note": 64, "velocity": 0, "until": 362.87165030834007}, {"on": false, "note": 67, "velocity": 0, "until": 364.2848735083402}, {"on": true, "note": 67, "velocity": 100, "until": 364.2848735083402}, {"on": true, "note": 61, "velocity": 100, "until": 364.77431430834014}, {"on": false, "note": 61, "velocity": 0, "until": 364.77431430834014}, {"on": false, "note": 67, "velocity": 0, "until": 366.18753750834026}, {"on": true, "note": 61, "velocity": 100, "until": 366.18753750834026}, {"on": true, "note": 57, "velocity": 100, "until": 366.43243450834024}, {"on": false, "note": 57, "velocity": 0, "until": 366.43243450834024}, {"on": false, "note": 61, "velocity": 0, "until": 366.67697830834015}, {"on": true, "note": 61, "velocity": 100, "until": 366.67697830834015}, {"on": true, "note": 57, "velocity": 100, "until": 366.9077473083401}, {"on": false, "note": 57, "velocity": 0, "until": 366.9077473083401}, {"on": false, "note": 61, "velocity": 0, "until": 367.1388695083401}, {"on": true, "note": 61, "velocity": 100, "until": 367.1388695083401}, {"on": true, "note": 57, "velocity": 100, "until": 367.3837665083401}, {"on": false, "note": 57, "velocity": 0, "until": 367.3837665083401}, {"on": false, "note": 61, "velocity": 0, "until": 367.62831030834}, {"on": true, "note": 61, "velocity": 100, "until": 367.62831030834}, {"on": true, "note": 57, "velocity": 100, "until": 367.85907930834}, {"on": false, "note": 57, "velocity": 0, "until": 367.85907930834}, {"on": false, "note": 61, "velocity": 0, "until": 368.09071623334006}, {"on": true, "note": 61, "velocity": 100, "until": 368.09071623334006}, {"on": true, "note": 57, "velocity": 100, "until": 368.35568750834005}, {"on": false, "note": 57, "velocity": 0, "until": 368.35568750834005}, {"on": false, "note": 61, "velocity": 0, "until": 370.0296485083401}, {"on": true, "note": 65, "velocity": 100, "until": 370.0296485083401}, {"on": true, "note": 62, "velocity": 100, "until": 371.93231250834}, {"on": false, "note": 62, "velocity": 0, "until": 371.93231250834}, {"on": false, "note": 65, "velocity": 0, "until": 371.93231250834}, {"on": true, "note": 60, "velocity": 100, "until": 371.93231250834}, {"on": true, "note": 69, "velocity": 100, "until": 372.17720950834}, {"on": false, "note": 69, "velocity": 0, "until": 372.17720950834}, {"on": false, "note": 60, "velocity": 0, "until": 372.88364450834007}, {"on": true, "note": 67, "velocity": 100, "until": 372.88364450834007}, {"on": true, "note": 60, "velocity": 100, "until": 373.1285415083401}, {"on": false, "note": 60, "velocity": 0, "until": 373.1285415083401}, {"on": false, "note": 67, "velocity": 0, "until": 381.456684908341}, {"on": true, "note": 60, "velocity": 100, "until": 381.456684908341}, {"on": true, "note": 57, "velocity": 100, "until": 381.58014140834104}, {"on": false, "note": 57, "velocity": 0, "until": 381.58014140834104}, {"on": false, "note": 60, "velocity": 0, "until": 381.70359790834107}, {"on": true, "note": 60, "velocity": 100, "until": 381.70359790834107}, {"on": true, "note": 57, "velocity": 100, "until": 381.8270544083411}, {"on": false, "note": 57, "velocity": 0, "until": 381.8270544083411}, {"on": false, "note": 60, "velocity": 0, "until": 381.9502204333411}, {"on": true, "note": 60, "velocity": 100, "until": 381.9502204333411}, {"on": true, "note": 57, "velocity": 100, "until": 382.0678674333411}, {"on": false, "note": 57, "velocity": 0, "until": 382.0678674333411}, {"on": false, "note": 60, "velocity": 0, "until": 384.3544918333409}, {"on": true, "note": 62, "velocity": 80, "until": 384.3544918333409}, {"on": true, "note": 58, "velocity": 80, "until": 384.4832468333409}, {"on": false, "note": 58, "velocity": 0, "until": 384.4832468333409}, {"on": false, "note": 62, "velocity": 0, "until": 384.61200183334097}, {"on": true, "note": 62, "velocity": 80, "until": 384.61200183334097}, {"on": true, "note": 58, "velocity": 80, "until": 384.740756833341}, {"on": false, "note": 58, "velocity": 0, "until": 384.740756833341}, {"on": false, "note": 62, "velocity": 0, "until": 384.86912245834105}, {"on": true, "note": 62, "velocity": 80, "until": 384.86912245834105}, {"on": true, "note": 58, "velocity": 80, "until": 384.99008995834106}, {"on": false, "note": 58, "velocity": 0, "until": 384.99008995834106}, {"on": false, "note": 62, "velocity": 0, "until": 385.3534095833411}, {"on": true, "note": 65, "velocity": 80, "until": 385.3534095833411}, {"on": true, "note": 58, "velocity": 80, "until": 385.4827195833411}, {"on": false, "note": 58, "velocity": 0, "until": 385.4827195833411}, {"on": false, "note": 65, "velocity": 0, "until": 385.61202958334115}, {"on": true, "note": 65, "velocity": 80, "until": 385.61202958334115}, {"on": true, "note": 58, "velocity": 80, "until": 385.7413395833412}, {"on": false, "note": 58, "velocity": 0, "until": 385.7413395833412}, {"on": false, "note": 65, "velocity": 0, "until": 385.87028163334116}, {"on": true, "note": 65, "velocity": 80, "until": 385.87028163334116}, {"on": true, "note": 58, "velocity": 80, "until": 385.9922326333412}, {"on": false, "note": 58, "velocity": 0, "until": 385.9922326333412}, {"on": false, "note": 65, "velocity": 0, "until": 386.35839833334114}, {"on": true, "note": 65, "velocity": 80, "until": 386.35839833334114}, {"on": true, "note": 58, "velocity": 80, "until": 386.4866033333411}, {"on": false, "note": 58, "velocity": 0, "until": 386.4866033333411}, {"on": false, "note": 65, "velocity": 0, "until": 386.61480833334105}, {"on": true, "note": 65, "velocity": 80, "until": 386.61480833334105}, {"on": true, "note": 58, "velocity": 80, "until": 386.743013333341}, {"on": false, "note": 58, "velocity": 0, "until": 386.743013333341}, {"on": false, "note": 65, "velocity": 0, "until": 386.870930508341}, {"on": true, "note": 65, "velocity": 80, "until": 386.870930508341}, {"on": true, "note": 58, "velocity": 80, "until": 386.99337900834104}, {"on": false, "note": 58, "velocity": 0, "until": 386.99337900834104}, {"on": false, "note": 65, "velocity": 0, "until": 387.36106758334114}, {"on": true, "note": 65, "velocity": 80, "until": 387.36106758334114}, {"on": true, "note": 58, "velocity": 80, "until": 387.49037758334117}, {"on": false, "note": 58, "velocity": 0, "until": 387.49037758334117}, {"on": false, "note": 65, "velocity": 0, "until": 387.6196875833412}, {"on": true, "note": 65, "velocity": 80, "until": 387.6196875833412}, {"on": true, "note": 58, "velocity": 80, "until": 387.74899758334124}, {"on": false, "note": 58, "velocity": 0, "until": 387.74899758334124}, {"on": false, "note": 65, "velocity": 0, "until": 387.87804040834123}, {"on": true, "note": 65, "velocity": 80, "until": 387.87804040834123}, {"on": true, "note": 58, "velocity": 80, "until": 388.0020069083413}, {"on": false, "note": 58, "velocity": 0, "until": 388.0020069083413}, {"on": false, "note": 65, "velocity": 0, "until": 388.3742582833412}, {"on": true, "note": 65, "velocity": 80, "until": 388.3742582833412}, {"on": true, "note": 58, "velocity": 80, "until": 388.50526228334127}, {"on": false, "note": 58, "velocity": 0, "until": 388.50526228334127}, {"on": false, "note": 65, "velocity": 0, "until": 388.6362662833413}, {"on": true, "note": 65, "velocity": 80, "until": 388.6362662833413}, {"on": true, "note": 58, "velocity": 80, "until": 388.76727028334136}, {"on": false, "note": 58, "velocity": 0, "until": 388.76727028334136}, {"on": false, "note": 65, "velocity": 0, "until": 388.89805318334146}, {"on": true, "note": 65, "velocity": 80, "until": 388.89805318334146}, {"on": true, "note": 58, "velocity": 80, "until": 389.02463518334156}, {"on": false, "note": 58, "velocity": 0, "until": 389.02463518334156}, {"on": false, "note": 65, "velocity": 0, "until": 403.9114165083412}, {"on": true, "note": 65, "velocity": 100, "until": 404.4011364583412}, {"on": false, "note": 65, "velocity": 0, "until": 404.4011364583412}, {"on": true, "note": 63, "velocity": 100, "until": 404.8851056083413}, {"on": false, "note": 63, "velocity": 0, "until": 404.8851056083413}, {"on": true, "note": 56, "velocity": 100, "until": 405.13100660834135}, {"on": false, "note": 56, "velocity": 0, "until": 423.85973050834144}, {"on": true, "note": 48, "velocity": 90, "until": 423.85973050834144}, {"on": true, "note": 60, "velocity": 90, "until": 424.30054510834145}, {"on": false, "note": 60, "velocity": 0, "until": 424.30054510834145}, {"on": false, "note": 48, "velocity": 0, "until": 424.3491713083414}, {"on": true, "note": 48, "velocity": 90, "until": 424.3491713083414}, {"on": true, "note": 60, "velocity": 90, "until": 424.7645555083413}, {"on": false, "note": 60, "velocity": 0, "until": 424.7645555083413}, {"on": false, "note": 48, "velocity": 0, "until": 424.8110625083413}, {"on": true, "note": 60, "velocity": 90, "until": 424.8110625083413}, {"on": true, "note": 48, "velocity": 90, "until": 425.30050330834126}, {"on": false, "note": 48, "velocity": 0, "until": 425.30050330834126}, {"on": false, "note": 60, "velocity": 0, "until": 427.66393250834193}, {"on": true, "note": 60, "velocity": 90, "until": 427.66393250834193}, {"on": true, "note": 48, "velocity": 90, "until": 428.1533733083419}, {"on": false, "note": 48, "velocity": 0, "until": 428.1533733083419}, {"on": false, "note": 60, "velocity": 0, "until": 428.1533733083419}, {"on": true, "note": 60, "velocity": 90, "until": 428.1533733083419}, {"on": true, "note": 48, "velocity": 90, "until": 428.6152645083418}, {"on": false, "note": 48, "velocity": 0, "until": 428.6152645083418}, {"on": false, "note": 60, "velocity": 0, "until": 428.6152645083418}, {"on": true, "note": 60, "velocity": 90, "until": 428.6152645083418}, {"on": true, "note": 48, "velocity": 90, "until": 429.10470530834175}, {"on": false, "note": 48, "velocity": 0, "until": 429.10470530834175}, {"on": false, "note": 60, "velocity": 0, "until": 429.56637958334153}, {"on": true, "note": 56, "velocity": 100, "until": 429.56637958334153}, {"on": true, "note": 59, "velocity": 100, "until": 429.6844895833415}, {"on": false, "note": 59, "velocity": 0, "until": 429.6844895833415}, {"on": false, "note": 56, "velocity": 0, "until": 429.80259958334136}, {"on": true, "note": 57, "velocity": 100, "until": 429.80259958334136}, {"on": true, "note": 60, "velocity": 100, "until": 429.9207095833413}, {"on": false, "note": 60, "velocity": 0, "until": 429.9207095833413}, {"on": false, "note": 57, "velocity": 0, "until": 430.0388195833412}, {"on": true, "note": 56, "velocity": 100, "until": 430.0388195833412}, {"on": true, "note": 59, "velocity": 100, "until": 430.15692958334114}, {"on": false, "note": 59, "velocity": 0, "until": 430.15692958334114}, {"on": false, "note": 56, "velocity": 0, "until": 430.275039583341}, {"on": true, "note": 57, "velocity": 100, "until": 430.275039583341}, {"on": true, "note": 60, "velocity": 100, "until": 430.39314958334097}, {"on": false, "note": 60, "velocity": 0, "until": 430.39314958334097}, {"on": false, "note": 57, "velocity": 0, "until": 430.51125958334086}, {"on": true, "note": 59, "velocity": 100, "until": 430.51125958334086}, {"on": true, "note": 56, "velocity": 100, "until": 430.9835633083398}, {"on": false, "note": 56, "velocity": 0, "until": 430.9835633083398}, {"on": false, "note": 59, "velocity": 0, "until": 432.68869150833996}, {"on": true, "note": 65, "velocity": 100, "until": 432.87644587500665}, {"on": false, "note": 65, "velocity": 0, "until": 432.93323530833993}, {"on": true, "note": 65, "velocity": 100, "until": 433.11015820833984}, {"on": false, "note": 65, "velocity": 0, "until": 433.16400430833977}, {"on": true, "note": 65, "velocity": 100, "until": 433.34092720833974}, {"on": false, "note": 65, "velocity": 0, "until": 433.39512650833973}, {"on": true, "note": 64, "velocity": 100, "until": 433.64002350833977}, {"on": false, "note": 64, "velocity": 0, "until": 434.59135550833986}, {"on": true, "note": 64, "velocity": 100, "until": 434.77910987500655}, {"on": false, "note": 64, "velocity": 0, "until": 434.83589930833983}, {"on": true, "note": 64, "velocity": 100, "until": 435.0128222083396}, {"on": false, "note": 64, "velocity": 0, "until": 435.0666683083395}, {"on": true, "note": 64, "velocity": 100, "until": 435.24359120833935}, {"on": false, "note": 64, "velocity": 0, "until": 435.29779050833935}, {"on": true, "note": 62, "velocity": 100, "until": 435.29779050833935}, {"on": true, "note": 55, "velocity": 100, "until": 435.42023900833937}, {"on": false, "note": 55, "velocity": 0, "until": 435.42023900833937}, {"on": false, "note": 62, "velocity": 0, "until": 435.5426875083394}, {"on": true, "note": 62, "velocity": 100, "until": 435.5426875083394}, {"on": true, "note": 59, "velocity": 100, "until": 436.01800030833914}, {"on": false, "note": 59, "velocity": 0, "until": 436.01800030833914}, {"on": false, "note": 62, "velocity": 0, "until": 436.01800030833914}, {"on": true, "note": 64, "velocity": 100, "until": 436.01800030833914}, {"on": true, "note": 60, "velocity": 100, "until": 436.24912250833916}, {"on": false, "note": 60, "velocity": 0, "until": 436.24912250833916}, {"on": false, "note": 64, "velocity": 0, "until": 436.24912250833916}, {"on": true, "note": 65, "velocity": 100, "until": 436.24912250833916}, {"on": true, "note": 62, "velocity": 100, "until": 436.3715710083392}, {"on": false, "note": 62, "velocity": 0, "until": 436.3715710083392}, {"on": false, "note": 65, "velocity": 0, "until": 436.4940195083392}, {"on": true, "note": 62, "velocity": 100, "until": 436.4940195083392}, {"on": true, "note": 59, "velocity": 100, "until": 436.96933230833895}, {"on": false, "note": 59, "velocity": 0, "until": 436.96933230833895}, {"on": false, "note": 62, "velocity": 0, "until": 436.96933230833895}, {"on": true, "note": 64, "velocity": 100, "until": 436.96933230833895}, {"on": true, "note": 60, "velocity": 100, "until": 437.20045450833896}, {"on": false, "note": 60, "velocity": 0, "until": 437.20045450833896}, {"on": false, "note": 64, "velocity": 0, "until": 437.20045450833896}, {"on": true, "note": 65, "velocity": 100, "until": 437.20045450833896}, {"on": true, "note": 62, "velocity": 100, "until": 437.322903008339}, {"on": false, "note": 62, "velocity": 0, "until": 437.322903008339}, {"on": false, "note": 65, "velocity": 0, "until": 437.445351508339}, {"on": true, "note": 62, "velocity": 100, "until": 437.445351508339}, {"on": true, "note": 59, "velocity": 100, "until": 437.92066430833876}, {"on": false, "note": 59, "velocity": 0, "until": 437.92066430833876}, {"on": false, "note": 62, "velocity": 0, "until": 437.92066430833876}, {"on": true, "note": 64, "velocity": 100, "until": 437.92066430833876}, {"on": true, "note": 60, "velocity": 100, "until": 438.1517865083388}, {"on": false, "note": 60, "velocity": 0, "until": 438.1517865083388}, {"on": false, "note": 64, "velocity": 0, "until": 438.1517865083388}, {"on": true, "note": 59, "velocity": 100, "until": 438.1517865083388}, {"on": true, "note": 62, "velocity": 100, "until": 438.3966835083388}, {"on": false, "note": 62, "velocity": 0, "until": 438.3966835083388}, {"on": false, "note": 59, "velocity": 0, "until": 442.7378163083384}, {"on": true, "note": 48, "velocity": 100, "until": 442.86858540833833}, {"on": false, "note": 48, "velocity": 0, "until": 442.9688160833383}, {"on": true, "note": 53, "velocity": 100, "until": 443.0888160833384}, {"on": false, "note": 53, "velocity": 0, "until": 443.20881608333843}, {"on": true, "note": 48, "velocity": 100, "until": 443.3288160833385}, {"on": false, "note": 48, "velocity": 0, "until": 443.44881608333856}, {"on": true, "note": 53, "velocity": 100, "until": 443.5688160833386}, {"on": false, "note": 53, "velocity": 0, "until": 443.6888160833387}, {"on": true, "note": 48, "velocity": 100, "until": 443.80881608333874}, {"on": false, "note": 48, "velocity": 0, "until": 443.9288160833388}, {"on": true, "note": 53, "velocity": 100, "until": 444.40858530833964}, {"on": false, "note": 53, "velocity": 0, "until": 446.52381630833906}, {"on": true, "note": 55, "velocity": 100, "until": 446.639200808339}, {"on": false, "note": 55, "velocity": 0, "until": 446.7547215833389}, {"on": true, "note": 60, "velocity": 100, "until": 446.8728315833388}, {"on": false, "note": 60, "velocity": 0, "until": 446.99094158333867}, {"on": true, "note": 55, "velocity": 100, "until": 447.10905158333856}, {"on": false, "note": 55, "velocity": 0, "until": 447.22716158333844}, {"on": true, "note": 60, "velocity": 100, "until": 447.34527158333833}, {"on": false, "note": 60, "velocity": 0, "until": 447.4633815833382}, {"on": true, "note": 55, "velocity": 100, "until": 447.5814915833381}, {"on": false, "note": 55, "velocity": 0, "until": 447.699601583338}, {"on": true, "note": 60, "velocity": 100, "until": 447.9358215833379}, {"on": false, "note": 60, "velocity": 0, "until": 448.1719053083378}, {"on": true, "note": 55, "velocity": 100, "until": 448.6142125583375}, {"on": false, "note": 55, "velocity": 0, "until": 448.6337965083375}, {"on": true, "note": 52, "velocity": 100, "until": 449.1031824250042}, {"on": false, "note": 52, "velocity": 0, "until": 449.1232373083375}, {"on": true, "note": 54, "velocity": 100, "until": 449.5655445583372}, {"on": false, "note": 54, "velocity": 0, "until": 449.5851285083372}, {"on": true, "note": 55, "velocity": 100, "until": 450.0545144250039}, {"on": false, "note": 55, "velocity": 0, "until": 450.0745693083372}, {"on": true, "note": 43, "velocity": 100, "until": 450.5168765583369}, {"on": false, "note": 43, "velocity": 0, "until": 450.5364605083369}, {"on": true, "note": 48, "velocity": 100, "until": 451.2566703083369}, {"on": false, "note": 48, "velocity": 0, "until": 451.2566703083369}, {"on": true, "note": 51, "velocity": 100, "until": 451.44320858333685}, {"on": false, "note": 51, "velocity": 0, "until": 451.4877925083369}, {"on": true, "note": 48, "velocity": 100, "until": 452.2080023083364}, {"on": false, "note": 48, "velocity": 0, "until": 452.2080023083364}, {"on": true, "note": 51, "velocity": 100, "until": 452.3945405833364}, {"on": false, "note": 51, "velocity": 0, "until": 452.4391245083364}, {"on": true, "note": 48, "velocity": 100, "until": 452.68402150833646}, {"on": false, "note": 48, "velocity": 0, "until": 452.68402150833646}, {"on": true, "note": 51, "velocity": 100, "until": 452.90851042500316}, {"on": false, "note": 51, "velocity": 0, "until": 452.92856530833643}, {"on": true, "note": 48, "velocity": 100, "until": 453.1593343083361}, {"on": false, "note": 48, "velocity": 0, "until": 453.1593343083361}, {"on": true, "note": 51, "velocity": 100, "until": 453.37087255833603}, {"on": false, "note": 51, "velocity": 0, "until": 453.39045650833606}, {"on": true, "note": 48, "velocity": 100, "until": 453.6353535083361}, {"on": false, "note": 48, "velocity": 0, "until": 453.6353535083361}, {"on": true, "note": 51, "velocity": 100, "until": 453.8598424250028}, {"on": false, "note": 51, "velocity": 0, "until": 453.87989730833607}, {"on": true, "note": 48, "velocity": 100, "until": 454.11066630833574}, {"on": false, "note": 48, "velocity": 0, "until": 454.11066630833574}, {"on": true, "note": 51, "velocity": 100, "until": 454.32220455833567}, {"on": false, "note": 51, "velocity": 0, "until": 454.3417885083357}, {"on": true, "note": 56, "velocity": 100, "until": 455.06199830833566}, {"on": false, "note": 56, "velocity": 0, "until": 455.06199830833566}, {"on": true, "note": 55, "velocity": 100, "until": 455.2735365583356}, {"on": false, "note": 55, "velocity": 0, "until": 455.2931205083356}, {"on": true, "note": 56, "velocity": 100, "until": 456.0133303083356}, {"on": false, "note": 56, "velocity": 0, "until": 456.0133303083356}, {"on": true, "note": 55, "velocity": 100, "until": 456.2248685583355}, {"on": false, "note": 55, "velocity": 0, "until": 456.24445250833554}, {"on": true, "note": 56, "velocity": 100, "until": 456.4893495083356}, {"on": false, "note": 56, "velocity": 0, "until": 456.4893495083356}, {"on": true, "note": 55, "velocity": 100, "until": 456.7138384250023}, {"on": false, "note": 55, "velocity": 0, "until": 456.73389330833555}, {"on": true, "note": 56, "velocity": 100, "until": 456.9646623083352}, {"on": false, "note": 56, "velocity": 0, "until": 456.9646623083352}, {"on": true, "note": 55, "velocity": 100, "until": 457.17620055833515}, {"on": false, "note": 55, "velocity": 0, "until": 457.1957845083352}, {"on": true, "note": 56, "velocity": 100, "until": 457.4406815083352}, {"on": false, "note": 56, "velocity": 0, "until": 457.4406815083352}, {"on": true, "note": 55, "velocity": 100, "until": 457.6651704250019}, {"on": false, "note": 55, "velocity": 0, "until": 457.6852253083352}, {"on": true, "note": 56, "velocity": 100, "until": 458.1275325583348}, {"on": false, "note": 56, "velocity": 0, "until": 458.1471165083348}, {"on": true, "note": 55, "velocity": 100, "until": 458.39201350833486}, {"on": false, "note": 55, "velocity": 0, "until": 470.739346508332}, {"on": true, "note": 55, "velocity": 80, "until": 470.861795008332}, {"on": false, "note": 55, "velocity": 0, "until": 470.984531333332}, {"on": true, "note": 67, "velocity": 80, "until": 471.74196050833206}, {"on": false, "note": 67, "velocity": 0, "until": 471.74196050833206}, {"on": true, "note": 63, "velocity": 80, "until": 471.8644090083321}, {"on": false, "note": 63, "velocity": 0, "until": 471.987145333332}, {"on": true, "note": 60, "velocity": 80, "until": 472.73437046666544}, {"on": false, "note": 60, "velocity": 0, "until": 472.7445745083321}, {"on": true, "note": 60, "velocity": 80, "until": 472.8670230083321}, {"on": false, "note": 60, "velocity": 0, "until": 472.9897593333321}, {"on": true, "note": 66, "velocity": 80, "until": 473.5022915083321}, {"on": false, "note": 66, "velocity": 0, "until": 478.03052523333065}, {"on": true, "note": 43, "velocity": 100, "until": 478.03052523333065}, {"on": true, "note": 55, "velocity": 100, "until": 478.53238945833}, {"on": false, "note": 55, "velocity": 0, "until": 478.53238945833}, {"on": false, "note": 43, "velocity": 0, "until": 480.00244923332997}, {"on": true, "note": 58, "velocity": 100, "until": 480.73616783332943}, {"on": false, "note": 58, "velocity": 0, "until": 480.7462484583295}, {"on": true, "note": 58, "velocity": 100, "until": 480.8672159583295}, {"on": false, "note": 58, "velocity": 0, "until": 480.98841123332943}, {"on": true, "note": 63, "velocity": 100, "until": 481.1139342333294}, {"on": false, "note": 63, "velocity": 0, "until": 481.23945723332935}, {"on": true, "note": 65, "velocity": 100, "until": 481.36498023332933}, {"on": false, "note": 65, "velocity": 0, "until": 481.4902754583294}, {"on": true, "note": 67, "velocity": 100, "until": 481.6112429583294}, {"on": false, "note": 67, "velocity": 0, "until": 481.9742954083294}, {"on": true, "note": 55, "velocity": 100, "until": 481.9742954083294}, {"on": true, "note": 43, "velocity": 100, "until": 482.46989193332934}, {"on": false, "note": 43, "velocity": 0, "until": 482.46989193332934}, {"on": false, "note": 55, "velocity": 0, "until": 483.91464340832914}, {"on": true, "note": 58, "velocity": 100, "until": 484.6375125166627}, {"on": false, "note": 58, "velocity": 0, "until": 484.6473939333293}, {"on": true, "note": 58, "velocity": 100, "until": 484.7659709333292}, {"on": false, "note": 58, "velocity": 0, "until": 484.8848174083292}, {"on": true, "note": 63, "velocity": 100, "until": 485.0087839083292}, {"on": false, "note": 63, "velocity": 0, "until": 485.13275040832923}, {"on": true, "note": 65, "velocity": 100, "until": 485.2567169083292}, {"on": false, "note": 65, "velocity": 0, "until": 485.3804139333291}, {"on": true, "note": 67, "velocity": 100, "until": 485.498990933329}, {"on": false, "note": 67, "velocity": 0, "until": 485.8548659333291}, {"on": true, "note": 50, "velocity": 100, "until": 486.34034625832936}, {"on": false, "note": 50, "velocity": 0, "until": 486.5693532583294}, {"on": true, "note": 48, "velocity": 100, "until": 486.68385675832945}, {"on": false, "note": 48, "velocity": 0, "until": 486.7987079333295}, {"on": true, "note": 46, "velocity": 100, "until": 486.9201649333296}, {"on": false, "note": 46, "velocity": 0, "until": 486.9201649333296}, {"on": true, "note": 50, "velocity": 100, "until": 487.0315005166629}, {"on": false, "note": 50, "velocity": 0, "until": 487.0416219333296}, {"on": true, "note": 48, "velocity": 100, "until": 487.1104475666629}, {"on": false, "note": 48, "velocity": 0, "until": 487.16307893332964}, {"on": true, "note": 45, "velocity": 100, "until": 487.23190456666293}, {"on": false, "note": 45, "velocity": 0, "until": 487.28418825832966}, {"on": true, "note": 43, "velocity": 100, "until": 487.39869175832973}, {"on": false, "note": 43, "velocity": 0, "until": 487.7425499333299}, {"on": true, "note": 53, "velocity": 100, "until": 488.22803025833093}, {"on": false, "note": 53, "velocity": 0, "until": 488.45703725833096}, {"on": true, "note": 51, "velocity": 100, "until": 488.571540758331}, {"on": false, "note": 51, "velocity": 0, "until": 488.6863919333311}, {"on": true, "note": 50, "velocity": 100, "until": 488.8078489333312}, {"on": false, "note": 50, "velocity": 0, "until": 488.8078489333312}, {"on": true, "note": 53, "velocity": 100, "until": 488.9191845166645}, {"on": false, "note": 53, "velocity": 0, "until": 488.9293059333312}, {"on": true, "note": 51, "velocity": 100, "until": 488.9981315666645}, {"on": false, "note": 51, "velocity": 0, "until": 489.0507629333312}, {"on": true, "note": 48, "velocity": 100, "until": 489.1195885666645}, {"on": false, "note": 48, "velocity": 0, "until": 489.17187225833123}, {"on": true, "note": 46, "velocity": 100, "until": 489.2863757583313}, {"on": false, "note": 46, "velocity": 0, "until": 489.6313726083313}, {"on": true, "note": 56, "velocity": 100, "until": 489.6313726083313}, {"on": true, "note": 44, "velocity": 100, "until": 489.918872083331}, {"on": false, "note": 44, "velocity": 0, "until": 490.1584554166646}, {"on": false, "note": 56, "velocity": 0, "until": 490.1685744583312}, {"on": true, "note": 56, "velocity": 100, "until": 490.28762195833116}, {"on": false, "note": 56, "velocity": 0, "until": 490.4066694583311}, {"on": true, "note": 56, "velocity": 100, "until": 490.5257169583311}, {"on": false, "note": 56, "velocity": 0, "until": 490.645222333331}, {"on": true, "note": 56, "velocity": 100, "until": 491.64783633333093}, {"on": false, "note": 56, "velocity": 0, "until": 491.64783633333093}, {"on": true, "note": 55, "velocity": 100, "until": 491.64783633333093}, {"on": true, "note": 43, "velocity": 100, "until": 491.90424633333083}, {"on": false, "note": 43, "velocity": 0, "until": 492.14997258333074}, {"on": false, "note": 55, "velocity": 0, "until": 492.16036850833075}, {"on": true, "note": 55, "velocity": 100, "until": 492.28281700833077}, {"on": false, "note": 55, "velocity": 0, "until": 492.4052655083308}, {"on": true, "note": 55, "velocity": 100, "until": 492.5277140083308}, {"on": false, "note": 55, "velocity": 0, "until": 492.65045033333075}, {"on": true, "note": 55, "velocity": 100, "until": 492.65045033333075}, {"on": true, "note": 43, "velocity": 100, "until": 492.90686033333066}, {"on": false, "note": 43, "velocity": 0, "until": 493.69703423333084}, {"on": false, "note": 55, "velocity": 0, "until": 493.69703423333084}, {"on": true, "note": 55, "velocity": 100, "until": 493.69703423333084}, {"on": true, "note": 48, "velocity": 100, "until": 493.96252023333085}, {"on": false, "note": 48, "velocity": 0, "until": 494.09526323333085}, {"on": false, "note": 55, "velocity": 0, "until": 494.09526323333085}, {"on": true, "note": 57, "velocity": 100, "until": 494.22761908333086}, {"on": false, "note": 57, "velocity": 0, "until": 494.22761908333086}, {"on": true, "note": 55, "velocity": 100, "until": 494.46720241666424}, {"on": false, "note": 55, "velocity": 0, "until": 494.4776190833309}, {"on": true, "note": 55, "velocity": 100, "until": 494.6026190833309}, {"on": false, "note": 55, "velocity": 0, "until": 494.7278908083309}, {"on": true, "note": 55, "velocity": 100, "until": 494.98875980833105}, {"on": false, "note": 55, "velocity": 0, "until": 494.98875980833105}, {"on": true, "note": 59, "velocity": 100, "until": 495.24935708333123}, {"on": false, "note": 59, "velocity": 0, "until": 495.24935708333123}, {"on": true, "note": 62, "velocity": 100, "until": 495.4993570833313}, {"on": false, "note": 62, "velocity": 0, "until": 495.4993570833313}, {"on": true, "note": 65, "velocity": 100, "until": 495.7389404166646}, {"on": false, "note": 65, "velocity": 0, "until": 495.7496288083313}, {"on": true, "note": 64, "velocity": 100, "until": 496.7713668083317}, {"on": false, "note": 64, "velocity": 0, "until": 496.7713668083317}, {"on": true, "note": 65, "velocity": 100, "until": 497.0322358083319}, {"on": false, "note": 65, "velocity": 0, "until": 497.0322358083319}, {"on": true, "note": 62, "velocity": 100, "until": 497.29283308333214}, {"on": false, "note": 62, "velocity": 0, "until": 497.29283308333214}, {"on": true, "note": 59, "velocity": 100, "until": 497.54283308333225}, {"on": false, "note": 59, "velocity": 0, "until": 497.54283308333225}, {"on": true, "note": 55, "velocity": 100, "until": 497.7824164166656}, {"on": false, "note": 55, "velocity": 0, "until": 497.7931048083324}, {"on": true, "note": 55, "velocity": 100, "until": 498.1844083083326}, {"on": false, "note": 55, "velocity": 0, "until": 498.1844083083326}, {"on": true, "note": 57, "velocity": 100, "until": 498.3145710833327}, {"on": false, "note": 57, "velocity": 0, "until": 498.3145710833327}, {"on": true, "note": 55, "velocity": 100, "until": 498.55415441666605}, {"on": false, "note": 55, "velocity": 0, "until": 498.56457108333274}, {"on": true, "note": 55, "velocity": 100, "until": 498.68957108333274}, {"on": false, "note": 55, "velocity": 0, "until": 498.8148428083328}, {"on": true, "note": 55, "velocity": 100, "until": 499.075711808333}, {"on": false, "note": 55, "velocity": 0, "until": 499.075711808333}, {"on": true, "note": 59, "velocity": 100, "until": 499.3363090833332}, {"on": false, "note": 59, "velocity": 0, "until": 499.3363090833332}, {"on": true, "note": 62, "velocity": 100, "until": 499.58630908333333}, {"on": false, "note": 62, "velocity": 0, "until": 499.58630908333333}, {"on": true, "note": 65, "velocity": 100, "until": 499.82589241666665}, {"on": false, "note": 65, "velocity": 0, "until": 499.83646933333324}, {"on": true, "note": 64, "velocity": 100, "until": 500.83908333333324}, {"on": false, "note": 64, "velocity": 0, "until": 500.83908333333324}, {"on": true, "note": 65, "velocity": 100, "until": 501.09549333333314}, {"on": false, "note": 65, "velocity": 0, "until": 501.09549333333314}, {"on": true, "note": 62, "velocity": 100, "until": 501.3516155083331}, {"on": false, "note": 62, "velocity": 0, "until": 501.3516155083331}, {"on": true, "note": 59, "velocity": 100, "until": 501.59651250833315}, {"on": false, "note": 59, "velocity": 0, "until": 501.59651250833315}, {"on": true, "note": 55, "velocity": 100, "until": 501.8312054666665}, {"on": false, "note": 55, "velocity": 0, "until": 501.8416973333331}, {"on": true, "note": 60, "velocity": 100, "until": 502.098107333333}, {"on": false, "note": 60, "velocity": 0, "until": 502.354083158333}, {"on": true, "note": 57, "velocity": 100, "until": 502.489540858333}, {"on": false, "note": 57, "velocity": 0, "until": 502.59312615833295}, {"on": true, "note": 57, "velocity": 100, "until": 502.7285838583329}, {"on": false, "note": 57, "velocity": 0, "until": 502.8324430833329}, {"on": true, "note": 50, "velocity": 100, "until": 503.0824430833329}, {"on": false, "note": 50, "velocity": 0, "until": 503.3320985833328}, {"on": true, "note": 48, "velocity": 100, "until": 503.46595658333274}, {"on": false, "note": 48, "velocity": 0, "until": 503.5683185833326}, {"on": true, "note": 48, "velocity": 100, "until": 503.7021765833325}, {"on": false, "note": 48, "velocity": 0, "until": 503.8048059083325}, {"on": true, "note": 53, "velocity": 100, "until": 504.05304608333256}, {"on": false, "note": 53, "velocity": 0, "until": 508.3295329333327}, {"on": true, "note": 55, "velocity": 100, "until": 508.45098993333266}, {"on": false, "note": 55, "velocity": 0, "until": 508.5724469333326}, {"on": true, "note": 55, "velocity": 100, "until": 508.81556423333257}, {"on": false, "note": 55, "velocity": 0, "until": 508.81556423333257}, {"on": true, "note": 69, "velocity": 100, "until": 509.31742845833236}, {"on": false, "note": 69, "velocity": 0, "until": 509.31742845833236}, {"on": true, "note": 67, "velocity": 100, "until": 509.43839595833236}, {"on": false, "note": 67, "velocity": 0, "until": 509.43839595833236}, {"on": true, "note": 65, "velocity": 100, "until": 509.55936345833237}, {"on": false, "note": 65, "velocity": 0, "until": 509.55936345833237}, {"on": true, "note": 64, "velocity": 100, "until": 509.6803309583324}, {"on": false, "note": 64, "velocity": 0, "until": 509.6803309583324}, {"on": true, "note": 62, "velocity": 100, "until": 509.8014741333323}, {"on": false, "note": 62, "velocity": 0, "until": 509.8014741333323}, {"on": true, "note": 60, "velocity": 100, "until": 510.05043613333225}, {"on": false, "note": 60, "velocity": 0, "until": 510.2990795833322}, {"on": true, "note": 57, "velocity": 100, "until": 510.4329375833321}, {"on": false, "note": 57, "velocity": 0, "until": 510.53529958333195}, {"on": true, "note": 57, "velocity": 100, "until": 510.66915758333187}, {"on": false, "note": 57, "velocity": 0, "until": 510.7717616083319}, {"on": true, "note": 50, "velocity": 100, "until": 511.0176626083319}, {"on": false, "note": 50, "velocity": 0, "until": 511.26327545833186}, {"on": true, "note": 48, "velocity": 100, "until": 511.39608795833186}, {"on": false, "note": 48, "velocity": 0, "until": 511.49765045833186}, {"on": true, "note": 48, "velocity": 100, "until": 511.63046295833186}, {"on": false, "note": 48, "velocity": 0, "until": 511.7322389333319}, {"on": true, "note": 53, "velocity": 100, "until": 511.97658008333195}, {"on": false, "note": 53, "velocity": 0, "until": 515.1098552583337}, {"on": true, "note": 54, "velocity": 100, "until": 515.3293203000006}, {"on": false, "note": 54, "velocity": 0, "until": 515.3388622583341}, {"on": true, "note": 54, "velocity": 100, "until": 515.558327300001}, {"on": false, "note": 54, "velocity": 0, "until": 515.5682169333343}, {"on": true, "note": 55, "velocity": 100, "until": 516.0544375833341}, {"on": false, "note": 55, "velocity": 0, "until": 520.369097933335}, {"on": true, "note": 67, "velocity": 100, "until": 521.3255139333346}, {"on": false, "note": 67, "velocity": 0, "until": 521.5684279333344}, {"on": true, "note": 60, "velocity": 100, "until": 521.8111514333343}, {"on": false, "note": 60, "velocity": 0, "until": 524.1947619333351}, {"on": true, "note": 53, "velocity": 100, "until": 524.4376759333351}, {"on": false, "note": 53, "velocity": 0, "until": 525.1386039333348}, {"on": true, "note": 55, "velocity": 100, "until": 525.3815179333346}, {"on": false, "note": 55, "velocity": 0, "until": 539.7817142583333}, {"on": true, "note": 67, "velocity": 115, "until": 539.8962177583334}, {"on": false, "note": 67, "velocity": 0, "until": 539.8962177583334}, {"on": true, "note": 65, "velocity": 115, "until": 540.0107212583334}, {"on": false, "note": 65, "velocity": 0, "until": 540.0107212583334}, {"on": true, "note": 64, "velocity": 115, "until": 540.1252247583335}, {"on": false, "note": 64, "velocity": 0, "until": 540.1252247583335}, {"on": true, "note": 62, "velocity": 115, "until": 540.2400759333334}, {"on": false, "note": 62, "velocity": 0, "until": 540.2400759333334}, {"on": true, "note": 60, "velocity": 115, "until": 540.4829899333333}, {"on": false, "note": 60, "velocity": 0, "until": 540.7255562583334}, {"on": true, "note": 59, "velocity": 115, "until": 540.9545632583336}, {"on": false, "note": 59, "velocity": 0, "until": 541.1833395833336}, {"on": true, "note": 60, "velocity": 115, "until": 541.1833395833336}, {"on": true, "note": 48, "velocity": 115, "until": 541.5862695833334}, {"on": false, "note": 48, "velocity": 0, "until": 541.5862695833334}, {"on": false, "note": 60, "velocity": 0, "until": 541.6225774833334}, {"on": true, "note": 48, "velocity": 115, "until": 541.6225774833334}, {"on": true, "note": 60, "velocity": 115, "until": 542.001886816667}, {"on": false, "note": 60, "velocity": 0, "until": 542.001886816667}, {"on": false, "note": 48, "velocity": 0, "until": 542.0365734083338}, {"on": true, "note": 48, "velocity": 115, "until": 542.0365734083338}, {"on": true, "note": 60, "velocity": 115, "until": 542.4308372416672}, {"on": false, "note": 60, "velocity": 0, "until": 542.4308372416672}, {"on": false, "note": 48, "velocity": 0, "until": 542.466457708334}, {"on": true, "note": 48, "velocity": 115, "until": 542.466457708334}, {"on": true, "note": 60, "velocity": 115, "until": 542.8444635416678}, {"on": false, "note": 60, "velocity": 0, "until": 542.8444635416678}, {"on": false, "note": 48, "velocity": 0, "until": 542.8790302083346}, {"on": true, "note": 48, "velocity": 115, "until": 542.8790302083346}, {"on": true, "note": 60, "velocity": 115, "until": 543.2718860416682}, {"on": false, "note": 60, "velocity": 0, "until": 543.2718860416682}, {"on": false, "note": 48, "velocity": 0, "until": 543.3073625333349}, {"on": true, "note": 48, "velocity": 115, "until": 543.3073625333349}, {"on": true, "note": 60, "velocity": 100, "until": 543.6827888666684}, {"on": false, "note": 60, "velocity": 0, "until": 543.6827888666684}, {"on": false, "note": 48, "velocity": 0, "until": 543.7171562083353}, {"on": true, "note": 60, "velocity": 100, "until": 543.7171562083353}, {"on": true, "note": 48, "velocity": 100, "until": 544.1454885333354}, {"on": false, "note": 48, "velocity": 0, "until": 544.1454885333354}, {"on": false, "note": 60, "velocity": 0, "until": 544.5552822083358}, {"on": true, "note": 57, "velocity": 100, "until": 544.5552822083358}, {"on": true, "note": 45, "velocity": 100, "until": 544.9836145333362}, {"on": false, "note": 45, "velocity": 0, "until": 544.9836145333362}, {"on": false, "note": 57, "velocity": 0, "until": 545.3934082083366}, {"on": true, "note": 62, "velocity": 100, "until": 545.3934082083366}, {"on": true, "note": 50, "velocity": 100, "until": 545.821740533337}, {"on": false, "note": 50, "velocity": 0, "until": 545.821740533337}, {"on": false, "note": 62, "velocity": 0, "until": 546.2315342083373}, {"on": true, "note": 57, "velocity": 100, "until": 546.2315342083373}, {"on": true, "note": 45, "velocity": 100, "until": 546.6598665333377}, {"on": false, "note": 45, "velocity": 0, "until": 546.6598665333377}, {"on": false, "note": 57, "velocity": 0, "until": 547.0696602083381}, {"on": true, "note": 62, "velocity": 100, "until": 547.0696602083381}, {"on": true, "note": 50, "velocity": 100, "until": 547.4979925333384}, {"on": false, "note": 50, "velocity": 0, "until": 547.4979925333384}, {"on": false, "note": 62, "velocity": 0, "until": 547.9077862083387}, {"on": true, "note": 65, "velocity": 115, "until": 547.9077862083387}, {"on": true, "note": 62, "velocity": 115, "until": 549.3448928666741}, {"on": false, "note": 62, "velocity": 0, "until": 549.3448928666741}, {"on": false, "note": 65, "velocity": 0, "until": 549.3790225333408}, {"on": true, "note": 55, "velocity": 100, "until": 549.4302170333409}, {"on": false, "note": 55, "velocity": 0, "until": 549.4302170333409}, {"on": true, "note": 57, "velocity": 100, "until": 549.4814115333411}, {"on": false, "note": 57, "velocity": 0, "until": 549.4814115333411}, {"on": true, "note": 59, "velocity": 100, "until": 549.5326060333412}, {"on": false, "note": 59, "velocity": 0, "until": 549.5326060333412}, {"on": true, "note": 60, "velocity": 100, "until": 549.5840382083414}, {"on": false, "note": 60, "velocity": 0, "until": 549.5840382083414}, {"on": true, "note": 62, "velocity": 100, "until": 550.1830188666764}, {"on": false, "note": 62, "velocity": 0, "until": 550.2171485333432}, {"on": true, "note": 55, "velocity": 100, "until": 550.2683430333433}, {"on": false, "note": 55, "velocity": 0, "until": 550.2683430333433}, {"on": true, "note": 57, "velocity": 100, "until": 550.3195375333435}, {"on": false, "note": 57, "velocity": 0, "until": 550.3195375333435}, {"on": true, "note": 59, "velocity": 100, "until": 550.3707320333435}, {"on": false, "note": 59, "velocity": 0, "until": 550.3707320333435}, {"on": true, "note": 60, "velocity": 100, "until": 550.4221642083438}, {"on": false, "note": 60, "velocity": 0, "until": 550.4221642083438}, {"on": true, "note": 62, "velocity": 100, "until": 551.0211448666788}, {"on": false, "note": 62, "velocity": 0, "until": 551.0552745333456}, {"on": true, "note": 55, "velocity": 100, "until": 551.1064690333457}, {"on": false, "note": 55, "velocity": 0, "until": 551.1064690333457}, {"on": true, "note": 57, "velocity": 100, "until": 551.1576635333458}, {"on": false, "note": 57, "velocity": 0, "until": 551.1576635333458}, {"on": true, "note": 59, "velocity": 100, "until": 551.2088580333459}, {"on": false, "note": 59, "velocity": 0, "until": 551.2088580333459}, {"on": true, "note": 60, "velocity": 100, "until": 551.2602902083462}, {"on": false, "note": 60, "velocity": 0, "until": 551.2602902083462}, {"on": true, "note": 65, "velocity": 100, "until": 551.2602902083462}, {"on": true, "note": 62, "velocity": 100, "until": 552.6973968666823}, {"on": false, "note": 62, "velocity": 0, "until": 552.6973968666823}, {"on": false, "note": 65, "velocity": 0, "until": 552.7315265333491}, {"on": true, "note": 55, "velocity": 100, "until": 552.7827210333492}, {"on": false, "note": 55, "velocity": 0, "until": 552.7827210333492}, {"on": true, "note": 57, "velocity": 100, "until": 552.8339155333493}, {"on": false, "note": 57, "velocity": 0, "until": 552.8339155333493}, {"on": true, "note": 59, "velocity": 100, "until": 552.8851100333494}, {"on": false, "note": 59, "velocity": 0, "until": 552.8851100333494}, {"on": true, "note": 60, "velocity": 100, "until": 552.9365422083497}, {"on": false, "note": 60, "velocity": 0, "until": 552.9365422083497}, {"on": true, "note": 62, "velocity": 100, "until": 553.5355228666847}, {"on": false, "note": 62, "velocity": 0, "until": 553.5696525333515}, {"on": true, "note": 55, "velocity": 100, "until": 553.6208470333515}, {"on": false, "note": 55, "velocity": 0, "until": 553.6208470333515}, {"on": true, "note": 57, "velocity": 100, "until": 553.6720415333517}, {"on": false, "note": 57, "velocity": 0, "until": 553.6720415333517}, {"on": true, "note": 59, "velocity": 100, "until": 553.7232360333518}, {"on": false, "note": 59, "velocity": 0, "until": 553.7232360333518}, {"on": true, "note": 60, "velocity": 100, "until": 553.7746682083521}, {"on": false, "note": 60, "velocity": 0, "until": 553.7746682083521}, {"on": true, "note": 62, "velocity": 100, "until": 554.3736488666871}, {"on": false, "note": 62, "velocity": 0, "until": 554.4077785333538}, {"on": true, "note": 55, "velocity": 100, "until": 554.4487341333539}, {"on": false, "note": 55, "velocity": 0, "until": 554.4487341333539}, {"on": true, "note": 57, "velocity": 100, "until": 554.489689733354}, {"on": false, "note": 57, "velocity": 0, "until": 554.489689733354}, {"on": true, "note": 59, "velocity": 100, "until": 554.5306453333541}, {"on": false, "note": 59, "velocity": 0, "until": 554.5306453333541}, {"on": true, "note": 60, "velocity": 100, "until": 554.5716009333541}, {"on": false, "note": 60, "velocity": 0, "until": 554.5716009333541}, {"on": true, "note": 62, "velocity": 100, "until": 554.6127942083544}, {"on": false, "note": 62, "velocity": 0, "until": 554.6127942083544}, {"on": true, "note": 63, "velocity": 100, "until": 557.96529820836}, {"on": false, "note": 63, "velocity": 0, "until": 557.96529820836}, {"on": true, "note": 56, "velocity": 100, "until": 558.1795832083602}, {"on": false, "note": 56, "velocity": 0, "until": 558.8034242083605}, {"on": true, "note": 56, "velocity": 100, "until": 559.017709208361}, {"on": false, "note": 56, "velocity": 0, "until": 559.6415502083613}, {"on": true, "note": 55, "velocity": 100, "until": 559.8558352083618}, {"on": false, "note": 55, "velocity": 0, "until": 560.4796762083621}, {"on": true, "note": 43, "velocity": 100, "until": 560.6948540833623}, {"on": false, "note": 43, "velocity": 0, "until": 561.1689410583623}, {"on": true, "note": 55, "velocity": 100, "until": 561.2138848583623}, {"on": false, "note": 55, "velocity": 0, "until": 561.2138848583623}, {"on": true, "note": 57, "velocity": 100, "until": 561.2588286583624}, {"on": false, "note": 57, "velocity": 0, "until": 561.2588286583624}, {"on": true, "note": 59, "velocity": 100, "until": 561.3037724583625}, {"on": false, "note": 59, "velocity": 0, "until": 561.3037724583625}, {"on": true, "note": 60, "velocity": 100, "until": 561.3487162583625}, {"on": false, "note": 60, "velocity": 0, "until": 561.3487162583625}, {"on": true, "note": 62, "velocity": 100, "until": 561.3933992083627}, {"on": false, "note": 62, "velocity": 0, "until": 561.3933992083627}, {"on": true, "note": 63, "velocity": 115, "until": 564.7459032083674}, {"on": false, "note": 63, "velocity": 0, "until": 564.7459032083674}, {"on": true, "note": 56, "velocity": 100, "until": 564.9601882083676}, {"on": false, "note": 56, "velocity": 0, "until": 565.584029208368}, {"on": true, "note": 56, "velocity": 100, "until": 565.7983142083684}, {"on": false, "note": 56, "velocity": 0, "until": 566.4222328583685}, {"on": true, "note": 55, "velocity": 100, "until": 566.639623858368}, {"on": false, "note": 55, "velocity": 0, "until": 567.2754673083678}, {"on": true, "note": 43, "velocity": 100, "until": 567.5192170833683}, {"on": false, "note": 43, "velocity": 0, "until": 578.7644622083765}, {"on": true, "note": 48, "velocity": 100, "until": 578.9251759583765}, {"on": false, "note": 48, "velocity": 0, "until": 578.9787472083766}, {"on": true, "note": 43, "velocity": 100, "until": 579.1394609583766}, {"on": false, "note": 43, "velocity": 0, "until": 579.1927945333767}, {"on": true, "note": 48, "velocity": 100, "until": 579.3463780333768}, {"on": false, "note": 48, "velocity": 0, "until": 579.397572533377}, {"on": true, "note": 43, "velocity": 100, "until": 579.5511560333771}, {"on": false, "note": 43, "velocity": 0, "until": 579.6025882083773}, {"on": true, "note": 48, "velocity": 100, "until": 579.7633019583773}, {"on": false, "note": 48, "velocity": 0, "until": 579.8168732083774}, {"on": true, "note": 43, "velocity": 100, "until": 579.9775869583774}, {"on": false, "note": 43, "velocity": 0, "until": 580.0309205333775}, {"on": true, "note": 48, "velocity": 100, "until": 580.1845040333776}, {"on": false, "note": 48, "velocity": 0, "until": 580.2356985333778}, {"on": true, "note": 43, "velocity": 100, "until": 580.3892820333779}, {"on": false, "note": 43, "velocity": 0, "until": 580.4407142083782}, {"on": true, "note": 48, "velocity": 100, "until": 580.6228564583784}, {"on": false, "note": 48, "velocity": 0, "until": 580.6549992083785}, {"on": true, "note": 43, "velocity": 100, "until": 580.8371414583788}, {"on": false, "note": 43, "velocity": 0, "until": 580.8690465333789}, {"on": true, "note": 48, "velocity": 100, "until": 581.043107833379}, {"on": false, "note": 48, "velocity": 0, "until": 581.073824533379}, {"on": true, "note": 43, "velocity": 100, "until": 581.2478858333792}, {"on": false, "note": 43, "velocity": 0, "until": 581.2788402083793}, {"on": true, "note": 48, "velocity": 100, "until": 581.4609824583796}, {"on": false, "note": 48, "velocity": 0, "until": 581.4931252083798}, {"on": true, "note": 43, "velocity": 100, "until": 581.6752674583801}, {"on": false, "note": 43, "velocity": 0, "until": 581.7071725333801}, {"on": true, "note": 48, "velocity": 100, "until": 581.8812338333803}, {"on": false, "note": 48, "velocity": 0, "until": 581.9119505333803}, {"on": true, "note": 43, "velocity": 100, "until": 582.0860118333804}, {"on": false, "note": 43, "velocity": 0, "until": 582.1167814833805}, {"on": true, "note": 48, "velocity": 100, "until": 582.3236774833805}, {"on": false, "note": 48, "velocity": 0, "until": 583.0307391583806}, {"on": true, "note": 48, "velocity": 100, "until": 583.2442621583807}, {"on": false, "note": 48, "velocity": 0, "until": 584.002542083381}, {"on": true, "note": 48, "velocity": 100, "until": 584.571262083381}]}, {"id": 4, "states": [{"on": true, "note": 60, "velocity": 105, "until": 0}, {"on": false, "note": 0, "velocity": 0, "until": 5.410638291666643}, {"on": false, "note": 60, "velocity": 0, "until": 5.410638291666643}, {"on": true, "note": 60, "velocity": 105, "until": 6.176595291666645}, {"on": false, "note": 60, "velocity": 0, "until": 6.687233291666646}, {"on": true, "note": 60, "velocity": 105, "until": 7.4531902916666475}, {"on": false, "note": 60, "velocity": 0, "until": 9.67747499999999}, {"on": true, "note": 60, "velocity": 105, "until": 13.278586108333295}, {"on": false, "note": 60, "velocity": 0, "until": 13.278586108333295}, {"on": true, "note": 60, "velocity": 105, "until": 14.078585908333292}, {"on": false, "note": 60, "velocity": 0, "until": 14.611919108333291}, {"on": true, "note": 55, "velocity": 105, "until": 15.411918908333288}, {"on": false, "note": 55, "velocity": 0, "until": 27.729080000000053}, {"on": true, "note": 55, "velocity": 105, "until": 28.929949558333423}, {"on": false, "note": 55, "velocity": 0, "until": 28.929949558333423}, {"on": true, "note": 55, "velocity": 105, "until": 31.4334270000001}, {"on": false, "note": 55, "velocity": 0, "until": 31.4334270000001}, {"on": true, "note": 55, "velocity": 105, "until": 32.033427000000174}, {"on": false, "note": 55, "velocity": 0, "until": 32.6342965583335}, {"on": true, "note": 55, "velocity": 105, "until": 35.1384122916668}, {"on": false, "note": 55, "velocity": 0, "until": 35.1384122916668}, {"on": true, "note": 55, "velocity": 105, "until": 35.77922939166677}, {"on": false, "note": 55, "velocity": 0, "until": 36.567172900000095}, {"on": true, "note": 55, "velocity": 105, "until": 38.613936058333465}, {"on": false, "note": 55, "velocity": 0, "until": 59.127593966666645}, {"on": true, "note": 55, "velocity": 105, "until": 59.80941196666655}, {"on": false, "note": 55, "velocity": 0, "until": 62.95634596666654}, {"on": true, "note": 55, "velocity": 105, "until": 63.63816396666645}, {"on": false, "note": 55, "velocity": 0, "until": 66.78460389166648}, {"on": true, "note": 60, "velocity": 105, "until": 67.43677739166677}, {"on": false, "note": 60, "velocity": 0, "until": 79.92525805833347}, {"on": true, "note": 48, "velocity": 105, "until": 81.17525726666707}, {"on": false, "note": 48, "velocity": 0, "until": 81.22960505833376}, {"on": true, "note": 48, "velocity": 105, "until": 82.47960426666737}, {"on": false, "note": 48, "velocity": 0, "until": 82.53395205833407}, {"on": true, "note": 64, "velocity": 105, "until": 85.03742950000125}, {"on": false, "note": 64, "velocity": 0, "until": 85.03742950000125}, {"on": true, "note": 62, "velocity": 105, "until": 86.31448939166793}, {"on": false, "note": 62, "velocity": 0, "until": 86.31448939166793}, {"on": true, "note": 60, "velocity": 81, "until": 87.29274964166795}, {"on": false, "note": 60, "velocity": 0, "until": 87.29274964166795}, {"on": true, "note": 62, "velocity": 77, "until": 87.6179668333348}, {"on": false, "note": 62, "velocity": 0, "until": 87.6179668333348}, {"on": true, "note": 64, "velocity": 75, "until": 87.89796683333485}, {"on": false, "note": 64, "velocity": 0, "until": 88.01796683333485}, {"on": true, "note": 64, "velocity": 73, "until": 88.29796683333487}, {"on": false, "note": 64, "velocity": 0, "until": 88.41796683333487}, {"on": true, "note": 64, "velocity": 71, "until": 88.69796683333489}, {"on": false, "note": 64, "velocity": 0, "until": 88.81796683333489}, {"on": true, "note": 64, "velocity": 68, "until": 89.09796683333491}, {"on": false, "note": 64, "velocity": 0, "until": 89.21796683333491}, {"on": true, "note": 64, "velocity": 67, "until": 89.49796683333493}, {"on": false, "note": 64, "velocity": 0, "until": 89.61933046666826}, {"on": true, "note": 64, "velocity": 64, "until": 89.93751220000159}, {"on": false, "note": 64, "velocity": 0, "until": 90.0733817250016}, {"on": true, "note": 64, "velocity": 64, "until": 93.853919058335}, {"on": false, "note": 64, "velocity": 0, "until": 93.853919058335}, {"on": true, "note": 60, "velocity": 105, "until": 95.10391826666834}, {"on": false, "note": 60, "velocity": 0, "until": 95.1573965000017}, {"on": true, "note": 60, "velocity": 105, "until": 95.50739650000176}, {"on": false, "note": 60, "velocity": 0, "until": 95.55739650000177}, {"on": true, "note": 60, "velocity": 105, "until": 95.90739650000185}, {"on": false, "note": 60, "velocity": 0, "until": 95.95739650000186}, {"on": true, "note": 60, "velocity": 105, "until": 96.30739650000194}, {"on": false, "note": 60, "velocity": 0, "until": 96.35739650000195}, {"on": true, "note": 60, "velocity": 105, "until": 96.707396500002}, {"on": false, "note": 60, "velocity": 0, "until": 96.75739650000203}, {"on": true, "note": 60, "velocity": 105, "until": 97.10739650000205}, {"on": false, "note": 60, "velocity": 0, "until": 97.15739650000206}, {"on": true, "note": 60, "velocity": 105, "until": 97.5591611250021}, {"on": false, "note": 60, "velocity": 0, "until": 97.62885418333545}, {"on": true, "note": 64, "velocity": 105, "until": 100.13296991666908}, {"on": false, "note": 64, "velocity": 0, "until": 100.13296991666908}, {"on": true, "note": 62, "velocity": 77, "until": 101.47944538333574}, {"on": false, "note": 62, "velocity": 0, "until": 101.47944538333574}, {"on": true, "note": 60, "velocity": 65, "until": 102.84071261666905}, {"on": false, "note": 60, "velocity": 0, "until": 105.39793169166906}, {"on": true, "note": 64, "velocity": 77, "until": 108.09686835000238}, {"on": false, "note": 64, "velocity": 0, "until": 108.09686835000238}, {"on": true, "note": 62, "velocity": 72, "until": 109.44914917500239}, {"on": false, "note": 62, "velocity": 0, "until": 109.44914917500239}, {"on": true, "note": 60, "velocity": 69, "until": 110.93992030000237}, {"on": false, "note": 60, "velocity": 0, "until": 127.59232239166883}, {"on": true, "note": 60, "velocity": 95, "until": 128.03313699166884}, {"on": false, "note": 60, "velocity": 0, "until": 128.08199865833552}, {"on": true, "note": 60, "velocity": 95, "until": 128.49738285833556}, {"on": false, "note": 60, "velocity": 0, "until": 128.5436543916689}, {"on": true, "note": 60, "velocity": 95, "until": 129.03333065833556}, {"on": false, "note": 60, "velocity": 0, "until": 131.3965243916687}, {"on": true, "note": 60, "velocity": 95, "until": 131.88620065833535}, {"on": false, "note": 60, "velocity": 0, "until": 131.88620065833535}, {"on": true, "note": 60, "velocity": 95, "until": 132.3478563916687}, {"on": false, "note": 60, "velocity": 0, "until": 132.3478563916687}, {"on": true, "note": 60, "velocity": 95, "until": 132.83753265833536}, {"on": false, "note": 60, "velocity": 0, "until": 133.29911608333538}, {"on": true, "note": 52, "velocity": 105, "until": 133.47628108333544}, {"on": false, "note": 52, "velocity": 0, "until": 133.53533608333544}, {"on": true, "note": 52, "velocity": 105, "until": 133.7125010833355}, {"on": false, "note": 52, "velocity": 0, "until": 133.7715560833355}, {"on": true, "note": 52, "velocity": 105, "until": 133.94872108333556}, {"on": false, "note": 52, "velocity": 0, "until": 134.00777608333556}, {"on": true, "note": 52, "velocity": 105, "until": 134.18494108333562}, {"on": false, "note": 52, "velocity": 0, "until": 134.24399608333562}, {"on": true, "note": 52, "velocity": 105, "until": 134.716390658336}, {"on": false, "note": 52, "velocity": 0, "until": 139.03038239166972}, {"on": true, "note": 62, "velocity": 105, "until": 139.21405514166972}, {"on": false, "note": 62, "velocity": 0, "until": 139.27527939166973}, {"on": true, "note": 62, "velocity": 105, "until": 139.75082765833648}, {"on": false, "note": 62, "velocity": 0, "until": 139.75082765833648}, {"on": true, "note": 64, "velocity": 105, "until": 139.9817143916698}, {"on": false, "note": 64, "velocity": 0, "until": 139.9817143916698}, {"on": true, "note": 62, "velocity": 105, "until": 140.1653871416698}, {"on": false, "note": 62, "velocity": 0, "until": 140.22661139166982}, {"on": true, "note": 62, "velocity": 105, "until": 140.70215965833657}, {"on": false, "note": 62, "velocity": 0, "until": 140.70215965833657}, {"on": true, "note": 64, "velocity": 105, "until": 140.9330463916699}, {"on": false, "note": 64, "velocity": 0, "until": 140.9330463916699}, {"on": true, "note": 62, "velocity": 105, "until": 141.1167191416699}, {"on": false, "note": 62, "velocity": 0, "until": 141.1779433916699}, {"on": true, "note": 62, "velocity": 105, "until": 141.65349165833666}, {"on": false, "note": 62, "velocity": 0, "until": 141.65349165833666}, {"on": true, "note": 64, "velocity": 105, "until": 141.88437839167}, {"on": false, "note": 64, "velocity": 0, "until": 141.88437839167}, {"on": true, "note": 62, "velocity": 105, "until": 142.12927539167003}, {"on": false, "note": 62, "velocity": 0, "until": 146.4706436583367}, {"on": true, "note": 60, "velocity": 105, "until": 146.64372040833672}, {"on": false, "note": 60, "velocity": 0, "until": 146.70148958333675}, {"on": true, "note": 60, "velocity": 105, "until": 146.8814895833368}, {"on": false, "note": 60, "velocity": 0, "until": 146.94148958333682}, {"on": true, "note": 60, "velocity": 105, "until": 147.12148958333685}, {"on": false, "note": 60, "velocity": 0, "until": 147.18148958333688}, {"on": true, "note": 60, "velocity": 105, "until": 147.36148958333692}, {"on": false, "note": 60, "velocity": 0, "until": 147.42148958333695}, {"on": true, "note": 60, "velocity": 105, "until": 147.60148958333698}, {"on": false, "note": 60, "velocity": 0, "until": 147.66148958333702}, {"on": true, "note": 60, "velocity": 105, "until": 148.14141265833732}, {"on": false, "note": 60, "velocity": 0, "until": 150.25664365833748}, {"on": true, "note": 62, "velocity": 105, "until": 150.4297204083375}, {"on": false, "note": 62, "velocity": 0, "until": 150.4874580833375}, {"on": true, "note": 64, "velocity": 105, "until": 150.66462308333755}, {"on": false, "note": 64, "velocity": 0, "until": 150.72367808333755}, {"on": true, "note": 62, "velocity": 105, "until": 150.9008430833376}, {"on": false, "note": 62, "velocity": 0, "until": 150.9598980833376}, {"on": true, "note": 64, "velocity": 105, "until": 151.13706308333767}, {"on": false, "note": 64, "velocity": 0, "until": 151.19611808333767}, {"on": true, "note": 62, "velocity": 105, "until": 151.37328308333772}, {"on": false, "note": 62, "velocity": 0, "until": 151.43233808333773}, {"on": true, "note": 64, "velocity": 105, "until": 151.66855808333776}, {"on": false, "note": 64, "velocity": 0, "until": 151.9047326583378}, {"on": true, "note": 67, "velocity": 105, "until": 152.3470399083378}, {"on": false, "note": 67, "velocity": 0, "until": 152.36638839167114}, {"on": true, "note": 67, "velocity": 105, "until": 152.83577430833785}, {"on": false, "note": 67, "velocity": 0, "until": 152.85606465833786}, {"on": true, "note": 62, "velocity": 105, "until": 153.29837190833786}, {"on": false, "note": 62, "velocity": 0, "until": 153.3177203916712}, {"on": true, "note": 62, "velocity": 105, "until": 153.7871063083379}, {"on": false, "note": 62, "velocity": 0, "until": 153.80739665833792}, {"on": true, "note": 62, "velocity": 105, "until": 154.24970390833792}, {"on": false, "note": 62, "velocity": 0, "until": 154.26905239167127}, {"on": true, "note": 60, "velocity": 105, "until": 154.75872865833801}, {"on": false, "note": 60, "velocity": 0, "until": 155.2203843916713}, {"on": true, "note": 60, "velocity": 105, "until": 155.71006065833805}, {"on": false, "note": 60, "velocity": 0, "until": 156.17171639167148}, {"on": true, "note": 60, "velocity": 105, "until": 156.41661339167152}, {"on": false, "note": 60, "velocity": 0, "until": 156.66139265833823}, {"on": true, "note": 60, "velocity": 105, "until": 156.89216165833827}, {"on": false, "note": 60, "velocity": 0, "until": 157.1230483916716}, {"on": true, "note": 60, "velocity": 105, "until": 157.36794539167164}, {"on": false, "note": 60, "velocity": 0, "until": 157.61272465833835}, {"on": true, "note": 60, "velocity": 105, "until": 157.8434936583384}, {"on": false, "note": 60, "velocity": 0, "until": 158.07438039167172}, {"on": true, "note": 67, "velocity": 105, "until": 159.01597928333857}, {"on": false, "note": 67, "velocity": 0, "until": 159.0257123916719}, {"on": true, "note": 67, "velocity": 105, "until": 159.96731128333874}, {"on": false, "note": 67, "velocity": 0, "until": 159.97704439167208}, {"on": true, "note": 67, "velocity": 105, "until": 160.45663435000546}, {"on": false, "note": 67, "velocity": 0, "until": 160.4667206583388}, {"on": true, "note": 67, "velocity": 105, "until": 160.91864328333892}, {"on": false, "note": 67, "velocity": 0, "until": 160.92837639167226}, {"on": true, "note": 67, "velocity": 105, "until": 161.40796635000564}, {"on": false, "note": 67, "velocity": 0, "until": 161.41805265833898}, {"on": true, "note": 67, "velocity": 105, "until": 161.86997528333902}, {"on": false, "note": 67, "velocity": 0, "until": 161.87970839167235}, {"on": true, "note": 62, "velocity": 105, "until": 162.1246053916724}, {"on": false, "note": 62, "velocity": 0, "until": 181.76301463334025}, {"on": true, "note": 62, "velocity": 105, "until": 182.26503070834022}, {"on": false, "note": 62, "velocity": 0, "until": 185.70683669167332}, {"on": true, "note": 62, "velocity": 105, "until": 186.2026128666736}, {"on": false, "note": 62, "velocity": 0, "until": 191.4751748666729}, {"on": true, "note": 60, "velocity": 105, "until": 192.18035201667232}, {"on": false, "note": 60, "velocity": 0, "until": 192.18989397500562}, {"on": true, "note": 60, "velocity": 105, "until": 192.40935901667223}, {"on": false, "note": 60, "velocity": 0, "until": 192.41901686667222}, {"on": true, "note": 60, "velocity": 105, "until": 192.65180945000546}, {"on": false, "note": 60, "velocity": 0, "until": 192.6619308666721}, {"on": true, "note": 60, "velocity": 105, "until": 192.89472345000527}, {"on": false, "note": 60, "velocity": 0, "until": 192.90472897500527}, {"on": true, "note": 60, "velocity": 105, "until": 193.1337359750052}, {"on": false, "note": 60, "velocity": 0, "until": 193.3632384250052}, {"on": true, "note": 67, "velocity": 105, "until": 193.6513789166721}, {"on": false, "note": 67, "velocity": 0, "until": 195.3802363333388}, {"on": true, "note": 62, "velocity": 105, "until": 195.63664633333883}, {"on": false, "note": 62, "velocity": 0, "until": 196.38285033333892}, {"on": true, "note": 62, "velocity": 105, "until": 196.63926033333897}, {"on": false, "note": 62, "velocity": 0, "until": 197.42928296667245}, {"on": true, "note": 62, "velocity": 90, "until": 205.83050733333914}, {"on": false, "note": 62, "velocity": 0, "until": 206.08677260833915}, {"on": true, "note": 64, "velocity": 105, "until": 207.05453325000582}, {"on": false, "note": 64, "velocity": 0, "until": 207.06483508333915}, {"on": true, "note": 67, "velocity": 105, "until": 207.7847195833393}, {"on": false, "note": 67, "velocity": 0, "until": 214.03181608333927}, {"on": true, "note": 64, "velocity": 105, "until": 214.98589288333935}, {"on": false, "note": 64, "velocity": 0, "until": 214.99604270833933}, {"on": true, "note": 67, "velocity": 105, "until": 215.70825358333929}, {"on": false, "note": 67, "velocity": 0, "until": 218.84271197500564}, {"on": true, "note": 67, "velocity": 105, "until": 219.06217701667222}, {"on": false, "note": 67, "velocity": 0, "until": 219.07171897500555}, {"on": true, "note": 67, "velocity": 105, "until": 219.29118401667213}, {"on": false, "note": 67, "velocity": 0, "until": 219.30084186667213}, {"on": true, "note": 67, "velocity": 105, "until": 219.78680075000503}, {"on": false, "note": 67, "velocity": 0, "until": 229.4005802916705}, {"on": true, "note": 62, "velocity": 105, "until": 229.5883197083372}, {"on": false, "note": 62, "velocity": 0, "until": 229.63046529167053}, {"on": true, "note": 62, "velocity": 105, "until": 229.81820470833722}, {"on": false, "note": 62, "velocity": 0, "until": 229.86043458333725}, {"on": true, "note": 62, "velocity": 105, "until": 230.26043458333726}, {"on": false, "note": 62, "velocity": 0, "until": 230.34034297500392}, {"on": true, "note": 62, "velocity": 105, "until": 230.52736535833725}, {"on": false, "note": 62, "velocity": 0, "until": 230.56934997500392}, {"on": true, "note": 62, "velocity": 105, "until": 230.75637235833725}, {"on": false, "note": 62, "velocity": 0, "until": 230.79847286667058}, {"on": true, "note": 62, "velocity": 105, "until": 231.20332953333718}, {"on": false, "note": 62, "velocity": 0, "until": 231.28418497500385}, {"on": true, "note": 62, "velocity": 105, "until": 231.47120735833718}, {"on": false, "note": 62, "velocity": 0, "until": 231.51319197500385}, {"on": true, "note": 62, "velocity": 105, "until": 231.70021435833718}, {"on": false, "note": 62, "velocity": 0, "until": 231.7423148666705}, {"on": true, "note": 62, "velocity": 105, "until": 232.14717153333712}, {"on": false, "note": 62, "velocity": 0, "until": 232.2280269750038}, {"on": true, "note": 62, "velocity": 105, "until": 232.41504935833711}, {"on": false, "note": 62, "velocity": 0, "until": 232.45703397500378}, {"on": true, "note": 62, "velocity": 105, "until": 232.6440563583371}, {"on": false, "note": 62, "velocity": 0, "until": 232.68611670833712}, {"on": true, "note": 55, "velocity": 105, "until": 232.92508472500384}, {"on": false, "note": 55, "velocity": 0, "until": 246.72469889167112}, {"on": true, "note": 60, "velocity": 95, "until": 247.16551349167113}, {"on": false, "note": 60, "velocity": 0, "until": 247.21437515833782}, {"on": true, "note": 60, "velocity": 95, "until": 247.62975935833785}, {"on": false, "note": 60, "velocity": 0, "until": 247.6760308916712}, {"on": true, "note": 60, "velocity": 95, "until": 248.16570715833785}, {"on": false, "note": 60, "velocity": 0, "until": 250.528900891671}, {"on": true, "note": 60, "velocity": 95, "until": 251.01857715833765}, {"on": false, "note": 60, "velocity": 0, "until": 251.01857715833765}, {"on": true, "note": 60, "velocity": 95, "until": 251.480232891671}, {"on": false, "note": 60, "velocity": 0, "until": 251.480232891671}, {"on": true, "note": 60, "velocity": 95, "until": 251.96990915833766}, {"on": false, "note": 60, "velocity": 0, "until": 252.43149258333767}, {"on": true, "note": 52, "velocity": 105, "until": 252.60865758333773}, {"on": false, "note": 52, "velocity": 0, "until": 252.66771258333773}, {"on": true, "note": 52, "velocity": 105, "until": 252.8448775833378}, {"on": false, "note": 52, "velocity": 0, "until": 252.9039325833378}, {"on": true, "note": 52, "velocity": 105, "until": 253.08109758333785}, {"on": false, "note": 52, "velocity": 0, "until": 253.14015258333785}, {"on": true, "note": 52, "velocity": 105, "until": 253.3173175833379}, {"on": false, "note": 52, "velocity": 0, "until": 253.3763725833379}, {"on": true, "note": 52, "velocity": 105, "until": 253.8487671583383}, {"on": false, "note": 52, "velocity": 0, "until": 258.1627588916713}, {"on": true, "note": 62, "velocity": 105, "until": 258.3464316416713}, {"on": false, "note": 62, "velocity": 0, "until": 258.4076558916713}, {"on": true, "note": 62, "velocity": 105, "until": 258.8832041583378}, {"on": false, "note": 62, "velocity": 0, "until": 258.8832041583378}, {"on": true, "note": 64, "velocity": 105, "until": 259.1140908916711}, {"on": false, "note": 64, "velocity": 0, "until": 259.1140908916711}, {"on": true, "note": 62, "velocity": 105, "until": 259.2977636416711}, {"on": false, "note": 62, "velocity": 0, "until": 259.3589878916711}, {"on": true, "note": 62, "velocity": 105, "until": 259.8345361583376}, {"on": false, "note": 62, "velocity": 0, "until": 259.8345361583376}, {"on": true, "note": 64, "velocity": 105, "until": 260.0654228916709}, {"on": false, "note": 64, "velocity": 0, "until": 260.0654228916709}, {"on": true, "note": 62, "velocity": 105, "until": 260.2490956416709}, {"on": false, "note": 62, "velocity": 0, "until": 260.31031989167093}, {"on": true, "note": 62, "velocity": 105, "until": 260.7858681583374}, {"on": false, "note": 62, "velocity": 0, "until": 260.7858681583374}, {"on": true, "note": 64, "velocity": 105, "until": 261.0167548916707}, {"on": false, "note": 64, "velocity": 0, "until": 261.0167548916707}, {"on": true, "note": 62, "velocity": 105, "until": 261.2617570000041}, {"on": false, "note": 62, "velocity": 0, "until": 265.6156331583371}, {"on": true, "note": 60, "velocity": 105, "until": 265.788709908337}, {"on": false, "note": 60, "velocity": 0, "until": 265.846479083337}, {"on": true, "note": 60, "velocity": 105, "until": 266.0264790833371}, {"on": false, "note": 60, "velocity": 0, "until": 266.0864790833371}, {"on": true, "note": 60, "velocity": 105, "until": 266.26647908333723}, {"on": false, "note": 60, "velocity": 0, "until": 266.32647908333723}, {"on": true, "note": 60, "velocity": 105, "until": 266.50647908333735}, {"on": false, "note": 60, "velocity": 0, "until": 266.56647908333736}, {"on": true, "note": 60, "velocity": 105, "until": 266.7464790833375}, {"on": false, "note": 60, "velocity": 0, "until": 266.8064790833375}, {"on": true, "note": 60, "velocity": 105, "until": 267.2864021583384}, {"on": false, "note": 60, "velocity": 0, "until": 269.4016331583378}, {"on": true, "note": 62, "velocity": 105, "until": 269.5747099083377}, {"on": false, "note": 62, "velocity": 0, "until": 269.63244758333764}, {"on": true, "note": 64, "velocity": 105, "until": 269.80961258333747}, {"on": false, "note": 64, "velocity": 0, "until": 269.8686675833374}, {"on": true, "note": 62, "velocity": 105, "until": 270.04583258333724}, {"on": false, "note": 62, "velocity": 0, "until": 270.1048875833372}, {"on": true, "note": 64, "velocity": 105, "until": 270.282052583337}, {"on": false, "note": 64, "velocity": 0, "until": 270.34110758333696}, {"on": true, "note": 62, "velocity": 105, "until": 270.5182725833368}, {"on": false, "note": 62, "velocity": 0, "until": 270.57732758333674}, {"on": true, "note": 64, "velocity": 105, "until": 270.81354758333663}, {"on": false, "note": 64, "velocity": 0, "until": 271.0497221583365}, {"on": true, "note": 67, "velocity": 105, "until": 271.49202940833624}, {"on": false, "note": 67, "velocity": 0, "until": 271.51137789166955}, {"on": true, "note": 67, "velocity": 105, "until": 271.98076380833623}, {"on": false, "note": 67, "velocity": 0, "until": 272.0010541583362}, {"on": true, "note": 62, "velocity": 105, "until": 272.44336140833593}, {"on": false, "note": 62, "velocity": 0, "until": 272.46270989166925}, {"on": true, "note": 62, "velocity": 105, "until": 272.93209580833593}, {"on": false, "note": 62, "velocity": 0, "until": 272.9523861583359}, {"on": true, "note": 62, "velocity": 105, "until": 273.3946934083356}, {"on": false, "note": 62, "velocity": 0, "until": 273.41404189166894}, {"on": true, "note": 60, "velocity": 105, "until": 273.90371815833566}, {"on": false, "note": 60, "velocity": 0, "until": 274.3653738916689}, {"on": true, "note": 60, "velocity": 105, "until": 274.85505015833564}, {"on": false, "note": 60, "velocity": 0, "until": 275.31670589166845}, {"on": true, "note": 60, "velocity": 105, "until": 275.5616028916685}, {"on": false, "note": 60, "velocity": 0, "until": 275.80638215833517}, {"on": true, "note": 60, "velocity": 105, "until": 276.03715115833484}, {"on": false, "note": 60, "velocity": 0, "until": 276.2680378916681}, {"on": true, "note": 60, "velocity": 105, "until": 276.5129348916681}, {"on": false, "note": 60, "velocity": 0, "until": 276.7577141583348}, {"on": true, "note": 60, "velocity": 105, "until": 276.9884831583345}, {"on": false, "note": 60, "velocity": 0, "until": 277.2193698916677}, {"on": true, "note": 67, "velocity": 105, "until": 278.1609687833339}, {"on": false, "note": 67, "velocity": 0, "until": 278.1707018916672}, {"on": true, "note": 67, "velocity": 105, "until": 279.11230078333335}, {"on": false, "note": 67, "velocity": 0, "until": 279.12203389166666}, {"on": true, "note": 67, "velocity": 105, "until": 279.60162385000007}, {"on": false, "note": 67, "velocity": 0, "until": 279.6117101583334}, {"on": true, "note": 67, "velocity": 105, "until": 280.0636327833328}, {"on": false, "note": 67, "velocity": 0, "until": 280.0733658916661}, {"on": true, "note": 67, "velocity": 105, "until": 280.55295584999953}, {"on": false, "note": 67, "velocity": 0, "until": 280.56304215833285}, {"on": true, "note": 67, "velocity": 105, "until": 281.0149647833324}, {"on": false, "note": 67, "velocity": 0, "until": 281.0246978916657}, {"on": true, "note": 62, "velocity": 105, "until": 281.26959489166575}, {"on": false, "note": 62, "velocity": 0, "until": 300.9080041333306}, {"on": true, "note": 62, "velocity": 105, "until": 301.41002020833}, {"on": false, "note": 62, "velocity": 0, "until": 304.85182619166335}, {"on": true, "note": 62, "velocity": 105, "until": 305.34760236666364}, {"on": false, "note": 62, "velocity": 0, "until": 310.62016436666494}, {"on": true, "note": 60, "velocity": 105, "until": 311.3253415166658}, {"on": false, "note": 60, "velocity": 0, "until": 311.3348834749992}, {"on": true, "note": 60, "velocity": 105, "until": 311.5543485166659}, {"on": false, "note": 60, "velocity": 0, "until": 311.564006366666}, {"on": true, "note": 60, "velocity": 105, "until": 311.7967989499994}, {"on": false, "note": 60, "velocity": 0, "until": 311.80692036666613}, {"on": true, "note": 60, "velocity": 105, "until": 312.03971294999957}, {"on": false, "note": 60, "velocity": 0, "until": 312.0497184749996}, {"on": true, "note": 60, "velocity": 105, "until": 312.27872547499976}, {"on": false, "note": 60, "velocity": 0, "until": 312.5082279249998}, {"on": true, "note": 67, "velocity": 105, "until": 312.79636841666627}, {"on": false, "note": 67, "velocity": 0, "until": 314.5252258333335}, {"on": true, "note": 62, "velocity": 105, "until": 314.7816358333334}, {"on": false, "note": 62, "velocity": 0, "until": 315.52783983333336}, {"on": true, "note": 62, "velocity": 105, "until": 315.78424983333326}, {"on": false, "note": 62, "velocity": 0, "until": 316.5742724666667}, {"on": true, "note": 62, "velocity": 90, "until": 324.97549683333665}, {"on": false, "note": 62, "velocity": 0, "until": 325.2317621083366}, {"on": true, "note": 64, "velocity": 105, "until": 326.1995227500031}, {"on": false, "note": 64, "velocity": 0, "until": 326.20982458333646}, {"on": true, "note": 67, "velocity": 105, "until": 326.92970908333615}, {"on": false, "note": 67, "velocity": 0, "until": 333.17680558333603}, {"on": true, "note": 64, "velocity": 105, "until": 334.1308823833357}, {"on": false, "note": 64, "velocity": 0, "until": 334.14103220833573}, {"on": true, "note": 67, "velocity": 105, "until": 334.8532430833358}, {"on": false, "note": 67, "velocity": 0, "until": 337.98770147500255}, {"on": true, "note": 67, "velocity": 105, "until": 338.20716651666936}, {"on": false, "note": 67, "velocity": 0, "until": 338.21670847500275}, {"on": true, "note": 67, "velocity": 105, "until": 338.43617351666956}, {"on": false, "note": 67, "velocity": 0, "until": 338.4458313666696}, {"on": true, "note": 67, "velocity": 105, "until": 338.93179025000364}, {"on": false, "note": 67, "velocity": 0, "until": 348.54556979167114}, {"on": true, "note": 62, "velocity": 105, "until": 348.7333092083378}, {"on": false, "note": 62, "velocity": 0, "until": 348.77545479167117}, {"on": true, "note": 62, "velocity": 105, "until": 348.9631942083378}, {"on": false, "note": 62, "velocity": 0, "until": 349.00542408333786}, {"on": true, "note": 62, "velocity": 105, "until": 349.40542408333795}, {"on": false, "note": 62, "velocity": 0, "until": 349.4853324750046}, {"on": true, "note": 62, "velocity": 105, "until": 349.672354858338}, {"on": false, "note": 62, "velocity": 0, "until": 349.7143394750047}, {"on": true, "note": 62, "velocity": 105, "until": 349.9013618583381}, {"on": false, "note": 62, "velocity": 0, "until": 349.94346236667144}, {"on": true, "note": 62, "velocity": 105, "until": 350.34831903333827}, {"on": false, "note": 62, "velocity": 0, "until": 350.42917447500497}, {"on": true, "note": 62, "velocity": 105, "until": 350.61619685833836}, {"on": false, "note": 62, "velocity": 0, "until": 350.65818147500505}, {"on": true, "note": 62, "velocity": 105, "until": 350.84520385833844}, {"on": false, "note": 62, "velocity": 0, "until": 350.8873043666718}, {"on": true, "note": 62, "velocity": 105, "until": 351.2921610333385}, {"on": false, "note": 62, "velocity": 0, "until": 351.3730164750052}, {"on": true, "note": 62, "velocity": 105, "until": 351.5600388583386}, {"on": false, "note": 62, "velocity": 0, "until": 351.6020234750053}, {"on": true, "note": 62, "velocity": 105, "until": 351.7890458583387}, {"on": false, "note": 62, "velocity": 0, "until": 351.83110620833867}, {"on": true, "note": 55, "velocity": 105, "until": 352.07007422500527}, {"on": false, "note": 55, "velocity": 0, "until": 362.37812789167344}, {"on": true, "note": 67, "velocity": 105, "until": 362.8678041583401}, {"on": false, "note": 67, "velocity": 0, "until": 364.2807918916735}, {"on": true, "note": 67, "velocity": 105, "until": 364.7704681583402}, {"on": false, "note": 67, "velocity": 0, "until": 366.1834558916736}, {"on": true, "note": 67, "velocity": 105, "until": 366.42835289167357}, {"on": false, "note": 67, "velocity": 0, "until": 366.6731321583402}, {"on": true, "note": 67, "velocity": 105, "until": 366.90390115834015}, {"on": false, "note": 67, "velocity": 0, "until": 367.13478789167345}, {"on": true, "note": 67, "velocity": 105, "until": 367.37968489167343}, {"on": false, "note": 67, "velocity": 0, "until": 367.62446415834006}, {"on": true, "note": 67, "velocity": 105, "until": 367.85523315834}, {"on": false, "note": 67, "velocity": 0, "until": 368.08629146667334}, {"on": true, "note": 67, "velocity": 105, "until": 368.3516058916734}, {"on": false, "note": 67, "velocity": 0, "until": 423.8556488916748}, {"on": true, "note": 60, "velocity": 95, "until": 424.2964634916748}, {"on": false, "note": 60, "velocity": 0, "until": 424.34532515834144}, {"on": true, "note": 60, "velocity": 95, "until": 424.76070935834133}, {"on": false, "note": 60, "velocity": 0, "until": 424.80698089167464}, {"on": true, "note": 60, "velocity": 95, "until": 425.2966571583413}, {"on": false, "note": 60, "velocity": 0, "until": 427.65985089167526}, {"on": true, "note": 60, "velocity": 95, "until": 428.1495271583419}, {"on": false, "note": 60, "velocity": 0, "until": 428.1495271583419}, {"on": true, "note": 60, "velocity": 95, "until": 428.6111828916751}, {"on": false, "note": 60, "velocity": 0, "until": 428.6111828916751}, {"on": true, "note": 60, "velocity": 95, "until": 429.1008591583418}, {"on": false, "note": 60, "velocity": 0, "until": 429.5624425833416}, {"on": true, "note": 52, "velocity": 105, "until": 429.73960758334147}, {"on": false, "note": 52, "velocity": 0, "until": 429.7986625833414}, {"on": true, "note": 52, "velocity": 105, "until": 429.9758275833413}, {"on": false, "note": 52, "velocity": 0, "until": 430.03488258334124}, {"on": true, "note": 52, "velocity": 105, "until": 430.21204758334113}, {"on": false, "note": 52, "velocity": 0, "until": 430.2711025833411}, {"on": true, "note": 52, "velocity": 105, "until": 430.44826758334096}, {"on": false, "note": 52, "velocity": 0, "until": 430.5073225833409}, {"on": true, "note": 52, "velocity": 105, "until": 430.97971715833984}, {"on": false, "note": 52, "velocity": 0, "until": 435.2937088916727}, {"on": true, "note": 62, "velocity": 105, "until": 435.4773816416727}, {"on": false, "note": 62, "velocity": 0, "until": 435.5386058916727}, {"on": true, "note": 62, "velocity": 105, "until": 436.0141541583392}, {"on": false, "note": 62, "velocity": 0, "until": 436.0141541583392}, {"on": true, "note": 64, "velocity": 105, "until": 436.2450408916725}, {"on": false, "note": 64, "velocity": 0, "until": 436.2450408916725}, {"on": true, "note": 62, "velocity": 105, "until": 436.4287136416725}, {"on": false, "note": 62, "velocity": 0, "until": 436.4899378916725}, {"on": true, "note": 62, "velocity": 105, "until": 436.965486158339}, {"on": false, "note": 62, "velocity": 0, "until": 436.965486158339}, {"on": true, "note": 64, "velocity": 105, "until": 437.1963728916723}, {"on": false, "note": 64, "velocity": 0, "until": 437.1963728916723}, {"on": true, "note": 62, "velocity": 105, "until": 437.3800456416723}, {"on": false, "note": 62, "velocity": 0, "until": 437.44126989167233}, {"on": true, "note": 62, "velocity": 105, "until": 437.9168181583388}, {"on": false, "note": 62, "velocity": 0, "until": 437.9168181583388}, {"on": true, "note": 64, "velocity": 105, "until": 438.1477048916721}, {"on": false, "note": 64, "velocity": 0, "until": 438.1477048916721}, {"on": true, "note": 62, "velocity": 105, "until": 438.39260189167214}, {"on": false, "note": 62, "velocity": 0, "until": 442.7339701583384}, {"on": true, "note": 60, "velocity": 105, "until": 442.9070469083383}, {"on": false, "note": 60, "velocity": 0, "until": 442.9648160833383}, {"on": true, "note": 60, "velocity": 105, "until": 443.1448160833384}, {"on": false, "note": 60, "velocity": 0, "until": 443.2048160833384}, {"on": true, "note": 60, "velocity": 105, "until": 443.38481608333854}, {"on": false, "note": 60, "velocity": 0, "until": 443.44481608333854}, {"on": true, "note": 60, "velocity": 105, "until": 443.62481608333866}, {"on": false, "note": 60, "velocity": 0, "until": 443.68481608333866}, {"on": true, "note": 60, "velocity": 105, "until": 443.8648160833388}, {"on": false, "note": 60, "velocity": 0, "until": 443.9248160833388}, {"on": true, "note": 60, "velocity": 105, "until": 444.4047391583397}, {"on": false, "note": 60, "velocity": 0, "until": 446.5199701583391}, {"on": true, "note": 62, "velocity": 105, "until": 446.693046908339}, {"on": false, "note": 62, "velocity": 0, "until": 446.75078458333894}, {"on": true, "note": 64, "velocity": 105, "until": 446.9279495833388}, {"on": false, "note": 64, "velocity": 0, "until": 446.9870045833387}, {"on": true, "note": 62, "velocity": 105, "until": 447.16416958333855}, {"on": false, "note": 62, "velocity": 0, "until": 447.2232245833385}, {"on": true, "note": 64, "velocity": 105, "until": 447.4003895833383}, {"on": false, "note": 64, "velocity": 0, "until": 447.45944458333827}, {"on": true, "note": 62, "velocity": 105, "until": 447.6366095833381}, {"on": false, "note": 62, "velocity": 0, "until": 447.69566458333804}, {"on": true, "note": 64, "velocity": 105, "until": 447.93188458333793}, {"on": false, "note": 64, "velocity": 0, "until": 448.1680591583378}, {"on": true, "note": 67, "velocity": 105, "until": 448.61036640833754}, {"on": false, "note": 67, "velocity": 0, "until": 448.62971489167086}, {"on": true, "note": 67, "velocity": 105, "until": 449.09910080833754}, {"on": false, "note": 67, "velocity": 0, "until": 449.1193911583375}, {"on": true, "note": 62, "velocity": 105, "until": 449.56169840833724}, {"on": false, "note": 62, "velocity": 0, "until": 449.58104689167055}, {"on": true, "note": 62, "velocity": 105, "until": 450.05043280833723}, {"on": false, "note": 62, "velocity": 0, "until": 450.0707231583372}, {"on": true, "note": 62, "velocity": 105, "until": 450.51303040833693}, {"on": false, "note": 62, "velocity": 0, "until": 450.53237889167025}, {"on": true, "note": 60, "velocity": 105, "until": 451.02205515833697}, {"on": false, "note": 60, "velocity": 0, "until": 451.4837108916702}, {"on": true, "note": 60, "velocity": 105, "until": 451.97338715833695}, {"on": false, "note": 60, "velocity": 0, "until": 452.43504289166975}, {"on": true, "note": 60, "velocity": 105, "until": 452.6799398916698}, {"on": false, "note": 60, "velocity": 0, "until": 452.9247191583365}, {"on": true, "note": 60, "velocity": 105, "until": 453.15548815833614}, {"on": false, "note": 60, "velocity": 0, "until": 453.3863748916694}, {"on": true, "note": 60, "velocity": 105, "until": 453.6312718916694}, {"on": false, "note": 60, "velocity": 0, "until": 453.8760511583361}, {"on": true, "note": 60, "velocity": 105, "until": 454.1068201583358}, {"on": false, "note": 60, "velocity": 0, "until": 454.33770689166903}, {"on": true, "note": 60, "velocity": 105, "until": 455.28903889166895}, {"on": false, "note": 60, "velocity": 0, "until": 455.28903889166895}, {"on": true, "note": 60, "velocity": 105, "until": 456.2403708916689}, {"on": false, "note": 60, "velocity": 0, "until": 456.2403708916689}, {"on": true, "note": 60, "velocity": 105, "until": 456.7300471583356}, {"on": false, "note": 60, "velocity": 0, "until": 456.7300471583356}, {"on": true, "note": 60, "velocity": 105, "until": 457.1917028916685}, {"on": false, "note": 60, "velocity": 0, "until": 457.1917028916685}, {"on": true, "note": 60, "velocity": 105, "until": 457.68137915833523}, {"on": false, "note": 60, "velocity": 0, "until": 457.68137915833523}, {"on": true, "note": 60, "velocity": 105, "until": 458.14303489166815}, {"on": false, "note": 60, "velocity": 0, "until": 458.14303489166815}, {"on": true, "note": 55, "velocity": 105, "until": 458.3879318916682}, {"on": false, "note": 55, "velocity": 0, "until": 478.0263411333307}, {"on": true, "note": 67, "velocity": 105, "until": 478.52835720832996}, {"on": false, "note": 67, "velocity": 0, "until": 481.9701631916627}, {"on": true, "note": 67, "velocity": 105, "until": 482.4659393666627}, {"on": false, "note": 67, "velocity": 0, "until": 485.8508173666624}, {"on": true, "note": 62, "velocity": 105, "until": 486.336529474996}, {"on": false, "note": 62, "velocity": 0, "until": 486.565536474996}, {"on": true, "note": 62, "velocity": 105, "until": 486.7946593666628}, {"on": false, "note": 62, "velocity": 0, "until": 486.7946593666628}, {"on": true, "note": 62, "velocity": 105, "until": 487.0375733666629}, {"on": false, "note": 62, "velocity": 0, "until": 487.0375733666629}, {"on": true, "note": 62, "velocity": 105, "until": 487.2803714749963}, {"on": false, "note": 62, "velocity": 0, "until": 487.2803714749963}, {"on": true, "note": 62, "velocity": 105, "until": 487.5093784749964}, {"on": false, "note": 62, "velocity": 0, "until": 489.626564924998}, {"on": true, "note": 60, "velocity": 105, "until": 489.9147054166643}, {"on": false, "note": 60, "velocity": 0, "until": 493.6926094666641}, {"on": true, "note": 55, "velocity": 105, "until": 502.09383383333306}, {"on": false, "note": 55, "velocity": 0, "until": 503.32816158333287}, {"on": true, "note": 60, "velocity": 105, "until": 504.04804608333257}, {"on": false, "note": 60, "velocity": 0, "until": 511.25936920833186}, {"on": true, "note": 60, "velocity": 105, "until": 511.97158008333196}, {"on": false, "note": 60, "velocity": 0, "until": 515.1060384750003}, {"on": true, "note": 62, "velocity": 105, "until": 515.3350454750007}, {"on": false, "note": 62, "velocity": 0, "until": 515.3350454750007}, {"on": true, "note": 62, "velocity": 105, "until": 515.5641683666677}, {"on": false, "note": 62, "velocity": 0, "until": 515.5641683666677}, {"on": true, "note": 64, "velocity": 105, "until": 516.0501272500009}, {"on": false, "note": 64, "velocity": 0, "until": 525.1345553666682}, {"on": true, "note": 62, "velocity": 105, "until": 525.377469366668}, {"on": false, "note": 62, "velocity": 0, "until": 541.1796765833336}, {"on": true, "note": 60, "velocity": 105, "until": 541.5826065833335}, {"on": false, "note": 60, "velocity": 0, "until": 541.6191292166667}, {"on": true, "note": 60, "velocity": 105, "until": 541.9984385500003}, {"on": false, "note": 60, "velocity": 0, "until": 542.0329891916671}, {"on": true, "note": 60, "velocity": 105, "until": 542.4272530250005}, {"on": false, "note": 60, "velocity": 0, "until": 542.4630212916672}, {"on": true, "note": 60, "velocity": 105, "until": 542.841027125001}, {"on": false, "note": 60, "velocity": 0, "until": 542.8754587916678}, {"on": true, "note": 60, "velocity": 105, "until": 543.2683146250014}, {"on": false, "note": 60, "velocity": 0, "until": 543.3039495666682}, {"on": true, "note": 60, "velocity": 105, "until": 543.6793759000017}, {"on": false, "note": 60, "velocity": 0, "until": 543.7135847916685}, {"on": true, "note": 60, "velocity": 105, "until": 544.1420755666687}, {"on": false, "note": 60, "velocity": 0, "until": 544.551710791669}, {"on": true, "note": 67, "velocity": 105, "until": 544.9802015666695}, {"on": false, "note": 67, "velocity": 0, "until": 545.3898367916698}, {"on": true, "note": 65, "velocity": 105, "until": 545.8183275666703}, {"on": false, "note": 65, "velocity": 0, "until": 546.2279627916705}, {"on": true, "note": 67, "velocity": 105, "until": 546.656453566671}, {"on": false, "note": 67, "velocity": 0, "until": 547.0660887916713}, {"on": true, "note": 65, "velocity": 105, "until": 547.4945795666717}, {"on": false, "note": 65, "velocity": 0, "until": 547.904214791672}, {"on": true, "note": 67, "velocity": 120, "until": 549.5804667916747}, {"on": false, "note": 67, "velocity": 0, "until": 549.5804667916747}, {"on": true, "note": 55, "velocity": 105, "until": 550.418592791677}, {"on": false, "note": 55, "velocity": 0, "until": 550.418592791677}, {"on": true, "note": 55, "velocity": 105, "until": 551.2567187916794}, {"on": false, "note": 55, "velocity": 0, "until": 551.2567187916794}, {"on": true, "note": 55, "velocity": 105, "until": 552.9329707916829}, {"on": false, "note": 55, "velocity": 0, "until": 552.9329707916829}, {"on": true, "note": 55, "velocity": 105, "until": 553.7710967916853}, {"on": false, "note": 55, "velocity": 0, "until": 553.7710967916853}, {"on": true, "note": 55, "velocity": 105, "until": 554.6092227916877}, {"on": false, "note": 55, "velocity": 0, "until": 554.6092227916877}, {"on": true, "note": 55, "velocity": 105, "until": 557.9617267916932}, {"on": false, "note": 55, "velocity": 0, "until": 557.9617267916932}, {"on": true, "note": 60, "velocity": 105, "until": 558.1760117916934}, {"on": false, "note": 60, "velocity": 0, "until": 558.7998527916938}, {"on": true, "note": 60, "velocity": 105, "until": 559.0141377916942}, {"on": false, "note": 60, "velocity": 0, "until": 559.6379787916945}, {"on": true, "note": 64, "velocity": 105, "until": 559.852263791695}, {"on": false, "note": 64, "velocity": 0, "until": 560.4761047916953}, {"on": true, "note": 62, "velocity": 105, "until": 560.6906874166957}, {"on": false, "note": 62, "velocity": 0, "until": 561.3898277916959}, {"on": true, "note": 55, "velocity": 105, "until": 564.7423317917006}, {"on": false, "note": 55, "velocity": 0, "until": 564.7423317917006}, {"on": true, "note": 60, "velocity": 105, "until": 564.9566167917009}, {"on": false, "note": 60, "velocity": 0, "until": 565.5804577917012}, {"on": true, "note": 60, "velocity": 105, "until": 565.7947427917017}, {"on": false, "note": 60, "velocity": 0, "until": 566.4186096750352}, {"on": true, "note": 64, "velocity": 105, "until": 566.6360006750348}, {"on": false, "note": 64, "velocity": 0, "until": 567.2716211583677}, {"on": true, "note": 62, "velocity": 105, "until": 567.5067170833682}, {"on": false, "note": 62, "velocity": 0, "until": 580.4371427917114}, {"on": true, "note": 64, "velocity": 105, "until": 580.6335707083783}, {"on": false, "note": 64, "velocity": 0, "until": 580.6514277917117}, {"on": true, "note": 62, "velocity": 105, "until": 580.8478557083788}, {"on": false, "note": 62, "velocity": 0, "until": 580.8656335667122}, {"on": true, "note": 64, "velocity": 105, "until": 581.053346733379}, {"on": false, "note": 64, "velocity": 0, "until": 581.0704115667123}, {"on": true, "note": 62, "velocity": 105, "until": 581.2581247333792}, {"on": false, "note": 62, "velocity": 0, "until": 581.2752687917125}, {"on": true, "note": 64, "velocity": 105, "until": 581.4716967083796}, {"on": false, "note": 64, "velocity": 0, "until": 581.489553791713}, {"on": true, "note": 62, "velocity": 105, "until": 581.68598170838}, {"on": false, "note": 62, "velocity": 0, "until": 581.7037595667134}, {"on": true, "note": 64, "velocity": 105, "until": 581.8914727333803}, {"on": false, "note": 64, "velocity": 0, "until": 581.9085375667136}, {"on": true, "note": 62, "velocity": 105, "until": 582.0962507333804}, {"on": false, "note": 62, "velocity": 0, "until": 582.1133332167137}, {"on": true, "note": 64, "velocity": 105, "until": 582.3202292167138}, {"on": false, "note": 64, "velocity": 0, "until": 583.0271804417139}, {"on": true, "note": 64, "velocity": 105, "until": 583.240703441714}, {"on": false, "note": 64, "velocity": 0, "until": 583.9978027500475}, {"on": true, "note": 60, "velocity": 105, "until": 584.5665227500476}]}, {"id": 5, "states": [{"on": true, "note": 48, "velocity": 105, "until": 0}, {"on": false, "note": 0, "velocity": 0, "until": 5.42127658333331}, {"on": false, "note": 48, "velocity": 0, "until": 5.42127658333331}, {"on": true, "note": 48, "velocity": 105, "until": 6.187233583333312}, {"on": false, "note": 48, "velocity": 0, "until": 6.697871583333313}, {"on": true, "note": 48, "velocity": 105, "until": 7.4638285833333144}, {"on": false, "note": 48, "velocity": 0, "until": 9.68747499999999}, {"on": true, "note": 48, "velocity": 105, "until": 13.289697216666628}, {"on": false, "note": 48, "velocity": 0, "until": 13.289697216666628}, {"on": true, "note": 48, "velocity": 105, "until": 14.089697016666625}, {"on": false, "note": 48, "velocity": 0, "until": 14.623030216666624}, {"on": true, "note": 43, "velocity": 105, "until": 15.42303001666662}, {"on": false, "note": 43, "velocity": 0, "until": 28.940819116666756}, {"on": true, "note": 43, "velocity": 105, "until": 31.443427000000103}, {"on": false, "note": 43, "velocity": 0, "until": 31.443427000000103}, {"on": true, "note": 43, "velocity": 105, "until": 32.04342700000017}, {"on": false, "note": 43, "velocity": 0, "until": 32.645166116666836}, {"on": true, "note": 43, "velocity": 105, "until": 35.14905058333347}, {"on": false, "note": 43, "velocity": 0, "until": 35.14905058333347}, {"on": true, "note": 43, "velocity": 105, "until": 35.79238728333343}, {"on": false, "note": 43, "velocity": 0, "until": 36.578800800000096}, {"on": true, "note": 43, "velocity": 105, "until": 38.6248056166668}, {"on": false, "note": 43, "velocity": 0, "until": 59.138957599999976}, {"on": true, "note": 43, "velocity": 105, "until": 59.820775599999884}, {"on": false, "note": 43, "velocity": 0, "until": 62.96770959999987}, {"on": true, "note": 43, "velocity": 105, "until": 63.64952759999978}, {"on": false, "note": 43, "velocity": 0, "until": 66.79547344999982}, {"on": true, "note": 48, "velocity": 105, "until": 67.4476469500001}, {"on": false, "note": 48, "velocity": 0, "until": 79.93612761666681}, {"on": true, "note": 48, "velocity": 105, "until": 81.18612682500041}, {"on": false, "note": 48, "velocity": 0, "until": 81.2404746166671}, {"on": true, "note": 48, "velocity": 105, "until": 82.4904738250007}, {"on": false, "note": 48, "velocity": 0, "until": 82.5448216166674}, {"on": true, "note": 60, "velocity": 105, "until": 85.04742950000126}, {"on": false, "note": 60, "velocity": 0, "until": 85.04742950000126}, {"on": true, "note": 55, "velocity": 105, "until": 86.32535895000127}, {"on": false, "note": 55, "velocity": 0, "until": 86.32535895000127}, {"on": true, "note": 52, "velocity": 81, "until": 87.3036192000013}, {"on": false, "note": 52, "velocity": 0, "until": 87.3036192000013}, {"on": true, "note": 55, "velocity": 77, "until": 87.62796683333481}, {"on": false, "note": 55, "velocity": 0, "until": 87.62796683333481}, {"on": true, "note": 60, "velocity": 75, "until": 87.90796683333485}, {"on": false, "note": 60, "velocity": 0, "until": 88.02796683333486}, {"on": true, "note": 60, "velocity": 73, "until": 88.30796683333487}, {"on": false, "note": 60, "velocity": 0, "until": 88.42796683333488}, {"on": true, "note": 60, "velocity": 71, "until": 88.7079668333349}, {"on": false, "note": 60, "velocity": 0, "until": 88.8279668333349}, {"on": true, "note": 60, "velocity": 68, "until": 89.10796683333491}, {"on": false, "note": 60, "velocity": 0, "until": 89.22796683333492}, {"on": true, "note": 60, "velocity": 67, "until": 89.50796683333493}, {"on": false, "note": 60, "velocity": 0, "until": 89.63069410000159}, {"on": true, "note": 60, "velocity": 64, "until": 89.94887583333492}, {"on": false, "note": 60, "velocity": 0, "until": 90.08425128333494}, {"on": true, "note": 60, "velocity": 64, "until": 93.86478861666833}, {"on": false, "note": 60, "velocity": 0, "until": 93.86478861666833}, {"on": true, "note": 60, "velocity": 105, "until": 95.11478782500168}, {"on": false, "note": 60, "velocity": 0, "until": 95.1673965000017}, {"on": true, "note": 48, "velocity": 105, "until": 95.51739650000177}, {"on": false, "note": 48, "velocity": 0, "until": 95.56739650000178}, {"on": true, "note": 48, "velocity": 105, "until": 95.91739650000186}, {"on": false, "note": 48, "velocity": 0, "until": 95.96739650000187}, {"on": true, "note": 48, "velocity": 105, "until": 96.31739650000195}, {"on": false, "note": 48, "velocity": 0, "until": 96.36739650000196}, {"on": true, "note": 48, "velocity": 105, "until": 96.71739650000201}, {"on": false, "note": 48, "velocity": 0, "until": 96.76739650000204}, {"on": true, "note": 48, "velocity": 105, "until": 97.11739650000206}, {"on": false, "note": 48, "velocity": 0, "until": 97.16739650000207}, {"on": true, "note": 48, "velocity": 105, "until": 97.57386700000211}, {"on": false, "note": 48, "velocity": 0, "until": 97.63972374166879}, {"on": true, "note": 60, "velocity": 105, "until": 100.14360820833575}, {"on": false, "note": 60, "velocity": 0, "until": 100.14360820833575}, {"on": true, "note": 55, "velocity": 77, "until": 101.49226589166908}, {"on": false, "note": 55, "velocity": 0, "until": 101.49226589166908}, {"on": true, "note": 52, "velocity": 65, "until": 102.85091669166906}, {"on": false, "note": 52, "velocity": 0, "until": 105.40955959166905}, {"on": true, "note": 60, "velocity": 77, "until": 108.10773790833572}, {"on": false, "note": 60, "velocity": 0, "until": 108.10773790833572}, {"on": true, "note": 55, "velocity": 72, "until": 109.46266268333572}, {"on": false, "note": 55, "velocity": 0, "until": 109.46266268333572}, {"on": true, "note": 52, "velocity": 69, "until": 110.9512839333357}, {"on": false, "note": 52, "velocity": 0, "until": 127.59436320000216}, {"on": true, "note": 48, "velocity": 95, "until": 128.03517780000217}, {"on": false, "note": 48, "velocity": 0, "until": 128.08392173333553}, {"on": true, "note": 48, "velocity": 95, "until": 128.49930593333556}, {"on": false, "note": 48, "velocity": 0, "until": 128.54569520000223}, {"on": true, "note": 48, "velocity": 95, "until": 129.03525373333557}, {"on": false, "note": 48, "velocity": 0, "until": 131.39856520000203}, {"on": true, "note": 48, "velocity": 95, "until": 131.88812373333536}, {"on": false, "note": 48, "velocity": 0, "until": 131.88812373333536}, {"on": true, "note": 48, "velocity": 95, "until": 132.34989720000203}, {"on": false, "note": 48, "velocity": 0, "until": 132.34989720000203}, {"on": true, "note": 48, "velocity": 95, "until": 132.83945573333537}, {"on": false, "note": 48, "velocity": 0, "until": 133.30108458333538}, {"on": true, "note": 52, "velocity": 105, "until": 133.47824958333544}, {"on": false, "note": 52, "velocity": 0, "until": 133.53730458333544}, {"on": true, "note": 52, "velocity": 105, "until": 133.7144695833355}, {"on": false, "note": 52, "velocity": 0, "until": 133.7735245833355}, {"on": true, "note": 52, "velocity": 105, "until": 133.95068958333556}, {"on": false, "note": 52, "velocity": 0, "until": 134.00974458333556}, {"on": true, "note": 52, "velocity": 105, "until": 134.18690958333562}, {"on": false, "note": 52, "velocity": 0, "until": 134.24596458333562}, {"on": true, "note": 52, "velocity": 105, "until": 134.718313733336}, {"on": false, "note": 52, "velocity": 0, "until": 139.03242320000305}, {"on": true, "note": 55, "velocity": 105, "until": 139.21609595000305}, {"on": false, "note": 55, "velocity": 0, "until": 139.27732020000306}, {"on": true, "note": 55, "velocity": 105, "until": 139.75275073333648}, {"on": false, "note": 55, "velocity": 0, "until": 139.75275073333648}, {"on": true, "note": 60, "velocity": 105, "until": 139.98375520000315}, {"on": false, "note": 60, "velocity": 0, "until": 139.98375520000315}, {"on": true, "note": 55, "velocity": 105, "until": 140.16742795000314}, {"on": false, "note": 55, "velocity": 0, "until": 140.22865220000315}, {"on": true, "note": 55, "velocity": 105, "until": 140.70408273333658}, {"on": false, "note": 55, "velocity": 0, "until": 140.70408273333658}, {"on": true, "note": 60, "velocity": 105, "until": 140.93508720000324}, {"on": false, "note": 60, "velocity": 0, "until": 140.93508720000324}, {"on": true, "note": 55, "velocity": 105, "until": 141.11875995000324}, {"on": false, "note": 55, "velocity": 0, "until": 141.17998420000325}, {"on": true, "note": 55, "velocity": 105, "until": 141.65541473333667}, {"on": false, "note": 55, "velocity": 0, "until": 141.65541473333667}, {"on": true, "note": 60, "velocity": 105, "until": 141.88641920000333}, {"on": false, "note": 60, "velocity": 0, "until": 141.88641920000333}, {"on": true, "note": 55, "velocity": 105, "until": 142.13131620000337}, {"on": false, "note": 55, "velocity": 0, "until": 146.47256673333672}, {"on": true, "note": 48, "velocity": 105, "until": 146.64564348333673}, {"on": false, "note": 48, "velocity": 0, "until": 146.70348958333676}, {"on": true, "note": 48, "velocity": 105, "until": 146.8834895833368}, {"on": false, "note": 48, "velocity": 0, "until": 146.94348958333683}, {"on": true, "note": 48, "velocity": 105, "until": 147.12348958333686}, {"on": false, "note": 48, "velocity": 0, "until": 147.1834895833369}, {"on": true, "note": 48, "velocity": 105, "until": 147.36348958333693}, {"on": false, "note": 48, "velocity": 0, "until": 147.42348958333696}, {"on": true, "note": 48, "velocity": 105, "until": 147.603489583337}, {"on": false, "note": 48, "velocity": 0, "until": 147.66348958333703}, {"on": true, "note": 48, "velocity": 105, "until": 148.14333573333732}, {"on": false, "note": 48, "velocity": 0, "until": 150.2585667333375}, {"on": true, "note": 55, "velocity": 105, "until": 150.4316434833375}, {"on": false, "note": 55, "velocity": 0, "until": 150.4894265833375}, {"on": true, "note": 60, "velocity": 105, "until": 150.66659158333755}, {"on": false, "note": 60, "velocity": 0, "until": 150.72564658333755}, {"on": true, "note": 55, "velocity": 105, "until": 150.9028115833376}, {"on": false, "note": 55, "velocity": 0, "until": 150.9618665833376}, {"on": true, "note": 60, "velocity": 105, "until": 151.13903158333767}, {"on": false, "note": 60, "velocity": 0, "until": 151.19808658333767}, {"on": true, "note": 55, "velocity": 105, "until": 151.37525158333773}, {"on": false, "note": 55, "velocity": 0, "until": 151.43430658333773}, {"on": true, "note": 60, "velocity": 105, "until": 151.67052658333776}, {"on": false, "note": 60, "velocity": 0, "until": 151.9066557333378}, {"on": true, "note": 55, "velocity": 105, "until": 152.3489629833378}, {"on": false, "note": 55, "velocity": 0, "until": 152.36842920000447}, {"on": true, "note": 55, "velocity": 105, "until": 152.83781511667118}, {"on": false, "note": 55, "velocity": 0, "until": 152.85798773333786}, {"on": true, "note": 62, "velocity": 105, "until": 153.30029498333786}, {"on": false, "note": 62, "velocity": 0, "until": 153.31976120000454}, {"on": true, "note": 55, "velocity": 105, "until": 153.78914711667124}, {"on": false, "note": 55, "velocity": 0, "until": 153.80931973333793}, {"on": true, "note": 55, "velocity": 105, "until": 154.25162698333793}, {"on": false, "note": 55, "velocity": 0, "until": 154.2710932000046}, {"on": true, "note": 48, "velocity": 105, "until": 154.76065173333802}, {"on": false, "note": 48, "velocity": 0, "until": 155.22242520000464}, {"on": true, "note": 48, "velocity": 105, "until": 155.71198373333806}, {"on": false, "note": 48, "velocity": 0, "until": 156.17375720000481}, {"on": true, "note": 48, "velocity": 105, "until": 156.41865420000485}, {"on": false, "note": 48, "velocity": 0, "until": 156.66331573333824}, {"on": true, "note": 48, "velocity": 105, "until": 156.89408473333827}, {"on": false, "note": 48, "velocity": 0, "until": 157.12508920000494}, {"on": true, "note": 48, "velocity": 105, "until": 157.36998620000497}, {"on": false, "note": 48, "velocity": 0, "until": 157.61464773333836}, {"on": true, "note": 48, "velocity": 105, "until": 157.8454167333384}, {"on": false, "note": 48, "velocity": 0, "until": 158.07642120000506}, {"on": true, "note": 55, "velocity": 105, "until": 159.01790235833857}, {"on": false, "note": 55, "velocity": 0, "until": 159.02775320000524}, {"on": true, "note": 55, "velocity": 105, "until": 159.96923435833875}, {"on": false, "note": 55, "velocity": 0, "until": 159.97908520000541}, {"on": true, "note": 55, "velocity": 105, "until": 160.4586751583388}, {"on": false, "note": 55, "velocity": 0, "until": 160.4686437333388}, {"on": true, "note": 55, "velocity": 105, "until": 160.92056635833893}, {"on": false, "note": 55, "velocity": 0, "until": 160.9304172000056}, {"on": true, "note": 55, "velocity": 105, "until": 161.41000715833897}, {"on": false, "note": 55, "velocity": 0, "until": 161.419975733339}, {"on": true, "note": 55, "velocity": 105, "until": 161.87189835833902}, {"on": false, "note": 55, "velocity": 0, "until": 161.8817492000057}, {"on": true, "note": 62, "velocity": 105, "until": 162.12664620000572}, {"on": false, "note": 62, "velocity": 0, "until": 181.76510668334024}, {"on": true, "note": 62, "velocity": 105, "until": 182.26704683334023}, {"on": false, "note": 62, "velocity": 0, "until": 185.70890280000665}, {"on": true, "note": 62, "velocity": 105, "until": 186.20458915000694}, {"on": false, "note": 62, "velocity": 0, "until": 191.47719915000621}, {"on": true, "note": 48, "velocity": 105, "until": 192.18226040833898}, {"on": false, "note": 48, "velocity": 0, "until": 192.19180236667228}, {"on": true, "note": 48, "velocity": 105, "until": 192.4112674083389}, {"on": false, "note": 48, "velocity": 0, "until": 192.42104115000555}, {"on": true, "note": 48, "velocity": 105, "until": 192.6538337333388}, {"on": false, "note": 48, "velocity": 0, "until": 192.66395515000542}, {"on": true, "note": 48, "velocity": 105, "until": 192.8967477333386}, {"on": false, "note": 48, "velocity": 0, "until": 192.90663736667193}, {"on": true, "note": 48, "velocity": 105, "until": 193.13564436667187}, {"on": false, "note": 48, "velocity": 0, "until": 193.36564226667187}, {"on": true, "note": 55, "velocity": 105, "until": 193.65346225000542}, {"on": false, "note": 55, "velocity": 0, "until": 195.3823730833388}, {"on": true, "note": 62, "velocity": 105, "until": 195.63878308333884}, {"on": false, "note": 62, "velocity": 0, "until": 196.38498708333893}, {"on": true, "note": 62, "velocity": 105, "until": 196.64139708333897}, {"on": false, "note": 62, "velocity": 0, "until": 197.43149535000578}, {"on": true, "note": 55, "velocity": 90, "until": 205.83264408333915}, {"on": false, "note": 55, "velocity": 0, "until": 206.08876463333914}, {"on": true, "note": 52, "velocity": 105, "until": 207.05661658333915}, {"on": false, "note": 52, "velocity": 0, "until": 207.06680358333915}, {"on": true, "note": 55, "velocity": 105, "until": 207.7872195833393}, {"on": false, "note": 55, "velocity": 0, "until": 214.03378458333927}, {"on": true, "note": 52, "velocity": 105, "until": 214.98794205833934}, {"on": false, "note": 52, "velocity": 0, "until": 214.99799583333933}, {"on": true, "note": 55, "velocity": 105, "until": 215.71075358333928}, {"on": false, "note": 55, "velocity": 0, "until": 218.8446203666723}, {"on": true, "note": 55, "velocity": 105, "until": 219.06408540833888}, {"on": false, "note": 55, "velocity": 0, "until": 219.0736273666722}, {"on": true, "note": 55, "velocity": 105, "until": 219.2930924083388}, {"on": false, "note": 55, "velocity": 0, "until": 219.30286615000546}, {"on": true, "note": 55, "velocity": 105, "until": 219.78895591667168}, {"on": false, "note": 55, "velocity": 0, "until": 229.40249600000385}, {"on": true, "note": 62, "velocity": 105, "until": 229.59023541667054}, {"on": false, "note": 62, "velocity": 0, "until": 229.63238100000387}, {"on": true, "note": 62, "velocity": 105, "until": 229.82012041667056}, {"on": false, "note": 62, "velocity": 0, "until": 229.86243458333726}, {"on": true, "note": 62, "velocity": 105, "until": 230.26243458333727}, {"on": false, "note": 62, "velocity": 0, "until": 230.34225136667058}, {"on": true, "note": 62, "velocity": 105, "until": 230.5292737500039}, {"on": false, "note": 62, "velocity": 0, "until": 230.57125836667058}, {"on": true, "note": 62, "velocity": 105, "until": 230.7582807500039}, {"on": false, "note": 62, "velocity": 0, "until": 230.8004971500039}, {"on": true, "note": 62, "velocity": 105, "until": 231.2053538166705}, {"on": false, "note": 62, "velocity": 0, "until": 231.2860933666705}, {"on": true, "note": 62, "velocity": 105, "until": 231.47311575000384}, {"on": false, "note": 62, "velocity": 0, "until": 231.5151003666705}, {"on": true, "note": 62, "velocity": 105, "until": 231.70212275000384}, {"on": false, "note": 62, "velocity": 0, "until": 231.74433915000384}, {"on": true, "note": 62, "velocity": 105, "until": 232.14919581667044}, {"on": false, "note": 62, "velocity": 0, "until": 232.22993536667045}, {"on": true, "note": 62, "velocity": 105, "until": 232.41695775000377}, {"on": false, "note": 62, "velocity": 0, "until": 232.45894236667044}, {"on": true, "note": 62, "velocity": 105, "until": 232.64596475000377}, {"on": false, "note": 62, "velocity": 0, "until": 232.68810083333713}, {"on": true, "note": 55, "velocity": 105, "until": 232.92794186667052}, {"on": false, "note": 55, "velocity": 0, "until": 246.72673970000446}, {"on": true, "note": 48, "velocity": 95, "until": 247.16755430000447}, {"on": false, "note": 48, "velocity": 0, "until": 247.21629823333782}, {"on": true, "note": 48, "velocity": 95, "until": 247.63168243333786}, {"on": false, "note": 48, "velocity": 0, "until": 247.67807170000452}, {"on": true, "note": 48, "velocity": 95, "until": 248.16763023333786}, {"on": false, "note": 48, "velocity": 0, "until": 250.53094170000432}, {"on": true, "note": 48, "velocity": 95, "until": 251.02050023333766}, {"on": false, "note": 48, "velocity": 0, "until": 251.02050023333766}, {"on": true, "note": 48, "velocity": 95, "until": 251.48227370000433}, {"on": false, "note": 48, "velocity": 0, "until": 251.48227370000433}, {"on": true, "note": 48, "velocity": 95, "until": 251.97183223333766}, {"on": false, "note": 48, "velocity": 0, "until": 252.43346108333768}, {"on": true, "note": 52, "velocity": 105, "until": 252.61062608333773}, {"on": false, "note": 52, "velocity": 0, "until": 252.66968108333774}, {"on": true, "note": 52, "velocity": 105, "until": 252.8468460833378}, {"on": false, "note": 52, "velocity": 0, "until": 252.9059010833378}, {"on": true, "note": 52, "velocity": 105, "until": 253.08306608333785}, {"on": false, "note": 52, "velocity": 0, "until": 253.14212108333786}, {"on": true, "note": 52, "velocity": 105, "until": 253.31928608333791}, {"on": false, "note": 52, "velocity": 0, "until": 253.37834108333792}, {"on": true, "note": 52, "velocity": 105, "until": 253.8506902333383}, {"on": false, "note": 52, "velocity": 0, "until": 258.1647997000046}, {"on": true, "note": 55, "velocity": 105, "until": 258.34847245000464}, {"on": false, "note": 55, "velocity": 0, "until": 258.40969670000464}, {"on": true, "note": 55, "velocity": 105, "until": 258.88512723333776}, {"on": false, "note": 55, "velocity": 0, "until": 258.88512723333776}, {"on": true, "note": 60, "velocity": 105, "until": 259.1161317000044}, {"on": false, "note": 60, "velocity": 0, "until": 259.1161317000044}, {"on": true, "note": 55, "velocity": 105, "until": 259.29980445000444}, {"on": false, "note": 55, "velocity": 0, "until": 259.36102870000445}, {"on": true, "note": 55, "velocity": 105, "until": 259.83645923333756}, {"on": false, "note": 55, "velocity": 0, "until": 259.83645923333756}, {"on": true, "note": 60, "velocity": 105, "until": 260.0674637000042}, {"on": false, "note": 60, "velocity": 0, "until": 260.0674637000042}, {"on": true, "note": 55, "velocity": 105, "until": 260.25113645000425}, {"on": false, "note": 55, "velocity": 0, "until": 260.31236070000426}, {"on": true, "note": 55, "velocity": 105, "until": 260.7877912333374}, {"on": false, "note": 55, "velocity": 0, "until": 260.7877912333374}, {"on": true, "note": 60, "velocity": 105, "until": 261.01879570000403}, {"on": false, "note": 60, "velocity": 0, "until": 261.01879570000403}, {"on": true, "note": 55, "velocity": 105, "until": 261.26390291667076}, {"on": false, "note": 55, "velocity": 0, "until": 265.6175562333371}, {"on": true, "note": 48, "velocity": 105, "until": 265.790632983337}, {"on": false, "note": 48, "velocity": 0, "until": 265.848479083337}, {"on": true, "note": 48, "velocity": 105, "until": 266.0284790833371}, {"on": false, "note": 48, "velocity": 0, "until": 266.0884790833371}, {"on": true, "note": 48, "velocity": 105, "until": 266.26847908333724}, {"on": false, "note": 48, "velocity": 0, "until": 266.32847908333724}, {"on": true, "note": 48, "velocity": 105, "until": 266.50847908333736}, {"on": false, "note": 48, "velocity": 0, "until": 266.56847908333737}, {"on": true, "note": 48, "velocity": 105, "until": 266.7484790833375}, {"on": false, "note": 48, "velocity": 0, "until": 266.8084790833375}, {"on": true, "note": 48, "velocity": 105, "until": 267.28832523333836}, {"on": false, "note": 48, "velocity": 0, "until": 269.4035562333378}, {"on": true, "note": 55, "velocity": 105, "until": 269.5766329833377}, {"on": false, "note": 55, "velocity": 0, "until": 269.6344160833376}, {"on": true, "note": 60, "velocity": 105, "until": 269.81158108333744}, {"on": false, "note": 60, "velocity": 0, "until": 269.8706360833374}, {"on": true, "note": 55, "velocity": 105, "until": 270.0478010833372}, {"on": false, "note": 55, "velocity": 0, "until": 270.10685608333716}, {"on": true, "note": 60, "velocity": 105, "until": 270.284021083337}, {"on": false, "note": 60, "velocity": 0, "until": 270.34307608333694}, {"on": true, "note": 55, "velocity": 105, "until": 270.52024108333677}, {"on": false, "note": 55, "velocity": 0, "until": 270.5792960833367}, {"on": true, "note": 60, "velocity": 105, "until": 270.8155160833366}, {"on": false, "note": 60, "velocity": 0, "until": 271.0516452333365}, {"on": true, "note": 55, "velocity": 105, "until": 271.4939524833362}, {"on": false, "note": 55, "velocity": 0, "until": 271.5134187000029}, {"on": true, "note": 55, "velocity": 105, "until": 271.98280461666957}, {"on": false, "note": 55, "velocity": 0, "until": 272.0029772333362}, {"on": true, "note": 62, "velocity": 105, "until": 272.4452844833359}, {"on": false, "note": 62, "velocity": 0, "until": 272.4647507000026}, {"on": true, "note": 55, "velocity": 105, "until": 272.93413661666926}, {"on": false, "note": 55, "velocity": 0, "until": 272.9543092333359}, {"on": true, "note": 55, "velocity": 105, "until": 273.3966164833356}, {"on": false, "note": 55, "velocity": 0, "until": 273.4160827000023}, {"on": true, "note": 48, "velocity": 105, "until": 273.90564123333564}, {"on": false, "note": 48, "velocity": 0, "until": 274.36741470000226}, {"on": true, "note": 48, "velocity": 105, "until": 274.8569732333356}, {"on": false, "note": 48, "velocity": 0, "until": 275.3187467000018}, {"on": true, "note": 48, "velocity": 105, "until": 275.5636437000018}, {"on": false, "note": 48, "velocity": 0, "until": 275.80830523333515}, {"on": true, "note": 48, "velocity": 105, "until": 276.0390742333348}, {"on": false, "note": 48, "velocity": 0, "until": 276.2700787000014}, {"on": true, "note": 48, "velocity": 105, "until": 276.51497570000146}, {"on": false, "note": 48, "velocity": 0, "until": 276.7596372333348}, {"on": true, "note": 48, "velocity": 105, "until": 276.99040623333445}, {"on": false, "note": 48, "velocity": 0, "until": 277.22141070000106}, {"on": true, "note": 55, "velocity": 105, "until": 278.16289185833386}, {"on": false, "note": 55, "velocity": 0, "until": 278.1727427000005}, {"on": true, "note": 55, "velocity": 105, "until": 279.11422385833333}, {"on": false, "note": 55, "velocity": 0, "until": 279.1240747}, {"on": true, "note": 55, "velocity": 105, "until": 279.6036646583334}, {"on": false, "note": 55, "velocity": 0, "until": 279.61363323333336}, {"on": true, "note": 55, "velocity": 105, "until": 280.0655558583328}, {"on": false, "note": 55, "velocity": 0, "until": 280.07540669999946}, {"on": true, "note": 55, "velocity": 105, "until": 280.55499665833287}, {"on": false, "note": 55, "velocity": 0, "until": 280.5649652333328}, {"on": true, "note": 55, "velocity": 105, "until": 281.0168878583324}, {"on": false, "note": 55, "velocity": 0, "until": 281.02673869999904}, {"on": true, "note": 62, "velocity": 105, "until": 281.2716356999991}, {"on": false, "note": 62, "velocity": 0, "until": 300.9100961833306}, {"on": true, "note": 62, "velocity": 105, "until": 301.41203633333004}, {"on": false, "note": 62, "velocity": 0, "until": 304.8538922999967}, {"on": true, "note": 62, "velocity": 105, "until": 305.34957864999694}, {"on": false, "note": 62, "velocity": 0, "until": 310.6221886499983}, {"on": true, "note": 48, "velocity": 105, "until": 311.3272499083325}, {"on": false, "note": 48, "velocity": 0, "until": 311.33679186666586}, {"on": true, "note": 48, "velocity": 105, "until": 311.5562569083326}, {"on": false, "note": 48, "velocity": 0, "until": 311.56603064999933}, {"on": true, "note": 48, "velocity": 105, "until": 311.79882323333277}, {"on": false, "note": 48, "velocity": 0, "until": 311.8089446499995}, {"on": true, "note": 48, "velocity": 105, "until": 312.0417372333329}, {"on": false, "note": 48, "velocity": 0, "until": 312.0516268666663}, {"on": true, "note": 48, "velocity": 105, "until": 312.28063386666645}, {"on": false, "note": 48, "velocity": 0, "until": 312.51063176666645}, {"on": true, "note": 55, "velocity": 105, "until": 312.79845174999963}, {"on": false, "note": 55, "velocity": 0, "until": 314.52736258333346}, {"on": true, "note": 62, "velocity": 105, "until": 314.78377258333336}, {"on": false, "note": 62, "velocity": 0, "until": 315.52997658333334}, {"on": true, "note": 62, "velocity": 105, "until": 315.78638658333324}, {"on": false, "note": 62, "velocity": 0, "until": 316.57648485000004}, {"on": true, "note": 55, "velocity": 90, "until": 324.9776335833366}, {"on": false, "note": 55, "velocity": 0, "until": 325.2337541333366}, {"on": true, "note": 52, "velocity": 105, "until": 326.20160608333646}, {"on": false, "note": 52, "velocity": 0, "until": 326.21179308333643}, {"on": true, "note": 55, "velocity": 105, "until": 326.93220908333615}, {"on": false, "note": 55, "velocity": 0, "until": 333.178774083336}, {"on": true, "note": 52, "velocity": 105, "until": 334.1329315583357}, {"on": false, "note": 52, "velocity": 0, "until": 334.14298533333573}, {"on": true, "note": 55, "velocity": 105, "until": 334.8557430833358}, {"on": false, "note": 55, "velocity": 0, "until": 337.98960986666924}, {"on": true, "note": 55, "velocity": 105, "until": 338.20907490833605}, {"on": false, "note": 55, "velocity": 0, "until": 338.21861686666944}, {"on": true, "note": 55, "velocity": 105, "until": 338.43808190833624}, {"on": false, "note": 55, "velocity": 0, "until": 338.44785565000296}, {"on": true, "note": 55, "velocity": 105, "until": 338.9339454166703}, {"on": false, "note": 55, "velocity": 0, "until": 348.5474855000045}, {"on": true, "note": 62, "velocity": 105, "until": 348.73522491667114}, {"on": false, "note": 62, "velocity": 0, "until": 348.7773705000045}, {"on": true, "note": 62, "velocity": 105, "until": 348.96510991667117}, {"on": false, "note": 62, "velocity": 0, "until": 349.00742408333787}, {"on": true, "note": 62, "velocity": 105, "until": 349.40742408333796}, {"on": false, "note": 62, "velocity": 0, "until": 349.4872408666713}, {"on": true, "note": 62, "velocity": 105, "until": 349.6742632500047}, {"on": false, "note": 62, "velocity": 0, "until": 349.7162478666714}, {"on": true, "note": 62, "velocity": 105, "until": 349.90327025000477}, {"on": false, "note": 62, "velocity": 0, "until": 349.9454866500048}, {"on": true, "note": 62, "velocity": 105, "until": 350.3503433166716}, {"on": false, "note": 62, "velocity": 0, "until": 350.43108286667166}, {"on": true, "note": 62, "velocity": 105, "until": 350.61810525000504}, {"on": false, "note": 62, "velocity": 0, "until": 350.66008986667174}, {"on": true, "note": 62, "velocity": 105, "until": 350.8471122500051}, {"on": false, "note": 62, "velocity": 0, "until": 350.88932865000515}, {"on": true, "note": 62, "velocity": 105, "until": 351.29418531667187}, {"on": false, "note": 62, "velocity": 0, "until": 351.3749248666719}, {"on": true, "note": 62, "velocity": 105, "until": 351.5619472500053}, {"on": false, "note": 62, "velocity": 0, "until": 351.603931866672}, {"on": true, "note": 62, "velocity": 105, "until": 351.79095425000537}, {"on": false, "note": 62, "velocity": 0, "until": 351.83309033333865}, {"on": true, "note": 55, "velocity": 105, "until": 352.0729313666719}, {"on": false, "note": 55, "velocity": 0, "until": 362.3801687000068}, {"on": true, "note": 64, "velocity": 105, "until": 362.8697272333401}, {"on": false, "note": 64, "velocity": 0, "until": 364.28283270000685}, {"on": true, "note": 64, "velocity": 105, "until": 364.77239123334016}, {"on": false, "note": 64, "velocity": 0, "until": 366.1854967000069}, {"on": true, "note": 64, "velocity": 105, "until": 366.4303937000069}, {"on": false, "note": 64, "velocity": 0, "until": 366.6750552333402}, {"on": true, "note": 64, "velocity": 105, "until": 366.9058242333401}, {"on": false, "note": 64, "velocity": 0, "until": 367.1368287000068}, {"on": true, "note": 64, "velocity": 105, "until": 367.38172570000677}, {"on": false, "note": 64, "velocity": 0, "until": 367.62638723334004}, {"on": true, "note": 64, "velocity": 105, "until": 367.85715623334}, {"on": false, "note": 64, "velocity": 0, "until": 368.0885038500067}, {"on": true, "note": 64, "velocity": 105, "until": 368.3536467000067}, {"on": false, "note": 64, "velocity": 0, "until": 423.8576897000081}, {"on": true, "note": 48, "velocity": 95, "until": 424.2985043000081}, {"on": false, "note": 48, "velocity": 0, "until": 424.3472482333414}, {"on": true, "note": 48, "velocity": 95, "until": 424.7626324333413}, {"on": false, "note": 48, "velocity": 0, "until": 424.809021700008}, {"on": true, "note": 48, "velocity": 95, "until": 425.2985802333413}, {"on": false, "note": 48, "velocity": 0, "until": 427.6618917000086}, {"on": true, "note": 48, "velocity": 95, "until": 428.1514502333419}, {"on": false, "note": 48, "velocity": 0, "until": 428.1514502333419}, {"on": true, "note": 48, "velocity": 95, "until": 428.61322370000846}, {"on": false, "note": 48, "velocity": 0, "until": 428.61322370000846}, {"on": true, "note": 48, "velocity": 95, "until": 429.10278223334177}, {"on": false, "note": 48, "velocity": 0, "until": 429.56441108334155}, {"on": true, "note": 52, "velocity": 105, "until": 429.74157608334144}, {"on": false, "note": 52, "velocity": 0, "until": 429.8006310833414}, {"on": true, "note": 52, "velocity": 105, "until": 429.9777960833413}, {"on": false, "note": 52, "velocity": 0, "until": 430.0368510833412}, {"on": true, "note": 52, "velocity": 105, "until": 430.2140160833411}, {"on": false, "note": 52, "velocity": 0, "until": 430.27307108334105}, {"on": true, "note": 52, "velocity": 105, "until": 430.45023608334094}, {"on": false, "note": 52, "velocity": 0, "until": 430.5092910833409}, {"on": true, "note": 52, "velocity": 105, "until": 430.9816402333398}, {"on": false, "note": 52, "velocity": 0, "until": 435.295749700006}, {"on": true, "note": 55, "velocity": 105, "until": 435.47942245000604}, {"on": false, "note": 55, "velocity": 0, "until": 435.54064670000605}, {"on": true, "note": 55, "velocity": 105, "until": 436.01607723333916}, {"on": false, "note": 55, "velocity": 0, "until": 436.01607723333916}, {"on": true, "note": 60, "velocity": 105, "until": 436.2470817000058}, {"on": false, "note": 60, "velocity": 0, "until": 436.2470817000058}, {"on": true, "note": 55, "velocity": 105, "until": 436.43075445000585}, {"on": false, "note": 55, "velocity": 0, "until": 436.49197870000586}, {"on": true, "note": 55, "velocity": 105, "until": 436.96740923333897}, {"on": false, "note": 55, "velocity": 0, "until": 436.96740923333897}, {"on": true, "note": 60, "velocity": 105, "until": 437.19841370000563}, {"on": false, "note": 60, "velocity": 0, "until": 437.19841370000563}, {"on": true, "note": 55, "velocity": 105, "until": 437.38208645000566}, {"on": false, "note": 55, "velocity": 0, "until": 437.44331070000567}, {"on": true, "note": 55, "velocity": 105, "until": 437.9187412333388}, {"on": false, "note": 55, "velocity": 0, "until": 437.9187412333388}, {"on": true, "note": 60, "velocity": 105, "until": 438.14974570000544}, {"on": false, "note": 60, "velocity": 0, "until": 438.14974570000544}, {"on": true, "note": 55, "velocity": 105, "until": 438.3946427000055}, {"on": false, "note": 55, "velocity": 0, "until": 442.7358932333384}, {"on": true, "note": 48, "velocity": 105, "until": 442.9089699833383}, {"on": false, "note": 48, "velocity": 0, "until": 442.9668160833383}, {"on": true, "note": 48, "velocity": 105, "until": 443.1468160833384}, {"on": false, "note": 48, "velocity": 0, "until": 443.2068160833384}, {"on": true, "note": 48, "velocity": 105, "until": 443.38681608333854}, {"on": false, "note": 48, "velocity": 0, "until": 443.44681608333855}, {"on": true, "note": 48, "velocity": 105, "until": 443.62681608333867}, {"on": false, "note": 48, "velocity": 0, "until": 443.68681608333867}, {"on": true, "note": 48, "velocity": 105, "until": 443.8668160833388}, {"on": false, "note": 48, "velocity": 0, "until": 443.9268160833388}, {"on": true, "note": 48, "velocity": 105, "until": 444.40666223333966}, {"on": false, "note": 48, "velocity": 0, "until": 446.5218932333391}, {"on": true, "note": 55, "velocity": 105, "until": 446.694969983339}, {"on": false, "note": 55, "velocity": 0, "until": 446.7527530833389}, {"on": true, "note": 60, "velocity": 105, "until": 446.92991808333875}, {"on": false, "note": 60, "velocity": 0, "until": 446.9889730833387}, {"on": true, "note": 55, "velocity": 105, "until": 447.1661380833385}, {"on": false, "note": 55, "velocity": 0, "until": 447.22519308333847}, {"on": true, "note": 60, "velocity": 105, "until": 447.4023580833383}, {"on": false, "note": 60, "velocity": 0, "until": 447.46141308333824}, {"on": true, "note": 55, "velocity": 105, "until": 447.6385780833381}, {"on": false, "note": 55, "velocity": 0, "until": 447.697633083338}, {"on": true, "note": 60, "velocity": 105, "until": 447.9338530833379}, {"on": false, "note": 60, "velocity": 0, "until": 448.1699822333378}, {"on": true, "note": 55, "velocity": 105, "until": 448.6122894833375}, {"on": false, "note": 55, "velocity": 0, "until": 448.6317557000042}, {"on": true, "note": 55, "velocity": 105, "until": 449.1011416166709}, {"on": false, "note": 55, "velocity": 0, "until": 449.1213142333375}, {"on": true, "note": 62, "velocity": 105, "until": 449.5636214833372}, {"on": false, "note": 62, "velocity": 0, "until": 449.5830877000039}, {"on": true, "note": 55, "velocity": 105, "until": 450.05247361667057}, {"on": false, "note": 55, "velocity": 0, "until": 450.0726462333372}, {"on": true, "note": 55, "velocity": 105, "until": 450.5149534833369}, {"on": false, "note": 55, "velocity": 0, "until": 450.5344197000036}, {"on": true, "note": 48, "velocity": 105, "until": 451.02397823333695}, {"on": false, "note": 48, "velocity": 0, "until": 451.48575170000356}, {"on": true, "note": 48, "velocity": 105, "until": 451.9753102333369}, {"on": false, "note": 48, "velocity": 0, "until": 452.4370837000031}, {"on": true, "note": 48, "velocity": 105, "until": 452.6819807000031}, {"on": false, "note": 48, "velocity": 0, "until": 452.92664223333645}, {"on": true, "note": 48, "velocity": 105, "until": 453.1574112333361}, {"on": false, "note": 48, "velocity": 0, "until": 453.3884157000027}, {"on": true, "note": 48, "velocity": 105, "until": 453.63331270000276}, {"on": false, "note": 48, "velocity": 0, "until": 453.8779742333361}, {"on": true, "note": 48, "velocity": 105, "until": 454.10874323333576}, {"on": false, "note": 48, "velocity": 0, "until": 454.33974770000236}, {"on": true, "note": 48, "velocity": 105, "until": 455.2910797000023}, {"on": false, "note": 48, "velocity": 0, "until": 455.2910797000023}, {"on": true, "note": 48, "velocity": 105, "until": 456.2424117000022}, {"on": false, "note": 48, "velocity": 0, "until": 456.2424117000022}, {"on": true, "note": 48, "velocity": 105, "until": 456.7319702333356}, {"on": false, "note": 48, "velocity": 0, "until": 456.7319702333356}, {"on": true, "note": 48, "velocity": 105, "until": 457.19374370000185}, {"on": false, "note": 48, "velocity": 0, "until": 457.19374370000185}, {"on": true, "note": 48, "velocity": 105, "until": 457.6833022333352}, {"on": false, "note": 48, "velocity": 0, "until": 457.6833022333352}, {"on": true, "note": 48, "velocity": 105, "until": 458.1450757000015}, {"on": false, "note": 48, "velocity": 0, "until": 458.1450757000015}, {"on": true, "note": 43, "velocity": 105, "until": 458.3899727000015}, {"on": false, "note": 43, "velocity": 0, "until": 478.02843318333066}, {"on": true, "note": 55, "velocity": 105, "until": 478.53037333333}, {"on": false, "note": 55, "velocity": 0, "until": 481.97222929999606}, {"on": true, "note": 55, "velocity": 105, "until": 482.46791564999603}, {"on": false, "note": 55, "velocity": 0, "until": 485.85284164999575}, {"on": true, "note": 62, "velocity": 105, "until": 486.3384378666627}, {"on": false, "note": 62, "velocity": 0, "until": 486.5674448666627}, {"on": true, "note": 62, "velocity": 105, "until": 486.79668364999617}, {"on": false, "note": 62, "velocity": 0, "until": 486.79668364999617}, {"on": true, "note": 62, "velocity": 105, "until": 487.03959764999627}, {"on": false, "note": 62, "velocity": 0, "until": 487.03959764999627}, {"on": true, "note": 62, "velocity": 105, "until": 487.282279866663}, {"on": false, "note": 62, "velocity": 0, "until": 487.282279866663}, {"on": true, "note": 62, "velocity": 105, "until": 487.5112868666631}, {"on": false, "note": 62, "velocity": 0, "until": 489.6289687666646}, {"on": true, "note": 48, "velocity": 105, "until": 489.91678874999764}, {"on": false, "note": 48, "velocity": 0, "until": 493.6948218499975}, {"on": true, "note": 48, "velocity": 105, "until": 502.09597058333304}, {"on": false, "note": 48, "velocity": 0, "until": 503.33013008333285}, {"on": true, "note": 48, "velocity": 105, "until": 504.05054608333256}, {"on": false, "note": 48, "velocity": 0, "until": 511.26132233333186}, {"on": true, "note": 48, "velocity": 105, "until": 511.97408008333196}, {"on": false, "note": 48, "velocity": 0, "until": 515.107946866667}, {"on": true, "note": 60, "velocity": 105, "until": 515.3369538666674}, {"on": false, "note": 60, "velocity": 0, "until": 515.3369538666674}, {"on": true, "note": 60, "velocity": 105, "until": 515.566192650001}, {"on": false, "note": 60, "velocity": 0, "until": 515.566192650001}, {"on": true, "note": 60, "velocity": 105, "until": 516.0522824166675}, {"on": false, "note": 60, "velocity": 0, "until": 525.1365796500015}, {"on": true, "note": 55, "velocity": 105, "until": 525.3794936500013}, {"on": false, "note": 55, "velocity": 0, "until": 541.1815080833336}, {"on": true, "note": 48, "velocity": 105, "until": 541.5844380833335}, {"on": false, "note": 48, "velocity": 0, "until": 541.6208533500001}, {"on": true, "note": 48, "velocity": 105, "until": 542.0001626833337}, {"on": false, "note": 48, "velocity": 0, "until": 542.0347813000004}, {"on": true, "note": 48, "velocity": 105, "until": 542.4290451333338}, {"on": false, "note": 48, "velocity": 0, "until": 542.4647395000006}, {"on": true, "note": 48, "velocity": 105, "until": 542.8427453333344}, {"on": false, "note": 48, "velocity": 0, "until": 542.8772445000012}, {"on": true, "note": 48, "velocity": 105, "until": 543.2701003333348}, {"on": false, "note": 48, "velocity": 0, "until": 543.3056560500015}, {"on": true, "note": 48, "velocity": 105, "until": 543.681082383335}, {"on": false, "note": 48, "velocity": 0, "until": 543.7153705000019}, {"on": true, "note": 48, "velocity": 105, "until": 544.1437820500021}, {"on": false, "note": 48, "velocity": 0, "until": 544.5534965000024}, {"on": true, "note": 64, "velocity": 105, "until": 544.9819080500029}, {"on": false, "note": 64, "velocity": 0, "until": 545.3916225000032}, {"on": true, "note": 62, "velocity": 105, "until": 545.8200340500036}, {"on": false, "note": 62, "velocity": 0, "until": 546.2297485000039}, {"on": true, "note": 64, "velocity": 105, "until": 546.6581600500043}, {"on": false, "note": 64, "velocity": 0, "until": 547.0678745000047}, {"on": true, "note": 62, "velocity": 105, "until": 547.4962860500051}, {"on": false, "note": 62, "velocity": 0, "until": 547.9060005000053}, {"on": true, "note": 55, "velocity": 120, "until": 549.582252500008}, {"on": false, "note": 55, "velocity": 0, "until": 549.582252500008}, {"on": true, "note": 43, "velocity": 105, "until": 550.4203785000104}, {"on": false, "note": 43, "velocity": 0, "until": 550.4203785000104}, {"on": true, "note": 43, "velocity": 105, "until": 551.2585045000128}, {"on": false, "note": 43, "velocity": 0, "until": 551.2585045000128}, {"on": true, "note": 43, "velocity": 105, "until": 552.9347565000163}, {"on": false, "note": 43, "velocity": 0, "until": 552.9347565000163}, {"on": true, "note": 43, "velocity": 105, "until": 553.7728825000187}, {"on": false, "note": 43, "velocity": 0, "until": 553.7728825000187}, {"on": true, "note": 43, "velocity": 105, "until": 554.6110085000211}, {"on": false, "note": 43, "velocity": 0, "until": 554.6110085000211}, {"on": true, "note": 43, "velocity": 105, "until": 557.9635125000266}, {"on": false, "note": 43, "velocity": 0, "until": 557.9635125000266}, {"on": true, "note": 48, "velocity": 105, "until": 558.1777975000268}, {"on": false, "note": 48, "velocity": 0, "until": 558.8016385000271}, {"on": true, "note": 48, "velocity": 105, "until": 559.0159235000276}, {"on": false, "note": 48, "velocity": 0, "until": 559.6397645000279}, {"on": true, "note": 60, "velocity": 105, "until": 559.8540495000284}, {"on": false, "note": 60, "velocity": 0, "until": 560.4778905000287}, {"on": true, "note": 55, "velocity": 105, "until": 560.692770750029}, {"on": false, "note": 55, "velocity": 0, "until": 561.3916135000293}, {"on": true, "note": 43, "velocity": 105, "until": 564.744117500034}, {"on": false, "note": 43, "velocity": 0, "until": 564.744117500034}, {"on": true, "note": 48, "velocity": 105, "until": 564.9584025000343}, {"on": false, "note": 48, "velocity": 0, "until": 565.5822435000346}, {"on": true, "note": 48, "velocity": 105, "until": 565.796528500035}, {"on": false, "note": 48, "velocity": 0, "until": 566.4204212667019}, {"on": true, "note": 60, "velocity": 105, "until": 566.6378122667014}, {"on": false, "note": 60, "velocity": 0, "until": 567.2735442333677}, {"on": true, "note": 55, "velocity": 105, "until": 567.5129670833683}, {"on": false, "note": 55, "velocity": 0, "until": 580.4389285000448}, {"on": true, "note": 60, "velocity": 105, "until": 580.6353564167117}, {"on": false, "note": 60, "velocity": 0, "until": 580.6532135000451}, {"on": true, "note": 55, "velocity": 105, "until": 580.8496414167122}, {"on": false, "note": 55, "velocity": 0, "until": 580.8673400500455}, {"on": true, "note": 60, "velocity": 105, "until": 581.0550532167124}, {"on": false, "note": 60, "velocity": 0, "until": 581.0721180500457}, {"on": true, "note": 55, "velocity": 105, "until": 581.2598312167125}, {"on": false, "note": 55, "velocity": 0, "until": 581.2770545000459}, {"on": true, "note": 60, "velocity": 105, "until": 581.473482416713}, {"on": false, "note": 60, "velocity": 0, "until": 581.4913395000464}, {"on": true, "note": 55, "velocity": 105, "until": 581.6877674167134}, {"on": false, "note": 55, "velocity": 0, "until": 581.7054660500468}, {"on": true, "note": 60, "velocity": 105, "until": 581.8931792167136}, {"on": false, "note": 60, "velocity": 0, "until": 581.9102440500469}, {"on": true, "note": 55, "velocity": 105, "until": 582.0979572167138}, {"on": false, "note": 55, "velocity": 0, "until": 582.1150573500471}, {"on": true, "note": 60, "velocity": 105, "until": 582.3219533500471}, {"on": false, "note": 60, "velocity": 0, "until": 583.0289598000472}, {"on": true, "note": 60, "velocity": 105, "until": 583.2424828000474}, {"on": false, "note": 60, "velocity": 0, "until": 584.0001724167142}, {"on": true, "note": 52, "velocity": 105, "until": 584.5688924167143}]}, {"id": 6, "states": [{"on": true, "note": 60, "velocity": 117, "until": 0}, {"on": false, "note": 0, "velocity": 0, "until": 1.8100000000000003}, {"on": true, "note": 72, "velocity": 117, "until": 5.410638291666643}, {"on": false, "note": 72, "velocity": 0, "until": 5.410638291666643}, {"on": false, "note": 60, "velocity": 0, "until": 5.410638291666643}, {"on": true, "note": 60, "velocity": 117, "until": 5.410638291666643}, {"on": true, "note": 72, "velocity": 117, "until": 6.176595291666645}, {"on": false, "note": 72, "velocity": 0, "until": 6.176595291666645}, {"on": false, "note": 60, "velocity": 0, "until": 6.687233291666646}, {"on": true, "note": 60, "velocity": 117, "until": 6.687233291666646}, {"on": true, "note": 72, "velocity": 117, "until": 7.4531902916666475}, {"on": false, "note": 72, "velocity": 0, "until": 7.4531902916666475}, {"on": false, "note": 60, "velocity": 0, "until": 9.67747499999999}, {"on": true, "note": 60, "velocity": 117, "until": 9.67747499999999}, {"on": true, "note": 72, "velocity": 117, "until": 13.278586108333295}, {"on": false, "note": 72, "velocity": 0, "until": 13.278586108333295}, {"on": false, "note": 60, "velocity": 0, "until": 13.278586108333295}, {"on": true, "note": 60, "velocity": 117, "until": 13.278586108333295}, {"on": true, "note": 72, "velocity": 117, "until": 14.078585908333292}, {"on": false, "note": 72, "velocity": 0, "until": 14.078585908333292}, {"on": false, "note": 60, "velocity": 0, "until": 14.611919108333291}, {"on": true, "note": 55, "velocity": 117, "until": 14.611919108333291}, {"on": true, "note": 67, "velocity": 117, "until": 15.411918908333288}, {"on": false, "note": 67, "velocity": 0, "until": 15.411918908333288}, {"on": false, "note": 55, "velocity": 0, "until": 31.4334270000001}, {"on": true, "note": 55, "velocity": 117, "until": 31.4334270000001}, {"on": true, "note": 67, "velocity": 117, "until": 32.033427000000174}, {"on": false, "note": 67, "velocity": 0, "until": 32.033427000000174}, {"on": false, "note": 55, "velocity": 0, "until": 35.1384122916668}, {"on": true, "note": 67, "velocity": 117, "until": 35.1384122916668}, {"on": true, "note": 55, "velocity": 117, "until": 35.77922939166677}, {"on": false, "note": 55, "velocity": 0, "until": 35.77922939166677}, {"on": false, "note": 67, "velocity": 0, "until": 59.127593966666645}, {"on": true, "note": 67, "velocity": 117, "until": 59.127593966666645}, {"on": true, "note": 55, "velocity": 117, "until": 59.80941196666655}, {"on": false, "note": 55, "velocity": 0, "until": 59.80941196666655}, {"on": false, "note": 67, "velocity": 0, "until": 62.95634596666654}, {"on": true, "note": 67, "velocity": 117, "until": 62.95634596666654}, {"on": true, "note": 55, "velocity": 117, "until": 63.63816396666645}, {"on": false, "note": 55, "velocity": 0, "until": 63.63816396666645}, {"on": false, "note": 67, "velocity": 0, "until": 66.78460389166648}, {"on": true, "note": 72, "velocity": 117, "until": 66.78460389166648}, {"on": true, "note": 60, "velocity": 117, "until": 67.43677739166677}, {"on": false, "note": 60, "velocity": 0, "until": 67.43677739166677}, {"on": false, "note": 72, "velocity": 0, "until": 79.92525805833347}, {"on": true, "note": 60, "velocity": 117, "until": 79.92525805833347}, {"on": true, "note": 72, "velocity": 117, "until": 81.17525726666707}, {"on": false, "note": 72, "velocity": 0, "until": 81.17525726666707}, {"on": false, "note": 60, "velocity": 0, "until": 81.22960505833376}, {"on": true, "note": 72, "velocity": 117, "until": 81.22960505833376}, {"on": true, "note": 60, "velocity": 117, "until": 82.47960426666737}, {"on": false, "note": 60, "velocity": 0, "until": 82.47960426666737}, {"on": false, "note": 72, "velocity": 0, "until": 82.53395205833407}, {"on": true, "note": 60, "velocity": 117, "until": 82.53395205833407}, {"on": true, "note": 72, "velocity": 117, "until": 85.03742950000125}, {"on": false, "note": 72, "velocity": 0, "until": 85.03742950000125}, {"on": false, "note": 60, "velocity": 0, "until": 85.03742950000125}, {"on": true, "note": 67, "velocity": 117, "until": 85.03742950000125}, {"on": true, "note": 55, "velocity": 117, "until": 86.31448939166793}, {"on": false, "note": 55, "velocity": 0, "until": 86.31448939166793}, {"on": false, "note": 67, "velocity": 0, "until": 86.31448939166793}, {"on": true, "note": 60, "velocity": 117, "until": 87.6179668333348}, {"on": false, "note": 60, "velocity": 0, "until": 127.59232239166883}, {"on": true, "note": 72, "velocity": 107, "until": 127.59232239166883}, {"on": true, "note": 60, "velocity": 107, "until": 128.03313699166884}, {"on": false, "note": 60, "velocity": 0, "until": 128.03313699166884}, {"on": false, "note": 72, "velocity": 0, "until": 128.08199865833552}, {"on": true, "note": 72, "velocity": 107, "until": 128.08199865833552}, {"on": true, "note": 60, "velocity": 107, "until": 128.49738285833556}, {"on": false, "note": 60, "velocity": 0, "until": 128.49738285833556}, {"on": false, "note": 72, "velocity": 0, "until": 128.5436543916689}, {"on": true, "note": 60, "velocity": 107, "until": 128.5436543916689}, {"on": true, "note": 72, "velocity": 107, "until": 129.03333065833556}, {"on": false, "note": 72, "velocity": 0, "until": 129.03333065833556}, {"on": false, "note": 60, "velocity": 0, "until": 131.3965243916687}, {"on": true, "note": 60, "velocity": 107, "until": 131.3965243916687}, {"on": true, "note": 72, "velocity": 107, "until": 131.88620065833535}, {"on": false, "note": 72, "velocity": 0, "until": 131.88620065833535}, {"on": false, "note": 60, "velocity": 0, "until": 131.88620065833535}, {"on": true, "note": 72, "velocity": 107, "until": 131.88620065833535}, {"on": true, "note": 60, "velocity": 107, "until": 132.3478563916687}, {"on": false, "note": 60, "velocity": 0, "until": 132.3478563916687}, {"on": false, "note": 72, "velocity": 0, "until": 132.3478563916687}, {"on": true, "note": 60, "velocity": 107, "until": 132.3478563916687}, {"on": true, "note": 72, "velocity": 107, "until": 132.83753265833536}, {"on": false, "note": 72, "velocity": 0, "until": 132.83753265833536}, {"on": false, "note": 60, "velocity": 0, "until": 133.29911608333538}, {"on": true, "note": 64, "velocity": 117, "until": 133.47628108333544}, {"on": false, "note": 64, "velocity": 0, "until": 133.53533608333544}, {"on": true, "note": 64, "velocity": 117, "until": 133.7125010833355}, {"on": false, "note": 64, "velocity": 0, "until": 133.7715560833355}, {"on": true, "note": 64, "velocity": 117, "until": 133.94872108333556}, {"on": false, "note": 64, "velocity": 0, "until": 134.00777608333556}, {"on": true, "note": 64, "velocity": 117, "until": 134.18494108333562}, {"on": false, "note": 64, "velocity": 0, "until": 134.24399608333562}, {"on": true, "note": 64, "velocity": 117, "until": 134.716390658336}, {"on": false, "note": 64, "velocity": 0, "until": 139.03038239166972}, {"on": true, "note": 55, "velocity": 117, "until": 139.03038239166972}, {"on": true, "note": 67, "velocity": 117, "until": 139.21405514166972}, {"on": false, "note": 67, "velocity": 0, "until": 139.21405514166972}, {"on": false, "note": 55, "velocity": 0, "until": 139.27527939166973}, {"on": true, "note": 55, "velocity": 117, "until": 139.27527939166973}, {"on": true, "note": 67, "velocity": 117, "until": 139.9817143916698}, {"on": false, "note": 67, "velocity": 0, "until": 139.9817143916698}, {"on": false, "note": 55, "velocity": 0, "until": 139.9817143916698}, {"on": true, "note": 55, "velocity": 117, "until": 139.9817143916698}, {"on": true, "note": 67, "velocity": 117, "until": 140.1653871416698}, {"on": false, "note": 67, "velocity": 0, "until": 140.1653871416698}, {"on": false, "note": 55, "velocity": 0, "until": 140.22661139166982}, {"on": true, "note": 67, "velocity": 117, "until": 140.22661139166982}, {"on": true, "note": 55, "velocity": 117, "until": 140.9330463916699}, {"on": false, "note": 55, "velocity": 0, "until": 140.9330463916699}, {"on": false, "note": 67, "velocity": 0, "until": 140.9330463916699}, {"on": true, "note": 55, "velocity": 117, "until": 140.9330463916699}, {"on": true, "note": 67, "velocity": 117, "until": 141.1167191416699}, {"on": false, "note": 67, "velocity": 0, "until": 141.1167191416699}, {"on": false, "note": 55, "velocity": 0, "until": 141.1779433916699}, {"on": true, "note": 67, "velocity": 117, "until": 141.1779433916699}, {"on": true, "note": 55, "velocity": 117, "until": 141.88437839167}, {"on": false, "note": 55, "velocity": 0, "until": 141.88437839167}, {"on": false, "note": 67, "velocity": 0, "until": 141.88437839167}, {"on": true, "note": 55, "velocity": 117, "until": 141.88437839167}, {"on": true, "note": 67, "velocity": 117, "until": 142.12927539167003}, {"on": false, "note": 67, "velocity": 0, "until": 142.12927539167003}, {"on": false, "note": 55, "velocity": 0, "until": 146.4706436583367}, {"on": true, "note": 72, "velocity": 117, "until": 146.4706436583367}, {"on": true, "note": 60, "velocity": 117, "until": 146.64372040833672}, {"on": false, "note": 60, "velocity": 0, "until": 146.64372040833672}, {"on": false, "note": 72, "velocity": 0, "until": 146.70148958333675}, {"on": true, "note": 72, "velocity": 117, "until": 146.70148958333675}, {"on": true, "note": 60, "velocity": 117, "until": 146.8814895833368}, {"on": false, "note": 60, "velocity": 0, "until": 146.8814895833368}, {"on": false, "note": 72, "velocity": 0, "until": 146.94148958333682}, {"on": true, "note": 72, "velocity": 117, "until": 146.94148958333682}, {"on": true, "note": 60, "velocity": 117, "until": 147.12148958333685}, {"on": false, "note": 60, "velocity": 0, "until": 147.12148958333685}, {"on": false, "note": 72, "velocity": 0, "until": 147.18148958333688}, {"on": true, "note": 72, "velocity": 117, "until": 147.18148958333688}, {"on": true, "note": 60, "velocity": 117, "until": 147.36148958333692}, {"on": false, "note": 60, "velocity": 0, "until": 147.36148958333692}, {"on": false, "note": 72, "velocity": 0, "until": 147.42148958333695}, {"on": true, "note": 72, "velocity": 117, "until": 147.42148958333695}, {"on": true, "note": 60, "velocity": 117, "until": 147.60148958333698}, {"on": false, "note": 60, "velocity": 0, "until": 147.60148958333698}, {"on": false, "note": 72, "velocity": 0, "until": 147.66148958333702}, {"on": true, "note": 60, "velocity": 117, "until": 147.66148958333702}, {"on": true, "note": 72, "velocity": 117, "until": 148.14141265833732}, {"on": false, "note": 72, "velocity": 0, "until": 148.14141265833732}, {"on": false, "note": 60, "velocity": 0, "until": 150.25664365833748}, {"on": true, "note": 67, "velocity": 117, "until": 150.25664365833748}, {"on": true, "note": 55, "velocity": 117, "until": 150.4297204083375}, {"on": false, "note": 55, "velocity": 0, "until": 150.4297204083375}, {"on": false, "note": 67, "velocity": 0, "until": 150.4874580833375}, {"on": true, "note": 72, "velocity": 117, "until": 150.4874580833375}, {"on": true, "note": 60, "velocity": 117, "until": 150.66462308333755}, {"on": false, "note": 60, "velocity": 0, "until": 150.66462308333755}, {"on": false, "note": 72, "velocity": 0, "until": 150.72367808333755}, {"on": true, "note": 67, "velocity": 117, "until": 150.72367808333755}, {"on": true, "note": 55, "velocity": 117, "until": 150.9008430833376}, {"on": false, "note": 55, "velocity": 0, "until": 150.9008430833376}, {"on": false, "note": 67, "velocity": 0, "until": 150.9598980833376}, {"on": true, "note": 72, "velocity": 117, "until": 150.9598980833376}, {"on": true, "note": 60, "velocity": 117, "until": 151.13706308333767}, {"on": false, "note": 60, "velocity": 0, "until": 151.13706308333767}, {"on": false, "note": 72, "velocity": 0, "until": 151.19611808333767}, {"on": true, "note": 67, "velocity": 117, "until": 151.19611808333767}, {"on": true, "note": 55, "velocity": 117, "until": 151.37328308333772}, {"on": false, "note": 55, "velocity": 0, "until": 151.37328308333772}, {"on": false, "note": 67, "velocity": 0, "until": 151.43233808333773}, {"on": true, "note": 72, "velocity": 117, "until": 151.43233808333773}, {"on": true, "note": 60, "velocity": 117, "until": 151.66855808333776}, {"on": false, "note": 60, "velocity": 0, "until": 151.66855808333776}, {"on": false, "note": 72, "velocity": 0, "until": 151.9047326583378}, {"on": true, "note": 67, "velocity": 117, "until": 152.3470399083378}, {"on": false, "note": 67, "velocity": 0, "until": 152.36638839167114}, {"on": true, "note": 67, "velocity": 117, "until": 152.83577430833785}, {"on": false, "note": 67, "velocity": 0, "until": 152.85606465833786}, {"on": true, "note": 74, "velocity": 117, "until": 153.29837190833786}, {"on": false, "note": 74, "velocity": 0, "until": 153.3177203916712}, {"on": true, "note": 67, "velocity": 117, "until": 153.3177203916712}, {"on": true, "note": 74, "velocity": 117, "until": 153.7871063083379}, {"on": false, "note": 74, "velocity": 0, "until": 153.7871063083379}, {"on": false, "note": 67, "velocity": 0, "until": 153.80739665833792}, {"on": true, "note": 67, "velocity": 117, "until": 153.80739665833792}, {"on": true, "note": 74, "velocity": 117, "until": 154.24970390833792}, {"on": false, "note": 74, "velocity": 0, "until": 154.24970390833792}, {"on": false, "note": 67, "velocity": 0, "until": 154.26905239167127}, {"on": true, "note": 60, "velocity": 117, "until": 154.26905239167127}, {"on": true, "note": 72, "velocity": 117, "until": 154.75872865833801}, {"on": false, "note": 72, "velocity": 0, "until": 154.75872865833801}, {"on": false, "note": 60, "velocity": 0, "until": 155.2203843916713}, {"on": true, "note": 60, "velocity": 117, "until": 155.2203843916713}, {"on": true, "note": 72, "velocity": 117, "until": 155.71006065833805}, {"on": false, "note": 72, "velocity": 0, "until": 155.71006065833805}, {"on": false, "note": 60, "velocity": 0, "until": 156.17171639167148}, {"on": true, "note": 60, "velocity": 117, "until": 156.17171639167148}, {"on": true, "note": 72, "velocity": 117, "until": 156.41661339167152}, {"on": false, "note": 72, "velocity": 0, "until": 156.41661339167152}, {"on": false, "note": 60, "velocity": 0, "until": 156.66139265833823}, {"on": true, "note": 60, "velocity": 117, "until": 156.66139265833823}, {"on": true, "note": 72, "velocity": 117, "until": 156.89216165833827}, {"on": false, "note": 72, "velocity": 0, "until": 156.89216165833827}, {"on": false, "note": 60, "velocity": 0, "until": 157.1230483916716}, {"on": true, "note": 60, "velocity": 117, "until": 157.1230483916716}, {"on": true, "note": 72, "velocity": 117, "until": 157.36794539167164}, {"on": false, "note": 72, "velocity": 0, "until": 157.36794539167164}, {"on": false, "note": 60, "velocity": 0, "until": 157.61272465833835}, {"on": true, "note": 60, "velocity": 117, "until": 157.61272465833835}, {"on": true, "note": 72, "velocity": 117, "until": 157.8434936583384}, {"on": false, "note": 72, "velocity": 0, "until": 157.8434936583384}, {"on": false, "note": 60, "velocity": 0, "until": 158.07438039167172}, {"on": true, "note": 55, "velocity": 117, "until": 158.07438039167172}, {"on": true, "note": 67, "velocity": 117, "until": 159.01597928333857}, {"on": false, "note": 67, "velocity": 0, "until": 159.01597928333857}, {"on": false, "note": 55, "velocity": 0, "until": 159.0257123916719}, {"on": true, "note": 55, "velocity": 117, "until": 159.0257123916719}, {"on": true, "note": 67, "velocity": 117, "until": 159.96731128333874}, {"on": false, "note": 67, "velocity": 0, "until": 159.96731128333874}, {"on": false, "note": 55, "velocity": 0, "until": 159.97704439167208}, {"on": true, "note": 55, "velocity": 117, "until": 159.97704439167208}, {"on": true, "note": 67, "velocity": 117, "until": 160.45663435000546}, {"on": false, "note": 67, "velocity": 0, "until": 160.45663435000546}, {"on": false, "note": 55, "velocity": 0, "until": 160.4667206583388}, {"on": true, "note": 67, "velocity": 117, "until": 160.91864328333892}, {"on": false, "note": 67, "velocity": 0, "until": 160.92837639167226}, {"on": true, "note": 67, "velocity": 117, "until": 161.40796635000564}, {"on": false, "note": 67, "velocity": 0, "until": 161.41805265833898}, {"on": true, "note": 67, "velocity": 117, "until": 161.86997528333902}, {"on": false, "note": 67, "velocity": 0, "until": 161.87970839167235}, {"on": true, "note": 74, "velocity": 117, "until": 162.1246053916724}, {"on": false, "note": 74, "velocity": 0, "until": 181.76301463334025}, {"on": true, "note": 74, "velocity": 117, "until": 182.26503070834022}, {"on": false, "note": 74, "velocity": 0, "until": 185.70683669167332}, {"on": true, "note": 74, "velocity": 117, "until": 186.2026128666736}, {"on": false, "note": 74, "velocity": 0, "until": 191.4751748666729}, {"on": true, "note": 72, "velocity": 117, "until": 191.4751748666729}, {"on": true, "note": 60, "velocity": 117, "until": 192.18035201667232}, {"on": false, "note": 60, "velocity": 0, "until": 192.18035201667232}, {"on": false, "note": 72, "velocity": 0, "until": 192.18989397500562}, {"on": true, "note": 60, "velocity": 117, "until": 192.18989397500562}, {"on": true, "note": 72, "velocity": 117, "until": 192.40935901667223}, {"on": false, "note": 72, "velocity": 0, "until": 192.40935901667223}, {"on": false, "note": 60, "velocity": 0, "until": 192.41901686667222}, {"on": true, "note": 72, "velocity": 117, "until": 192.41901686667222}, {"on": true, "note": 60, "velocity": 117, "until": 192.65180945000546}, {"on": false, "note": 60, "velocity": 0, "until": 192.65180945000546}, {"on": false, "note": 72, "velocity": 0, "until": 192.6619308666721}, {"on": true, "note": 72, "velocity": 117, "until": 192.6619308666721}, {"on": true, "note": 60, "velocity": 117, "until": 192.89472345000527}, {"on": false, "note": 60, "velocity": 0, "until": 192.89472345000527}, {"on": false, "note": 72, "velocity": 0, "until": 192.90472897500527}, {"on": true, "note": 72, "velocity": 117, "until": 192.90472897500527}, {"on": true, "note": 60, "velocity": 117, "until": 193.1337359750052}, {"on": false, "note": 60, "velocity": 0, "until": 193.1337359750052}, {"on": false, "note": 72, "velocity": 0, "until": 193.3632384250052}, {"on": true, "note": 67, "velocity": 117, "until": 193.3632384250052}, {"on": true, "note": 55, "velocity": 117, "until": 193.6513789166721}, {"on": false, "note": 55, "velocity": 0, "until": 193.6513789166721}, {"on": false, "note": 67, "velocity": 0, "until": 206.08677260833915}, {"on": true, "note": 76, "velocity": 117, "until": 206.08677260833915}, {"on": true, "note": 64, "velocity": 117, "until": 206.31585548333916}, {"on": false, "note": 64, "velocity": 0, "until": 206.31585548333916}, {"on": false, "note": 76, "velocity": 0, "until": 206.32581560833916}, {"on": true, "note": 76, "velocity": 117, "until": 206.32581560833916}, {"on": true, "note": 64, "velocity": 117, "until": 206.55489848333917}, {"on": false, "note": 64, "velocity": 0, "until": 206.55489848333917}, {"on": false, "note": 76, "velocity": 0, "until": 206.5649499166725}, {"on": true, "note": 76, "velocity": 117, "until": 206.5649499166725}, {"on": true, "note": 64, "velocity": 117, "until": 206.8149499166725}, {"on": false, "note": 64, "velocity": 0, "until": 206.8149499166725}, {"on": false, "note": 76, "velocity": 0, "until": 207.06483508333915}, {"on": true, "note": 74, "velocity": 117, "until": 207.06483508333915}, {"on": true, "note": 67, "velocity": 117, "until": 207.29121258333925}, {"on": false, "note": 67, "velocity": 0, "until": 207.29121258333925}, {"on": false, "note": 74, "velocity": 0, "until": 207.30105508333924}, {"on": true, "note": 74, "velocity": 117, "until": 207.30105508333924}, {"on": true, "note": 67, "velocity": 117, "until": 207.52743258333933}, {"on": false, "note": 67, "velocity": 0, "until": 207.52743258333933}, {"on": false, "note": 74, "velocity": 0, "until": 207.53736419167265}, {"on": true, "note": 76, "velocity": 117, "until": 207.53736419167265}, {"on": true, "note": 67, "velocity": 117, "until": 207.7847195833393}, {"on": false, "note": 67, "velocity": 0, "until": 207.7847195833393}, {"on": false, "note": 76, "velocity": 0, "until": 214.03181608333927}, {"on": true, "note": 76, "velocity": 117, "until": 214.03181608333927}, {"on": true, "note": 64, "velocity": 117, "until": 214.25819358333933}, {"on": false, "note": 64, "velocity": 0, "until": 214.25819358333933}, {"on": false, "note": 76, "velocity": 0, "until": 214.26803608333933}, {"on": true, "note": 76, "velocity": 117, "until": 214.26803608333933}, {"on": true, "note": 64, "velocity": 117, "until": 214.4944135833394}, {"on": false, "note": 64, "velocity": 0, "until": 214.4944135833394}, {"on": false, "note": 76, "velocity": 0, "until": 214.50433675833938}, {"on": true, "note": 76, "velocity": 117, "until": 214.50433675833938}, {"on": true, "note": 64, "velocity": 117, "until": 214.75023775833935}, {"on": false, "note": 64, "velocity": 0, "until": 214.75023775833935}, {"on": false, "note": 76, "velocity": 0, "until": 214.99604270833933}, {"on": true, "note": 74, "velocity": 117, "until": 214.99604270833933}, {"on": true, "note": 67, "velocity": 117, "until": 215.22065208333933}, {"on": false, "note": 67, "velocity": 0, "until": 215.22065208333933}, {"on": false, "note": 74, "velocity": 0, "until": 215.23041770833933}, {"on": true, "note": 74, "velocity": 117, "until": 215.23041770833933}, {"on": true, "note": 67, "velocity": 117, "until": 215.45502708333933}, {"on": false, "note": 67, "velocity": 0, "until": 215.45502708333933}, {"on": false, "note": 74, "velocity": 0, "until": 215.46486386667266}, {"on": true, "note": 76, "velocity": 117, "until": 215.46486386667266}, {"on": true, "note": 72, "velocity": 117, "until": 215.70825358333929}, {"on": false, "note": 72, "velocity": 0, "until": 215.70825358333929}, {"on": false, "note": 76, "velocity": 0, "until": 218.84271197500564}, {"on": true, "note": 67, "velocity": 117, "until": 219.06217701667222}, {"on": false, "note": 67, "velocity": 0, "until": 219.07171897500555}, {"on": true, "note": 67, "velocity": 117, "until": 219.29118401667213}, {"on": false, "note": 67, "velocity": 0, "until": 219.30084186667213}, {"on": true, "note": 67, "velocity": 117, "until": 219.78680075000503}, {"on": false, "note": 67, "velocity": 0, "until": 229.86043458333725}, {"on": true, "note": 74, "velocity": 117, "until": 230.10043458333726}, {"on": false, "note": 74, "velocity": 0, "until": 230.79847286667058}, {"on": true, "note": 67, "velocity": 117, "until": 230.79847286667058}, {"on": true, "note": 74, "velocity": 117, "until": 231.04138686667054}, {"on": false, "note": 74, "velocity": 0, "until": 231.04138686667054}, {"on": false, "note": 67, "velocity": 0, "until": 231.7423148666705}, {"on": true, "note": 74, "velocity": 117, "until": 231.98522886667047}, {"on": false, "note": 74, "velocity": 0, "until": 232.68611670833712}, {"on": true, "note": 67, "velocity": 117, "until": 232.92508472500384}, {"on": false, "note": 67, "velocity": 0, "until": 246.72469889167112}, {"on": true, "note": 60, "velocity": 107, "until": 246.72469889167112}, {"on": true, "note": 72, "velocity": 107, "until": 247.16551349167113}, {"on": false, "note": 72, "velocity": 0, "until": 247.16551349167113}, {"on": false, "note": 60, "velocity": 0, "until": 247.21437515833782}, {"on": true, "note": 60, "velocity": 107, "until": 247.21437515833782}, {"on": true, "note": 72, "velocity": 107, "until": 247.62975935833785}, {"on": false, "note": 72, "velocity": 0, "until": 247.62975935833785}, {"on": false, "note": 60, "velocity": 0, "until": 247.6760308916712}, {"on": true, "note": 60, "velocity": 107, "until": 247.6760308916712}, {"on": true, "note": 72, "velocity": 107, "until": 248.16570715833785}, {"on": false, "note": 72, "velocity": 0, "until": 248.16570715833785}, {"on": false, "note": 60, "velocity": 0, "until": 250.528900891671}, {"on": true, "note": 60, "velocity": 107, "until": 250.528900891671}, {"on": true, "note": 72, "velocity": 107, "until": 251.01857715833765}, {"on": false, "note": 72, "velocity": 0, "until": 251.01857715833765}, {"on": false, "note": 60, "velocity": 0, "until": 251.01857715833765}, {"on": true, "note": 60, "velocity": 107, "until": 251.01857715833765}, {"on": true, "note": 72, "velocity": 107, "until": 251.480232891671}, {"on": false, "note": 72, "velocity": 0, "until": 251.480232891671}, {"on": false, "note": 60, "velocity": 0, "until": 251.480232891671}, {"on": true, "note": 60, "velocity": 107, "until": 251.480232891671}, {"on": true, "note": 72, "velocity": 107, "until": 251.96990915833766}, {"on": false, "note": 72, "velocity": 0, "until": 251.96990915833766}, {"on": false, "note": 60, "velocity": 0, "until": 252.43149258333767}, {"on": true, "note": 64, "velocity": 117, "until": 252.60865758333773}, {"on": false, "note": 64, "velocity": 0, "until": 252.66771258333773}, {"on": true, "note": 64, "velocity": 117, "until": 252.8448775833378}, {"on": false, "note": 64, "velocity": 0, "until": 252.9039325833378}, {"on": true, "note": 64, "velocity": 117, "until": 253.08109758333785}, {"on": false, "note": 64, "velocity": 0, "until": 253.14015258333785}, {"on": true, "note": 64, "velocity": 117, "until": 253.3173175833379}, {"on": false, "note": 64, "velocity": 0, "until": 253.3763725833379}, {"on": true, "note": 64, "velocity": 117, "until": 253.8487671583383}, {"on": false, "note": 64, "velocity": 0, "until": 258.1627588916713}, {"on": true, "note": 67, "velocity": 117, "until": 258.1627588916713}, {"on": true, "note": 55, "velocity": 117, "until": 258.3464316416713}, {"on": false, "note": 55, "velocity": 0, "until": 258.3464316416713}, {"on": false, "note": 67, "velocity": 0, "until": 258.4076558916713}, {"on": true, "note": 55, "velocity": 117, "until": 258.4076558916713}, {"on": true, "note": 67, "velocity": 117, "until": 259.1140908916711}, {"on": false, "note": 67, "velocity": 0, "until": 259.1140908916711}, {"on": false, "note": 55, "velocity": 0, "until": 259.1140908916711}, {"on": true, "note": 55, "velocity": 117, "until": 259.1140908916711}, {"on": true, "note": 67, "velocity": 117, "until": 259.2977636416711}, {"on": false, "note": 67, "velocity": 0, "until": 259.2977636416711}, {"on": false, "note": 55, "velocity": 0, "until": 259.3589878916711}, {"on": true, "note": 55, "velocity": 117, "until": 259.3589878916711}, {"on": true, "note": 67, "velocity": 117, "until": 260.0654228916709}, {"on": false, "note": 67, "velocity": 0, "until": 260.0654228916709}, {"on": false, "note": 55, "velocity": 0, "until": 260.0654228916709}, {"on": true, "note": 67, "velocity": 117, "until": 260.0654228916709}, {"on": true, "note": 55, "velocity": 117, "until": 260.2490956416709}, {"on": false, "note": 55, "velocity": 0, "until": 260.2490956416709}, {"on": false, "note": 67, "velocity": 0, "until": 260.31031989167093}, {"on": true, "note": 67, "velocity": 117, "until": 260.31031989167093}, {"on": true, "note": 55, "velocity": 117, "until": 261.0167548916707}, {"on": false, "note": 55, "velocity": 0, "until": 261.0167548916707}, {"on": false, "note": 67, "velocity": 0, "until": 261.0167548916707}, {"on": true, "note": 55, "velocity": 117, "until": 261.0167548916707}, {"on": true, "note": 67, "velocity": 117, "until": 261.2617570000041}, {"on": false, "note": 67, "velocity": 0, "until": 261.2617570000041}, {"on": false, "note": 55, "velocity": 0, "until": 265.6156331583371}, {"on": true, "note": 60, "velocity": 117, "until": 265.6156331583371}, {"on": true, "note": 72, "velocity": 117, "until": 265.788709908337}, {"on": false, "note": 72, "velocity": 0, "until": 265.788709908337}, {"on": false, "note": 60, "velocity": 0, "until": 265.846479083337}, {"on": true, "note": 60, "velocity": 117, "until": 265.846479083337}, {"on": true, "note": 72, "velocity": 117, "until": 266.0264790833371}, {"on": false, "note": 72, "velocity": 0, "until": 266.0264790833371}, {"on": false, "note": 60, "velocity": 0, "until": 266.0864790833371}, {"on": true, "note": 72, "velocity": 117, "until": 266.0864790833371}, {"on": true, "note": 60, "velocity": 117, "until": 266.26647908333723}, {"on": false, "note": 60, "velocity": 0, "until": 266.26647908333723}, {"on": false, "note": 72, "velocity": 0, "until": 266.32647908333723}, {"on": true, "note": 72, "velocity": 117, "until": 266.32647908333723}, {"on": true, "note": 60, "velocity": 117, "until": 266.50647908333735}, {"on": false, "note": 60, "velocity": 0, "until": 266.50647908333735}, {"on": false, "note": 72, "velocity": 0, "until": 266.56647908333736}, {"on": true, "note": 60, "velocity": 117, "until": 266.56647908333736}, {"on": true, "note": 72, "velocity": 117, "until": 266.7464790833375}, {"on": false, "note": 72, "velocity": 0, "until": 266.7464790833375}, {"on": false, "note": 60, "velocity": 0, "until": 266.8064790833375}, {"on": true, "note": 60, "velocity": 117, "until": 266.8064790833375}, {"on": true, "note": 72, "velocity": 117, "until": 267.2864021583384}, {"on": false, "note": 72, "velocity": 0, "until": 267.2864021583384}, {"on": false, "note": 60, "velocity": 0, "until": 269.4016331583378}, {"on": true, "note": 67, "velocity": 117, "until": 269.4016331583378}, {"on": true, "note": 55, "velocity": 117, "until": 269.5747099083377}, {"on": false, "note": 55, "velocity": 0, "until": 269.5747099083377}, {"on": false, "note": 67, "velocity": 0, "until": 269.63244758333764}, {"on": true, "note": 60, "velocity": 117, "until": 269.63244758333764}, {"on": true, "note": 72, "velocity": 117, "until": 269.80961258333747}, {"on": false, "note": 72, "velocity": 0, "until": 269.80961258333747}, {"on": false, "note": 60, "velocity": 0, "until": 269.8686675833374}, {"on": true, "note": 67, "velocity": 117, "until": 269.8686675833374}, {"on": true, "note": 55, "velocity": 117, "until": 270.04583258333724}, {"on": false, "note": 55, "velocity": 0, "until": 270.04583258333724}, {"on": false, "note": 67, "velocity": 0, "until": 270.1048875833372}, {"on": true, "note": 72, "velocity": 117, "until": 270.1048875833372}, {"on": true, "note": 60, "velocity": 117, "until": 270.282052583337}, {"on": false, "note": 60, "velocity": 0, "until": 270.282052583337}, {"on": false, "note": 72, "velocity": 0, "until": 270.34110758333696}, {"on": true, "note": 55, "velocity": 117, "until": 270.34110758333696}, {"on": true, "note": 67, "velocity": 117, "until": 270.5182725833368}, {"on": false, "note": 67, "velocity": 0, "until": 270.5182725833368}, {"on": false, "note": 55, "velocity": 0, "until": 270.57732758333674}, {"on": true, "note": 60, "velocity": 117, "until": 270.57732758333674}, {"on": true, "note": 72, "velocity": 117, "until": 270.81354758333663}, {"on": false, "note": 72, "velocity": 0, "until": 270.81354758333663}, {"on": false, "note": 60, "velocity": 0, "until": 271.0497221583365}, {"on": true, "note": 67, "velocity": 117, "until": 271.49202940833624}, {"on": false, "note": 67, "velocity": 0, "until": 271.51137789166955}, {"on": true, "note": 67, "velocity": 117, "until": 271.98076380833623}, {"on": false, "note": 67, "velocity": 0, "until": 272.0010541583362}, {"on": true, "note": 74, "velocity": 117, "until": 272.44336140833593}, {"on": false, "note": 74, "velocity": 0, "until": 272.46270989166925}, {"on": true, "note": 74, "velocity": 117, "until": 272.46270989166925}, {"on": true, "note": 67, "velocity": 117, "until": 272.93209580833593}, {"on": false, "note": 67, "velocity": 0, "until": 272.93209580833593}, {"on": false, "note": 74, "velocity": 0, "until": 272.9523861583359}, {"on": true, "note": 74, "velocity": 117, "until": 272.9523861583359}, {"on": true, "note": 67, "velocity": 117, "until": 273.3946934083356}, {"on": false, "note": 67, "velocity": 0, "until": 273.3946934083356}, {"on": false, "note": 74, "velocity": 0, "until": 273.41404189166894}, {"on": true, "note": 60, "velocity": 117, "until": 273.41404189166894}, {"on": true, "note": 72, "velocity": 117, "until": 273.90371815833566}, {"on": false, "note": 72, "velocity": 0, "until": 273.90371815833566}, {"on": false, "note": 60, "velocity": 0, "until": 274.3653738916689}, {"on": true, "note": 72, "velocity": 117, "until": 274.3653738916689}, {"on": true, "note": 60, "velocity": 117, "until": 274.85505015833564}, {"on": false, "note": 60, "velocity": 0, "until": 274.85505015833564}, {"on": false, "note": 72, "velocity": 0, "until": 275.31670589166845}, {"on": true, "note": 60, "velocity": 117, "until": 275.31670589166845}, {"on": true, "note": 72, "velocity": 117, "until": 275.5616028916685}, {"on": false, "note": 72, "velocity": 0, "until": 275.5616028916685}, {"on": false, "note": 60, "velocity": 0, "until": 275.80638215833517}, {"on": true, "note": 60, "velocity": 117, "until": 275.80638215833517}, {"on": true, "note": 72, "velocity": 117, "until": 276.03715115833484}, {"on": false, "note": 72, "velocity": 0, "until": 276.03715115833484}, {"on": false, "note": 60, "velocity": 0, "until": 276.2680378916681}, {"on": true, "note": 72, "velocity": 117, "until": 276.2680378916681}, {"on": true, "note": 60, "velocity": 117, "until": 276.5129348916681}, {"on": false, "note": 60, "velocity": 0, "until": 276.5129348916681}, {"on": false, "note": 72, "velocity": 0, "until": 276.7577141583348}, {"on": true, "note": 72, "velocity": 117, "until": 276.7577141583348}, {"on": true, "note": 60, "velocity": 117, "until": 276.9884831583345}, {"on": false, "note": 60, "velocity": 0, "until": 276.9884831583345}, {"on": false, "note": 72, "velocity": 0, "until": 277.2193698916677}, {"on": true, "note": 55, "velocity": 117, "until": 277.2193698916677}, {"on": true, "note": 67, "velocity": 117, "until": 278.1609687833339}, {"on": false, "note": 67, "velocity": 0, "until": 278.1609687833339}, {"on": false, "note": 55, "velocity": 0, "until": 278.1707018916672}, {"on": true, "note": 55, "velocity": 117, "until": 278.1707018916672}, {"on": true, "note": 67, "velocity": 117, "until": 279.11230078333335}, {"on": false, "note": 67, "velocity": 0, "until": 279.11230078333335}, {"on": false, "note": 55, "velocity": 0, "until": 279.12203389166666}, {"on": true, "note": 67, "velocity": 117, "until": 279.12203389166666}, {"on": true, "note": 55, "velocity": 117, "until": 279.60162385000007}, {"on": false, "note": 55, "velocity": 0, "until": 279.60162385000007}, {"on": false, "note": 67, "velocity": 0, "until": 279.6117101583334}, {"on": true, "note": 67, "velocity": 117, "until": 280.0636327833328}, {"on": false, "note": 67, "velocity": 0, "until": 280.0733658916661}, {"on": true, "note": 67, "velocity": 117, "until": 280.55295584999953}, {"on": false, "note": 67, "velocity": 0, "until": 280.56304215833285}, {"on": true, "note": 67, "velocity": 117, "until": 281.0149647833324}, {"on": false, "note": 67, "velocity": 0, "until": 281.0246978916657}, {"on": true, "note": 74, "velocity": 117, "until": 281.26959489166575}, {"on": false, "note": 74, "velocity": 0, "until": 300.9080041333306}, {"on": true, "note": 74, "velocity": 117, "until": 301.41002020833}, {"on": false, "note": 74, "velocity": 0, "until": 304.85182619166335}, {"on": true, "note": 74, "velocity": 117, "until": 305.34760236666364}, {"on": false, "note": 74, "velocity": 0, "until": 310.62016436666494}, {"on": true, "note": 60, "velocity": 117, "until": 310.62016436666494}, {"on": true, "note": 72, "velocity": 117, "until": 311.3253415166658}, {"on": false, "note": 72, "velocity": 0, "until": 311.3253415166658}, {"on": false, "note": 60, "velocity": 0, "until": 311.3348834749992}, {"on": true, "note": 60, "velocity": 117, "until": 311.3348834749992}, {"on": true, "note": 72, "velocity": 117, "until": 311.5543485166659}, {"on": false, "note": 72, "velocity": 0, "until": 311.5543485166659}, {"on": false, "note": 60, "velocity": 0, "until": 311.564006366666}, {"on": true, "note": 72, "velocity": 117, "until": 311.564006366666}, {"on": true, "note": 60, "velocity": 117, "until": 311.7967989499994}, {"on": false, "note": 60, "velocity": 0, "until": 311.7967989499994}, {"on": false, "note": 72, "velocity": 0, "until": 311.80692036666613}, {"on": true, "note": 60, "velocity": 117, "until": 311.80692036666613}, {"on": true, "note": 72, "velocity": 117, "until": 312.03971294999957}, {"on": false, "note": 72, "velocity": 0, "until": 312.03971294999957}, {"on": false, "note": 60, "velocity": 0, "until": 312.0497184749996}, {"on": true, "note": 60, "velocity": 117, "until": 312.0497184749996}, {"on": true, "note": 72, "velocity": 117, "until": 312.27872547499976}, {"on": false, "note": 72, "velocity": 0, "until": 312.27872547499976}, {"on": false, "note": 60, "velocity": 0, "until": 312.5082279249998}, {"on": true, "note": 67, "velocity": 117, "until": 312.5082279249998}, {"on": true, "note": 55, "velocity": 117, "until": 312.79636841666627}, {"on": false, "note": 55, "velocity": 0, "until": 312.79636841666627}, {"on": false, "note": 67, "velocity": 0, "until": 325.2317621083366}, {"on": true, "note": 64, "velocity": 117, "until": 325.2317621083366}, {"on": true, "note": 76, "velocity": 117, "until": 325.4608449833365}, {"on": false, "note": 76, "velocity": 0, "until": 325.4608449833365}, {"on": false, "note": 64, "velocity": 0, "until": 325.4708051083365}, {"on": true, "note": 64, "velocity": 117, "until": 325.4708051083365}, {"on": true, "note": 76, "velocity": 117, "until": 325.69988798333634}, {"on": false, "note": 76, "velocity": 0, "until": 325.69988798333634}, {"on": false, "note": 64, "velocity": 0, "until": 325.7099394166697}, {"on": true, "note": 76, "velocity": 117, "until": 325.7099394166697}, {"on": true, "note": 64, "velocity": 117, "until": 325.9599394166698}, {"on": false, "note": 64, "velocity": 0, "until": 325.9599394166698}, {"on": false, "note": 76, "velocity": 0, "until": 326.20982458333646}, {"on": true, "note": 74, "velocity": 117, "until": 326.20982458333646}, {"on": true, "note": 67, "velocity": 117, "until": 326.43620208333624}, {"on": false, "note": 67, "velocity": 0, "until": 326.43620208333624}, {"on": false, "note": 74, "velocity": 0, "until": 326.44604458333623}, {"on": true, "note": 67, "velocity": 117, "until": 326.44604458333623}, {"on": true, "note": 74, "velocity": 117, "until": 326.672422083336}, {"on": false, "note": 74, "velocity": 0, "until": 326.672422083336}, {"on": false, "note": 67, "velocity": 0, "until": 326.6823536916694}, {"on": true, "note": 67, "velocity": 117, "until": 326.6823536916694}, {"on": true, "note": 76, "velocity": 117, "until": 326.92970908333615}, {"on": false, "note": 76, "velocity": 0, "until": 326.92970908333615}, {"on": false, "note": 67, "velocity": 0, "until": 333.17680558333603}, {"on": true, "note": 76, "velocity": 117, "until": 333.17680558333603}, {"on": true, "note": 64, "velocity": 117, "until": 333.4031830833358}, {"on": false, "note": 64, "velocity": 0, "until": 333.4031830833358}, {"on": false, "note": 76, "velocity": 0, "until": 333.4130255833358}, {"on": true, "note": 64, "velocity": 117, "until": 333.4130255833358}, {"on": true, "note": 76, "velocity": 117, "until": 333.6394030833356}, {"on": false, "note": 76, "velocity": 0, "until": 333.6394030833356}, {"on": false, "note": 64, "velocity": 0, "until": 333.64932625833563}, {"on": true, "note": 64, "velocity": 117, "until": 333.64932625833563}, {"on": true, "note": 76, "velocity": 117, "until": 333.8952272583357}, {"on": false, "note": 76, "velocity": 0, "until": 333.8952272583357}, {"on": false, "note": 64, "velocity": 0, "until": 334.14103220833573}, {"on": true, "note": 74, "velocity": 117, "until": 334.14103220833573}, {"on": true, "note": 67, "velocity": 117, "until": 334.36564158333573}, {"on": false, "note": 67, "velocity": 0, "until": 334.36564158333573}, {"on": false, "note": 74, "velocity": 0, "until": 334.37540720833573}, {"on": true, "note": 74, "velocity": 117, "until": 334.37540720833573}, {"on": true, "note": 67, "velocity": 117, "until": 334.60001658333573}, {"on": false, "note": 67, "velocity": 0, "until": 334.60001658333573}, {"on": false, "note": 74, "velocity": 0, "until": 334.6098533666691}, {"on": true, "note": 76, "velocity": 117, "until": 334.6098533666691}, {"on": true, "note": 72, "velocity": 117, "until": 334.8532430833358}, {"on": false, "note": 72, "velocity": 0, "until": 334.8532430833358}, {"on": false, "note": 76, "velocity": 0, "until": 337.98770147500255}, {"on": true, "note": 67, "velocity": 117, "until": 338.20716651666936}, {"on": false, "note": 67, "velocity": 0, "until": 338.21670847500275}, {"on": true, "note": 67, "velocity": 117, "until": 338.43617351666956}, {"on": false, "note": 67, "velocity": 0, "until": 338.4458313666696}, {"on": true, "note": 67, "velocity": 117, "until": 338.93179025000364}, {"on": false, "note": 67, "velocity": 0, "until": 349.00542408333786}, {"on": true, "note": 74, "velocity": 117, "until": 349.2454240833379}, {"on": false, "note": 74, "velocity": 0, "until": 349.94346236667144}, {"on": true, "note": 67, "velocity": 117, "until": 349.94346236667144}, {"on": true, "note": 74, "velocity": 117, "until": 350.18637636667154}, {"on": false, "note": 74, "velocity": 0, "until": 350.18637636667154}, {"on": false, "note": 67, "velocity": 0, "until": 350.8873043666718}, {"on": true, "note": 74, "velocity": 117, "until": 351.13021836667184}, {"on": false, "note": 74, "velocity": 0, "until": 351.83110620833867}, {"on": true, "note": 67, "velocity": 117, "until": 352.07007422500527}, {"on": false, "note": 67, "velocity": 0, "until": 362.37812789167344}, {"on": true, "note": 67, "velocity": 117, "until": 362.37812789167344}, {"on": true, "note": 64, "velocity": 117, "until": 362.8678041583401}, {"on": false, "note": 64, "velocity": 0, "until": 362.8678041583401}, {"on": false, "note": 67, "velocity": 0, "until": 364.2807918916735}, {"on": true, "note": 64, "velocity": 117, "until": 364.2807918916735}, {"on": true, "note": 67, "velocity": 117, "until": 364.7704681583402}, {"on": false, "note": 67, "velocity": 0, "until": 364.7704681583402}, {"on": false, "note": 64, "velocity": 0, "until": 366.1834558916736}, {"on": true, "note": 67, "velocity": 117, "until": 366.1834558916736}, {"on": true, "note": 64, "velocity": 117, "until": 366.42835289167357}, {"on": false, "note": 64, "velocity": 0, "until": 366.42835289167357}, {"on": false, "note": 67, "velocity": 0, "until": 366.6731321583402}, {"on": true, "note": 67, "velocity": 117, "until": 366.6731321583402}, {"on": true, "note": 64, "velocity": 117, "until": 366.90390115834015}, {"on": false, "note": 64, "velocity": 0, "until": 366.90390115834015}, {"on": false, "note": 67, "velocity": 0, "until": 367.13478789167345}, {"on": true, "note": 67, "velocity": 117, "until": 367.13478789167345}, {"on": true, "note": 64, "velocity": 117, "until": 367.37968489167343}, {"on": false, "note": 64, "velocity": 0, "until": 367.37968489167343}, {"on": false, "note": 67, "velocity": 0, "until": 367.62446415834006}, {"on": true, "note": 67, "velocity": 117, "until": 367.62446415834006}, {"on": true, "note": 64, "velocity": 117, "until": 367.85523315834}, {"on": false, "note": 64, "velocity": 0, "until": 367.85523315834}, {"on": false, "note": 67, "velocity": 0, "until": 368.08629146667334}, {"on": true, "note": 67, "velocity": 117, "until": 368.08629146667334}, {"on": true, "note": 64, "velocity": 117, "until": 368.3516058916734}, {"on": false, "note": 64, "velocity": 0, "until": 368.3516058916734}, {"on": false, "note": 67, "velocity": 0, "until": 423.8556488916748}, {"on": true, "note": 60, "velocity": 107, "until": 423.8556488916748}, {"on": true, "note": 72, "velocity": 107, "until": 424.2964634916748}, {"on": false, "note": 72, "velocity": 0, "until": 424.2964634916748}, {"on": false, "note": 60, "velocity": 0, "until": 424.34532515834144}, {"on": true, "note": 72, "velocity": 107, "until": 424.34532515834144}, {"on": true, "note": 60, "velocity": 107, "until": 424.76070935834133}, {"on": false, "note": 60, "velocity": 0, "until": 424.76070935834133}, {"on": false, "note": 72, "velocity": 0, "until": 424.80698089167464}, {"on": true, "note": 60, "velocity": 107, "until": 424.80698089167464}, {"on": true, "note": 72, "velocity": 107, "until": 425.2966571583413}, {"on": false, "note": 72, "velocity": 0, "until": 425.2966571583413}, {"on": false, "note": 60, "velocity": 0, "until": 427.65985089167526}, {"on": true, "note": 60, "velocity": 107, "until": 427.65985089167526}, {"on": true, "note": 72, "velocity": 107, "until": 428.1495271583419}, {"on": false, "note": 72, "velocity": 0, "until": 428.1495271583419}, {"on": false, "note": 60, "velocity": 0, "until": 428.1495271583419}, {"on": true, "note": 72, "velocity": 107, "until": 428.1495271583419}, {"on": true, "note": 60, "velocity": 107, "until": 428.6111828916751}, {"on": false, "note": 60, "velocity": 0, "until": 428.6111828916751}, {"on": false, "note": 72, "velocity": 0, "until": 428.6111828916751}, {"on": true, "note": 60, "velocity": 107, "until": 428.6111828916751}, {"on": true, "note": 72, "velocity": 107, "until": 429.1008591583418}, {"on": false, "note": 72, "velocity": 0, "until": 429.1008591583418}, {"on": false, "note": 60, "velocity": 0, "until": 429.5624425833416}, {"on": true, "note": 64, "velocity": 117, "until": 429.73960758334147}, {"on": false, "note": 64, "velocity": 0, "until": 429.7986625833414}, {"on": true, "note": 64, "velocity": 117, "until": 429.9758275833413}, {"on": false, "note": 64, "velocity": 0, "until": 430.03488258334124}, {"on": true, "note": 64, "velocity": 117, "until": 430.21204758334113}, {"on": false, "note": 64, "velocity": 0, "until": 430.2711025833411}, {"on": true, "note": 64, "velocity": 117, "until": 430.44826758334096}, {"on": false, "note": 64, "velocity": 0, "until": 430.5073225833409}, {"on": true, "note": 64, "velocity": 117, "until": 430.97971715833984}, {"on": false, "note": 64, "velocity": 0, "until": 435.2937088916727}, {"on": true, "note": 55, "velocity": 117, "until": 435.2937088916727}, {"on": true, "note": 67, "velocity": 117, "until": 435.4773816416727}, {"on": false, "note": 67, "velocity": 0, "until": 435.4773816416727}, {"on": false, "note": 55, "velocity": 0, "until": 435.5386058916727}, {"on": true, "note": 55, "velocity": 117, "until": 435.5386058916727}, {"on": true, "note": 67, "velocity": 117, "until": 436.2450408916725}, {"on": false, "note": 67, "velocity": 0, "until": 436.2450408916725}, {"on": false, "note": 55, "velocity": 0, "until": 436.2450408916725}, {"on": true, "note": 55, "velocity": 117, "until": 436.2450408916725}, {"on": true, "note": 67, "velocity": 117, "until": 436.4287136416725}, {"on": false, "note": 67, "velocity": 0, "until": 436.4287136416725}, {"on": false, "note": 55, "velocity": 0, "until": 436.4899378916725}, {"on": true, "note": 67, "velocity": 117, "until": 436.4899378916725}, {"on": true, "note": 55, "velocity": 117, "until": 437.1963728916723}, {"on": false, "note": 55, "velocity": 0, "until": 437.1963728916723}, {"on": false, "note": 67, "velocity": 0, "until": 437.1963728916723}, {"on": true, "note": 55, "velocity": 117, "until": 437.1963728916723}, {"on": true, "note": 67, "velocity": 117, "until": 437.3800456416723}, {"on": false, "note": 67, "velocity": 0, "until": 437.3800456416723}, {"on": false, "note": 55, "velocity": 0, "until": 437.44126989167233}, {"on": true, "note": 67, "velocity": 117, "until": 437.44126989167233}, {"on": true, "note": 55, "velocity": 117, "until": 438.1477048916721}, {"on": false, "note": 55, "velocity": 0, "until": 438.1477048916721}, {"on": false, "note": 67, "velocity": 0, "until": 438.1477048916721}, {"on": true, "note": 55, "velocity": 117, "until": 438.1477048916721}, {"on": true, "note": 67, "velocity": 117, "until": 438.39260189167214}, {"on": false, "note": 67, "velocity": 0, "until": 438.39260189167214}, {"on": false, "note": 55, "velocity": 0, "until": 442.7339701583384}, {"on": true, "note": 60, "velocity": 117, "until": 442.7339701583384}, {"on": true, "note": 72, "velocity": 117, "until": 442.9070469083383}, {"on": false, "note": 72, "velocity": 0, "until": 442.9070469083383}, {"on": false, "note": 60, "velocity": 0, "until": 442.9648160833383}, {"on": true, "note": 72, "velocity": 117, "until": 442.9648160833383}, {"on": true, "note": 60, "velocity": 117, "until": 443.1448160833384}, {"on": false, "note": 60, "velocity": 0, "until": 443.1448160833384}, {"on": false, "note": 72, "velocity": 0, "until": 443.2048160833384}, {"on": true, "note": 72, "velocity": 117, "until": 443.2048160833384}, {"on": true, "note": 60, "velocity": 117, "until": 443.38481608333854}, {"on": false, "note": 60, "velocity": 0, "until": 443.38481608333854}, {"on": false, "note": 72, "velocity": 0, "until": 443.44481608333854}, {"on": true, "note": 72, "velocity": 117, "until": 443.44481608333854}, {"on": true, "note": 60, "velocity": 117, "until": 443.62481608333866}, {"on": false, "note": 60, "velocity": 0, "until": 443.62481608333866}, {"on": false, "note": 72, "velocity": 0, "until": 443.68481608333866}, {"on": true, "note": 72, "velocity": 117, "until": 443.68481608333866}, {"on": true, "note": 60, "velocity": 117, "until": 443.8648160833388}, {"on": false, "note": 60, "velocity": 0, "until": 443.8648160833388}, {"on": false, "note": 72, "velocity": 0, "until": 443.9248160833388}, {"on": true, "note": 60, "velocity": 117, "until": 443.9248160833388}, {"on": true, "note": 72, "velocity": 117, "until": 444.4047391583397}, {"on": false, "note": 72, "velocity": 0, "until": 444.4047391583397}, {"on": false, "note": 60, "velocity": 0, "until": 446.5199701583391}, {"on": true, "note": 55, "velocity": 117, "until": 446.5199701583391}, {"on": true, "note": 67, "velocity": 117, "until": 446.693046908339}, {"on": false, "note": 67, "velocity": 0, "until": 446.693046908339}, {"on": false, "note": 55, "velocity": 0, "until": 446.75078458333894}, {"on": true, "note": 72, "velocity": 117, "until": 446.75078458333894}, {"on": true, "note": 60, "velocity": 117, "until": 446.9279495833388}, {"on": false, "note": 60, "velocity": 0, "until": 446.9279495833388}, {"on": false, "note": 72, "velocity": 0, "until": 446.9870045833387}, {"on": true, "note": 67, "velocity": 117, "until": 446.9870045833387}, {"on": true, "note": 55, "velocity": 117, "until": 447.16416958333855}, {"on": false, "note": 55, "velocity": 0, "until": 447.16416958333855}, {"on": false, "note": 67, "velocity": 0, "until": 447.2232245833385}, {"on": true, "note": 72, "velocity": 117, "until": 447.2232245833385}, {"on": true, "note": 60, "velocity": 117, "until": 447.4003895833383}, {"on": false, "note": 60, "velocity": 0, "until": 447.4003895833383}, {"on": false, "note": 72, "velocity": 0, "until": 447.45944458333827}, {"on": true, "note": 67, "velocity": 117, "until": 447.45944458333827}, {"on": true, "note": 55, "velocity": 117, "until": 447.6366095833381}, {"on": false, "note": 55, "velocity": 0, "until": 447.6366095833381}, {"on": false, "note": 67, "velocity": 0, "until": 447.69566458333804}, {"on": true, "note": 72, "velocity": 117, "until": 447.69566458333804}, {"on": true, "note": 60, "velocity": 117, "until": 447.93188458333793}, {"on": false, "note": 60, "velocity": 0, "until": 447.93188458333793}, {"on": false, "note": 72, "velocity": 0, "until": 448.1680591583378}, {"on": true, "note": 67, "velocity": 117, "until": 448.61036640833754}, {"on": false, "note": 67, "velocity": 0, "until": 448.62971489167086}, {"on": true, "note": 67, "velocity": 117, "until": 449.09910080833754}, {"on": false, "note": 67, "velocity": 0, "until": 449.1193911583375}, {"on": true, "note": 74, "velocity": 117, "until": 449.56169840833724}, {"on": false, "note": 74, "velocity": 0, "until": 449.58104689167055}, {"on": true, "note": 67, "velocity": 117, "until": 449.58104689167055}, {"on": true, "note": 74, "velocity": 117, "until": 450.05043280833723}, {"on": false, "note": 74, "velocity": 0, "until": 450.05043280833723}, {"on": false, "note": 67, "velocity": 0, "until": 450.0707231583372}, {"on": true, "note": 67, "velocity": 117, "until": 450.0707231583372}, {"on": true, "note": 74, "velocity": 117, "until": 450.51303040833693}, {"on": false, "note": 74, "velocity": 0, "until": 450.51303040833693}, {"on": false, "note": 67, "velocity": 0, "until": 450.53237889167025}, {"on": true, "note": 60, "velocity": 117, "until": 450.53237889167025}, {"on": true, "note": 72, "velocity": 117, "until": 451.02205515833697}, {"on": false, "note": 72, "velocity": 0, "until": 451.02205515833697}, {"on": false, "note": 60, "velocity": 0, "until": 451.4837108916702}, {"on": true, "note": 60, "velocity": 117, "until": 451.4837108916702}, {"on": true, "note": 72, "velocity": 117, "until": 451.97338715833695}, {"on": false, "note": 72, "velocity": 0, "until": 451.97338715833695}, {"on": false, "note": 60, "velocity": 0, "until": 452.43504289166975}, {"on": true, "note": 60, "velocity": 117, "until": 452.43504289166975}, {"on": true, "note": 72, "velocity": 117, "until": 452.6799398916698}, {"on": false, "note": 72, "velocity": 0, "until": 452.6799398916698}, {"on": false, "note": 60, "velocity": 0, "until": 452.9247191583365}, {"on": true, "note": 60, "velocity": 117, "until": 452.9247191583365}, {"on": true, "note": 72, "velocity": 117, "until": 453.15548815833614}, {"on": false, "note": 72, "velocity": 0, "until": 453.15548815833614}, {"on": false, "note": 60, "velocity": 0, "until": 453.3863748916694}, {"on": true, "note": 60, "velocity": 117, "until": 453.3863748916694}, {"on": true, "note": 72, "velocity": 117, "until": 453.6312718916694}, {"on": false, "note": 72, "velocity": 0, "until": 453.6312718916694}, {"on": false, "note": 60, "velocity": 0, "until": 453.8760511583361}, {"on": true, "note": 60, "velocity": 117, "until": 453.8760511583361}, {"on": true, "note": 72, "velocity": 117, "until": 454.1068201583358}, {"on": false, "note": 72, "velocity": 0, "until": 454.1068201583358}, {"on": false, "note": 60, "velocity": 0, "until": 454.33770689166903}, {"on": true, "note": 72, "velocity": 117, "until": 454.33770689166903}, {"on": true, "note": 60, "velocity": 117, "until": 455.28903889166895}, {"on": false, "note": 60, "velocity": 0, "until": 455.28903889166895}, {"on": false, "note": 72, "velocity": 0, "until": 455.28903889166895}, {"on": true, "note": 60, "velocity": 117, "until": 455.28903889166895}, {"on": true, "note": 72, "velocity": 117, "until": 456.2403708916689}, {"on": false, "note": 72, "velocity": 0, "until": 456.2403708916689}, {"on": false, "note": 60, "velocity": 0, "until": 456.2403708916689}, {"on": true, "note": 60, "velocity": 117, "until": 456.2403708916689}, {"on": true, "note": 72, "velocity": 117, "until": 456.7300471583356}, {"on": false, "note": 72, "velocity": 0, "until": 456.7300471583356}, {"on": false, "note": 60, "velocity": 0, "until": 456.7300471583356}, {"on": true, "note": 60, "velocity": 117, "until": 456.7300471583356}, {"on": true, "note": 72, "velocity": 117, "until": 457.1917028916685}, {"on": false, "note": 72, "velocity": 0, "until": 457.1917028916685}, {"on": false, "note": 60, "velocity": 0, "until": 457.1917028916685}, {"on": true, "note": 60, "velocity": 117, "until": 457.1917028916685}, {"on": true, "note": 72, "velocity": 117, "until": 457.68137915833523}, {"on": false, "note": 72, "velocity": 0, "until": 457.68137915833523}, {"on": false, "note": 60, "velocity": 0, "until": 457.68137915833523}, {"on": true, "note": 60, "velocity": 117, "until": 457.68137915833523}, {"on": true, "note": 72, "velocity": 117, "until": 458.14303489166815}, {"on": false, "note": 72, "velocity": 0, "until": 458.14303489166815}, {"on": false, "note": 60, "velocity": 0, "until": 458.14303489166815}, {"on": true, "note": 55, "velocity": 117, "until": 458.14303489166815}, {"on": true, "note": 67, "velocity": 117, "until": 458.3879318916682}, {"on": false, "note": 67, "velocity": 0, "until": 458.3879318916682}, {"on": false, "note": 55, "velocity": 0, "until": 478.0263411333307}, {"on": true, "note": 67, "velocity": 117, "until": 478.0263411333307}, {"on": true, "note": 55, "velocity": 117, "until": 478.52835720832996}, {"on": false, "note": 55, "velocity": 0, "until": 478.52835720832996}, {"on": false, "note": 67, "velocity": 0, "until": 481.9701631916627}, {"on": true, "note": 67, "velocity": 117, "until": 481.9701631916627}, {"on": true, "note": 55, "velocity": 117, "until": 482.4659393666627}, {"on": false, "note": 55, "velocity": 0, "until": 482.4659393666627}, {"on": false, "note": 67, "velocity": 0, "until": 485.8508173666624}, {"on": true, "note": 74, "velocity": 117, "until": 486.336529474996}, {"on": false, "note": 74, "velocity": 0, "until": 486.565536474996}, {"on": true, "note": 74, "velocity": 117, "until": 486.7946593666628}, {"on": false, "note": 74, "velocity": 0, "until": 486.7946593666628}, {"on": true, "note": 74, "velocity": 117, "until": 487.0375733666629}, {"on": false, "note": 74, "velocity": 0, "until": 487.0375733666629}, {"on": true, "note": 74, "velocity": 117, "until": 487.2803714749963}, {"on": false, "note": 74, "velocity": 0, "until": 487.2803714749963}, {"on": true, "note": 74, "velocity": 117, "until": 487.5093784749964}, {"on": false, "note": 74, "velocity": 0, "until": 489.626564924998}, {"on": true, "note": 72, "velocity": 117, "until": 489.626564924998}, {"on": true, "note": 60, "velocity": 117, "until": 489.9147054166643}, {"on": false, "note": 60, "velocity": 0, "until": 489.9147054166643}, {"on": false, "note": 72, "velocity": 0, "until": 503.32816158333287}, {"on": true, "note": 60, "velocity": 117, "until": 503.32816158333287}, {"on": true, "note": 72, "velocity": 117, "until": 503.56438158333265}, {"on": false, "note": 72, "velocity": 0, "until": 503.56438158333265}, {"on": false, "note": 60, "velocity": 0, "until": 503.56438158333265}, {"on": true, "note": 60, "velocity": 117, "until": 503.56438158333265}, {"on": true, "note": 72, "velocity": 117, "until": 503.8006906916658}, {"on": false, "note": 72, "velocity": 0, "until": 503.8006906916658}, {"on": false, "note": 60, "velocity": 0, "until": 503.8006906916658}, {"on": true, "note": 60, "velocity": 117, "until": 503.8006906916658}, {"on": true, "note": 72, "velocity": 117, "until": 504.04804608333257}, {"on": false, "note": 72, "velocity": 0, "until": 504.04804608333257}, {"on": false, "note": 60, "velocity": 0, "until": 511.25936920833186}, {"on": true, "note": 60, "velocity": 117, "until": 511.25936920833186}, {"on": true, "note": 72, "velocity": 117, "until": 511.49374420833186}, {"on": false, "note": 72, "velocity": 0, "until": 511.49374420833186}, {"on": false, "note": 60, "velocity": 0, "until": 511.49374420833186}, {"on": true, "note": 60, "velocity": 117, "until": 511.49374420833186}, {"on": true, "note": 72, "velocity": 117, "until": 511.7281903666652}, {"on": false, "note": 72, "velocity": 0, "until": 511.7281903666652}, {"on": false, "note": 60, "velocity": 0, "until": 511.7281903666652}, {"on": true, "note": 60, "velocity": 117, "until": 511.7281903666652}, {"on": true, "note": 72, "velocity": 117, "until": 511.97158008333196}, {"on": false, "note": 72, "velocity": 0, "until": 511.97158008333196}, {"on": false, "note": 60, "velocity": 0, "until": 515.1060384750003}, {"on": true, "note": 72, "velocity": 117, "until": 515.1060384750003}, {"on": true, "note": 60, "velocity": 117, "until": 515.3350454750007}, {"on": false, "note": 60, "velocity": 0, "until": 515.3350454750007}, {"on": false, "note": 72, "velocity": 0, "until": 515.3350454750007}, {"on": true, "note": 72, "velocity": 117, "until": 515.3350454750007}, {"on": true, "note": 60, "velocity": 117, "until": 515.5641683666677}, {"on": false, "note": 60, "velocity": 0, "until": 515.5641683666677}, {"on": false, "note": 72, "velocity": 0, "until": 515.5641683666677}, {"on": true, "note": 55, "velocity": 117, "until": 515.5641683666677}, {"on": true, "note": 67, "velocity": 117, "until": 516.0501272500009}, {"on": false, "note": 67, "velocity": 0, "until": 516.0501272500009}, {"on": false, "note": 55, "velocity": 0, "until": 525.1345553666682}, {"on": true, "note": 67, "velocity": 117, "until": 525.1345553666682}, {"on": true, "note": 55, "velocity": 117, "until": 525.377469366668}, {"on": false, "note": 55, "velocity": 0, "until": 525.377469366668}, {"on": false, "note": 67, "velocity": 0, "until": 541.1796765833336}, {"on": true, "note": 60, "velocity": 117, "until": 541.1796765833336}, {"on": true, "note": 72, "velocity": 117, "until": 541.5826065833335}, {"on": false, "note": 72, "velocity": 0, "until": 541.5826065833335}, {"on": false, "note": 60, "velocity": 0, "until": 541.6191292166667}, {"on": true, "note": 72, "velocity": 117, "until": 541.6191292166667}, {"on": true, "note": 60, "velocity": 117, "until": 541.9984385500003}, {"on": false, "note": 60, "velocity": 0, "until": 541.9984385500003}, {"on": false, "note": 72, "velocity": 0, "until": 542.0329891916671}, {"on": true, "note": 72, "velocity": 117, "until": 542.0329891916671}, {"on": true, "note": 60, "velocity": 117, "until": 542.4272530250005}, {"on": false, "note": 60, "velocity": 0, "until": 542.4272530250005}, {"on": false, "note": 72, "velocity": 0, "until": 542.4630212916672}, {"on": true, "note": 72, "velocity": 117, "until": 542.4630212916672}, {"on": true, "note": 60, "velocity": 117, "until": 542.841027125001}, {"on": false, "note": 60, "velocity": 0, "until": 542.841027125001}, {"on": false, "note": 72, "velocity": 0, "until": 542.8754587916678}, {"on": true, "note": 72, "velocity": 117, "until": 542.8754587916678}, {"on": true, "note": 60, "velocity": 117, "until": 543.2683146250014}, {"on": false, "note": 60, "velocity": 0, "until": 543.2683146250014}, {"on": false, "note": 72, "velocity": 0, "until": 543.3039495666682}, {"on": true, "note": 72, "velocity": 117, "until": 543.3039495666682}, {"on": true, "note": 60, "velocity": 117, "until": 543.6793759000017}, {"on": false, "note": 60, "velocity": 0, "until": 543.6793759000017}, {"on": false, "note": 72, "velocity": 0, "until": 543.7135847916685}, {"on": true, "note": 72, "velocity": 117, "until": 543.7135847916685}, {"on": true, "note": 60, "velocity": 117, "until": 544.1420755666687}, {"on": false, "note": 60, "velocity": 0, "until": 544.1420755666687}, {"on": false, "note": 72, "velocity": 0, "until": 544.551710791669}, {"on": true, "note": 79, "velocity": 117, "until": 544.551710791669}, {"on": true, "note": 76, "velocity": 117, "until": 544.9802015666695}, {"on": false, "note": 76, "velocity": 0, "until": 544.9802015666695}, {"on": false, "note": 79, "velocity": 0, "until": 545.3898367916698}, {"on": true, "note": 74, "velocity": 117, "until": 545.3898367916698}, {"on": true, "note": 77, "velocity": 117, "until": 545.8183275666703}, {"on": false, "note": 77, "velocity": 0, "until": 545.8183275666703}, {"on": false, "note": 74, "velocity": 0, "until": 546.2279627916705}, {"on": true, "note": 76, "velocity": 117, "until": 546.2279627916705}, {"on": true, "note": 79, "velocity": 117, "until": 546.656453566671}, {"on": false, "note": 79, "velocity": 0, "until": 546.656453566671}, {"on": false, "note": 76, "velocity": 0, "until": 547.0660887916713}, {"on": true, "note": 74, "velocity": 117, "until": 547.0660887916713}, {"on": true, "note": 77, "velocity": 117, "until": 547.4945795666717}, {"on": false, "note": 77, "velocity": 0, "until": 547.4945795666717}, {"on": false, "note": 74, "velocity": 0, "until": 547.904214791672}, {"on": true, "note": 55, "velocity": 127, "until": 547.904214791672}, {"on": true, "note": 67, "velocity": 127, "until": 549.5804667916747}, {"on": false, "note": 67, "velocity": 0, "until": 549.5804667916747}, {"on": false, "note": 55, "velocity": 0, "until": 549.5804667916747}, {"on": true, "note": 55, "velocity": 117, "until": 549.5804667916747}, {"on": true, "note": 67, "velocity": 117, "until": 550.418592791677}, {"on": false, "note": 67, "velocity": 0, "until": 550.418592791677}, {"on": false, "note": 55, "velocity": 0, "until": 550.418592791677}, {"on": true, "note": 55, "velocity": 117, "until": 550.418592791677}, {"on": true, "note": 67, "velocity": 117, "until": 551.2567187916794}, {"on": false, "note": 67, "velocity": 0, "until": 551.2567187916794}, {"on": false, "note": 55, "velocity": 0, "until": 551.2567187916794}, {"on": true, "note": 55, "velocity": 117, "until": 551.2567187916794}, {"on": true, "note": 67, "velocity": 117, "until": 552.9329707916829}, {"on": false, "note": 67, "velocity": 0, "until": 552.9329707916829}, {"on": false, "note": 55, "velocity": 0, "until": 552.9329707916829}, {"on": true, "note": 55, "velocity": 117, "until": 552.9329707916829}, {"on": true, "note": 67, "velocity": 117, "until": 553.7710967916853}, {"on": false, "note": 67, "velocity": 0, "until": 553.7710967916853}, {"on": false, "note": 55, "velocity": 0, "until": 553.7710967916853}, {"on": true, "note": 55, "velocity": 117, "until": 553.7710967916853}, {"on": true, "note": 67, "velocity": 117, "until": 554.6092227916877}, {"on": false, "note": 67, "velocity": 0, "until": 554.6092227916877}, {"on": false, "note": 55, "velocity": 0, "until": 554.6092227916877}, {"on": true, "note": 55, "velocity": 117, "until": 554.6092227916877}, {"on": true, "note": 67, "velocity": 117, "until": 557.9617267916932}, {"on": false, "note": 67, "velocity": 0, "until": 557.9617267916932}, {"on": false, "note": 55, "velocity": 0, "until": 557.9617267916932}, {"on": true, "note": 60, "velocity": 117, "until": 557.9617267916932}, {"on": true, "note": 72, "velocity": 117, "until": 558.1760117916934}, {"on": false, "note": 72, "velocity": 0, "until": 558.1760117916934}, {"on": false, "note": 60, "velocity": 0, "until": 558.7998527916938}, {"on": true, "note": 60, "velocity": 117, "until": 558.7998527916938}, {"on": true, "note": 72, "velocity": 117, "until": 559.0141377916942}, {"on": false, "note": 72, "velocity": 0, "until": 559.0141377916942}, {"on": false, "note": 60, "velocity": 0, "until": 559.6379787916945}, {"on": true, "note": 55, "velocity": 117, "until": 559.6379787916945}, {"on": true, "note": 67, "velocity": 117, "until": 559.852263791695}, {"on": false, "note": 67, "velocity": 0, "until": 559.852263791695}, {"on": false, "note": 55, "velocity": 0, "until": 560.4761047916953}, {"on": true, "note": 55, "velocity": 117, "until": 560.4761047916953}, {"on": true, "note": 67, "velocity": 117, "until": 560.6906874166957}, {"on": false, "note": 67, "velocity": 0, "until": 560.6906874166957}, {"on": false, "note": 55, "velocity": 0, "until": 561.3898277916959}, {"on": true, "note": 55, "velocity": 117, "until": 561.3898277916959}, {"on": true, "note": 67, "velocity": 117, "until": 564.7423317917006}, {"on": false, "note": 67, "velocity": 0, "until": 564.7423317917006}, {"on": false, "note": 55, "velocity": 0, "until": 564.7423317917006}, {"on": true, "note": 60, "velocity": 117, "until": 564.7423317917006}, {"on": true, "note": 72, "velocity": 117, "until": 564.9566167917009}, {"on": false, "note": 72, "velocity": 0, "until": 564.9566167917009}, {"on": false, "note": 60, "velocity": 0, "until": 565.5804577917012}, {"on": true, "note": 60, "velocity": 117, "until": 565.5804577917012}, {"on": true, "note": 72, "velocity": 117, "until": 565.7947427917017}, {"on": false, "note": 72, "velocity": 0, "until": 565.7947427917017}, {"on": false, "note": 60, "velocity": 0, "until": 566.4186096750352}, {"on": true, "note": 55, "velocity": 117, "until": 566.4186096750352}, {"on": true, "note": 67, "velocity": 117, "until": 566.6360006750348}, {"on": false, "note": 67, "velocity": 0, "until": 566.6360006750348}, {"on": false, "note": 55, "velocity": 0, "until": 567.2716211583677}, {"on": true, "note": 55, "velocity": 117, "until": 567.2716211583677}, {"on": true, "note": 67, "velocity": 117, "until": 567.5067170833682}, {"on": false, "note": 67, "velocity": 0, "until": 567.5067170833682}, {"on": false, "note": 55, "velocity": 0, "until": 580.4371427917114}, {"on": true, "note": 60, "velocity": 117, "until": 580.4371427917114}, {"on": true, "note": 72, "velocity": 117, "until": 580.6335707083783}, {"on": false, "note": 72, "velocity": 0, "until": 580.6335707083783}, {"on": false, "note": 60, "velocity": 0, "until": 580.6514277917117}, {"on": true, "note": 55, "velocity": 117, "until": 580.6514277917117}, {"on": true, "note": 67, "velocity": 117, "until": 580.8478557083788}, {"on": false, "note": 67, "velocity": 0, "until": 580.8478557083788}, {"on": false, "note": 55, "velocity": 0, "until": 580.8656335667122}, {"on": true, "note": 60, "velocity": 117, "until": 580.8656335667122}, {"on": true, "note": 72, "velocity": 117, "until": 581.053346733379}, {"on": false, "note": 72, "velocity": 0, "until": 581.053346733379}, {"on": false, "note": 60, "velocity": 0, "until": 581.0704115667123}, {"on": true, "note": 55, "velocity": 117, "until": 581.0704115667123}, {"on": true, "note": 67, "velocity": 117, "until": 581.2581247333792}, {"on": false, "note": 67, "velocity": 0, "until": 581.2581247333792}, {"on": false, "note": 55, "velocity": 0, "until": 581.2752687917125}, {"on": true, "note": 60, "velocity": 117, "until": 581.2752687917125}, {"on": true, "note": 72, "velocity": 117, "until": 581.4716967083796}, {"on": false, "note": 72, "velocity": 0, "until": 581.4716967083796}, {"on": false, "note": 60, "velocity": 0, "until": 581.489553791713}, {"on": true, "note": 55, "velocity": 117, "until": 581.489553791713}, {"on": true, "note": 67, "velocity": 117, "until": 581.68598170838}, {"on": false, "note": 67, "velocity": 0, "until": 581.68598170838}, {"on": false, "note": 55, "velocity": 0, "until": 581.7037595667134}, {"on": true, "note": 60, "velocity": 117, "until": 581.7037595667134}, {"on": true, "note": 72, "velocity": 117, "until": 581.8914727333803}, {"on": false, "note": 72, "velocity": 0, "until": 581.8914727333803}, {"on": false, "note": 60, "velocity": 0, "until": 581.9085375667136}, {"on": true, "note": 55, "velocity": 117, "until": 581.9085375667136}, {"on": true, "note": 67, "velocity": 117, "until": 582.0962507333804}, {"on": false, "note": 67, "velocity": 0, "until": 582.0962507333804}, {"on": false, "note": 55, "velocity": 0, "until": 582.1133332167137}, {"on": true, "note": 72, "velocity": 117, "until": 582.1133332167137}, {"on": true, "note": 60, "velocity": 117, "until": 582.3202292167138}, {"on": false, "note": 60, "velocity": 0, "until": 582.3202292167138}, {"on": false, "note": 72, "velocity": 0, "until": 583.0271804417139}, {"on": true, "note": 60, "velocity": 117, "until": 583.0271804417139}, {"on": true, "note": 72, "velocity": 117, "until": 583.240703441714}, {"on": false, "note": 72, "velocity": 0, "until": 583.240703441714}, {"on": false, "note": 60, "velocity": 0, "until": 583.9978027500475}, {"on": true, "note": 60, "velocity": 117, "until": 584.5665227500476}]}, {"id": 10, "states": [{"on": true, "note": 60, "velocity": 106, "until": 0}, {"on": false, "note": 0, "velocity": 0, "until": 5.399999999999976}, {"on": false, "note": 60, "velocity": 0, "until": 5.399999999999976}, {"on": true, "note": 67, "velocity": 76, "until": 5.399999999999976}, {"on": true, "note": 72, "velocity": 76, "until": 5.399999999999976}, {"on": true, "note": 76, "velocity": 76, "until": 6.038297499999978}, {"on": false, "note": 76, "velocity": 0, "until": 6.038297499999978}, {"on": false, "note": 72, "velocity": 0, "until": 6.038297499999978}, {"on": false, "note": 67, "velocity": 0, "until": 6.676594999999979}, {"on": true, "note": 65, "velocity": 76, "until": 6.676594999999979}, {"on": true, "note": 72, "velocity": 76, "until": 6.676594999999979}, {"on": true, "note": 77, "velocity": 76, "until": 7.3148924999999805}, {"on": false, "note": 77, "velocity": 0, "until": 7.3148924999999805}, {"on": false, "note": 72, "velocity": 0, "until": 7.3148924999999805}, {"on": false, "note": 65, "velocity": 0, "until": 9.66747499999999}, {"on": true, "note": 60, "velocity": 106, "until": 13.267474999999962}, {"on": false, "note": 60, "velocity": 0, "until": 13.267474999999962}, {"on": true, "note": 78, "velocity": 106, "until": 13.267474999999962}, {"on": true, "note": 72, "velocity": 106, "until": 13.93414149999996}, {"on": false, "note": 72, "velocity": 0, "until": 13.93414149999996}, {"on": false, "note": 78, "velocity": 0, "until": 14.600807999999958}, {"on": true, "note": 71, "velocity": 106, "until": 14.600807999999958}, {"on": true, "note": 79, "velocity": 106, "until": 15.267474499999956}, {"on": false, "note": 79, "velocity": 0, "until": 15.267474499999956}, {"on": false, "note": 71, "velocity": 0, "until": 27.71908000000005}, {"on": true, "note": 55, "velocity": 106, "until": 28.91908000000009}, {"on": false, "note": 55, "velocity": 0, "until": 28.91908000000009}, {"on": true, "note": 64, "velocity": 106, "until": 29.897340250000084}, {"on": false, "note": 64, "velocity": 0, "until": 29.897340250000084}, {"on": true, "note": 65, "velocity": 106, "until": 30.223427000000083}, {"on": false, "note": 65, "velocity": 0, "until": 30.223427000000083}, {"on": true, "note": 67, "velocity": 106, "until": 30.82342700000009}, {"on": false, "note": 67, "velocity": 0, "until": 31.4234270000001}, {"on": true, "note": 55, "velocity": 106, "until": 31.4234270000001}, {"on": true, "note": 62, "velocity": 106, "until": 32.023427000000176}, {"on": false, "note": 62, "velocity": 0, "until": 32.023427000000176}, {"on": false, "note": 55, "velocity": 0, "until": 32.62342700000017}, {"on": true, "note": 64, "velocity": 106, "until": 33.601687250000154}, {"on": false, "note": 64, "velocity": 0, "until": 33.601687250000154}, {"on": true, "note": 65, "velocity": 106, "until": 33.927774000000156}, {"on": false, "note": 65, "velocity": 0, "until": 33.927774000000156}, {"on": true, "note": 67, "velocity": 106, "until": 34.52777400000014}, {"on": false, "note": 67, "velocity": 0, "until": 35.12777400000014}, {"on": true, "note": 62, "velocity": 106, "until": 35.12777400000014}, {"on": true, "note": 55, "velocity": 106, "until": 35.7660715000001}, {"on": false, "note": 55, "velocity": 0, "until": 35.7660715000001}, {"on": false, "note": 62, "velocity": 0, "until": 36.555545000000095}, {"on": true, "note": 63, "velocity": 106, "until": 37.60205600000014}, {"on": false, "note": 63, "velocity": 0, "until": 37.60205600000014}, {"on": true, "note": 65, "velocity": 106, "until": 37.95089300000014}, {"on": false, "note": 65, "velocity": 0, "until": 37.95089300000014}, {"on": true, "note": 67, "velocity": 106, "until": 38.60306650000013}, {"on": false, "note": 67, "velocity": 0, "until": 42.202450333333445}, {"on": true, "note": 80, "velocity": 106, "until": 42.45497554166679}, {"on": false, "note": 80, "velocity": 0, "until": 42.606490666666794}, {"on": true, "note": 79, "velocity": 106, "until": 42.85901587500013}, {"on": false, "note": 79, "velocity": 0, "until": 43.010531000000135}, {"on": true, "note": 77, "velocity": 106, "until": 43.263056208333474}, {"on": false, "note": 77, "velocity": 0, "until": 43.41457133333348}, {"on": true, "note": 75, "velocity": 106, "until": 43.667096541666815}, {"on": false, "note": 75, "velocity": 0, "until": 43.81861166666682}, {"on": true, "note": 74, "velocity": 106, "until": 44.07113687500016}, {"on": false, "note": 74, "velocity": 0, "until": 44.22265200000016}, {"on": true, "note": 72, "velocity": 106, "until": 44.33134758333349}, {"on": false, "note": 72, "velocity": 0, "until": 44.33134758333349}, {"on": true, "note": 74, "velocity": 106, "until": 44.440043166666825}, {"on": false, "note": 74, "velocity": 0, "until": 44.440043166666825}, {"on": true, "note": 72, "velocity": 106, "until": 44.65743433333349}, {"on": false, "note": 72, "velocity": 0, "until": 44.65743433333349}, {"on": true, "note": 70, "velocity": 106, "until": 45.03786887500016}, {"on": false, "note": 70, "velocity": 0, "until": 45.09221666666682}, {"on": true, "note": 70, "velocity": 106, "until": 45.33134695000016}, {"on": false, "note": 70, "velocity": 0, "until": 45.52699900000016}, {"on": true, "note": 72, "velocity": 106, "until": 45.626999000000154}, {"on": false, "note": 72, "velocity": 0, "until": 45.626999000000154}, {"on": true, "note": 74, "velocity": 106, "until": 45.726999000000156}, {"on": false, "note": 74, "velocity": 0, "until": 45.726999000000156}, {"on": true, "note": 72, "velocity": 106, "until": 45.92699900000015}, {"on": false, "note": 72, "velocity": 0, "until": 45.92699900000015}, {"on": true, "note": 70, "velocity": 106, "until": 46.27699900000015}, {"on": false, "note": 70, "velocity": 0, "until": 46.32699900000015}, {"on": true, "note": 70, "velocity": 106, "until": 46.54699900000014}, {"on": false, "note": 70, "velocity": 0, "until": 46.726999000000134}, {"on": true, "note": 74, "velocity": 106, "until": 46.82699900000013}, {"on": false, "note": 74, "velocity": 0, "until": 46.82699900000013}, {"on": true, "note": 72, "velocity": 106, "until": 46.92699900000013}, {"on": false, "note": 72, "velocity": 0, "until": 46.92699900000013}, {"on": true, "note": 72, "velocity": 106, "until": 47.126999000000126}, {"on": false, "note": 72, "velocity": 0, "until": 47.126999000000126}, {"on": true, "note": 70, "velocity": 106, "until": 47.47699900000013}, {"on": false, "note": 70, "velocity": 0, "until": 47.526999000000124}, {"on": true, "note": 70, "velocity": 106, "until": 47.746999000000116}, {"on": false, "note": 70, "velocity": 0, "until": 47.92699900000011}, {"on": true, "note": 70, "velocity": 106, "until": 48.36178133333343}, {"on": false, "note": 70, "velocity": 0, "until": 48.36178133333343}, {"on": true, "note": 79, "velocity": 106, "until": 48.79656366666676}, {"on": false, "note": 79, "velocity": 0, "until": 48.79656366666676}, {"on": true, "note": 77, "velocity": 106, "until": 49.231346000000094}, {"on": false, "note": 77, "velocity": 0, "until": 49.231346000000094}, {"on": true, "note": 75, "velocity": 106, "until": 49.63134600000009}, {"on": false, "note": 75, "velocity": 0, "until": 49.63134600000009}, {"on": true, "note": 74, "velocity": 106, "until": 50.03134600000009}, {"on": false, "note": 74, "velocity": 0, "until": 50.03134600000009}, {"on": true, "note": 72, "velocity": 106, "until": 50.43134600000009}, {"on": false, "note": 72, "velocity": 0, "until": 50.43134600000009}, {"on": true, "note": 70, "velocity": 106, "until": 50.831346000000096}, {"on": false, "note": 70, "velocity": 0, "until": 50.831346000000096}, {"on": true, "note": 69, "velocity": 106, "until": 51.231346000000094}, {"on": false, "note": 69, "velocity": 0, "until": 51.231346000000094}, {"on": true, "note": 70, "velocity": 106, "until": 51.58134600000009}, {"on": false, "note": 70, "velocity": 0, "until": 51.631346000000086}, {"on": true, "note": 72, "velocity": 106, "until": 51.740041583333415}, {"on": false, "note": 72, "velocity": 0, "until": 51.740041583333415}, {"on": true, "note": 74, "velocity": 106, "until": 51.84873716666675}, {"on": false, "note": 74, "velocity": 0, "until": 51.84873716666675}, {"on": true, "note": 72, "velocity": 106, "until": 52.06612833333342}, {"on": false, "note": 72, "velocity": 0, "until": 52.06612833333342}, {"on": true, "note": 70, "velocity": 106, "until": 52.44656287500008}, {"on": false, "note": 70, "velocity": 0, "until": 52.50091066666675}, {"on": true, "note": 70, "velocity": 106, "until": 52.740040950000086}, {"on": false, "note": 70, "velocity": 0, "until": 52.935693000000086}, {"on": true, "note": 72, "velocity": 106, "until": 53.03569300000008}, {"on": false, "note": 72, "velocity": 0, "until": 53.03569300000008}, {"on": true, "note": 74, "velocity": 106, "until": 53.13569300000008}, {"on": false, "note": 74, "velocity": 0, "until": 53.13569300000008}, {"on": true, "note": 72, "velocity": 106, "until": 53.33569300000008}, {"on": false, "note": 72, "velocity": 0, "until": 53.33569300000008}, {"on": true, "note": 70, "velocity": 106, "until": 53.68569300000008}, {"on": false, "note": 70, "velocity": 0, "until": 53.735693000000076}, {"on": true, "note": 70, "velocity": 106, "until": 53.95569300000007}, {"on": false, "note": 70, "velocity": 0, "until": 54.13569300000006}, {"on": true, "note": 74, "velocity": 106, "until": 54.235693000000055}, {"on": false, "note": 74, "velocity": 0, "until": 54.235693000000055}, {"on": true, "note": 72, "velocity": 106, "until": 54.335693000000056}, {"on": false, "note": 72, "velocity": 0, "until": 54.335693000000056}, {"on": true, "note": 72, "velocity": 106, "until": 54.53569300000005}, {"on": false, "note": 72, "velocity": 0, "until": 54.53569300000005}, {"on": true, "note": 70, "velocity": 106, "until": 54.88569300000005}, {"on": false, "note": 70, "velocity": 0, "until": 54.93569300000005}, {"on": true, "note": 70, "velocity": 106, "until": 55.15569300000004}, {"on": false, "note": 70, "velocity": 0, "until": 55.335693000000035}, {"on": true, "note": 70, "velocity": 106, "until": 55.77047533333336}, {"on": false, "note": 70, "velocity": 0, "until": 55.77047533333336}, {"on": true, "note": 79, "velocity": 106, "until": 56.20525766666669}, {"on": false, "note": 79, "velocity": 0, "until": 56.20525766666669}, {"on": true, "note": 77, "velocity": 106, "until": 56.64004000000002}, {"on": false, "note": 77, "velocity": 0, "until": 56.64004000000002}, {"on": true, "note": 75, "velocity": 106, "until": 57.04004000000002}, {"on": false, "note": 75, "velocity": 0, "until": 57.04004000000002}, {"on": true, "note": 74, "velocity": 106, "until": 57.44004000000001}, {"on": false, "note": 74, "velocity": 0, "until": 57.44004000000001}, {"on": true, "note": 72, "velocity": 106, "until": 57.84004}, {"on": false, "note": 72, "velocity": 0, "until": 57.84004}, {"on": true, "note": 70, "velocity": 106, "until": 58.24004000000001}, {"on": false, "note": 70, "velocity": 0, "until": 58.24004000000001}, {"on": true, "note": 69, "velocity": 106, "until": 58.640040000000006}, {"on": false, "note": 69, "velocity": 0, "until": 58.640040000000006}, {"on": true, "note": 70, "velocity": 106, "until": 59.05670654166665}, {"on": false, "note": 70, "velocity": 0, "until": 59.11623033333331}, {"on": true, "note": 65, "velocity": 106, "until": 59.11623033333331}, {"on": true, "note": 71, "velocity": 106, "until": 59.79804833333322}, {"on": false, "note": 71, "velocity": 0, "until": 59.79804833333322}, {"on": false, "note": 65, "velocity": 0, "until": 62.94498233333321}, {"on": true, "note": 63, "velocity": 106, "until": 62.94498233333321}, {"on": true, "note": 72, "velocity": 106, "until": 63.626800333333115}, {"on": false, "note": 72, "velocity": 0, "until": 63.626800333333115}, {"on": false, "note": 63, "velocity": 0, "until": 66.77373433333314}, {"on": true, "note": 60, "velocity": 106, "until": 67.75199458333346}, {"on": false, "note": 60, "velocity": 0, "until": 67.75199458333346}, {"on": true, "note": 62, "velocity": 78, "until": 68.07808133333346}, {"on": false, "note": 62, "velocity": 0, "until": 68.07808133333346}, {"on": true, "note": 63, "velocity": 78, "until": 69.27808133333349}, {"on": false, "note": 63, "velocity": 0, "until": 69.27808133333349}, {"on": true, "note": 62, "velocity": 82, "until": 70.60533500000007}, {"on": false, "note": 62, "velocity": 0, "until": 70.60533500000007}, {"on": true, "note": 65, "velocity": 86, "until": 73.15041550000007}, {"on": false, "note": 65, "velocity": 0, "until": 73.18166550000007}, {"on": true, "note": 65, "velocity": 94, "until": 74.45944295833343}, {"on": false, "note": 65, "velocity": 0, "until": 74.51499850000009}, {"on": true, "note": 63, "velocity": 98, "until": 77.21469350000005}, {"on": false, "note": 63, "velocity": 0, "until": 77.21469350000005}, {"on": true, "note": 69, "velocity": 91, "until": 77.2907804083334}, {"on": true, "note": 67, "velocity": 91, "until": 77.30164996666674}, {"on": false, "note": 69, "velocity": 0, "until": 77.37773687500008}, {"on": false, "note": 67, "velocity": 0, "until": 77.37773687500008}, {"on": true, "note": 69, "velocity": 93, "until": 77.45382378333342}, {"on": true, "note": 67, "velocity": 95, "until": 77.46469334166676}, {"on": false, "note": 69, "velocity": 0, "until": 77.5407802500001}, {"on": false, "note": 67, "velocity": 0, "until": 77.5407802500001}, {"on": true, "note": 69, "velocity": 98, "until": 77.61686715833343}, {"on": true, "note": 67, "velocity": 100, "until": 77.62773671666677}, {"on": false, "note": 69, "velocity": 0, "until": 77.70382362500011}, {"on": false, "note": 67, "velocity": 0, "until": 77.70382362500011}, {"on": true, "note": 69, "velocity": 102, "until": 77.77991053333345}, {"on": true, "note": 67, "velocity": 104, "until": 77.79078009166679}, {"on": false, "note": 69, "velocity": 0, "until": 77.86686700000013}, {"on": false, "note": 67, "velocity": 0, "until": 77.86686700000013}, {"on": true, "note": 69, "velocity": 107, "until": 77.94295390833346}, {"on": true, "note": 67, "velocity": 109, "until": 77.9538234666668}, {"on": false, "note": 69, "velocity": 0, "until": 78.02991037500014}, {"on": false, "note": 67, "velocity": 0, "until": 78.02991037500014}, {"on": true, "note": 69, "velocity": 111, "until": 78.10599728333348}, {"on": true, "note": 67, "velocity": 113, "until": 78.11686684166682}, {"on": false, "note": 69, "velocity": 0, "until": 78.19295375000016}, {"on": false, "note": 67, "velocity": 0, "until": 78.19295375000016}, {"on": true, "note": 65, "velocity": 116, "until": 78.35599712500016}, {"on": false, "note": 65, "velocity": 0, "until": 78.35599712500016}, {"on": true, "note": 67, "velocity": 104, "until": 78.51904050000016}, {"on": false, "note": 67, "velocity": 0, "until": 78.51904050000016}, {"on": true, "note": 68, "velocity": 106, "until": 78.98415650000014}, {"on": false, "note": 68, "velocity": 0, "until": 78.98415650000014}, {"on": true, "note": 67, "velocity": 106, "until": 79.44927250000013}, {"on": false, "note": 67, "velocity": 0, "until": 79.44927250000013}, {"on": true, "note": 68, "velocity": 106, "until": 79.91438850000013}, {"on": false, "note": 68, "velocity": 0, "until": 79.91438850000013}, {"on": true, "note": 72, "velocity": 106, "until": 80.34917083333355}, {"on": false, "note": 72, "velocity": 0, "until": 80.34917083333355}, {"on": true, "note": 71, "velocity": 106, "until": 80.78395316666696}, {"on": false, "note": 71, "velocity": 0, "until": 80.78395316666696}, {"on": true, "note": 72, "velocity": 106, "until": 81.21873550000042}, {"on": false, "note": 72, "velocity": 0, "until": 81.21873550000042}, {"on": true, "note": 75, "velocity": 106, "until": 81.65351783333384}, {"on": false, "note": 75, "velocity": 0, "until": 81.65351783333384}, {"on": true, "note": 74, "velocity": 106, "until": 82.08830016666725}, {"on": false, "note": 74, "velocity": 0, "until": 82.08830016666725}, {"on": true, "note": 72, "velocity": 106, "until": 82.52308250000073}, {"on": false, "note": 72, "velocity": 0, "until": 82.52308250000073}, {"on": true, "note": 79, "velocity": 106, "until": 82.95786483333418}, {"on": false, "note": 79, "velocity": 0, "until": 82.95786483333418}, {"on": true, "note": 76, "velocity": 106, "until": 83.3926471666676}, {"on": false, "note": 76, "velocity": 0, "until": 83.3926471666676}, {"on": true, "note": 72, "velocity": 106, "until": 83.82742950000103}, {"on": false, "note": 72, "velocity": 0, "until": 83.82742950000103}, {"on": true, "note": 67, "velocity": 106, "until": 84.22742950000114}, {"on": false, "note": 67, "velocity": 0, "until": 84.22742950000114}, {"on": true, "note": 72, "velocity": 106, "until": 84.62742950000118}, {"on": false, "note": 72, "velocity": 0, "until": 84.62742950000118}, {"on": true, "note": 76, "velocity": 106, "until": 85.02742950000125}, {"on": false, "note": 76, "velocity": 0, "until": 85.02742950000125}, {"on": true, "note": 77, "velocity": 106, "until": 85.42742950000127}, {"on": false, "note": 77, "velocity": 0, "until": 85.42742950000127}, {"on": true, "note": 74, "velocity": 106, "until": 85.82742950000127}, {"on": false, "note": 74, "velocity": 0, "until": 85.82742950000127}, {"on": true, "note": 71, "velocity": 106, "until": 86.3036198333346}, {"on": false, "note": 71, "velocity": 0, "until": 86.3036198333346}, {"on": true, "note": 72, "velocity": 106, "until": 87.6079668333348}, {"on": false, "note": 72, "velocity": 0, "until": 90.06251216666826}, {"on": true, "note": 67, "velocity": 106, "until": 91.04077241666829}, {"on": false, "note": 67, "velocity": 0, "until": 91.04077241666829}, {"on": true, "note": 69, "velocity": 106, "until": 91.3668591666683}, {"on": false, "note": 69, "velocity": 0, "until": 91.3668591666683}, {"on": true, "note": 70, "velocity": 106, "until": 91.6168591666683}, {"on": false, "note": 70, "velocity": 0, "until": 91.76685916666831}, {"on": true, "note": 70, "velocity": 106, "until": 92.01685916666831}, {"on": false, "note": 70, "velocity": 0, "until": 92.16685916666832}, {"on": true, "note": 70, "velocity": 106, "until": 92.41685916666832}, {"on": false, "note": 70, "velocity": 0, "until": 92.56685916666832}, {"on": true, "note": 70, "velocity": 106, "until": 92.96685916666833}, {"on": false, "note": 70, "velocity": 0, "until": 92.96685916666833}, {"on": true, "note": 69, "velocity": 106, "until": 93.36685916666833}, {"on": false, "note": 69, "velocity": 0, "until": 93.36685916666833}, {"on": true, "note": 68, "velocity": 106, "until": 93.84304950000165}, {"on": false, "note": 68, "velocity": 0, "until": 93.84304950000165}, {"on": true, "note": 69, "velocity": 106, "until": 94.82130975000167}, {"on": false, "note": 69, "velocity": 0, "until": 94.82130975000167}, {"on": true, "note": 67, "velocity": 106, "until": 95.14739650000169}, {"on": false, "note": 67, "velocity": 0, "until": 95.14739650000169}, {"on": true, "note": 66, "velocity": 106, "until": 95.30739650000172}, {"on": false, "note": 66, "velocity": 0, "until": 95.54739650000177}, {"on": true, "note": 66, "velocity": 106, "until": 95.70739650000179}, {"on": false, "note": 66, "velocity": 0, "until": 95.94739650000186}, {"on": true, "note": 66, "velocity": 106, "until": 96.1073965000019}, {"on": false, "note": 66, "velocity": 0, "until": 96.34739650000195}, {"on": true, "note": 72, "velocity": 106, "until": 96.71739650000201}, {"on": false, "note": 72, "velocity": 0, "until": 96.74739650000203}, {"on": true, "note": 66, "velocity": 106, "until": 96.96739650000204}, {"on": false, "note": 66, "velocity": 0, "until": 97.14739650000206}, {"on": true, "note": 66, "velocity": 106, "until": 97.36739650000207}, {"on": false, "note": 66, "velocity": 0, "until": 97.61798462500211}, {"on": true, "note": 55, "velocity": 91, "until": 97.61798462500211}, {"on": true, "note": 67, "velocity": 91, "until": 100.12233162500242}, {"on": false, "note": 67, "velocity": 0, "until": 100.12233162500242}, {"on": false, "note": 55, "velocity": 0, "until": 100.12233162500242}, {"on": true, "note": 55, "velocity": 67, "until": 100.12233162500242}, {"on": true, "note": 65, "velocity": 67, "until": 101.46662487500241}, {"on": false, "note": 65, "velocity": 0, "until": 101.46662487500241}, {"on": false, "note": 55, "velocity": 0, "until": 101.46662487500241}, {"on": true, "note": 55, "velocity": 57, "until": 101.46662487500241}, {"on": true, "note": 64, "velocity": 57, "until": 102.83050854166905}, {"on": false, "note": 64, "velocity": 0, "until": 102.83050854166905}, {"on": false, "note": 55, "velocity": 0, "until": 109.43563566666906}, {"on": true, "note": 74, "velocity": 121, "until": 109.57077075000238}, {"on": false, "note": 74, "velocity": 0, "until": 109.57077075000238}, {"on": true, "note": 72, "velocity": 106, "until": 109.97617600000238}, {"on": false, "note": 72, "velocity": 0, "until": 109.97617600000238}, {"on": true, "note": 71, "velocity": 106, "until": 110.4523663333357}, {"on": false, "note": 71, "velocity": 0, "until": 110.4523663333357}, {"on": true, "note": 72, "velocity": 106, "until": 110.92855666666904}, {"on": false, "note": 72, "velocity": 0, "until": 110.92855666666904}, {"on": true, "note": 76, "velocity": 106, "until": 111.38310200000237}, {"on": false, "note": 76, "velocity": 0, "until": 111.38310200000237}, {"on": true, "note": 74, "velocity": 106, "until": 111.8376473333357}, {"on": false, "note": 74, "velocity": 0, "until": 111.8376473333357}, {"on": true, "note": 71, "velocity": 106, "until": 112.29219266666902}, {"on": false, "note": 71, "velocity": 0, "until": 112.29219266666902}, {"on": true, "note": 74, "velocity": 106, "until": 112.75730866666902}, {"on": false, "note": 74, "velocity": 0, "until": 112.75730866666902}, {"on": true, "note": 72, "velocity": 106, "until": 113.22242466666901}, {"on": false, "note": 72, "velocity": 0, "until": 113.22242466666901}, {"on": true, "note": 69, "velocity": 106, "until": 113.72242466666901}, {"on": false, "note": 69, "velocity": 0, "until": 113.72242466666901}, {"on": true, "note": 67, "velocity": 106, "until": 115.74869033333569}, {"on": false, "note": 67, "velocity": 0, "until": 115.74869033333569}, {"on": true, "note": 64, "velocity": 106, "until": 116.23649500000235}, {"on": false, "note": 64, "velocity": 0, "until": 116.23649500000235}, {"on": true, "note": 60, "velocity": 106, "until": 116.79205033333568}, {"on": false, "note": 60, "velocity": 0, "until": 116.79205033333568}, {"on": true, "note": 67, "velocity": 106, "until": 117.30929158333565}, {"on": false, "note": 67, "velocity": 0, "until": 117.30929158333565}, {"on": true, "note": 65, "velocity": 106, "until": 118.05929158333564}, {"on": false, "note": 65, "velocity": 0, "until": 118.05929158333564}, {"on": true, "note": 62, "velocity": 106, "until": 118.52804158333564}, {"on": false, "note": 62, "velocity": 0, "until": 126.76139808333564}, {"on": true, "note": 67, "velocity": 106, "until": 126.86343850000232}, {"on": false, "note": 67, "velocity": 0, "until": 126.88384658333565}, {"on": true, "note": 69, "velocity": 106, "until": 126.98588700000234}, {"on": false, "note": 69, "velocity": 0, "until": 127.00629508333567}, {"on": true, "note": 71, "velocity": 106, "until": 127.10833550000235}, {"on": false, "note": 71, "velocity": 0, "until": 127.12874358333569}, {"on": true, "note": 72, "velocity": 106, "until": 127.22489733333565}, {"on": false, "note": 72, "velocity": 0, "until": 127.24412808333564}, {"on": true, "note": 74, "velocity": 106, "until": 127.3402818333356}, {"on": false, "note": 74, "velocity": 0, "until": 127.35951258333559}, {"on": true, "note": 76, "velocity": 106, "until": 127.45566633333556}, {"on": false, "note": 76, "velocity": 0, "until": 127.47489708333555}, {"on": true, "note": 77, "velocity": 106, "until": 127.57105083333552}, {"on": false, "note": 77, "velocity": 0, "until": 127.5902815833355}, {"on": true, "note": 79, "velocity": 106, "until": 128.06987154166885}, {"on": false, "note": 79, "velocity": 0, "until": 128.0800755833355}, {"on": true, "note": 78, "velocity": 106, "until": 128.31084458333552}, {"on": false, "note": 78, "velocity": 0, "until": 128.31084458333552}, {"on": true, "note": 79, "velocity": 106, "until": 128.42622908333553}, {"on": false, "note": 79, "velocity": 0, "until": 128.42622908333553}, {"on": true, "note": 81, "velocity": 106, "until": 128.54161358333556}, {"on": false, "note": 81, "velocity": 0, "until": 128.54161358333556}, {"on": true, "note": 79, "velocity": 106, "until": 129.03140758333555}, {"on": false, "note": 79, "velocity": 0, "until": 129.03140758333555}, {"on": true, "note": 79, "velocity": 106, "until": 129.14679208333555}, {"on": false, "note": 79, "velocity": 0, "until": 129.14679208333555}, {"on": true, "note": 81, "velocity": 106, "until": 129.26217658333556}, {"on": false, "note": 81, "velocity": 0, "until": 129.26217658333556}, {"on": true, "note": 83, "velocity": 106, "until": 129.37756108333556}, {"on": false, "note": 83, "velocity": 0, "until": 129.37756108333556}, {"on": true, "note": 84, "velocity": 106, "until": 129.49294558333557}, {"on": false, "note": 84, "velocity": 0, "until": 129.49294558333557}, {"on": true, "note": 88, "velocity": 106, "until": 129.53294558333556}, {"on": false, "note": 88, "velocity": 0, "until": 129.53294558333556}, {"on": true, "note": 86, "velocity": 106, "until": 129.63294558333558}, {"on": false, "note": 86, "velocity": 0, "until": 129.73294558333558}, {"on": true, "note": 85, "velocity": 106, "until": 129.85294558333558}, {"on": false, "note": 85, "velocity": 0, "until": 129.9729455833356}, {"on": true, "note": 88, "velocity": 106, "until": 130.01294558333558}, {"on": false, "note": 88, "velocity": 0, "until": 130.01294558333558}, {"on": true, "note": 86, "velocity": 106, "until": 130.1129455833356}, {"on": false, "note": 86, "velocity": 0, "until": 130.2129455833356}, {"on": true, "note": 85, "velocity": 106, "until": 130.3329455833356}, {"on": false, "note": 85, "velocity": 0, "until": 130.4529455833356}, {"on": true, "note": 86, "velocity": 106, "until": 130.9329455833356}, {"on": false, "note": 86, "velocity": 0, "until": 130.9329455833356}, {"on": true, "note": 79, "velocity": 106, "until": 131.1637145833355}, {"on": false, "note": 79, "velocity": 0, "until": 131.39448358333536}, {"on": true, "note": 79, "velocity": 106, "until": 131.88427758333535}, {"on": false, "note": 79, "velocity": 0, "until": 131.88427758333535}, {"on": true, "note": 78, "velocity": 106, "until": 132.11504658333536}, {"on": false, "note": 78, "velocity": 0, "until": 132.11504658333536}, {"on": true, "note": 79, "velocity": 106, "until": 132.23043108333536}, {"on": false, "note": 79, "velocity": 0, "until": 132.23043108333536}, {"on": true, "note": 81, "velocity": 106, "until": 132.34581558333537}, {"on": false, "note": 81, "velocity": 0, "until": 132.34581558333537}, {"on": true, "note": 79, "velocity": 106, "until": 132.95099408333536}, {"on": false, "note": 79, "velocity": 0, "until": 132.95099408333536}, {"on": true, "note": 81, "velocity": 106, "until": 133.06637858333536}, {"on": false, "note": 81, "velocity": 0, "until": 133.06637858333536}, {"on": true, "note": 83, "velocity": 106, "until": 133.18176308333537}, {"on": false, "note": 83, "velocity": 0, "until": 133.18176308333537}, {"on": true, "note": 84, "velocity": 106, "until": 133.29714758333537}, {"on": false, "note": 84, "velocity": 0, "until": 133.29714758333537}, {"on": true, "note": 88, "velocity": 106, "until": 133.4152575833354}, {"on": false, "note": 88, "velocity": 0, "until": 133.53336758333543}, {"on": true, "note": 87, "velocity": 106, "until": 133.65147758333546}, {"on": false, "note": 87, "velocity": 0, "until": 133.7695875833355}, {"on": true, "note": 88, "velocity": 106, "until": 133.88769758333552}, {"on": false, "note": 88, "velocity": 0, "until": 134.00580758333555}, {"on": true, "note": 87, "velocity": 106, "until": 134.12391758333558}, {"on": false, "note": 87, "velocity": 0, "until": 134.2420275833356}, {"on": true, "note": 88, "velocity": 106, "until": 134.714467583336}, {"on": false, "note": 88, "velocity": 0, "until": 136.174345583336}, {"on": true, "note": 69, "velocity": 106, "until": 136.235569833336}, {"on": false, "note": 69, "velocity": 0, "until": 136.296794083336}, {"on": true, "note": 71, "velocity": 106, "until": 136.35801833333602}, {"on": false, "note": 71, "velocity": 0, "until": 136.41924258333603}, {"on": true, "note": 73, "velocity": 106, "until": 136.48046683333604}, {"on": false, "note": 73, "velocity": 0, "until": 136.54169108333605}, {"on": true, "note": 74, "velocity": 106, "until": 136.60291533333606}, {"on": false, "note": 74, "velocity": 0, "until": 136.66413958333607}, {"on": true, "note": 76, "velocity": 106, "until": 136.7218318333361}, {"on": false, "note": 76, "velocity": 0, "until": 136.7795240833361}, {"on": true, "note": 77, "velocity": 106, "until": 136.8372163333361}, {"on": false, "note": 77, "velocity": 0, "until": 136.8949085833361}, {"on": true, "note": 79, "velocity": 106, "until": 136.95260083333613}, {"on": false, "note": 79, "velocity": 0, "until": 137.01029308333614}, {"on": true, "note": 81, "velocity": 106, "until": 137.06798533333614}, {"on": false, "note": 81, "velocity": 0, "until": 137.12567758333614}, {"on": true, "note": 79, "velocity": 106, "until": 137.37057458333615}, {"on": false, "note": 79, "velocity": 0, "until": 138.07700958333615}, {"on": true, "note": 67, "velocity": 106, "until": 138.13823383333616}, {"on": false, "note": 67, "velocity": 0, "until": 138.19945808333617}, {"on": true, "note": 69, "velocity": 106, "until": 138.26068233333618}, {"on": false, "note": 69, "velocity": 0, "until": 138.3219065833362}, {"on": true, "note": 71, "velocity": 106, "until": 138.3831308333362}, {"on": false, "note": 71, "velocity": 0, "until": 138.4443550833362}, {"on": true, "note": 72, "velocity": 106, "until": 138.50557933333621}, {"on": false, "note": 72, "velocity": 0, "until": 138.56680358333622}, {"on": true, "note": 74, "velocity": 106, "until": 138.62449583333625}, {"on": false, "note": 74, "velocity": 0, "until": 138.68218808333629}, {"on": true, "note": 76, "velocity": 106, "until": 138.7398803333363}, {"on": false, "note": 76, "velocity": 0, "until": 138.79757258333632}, {"on": true, "note": 77, "velocity": 106, "until": 138.85526483333635}, {"on": false, "note": 77, "velocity": 0, "until": 138.91295708333638}, {"on": true, "note": 79, "velocity": 106, "until": 138.97064933333638}, {"on": false, "note": 79, "velocity": 0, "until": 139.02834158333638}, {"on": true, "note": 71, "velocity": 106, "until": 139.15079008333637}, {"on": false, "note": 71, "velocity": 0, "until": 139.2732385833364}, {"on": true, "note": 77, "velocity": 106, "until": 139.74890458333647}, {"on": false, "note": 77, "velocity": 0, "until": 139.74890458333647}, {"on": true, "note": 76, "velocity": 106, "until": 139.86428908333647}, {"on": false, "note": 76, "velocity": 0, "until": 139.86428908333647}, {"on": true, "note": 72, "velocity": 106, "until": 139.9604428333365}, {"on": false, "note": 72, "velocity": 0, "until": 139.97967358333648}, {"on": true, "note": 71, "velocity": 106, "until": 140.10212208333647}, {"on": false, "note": 71, "velocity": 0, "until": 140.2245705833365}, {"on": true, "note": 77, "velocity": 106, "until": 140.70023658333656}, {"on": false, "note": 77, "velocity": 0, "until": 140.70023658333656}, {"on": true, "note": 76, "velocity": 106, "until": 140.81562108333657}, {"on": false, "note": 76, "velocity": 0, "until": 140.81562108333657}, {"on": true, "note": 72, "velocity": 106, "until": 140.91177483333658}, {"on": false, "note": 72, "velocity": 0, "until": 140.93100558333657}, {"on": true, "note": 71, "velocity": 106, "until": 141.05345408333656}, {"on": false, "note": 71, "velocity": 0, "until": 141.17590258333658}, {"on": true, "note": 77, "velocity": 106, "until": 141.65156858333665}, {"on": false, "note": 77, "velocity": 0, "until": 141.65156858333665}, {"on": true, "note": 76, "velocity": 106, "until": 141.76695308333666}, {"on": false, "note": 76, "velocity": 0, "until": 141.76695308333666}, {"on": true, "note": 72, "velocity": 106, "until": 141.86310683333667}, {"on": false, "note": 72, "velocity": 0, "until": 141.88233758333666}, {"on": true, "note": 79, "velocity": 106, "until": 141.88233758333666}, {"on": true, "note": 71, "velocity": 106, "until": 142.1272345833367}, {"on": false, "note": 71, "velocity": 0, "until": 142.1272345833367}, {"on": false, "note": 79, "velocity": 0, "until": 146.4687205833367}, {"on": true, "note": 76, "velocity": 106, "until": 146.4687205833367}, {"on": true, "note": 70, "velocity": 106, "until": 146.5841050833367}, {"on": false, "note": 70, "velocity": 0, "until": 146.5841050833367}, {"on": false, "note": 76, "velocity": 0, "until": 146.69948958333674}, {"on": true, "note": 77, "velocity": 106, "until": 146.69948958333674}, {"on": true, "note": 69, "velocity": 106, "until": 146.81948958333678}, {"on": false, "note": 69, "velocity": 0, "until": 146.81948958333678}, {"on": false, "note": 77, "velocity": 0, "until": 146.9394895833368}, {"on": true, "note": 76, "velocity": 106, "until": 146.9394895833368}, {"on": true, "note": 70, "velocity": 106, "until": 147.05948958333684}, {"on": false, "note": 70, "velocity": 0, "until": 147.05948958333684}, {"on": false, "note": 76, "velocity": 0, "until": 147.17948958333687}, {"on": true, "note": 77, "velocity": 106, "until": 147.17948958333687}, {"on": true, "note": 69, "velocity": 106, "until": 147.2994895833369}, {"on": false, "note": 69, "velocity": 0, "until": 147.2994895833369}, {"on": false, "note": 77, "velocity": 0, "until": 147.41948958333694}, {"on": true, "note": 76, "velocity": 106, "until": 147.41948958333694}, {"on": true, "note": 70, "velocity": 106, "until": 147.53948958333697}, {"on": false, "note": 70, "velocity": 0, "until": 147.53948958333697}, {"on": false, "note": 76, "velocity": 0, "until": 147.659489583337}, {"on": true, "note": 77, "velocity": 106, "until": 147.659489583337}, {"on": true, "note": 69, "velocity": 106, "until": 148.1394895833373}, {"on": false, "note": 69, "velocity": 0, "until": 148.1394895833373}, {"on": false, "note": 77, "velocity": 0, "until": 150.25472058333747}, {"on": true, "note": 86, "velocity": 106, "until": 150.37010508333748}, {"on": false, "note": 86, "velocity": 0, "until": 150.48548958333748}, {"on": true, "note": 88, "velocity": 106, "until": 150.6035995833375}, {"on": false, "note": 88, "velocity": 0, "until": 150.72170958333754}, {"on": true, "note": 86, "velocity": 106, "until": 150.83981958333757}, {"on": false, "note": 86, "velocity": 0, "until": 150.9579295833376}, {"on": true, "note": 88, "velocity": 106, "until": 151.07603958333763}, {"on": false, "note": 88, "velocity": 0, "until": 151.19414958333766}, {"on": true, "note": 86, "velocity": 106, "until": 151.3122595833377}, {"on": false, "note": 86, "velocity": 0, "until": 151.43036958333772}, {"on": true, "note": 88, "velocity": 106, "until": 151.66658958333775}, {"on": false, "note": 88, "velocity": 0, "until": 151.90280958333778}, {"on": true, "note": 86, "velocity": 106, "until": 151.90280958333778}, {"on": true, "note": 74, "velocity": 106, "until": 152.34511683333778}, {"on": false, "note": 74, "velocity": 0, "until": 152.34511683333778}, {"on": false, "note": 86, "velocity": 0, "until": 152.3643475833378}, {"on": true, "note": 85, "velocity": 106, "until": 152.3643475833378}, {"on": true, "note": 73, "velocity": 106, "until": 152.8337335000045}, {"on": false, "note": 73, "velocity": 0, "until": 152.8337335000045}, {"on": false, "note": 85, "velocity": 0, "until": 152.85414158333785}, {"on": true, "note": 84, "velocity": 106, "until": 152.85414158333785}, {"on": true, "note": 74, "velocity": 106, "until": 153.29644883333785}, {"on": false, "note": 74, "velocity": 0, "until": 153.29644883333785}, {"on": false, "note": 84, "velocity": 0, "until": 153.31567958333787}, {"on": true, "note": 83, "velocity": 106, "until": 153.31567958333787}, {"on": true, "note": 74, "velocity": 106, "until": 153.78506550000458}, {"on": false, "note": 74, "velocity": 0, "until": 153.78506550000458}, {"on": false, "note": 83, "velocity": 0, "until": 153.8054735833379}, {"on": true, "note": 82, "velocity": 106, "until": 153.8054735833379}, {"on": true, "note": 74, "velocity": 106, "until": 154.2477808333379}, {"on": false, "note": 74, "velocity": 0, "until": 154.2477808333379}, {"on": false, "note": 82, "velocity": 0, "until": 154.26701158333793}, {"on": true, "note": 80, "velocity": 106, "until": 154.36905200000461}, {"on": false, "note": 80, "velocity": 0, "until": 154.38946008333795}, {"on": true, "note": 80, "velocity": 106, "until": 154.49150050000463}, {"on": false, "note": 80, "velocity": 0, "until": 154.51190858333797}, {"on": true, "note": 80, "velocity": 106, "until": 154.61394900000465}, {"on": false, "note": 80, "velocity": 0, "until": 154.634357083338}, {"on": true, "note": 80, "velocity": 106, "until": 154.73639750000467}, {"on": false, "note": 80, "velocity": 0, "until": 154.756805583338}, {"on": true, "note": 80, "velocity": 106, "until": 154.85295933333802}, {"on": false, "note": 80, "velocity": 0, "until": 154.872190083338}, {"on": true, "note": 80, "velocity": 106, "until": 154.968343833338}, {"on": false, "note": 80, "velocity": 0, "until": 154.987574583338}, {"on": true, "note": 79, "velocity": 106, "until": 155.083728333338}, {"on": false, "note": 79, "velocity": 0, "until": 155.102959083338}, {"on": true, "note": 79, "velocity": 106, "until": 155.19911283333798}, {"on": false, "note": 79, "velocity": 0, "until": 155.21834358333797}, {"on": true, "note": 80, "velocity": 106, "until": 155.32038400000465}, {"on": false, "note": 80, "velocity": 0, "until": 155.340792083338}, {"on": true, "note": 80, "velocity": 106, "until": 155.44283250000467}, {"on": false, "note": 80, "velocity": 0, "until": 155.463240583338}, {"on": true, "note": 80, "velocity": 106, "until": 155.5652810000047}, {"on": false, "note": 80, "velocity": 0, "until": 155.58568908333802}, {"on": true, "note": 80, "velocity": 106, "until": 155.6877295000047}, {"on": false, "note": 80, "velocity": 0, "until": 155.70813758333804}, {"on": true, "note": 80, "velocity": 106, "until": 155.8042913333381}, {"on": false, "note": 80, "velocity": 0, "until": 155.82352208333813}, {"on": true, "note": 80, "velocity": 106, "until": 155.91967583333818}, {"on": false, "note": 80, "velocity": 0, "until": 155.93890658333817}, {"on": true, "note": 79, "velocity": 106, "until": 156.03506033333818}, {"on": false, "note": 79, "velocity": 0, "until": 156.05429108333817}, {"on": true, "note": 79, "velocity": 106, "until": 156.15044483333816}, {"on": false, "note": 79, "velocity": 0, "until": 156.16967558333815}, {"on": true, "note": 80, "velocity": 106, "until": 156.27171600000483}, {"on": false, "note": 80, "velocity": 0, "until": 156.29212408333817}, {"on": true, "note": 80, "velocity": 106, "until": 156.39416450000485}, {"on": false, "note": 80, "velocity": 0, "until": 156.41457258333818}, {"on": true, "note": 79, "velocity": 106, "until": 156.51661300000487}, {"on": false, "note": 79, "velocity": 0, "until": 156.5370210833382}, {"on": true, "note": 79, "velocity": 106, "until": 156.63906150000489}, {"on": false, "note": 79, "velocity": 0, "until": 156.65946958333822}, {"on": true, "note": 80, "velocity": 106, "until": 156.75562333333826}, {"on": false, "note": 80, "velocity": 0, "until": 156.77485408333828}, {"on": true, "note": 80, "velocity": 106, "until": 156.87100783333827}, {"on": false, "note": 80, "velocity": 0, "until": 156.89023858333826}, {"on": true, "note": 79, "velocity": 106, "until": 156.98639233333827}, {"on": false, "note": 79, "velocity": 0, "until": 157.00562308333826}, {"on": true, "note": 79, "velocity": 106, "until": 157.10177683333825}, {"on": false, "note": 79, "velocity": 0, "until": 157.12100758333827}, {"on": true, "note": 80, "velocity": 106, "until": 157.22304800000495}, {"on": false, "note": 80, "velocity": 0, "until": 157.2434560833383}, {"on": true, "note": 80, "velocity": 106, "until": 157.34549650000497}, {"on": false, "note": 80, "velocity": 0, "until": 157.3659045833383}, {"on": true, "note": 79, "velocity": 106, "until": 157.467945000005}, {"on": false, "note": 79, "velocity": 0, "until": 157.48835308333832}, {"on": true, "note": 79, "velocity": 106, "until": 157.590393500005}, {"on": false, "note": 79, "velocity": 0, "until": 157.61080158333834}, {"on": true, "note": 80, "velocity": 106, "until": 157.70695533333839}, {"on": false, "note": 80, "velocity": 0, "until": 157.7261860833384}, {"on": true, "note": 80, "velocity": 106, "until": 157.8223398333384}, {"on": false, "note": 80, "velocity": 0, "until": 157.84157058333838}, {"on": true, "note": 79, "velocity": 106, "until": 157.9377243333384}, {"on": false, "note": 79, "velocity": 0, "until": 157.95695508333839}, {"on": true, "note": 79, "velocity": 106, "until": 158.05310883333837}, {"on": false, "note": 79, "velocity": 0, "until": 158.0723395833384}, {"on": true, "note": 85, "velocity": 106, "until": 158.17438000000507}, {"on": false, "note": 85, "velocity": 0, "until": 158.1947880833384}, {"on": true, "note": 85, "velocity": 106, "until": 158.2968285000051}, {"on": false, "note": 85, "velocity": 0, "until": 158.31723658333843}, {"on": true, "note": 85, "velocity": 106, "until": 158.4192770000051}, {"on": false, "note": 85, "velocity": 0, "until": 158.43968508333845}, {"on": true, "note": 85, "velocity": 106, "until": 158.54172550000513}, {"on": false, "note": 85, "velocity": 0, "until": 158.56213358333846}, {"on": true, "note": 85, "velocity": 106, "until": 158.65828733333854}, {"on": false, "note": 85, "velocity": 0, "until": 158.67751808333855}, {"on": true, "note": 85, "velocity": 106, "until": 158.7736718333386}, {"on": false, "note": 85, "velocity": 0, "until": 158.7929025833386}, {"on": true, "note": 86, "velocity": 106, "until": 158.8890563333386}, {"on": false, "note": 86, "velocity": 0, "until": 158.9082870833386}, {"on": true, "note": 86, "velocity": 106, "until": 159.00444083333858}, {"on": false, "note": 86, "velocity": 0, "until": 159.02367158333857}, {"on": true, "note": 85, "velocity": 106, "until": 159.12571200000525}, {"on": false, "note": 85, "velocity": 0, "until": 159.1461200833386}, {"on": true, "note": 85, "velocity": 106, "until": 159.24816050000527}, {"on": false, "note": 85, "velocity": 0, "until": 159.2685685833386}, {"on": true, "note": 85, "velocity": 106, "until": 159.3706090000053}, {"on": false, "note": 85, "velocity": 0, "until": 159.39101708333862}, {"on": true, "note": 85, "velocity": 106, "until": 159.4930575000053}, {"on": false, "note": 85, "velocity": 0, "until": 159.51346558333864}, {"on": true, "note": 85, "velocity": 106, "until": 159.6096193333387}, {"on": false, "note": 85, "velocity": 0, "until": 159.62885008333873}, {"on": true, "note": 85, "velocity": 106, "until": 159.72500383333877}, {"on": false, "note": 85, "velocity": 0, "until": 159.74423458333877}, {"on": true, "note": 86, "velocity": 106, "until": 159.84038833333878}, {"on": false, "note": 86, "velocity": 0, "until": 159.85961908333877}, {"on": true, "note": 86, "velocity": 106, "until": 159.95577283333876}, {"on": false, "note": 86, "velocity": 0, "until": 159.97500358333875}, {"on": true, "note": 85, "velocity": 106, "until": 160.07704400000543}, {"on": false, "note": 85, "velocity": 0, "until": 160.09745208333877}, {"on": true, "note": 85, "velocity": 106, "until": 160.19949250000545}, {"on": false, "note": 85, "velocity": 0, "until": 160.21990058333878}, {"on": true, "note": 86, "velocity": 106, "until": 160.32194100000547}, {"on": false, "note": 86, "velocity": 0, "until": 160.3423490833388}, {"on": true, "note": 86, "velocity": 106, "until": 160.44438950000546}, {"on": false, "note": 86, "velocity": 0, "until": 160.4647975833388}, {"on": true, "note": 85, "velocity": 106, "until": 160.56095133333883}, {"on": false, "note": 85, "velocity": 0, "until": 160.58018208333885}, {"on": true, "note": 85, "velocity": 106, "until": 160.67633583333887}, {"on": false, "note": 85, "velocity": 0, "until": 160.69556658333886}, {"on": true, "note": 86, "velocity": 106, "until": 160.79172033333887}, {"on": false, "note": 86, "velocity": 0, "until": 160.8109510833389}, {"on": true, "note": 86, "velocity": 106, "until": 160.9071048333389}, {"on": false, "note": 86, "velocity": 0, "until": 160.92633558333893}, {"on": true, "note": 85, "velocity": 106, "until": 161.0283760000056}, {"on": false, "note": 85, "velocity": 0, "until": 161.04878408333894}, {"on": true, "note": 85, "velocity": 106, "until": 161.15082450000563}, {"on": false, "note": 85, "velocity": 0, "until": 161.17123258333896}, {"on": true, "note": 86, "velocity": 106, "until": 161.27327300000564}, {"on": false, "note": 86, "velocity": 0, "until": 161.29368108333898}, {"on": true, "note": 86, "velocity": 106, "until": 161.39572150000564}, {"on": false, "note": 86, "velocity": 0, "until": 161.41612958333897}, {"on": true, "note": 85, "velocity": 106, "until": 161.512283333339}, {"on": false, "note": 85, "velocity": 0, "until": 161.53151408333903}, {"on": true, "note": 85, "velocity": 106, "until": 161.62766783333902}, {"on": false, "note": 85, "velocity": 0, "until": 161.646898583339}, {"on": true, "note": 85, "velocity": 106, "until": 161.74305233333902}, {"on": false, "note": 85, "velocity": 0, "until": 161.762283083339}, {"on": true, "note": 85, "velocity": 106, "until": 161.85843683333903}, {"on": false, "note": 85, "velocity": 0, "until": 161.87766758333902}, {"on": true, "note": 86, "velocity": 106, "until": 162.12256458333906}, {"on": false, "note": 86, "velocity": 0, "until": 162.12256458333906}, {"on": true, "note": 62, "velocity": 106, "until": 162.24501308333907}, {"on": false, "note": 62, "velocity": 0, "until": 162.3674615833391}, {"on": true, "note": 74, "velocity": 106, "until": 163.08886358333902}, {"on": false, "note": 74, "velocity": 0, "until": 163.08886358333902}, {"on": true, "note": 62, "velocity": 106, "until": 163.21334458333894}, {"on": false, "note": 62, "velocity": 0, "until": 163.33782558333888}, {"on": true, "note": 74, "velocity": 86, "until": 164.06591158333885}, {"on": false, "note": 74, "velocity": 0, "until": 164.31591158333885}, {"on": true, "note": 62, "velocity": 86, "until": 165.53648858333892}, {"on": false, "note": 62, "velocity": 0, "until": 165.53648858333892}, {"on": true, "note": 64, "velocity": 86, "until": 165.65994508333893}, {"on": false, "note": 64, "velocity": 0, "until": 165.65994508333893}, {"on": true, "note": 66, "velocity": 86, "until": 165.7834015833389}, {"on": false, "note": 66, "velocity": 0, "until": 165.7834015833389}, {"on": true, "note": 67, "velocity": 106, "until": 165.8461630833389}, {"on": false, "note": 67, "velocity": 0, "until": 165.9089245833389}, {"on": true, "note": 62, "velocity": 106, "until": 165.97168608333888}, {"on": false, "note": 62, "velocity": 0, "until": 166.03444758333887}, {"on": true, "note": 62, "velocity": 106, "until": 166.09720908333884}, {"on": false, "note": 62, "velocity": 0, "until": 166.15997058333883}, {"on": true, "note": 62, "velocity": 106, "until": 166.2227320833388}, {"on": false, "note": 62, "velocity": 0, "until": 166.2854935833388}, {"on": true, "note": 62, "velocity": 106, "until": 166.5072673333388}, {"on": false, "note": 62, "velocity": 0, "until": 166.5274285833388}, {"on": true, "note": 62, "velocity": 106, "until": 166.7492023333388}, {"on": false, "note": 62, "velocity": 0, "until": 166.7693635833388}, {"on": true, "note": 62, "velocity": 106, "until": 166.83212508333878}, {"on": false, "note": 62, "velocity": 0, "until": 166.89488658333877}, {"on": true, "note": 62, "velocity": 106, "until": 166.95764808333877}, {"on": false, "note": 62, "velocity": 0, "until": 167.02040958333876}, {"on": true, "note": 62, "velocity": 106, "until": 167.08317108333873}, {"on": false, "note": 62, "velocity": 0, "until": 167.14593258333872}, {"on": true, "note": 62, "velocity": 106, "until": 167.20869408333868}, {"on": false, "note": 62, "velocity": 0, "until": 167.27145558333868}, {"on": true, "note": 62, "velocity": 106, "until": 167.4932293333387}, {"on": false, "note": 62, "velocity": 0, "until": 167.5133905833387}, {"on": true, "note": 63, "velocity": 106, "until": 167.73516433333867}, {"on": false, "note": 63, "velocity": 0, "until": 167.75532558333867}, {"on": true, "note": 64, "velocity": 106, "until": 167.81808708333867}, {"on": false, "note": 64, "velocity": 0, "until": 167.88084858333866}, {"on": true, "note": 64, "velocity": 106, "until": 167.94361008333865}, {"on": false, "note": 64, "velocity": 0, "until": 168.00637158333865}, {"on": true, "note": 64, "velocity": 106, "until": 168.0691330833386}, {"on": false, "note": 64, "velocity": 0, "until": 168.1318945833386}, {"on": true, "note": 64, "velocity": 106, "until": 168.19465608333857}, {"on": false, "note": 64, "velocity": 0, "until": 168.25741758333857}, {"on": true, "note": 64, "velocity": 106, "until": 168.47919133333858}, {"on": false, "note": 64, "velocity": 0, "until": 168.49935258333858}, {"on": true, "note": 64, "velocity": 106, "until": 168.72112633333856}, {"on": false, "note": 64, "velocity": 0, "until": 168.74128758333856}, {"on": true, "note": 64, "velocity": 106, "until": 168.80404908333855}, {"on": false, "note": 64, "velocity": 0, "until": 168.86681058333855}, {"on": true, "note": 64, "velocity": 106, "until": 168.92957208333854}, {"on": false, "note": 64, "velocity": 0, "until": 168.99233358333854}, {"on": true, "note": 64, "velocity": 106, "until": 169.0550950833385}, {"on": false, "note": 64, "velocity": 0, "until": 169.1178565833385}, {"on": true, "note": 64, "velocity": 106, "until": 169.18061808333846}, {"on": false, "note": 64, "velocity": 0, "until": 169.24337958333845}, {"on": true, "note": 64, "velocity": 106, "until": 169.46515333333846}, {"on": false, "note": 64, "velocity": 0, "until": 169.48531458333846}, {"on": true, "note": 64, "velocity": 106, "until": 169.64055620833844}, {"on": false, "note": 64, "velocity": 0, "until": 169.72724958333845}, {"on": true, "note": 62, "velocity": 106, "until": 169.79001108333836}, {"on": false, "note": 62, "velocity": 0, "until": 169.85277258333824}, {"on": true, "note": 62, "velocity": 106, "until": 169.91553408333817}, {"on": false, "note": 62, "velocity": 0, "until": 169.97829558333817}, {"on": true, "note": 62, "velocity": 106, "until": 170.0410570833381}, {"on": false, "note": 62, "velocity": 0, "until": 170.1038185833381}, {"on": true, "note": 62, "velocity": 106, "until": 170.16658008333798}, {"on": false, "note": 62, "velocity": 0, "until": 170.22934158333794}, {"on": true, "note": 62, "velocity": 106, "until": 170.45111533333798}, {"on": false, "note": 62, "velocity": 0, "until": 170.47127658333798}, {"on": true, "note": 62, "velocity": 106, "until": 170.69305033333802}, {"on": false, "note": 62, "velocity": 0, "until": 170.71321158333802}, {"on": true, "note": 62, "velocity": 106, "until": 170.83873458333798}, {"on": false, "note": 62, "velocity": 0, "until": 170.96425758333794}, {"on": true, "note": 66, "velocity": 91, "until": 171.0897805833379}, {"on": false, "note": 66, "velocity": 0, "until": 171.21530358333786}, {"on": true, "note": 67, "velocity": 91, "until": 171.33627108333786}, {"on": false, "note": 67, "velocity": 0, "until": 171.45723858333787}, {"on": true, "note": 62, "velocity": 91, "until": 171.57820608333788}, {"on": false, "note": 62, "velocity": 0, "until": 171.69917358333788}, {"on": true, "note": 62, "velocity": 106, "until": 171.76193508333785}, {"on": false, "note": 62, "velocity": 0, "until": 171.82469658333775}, {"on": true, "note": 62, "velocity": 106, "until": 171.8874580833377}, {"on": false, "note": 62, "velocity": 0, "until": 171.95021958333768}, {"on": true, "note": 62, "velocity": 106, "until": 172.0129810833377}, {"on": false, "note": 62, "velocity": 0, "until": 172.07574258333764}, {"on": true, "note": 62, "velocity": 106, "until": 172.1385040833376}, {"on": false, "note": 62, "velocity": 0, "until": 172.20126558333757}, {"on": true, "note": 62, "velocity": 106, "until": 172.4230393333376}, {"on": false, "note": 62, "velocity": 0, "until": 172.4432005833376}, {"on": true, "note": 62, "velocity": 106, "until": 172.66497433333765}, {"on": false, "note": 62, "velocity": 0, "until": 172.68513558333765}, {"on": true, "note": 62, "velocity": 106, "until": 172.8106585833376}, {"on": false, "note": 62, "velocity": 0, "until": 172.93618158333757}, {"on": true, "note": 66, "velocity": 91, "until": 173.06170458333753}, {"on": false, "note": 66, "velocity": 0, "until": 173.1872275833375}, {"on": true, "note": 67, "velocity": 91, "until": 173.42916258333753}, {"on": false, "note": 67, "velocity": 0, "until": 173.71218058333753}, {"on": true, "note": 62, "velocity": 106, "until": 173.77628308333755}, {"on": false, "note": 62, "velocity": 0, "until": 173.84038558333756}, {"on": true, "note": 62, "velocity": 106, "until": 173.90448808333758}, {"on": false, "note": 62, "velocity": 0, "until": 173.9685905833376}, {"on": true, "note": 62, "velocity": 106, "until": 174.03269308333762}, {"on": false, "note": 62, "velocity": 0, "until": 174.09679558333764}, {"on": true, "note": 62, "velocity": 106, "until": 174.16089808333766}, {"on": false, "note": 62, "velocity": 0, "until": 174.22500058333767}, {"on": true, "note": 62, "velocity": 106, "until": 174.44948950000438}, {"on": false, "note": 62, "velocity": 0, "until": 174.4698975833377}, {"on": true, "note": 62, "velocity": 106, "until": 174.6943865000044}, {"on": false, "note": 62, "velocity": 0, "until": 174.71479458333775}, {"on": true, "note": 62, "velocity": 106, "until": 174.7788970833378}, {"on": false, "note": 62, "velocity": 0, "until": 174.84299958333784}, {"on": true, "note": 62, "velocity": 106, "until": 174.9071020833379}, {"on": false, "note": 62, "velocity": 0, "until": 174.97120458333794}, {"on": true, "note": 62, "velocity": 106, "until": 175.03530708333798}, {"on": false, "note": 62, "velocity": 0, "until": 175.09940958333803}, {"on": true, "note": 62, "velocity": 106, "until": 175.16351208333808}, {"on": false, "note": 62, "velocity": 0, "until": 175.22761458333812}, {"on": true, "note": 62, "velocity": 106, "until": 175.45210350000482}, {"on": false, "note": 62, "velocity": 0, "until": 175.47251158333816}, {"on": true, "note": 62, "velocity": 106, "until": 175.69700050000486}, {"on": false, "note": 62, "velocity": 0, "until": 175.7174085833382}, {"on": true, "note": 63, "velocity": 106, "until": 175.78151108333824}, {"on": false, "note": 63, "velocity": 0, "until": 175.8456135833383}, {"on": true, "note": 63, "velocity": 106, "until": 175.90971608333834}, {"on": false, "note": 63, "velocity": 0, "until": 175.97381858333839}, {"on": true, "note": 63, "velocity": 106, "until": 176.03792108333843}, {"on": false, "note": 63, "velocity": 0, "until": 176.10202358333848}, {"on": true, "note": 63, "velocity": 106, "until": 176.16612608333853}, {"on": false, "note": 63, "velocity": 0, "until": 176.23022858333857}, {"on": true, "note": 63, "velocity": 106, "until": 176.45471750000527}, {"on": false, "note": 63, "velocity": 0, "until": 176.4751255833386}, {"on": true, "note": 63, "velocity": 106, "until": 176.6996145000053}, {"on": false, "note": 63, "velocity": 0, "until": 176.72002258333865}, {"on": true, "note": 63, "velocity": 106, "until": 176.78412508333867}, {"on": false, "note": 63, "velocity": 0, "until": 176.84822758333868}, {"on": true, "note": 63, "velocity": 106, "until": 176.9123300833387}, {"on": false, "note": 63, "velocity": 0, "until": 176.97643258333872}, {"on": true, "note": 63, "velocity": 106, "until": 177.04053508333874}, {"on": false, "note": 63, "velocity": 0, "until": 177.10463758333876}, {"on": true, "note": 63, "velocity": 106, "until": 177.16874008333878}, {"on": false, "note": 63, "velocity": 0, "until": 177.2328425833388}, {"on": true, "note": 61, "velocity": 106, "until": 177.4573315000055}, {"on": false, "note": 61, "velocity": 0, "until": 177.47773958333883}, {"on": true, "note": 61, "velocity": 106, "until": 177.70222850000553}, {"on": false, "note": 61, "velocity": 0, "until": 177.72263658333887}, {"on": true, "note": 60, "velocity": 106, "until": 177.78673908333897}, {"on": false, "note": 60, "velocity": 0, "until": 177.85084158333908}, {"on": true, "note": 60, "velocity": 106, "until": 177.91494408333918}, {"on": false, "note": 60, "velocity": 0, "until": 177.97904658333928}, {"on": true, "note": 60, "velocity": 106, "until": 178.0431490833393}, {"on": false, "note": 60, "velocity": 0, "until": 178.10725158333932}, {"on": true, "note": 60, "velocity": 106, "until": 178.17135408333937}, {"on": false, "note": 60, "velocity": 0, "until": 178.2354565833394}, {"on": true, "note": 60, "velocity": 106, "until": 178.45994550000609}, {"on": false, "note": 60, "velocity": 0, "until": 178.48035358333942}, {"on": true, "note": 65, "velocity": 106, "until": 178.70484250000607}, {"on": false, "note": 65, "velocity": 0, "until": 178.7252505833394}, {"on": true, "note": 65, "velocity": 106, "until": 178.85345558333944}, {"on": false, "note": 65, "velocity": 0, "until": 178.98166058333948}, {"on": true, "note": 69, "velocity": 91, "until": 179.1098655833395}, {"on": false, "note": 69, "velocity": 0, "until": 179.23807058333955}, {"on": true, "note": 70, "velocity": 91, "until": 179.36051908333957}, {"on": false, "note": 70, "velocity": 0, "until": 179.48296758333956}, {"on": true, "note": 65, "velocity": 91, "until": 179.60541608333958}, {"on": false, "note": 65, "velocity": 0, "until": 179.72786458333957}, {"on": true, "note": 65, "velocity": 106, "until": 179.79196708333967}, {"on": false, "note": 65, "velocity": 0, "until": 179.85606958333977}, {"on": true, "note": 65, "velocity": 106, "until": 179.92017208333988}, {"on": false, "note": 65, "velocity": 0, "until": 179.98427458333998}, {"on": true, "note": 65, "velocity": 106, "until": 180.04837708334}, {"on": false, "note": 65, "velocity": 0, "until": 180.11247958334005}, {"on": true, "note": 65, "velocity": 106, "until": 180.1765820833401}, {"on": false, "note": 65, "velocity": 0, "until": 180.2406845833401}, {"on": true, "note": 65, "velocity": 106, "until": 180.46517350000678}, {"on": false, "note": 65, "velocity": 0, "until": 180.48558158334012}, {"on": true, "note": 65, "velocity": 106, "until": 180.71007050000676}, {"on": false, "note": 65, "velocity": 0, "until": 180.7304785833401}, {"on": true, "note": 65, "velocity": 106, "until": 180.85868358334014}, {"on": false, "note": 65, "velocity": 0, "until": 180.98688858334017}, {"on": true, "note": 69, "velocity": 91, "until": 181.1150935833402}, {"on": false, "note": 69, "velocity": 0, "until": 181.24329858334025}, {"on": true, "note": 70, "velocity": 91, "until": 181.48819558334026}, {"on": false, "note": 70, "velocity": 0, "until": 181.76092258334026}, {"on": true, "note": 62, "velocity": 106, "until": 182.13749158334022}, {"on": false, "note": 62, "velocity": 0, "until": 182.13749158334022}, {"on": true, "note": 63, "velocity": 106, "until": 182.2630145833402}, {"on": false, "note": 63, "velocity": 0, "until": 182.2630145833402}, {"on": true, "note": 62, "velocity": 106, "until": 182.48478833334025}, {"on": false, "note": 62, "velocity": 0, "until": 182.50494958334025}, {"on": true, "note": 60, "velocity": 106, "until": 182.62591708334025}, {"on": false, "note": 60, "velocity": 0, "until": 182.74688458334026}, {"on": true, "note": 58, "velocity": 106, "until": 182.87240758334025}, {"on": false, "note": 58, "velocity": 0, "until": 182.87240758334025}, {"on": true, "note": 62, "velocity": 106, "until": 182.97701008334025}, {"on": false, "note": 62, "velocity": 0, "until": 182.99793058334023}, {"on": true, "note": 60, "velocity": 106, "until": 183.06069208334023}, {"on": false, "note": 60, "velocity": 0, "until": 183.12345358334022}, {"on": true, "note": 57, "velocity": 106, "until": 183.18621508334022}, {"on": false, "note": 57, "velocity": 0, "until": 183.2489765833402}, {"on": true, "note": 55, "velocity": 106, "until": 183.49091158334022}, {"on": false, "note": 55, "velocity": 0, "until": 185.70477058333998}, {"on": true, "note": 62, "velocity": 106, "until": 186.07667008334025}, {"on": false, "note": 62, "velocity": 0, "until": 186.07667008334025}, {"on": true, "note": 63, "velocity": 106, "until": 186.20063658334027}, {"on": false, "note": 63, "velocity": 0, "until": 186.20063658334027}, {"on": true, "note": 62, "velocity": 106, "until": 186.41802775000696}, {"on": false, "note": 62, "velocity": 0, "until": 186.4377905833403}, {"on": true, "note": 60, "velocity": 106, "until": 186.55636758334032}, {"on": false, "note": 60, "velocity": 0, "until": 186.67494458334033}, {"on": true, "note": 58, "velocity": 106, "until": 186.79891108334036}, {"on": false, "note": 58, "velocity": 0, "until": 186.79891108334036}, {"on": true, "note": 62, "velocity": 106, "until": 186.90221650000706}, {"on": false, "note": 62, "velocity": 0, "until": 186.9228775833404}, {"on": true, "note": 60, "velocity": 106, "until": 186.98486083334043}, {"on": false, "note": 60, "velocity": 0, "until": 187.04684408334046}, {"on": true, "note": 57, "velocity": 106, "until": 187.10882733334049}, {"on": false, "note": 57, "velocity": 0, "until": 187.1708105833405}, {"on": true, "note": 55, "velocity": 106, "until": 187.40796458334052}, {"on": false, "note": 55, "velocity": 0, "until": 189.58546658334055}, {"on": true, "note": 69, "velocity": 106, "until": 189.9498375833401}, {"on": false, "note": 69, "velocity": 0, "until": 189.9498375833401}, {"on": true, "note": 70, "velocity": 106, "until": 190.07129458334003}, {"on": false, "note": 70, "velocity": 0, "until": 190.07129458334003}, {"on": true, "note": 69, "velocity": 106, "until": 190.28121766667334}, {"on": false, "note": 69, "velocity": 0, "until": 190.30030158333997}, {"on": true, "note": 67, "velocity": 106, "until": 190.41480508333993}, {"on": false, "note": 67, "velocity": 0, "until": 190.52930858333988}, {"on": true, "note": 65, "velocity": 106, "until": 190.65076558333985}, {"on": false, "note": 65, "velocity": 0, "until": 190.65076558333985}, {"on": true, "note": 69, "velocity": 106, "until": 190.75197975000648}, {"on": false, "note": 69, "velocity": 0, "until": 190.77222258333978}, {"on": true, "note": 67, "velocity": 106, "until": 190.83295108333976}, {"on": false, "note": 67, "velocity": 0, "until": 190.89367958333972}, {"on": true, "note": 64, "velocity": 106, "until": 190.9544080833397}, {"on": false, "note": 64, "velocity": 0, "until": 191.01513658333965}, {"on": true, "note": 62, "velocity": 106, "until": 191.2441435833396}, {"on": false, "note": 62, "velocity": 0, "until": 191.47315058333956}, {"on": true, "note": 72, "velocity": 106, "until": 191.83752158333914}, {"on": false, "note": 72, "velocity": 0, "until": 191.83752158333914}, {"on": true, "note": 74, "velocity": 106, "until": 191.95897858333905}, {"on": false, "note": 74, "velocity": 0, "until": 191.95897858333905}, {"on": true, "note": 72, "velocity": 106, "until": 192.16890166667235}, {"on": false, "note": 72, "velocity": 0, "until": 192.18798558333896}, {"on": true, "note": 70, "velocity": 106, "until": 192.3024890833389}, {"on": false, "note": 70, "velocity": 0, "until": 192.4169925833389}, {"on": true, "note": 69, "velocity": 106, "until": 192.53844958333886}, {"on": false, "note": 69, "velocity": 0, "until": 192.53844958333886}, {"on": true, "note": 72, "velocity": 106, "until": 192.6396637500055}, {"on": false, "note": 72, "velocity": 0, "until": 192.65990658333877}, {"on": true, "note": 70, "velocity": 106, "until": 192.72063508333872}, {"on": false, "note": 70, "velocity": 0, "until": 192.78136358333867}, {"on": true, "note": 67, "velocity": 106, "until": 192.84209208333866}, {"on": false, "note": 67, "velocity": 0, "until": 192.9028205833386}, {"on": true, "note": 65, "velocity": 106, "until": 193.13182758333855}, {"on": false, "note": 65, "velocity": 0, "until": 193.36083458333852}, {"on": true, "note": 73, "velocity": 106, "until": 193.36083458333852}, {"on": true, "note": 67, "velocity": 106, "until": 193.64929558333876}, {"on": false, "note": 67, "velocity": 0, "until": 193.64929558333876}, {"on": false, "note": 73, "velocity": 0, "until": 194.6318955833388}, {"on": true, "note": 79, "velocity": 106, "until": 194.7601005833388}, {"on": false, "note": 79, "velocity": 0, "until": 194.7601005833388}, {"on": true, "note": 81, "velocity": 106, "until": 194.88830558333882}, {"on": false, "note": 81, "velocity": 0, "until": 194.88830558333882}, {"on": true, "note": 82, "velocity": 106, "until": 195.0107540833388}, {"on": false, "note": 82, "velocity": 0, "until": 195.0107540833388}, {"on": true, "note": 81, "velocity": 106, "until": 195.1332025833388}, {"on": false, "note": 81, "velocity": 0, "until": 195.1332025833388}, {"on": true, "note": 82, "velocity": 106, "until": 195.2556510833388}, {"on": false, "note": 82, "velocity": 0, "until": 195.2556510833388}, {"on": true, "note": 79, "velocity": 106, "until": 195.35769150000544}, {"on": false, "note": 79, "velocity": 0, "until": 195.37809958333878}, {"on": true, "note": 74, "velocity": 106, "until": 195.50630458333882}, {"on": false, "note": 74, "velocity": 0, "until": 195.50630458333882}, {"on": true, "note": 79, "velocity": 106, "until": 195.61314208333883}, {"on": false, "note": 79, "velocity": 0, "until": 195.63450958333883}, {"on": true, "note": 83, "velocity": 106, "until": 195.69861208333884}, {"on": false, "note": 83, "velocity": 0, "until": 195.76271458333886}, {"on": true, "note": 81, "velocity": 106, "until": 195.82681708333888}, {"on": false, "note": 81, "velocity": 0, "until": 195.8909195833389}, {"on": true, "note": 79, "velocity": 106, "until": 196.0133680833389}, {"on": false, "note": 79, "velocity": 0, "until": 196.0133680833389}, {"on": true, "note": 78, "velocity": 106, "until": 196.11540850000554}, {"on": false, "note": 78, "velocity": 0, "until": 196.13581658333888}, {"on": true, "note": 76, "velocity": 106, "until": 196.1970408333389}, {"on": false, "note": 76, "velocity": 0, "until": 196.2582650833389}, {"on": true, "note": 74, "velocity": 106, "until": 196.3194893333389}, {"on": false, "note": 74, "velocity": 0, "until": 196.38071358333892}, {"on": true, "note": 73, "velocity": 106, "until": 196.50891858333895}, {"on": false, "note": 73, "velocity": 0, "until": 196.50891858333895}, {"on": true, "note": 74, "velocity": 106, "until": 196.61575608333897}, {"on": false, "note": 74, "velocity": 0, "until": 196.63712358333896}, {"on": true, "note": 69, "velocity": 106, "until": 196.70122608333898}, {"on": false, "note": 69, "velocity": 0, "until": 196.765328583339}, {"on": true, "note": 71, "velocity": 106, "until": 196.82943108333902}, {"on": false, "note": 71, "velocity": 0, "until": 196.89353358333904}, {"on": true, "note": 72, "velocity": 106, "until": 197.02011558333908}, {"on": false, "note": 72, "velocity": 0, "until": 197.02011558333908}, {"on": true, "note": 71, "velocity": 106, "until": 197.12560058333912}, {"on": false, "note": 71, "velocity": 0, "until": 197.14669758333912}, {"on": true, "note": 72, "velocity": 106, "until": 197.21679083333913}, {"on": false, "note": 72, "velocity": 0, "until": 197.28688408333912}, {"on": true, "note": 74, "velocity": 106, "until": 197.3569773333391}, {"on": false, "note": 74, "velocity": 0, "until": 197.42707058333912}, {"on": true, "note": 62, "velocity": 106, "until": 197.55981358333912}, {"on": false, "note": 62, "velocity": 0, "until": 197.55981358333912}, {"on": true, "note": 67, "velocity": 106, "until": 197.69255658333913}, {"on": false, "note": 67, "velocity": 0, "until": 197.69255658333913}, {"on": true, "note": 71, "velocity": 106, "until": 197.75892808333913}, {"on": false, "note": 71, "velocity": 0, "until": 197.82529958333913}, {"on": true, "note": 67, "velocity": 106, "until": 197.89167108333913}, {"on": false, "note": 67, "velocity": 0, "until": 197.95804258333914}, {"on": true, "note": 71, "velocity": 106, "until": 198.08304258333914}, {"on": false, "note": 71, "velocity": 0, "until": 198.08304258333914}, {"on": true, "note": 67, "velocity": 106, "until": 198.2080425833391}, {"on": false, "note": 67, "velocity": 0, "until": 198.2080425833391}, {"on": true, "note": 71, "velocity": 106, "until": 198.2705425833391}, {"on": false, "note": 71, "velocity": 0, "until": 198.3330425833391}, {"on": true, "note": 67, "velocity": 106, "until": 198.3955425833391}, {"on": false, "note": 67, "velocity": 0, "until": 198.4580425833391}, {"on": true, "note": 62, "velocity": 106, "until": 198.58847708333911}, {"on": false, "note": 62, "velocity": 0, "until": 198.58847708333911}, {"on": true, "note": 66, "velocity": 106, "until": 198.71891158333912}, {"on": false, "note": 66, "velocity": 0, "until": 198.71891158333912}, {"on": true, "note": 72, "velocity": 106, "until": 198.7841288333391}, {"on": false, "note": 72, "velocity": 0, "until": 198.8493460833391}, {"on": true, "note": 66, "velocity": 106, "until": 198.9145633333391}, {"on": false, "note": 66, "velocity": 0, "until": 198.97978058333908}, {"on": true, "note": 72, "velocity": 106, "until": 199.10478058333908}, {"on": false, "note": 72, "velocity": 0, "until": 199.10478058333908}, {"on": true, "note": 66, "velocity": 106, "until": 199.22978058333908}, {"on": false, "note": 66, "velocity": 0, "until": 199.22978058333908}, {"on": true, "note": 72, "velocity": 106, "until": 199.29228058333908}, {"on": false, "note": 72, "velocity": 0, "until": 199.35478058333908}, {"on": true, "note": 66, "velocity": 106, "until": 199.41728058333908}, {"on": false, "note": 66, "velocity": 0, "until": 199.47978058333908}, {"on": true, "note": 62, "velocity": 91, "until": 199.61021508333909}, {"on": false, "note": 62, "velocity": 0, "until": 199.61021508333909}, {"on": true, "note": 67, "velocity": 91, "until": 199.7406495833391}, {"on": false, "note": 67, "velocity": 0, "until": 199.7406495833391}, {"on": true, "note": 71, "velocity": 91, "until": 199.80586683333908}, {"on": false, "note": 71, "velocity": 0, "until": 199.87108408333907}, {"on": true, "note": 67, "velocity": 91, "until": 199.93630133333906}, {"on": false, "note": 67, "velocity": 0, "until": 200.00151858333905}, {"on": true, "note": 71, "velocity": 91, "until": 200.12651858333905}, {"on": false, "note": 71, "velocity": 0, "until": 200.12651858333905}, {"on": true, "note": 67, "velocity": 91, "until": 200.25151858333905}, {"on": false, "note": 67, "velocity": 0, "until": 200.25151858333905}, {"on": true, "note": 71, "velocity": 91, "until": 200.31401858333905}, {"on": false, "note": 71, "velocity": 0, "until": 200.37651858333905}, {"on": true, "note": 67, "velocity": 91, "until": 200.43901858333905}, {"on": false, "note": 67, "velocity": 0, "until": 200.50151858333905}, {"on": true, "note": 60, "velocity": 91, "until": 200.63195308333906}, {"on": false, "note": 60, "velocity": 0, "until": 200.63195308333906}, {"on": true, "note": 66, "velocity": 91, "until": 200.76238758333903}, {"on": false, "note": 66, "velocity": 0, "until": 200.76238758333903}, {"on": true, "note": 69, "velocity": 91, "until": 200.82760483333902}, {"on": false, "note": 69, "velocity": 0, "until": 200.892822083339}, {"on": true, "note": 66, "velocity": 91, "until": 200.958039333339}, {"on": false, "note": 66, "velocity": 0, "until": 201.023256583339}, {"on": true, "note": 69, "velocity": 91, "until": 201.148256583339}, {"on": false, "note": 69, "velocity": 0, "until": 201.148256583339}, {"on": true, "note": 66, "velocity": 91, "until": 201.27325658333896}, {"on": false, "note": 66, "velocity": 0, "until": 201.27325658333896}, {"on": true, "note": 69, "velocity": 91, "until": 201.33575658333896}, {"on": false, "note": 69, "velocity": 0, "until": 201.39825658333896}, {"on": true, "note": 66, "velocity": 91, "until": 201.46075658333896}, {"on": false, "note": 66, "velocity": 0, "until": 201.52325658333893}, {"on": true, "note": 59, "velocity": 106, "until": 201.65369108333894}, {"on": false, "note": 59, "velocity": 0, "until": 201.65369108333894}, {"on": true, "note": 62, "velocity": 106, "until": 201.78412558333895}, {"on": false, "note": 62, "velocity": 0, "until": 201.78412558333895}, {"on": true, "note": 67, "velocity": 106, "until": 201.84934283333894}, {"on": false, "note": 67, "velocity": 0, "until": 201.91456008333893}, {"on": true, "note": 62, "velocity": 106, "until": 201.97977733333892}, {"on": false, "note": 62, "velocity": 0, "until": 202.0449945833389}, {"on": true, "note": 67, "velocity": 106, "until": 202.1699945833389}, {"on": false, "note": 67, "velocity": 0, "until": 202.1699945833389}, {"on": true, "note": 62, "velocity": 106, "until": 202.2949945833389}, {"on": false, "note": 62, "velocity": 0, "until": 202.2949945833389}, {"on": true, "note": 67, "velocity": 106, "until": 202.3574945833389}, {"on": false, "note": 67, "velocity": 0, "until": 202.4199945833389}, {"on": true, "note": 62, "velocity": 106, "until": 202.4824945833389}, {"on": false, "note": 62, "velocity": 0, "until": 202.5449945833389}, {"on": true, "note": 62, "velocity": 106, "until": 202.6754290833389}, {"on": false, "note": 62, "velocity": 0, "until": 202.6754290833389}, {"on": true, "note": 66, "velocity": 106, "until": 202.80586358333892}, {"on": false, "note": 66, "velocity": 0, "until": 202.80586358333892}, {"on": true, "note": 72, "velocity": 106, "until": 202.8710808333389}, {"on": false, "note": 72, "velocity": 0, "until": 202.9362980833389}, {"on": true, "note": 66, "velocity": 106, "until": 203.0015153333389}, {"on": false, "note": 66, "velocity": 0, "until": 203.06673258333888}, {"on": true, "note": 72, "velocity": 106, "until": 203.19173258333888}, {"on": false, "note": 72, "velocity": 0, "until": 203.19173258333888}, {"on": true, "note": 66, "velocity": 106, "until": 203.31673258333888}, {"on": false, "note": 66, "velocity": 0, "until": 203.31673258333888}, {"on": true, "note": 72, "velocity": 106, "until": 203.37923258333888}, {"on": false, "note": 72, "velocity": 0, "until": 203.44173258333888}, {"on": true, "note": 66, "velocity": 106, "until": 203.50423258333888}, {"on": false, "note": 66, "velocity": 0, "until": 203.56673258333888}, {"on": true, "note": 62, "velocity": 91, "until": 203.69493758333888}, {"on": false, "note": 62, "velocity": 0, "until": 203.69493758333888}, {"on": true, "note": 67, "velocity": 91, "until": 203.8231425833389}, {"on": false, "note": 67, "velocity": 0, "until": 203.8231425833389}, {"on": true, "note": 71, "velocity": 91, "until": 203.8872450833389}, {"on": false, "note": 71, "velocity": 0, "until": 203.95134758333893}, {"on": true, "note": 67, "velocity": 91, "until": 204.01545008333895}, {"on": false, "note": 67, "velocity": 0, "until": 204.07955258333897}, {"on": true, "note": 71, "velocity": 91, "until": 204.20200108333896}, {"on": false, "note": 71, "velocity": 0, "until": 204.20200108333896}, {"on": true, "note": 67, "velocity": 91, "until": 204.32444958333895}, {"on": false, "note": 67, "velocity": 0, "until": 204.32444958333895}, {"on": true, "note": 71, "velocity": 91, "until": 204.38567383333896}, {"on": false, "note": 71, "velocity": 0, "until": 204.44689808333897}, {"on": true, "note": 67, "velocity": 91, "until": 204.50812233333897}, {"on": false, "note": 67, "velocity": 0, "until": 204.56934658333898}, {"on": true, "note": 60, "velocity": 91, "until": 204.697551583339}, {"on": false, "note": 60, "velocity": 0, "until": 204.697551583339}, {"on": true, "note": 66, "velocity": 91, "until": 204.825756583339}, {"on": false, "note": 66, "velocity": 0, "until": 204.825756583339}, {"on": true, "note": 69, "velocity": 91, "until": 204.88985908333902}, {"on": false, "note": 69, "velocity": 0, "until": 204.95396158333904}, {"on": true, "note": 66, "velocity": 91, "until": 205.01806408333906}, {"on": false, "note": 66, "velocity": 0, "until": 205.08216658333907}, {"on": true, "note": 69, "velocity": 91, "until": 205.20461508333906}, {"on": false, "note": 69, "velocity": 0, "until": 205.20461508333906}, {"on": true, "note": 66, "velocity": 91, "until": 205.32706358333908}, {"on": false, "note": 66, "velocity": 0, "until": 205.32706358333908}, {"on": true, "note": 69, "velocity": 91, "until": 205.3882878333391}, {"on": false, "note": 69, "velocity": 0, "until": 205.4495120833391}, {"on": true, "note": 66, "velocity": 91, "until": 205.5107363333391}, {"on": false, "note": 66, "velocity": 0, "until": 205.57196058333912}, {"on": true, "note": 59, "velocity": 106, "until": 205.57196058333912}, {"on": true, "note": 67, "velocity": 106, "until": 205.82837058333914}, {"on": false, "note": 67, "velocity": 0, "until": 205.82837058333914}, {"on": false, "note": 59, "velocity": 0, "until": 206.08478058333915}, {"on": true, "note": 68, "velocity": 106, "until": 206.08478058333915}, {"on": true, "note": 59, "velocity": 106, "until": 206.20430208333914}, {"on": false, "note": 59, "velocity": 0, "until": 206.20430208333914}, {"on": false, "note": 68, "velocity": 0, "until": 206.32382358333916}, {"on": true, "note": 68, "velocity": 106, "until": 206.32382358333916}, {"on": true, "note": 59, "velocity": 106, "until": 206.44334508333915}, {"on": false, "note": 59, "velocity": 0, "until": 206.44334508333915}, {"on": false, "note": 68, "velocity": 0, "until": 206.56286658333917}, {"on": true, "note": 69, "velocity": 106, "until": 206.56286658333917}, {"on": true, "note": 60, "velocity": 106, "until": 206.81286658333917}, {"on": false, "note": 60, "velocity": 0, "until": 206.81286658333917}, {"on": false, "note": 69, "velocity": 0, "until": 207.06286658333914}, {"on": true, "note": 71, "velocity": 106, "until": 207.06286658333914}, {"on": true, "note": 65, "velocity": 106, "until": 207.1809765833392}, {"on": false, "note": 65, "velocity": 0, "until": 207.1809765833392}, {"on": false, "note": 71, "velocity": 0, "until": 207.29908658333923}, {"on": true, "note": 71, "velocity": 106, "until": 207.29908658333923}, {"on": true, "note": 65, "velocity": 106, "until": 207.4171965833393}, {"on": false, "note": 65, "velocity": 0, "until": 207.4171965833393}, {"on": false, "note": 71, "velocity": 0, "until": 207.53530658333932}, {"on": true, "note": 72, "velocity": 106, "until": 207.53530658333932}, {"on": true, "note": 64, "velocity": 106, "until": 207.7822195833393}, {"on": false, "note": 64, "velocity": 0, "until": 207.7822195833393}, {"on": false, "note": 72, "velocity": 0, "until": 209.07312558333925}, {"on": true, "note": 76, "velocity": 106, "until": 209.1935332750059}, {"on": false, "note": 76, "velocity": 0, "until": 209.31802258333923}, {"on": true, "note": 76, "velocity": 106, "until": 209.43843027500589}, {"on": false, "note": 76, "velocity": 0, "until": 209.5629195833392}, {"on": true, "note": 68, "velocity": 106, "until": 210.07573958333936}, {"on": false, "note": 68, "velocity": 0, "until": 210.07573958333936}, {"on": true, "note": 69, "velocity": 106, "until": 210.32063658333936}, {"on": false, "note": 69, "velocity": 0, "until": 210.32063658333936}, {"on": true, "note": 71, "velocity": 106, "until": 210.54512550000604}, {"on": false, "note": 71, "velocity": 0, "until": 210.56553358333937}, {"on": true, "note": 74, "velocity": 106, "until": 210.8197705833394}, {"on": false, "note": 74, "velocity": 0, "until": 210.8197705833394}, {"on": true, "note": 72, "velocity": 106, "until": 211.0740075833394}, {"on": false, "note": 72, "velocity": 0, "until": 211.0740075833394}, {"on": true, "note": 75, "velocity": 106, "until": 211.31497058333943}, {"on": false, "note": 75, "velocity": 0, "until": 211.31497058333943}, {"on": true, "note": 76, "velocity": 106, "until": 211.53585333333945}, {"on": false, "note": 76, "velocity": 0, "until": 211.55593358333945}, {"on": true, "note": 67, "velocity": 106, "until": 211.80803358333944}, {"on": false, "note": 67, "velocity": 0, "until": 212.5459615833394}, {"on": true, "note": 66, "velocity": 91, "until": 212.67148458333938}, {"on": false, "note": 66, "velocity": 0, "until": 213.5319235833394}, {"on": true, "note": 67, "velocity": 106, "until": 213.78088558333928}, {"on": false, "note": 67, "velocity": 0, "until": 214.02984758333926}, {"on": true, "note": 59, "velocity": 106, "until": 214.02984758333926}, {"on": true, "note": 68, "velocity": 106, "until": 214.1479575833393}, {"on": false, "note": 68, "velocity": 0, "until": 214.1479575833393}, {"on": false, "note": 59, "velocity": 0, "until": 214.26606758333932}, {"on": true, "note": 59, "velocity": 106, "until": 214.26606758333932}, {"on": true, "note": 68, "velocity": 106, "until": 214.38417758333935}, {"on": false, "note": 68, "velocity": 0, "until": 214.38417758333935}, {"on": false, "note": 59, "velocity": 0, "until": 214.50228758333938}, {"on": true, "note": 60, "velocity": 106, "until": 214.50228758333938}, {"on": true, "note": 69, "velocity": 106, "until": 214.74818858333936}, {"on": false, "note": 69, "velocity": 0, "until": 214.74818858333936}, {"on": false, "note": 60, "velocity": 0, "until": 214.99408958333933}, {"on": true, "note": 71, "velocity": 106, "until": 214.99408958333933}, {"on": true, "note": 65, "velocity": 106, "until": 215.11127708333933}, {"on": false, "note": 65, "velocity": 0, "until": 215.11127708333933}, {"on": false, "note": 71, "velocity": 0, "until": 215.22846458333933}, {"on": true, "note": 71, "velocity": 106, "until": 215.22846458333933}, {"on": true, "note": 65, "velocity": 106, "until": 215.34565208333933}, {"on": false, "note": 65, "velocity": 0, "until": 215.34565208333933}, {"on": false, "note": 71, "velocity": 0, "until": 215.46283958333933}, {"on": true, "note": 72, "velocity": 106, "until": 215.46283958333933}, {"on": true, "note": 64, "velocity": 106, "until": 215.7057535833393}, {"on": false, "note": 64, "velocity": 0, "until": 215.7057535833393}, {"on": false, "note": 72, "velocity": 0, "until": 216.9531195833393}, {"on": true, "note": 72, "velocity": 106, "until": 217.06762308333927}, {"on": false, "note": 72, "velocity": 0, "until": 217.18212658333925}, {"on": true, "note": 72, "velocity": 106, "until": 217.29663008333924}, {"on": false, "note": 72, "velocity": 0, "until": 217.41113358333922}, {"on": true, "note": 82, "velocity": 106, "until": 218.35497558333904}, {"on": false, "note": 82, "velocity": 0, "until": 218.35497558333904}, {"on": true, "note": 81, "velocity": 106, "until": 218.82056075000568}, {"on": false, "note": 81, "velocity": 0, "until": 218.84080358333898}, {"on": true, "note": 81, "velocity": 106, "until": 219.02210079167227}, {"on": false, "note": 81, "velocity": 0, "until": 219.0698105833389}, {"on": true, "note": 81, "velocity": 106, "until": 219.25110779167218}, {"on": false, "note": 81, "velocity": 0, "until": 219.2988175833388}, {"on": true, "note": 83, "velocity": 106, "until": 219.78464558333837}, {"on": false, "note": 83, "velocity": 0, "until": 220.27403458333825}, {"on": true, "note": 78, "velocity": 106, "until": 220.5169485833382}, {"on": false, "note": 78, "velocity": 0, "until": 221.23045058333818}, {"on": true, "note": 79, "velocity": 106, "until": 221.47336458333814}, {"on": false, "note": 79, "velocity": 0, "until": 221.7162785833381}, {"on": true, "note": 67, "velocity": 106, "until": 221.8339255833381}, {"on": false, "note": 67, "velocity": 0, "until": 221.9515725833381}, {"on": true, "note": 67, "velocity": 106, "until": 222.0692195833381}, {"on": false, "note": 67, "velocity": 0, "until": 222.18686658333812}, {"on": true, "note": 77, "velocity": 106, "until": 222.67269458333774}, {"on": false, "note": 77, "velocity": 0, "until": 222.67269458333774}, {"on": true, "note": 76, "velocity": 106, "until": 222.79034158333778}, {"on": false, "note": 76, "velocity": 0, "until": 222.79034158333778}, {"on": true, "note": 74, "velocity": 106, "until": 222.90798858333778}, {"on": false, "note": 74, "velocity": 0, "until": 222.90798858333778}, {"on": true, "note": 72, "velocity": 106, "until": 223.0256355833378}, {"on": false, "note": 72, "velocity": 0, "until": 223.0256355833378}, {"on": true, "note": 71, "velocity": 106, "until": 223.1432825833378}, {"on": false, "note": 71, "velocity": 0, "until": 223.1432825833378}, {"on": true, "note": 69, "velocity": 106, "until": 223.38619658333775}, {"on": false, "note": 69, "velocity": 0, "until": 224.09969858333776}, {"on": true, "note": 66, "velocity": 106, "until": 224.22115558333772}, {"on": false, "note": 66, "velocity": 0, "until": 225.05611458333772}, {"on": true, "note": 67, "velocity": 106, "until": 225.29902858333767}, {"on": false, "note": 67, "velocity": 0, "until": 225.54194258333763}, {"on": true, "note": 67, "velocity": 106, "until": 225.65958958333763}, {"on": false, "note": 67, "velocity": 0, "until": 225.77723658333764}, {"on": true, "note": 67, "velocity": 106, "until": 225.89488358333764}, {"on": false, "note": 67, "velocity": 0, "until": 226.01253058333765}, {"on": true, "note": 77, "velocity": 106, "until": 226.49835858333728}, {"on": false, "note": 77, "velocity": 0, "until": 226.49835858333728}, {"on": true, "note": 76, "velocity": 106, "until": 226.6160055833373}, {"on": false, "note": 76, "velocity": 0, "until": 226.6160055833373}, {"on": true, "note": 74, "velocity": 106, "until": 226.73365258333732}, {"on": false, "note": 74, "velocity": 0, "until": 226.73365258333732}, {"on": true, "note": 72, "velocity": 106, "until": 226.85129958333732}, {"on": false, "note": 72, "velocity": 0, "until": 226.85129958333732}, {"on": true, "note": 71, "velocity": 106, "until": 226.96894658333733}, {"on": false, "note": 71, "velocity": 0, "until": 226.96894658333733}, {"on": true, "note": 69, "velocity": 106, "until": 227.21186058333728}, {"on": false, "note": 69, "velocity": 0, "until": 227.9253625833373}, {"on": true, "note": 66, "velocity": 106, "until": 228.16827658333725}, {"on": false, "note": 66, "velocity": 0, "until": 228.88177858333722}, {"on": true, "note": 67, "velocity": 106, "until": 229.12469258333718}, {"on": false, "note": 67, "velocity": 0, "until": 229.85843458333724}, {"on": true, "note": 78, "velocity": 106, "until": 229.85843458333724}, {"on": true, "note": 69, "velocity": 106, "until": 229.85843458333724}, {"on": true, "note": 62, "velocity": 106, "until": 230.09843458333725}, {"on": false, "note": 62, "velocity": 0, "until": 230.09843458333725}, {"on": false, "note": 69, "velocity": 0, "until": 230.09843458333725}, {"on": false, "note": 78, "velocity": 0, "until": 230.79644858333725}, {"on": true, "note": 79, "velocity": 106, "until": 230.79644858333725}, {"on": true, "note": 71, "velocity": 106, "until": 230.79644858333725}, {"on": true, "note": 62, "velocity": 106, "until": 231.0393625833372}, {"on": false, "note": 62, "velocity": 0, "until": 231.0393625833372}, {"on": false, "note": 71, "velocity": 0, "until": 231.0393625833372}, {"on": false, "note": 79, "velocity": 0, "until": 231.74029058333718}, {"on": true, "note": 81, "velocity": 106, "until": 231.74029058333718}, {"on": true, "note": 74, "velocity": 106, "until": 231.74029058333718}, {"on": true, "note": 66, "velocity": 106, "until": 231.98320458333714}, {"on": false, "note": 66, "velocity": 0, "until": 231.98320458333714}, {"on": false, "note": 74, "velocity": 0, "until": 231.98320458333714}, {"on": false, "note": 81, "velocity": 0, "until": 232.68413258333712}, {"on": true, "note": 74, "velocity": 106, "until": 232.68413258333712}, {"on": true, "note": 67, "velocity": 106, "until": 232.68413258333712}, {"on": true, "note": 83, "velocity": 106, "until": 232.92222758333716}, {"on": false, "note": 83, "velocity": 0, "until": 232.92222758333716}, {"on": false, "note": 67, "velocity": 0, "until": 232.92222758333716}, {"on": false, "note": 74, "velocity": 0, "until": 245.89377458333757}, {"on": true, "note": 67, "velocity": 106, "until": 245.99581500000426}, {"on": false, "note": 67, "velocity": 0, "until": 246.0162230833376}, {"on": true, "note": 69, "velocity": 106, "until": 246.11826350000428}, {"on": false, "note": 69, "velocity": 0, "until": 246.1386715833376}, {"on": true, "note": 71, "velocity": 106, "until": 246.2407120000043}, {"on": false, "note": 71, "velocity": 0, "until": 246.26112008333763}, {"on": true, "note": 72, "velocity": 106, "until": 246.35727383333764}, {"on": false, "note": 72, "velocity": 0, "until": 246.37650458333766}, {"on": true, "note": 74, "velocity": 106, "until": 246.47265833333768}, {"on": false, "note": 74, "velocity": 0, "until": 246.4918890833377}, {"on": true, "note": 76, "velocity": 106, "until": 246.5880428333377}, {"on": false, "note": 76, "velocity": 0, "until": 246.60727358333773}, {"on": true, "note": 77, "velocity": 106, "until": 246.70342733333777}, {"on": false, "note": 77, "velocity": 0, "until": 246.7226580833378}, {"on": true, "note": 79, "velocity": 106, "until": 247.20224804167114}, {"on": false, "note": 79, "velocity": 0, "until": 247.2124520833378}, {"on": true, "note": 78, "velocity": 106, "until": 247.44322108333782}, {"on": false, "note": 78, "velocity": 0, "until": 247.44322108333782}, {"on": true, "note": 79, "velocity": 106, "until": 247.55860558333782}, {"on": false, "note": 79, "velocity": 0, "until": 247.55860558333782}, {"on": true, "note": 81, "velocity": 106, "until": 247.67399008333786}, {"on": false, "note": 81, "velocity": 0, "until": 247.67399008333786}, {"on": true, "note": 79, "velocity": 106, "until": 248.16378408333784}, {"on": false, "note": 79, "velocity": 0, "until": 248.16378408333784}, {"on": true, "note": 79, "velocity": 106, "until": 248.27916858333785}, {"on": false, "note": 79, "velocity": 0, "until": 248.27916858333785}, {"on": true, "note": 81, "velocity": 106, "until": 248.39455308333785}, {"on": false, "note": 81, "velocity": 0, "until": 248.39455308333785}, {"on": true, "note": 83, "velocity": 106, "until": 248.50993758333786}, {"on": false, "note": 83, "velocity": 0, "until": 248.50993758333786}, {"on": true, "note": 84, "velocity": 106, "until": 248.62532208333786}, {"on": false, "note": 84, "velocity": 0, "until": 248.62532208333786}, {"on": true, "note": 88, "velocity": 106, "until": 248.66532208333786}, {"on": false, "note": 88, "velocity": 0, "until": 248.66532208333786}, {"on": true, "note": 86, "velocity": 106, "until": 248.76532208333788}, {"on": false, "note": 86, "velocity": 0, "until": 248.86532208333787}, {"on": true, "note": 85, "velocity": 106, "until": 248.98532208333788}, {"on": false, "note": 85, "velocity": 0, "until": 249.10532208333788}, {"on": true, "note": 88, "velocity": 106, "until": 249.14532208333787}, {"on": false, "note": 88, "velocity": 0, "until": 249.14532208333787}, {"on": true, "note": 86, "velocity": 106, "until": 249.2453220833379}, {"on": false, "note": 86, "velocity": 0, "until": 249.3453220833379}, {"on": true, "note": 85, "velocity": 106, "until": 249.4653220833379}, {"on": false, "note": 85, "velocity": 0, "until": 249.5853220833379}, {"on": true, "note": 86, "velocity": 106, "until": 250.0653220833379}, {"on": false, "note": 86, "velocity": 0, "until": 250.0653220833379}, {"on": true, "note": 79, "velocity": 106, "until": 250.29609108333779}, {"on": false, "note": 79, "velocity": 0, "until": 250.52686008333765}, {"on": true, "note": 79, "velocity": 106, "until": 251.01665408333764}, {"on": false, "note": 79, "velocity": 0, "until": 251.01665408333764}, {"on": true, "note": 78, "velocity": 106, "until": 251.24742308333765}, {"on": false, "note": 78, "velocity": 0, "until": 251.24742308333765}, {"on": true, "note": 79, "velocity": 106, "until": 251.36280758333766}, {"on": false, "note": 79, "velocity": 0, "until": 251.36280758333766}, {"on": true, "note": 81, "velocity": 106, "until": 251.47819208333766}, {"on": false, "note": 81, "velocity": 0, "until": 251.47819208333766}, {"on": true, "note": 79, "velocity": 106, "until": 252.08337058333765}, {"on": false, "note": 79, "velocity": 0, "until": 252.08337058333765}, {"on": true, "note": 81, "velocity": 106, "until": 252.19875508333766}, {"on": false, "note": 81, "velocity": 0, "until": 252.19875508333766}, {"on": true, "note": 83, "velocity": 106, "until": 252.31413958333766}, {"on": false, "note": 83, "velocity": 0, "until": 252.31413958333766}, {"on": true, "note": 84, "velocity": 106, "until": 252.42952408333767}, {"on": false, "note": 84, "velocity": 0, "until": 252.42952408333767}, {"on": true, "note": 88, "velocity": 106, "until": 252.5476340833377}, {"on": false, "note": 88, "velocity": 0, "until": 252.66574408333773}, {"on": true, "note": 87, "velocity": 106, "until": 252.78385408333776}, {"on": false, "note": 87, "velocity": 0, "until": 252.9019640833378}, {"on": true, "note": 88, "velocity": 106, "until": 253.02007408333782}, {"on": false, "note": 88, "velocity": 0, "until": 253.13818408333785}, {"on": true, "note": 87, "velocity": 106, "until": 253.25629408333788}, {"on": false, "note": 87, "velocity": 0, "until": 253.3744040833379}, {"on": true, "note": 88, "velocity": 106, "until": 253.84684408333828}, {"on": false, "note": 88, "velocity": 0, "until": 255.3067220833383}, {"on": true, "note": 69, "velocity": 106, "until": 255.3679463333383}, {"on": false, "note": 69, "velocity": 0, "until": 255.4291705833383}, {"on": true, "note": 71, "velocity": 106, "until": 255.4903948333383}, {"on": false, "note": 71, "velocity": 0, "until": 255.55161908333832}, {"on": true, "note": 73, "velocity": 106, "until": 255.61284333333833}, {"on": false, "note": 73, "velocity": 0, "until": 255.67406758333834}, {"on": true, "note": 74, "velocity": 106, "until": 255.73529183333835}, {"on": false, "note": 74, "velocity": 0, "until": 255.79651608333836}, {"on": true, "note": 76, "velocity": 106, "until": 255.8542083333384}, {"on": false, "note": 76, "velocity": 0, "until": 255.9119005833384}, {"on": true, "note": 77, "velocity": 106, "until": 255.9695928333384}, {"on": false, "note": 77, "velocity": 0, "until": 256.0272850833384}, {"on": true, "note": 79, "velocity": 106, "until": 256.0849773333384}, {"on": false, "note": 79, "velocity": 0, "until": 256.1426695833384}, {"on": true, "note": 81, "velocity": 106, "until": 256.2003618333384}, {"on": false, "note": 81, "velocity": 0, "until": 256.2580540833383}, {"on": true, "note": 79, "velocity": 106, "until": 256.50295108333836}, {"on": false, "note": 79, "velocity": 0, "until": 257.2093860833384}, {"on": true, "note": 67, "velocity": 106, "until": 257.2706103333384}, {"on": false, "note": 67, "velocity": 0, "until": 257.33183458333843}, {"on": true, "note": 69, "velocity": 106, "until": 257.39305883333844}, {"on": false, "note": 69, "velocity": 0, "until": 257.45428308333845}, {"on": true, "note": 71, "velocity": 106, "until": 257.51550733333846}, {"on": false, "note": 71, "velocity": 0, "until": 257.57673158333847}, {"on": true, "note": 72, "velocity": 106, "until": 257.6379558333385}, {"on": false, "note": 72, "velocity": 0, "until": 257.6991800833385}, {"on": true, "note": 74, "velocity": 106, "until": 257.7568723333384}, {"on": false, "note": 74, "velocity": 0, "until": 257.8145645833383}, {"on": true, "note": 76, "velocity": 106, "until": 257.87225683333827}, {"on": false, "note": 76, "velocity": 0, "until": 257.92994908333816}, {"on": true, "note": 77, "velocity": 106, "until": 257.98764133333805}, {"on": false, "note": 77, "velocity": 0, "until": 258.045333583338}, {"on": true, "note": 79, "velocity": 106, "until": 258.103025833338}, {"on": false, "note": 79, "velocity": 0, "until": 258.16071808333794}, {"on": true, "note": 71, "velocity": 106, "until": 258.28316658333796}, {"on": false, "note": 71, "velocity": 0, "until": 258.405615083338}, {"on": true, "note": 77, "velocity": 106, "until": 258.8812810833378}, {"on": false, "note": 77, "velocity": 0, "until": 258.8812810833378}, {"on": true, "note": 76, "velocity": 106, "until": 258.99666558333774}, {"on": false, "note": 76, "velocity": 0, "until": 258.99666558333774}, {"on": true, "note": 72, "velocity": 106, "until": 259.09281933333773}, {"on": false, "note": 72, "velocity": 0, "until": 259.11205008333775}, {"on": true, "note": 71, "velocity": 106, "until": 259.23449858333777}, {"on": false, "note": 71, "velocity": 0, "until": 259.3569470833378}, {"on": true, "note": 77, "velocity": 106, "until": 259.8326130833376}, {"on": false, "note": 77, "velocity": 0, "until": 259.8326130833376}, {"on": true, "note": 76, "velocity": 106, "until": 259.94799758333755}, {"on": false, "note": 76, "velocity": 0, "until": 259.94799758333755}, {"on": true, "note": 72, "velocity": 106, "until": 260.04415133333754}, {"on": false, "note": 72, "velocity": 0, "until": 260.06338208333756}, {"on": true, "note": 71, "velocity": 106, "until": 260.1858305833376}, {"on": false, "note": 71, "velocity": 0, "until": 260.3082790833376}, {"on": true, "note": 77, "velocity": 106, "until": 260.7839450833374}, {"on": false, "note": 77, "velocity": 0, "until": 260.7839450833374}, {"on": true, "note": 76, "velocity": 106, "until": 260.89932958333736}, {"on": false, "note": 76, "velocity": 0, "until": 260.89932958333736}, {"on": true, "note": 72, "velocity": 106, "until": 260.99548333333735}, {"on": false, "note": 72, "velocity": 0, "until": 261.01471408333737}, {"on": true, "note": 79, "velocity": 106, "until": 261.01471408333737}, {"on": true, "note": 71, "velocity": 106, "until": 261.2596110833374}, {"on": false, "note": 71, "velocity": 0, "until": 261.2596110833374}, {"on": false, "note": 79, "velocity": 0, "until": 265.61371008333714}, {"on": true, "note": 70, "velocity": 106, "until": 265.61371008333714}, {"on": true, "note": 76, "velocity": 106, "until": 265.7290945833371}, {"on": false, "note": 76, "velocity": 0, "until": 265.7290945833371}, {"on": false, "note": 70, "velocity": 0, "until": 265.844479083337}, {"on": true, "note": 77, "velocity": 106, "until": 265.844479083337}, {"on": true, "note": 69, "velocity": 106, "until": 265.96447908333704}, {"on": false, "note": 69, "velocity": 0, "until": 265.96447908333704}, {"on": false, "note": 77, "velocity": 0, "until": 266.0844790833371}, {"on": true, "note": 76, "velocity": 106, "until": 266.0844790833371}, {"on": true, "note": 70, "velocity": 106, "until": 266.20447908333716}, {"on": false, "note": 70, "velocity": 0, "until": 266.20447908333716}, {"on": false, "note": 76, "velocity": 0, "until": 266.3244790833372}, {"on": true, "note": 69, "velocity": 106, "until": 266.3244790833372}, {"on": true, "note": 77, "velocity": 106, "until": 266.4444790833373}, {"on": false, "note": 77, "velocity": 0, "until": 266.4444790833373}, {"on": false, "note": 69, "velocity": 0, "until": 266.56447908333735}, {"on": true, "note": 76, "velocity": 106, "until": 266.56447908333735}, {"on": true, "note": 70, "velocity": 106, "until": 266.6844790833374}, {"on": false, "note": 70, "velocity": 0, "until": 266.6844790833374}, {"on": false, "note": 76, "velocity": 0, "until": 266.80447908333747}, {"on": true, "note": 77, "velocity": 106, "until": 266.80447908333747}, {"on": true, "note": 69, "velocity": 106, "until": 267.2844790833384}, {"on": false, "note": 69, "velocity": 0, "until": 267.2844790833384}, {"on": false, "note": 77, "velocity": 0, "until": 269.3997100833378}, {"on": true, "note": 86, "velocity": 106, "until": 269.51509458333777}, {"on": false, "note": 86, "velocity": 0, "until": 269.63047908333766}, {"on": true, "note": 88, "velocity": 106, "until": 269.74858908333755}, {"on": false, "note": 88, "velocity": 0, "until": 269.86669908333744}, {"on": true, "note": 86, "velocity": 106, "until": 269.9848090833373}, {"on": false, "note": 86, "velocity": 0, "until": 270.1029190833372}, {"on": true, "note": 88, "velocity": 106, "until": 270.2210290833371}, {"on": false, "note": 88, "velocity": 0, "until": 270.339139083337}, {"on": true, "note": 86, "velocity": 106, "until": 270.4572490833369}, {"on": false, "note": 86, "velocity": 0, "until": 270.57535908333676}, {"on": true, "note": 88, "velocity": 106, "until": 270.81157908333665}, {"on": false, "note": 88, "velocity": 0, "until": 271.04779908333654}, {"on": true, "note": 74, "velocity": 106, "until": 271.04779908333654}, {"on": true, "note": 86, "velocity": 106, "until": 271.49010633333626}, {"on": false, "note": 86, "velocity": 0, "until": 271.49010633333626}, {"on": false, "note": 74, "velocity": 0, "until": 271.5093370833362}, {"on": true, "note": 85, "velocity": 106, "until": 271.5093370833362}, {"on": true, "note": 73, "velocity": 106, "until": 271.9787230000029}, {"on": false, "note": 73, "velocity": 0, "until": 271.9787230000029}, {"on": false, "note": 85, "velocity": 0, "until": 271.99913108333624}, {"on": true, "note": 84, "velocity": 106, "until": 271.99913108333624}, {"on": true, "note": 74, "velocity": 106, "until": 272.44143833333595}, {"on": false, "note": 74, "velocity": 0, "until": 272.44143833333595}, {"on": false, "note": 84, "velocity": 0, "until": 272.4606690833359}, {"on": true, "note": 83, "velocity": 106, "until": 272.4606690833359}, {"on": true, "note": 74, "velocity": 106, "until": 272.9300550000026}, {"on": false, "note": 74, "velocity": 0, "until": 272.9300550000026}, {"on": false, "note": 83, "velocity": 0, "until": 272.95046308333593}, {"on": true, "note": 82, "velocity": 106, "until": 272.95046308333593}, {"on": true, "note": 74, "velocity": 106, "until": 273.39277033333565}, {"on": false, "note": 74, "velocity": 0, "until": 273.39277033333565}, {"on": false, "note": 82, "velocity": 0, "until": 273.4120010833356}, {"on": true, "note": 80, "velocity": 106, "until": 273.5140415000023}, {"on": false, "note": 80, "velocity": 0, "until": 273.53444958333563}, {"on": true, "note": 80, "velocity": 106, "until": 273.6364900000023}, {"on": false, "note": 80, "velocity": 0, "until": 273.65689808333565}, {"on": true, "note": 80, "velocity": 106, "until": 273.75893850000233}, {"on": false, "note": 80, "velocity": 0, "until": 273.77934658333567}, {"on": true, "note": 80, "velocity": 106, "until": 273.88138700000235}, {"on": false, "note": 80, "velocity": 0, "until": 273.9017950833357}, {"on": true, "note": 80, "velocity": 106, "until": 273.9979488333356}, {"on": false, "note": 80, "velocity": 0, "until": 274.01717958333563}, {"on": true, "note": 80, "velocity": 106, "until": 274.1133333333356}, {"on": false, "note": 80, "velocity": 0, "until": 274.13256408333564}, {"on": true, "note": 79, "velocity": 106, "until": 274.22871783333557}, {"on": false, "note": 79, "velocity": 0, "until": 274.2479485833356}, {"on": true, "note": 79, "velocity": 106, "until": 274.34410233333557}, {"on": false, "note": 79, "velocity": 0, "until": 274.3633330833356}, {"on": true, "note": 80, "velocity": 106, "until": 274.4653735000023}, {"on": false, "note": 80, "velocity": 0, "until": 274.4857815833356}, {"on": true, "note": 80, "velocity": 106, "until": 274.5878220000023}, {"on": false, "note": 80, "velocity": 0, "until": 274.6082300833356}, {"on": true, "note": 80, "velocity": 106, "until": 274.7102705000023}, {"on": false, "note": 80, "velocity": 0, "until": 274.73067858333565}, {"on": true, "note": 80, "velocity": 106, "until": 274.8327190000023}, {"on": false, "note": 80, "velocity": 0, "until": 274.85312708333566}, {"on": true, "note": 80, "velocity": 106, "until": 274.9492808333354}, {"on": false, "note": 80, "velocity": 0, "until": 274.9685115833353}, {"on": true, "note": 80, "velocity": 106, "until": 275.06466533333514}, {"on": false, "note": 80, "velocity": 0, "until": 275.08389608333516}, {"on": true, "note": 79, "velocity": 106, "until": 275.1800498333351}, {"on": false, "note": 79, "velocity": 0, "until": 275.1992805833351}, {"on": true, "note": 79, "velocity": 106, "until": 275.2954343333351}, {"on": false, "note": 79, "velocity": 0, "until": 275.3146650833351}, {"on": true, "note": 80, "velocity": 106, "until": 275.4167055000018}, {"on": false, "note": 80, "velocity": 0, "until": 275.43711358333513}, {"on": true, "note": 80, "velocity": 106, "until": 275.5391540000018}, {"on": false, "note": 80, "velocity": 0, "until": 275.55956208333515}, {"on": true, "note": 79, "velocity": 106, "until": 275.66160250000183}, {"on": false, "note": 79, "velocity": 0, "until": 275.68201058333517}, {"on": true, "note": 79, "velocity": 106, "until": 275.78405100000185}, {"on": false, "note": 79, "velocity": 0, "until": 275.8044590833352}, {"on": true, "note": 80, "velocity": 106, "until": 275.900612833335}, {"on": false, "note": 80, "velocity": 0, "until": 275.9198435833349}, {"on": true, "note": 80, "velocity": 106, "until": 276.01599733333484}, {"on": false, "note": 80, "velocity": 0, "until": 276.03522808333486}, {"on": true, "note": 79, "velocity": 106, "until": 276.1313818333348}, {"on": false, "note": 79, "velocity": 0, "until": 276.1506125833348}, {"on": true, "note": 79, "velocity": 106, "until": 276.2467663333348}, {"on": false, "note": 79, "velocity": 0, "until": 276.26599708333475}, {"on": true, "note": 80, "velocity": 106, "until": 276.36803750000144}, {"on": false, "note": 80, "velocity": 0, "until": 276.38844558333477}, {"on": true, "note": 80, "velocity": 106, "until": 276.49048600000145}, {"on": false, "note": 80, "velocity": 0, "until": 276.5108940833348}, {"on": true, "note": 79, "velocity": 106, "until": 276.6129345000015}, {"on": false, "note": 79, "velocity": 0, "until": 276.6333425833348}, {"on": true, "note": 79, "velocity": 106, "until": 276.7353830000015}, {"on": false, "note": 79, "velocity": 0, "until": 276.7557910833348}, {"on": true, "note": 80, "velocity": 106, "until": 276.85194483333464}, {"on": false, "note": 80, "velocity": 0, "until": 276.87117558333455}, {"on": true, "note": 80, "velocity": 106, "until": 276.9673293333345}, {"on": false, "note": 80, "velocity": 0, "until": 276.9865600833345}, {"on": true, "note": 79, "velocity": 106, "until": 277.0827138333344}, {"on": false, "note": 79, "velocity": 0, "until": 277.10194458333444}, {"on": true, "note": 79, "velocity": 106, "until": 277.1980983333344}, {"on": false, "note": 79, "velocity": 0, "until": 277.2173290833344}, {"on": true, "note": 85, "velocity": 106, "until": 277.3193695000011}, {"on": false, "note": 85, "velocity": 0, "until": 277.3397775833344}, {"on": true, "note": 85, "velocity": 106, "until": 277.4418180000011}, {"on": false, "note": 85, "velocity": 0, "until": 277.46222608333443}, {"on": true, "note": 85, "velocity": 106, "until": 277.5642665000011}, {"on": false, "note": 85, "velocity": 0, "until": 277.58467458333445}, {"on": true, "note": 85, "velocity": 106, "until": 277.68671500000113}, {"on": false, "note": 85, "velocity": 0, "until": 277.70712308333447}, {"on": true, "note": 85, "velocity": 106, "until": 277.8032768333342}, {"on": false, "note": 85, "velocity": 0, "until": 277.82250758333413}, {"on": true, "note": 85, "velocity": 106, "until": 277.91866133333394}, {"on": false, "note": 85, "velocity": 0, "until": 277.93789208333396}, {"on": true, "note": 86, "velocity": 106, "until": 278.0340458333339}, {"on": false, "note": 86, "velocity": 0, "until": 278.0532765833339}, {"on": true, "note": 86, "velocity": 106, "until": 278.1494303333339}, {"on": false, "note": 86, "velocity": 0, "until": 278.16866108333386}, {"on": true, "note": 85, "velocity": 106, "until": 278.27070150000054}, {"on": false, "note": 85, "velocity": 0, "until": 278.2911095833339}, {"on": true, "note": 85, "velocity": 106, "until": 278.39315000000056}, {"on": false, "note": 85, "velocity": 0, "until": 278.4135580833339}, {"on": true, "note": 85, "velocity": 106, "until": 278.5155985000006}, {"on": false, "note": 85, "velocity": 0, "until": 278.5360065833339}, {"on": true, "note": 85, "velocity": 106, "until": 278.6380470000006}, {"on": false, "note": 85, "velocity": 0, "until": 278.65845508333393}, {"on": true, "note": 85, "velocity": 106, "until": 278.7546088333337}, {"on": false, "note": 85, "velocity": 0, "until": 278.7738395833336}, {"on": true, "note": 85, "velocity": 106, "until": 278.8699933333334}, {"on": false, "note": 85, "velocity": 0, "until": 278.88922408333343}, {"on": true, "note": 86, "velocity": 106, "until": 278.98537783333336}, {"on": false, "note": 86, "velocity": 0, "until": 279.0046085833334}, {"on": true, "note": 86, "velocity": 106, "until": 279.10076233333336}, {"on": false, "note": 86, "velocity": 0, "until": 279.1199930833333}, {"on": true, "note": 85, "velocity": 106, "until": 279.2220335}, {"on": false, "note": 85, "velocity": 0, "until": 279.24244158333335}, {"on": true, "note": 85, "velocity": 106, "until": 279.344482}, {"on": false, "note": 85, "velocity": 0, "until": 279.36489008333336}, {"on": true, "note": 86, "velocity": 106, "until": 279.46693050000005}, {"on": false, "note": 86, "velocity": 0, "until": 279.4873385833334}, {"on": true, "note": 86, "velocity": 106, "until": 279.58937900000006}, {"on": false, "note": 86, "velocity": 0, "until": 279.6097870833334}, {"on": true, "note": 85, "velocity": 106, "until": 279.7059408333332}, {"on": false, "note": 85, "velocity": 0, "until": 279.7251715833331}, {"on": true, "note": 85, "velocity": 106, "until": 279.821325333333}, {"on": false, "note": 85, "velocity": 0, "until": 279.840556083333}, {"on": true, "note": 86, "velocity": 106, "until": 279.93670983333294}, {"on": false, "note": 86, "velocity": 0, "until": 279.9559405833329}, {"on": true, "note": 86, "velocity": 106, "until": 280.0520943333329}, {"on": false, "note": 86, "velocity": 0, "until": 280.0713250833328}, {"on": true, "note": 85, "velocity": 106, "until": 280.1733654999995}, {"on": false, "note": 85, "velocity": 0, "until": 280.1937735833328}, {"on": true, "note": 85, "velocity": 106, "until": 280.2958139999995}, {"on": false, "note": 85, "velocity": 0, "until": 280.31622208333283}, {"on": true, "note": 86, "velocity": 106, "until": 280.4182624999995}, {"on": false, "note": 86, "velocity": 0, "until": 280.43867058333285}, {"on": true, "note": 86, "velocity": 106, "until": 280.54071099999953}, {"on": false, "note": 86, "velocity": 0, "until": 280.56111908333287}, {"on": true, "note": 85, "velocity": 106, "until": 280.6572728333327}, {"on": false, "note": 85, "velocity": 0, "until": 280.6765035833326}, {"on": true, "note": 85, "velocity": 106, "until": 280.7726573333325}, {"on": false, "note": 85, "velocity": 0, "until": 280.79188808333254}, {"on": true, "note": 85, "velocity": 106, "until": 280.88804183333247}, {"on": false, "note": 85, "velocity": 0, "until": 280.9072725833325}, {"on": true, "note": 85, "velocity": 106, "until": 281.0034263333324}, {"on": false, "note": 85, "velocity": 0, "until": 281.0226570833324}, {"on": true, "note": 86, "velocity": 106, "until": 281.2675540833324}, {"on": false, "note": 86, "velocity": 0, "until": 281.2675540833324}, {"on": true, "note": 62, "velocity": 106, "until": 281.39000258333243}, {"on": false, "note": 62, "velocity": 0, "until": 281.51245108333245}, {"on": true, "note": 74, "velocity": 106, "until": 282.23385308333224}, {"on": false, "note": 74, "velocity": 0, "until": 282.23385308333224}, {"on": true, "note": 62, "velocity": 106, "until": 282.35833408333224}, {"on": false, "note": 62, "velocity": 0, "until": 282.48281508333224}, {"on": true, "note": 74, "velocity": 86, "until": 283.2109010833322}, {"on": false, "note": 74, "velocity": 0, "until": 283.46090108333226}, {"on": true, "note": 62, "velocity": 86, "until": 284.68147808333237}, {"on": false, "note": 62, "velocity": 0, "until": 284.68147808333237}, {"on": true, "note": 64, "velocity": 86, "until": 284.80493458333245}, {"on": false, "note": 64, "velocity": 0, "until": 284.80493458333245}, {"on": true, "note": 66, "velocity": 86, "until": 284.9283910833325}, {"on": false, "note": 66, "velocity": 0, "until": 284.9283910833325}, {"on": true, "note": 67, "velocity": 106, "until": 284.99115258333245}, {"on": false, "note": 67, "velocity": 0, "until": 285.0539140833324}, {"on": true, "note": 62, "velocity": 106, "until": 285.1166755833324}, {"on": false, "note": 62, "velocity": 0, "until": 285.17943708333235}, {"on": true, "note": 62, "velocity": 106, "until": 285.2421985833323}, {"on": false, "note": 62, "velocity": 0, "until": 285.3049600833323}, {"on": true, "note": 62, "velocity": 106, "until": 285.36772158333224}, {"on": false, "note": 62, "velocity": 0, "until": 285.4304830833322}, {"on": true, "note": 62, "velocity": 106, "until": 285.6522568333324}, {"on": false, "note": 62, "velocity": 0, "until": 285.67241808333245}, {"on": true, "note": 62, "velocity": 106, "until": 285.8941918333326}, {"on": false, "note": 62, "velocity": 0, "until": 285.9143530833327}, {"on": true, "note": 62, "velocity": 106, "until": 285.97711458333265}, {"on": false, "note": 62, "velocity": 0, "until": 286.0398760833326}, {"on": true, "note": 62, "velocity": 106, "until": 286.1026375833326}, {"on": false, "note": 62, "velocity": 0, "until": 286.16539908333255}, {"on": true, "note": 62, "velocity": 106, "until": 286.2281605833325}, {"on": false, "note": 62, "velocity": 0, "until": 286.2909220833325}, {"on": true, "note": 62, "velocity": 106, "until": 286.35368358333244}, {"on": false, "note": 62, "velocity": 0, "until": 286.4164450833324}, {"on": true, "note": 62, "velocity": 106, "until": 286.6382188333326}, {"on": false, "note": 62, "velocity": 0, "until": 286.65838008333264}, {"on": true, "note": 63, "velocity": 106, "until": 286.8801538333328}, {"on": false, "note": 63, "velocity": 0, "until": 286.9003150833329}, {"on": true, "note": 64, "velocity": 106, "until": 286.96307658333285}, {"on": false, "note": 64, "velocity": 0, "until": 287.0258380833328}, {"on": true, "note": 64, "velocity": 106, "until": 287.0885995833328}, {"on": false, "note": 64, "velocity": 0, "until": 287.15136108333274}, {"on": true, "note": 64, "velocity": 106, "until": 287.2141225833327}, {"on": false, "note": 64, "velocity": 0, "until": 287.2768840833327}, {"on": true, "note": 64, "velocity": 106, "until": 287.33964558333264}, {"on": false, "note": 64, "velocity": 0, "until": 287.4024070833326}, {"on": true, "note": 64, "velocity": 106, "until": 287.6241808333328}, {"on": false, "note": 64, "velocity": 0, "until": 287.64434208333284}, {"on": true, "note": 64, "velocity": 106, "until": 287.866115833333}, {"on": false, "note": 64, "velocity": 0, "until": 287.8862770833331}, {"on": true, "note": 64, "velocity": 106, "until": 287.94903858333305}, {"on": false, "note": 64, "velocity": 0, "until": 288.011800083333}, {"on": true, "note": 64, "velocity": 106, "until": 288.074561583333}, {"on": false, "note": 64, "velocity": 0, "until": 288.13732308333294}, {"on": true, "note": 64, "velocity": 106, "until": 288.2000845833329}, {"on": false, "note": 64, "velocity": 0, "until": 288.2628460833329}, {"on": true, "note": 64, "velocity": 106, "until": 288.32560758333284}, {"on": false, "note": 64, "velocity": 0, "until": 288.3883690833328}, {"on": true, "note": 64, "velocity": 106, "until": 288.610142833333}, {"on": false, "note": 64, "velocity": 0, "until": 288.63030408333304}, {"on": true, "note": 64, "velocity": 106, "until": 288.7855457083332}, {"on": false, "note": 64, "velocity": 0, "until": 288.8722390833333}, {"on": true, "note": 62, "velocity": 106, "until": 288.9350005833331}, {"on": false, "note": 62, "velocity": 0, "until": 288.9977620833328}, {"on": true, "note": 62, "velocity": 106, "until": 289.0605235833326}, {"on": false, "note": 62, "velocity": 0, "until": 289.1232850833324}, {"on": true, "note": 62, "velocity": 106, "until": 289.18604658333226}, {"on": false, "note": 62, "velocity": 0, "until": 289.24880808333205}, {"on": true, "note": 62, "velocity": 106, "until": 289.3115695833319}, {"on": false, "note": 62, "velocity": 0, "until": 289.37433108333175}, {"on": true, "note": 62, "velocity": 106, "until": 289.5961048333318}, {"on": false, "note": 62, "velocity": 0, "until": 289.6162660833319}, {"on": true, "note": 62, "velocity": 106, "until": 289.83803983333195}, {"on": false, "note": 62, "velocity": 0, "until": 289.858201083332}, {"on": true, "note": 62, "velocity": 106, "until": 289.98372408333194}, {"on": false, "note": 62, "velocity": 0, "until": 290.10924708333187}, {"on": true, "note": 66, "velocity": 91, "until": 290.2347700833318}, {"on": false, "note": 66, "velocity": 0, "until": 290.3602930833317}, {"on": true, "note": 67, "velocity": 91, "until": 290.4812605833318}, {"on": false, "note": 67, "velocity": 0, "until": 290.60222808333185}, {"on": true, "note": 62, "velocity": 91, "until": 290.7231955833319}, {"on": false, "note": 62, "velocity": 0, "until": 290.844163083332}, {"on": true, "note": 62, "velocity": 106, "until": 290.9069245833319}, {"on": false, "note": 62, "velocity": 0, "until": 290.9696860833317}, {"on": true, "note": 62, "velocity": 106, "until": 291.0324475833316}, {"on": false, "note": 62, "velocity": 0, "until": 291.0952090833314}, {"on": true, "note": 62, "velocity": 106, "until": 291.1579705833313}, {"on": false, "note": 62, "velocity": 0, "until": 291.2207320833312}, {"on": true, "note": 62, "velocity": 106, "until": 291.2834935833311}, {"on": false, "note": 62, "velocity": 0, "until": 291.346255083331}, {"on": true, "note": 62, "velocity": 106, "until": 291.5680288333311}, {"on": false, "note": 62, "velocity": 0, "until": 291.58819008333114}, {"on": true, "note": 62, "velocity": 106, "until": 291.8099638333312}, {"on": false, "note": 62, "velocity": 0, "until": 291.83012508333127}, {"on": true, "note": 62, "velocity": 106, "until": 291.9556480833312}, {"on": false, "note": 62, "velocity": 0, "until": 292.0811710833311}, {"on": true, "note": 66, "velocity": 91, "until": 292.20669408333106}, {"on": false, "note": 66, "velocity": 0, "until": 292.332217083331}, {"on": true, "note": 67, "velocity": 91, "until": 292.57415208333106}, {"on": false, "note": 67, "velocity": 0, "until": 292.8571700833311}, {"on": true, "note": 62, "velocity": 106, "until": 292.9212725833311}, {"on": false, "note": 62, "velocity": 0, "until": 292.98537508333106}, {"on": true, "note": 62, "velocity": 106, "until": 293.04947758333105}, {"on": false, "note": 62, "velocity": 0, "until": 293.11358008333104}, {"on": true, "note": 62, "velocity": 106, "until": 293.17768258333103}, {"on": false, "note": 62, "velocity": 0, "until": 293.241785083331}, {"on": true, "note": 62, "velocity": 106, "until": 293.305887583331}, {"on": false, "note": 62, "velocity": 0, "until": 293.369990083331}, {"on": true, "note": 62, "velocity": 106, "until": 293.5944789999977}, {"on": false, "note": 62, "velocity": 0, "until": 293.61488708333104}, {"on": true, "note": 62, "velocity": 106, "until": 293.83937599999774}, {"on": false, "note": 62, "velocity": 0, "until": 293.8597840833311}, {"on": true, "note": 62, "velocity": 106, "until": 293.923886583331}, {"on": false, "note": 62, "velocity": 0, "until": 293.987989083331}, {"on": true, "note": 62, "velocity": 106, "until": 294.052091583331}, {"on": false, "note": 62, "velocity": 0, "until": 294.116194083331}, {"on": true, "note": 62, "velocity": 106, "until": 294.18029658333097}, {"on": false, "note": 62, "velocity": 0, "until": 294.24439908333096}, {"on": true, "note": 62, "velocity": 106, "until": 294.30850158333095}, {"on": false, "note": 62, "velocity": 0, "until": 294.37260408333094}, {"on": true, "note": 62, "velocity": 106, "until": 294.59709299999764}, {"on": false, "note": 62, "velocity": 0, "until": 294.617501083331}, {"on": true, "note": 62, "velocity": 106, "until": 294.8419899999977}, {"on": false, "note": 62, "velocity": 0, "until": 294.862398083331}, {"on": true, "note": 63, "velocity": 106, "until": 294.92650058333095}, {"on": false, "note": 63, "velocity": 0, "until": 294.99060308333094}, {"on": true, "note": 63, "velocity": 106, "until": 295.05470558333093}, {"on": false, "note": 63, "velocity": 0, "until": 295.1188080833309}, {"on": true, "note": 63, "velocity": 106, "until": 295.1829105833309}, {"on": false, "note": 63, "velocity": 0, "until": 295.2470130833309}, {"on": true, "note": 63, "velocity": 106, "until": 295.3111155833309}, {"on": false, "note": 63, "velocity": 0, "until": 295.3752180833309}, {"on": true, "note": 63, "velocity": 106, "until": 295.5997069999976}, {"on": false, "note": 63, "velocity": 0, "until": 295.6201150833309}, {"on": true, "note": 63, "velocity": 106, "until": 295.8446039999976}, {"on": false, "note": 63, "velocity": 0, "until": 295.86501208333095}, {"on": true, "note": 63, "velocity": 106, "until": 295.9291145833309}, {"on": false, "note": 63, "velocity": 0, "until": 295.9932170833309}, {"on": true, "note": 63, "velocity": 106, "until": 296.05731958333087}, {"on": false, "note": 63, "velocity": 0, "until": 296.12142208333086}, {"on": true, "note": 63, "velocity": 106, "until": 296.18552458333085}, {"on": false, "note": 63, "velocity": 0, "until": 296.24962708333084}, {"on": true, "note": 63, "velocity": 106, "until": 296.3137295833308}, {"on": false, "note": 63, "velocity": 0, "until": 296.3778320833308}, {"on": true, "note": 61, "velocity": 106, "until": 296.6023209999975}, {"on": false, "note": 61, "velocity": 0, "until": 296.62272908333085}, {"on": true, "note": 61, "velocity": 106, "until": 296.84721799999755}, {"on": false, "note": 61, "velocity": 0, "until": 296.8676260833309}, {"on": true, "note": 60, "velocity": 106, "until": 296.9317285833308}, {"on": false, "note": 60, "velocity": 0, "until": 296.9958310833308}, {"on": true, "note": 60, "velocity": 106, "until": 297.0599335833307}, {"on": false, "note": 60, "velocity": 0, "until": 297.1240360833307}, {"on": true, "note": 60, "velocity": 106, "until": 297.1881385833307}, {"on": false, "note": 60, "velocity": 0, "until": 297.2522410833308}, {"on": true, "note": 60, "velocity": 106, "until": 297.31634358333076}, {"on": false, "note": 60, "velocity": 0, "until": 297.38044608333075}, {"on": true, "note": 60, "velocity": 106, "until": 297.6049349999974}, {"on": false, "note": 60, "velocity": 0, "until": 297.62534308333073}, {"on": true, "note": 65, "velocity": 106, "until": 297.84983199999743}, {"on": false, "note": 65, "velocity": 0, "until": 297.87024008333077}, {"on": true, "note": 65, "velocity": 106, "until": 297.99844508333075}, {"on": false, "note": 65, "velocity": 0, "until": 298.12665008333073}, {"on": true, "note": 69, "velocity": 91, "until": 298.2548550833307}, {"on": false, "note": 69, "velocity": 0, "until": 298.3830600833307}, {"on": true, "note": 70, "velocity": 91, "until": 298.5055085833307}, {"on": false, "note": 70, "velocity": 0, "until": 298.6279570833307}, {"on": true, "note": 65, "velocity": 91, "until": 298.75040558333075}, {"on": false, "note": 65, "velocity": 0, "until": 298.87285408333076}, {"on": true, "note": 65, "velocity": 106, "until": 298.93695658333075}, {"on": false, "note": 65, "velocity": 0, "until": 299.00105908333074}, {"on": true, "note": 65, "velocity": 106, "until": 299.06516158333073}, {"on": false, "note": 65, "velocity": 0, "until": 299.12926408333067}, {"on": true, "note": 65, "velocity": 106, "until": 299.1933665833307}, {"on": false, "note": 65, "velocity": 0, "until": 299.2574690833307}, {"on": true, "note": 65, "velocity": 106, "until": 299.3215715833307}, {"on": false, "note": 65, "velocity": 0, "until": 299.3856740833307}, {"on": true, "note": 65, "velocity": 106, "until": 299.6101629999973}, {"on": false, "note": 65, "velocity": 0, "until": 299.63057108333066}, {"on": true, "note": 65, "velocity": 106, "until": 299.85505999999737}, {"on": false, "note": 65, "velocity": 0, "until": 299.8754680833307}, {"on": true, "note": 65, "velocity": 106, "until": 300.0036730833307}, {"on": false, "note": 65, "velocity": 0, "until": 300.13187808333066}, {"on": true, "note": 69, "velocity": 91, "until": 300.26008308333064}, {"on": false, "note": 69, "velocity": 0, "until": 300.3882880833306}, {"on": true, "note": 70, "velocity": 91, "until": 300.6331850833306}, {"on": false, "note": 70, "velocity": 0, "until": 300.90591208333063}, {"on": true, "note": 62, "velocity": 106, "until": 301.2824810833301}, {"on": false, "note": 62, "velocity": 0, "until": 301.2824810833301}, {"on": true, "note": 63, "velocity": 106, "until": 301.40800408333}, {"on": false, "note": 63, "velocity": 0, "until": 301.40800408333}, {"on": true, "note": 62, "velocity": 106, "until": 301.6297778333301}, {"on": false, "note": 62, "velocity": 0, "until": 301.64993908333014}, {"on": true, "note": 60, "velocity": 106, "until": 301.7709065833302}, {"on": false, "note": 60, "velocity": 0, "until": 301.89187408333026}, {"on": true, "note": 58, "velocity": 106, "until": 302.0173970833302}, {"on": false, "note": 58, "velocity": 0, "until": 302.0173970833302}, {"on": true, "note": 62, "velocity": 106, "until": 302.12199958333014}, {"on": false, "note": 62, "velocity": 0, "until": 302.14292008333007}, {"on": true, "note": 60, "velocity": 106, "until": 302.20568158333003}, {"on": false, "note": 60, "velocity": 0, "until": 302.26844308333}, {"on": true, "note": 57, "velocity": 106, "until": 302.33120458332996}, {"on": false, "note": 57, "velocity": 0, "until": 302.39396608332993}, {"on": true, "note": 55, "velocity": 106, "until": 302.63590108333}, {"on": false, "note": 55, "velocity": 0, "until": 304.84976008333}, {"on": true, "note": 62, "velocity": 106, "until": 305.2216595833303}, {"on": false, "note": 62, "velocity": 0, "until": 305.2216595833303}, {"on": true, "note": 63, "velocity": 106, "until": 305.34562608333033}, {"on": false, "note": 63, "velocity": 0, "until": 305.34562608333033}, {"on": true, "note": 62, "velocity": 106, "until": 305.5630172499969}, {"on": false, "note": 62, "velocity": 0, "until": 305.5827800833302}, {"on": true, "note": 60, "velocity": 106, "until": 305.70135708333015}, {"on": false, "note": 60, "velocity": 0, "until": 305.8199340833301}, {"on": true, "note": 58, "velocity": 106, "until": 305.94390058333016}, {"on": false, "note": 58, "velocity": 0, "until": 305.94390058333016}, {"on": true, "note": 62, "velocity": 106, "until": 306.04720599999683}, {"on": false, "note": 62, "velocity": 0, "until": 306.0678670833302}, {"on": true, "note": 60, "velocity": 106, "until": 306.12985033333024}, {"on": false, "note": 60, "velocity": 0, "until": 306.19183358333026}, {"on": true, "note": 57, "velocity": 106, "until": 306.2538168333303}, {"on": false, "note": 57, "velocity": 0, "until": 306.3158000833303}, {"on": true, "note": 55, "velocity": 106, "until": 306.55295408333023}, {"on": false, "note": 55, "velocity": 0, "until": 308.73045608333035}, {"on": true, "note": 69, "velocity": 106, "until": 309.0948270833309}, {"on": false, "note": 69, "velocity": 0, "until": 309.0948270833309}, {"on": true, "note": 70, "velocity": 106, "until": 309.2162840833311}, {"on": false, "note": 70, "velocity": 0, "until": 309.2162840833311}, {"on": true, "note": 69, "velocity": 106, "until": 309.4262071666645}, {"on": false, "note": 69, "velocity": 0, "until": 309.44529108333114}, {"on": true, "note": 67, "velocity": 106, "until": 309.5597945833312}, {"on": false, "note": 67, "velocity": 0, "until": 309.6742980833313}, {"on": true, "note": 65, "velocity": 106, "until": 309.79575508333136}, {"on": false, "note": 65, "velocity": 0, "until": 309.79575508333136}, {"on": true, "note": 69, "velocity": 106, "until": 309.89696924999805}, {"on": false, "note": 69, "velocity": 0, "until": 309.9172120833314}, {"on": true, "note": 67, "velocity": 106, "until": 309.9779405833314}, {"on": false, "note": 67, "velocity": 0, "until": 310.0386690833314}, {"on": true, "note": 64, "velocity": 106, "until": 310.09939758333144}, {"on": false, "note": 64, "velocity": 0, "until": 310.1601260833314}, {"on": true, "note": 62, "velocity": 106, "until": 310.38913308333156}, {"on": false, "note": 62, "velocity": 0, "until": 310.6181400833316}, {"on": true, "note": 72, "velocity": 106, "until": 310.9825110833321}, {"on": false, "note": 72, "velocity": 0, "until": 310.9825110833321}, {"on": true, "note": 74, "velocity": 106, "until": 311.10396808333235}, {"on": false, "note": 74, "velocity": 0, "until": 311.10396808333235}, {"on": true, "note": 72, "velocity": 106, "until": 311.31389116666577}, {"on": false, "note": 72, "velocity": 0, "until": 311.3329750833325}, {"on": true, "note": 70, "velocity": 106, "until": 311.44747858333255}, {"on": false, "note": 70, "velocity": 0, "until": 311.5619820833326}, {"on": true, "note": 69, "velocity": 106, "until": 311.6834390833327}, {"on": false, "note": 69, "velocity": 0, "until": 311.6834390833327}, {"on": true, "note": 72, "velocity": 106, "until": 311.7846532499994}, {"on": false, "note": 72, "velocity": 0, "until": 311.8048960833328}, {"on": true, "note": 70, "velocity": 106, "until": 311.8656245833329}, {"on": false, "note": 70, "velocity": 0, "until": 311.92635308333286}, {"on": true, "note": 67, "velocity": 106, "until": 311.9870815833329}, {"on": false, "note": 67, "velocity": 0, "until": 312.04781008333293}, {"on": true, "note": 65, "velocity": 106, "until": 312.27681708333307}, {"on": false, "note": 65, "velocity": 0, "until": 312.50582408333315}, {"on": true, "note": 73, "velocity": 106, "until": 312.50582408333315}, {"on": true, "note": 67, "velocity": 106, "until": 312.7942850833329}, {"on": false, "note": 67, "velocity": 0, "until": 312.7942850833329}, {"on": false, "note": 73, "velocity": 0, "until": 313.77688508333347}, {"on": true, "note": 79, "velocity": 106, "until": 313.90509008333345}, {"on": false, "note": 79, "velocity": 0, "until": 313.90509008333345}, {"on": true, "note": 81, "velocity": 106, "until": 314.0332950833334}, {"on": false, "note": 81, "velocity": 0, "until": 314.0332950833334}, {"on": true, "note": 82, "velocity": 106, "until": 314.15574358333345}, {"on": false, "note": 82, "velocity": 0, "until": 314.15574358333345}, {"on": true, "note": 81, "velocity": 106, "until": 314.27819208333347}, {"on": false, "note": 81, "velocity": 0, "until": 314.27819208333347}, {"on": true, "note": 82, "velocity": 106, "until": 314.4006405833335}, {"on": false, "note": 82, "velocity": 0, "until": 314.4006405833335}, {"on": true, "note": 79, "velocity": 106, "until": 314.50268100000017}, {"on": false, "note": 79, "velocity": 0, "until": 314.5230890833335}, {"on": true, "note": 74, "velocity": 106, "until": 314.6512940833334}, {"on": false, "note": 74, "velocity": 0, "until": 314.6512940833334}, {"on": true, "note": 79, "velocity": 106, "until": 314.7581315833334}, {"on": false, "note": 79, "velocity": 0, "until": 314.7794990833334}, {"on": true, "note": 83, "velocity": 106, "until": 314.84360158333334}, {"on": false, "note": 83, "velocity": 0, "until": 314.90770408333333}, {"on": true, "note": 81, "velocity": 106, "until": 314.9718065833333}, {"on": false, "note": 81, "velocity": 0, "until": 315.0359090833333}, {"on": true, "note": 79, "velocity": 106, "until": 315.1583575833333}, {"on": false, "note": 79, "velocity": 0, "until": 315.1583575833333}, {"on": true, "note": 78, "velocity": 106, "until": 315.260398}, {"on": false, "note": 78, "velocity": 0, "until": 315.28080608333335}, {"on": true, "note": 76, "velocity": 106, "until": 315.34203033333335}, {"on": false, "note": 76, "velocity": 0, "until": 315.40325458333336}, {"on": true, "note": 74, "velocity": 106, "until": 315.4644788333334}, {"on": false, "note": 74, "velocity": 0, "until": 315.5257030833334}, {"on": true, "note": 73, "velocity": 106, "until": 315.6539080833333}, {"on": false, "note": 73, "velocity": 0, "until": 315.6539080833333}, {"on": true, "note": 74, "velocity": 106, "until": 315.7607455833333}, {"on": false, "note": 74, "velocity": 0, "until": 315.7821130833333}, {"on": true, "note": 69, "velocity": 106, "until": 315.8462155833332}, {"on": false, "note": 69, "velocity": 0, "until": 315.9103180833332}, {"on": true, "note": 71, "velocity": 106, "until": 315.9744205833332}, {"on": false, "note": 71, "velocity": 0, "until": 316.0385230833332}, {"on": true, "note": 72, "velocity": 106, "until": 316.16510508333323}, {"on": false, "note": 72, "velocity": 0, "until": 316.16510508333323}, {"on": true, "note": 71, "velocity": 106, "until": 316.2705900833333}, {"on": false, "note": 71, "velocity": 0, "until": 316.2916870833333}, {"on": true, "note": 72, "velocity": 106, "until": 316.3617803333333}, {"on": false, "note": 72, "velocity": 0, "until": 316.4318735833333}, {"on": true, "note": 74, "velocity": 106, "until": 316.5019668333333}, {"on": false, "note": 74, "velocity": 0, "until": 316.5720600833333}, {"on": true, "note": 62, "velocity": 106, "until": 316.7048030833335}, {"on": false, "note": 62, "velocity": 0, "until": 316.7048030833335}, {"on": true, "note": 67, "velocity": 106, "until": 316.8375460833337}, {"on": false, "note": 67, "velocity": 0, "until": 316.8375460833337}, {"on": true, "note": 71, "velocity": 106, "until": 316.9039175833338}, {"on": false, "note": 71, "velocity": 0, "until": 316.9702890833339}, {"on": true, "note": 67, "velocity": 106, "until": 317.03666058333397}, {"on": false, "note": 67, "velocity": 0, "until": 317.10303208333397}, {"on": true, "note": 71, "velocity": 106, "until": 317.2280320833341}, {"on": false, "note": 71, "velocity": 0, "until": 317.2280320833341}, {"on": true, "note": 67, "velocity": 106, "until": 317.35303208333414}, {"on": false, "note": 67, "velocity": 0, "until": 317.35303208333414}, {"on": true, "note": 71, "velocity": 106, "until": 317.41553208333426}, {"on": false, "note": 71, "velocity": 0, "until": 317.47803208333426}, {"on": true, "note": 67, "velocity": 106, "until": 317.54053208333437}, {"on": false, "note": 67, "velocity": 0, "until": 317.60303208333437}, {"on": true, "note": 62, "velocity": 106, "until": 317.73346658333446}, {"on": false, "note": 62, "velocity": 0, "until": 317.73346658333446}, {"on": true, "note": 66, "velocity": 106, "until": 317.8639010833345}, {"on": false, "note": 66, "velocity": 0, "until": 317.8639010833345}, {"on": true, "note": 72, "velocity": 106, "until": 317.9291183333346}, {"on": false, "note": 72, "velocity": 0, "until": 317.99433558333465}, {"on": true, "note": 66, "velocity": 106, "until": 318.0595528333347}, {"on": false, "note": 66, "velocity": 0, "until": 318.12477008333474}, {"on": true, "note": 72, "velocity": 106, "until": 318.2497700833348}, {"on": false, "note": 72, "velocity": 0, "until": 318.2497700833348}, {"on": true, "note": 66, "velocity": 106, "until": 318.3747700833348}, {"on": false, "note": 66, "velocity": 0, "until": 318.3747700833348}, {"on": true, "note": 72, "velocity": 106, "until": 318.43727008333485}, {"on": false, "note": 72, "velocity": 0, "until": 318.49977008333485}, {"on": true, "note": 66, "velocity": 106, "until": 318.56227008333485}, {"on": false, "note": 66, "velocity": 0, "until": 318.62477008333485}, {"on": true, "note": 62, "velocity": 91, "until": 318.75520458333494}, {"on": false, "note": 62, "velocity": 0, "until": 318.75520458333494}, {"on": true, "note": 67, "velocity": 91, "until": 318.885639083335}, {"on": false, "note": 67, "velocity": 0, "until": 318.885639083335}, {"on": true, "note": 71, "velocity": 91, "until": 318.950856333335}, {"on": false, "note": 71, "velocity": 0, "until": 319.01607358333507}, {"on": true, "note": 67, "velocity": 91, "until": 319.0812908333351}, {"on": false, "note": 67, "velocity": 0, "until": 319.14650808333516}, {"on": true, "note": 71, "velocity": 91, "until": 319.2715080833352}, {"on": false, "note": 71, "velocity": 0, "until": 319.2715080833352}, {"on": true, "note": 67, "velocity": 91, "until": 319.3965080833353}, {"on": false, "note": 67, "velocity": 0, "until": 319.3965080833353}, {"on": true, "note": 71, "velocity": 91, "until": 319.45900808333533}, {"on": false, "note": 71, "velocity": 0, "until": 319.52150808333533}, {"on": true, "note": 67, "velocity": 91, "until": 319.5840080833354}, {"on": false, "note": 67, "velocity": 0, "until": 319.6465080833354}, {"on": true, "note": 60, "velocity": 91, "until": 319.7769425833355}, {"on": false, "note": 60, "velocity": 0, "until": 319.7769425833355}, {"on": true, "note": 66, "velocity": 91, "until": 319.9073770833355}, {"on": false, "note": 66, "velocity": 0, "until": 319.9073770833355}, {"on": true, "note": 69, "velocity": 91, "until": 319.9725943333356}, {"on": false, "note": 69, "velocity": 0, "until": 320.03781158333567}, {"on": true, "note": 66, "velocity": 91, "until": 320.1030288333357}, {"on": false, "note": 66, "velocity": 0, "until": 320.16824608333576}, {"on": true, "note": 69, "velocity": 91, "until": 320.2932460833358}, {"on": false, "note": 69, "velocity": 0, "until": 320.2932460833358}, {"on": true, "note": 66, "velocity": 91, "until": 320.4182460833359}, {"on": false, "note": 66, "velocity": 0, "until": 320.4182460833359}, {"on": true, "note": 69, "velocity": 91, "until": 320.48074608333593}, {"on": false, "note": 69, "velocity": 0, "until": 320.54324608333593}, {"on": true, "note": 66, "velocity": 91, "until": 320.60574608333593}, {"on": false, "note": 66, "velocity": 0, "until": 320.668246083336}, {"on": true, "note": 59, "velocity": 106, "until": 320.7986805833361}, {"on": false, "note": 59, "velocity": 0, "until": 320.7986805833361}, {"on": true, "note": 62, "velocity": 106, "until": 320.9291150833361}, {"on": false, "note": 62, "velocity": 0, "until": 320.9291150833361}, {"on": true, "note": 67, "velocity": 106, "until": 320.99433233333616}, {"on": false, "note": 67, "velocity": 0, "until": 321.0595495833362}, {"on": true, "note": 62, "velocity": 106, "until": 321.1247668333363}, {"on": false, "note": 62, "velocity": 0, "until": 321.18998408333636}, {"on": true, "note": 67, "velocity": 106, "until": 321.3149840833364}, {"on": false, "note": 67, "velocity": 0, "until": 321.3149840833364}, {"on": true, "note": 62, "velocity": 106, "until": 321.4399840833364}, {"on": false, "note": 62, "velocity": 0, "until": 321.4399840833364}, {"on": true, "note": 67, "velocity": 106, "until": 321.50248408333647}, {"on": false, "note": 67, "velocity": 0, "until": 321.56498408333647}, {"on": true, "note": 62, "velocity": 106, "until": 321.6274840833365}, {"on": false, "note": 62, "velocity": 0, "until": 321.6899840833365}, {"on": true, "note": 62, "velocity": 106, "until": 321.8204185833366}, {"on": false, "note": 62, "velocity": 0, "until": 321.8204185833366}, {"on": true, "note": 66, "velocity": 106, "until": 321.95085308333665}, {"on": false, "note": 66, "velocity": 0, "until": 321.95085308333665}, {"on": true, "note": 72, "velocity": 106, "until": 322.01607033333676}, {"on": false, "note": 72, "velocity": 0, "until": 322.0812875833368}, {"on": true, "note": 66, "velocity": 106, "until": 322.14650483333685}, {"on": false, "note": 66, "velocity": 0, "until": 322.2117220833369}, {"on": true, "note": 72, "velocity": 106, "until": 322.33672208333695}, {"on": false, "note": 72, "velocity": 0, "until": 322.33672208333695}, {"on": true, "note": 66, "velocity": 106, "until": 322.46172208333695}, {"on": false, "note": 66, "velocity": 0, "until": 322.46172208333695}, {"on": true, "note": 72, "velocity": 106, "until": 322.524222083337}, {"on": false, "note": 72, "velocity": 0, "until": 322.586722083337}, {"on": true, "note": 66, "velocity": 106, "until": 322.649222083337}, {"on": false, "note": 66, "velocity": 0, "until": 322.711722083337}, {"on": true, "note": 62, "velocity": 91, "until": 322.83992708333693}, {"on": false, "note": 62, "velocity": 0, "until": 322.83992708333693}, {"on": true, "note": 67, "velocity": 91, "until": 322.9681320833369}, {"on": false, "note": 67, "velocity": 0, "until": 322.9681320833369}, {"on": true, "note": 71, "velocity": 91, "until": 323.0322345833369}, {"on": false, "note": 71, "velocity": 0, "until": 323.0963370833369}, {"on": true, "note": 67, "velocity": 91, "until": 323.1604395833369}, {"on": false, "note": 67, "velocity": 0, "until": 323.22454208333687}, {"on": true, "note": 71, "velocity": 91, "until": 323.3469905833369}, {"on": false, "note": 71, "velocity": 0, "until": 323.3469905833369}, {"on": true, "note": 67, "velocity": 91, "until": 323.4694390833369}, {"on": false, "note": 67, "velocity": 0, "until": 323.4694390833369}, {"on": true, "note": 71, "velocity": 91, "until": 323.5306633333369}, {"on": false, "note": 71, "velocity": 0, "until": 323.5918875833369}, {"on": true, "note": 67, "velocity": 91, "until": 323.65311183333694}, {"on": false, "note": 67, "velocity": 0, "until": 323.71433608333695}, {"on": true, "note": 60, "velocity": 91, "until": 323.84254108333687}, {"on": false, "note": 60, "velocity": 0, "until": 323.84254108333687}, {"on": true, "note": 66, "velocity": 91, "until": 323.97074608333685}, {"on": false, "note": 66, "velocity": 0, "until": 323.97074608333685}, {"on": true, "note": 69, "velocity": 91, "until": 324.0348485833368}, {"on": false, "note": 69, "velocity": 0, "until": 324.0989510833368}, {"on": true, "note": 66, "velocity": 91, "until": 324.16305358333676}, {"on": false, "note": 66, "velocity": 0, "until": 324.2271560833367}, {"on": true, "note": 69, "velocity": 91, "until": 324.3496045833367}, {"on": false, "note": 69, "velocity": 0, "until": 324.3496045833367}, {"on": true, "note": 66, "velocity": 91, "until": 324.47205308333673}, {"on": false, "note": 66, "velocity": 0, "until": 324.47205308333673}, {"on": true, "note": 69, "velocity": 91, "until": 324.53327733333674}, {"on": false, "note": 69, "velocity": 0, "until": 324.59450158333675}, {"on": true, "note": 66, "velocity": 91, "until": 324.65572583333676}, {"on": false, "note": 66, "velocity": 0, "until": 324.71695008333677}, {"on": true, "note": 59, "velocity": 106, "until": 324.71695008333677}, {"on": true, "note": 67, "velocity": 106, "until": 324.9733600833367}, {"on": false, "note": 67, "velocity": 0, "until": 324.9733600833367}, {"on": false, "note": 59, "velocity": 0, "until": 325.22977008333663}, {"on": true, "note": 68, "velocity": 106, "until": 325.22977008333663}, {"on": true, "note": 59, "velocity": 106, "until": 325.34929158333654}, {"on": false, "note": 59, "velocity": 0, "until": 325.34929158333654}, {"on": false, "note": 68, "velocity": 0, "until": 325.4688130833365}, {"on": true, "note": 68, "velocity": 106, "until": 325.4688130833365}, {"on": true, "note": 59, "velocity": 106, "until": 325.5883345833364}, {"on": false, "note": 59, "velocity": 0, "until": 325.5883345833364}, {"on": false, "note": 68, "velocity": 0, "until": 325.70785608333637}, {"on": true, "note": 69, "velocity": 106, "until": 325.70785608333637}, {"on": true, "note": 60, "velocity": 106, "until": 325.9578560833364}, {"on": false, "note": 60, "velocity": 0, "until": 325.9578560833364}, {"on": false, "note": 69, "velocity": 0, "until": 326.2078560833365}, {"on": true, "note": 71, "velocity": 106, "until": 326.2078560833365}, {"on": true, "note": 65, "velocity": 106, "until": 326.3259660833363}, {"on": false, "note": 65, "velocity": 0, "until": 326.3259660833363}, {"on": false, "note": 71, "velocity": 0, "until": 326.44407608333626}, {"on": true, "note": 71, "velocity": 106, "until": 326.44407608333626}, {"on": true, "note": 65, "velocity": 106, "until": 326.5621860833361}, {"on": false, "note": 65, "velocity": 0, "until": 326.5621860833361}, {"on": false, "note": 71, "velocity": 0, "until": 326.68029608333603}, {"on": true, "note": 64, "velocity": 106, "until": 326.68029608333603}, {"on": true, "note": 72, "velocity": 106, "until": 326.92720908333615}, {"on": false, "note": 72, "velocity": 0, "until": 326.92720908333615}, {"on": false, "note": 64, "velocity": 0, "until": 328.2181150833361}, {"on": true, "note": 76, "velocity": 106, "until": 328.3385227750028}, {"on": false, "note": 76, "velocity": 0, "until": 328.46301208333614}, {"on": true, "note": 76, "velocity": 106, "until": 328.5834197750028}, {"on": false, "note": 76, "velocity": 0, "until": 328.7079090833362}, {"on": true, "note": 68, "velocity": 106, "until": 329.2207290833363}, {"on": false, "note": 68, "velocity": 0, "until": 329.2207290833363}, {"on": true, "note": 69, "velocity": 106, "until": 329.4656260833363}, {"on": false, "note": 69, "velocity": 0, "until": 329.4656260833363}, {"on": true, "note": 71, "velocity": 106, "until": 329.69011500000295}, {"on": false, "note": 71, "velocity": 0, "until": 329.7105230833363}, {"on": true, "note": 74, "velocity": 106, "until": 329.9647600833363}, {"on": false, "note": 74, "velocity": 0, "until": 329.9647600833363}, {"on": true, "note": 72, "velocity": 106, "until": 330.21899708333626}, {"on": false, "note": 72, "velocity": 0, "until": 330.21899708333626}, {"on": true, "note": 75, "velocity": 106, "until": 330.4599600833363}, {"on": false, "note": 75, "velocity": 0, "until": 330.4599600833363}, {"on": true, "note": 76, "velocity": 106, "until": 330.68084283333627}, {"on": false, "note": 76, "velocity": 0, "until": 330.7009230833363}, {"on": true, "note": 67, "velocity": 106, "until": 330.9530230833364}, {"on": false, "note": 67, "velocity": 0, "until": 331.69095108333653}, {"on": true, "note": 66, "velocity": 91, "until": 331.81647408333646}, {"on": false, "note": 66, "velocity": 0, "until": 332.67691308333644}, {"on": true, "note": 67, "velocity": 106, "until": 332.9258750833361}, {"on": false, "note": 67, "velocity": 0, "until": 333.17483708333606}, {"on": true, "note": 68, "velocity": 106, "until": 333.17483708333606}, {"on": true, "note": 59, "velocity": 106, "until": 333.2929470833359}, {"on": false, "note": 59, "velocity": 0, "until": 333.2929470833359}, {"on": false, "note": 68, "velocity": 0, "until": 333.41105708333583}, {"on": true, "note": 59, "velocity": 106, "until": 333.41105708333583}, {"on": true, "note": 68, "velocity": 106, "until": 333.52916708333566}, {"on": false, "note": 68, "velocity": 0, "until": 333.52916708333566}, {"on": false, "note": 59, "velocity": 0, "until": 333.6472770833356}, {"on": true, "note": 60, "velocity": 106, "until": 333.6472770833356}, {"on": true, "note": 69, "velocity": 106, "until": 333.89317808333567}, {"on": false, "note": 69, "velocity": 0, "until": 333.89317808333567}, {"on": false, "note": 60, "velocity": 0, "until": 334.13907908333573}, {"on": true, "note": 65, "velocity": 106, "until": 334.13907908333573}, {"on": true, "note": 71, "velocity": 106, "until": 334.25626658333573}, {"on": false, "note": 71, "velocity": 0, "until": 334.25626658333573}, {"on": false, "note": 65, "velocity": 0, "until": 334.37345408333573}, {"on": true, "note": 71, "velocity": 106, "until": 334.37345408333573}, {"on": true, "note": 65, "velocity": 106, "until": 334.49064158333573}, {"on": false, "note": 65, "velocity": 0, "until": 334.49064158333573}, {"on": false, "note": 71, "velocity": 0, "until": 334.60782908333573}, {"on": true, "note": 72, "velocity": 106, "until": 334.60782908333573}, {"on": true, "note": 64, "velocity": 106, "until": 334.85074308333583}, {"on": false, "note": 64, "velocity": 0, "until": 334.85074308333583}, {"on": false, "note": 72, "velocity": 0, "until": 336.09810908333577}, {"on": true, "note": 72, "velocity": 106, "until": 336.2126125833358}, {"on": false, "note": 72, "velocity": 0, "until": 336.3271160833358}, {"on": true, "note": 72, "velocity": 106, "until": 336.4416195833358}, {"on": false, "note": 72, "velocity": 0, "until": 336.5561230833358}, {"on": true, "note": 82, "velocity": 106, "until": 337.4999650833359}, {"on": false, "note": 82, "velocity": 0, "until": 337.4999650833359}, {"on": true, "note": 81, "velocity": 106, "until": 337.96555025000254}, {"on": false, "note": 81, "velocity": 0, "until": 337.98579308333586}, {"on": true, "note": 81, "velocity": 106, "until": 338.1670902916693}, {"on": false, "note": 81, "velocity": 0, "until": 338.21480008333606}, {"on": true, "note": 81, "velocity": 106, "until": 338.3960972916695}, {"on": false, "note": 81, "velocity": 0, "until": 338.44380708333625}, {"on": true, "note": 83, "velocity": 106, "until": 338.92963508333696}, {"on": false, "note": 83, "velocity": 0, "until": 339.41902408333704}, {"on": true, "note": 78, "velocity": 106, "until": 339.661938083337}, {"on": false, "note": 78, "velocity": 0, "until": 340.3754400833371}, {"on": true, "note": 79, "velocity": 106, "until": 340.61835408333707}, {"on": false, "note": 79, "velocity": 0, "until": 340.86126808333705}, {"on": true, "note": 67, "velocity": 106, "until": 340.9789150833371}, {"on": false, "note": 67, "velocity": 0, "until": 341.0965620833371}, {"on": true, "note": 67, "velocity": 106, "until": 341.21420908333715}, {"on": false, "note": 67, "velocity": 0, "until": 341.3318560833372}, {"on": true, "note": 77, "velocity": 106, "until": 341.8176840833374}, {"on": false, "note": 77, "velocity": 0, "until": 341.8176840833374}, {"on": true, "note": 76, "velocity": 106, "until": 341.9353310833374}, {"on": false, "note": 76, "velocity": 0, "until": 341.9353310833374}, {"on": true, "note": 74, "velocity": 106, "until": 342.05297808333745}, {"on": false, "note": 74, "velocity": 0, "until": 342.05297808333745}, {"on": true, "note": 72, "velocity": 106, "until": 342.1706250833375}, {"on": false, "note": 72, "velocity": 0, "until": 342.1706250833375}, {"on": true, "note": 71, "velocity": 106, "until": 342.28827208333746}, {"on": false, "note": 71, "velocity": 0, "until": 342.28827208333746}, {"on": true, "note": 69, "velocity": 106, "until": 342.5311860833375}, {"on": false, "note": 69, "velocity": 0, "until": 343.24468808333756}, {"on": true, "note": 66, "velocity": 106, "until": 343.36614508333764}, {"on": false, "note": 66, "velocity": 0, "until": 344.20110408333755}, {"on": true, "note": 67, "velocity": 106, "until": 344.44401808333754}, {"on": false, "note": 67, "velocity": 0, "until": 344.6869320833375}, {"on": true, "note": 67, "velocity": 106, "until": 344.8045790833375}, {"on": false, "note": 67, "velocity": 0, "until": 344.9222260833375}, {"on": true, "note": 67, "velocity": 106, "until": 345.03987308333745}, {"on": false, "note": 67, "velocity": 0, "until": 345.15752008333743}, {"on": true, "note": 77, "velocity": 106, "until": 345.6433480833376}, {"on": false, "note": 77, "velocity": 0, "until": 345.6433480833376}, {"on": true, "note": 76, "velocity": 106, "until": 345.76099508333766}, {"on": false, "note": 76, "velocity": 0, "until": 345.76099508333766}, {"on": true, "note": 74, "velocity": 106, "until": 345.8786420833377}, {"on": false, "note": 74, "velocity": 0, "until": 345.8786420833377}, {"on": true, "note": 72, "velocity": 106, "until": 345.99628908333773}, {"on": false, "note": 72, "velocity": 0, "until": 345.99628908333773}, {"on": true, "note": 71, "velocity": 106, "until": 346.1139360833377}, {"on": false, "note": 71, "velocity": 0, "until": 346.1139360833377}, {"on": true, "note": 69, "velocity": 106, "until": 346.35685008333775}, {"on": false, "note": 69, "velocity": 0, "until": 347.0703520833378}, {"on": true, "note": 66, "velocity": 106, "until": 347.31326608333785}, {"on": false, "note": 66, "velocity": 0, "until": 348.0267680833378}, {"on": true, "note": 67, "velocity": 106, "until": 348.2696820833378}, {"on": false, "note": 67, "velocity": 0, "until": 349.00342408333785}, {"on": true, "note": 78, "velocity": 106, "until": 349.00342408333785}, {"on": true, "note": 62, "velocity": 106, "until": 349.00342408333785}, {"on": true, "note": 69, "velocity": 106, "until": 349.2434240833379}, {"on": false, "note": 69, "velocity": 0, "until": 349.2434240833379}, {"on": false, "note": 62, "velocity": 0, "until": 349.2434240833379}, {"on": false, "note": 78, "velocity": 0, "until": 349.9414380833381}, {"on": true, "note": 79, "velocity": 106, "until": 349.9414380833381}, {"on": true, "note": 62, "velocity": 106, "until": 349.9414380833381}, {"on": true, "note": 71, "velocity": 106, "until": 350.1843520833382}, {"on": false, "note": 71, "velocity": 0, "until": 350.1843520833382}, {"on": false, "note": 62, "velocity": 0, "until": 350.1843520833382}, {"on": false, "note": 79, "velocity": 0, "until": 350.88528008333844}, {"on": true, "note": 81, "velocity": 106, "until": 350.88528008333844}, {"on": true, "note": 74, "velocity": 106, "until": 350.88528008333844}, {"on": true, "note": 66, "velocity": 106, "until": 351.1281940833385}, {"on": false, "note": 66, "velocity": 0, "until": 351.1281940833385}, {"on": false, "note": 74, "velocity": 0, "until": 351.1281940833385}, {"on": false, "note": 81, "velocity": 0, "until": 351.8291220833387}, {"on": true, "note": 74, "velocity": 106, "until": 351.8291220833387}, {"on": true, "note": 67, "velocity": 106, "until": 351.8291220833387}, {"on": true, "note": 83, "velocity": 106, "until": 352.0672170833386}, {"on": false, "note": 83, "velocity": 0, "until": 352.0672170833386}, {"on": false, "note": 67, "velocity": 0, "until": 352.0672170833386}, {"on": false, "note": 74, "velocity": 0, "until": 360.96321708334}, {"on": true, "note": 57, "velocity": 106, "until": 361.14590920834}, {"on": false, "note": 57, "velocity": 0, "until": 361.19398608334}, {"on": true, "note": 57, "velocity": 106, "until": 361.39590895834004}, {"on": false, "note": 57, "velocity": 0, "until": 361.4247550833401}, {"on": true, "note": 67, "velocity": 106, "until": 361.89414100000675}, {"on": false, "note": 67, "velocity": 0, "until": 361.9145490833401}, {"on": true, "note": 67, "velocity": 106, "until": 362.0203182083401}, {"on": false, "note": 67, "velocity": 0, "until": 362.0299335833401}, {"on": true, "note": 65, "velocity": 106, "until": 362.1357027083401}, {"on": false, "note": 65, "velocity": 0, "until": 362.1453180833401}, {"on": true, "note": 64, "velocity": 106, "until": 362.2510872083401}, {"on": false, "note": 64, "velocity": 0, "until": 362.2607025833401}, {"on": true, "note": 62, "velocity": 106, "until": 362.3664717083401}, {"on": false, "note": 62, "velocity": 0, "until": 362.3760870833401}, {"on": true, "note": 61, "velocity": 106, "until": 362.8454730000068}, {"on": false, "note": 61, "velocity": 0, "until": 362.8658810833401}, {"on": true, "note": 61, "velocity": 106, "until": 363.0485732083401}, {"on": false, "note": 61, "velocity": 0, "until": 363.0966500833401}, {"on": true, "note": 61, "velocity": 106, "until": 363.2985729583401}, {"on": false, "note": 61, "velocity": 0, "until": 363.32741908334015}, {"on": true, "note": 70, "velocity": 106, "until": 363.7968050000068}, {"on": false, "note": 70, "velocity": 0, "until": 363.81721308334016}, {"on": true, "note": 70, "velocity": 106, "until": 363.92298220834016}, {"on": false, "note": 70, "velocity": 0, "until": 363.93259758334017}, {"on": true, "note": 69, "velocity": 106, "until": 364.03836670834016}, {"on": false, "note": 69, "velocity": 0, "until": 364.0479820833402}, {"on": true, "note": 67, "velocity": 106, "until": 364.15375120834017}, {"on": false, "note": 67, "velocity": 0, "until": 364.1633665833402}, {"on": true, "note": 65, "velocity": 106, "until": 364.2691357083402}, {"on": false, "note": 65, "velocity": 0, "until": 364.2787510833402}, {"on": true, "note": 64, "velocity": 106, "until": 364.74813700000686}, {"on": false, "note": 64, "velocity": 0, "until": 364.7685450833402}, {"on": true, "note": 64, "velocity": 106, "until": 364.95123720834016}, {"on": false, "note": 64, "velocity": 0, "until": 364.99931408334015}, {"on": true, "note": 64, "velocity": 106, "until": 365.2012369583402}, {"on": false, "note": 64, "velocity": 0, "until": 365.2300830833402}, {"on": true, "note": 76, "velocity": 106, "until": 365.6994690000069}, {"on": false, "note": 76, "velocity": 0, "until": 365.71987708334024}, {"on": true, "note": 76, "velocity": 106, "until": 365.82564620834023}, {"on": false, "note": 76, "velocity": 0, "until": 365.83526158334024}, {"on": true, "note": 74, "velocity": 106, "until": 365.94103070834024}, {"on": false, "note": 74, "velocity": 0, "until": 365.95064608334025}, {"on": true, "note": 73, "velocity": 106, "until": 366.05641520834024}, {"on": false, "note": 73, "velocity": 0, "until": 366.06603058334025}, {"on": true, "note": 70, "velocity": 106, "until": 366.17179970834025}, {"on": false, "note": 70, "velocity": 0, "until": 366.18141508334026}, {"on": true, "note": 69, "velocity": 106, "until": 366.42631208334024}, {"on": false, "note": 69, "velocity": 0, "until": 366.6712090833402}, {"on": true, "note": 67, "velocity": 106, "until": 366.90197808334017}, {"on": false, "note": 67, "velocity": 0, "until": 367.1327470833401}, {"on": true, "note": 64, "velocity": 106, "until": 367.3776440833401}, {"on": false, "note": 64, "velocity": 0, "until": 367.6225410833401}, {"on": true, "note": 61, "velocity": 106, "until": 367.85331008334003}, {"on": false, "note": 61, "velocity": 0, "until": 368.08407908334}, {"on": true, "note": 57, "velocity": 106, "until": 368.34956508334005}, {"on": false, "note": 57, "velocity": 0, "until": 373.82885408334016}, {"on": true, "note": 77, "velocity": 106, "until": 374.31864808334024}, {"on": false, "note": 77, "velocity": 0, "until": 374.31864808334024}, {"on": true, "note": 76, "velocity": 106, "until": 374.43403258334024}, {"on": false, "note": 76, "velocity": 0, "until": 374.43403258334024}, {"on": true, "note": 74, "velocity": 106, "until": 374.54941708334024}, {"on": false, "note": 74, "velocity": 0, "until": 374.54941708334024}, {"on": true, "note": 72, "velocity": 106, "until": 374.66480158334025}, {"on": false, "note": 72, "velocity": 0, "until": 374.66480158334025}, {"on": true, "note": 70, "velocity": 106, "until": 374.78018608334025}, {"on": false, "note": 70, "velocity": 0, "until": 374.78018608334025}, {"on": true, "note": 69, "velocity": 106, "until": 374.9026345833403}, {"on": false, "note": 69, "velocity": 0, "until": 375.0250830833403}, {"on": true, "note": 69, "velocity": 106, "until": 375.1475315833403}, {"on": false, "note": 69, "velocity": 0, "until": 375.26998008334033}, {"on": true, "note": 69, "velocity": 106, "until": 375.38536458334033}, {"on": false, "note": 69, "velocity": 0, "until": 375.50074908334034}, {"on": true, "note": 69, "velocity": 106, "until": 375.61613358334034}, {"on": false, "note": 69, "velocity": 0, "until": 375.73151808334035}, {"on": true, "note": 74, "velocity": 106, "until": 376.2213120833404}, {"on": false, "note": 74, "velocity": 0, "until": 376.2213120833404}, {"on": true, "note": 72, "velocity": 106, "until": 376.3366965833404}, {"on": false, "note": 72, "velocity": 0, "until": 376.3366965833404}, {"on": true, "note": 70, "velocity": 106, "until": 376.45208108334043}, {"on": false, "note": 70, "velocity": 0, "until": 376.45208108334043}, {"on": true, "note": 69, "velocity": 106, "until": 376.56746558334044}, {"on": false, "note": 69, "velocity": 0, "until": 376.56746558334044}, {"on": true, "note": 67, "velocity": 106, "until": 376.68285008334044}, {"on": false, "note": 67, "velocity": 0, "until": 376.68285008334044}, {"on": true, "note": 65, "velocity": 106, "until": 376.80529858334046}, {"on": false, "note": 65, "velocity": 0, "until": 376.9277470833405}, {"on": true, "note": 65, "velocity": 106, "until": 377.0501955833405}, {"on": false, "note": 65, "velocity": 0, "until": 377.1726440833405}, {"on": true, "note": 65, "velocity": 106, "until": 377.2880285833405}, {"on": false, "note": 65, "velocity": 0, "until": 377.4034130833405}, {"on": true, "note": 69, "velocity": 106, "until": 377.51879758334053}, {"on": false, "note": 69, "velocity": 0, "until": 377.51879758334053}, {"on": true, "note": 67, "velocity": 106, "until": 377.6149513333405}, {"on": false, "note": 67, "velocity": 0, "until": 377.63418208334053}, {"on": true, "note": 65, "velocity": 106, "until": 377.87907908334057}, {"on": false, "note": 65, "velocity": 0, "until": 377.87907908334057}, {"on": true, "note": 57, "velocity": 106, "until": 378.1239760833406}, {"on": false, "note": 57, "velocity": 0, "until": 378.1239760833406}, {"on": true, "note": 60, "velocity": 106, "until": 378.3547450833406}, {"on": false, "note": 60, "velocity": 0, "until": 378.3547450833406}, {"on": true, "note": 65, "velocity": 106, "until": 378.5662833333406}, {"on": false, "note": 65, "velocity": 0, "until": 378.58551408334057}, {"on": true, "note": 64, "velocity": 106, "until": 378.8304110833406}, {"on": false, "note": 64, "velocity": 0, "until": 378.8304110833406}, {"on": true, "note": 67, "velocity": 106, "until": 379.07530808334064}, {"on": false, "note": 67, "velocity": 0, "until": 379.07530808334064}, {"on": true, "note": 64, "velocity": 106, "until": 379.30607708334065}, {"on": false, "note": 64, "velocity": 0, "until": 379.30607708334065}, {"on": true, "note": 58, "velocity": 106, "until": 379.51761533334064}, {"on": false, "note": 58, "velocity": 0, "until": 379.5368460833406}, {"on": true, "note": 57, "velocity": 106, "until": 379.78174308334064}, {"on": false, "note": 57, "velocity": 0, "until": 379.78174308334064}, {"on": true, "note": 65, "velocity": 106, "until": 380.0266400833407}, {"on": false, "note": 65, "velocity": 0, "until": 380.0266400833407}, {"on": true, "note": 60, "velocity": 106, "until": 380.2583000833406}, {"on": false, "note": 60, "velocity": 0, "until": 380.2583000833406}, {"on": true, "note": 57, "velocity": 106, "until": 380.47065508334066}, {"on": false, "note": 57, "velocity": 0, "until": 380.4899600833407}, {"on": true, "note": 58, "velocity": 106, "until": 380.7358610833408}, {"on": false, "note": 58, "velocity": 0, "until": 380.7358610833408}, {"on": true, "note": 67, "velocity": 106, "until": 380.9817620833409}, {"on": false, "note": 67, "velocity": 0, "until": 380.9817620833409}, {"on": true, "note": 64, "velocity": 106, "until": 381.2161370833409}, {"on": false, "note": 64, "velocity": 0, "until": 381.2161370833409}, {"on": true, "note": 58, "velocity": 106, "until": 381.4309808333409}, {"on": false, "note": 58, "velocity": 0, "until": 381.4505120833409}, {"on": true, "note": 57, "velocity": 106, "until": 381.697425083341}, {"on": false, "note": 57, "velocity": 0, "until": 381.697425083341}, {"on": true, "note": 65, "velocity": 106, "until": 381.94433808334105}, {"on": false, "note": 65, "velocity": 0, "until": 381.94433808334105}, {"on": true, "note": 60, "velocity": 106, "until": 382.1796320833411}, {"on": false, "note": 60, "velocity": 0, "until": 382.1796320833411}, {"on": true, "note": 57, "velocity": 106, "until": 382.3953182500078}, {"on": false, "note": 57, "velocity": 0, "until": 382.41492608334113}, {"on": true, "note": 60, "velocity": 106, "until": 382.6628590833411}, {"on": false, "note": 60, "velocity": 0, "until": 382.6628590833411}, {"on": true, "note": 66, "velocity": 106, "until": 382.9107920833411}, {"on": false, "note": 66, "velocity": 0, "until": 382.9107920833411}, {"on": true, "note": 63, "velocity": 106, "until": 383.1460860833412}, {"on": false, "note": 63, "velocity": 0, "until": 383.1460860833412}, {"on": true, "note": 60, "velocity": 106, "until": 383.36177225000785}, {"on": false, "note": 60, "velocity": 0, "until": 383.3813800833412}, {"on": true, "note": 58, "velocity": 106, "until": 383.630342083341}, {"on": false, "note": 58, "velocity": 0, "until": 383.630342083341}, {"on": true, "note": 67, "velocity": 106, "until": 383.87930408334086}, {"on": false, "note": 67, "velocity": 0, "until": 383.87930408334086}, {"on": true, "note": 62, "velocity": 106, "until": 384.11367908334086}, {"on": false, "note": 62, "velocity": 0, "until": 384.11367908334086}, {"on": true, "note": 58, "velocity": 106, "until": 384.32852283334086}, {"on": false, "note": 58, "velocity": 0, "until": 384.34805408334086}, {"on": true, "note": 58, "velocity": 106, "until": 384.60556408334094}, {"on": false, "note": 58, "velocity": 0, "until": 384.60556408334094}, {"on": true, "note": 67, "velocity": 106, "until": 384.863074083341}, {"on": false, "note": 67, "velocity": 0, "until": 384.863074083341}, {"on": true, "note": 62, "velocity": 106, "until": 385.10500908334103}, {"on": false, "note": 62, "velocity": 0, "until": 385.10500908334103}, {"on": true, "note": 58, "velocity": 106, "until": 385.32678283334104}, {"on": false, "note": 58, "velocity": 0, "until": 385.34694408334104}, {"on": true, "note": 58, "velocity": 106, "until": 385.6055640833411}, {"on": false, "note": 58, "velocity": 0, "until": 385.6055640833411}, {"on": true, "note": 68, "velocity": 106, "until": 385.8641840833412}, {"on": false, "note": 68, "velocity": 0, "until": 385.8641840833412}, {"on": true, "note": 65, "velocity": 106, "until": 386.10808608334116}, {"on": false, "note": 65, "velocity": 0, "until": 386.10808608334116}, {"on": true, "note": 62, "velocity": 106, "until": 386.33166291667453}, {"on": false, "note": 62, "velocity": 0, "until": 386.3519880833412}, {"on": true, "note": 58, "velocity": 106, "until": 386.6083980833411}, {"on": false, "note": 58, "velocity": 0, "until": 386.6083980833411}, {"on": true, "note": 68, "velocity": 106, "until": 386.864808083341}, {"on": false, "note": 68, "velocity": 0, "until": 386.864808083341}, {"on": true, "note": 65, "velocity": 106, "until": 387.10970508334105}, {"on": false, "note": 65, "velocity": 0, "until": 387.10970508334105}, {"on": true, "note": 62, "velocity": 106, "until": 387.33419400000776}, {"on": false, "note": 62, "velocity": 0, "until": 387.3546020833411}, {"on": true, "note": 58, "velocity": 106, "until": 387.61322208334116}, {"on": false, "note": 58, "velocity": 0, "until": 387.61322208334116}, {"on": true, "note": 68, "velocity": 106, "until": 387.8718420833412}, {"on": false, "note": 68, "velocity": 0, "until": 387.8718420833412}, {"on": true, "note": 65, "velocity": 106, "until": 388.11977508334127}, {"on": false, "note": 65, "velocity": 0, "until": 388.11977508334127}, {"on": true, "note": 62, "velocity": 106, "until": 388.34704700000793}, {"on": false, "note": 62, "velocity": 0, "until": 388.36770808334126}, {"on": true, "note": 58, "velocity": 106, "until": 388.62971608334135}, {"on": false, "note": 58, "velocity": 0, "until": 388.62971608334135}, {"on": true, "note": 68, "velocity": 106, "until": 388.89172408334144}, {"on": false, "note": 68, "velocity": 0, "until": 388.89172408334144}, {"on": true, "note": 65, "velocity": 106, "until": 389.1448880833416}, {"on": false, "note": 65, "velocity": 0, "until": 389.1448880833416}, {"on": true, "note": 62, "velocity": 106, "until": 389.37695508334156}, {"on": false, "note": 62, "velocity": 0, "until": 389.39805208334155}, {"on": true, "note": 58, "velocity": 106, "until": 389.65337108334154}, {"on": false, "note": 58, "velocity": 0, "until": 395.3229180833412}, {"on": true, "note": 79, "velocity": 106, "until": 395.3637342500079}, {"on": false, "note": 79, "velocity": 0, "until": 395.3637342500079}, {"on": true, "note": 77, "velocity": 106, "until": 395.4657746666746}, {"on": false, "note": 77, "velocity": 0, "until": 395.56781508334126}, {"on": true, "note": 76, "velocity": 106, "until": 395.6902635833413}, {"on": false, "note": 76, "velocity": 0, "until": 395.8127120833413}, {"on": true, "note": 79, "velocity": 106, "until": 395.8511735833413}, {"on": false, "note": 79, "velocity": 0, "until": 395.8511735833413}, {"on": true, "note": 77, "velocity": 106, "until": 395.94732733334126}, {"on": false, "note": 77, "velocity": 0, "until": 396.04348108334125}, {"on": true, "note": 76, "velocity": 106, "until": 396.15886558334125}, {"on": false, "note": 76, "velocity": 0, "until": 396.27425008334126}, {"on": true, "note": 77, "velocity": 106, "until": 396.76404408334133}, {"on": false, "note": 77, "velocity": 0, "until": 396.76404408334133}, {"on": true, "note": 70, "velocity": 106, "until": 396.9948130833413}, {"on": false, "note": 70, "velocity": 0, "until": 398.1769140833412}, {"on": true, "note": 82, "velocity": 106, "until": 398.8974770833413}, {"on": false, "note": 82, "velocity": 0, "until": 398.8974770833413}, {"on": true, "note": 80, "velocity": 106, "until": 399.01286158334125}, {"on": false, "note": 80, "velocity": 0, "until": 399.01286158334125}, {"on": true, "note": 79, "velocity": 106, "until": 399.12824608334125}, {"on": false, "note": 79, "velocity": 0, "until": 399.12824608334125}, {"on": true, "note": 79, "velocity": 106, "until": 399.1690622500079}, {"on": false, "note": 79, "velocity": 0, "until": 399.1690622500079}, {"on": true, "note": 77, "velocity": 106, "until": 399.2711026666746}, {"on": false, "note": 77, "velocity": 0, "until": 399.3731430833413}, {"on": true, "note": 76, "velocity": 106, "until": 399.4955915833413}, {"on": false, "note": 76, "velocity": 0, "until": 399.6180400833413}, {"on": true, "note": 79, "velocity": 106, "until": 399.6565015833413}, {"on": false, "note": 79, "velocity": 0, "until": 399.6565015833413}, {"on": true, "note": 77, "velocity": 106, "until": 399.7526553333413}, {"on": false, "note": 77, "velocity": 0, "until": 399.8488090833413}, {"on": true, "note": 76, "velocity": 106, "until": 399.9641935833413}, {"on": false, "note": 76, "velocity": 0, "until": 400.0795780833413}, {"on": true, "note": 77, "velocity": 106, "until": 400.56937208334136}, {"on": false, "note": 77, "velocity": 0, "until": 400.56937208334136}, {"on": true, "note": 70, "velocity": 106, "until": 400.8001410833413}, {"on": false, "note": 70, "velocity": 0, "until": 401.9822420833412}, {"on": true, "note": 82, "velocity": 106, "until": 402.7028050833412}, {"on": false, "note": 82, "velocity": 0, "until": 402.7028050833412}, {"on": true, "note": 80, "velocity": 106, "until": 402.81818958334117}, {"on": false, "note": 80, "velocity": 0, "until": 402.81818958334117}, {"on": true, "note": 79, "velocity": 106, "until": 402.91434333334115}, {"on": false, "note": 79, "velocity": 0, "until": 402.93357408334117}, {"on": true, "note": 77, "velocity": 106, "until": 403.42336808334113}, {"on": false, "note": 77, "velocity": 0, "until": 403.42336808334113}, {"on": true, "note": 76, "velocity": 106, "until": 403.66433108334115}, {"on": false, "note": 76, "velocity": 0, "until": 403.66433108334115}, {"on": true, "note": 77, "velocity": 106, "until": 403.7848125833412}, {"on": false, "note": 77, "velocity": 0, "until": 403.7848125833412}, {"on": true, "note": 79, "velocity": 106, "until": 403.8852138333412}, {"on": false, "note": 79, "velocity": 0, "until": 403.9052940833412}, {"on": true, "note": 80, "velocity": 106, "until": 404.0277425833412}, {"on": false, "note": 80, "velocity": 0, "until": 404.8789580833412}, {"on": true, "note": 72, "velocity": 106, "until": 405.37076008334134}, {"on": false, "note": 72, "velocity": 0, "until": 405.37076008334134}, {"on": true, "note": 71, "velocity": 106, "until": 405.6136740833413}, {"on": false, "note": 71, "velocity": 0, "until": 405.6136740833413}, {"on": true, "note": 72, "velocity": 106, "until": 405.73513108334134}, {"on": false, "note": 72, "velocity": 0, "until": 405.73513108334134}, {"on": true, "note": 74, "velocity": 106, "until": 405.83634525000804}, {"on": false, "note": 74, "velocity": 0, "until": 405.85658808334136}, {"on": true, "note": 75, "velocity": 106, "until": 406.1035010833414}, {"on": false, "note": 75, "velocity": 0, "until": 406.8362420833415}, {"on": true, "note": 79, "velocity": 57, "until": 406.9576990833416}, {"on": false, "note": 79, "velocity": 0, "until": 407.0791560833416}, {"on": true, "note": 79, "velocity": 46, "until": 407.2006130833417}, {"on": false, "note": 79, "velocity": 0, "until": 407.8078980833417}, {"on": true, "note": 79, "velocity": 57, "until": 407.9303465833417}, {"on": false, "note": 79, "velocity": 0, "until": 408.0527950833417}, {"on": true, "note": 79, "velocity": 46, "until": 408.17524358334174}, {"on": false, "note": 79, "velocity": 0, "until": 408.7874860833418}, {"on": true, "note": 79, "velocity": 57, "until": 408.9119670833417}, {"on": false, "note": 79, "velocity": 0, "until": 409.03644808334167}, {"on": true, "note": 79, "velocity": 46, "until": 409.1609290833416}, {"on": false, "note": 79, "velocity": 0, "until": 409.78333408334146}, {"on": true, "note": 67, "velocity": 78, "until": 409.9099160833415}, {"on": false, "note": 67, "velocity": 0, "until": 410.03649808334154}, {"on": true, "note": 67, "velocity": 63, "until": 410.1630800833416}, {"on": false, "note": 67, "velocity": 0, "until": 410.7959900833416}, {"on": true, "note": 67, "velocity": 78, "until": 410.9247450833417}, {"on": false, "note": 67, "velocity": 0, "until": 411.05350008334176}, {"on": true, "note": 67, "velocity": 63, "until": 411.1822550833419}, {"on": false, "note": 67, "velocity": 0, "until": 411.82603008334206}, {"on": true, "note": 63, "velocity": 78, "until": 411.95646458334215}, {"on": false, "note": 63, "velocity": 0, "until": 412.08689908334225}, {"on": true, "note": 63, "velocity": 63, "until": 412.2173335833423}, {"on": false, "note": 63, "velocity": 0, "until": 412.8695060833425}, {"on": true, "note": 61, "velocity": 78, "until": 413.0028390833425}, {"on": false, "note": 61, "velocity": 0, "until": 413.1361720833425}, {"on": true, "note": 61, "velocity": 63, "until": 413.2695050833425}, {"on": false, "note": 61, "velocity": 0, "until": 413.93617008334246}, {"on": true, "note": 60, "velocity": 78, "until": 414.07253358334253}, {"on": false, "note": 60, "velocity": 0, "until": 414.20889708334266}, {"on": true, "note": 60, "velocity": 63, "until": 414.34526058334274}, {"on": false, "note": 60, "velocity": 0, "until": 415.02707808334293}, {"on": true, "note": 60, "velocity": 78, "until": 415.16661258334284}, {"on": false, "note": 60, "velocity": 0, "until": 415.30614708334275}, {"on": true, "note": 60, "velocity": 63, "until": 415.44568158334266}, {"on": false, "note": 60, "velocity": 0, "until": 423.02472458334205}, {"on": true, "note": 67, "velocity": 106, "until": 423.12676500000873}, {"on": false, "note": 67, "velocity": 0, "until": 423.14717308334207}, {"on": true, "note": 69, "velocity": 106, "until": 423.24921350000875}, {"on": false, "note": 69, "velocity": 0, "until": 423.2696215833421}, {"on": true, "note": 71, "velocity": 106, "until": 423.37166200000877}, {"on": false, "note": 71, "velocity": 0, "until": 423.3920700833421}, {"on": true, "note": 72, "velocity": 106, "until": 423.488223833342}, {"on": false, "note": 72, "velocity": 0, "until": 423.50745458334194}, {"on": true, "note": 74, "velocity": 106, "until": 423.6036083333418}, {"on": false, "note": 74, "velocity": 0, "until": 423.6228390833418}, {"on": true, "note": 76, "velocity": 106, "until": 423.71899283334164}, {"on": false, "note": 76, "velocity": 0, "until": 423.7382235833416}, {"on": true, "note": 77, "velocity": 106, "until": 423.8343773333415}, {"on": false, "note": 77, "velocity": 0, "until": 423.85360808334144}, {"on": true, "note": 79, "velocity": 106, "until": 424.3331980416748}, {"on": false, "note": 79, "velocity": 0, "until": 424.34340208334146}, {"on": true, "note": 78, "velocity": 106, "until": 424.5741710833414}, {"on": false, "note": 78, "velocity": 0, "until": 424.5741710833414}, {"on": true, "note": 79, "velocity": 106, "until": 424.68955558334136}, {"on": false, "note": 79, "velocity": 0, "until": 424.68955558334136}, {"on": true, "note": 81, "velocity": 106, "until": 424.8049400833413}, {"on": false, "note": 81, "velocity": 0, "until": 424.8049400833413}, {"on": true, "note": 79, "velocity": 106, "until": 425.2947340833413}, {"on": false, "note": 79, "velocity": 0, "until": 425.2947340833413}, {"on": true, "note": 79, "velocity": 106, "until": 425.4101185833413}, {"on": false, "note": 79, "velocity": 0, "until": 425.4101185833413}, {"on": true, "note": 81, "velocity": 106, "until": 425.5255030833413}, {"on": false, "note": 81, "velocity": 0, "until": 425.5255030833413}, {"on": true, "note": 83, "velocity": 106, "until": 425.6408875833413}, {"on": false, "note": 83, "velocity": 0, "until": 425.6408875833413}, {"on": true, "note": 84, "velocity": 106, "until": 425.7562720833413}, {"on": false, "note": 84, "velocity": 0, "until": 425.7562720833413}, {"on": true, "note": 88, "velocity": 106, "until": 425.7962720833413}, {"on": false, "note": 88, "velocity": 0, "until": 425.7962720833413}, {"on": true, "note": 86, "velocity": 106, "until": 425.89627208334133}, {"on": false, "note": 86, "velocity": 0, "until": 425.9962720833414}, {"on": true, "note": 85, "velocity": 106, "until": 426.11627208334147}, {"on": false, "note": 85, "velocity": 0, "until": 426.23627208334153}, {"on": true, "note": 88, "velocity": 106, "until": 426.27627208334155}, {"on": false, "note": 88, "velocity": 0, "until": 426.27627208334155}, {"on": true, "note": 86, "velocity": 106, "until": 426.3762720833415}, {"on": false, "note": 86, "velocity": 0, "until": 426.4762720833416}, {"on": true, "note": 85, "velocity": 106, "until": 426.59627208334166}, {"on": false, "note": 85, "velocity": 0, "until": 426.7162720833417}, {"on": true, "note": 86, "velocity": 106, "until": 427.1962720833418}, {"on": false, "note": 86, "velocity": 0, "until": 427.1962720833418}, {"on": true, "note": 79, "velocity": 106, "until": 427.4270410833418}, {"on": false, "note": 79, "velocity": 0, "until": 427.65781008334193}, {"on": true, "note": 79, "velocity": 106, "until": 428.14760408334195}, {"on": false, "note": 79, "velocity": 0, "until": 428.14760408334195}, {"on": true, "note": 78, "velocity": 106, "until": 428.3783730833419}, {"on": false, "note": 78, "velocity": 0, "until": 428.3783730833419}, {"on": true, "note": 79, "velocity": 106, "until": 428.49375758334185}, {"on": false, "note": 79, "velocity": 0, "until": 428.49375758334185}, {"on": true, "note": 81, "velocity": 106, "until": 428.6091420833418}, {"on": false, "note": 81, "velocity": 0, "until": 428.6091420833418}, {"on": true, "note": 79, "velocity": 106, "until": 429.21432058334176}, {"on": false, "note": 79, "velocity": 0, "until": 429.21432058334176}, {"on": true, "note": 81, "velocity": 106, "until": 429.3297050833417}, {"on": false, "note": 81, "velocity": 0, "until": 429.3297050833417}, {"on": true, "note": 83, "velocity": 106, "until": 429.44508958334166}, {"on": false, "note": 83, "velocity": 0, "until": 429.44508958334166}, {"on": true, "note": 84, "velocity": 106, "until": 429.5604740833416}, {"on": false, "note": 84, "velocity": 0, "until": 429.5604740833416}, {"on": true, "note": 88, "velocity": 106, "until": 429.67858408334155}, {"on": false, "note": 88, "velocity": 0, "until": 429.79669408334144}, {"on": true, "note": 87, "velocity": 106, "until": 429.9148040833414}, {"on": false, "note": 87, "velocity": 0, "until": 430.03291408334127}, {"on": true, "note": 88, "velocity": 106, "until": 430.1510240833412}, {"on": false, "note": 88, "velocity": 0, "until": 430.2691340833411}, {"on": true, "note": 87, "velocity": 106, "until": 430.38724408334105}, {"on": false, "note": 87, "velocity": 0, "until": 430.50535408334093}, {"on": true, "note": 88, "velocity": 106, "until": 430.97779408333986}, {"on": false, "note": 88, "velocity": 0, "until": 432.4376720833399}, {"on": true, "note": 69, "velocity": 106, "until": 432.4988963333399}, {"on": false, "note": 69, "velocity": 0, "until": 432.56012058333994}, {"on": true, "note": 71, "velocity": 106, "until": 432.62134483333995}, {"on": false, "note": 71, "velocity": 0, "until": 432.68256908333996}, {"on": true, "note": 73, "velocity": 106, "until": 432.74379333333997}, {"on": false, "note": 73, "velocity": 0, "until": 432.80501758334}, {"on": true, "note": 74, "velocity": 106, "until": 432.86624183334}, {"on": false, "note": 74, "velocity": 0, "until": 432.92746608334}, {"on": true, "note": 76, "velocity": 106, "until": 432.98515833333994}, {"on": false, "note": 76, "velocity": 0, "until": 433.0428505833399}, {"on": true, "note": 77, "velocity": 106, "until": 433.1005428333399}, {"on": false, "note": 77, "velocity": 0, "until": 433.15823508333983}, {"on": true, "note": 79, "velocity": 106, "until": 433.2159273333398}, {"on": false, "note": 79, "velocity": 0, "until": 433.2736195833398}, {"on": true, "note": 81, "velocity": 106, "until": 433.3313118333398}, {"on": false, "note": 81, "velocity": 0, "until": 433.3890040833397}, {"on": true, "note": 79, "velocity": 106, "until": 433.63390108333977}, {"on": false, "note": 79, "velocity": 0, "until": 434.3403360833398}, {"on": true, "note": 67, "velocity": 106, "until": 434.40156033333983}, {"on": false, "note": 67, "velocity": 0, "until": 434.46278458333984}, {"on": true, "note": 69, "velocity": 106, "until": 434.52400883333985}, {"on": false, "note": 69, "velocity": 0, "until": 434.58523308333986}, {"on": true, "note": 71, "velocity": 106, "until": 434.64645733333987}, {"on": false, "note": 71, "velocity": 0, "until": 434.7076815833399}, {"on": true, "note": 72, "velocity": 106, "until": 434.7689058333399}, {"on": false, "note": 72, "velocity": 0, "until": 434.8301300833399}, {"on": true, "note": 74, "velocity": 106, "until": 434.8878223333398}, {"on": false, "note": 74, "velocity": 0, "until": 434.94551458333973}, {"on": true, "note": 76, "velocity": 106, "until": 435.0032068333397}, {"on": false, "note": 76, "velocity": 0, "until": 435.06089908333956}, {"on": true, "note": 77, "velocity": 106, "until": 435.11859133333945}, {"on": false, "note": 77, "velocity": 0, "until": 435.1762835833394}, {"on": true, "note": 79, "velocity": 106, "until": 435.2339758333394}, {"on": false, "note": 79, "velocity": 0, "until": 435.29166808333935}, {"on": true, "note": 71, "velocity": 106, "until": 435.41411658333936}, {"on": false, "note": 71, "velocity": 0, "until": 435.5365650833394}, {"on": true, "note": 77, "velocity": 106, "until": 436.0122310833392}, {"on": false, "note": 77, "velocity": 0, "until": 436.0122310833392}, {"on": true, "note": 76, "velocity": 106, "until": 436.12761558333915}, {"on": false, "note": 76, "velocity": 0, "until": 436.12761558333915}, {"on": true, "note": 72, "velocity": 106, "until": 436.22376933333913}, {"on": false, "note": 72, "velocity": 0, "until": 436.24300008333915}, {"on": true, "note": 71, "velocity": 106, "until": 436.3654485833392}, {"on": false, "note": 71, "velocity": 0, "until": 436.4878970833392}, {"on": true, "note": 77, "velocity": 106, "until": 436.963563083339}, {"on": false, "note": 77, "velocity": 0, "until": 436.963563083339}, {"on": true, "note": 76, "velocity": 106, "until": 437.07894758333896}, {"on": false, "note": 76, "velocity": 0, "until": 437.07894758333896}, {"on": true, "note": 72, "velocity": 106, "until": 437.17510133333894}, {"on": false, "note": 72, "velocity": 0, "until": 437.19433208333896}, {"on": true, "note": 71, "velocity": 106, "until": 437.316780583339}, {"on": false, "note": 71, "velocity": 0, "until": 437.439229083339}, {"on": true, "note": 77, "velocity": 106, "until": 437.9148950833388}, {"on": false, "note": 77, "velocity": 0, "until": 437.9148950833388}, {"on": true, "note": 76, "velocity": 106, "until": 438.03027958333877}, {"on": false, "note": 76, "velocity": 0, "until": 438.03027958333877}, {"on": true, "note": 72, "velocity": 106, "until": 438.12643333333875}, {"on": false, "note": 72, "velocity": 0, "until": 438.1456640833388}, {"on": true, "note": 79, "velocity": 106, "until": 438.1456640833388}, {"on": true, "note": 71, "velocity": 106, "until": 438.3905610833388}, {"on": false, "note": 71, "velocity": 0, "until": 438.3905610833388}, {"on": false, "note": 79, "velocity": 0, "until": 442.73204708333844}, {"on": true, "note": 76, "velocity": 106, "until": 442.73204708333844}, {"on": true, "note": 70, "velocity": 106, "until": 442.8474315833384}, {"on": false, "note": 70, "velocity": 0, "until": 442.8474315833384}, {"on": false, "note": 76, "velocity": 0, "until": 442.9628160833383}, {"on": true, "note": 77, "velocity": 106, "until": 442.9628160833383}, {"on": true, "note": 69, "velocity": 106, "until": 443.08281608333834}, {"on": false, "note": 69, "velocity": 0, "until": 443.08281608333834}, {"on": false, "note": 77, "velocity": 0, "until": 443.2028160833384}, {"on": true, "note": 76, "velocity": 106, "until": 443.2028160833384}, {"on": true, "note": 70, "velocity": 106, "until": 443.32281608333847}, {"on": false, "note": 70, "velocity": 0, "until": 443.32281608333847}, {"on": false, "note": 76, "velocity": 0, "until": 443.4428160833385}, {"on": true, "note": 77, "velocity": 106, "until": 443.4428160833385}, {"on": true, "note": 69, "velocity": 106, "until": 443.5628160833386}, {"on": false, "note": 69, "velocity": 0, "until": 443.5628160833386}, {"on": false, "note": 77, "velocity": 0, "until": 443.68281608333865}, {"on": true, "note": 76, "velocity": 106, "until": 443.68281608333865}, {"on": true, "note": 70, "velocity": 106, "until": 443.8028160833387}, {"on": false, "note": 70, "velocity": 0, "until": 443.8028160833387}, {"on": false, "note": 76, "velocity": 0, "until": 443.9228160833388}, {"on": true, "note": 77, "velocity": 106, "until": 443.9228160833388}, {"on": true, "note": 69, "velocity": 106, "until": 444.4028160833397}, {"on": false, "note": 69, "velocity": 0, "until": 444.4028160833397}, {"on": false, "note": 77, "velocity": 0, "until": 446.5180470833391}, {"on": true, "note": 86, "velocity": 106, "until": 446.6334315833391}, {"on": false, "note": 86, "velocity": 0, "until": 446.74881608333897}, {"on": true, "note": 88, "velocity": 106, "until": 446.86692608333885}, {"on": false, "note": 88, "velocity": 0, "until": 446.98503608333874}, {"on": true, "note": 86, "velocity": 106, "until": 447.10314608333863}, {"on": false, "note": 86, "velocity": 0, "until": 447.2212560833385}, {"on": true, "note": 88, "velocity": 106, "until": 447.3393660833384}, {"on": false, "note": 88, "velocity": 0, "until": 447.4574760833383}, {"on": true, "note": 86, "velocity": 106, "until": 447.5755860833382}, {"on": false, "note": 86, "velocity": 0, "until": 447.69369608333807}, {"on": true, "note": 88, "velocity": 106, "until": 447.92991608333796}, {"on": false, "note": 88, "velocity": 0, "until": 448.16613608333785}, {"on": true, "note": 86, "velocity": 106, "until": 448.16613608333785}, {"on": true, "note": 74, "velocity": 106, "until": 448.60844333333756}, {"on": false, "note": 74, "velocity": 0, "until": 448.60844333333756}, {"on": false, "note": 86, "velocity": 0, "until": 448.6276740833375}, {"on": true, "note": 85, "velocity": 106, "until": 448.6276740833375}, {"on": true, "note": 73, "velocity": 106, "until": 449.0970600000042}, {"on": false, "note": 73, "velocity": 0, "until": 449.0970600000042}, {"on": false, "note": 85, "velocity": 0, "until": 449.11746808333754}, {"on": true, "note": 84, "velocity": 106, "until": 449.11746808333754}, {"on": true, "note": 74, "velocity": 106, "until": 449.55977533333726}, {"on": false, "note": 74, "velocity": 0, "until": 449.55977533333726}, {"on": false, "note": 84, "velocity": 0, "until": 449.5790060833372}, {"on": true, "note": 83, "velocity": 106, "until": 449.5790060833372}, {"on": true, "note": 74, "velocity": 106, "until": 450.0483920000039}, {"on": false, "note": 74, "velocity": 0, "until": 450.0483920000039}, {"on": false, "note": 83, "velocity": 0, "until": 450.06880008333724}, {"on": true, "note": 82, "velocity": 106, "until": 450.06880008333724}, {"on": true, "note": 74, "velocity": 106, "until": 450.51110733333695}, {"on": false, "note": 74, "velocity": 0, "until": 450.51110733333695}, {"on": false, "note": 82, "velocity": 0, "until": 450.5303380833369}, {"on": true, "note": 80, "velocity": 106, "until": 450.6323785000036}, {"on": false, "note": 80, "velocity": 0, "until": 450.65278658333693}, {"on": true, "note": 80, "velocity": 106, "until": 450.7548270000036}, {"on": false, "note": 80, "velocity": 0, "until": 450.77523508333695}, {"on": true, "note": 80, "velocity": 106, "until": 450.87727550000363}, {"on": false, "note": 80, "velocity": 0, "until": 450.89768358333697}, {"on": true, "note": 80, "velocity": 106, "until": 450.99972400000365}, {"on": false, "note": 80, "velocity": 0, "until": 451.020132083337}, {"on": true, "note": 80, "velocity": 106, "until": 451.1162858333369}, {"on": false, "note": 80, "velocity": 0, "until": 451.13551658333694}, {"on": true, "note": 80, "velocity": 106, "until": 451.2316703333369}, {"on": false, "note": 80, "velocity": 0, "until": 451.25090108333694}, {"on": true, "note": 79, "velocity": 106, "until": 451.34705483333687}, {"on": false, "note": 79, "velocity": 0, "until": 451.3662855833369}, {"on": true, "note": 79, "velocity": 106, "until": 451.4624393333369}, {"on": false, "note": 79, "velocity": 0, "until": 451.4816700833369}, {"on": true, "note": 80, "velocity": 106, "until": 451.5837105000036}, {"on": false, "note": 80, "velocity": 0, "until": 451.6041185833369}, {"on": true, "note": 80, "velocity": 106, "until": 451.7061590000036}, {"on": false, "note": 80, "velocity": 0, "until": 451.72656708333693}, {"on": true, "note": 80, "velocity": 106, "until": 451.8286075000036}, {"on": false, "note": 80, "velocity": 0, "until": 451.84901558333695}, {"on": true, "note": 80, "velocity": 106, "until": 451.95105600000363}, {"on": false, "note": 80, "velocity": 0, "until": 451.97146408333697}, {"on": true, "note": 80, "velocity": 106, "until": 452.0676178333367}, {"on": false, "note": 80, "velocity": 0, "until": 452.08684858333663}, {"on": true, "note": 80, "velocity": 106, "until": 452.18300233333645}, {"on": false, "note": 80, "velocity": 0, "until": 452.20223308333647}, {"on": true, "note": 79, "velocity": 106, "until": 452.2983868333364}, {"on": false, "note": 79, "velocity": 0, "until": 452.3176175833364}, {"on": true, "note": 79, "velocity": 106, "until": 452.4137713333364}, {"on": false, "note": 79, "velocity": 0, "until": 452.4330020833364}, {"on": true, "note": 80, "velocity": 106, "until": 452.5350425000031}, {"on": false, "note": 80, "velocity": 0, "until": 452.55545058333644}, {"on": true, "note": 80, "velocity": 106, "until": 452.6574910000031}, {"on": false, "note": 80, "velocity": 0, "until": 452.67789908333646}, {"on": true, "note": 79, "velocity": 106, "until": 452.77993950000314}, {"on": false, "note": 79, "velocity": 0, "until": 452.8003475833365}, {"on": true, "note": 79, "velocity": 106, "until": 452.90238800000316}, {"on": false, "note": 79, "velocity": 0, "until": 452.9227960833365}, {"on": true, "note": 80, "velocity": 106, "until": 453.0189498333363}, {"on": false, "note": 80, "velocity": 0, "until": 453.0381805833362}, {"on": true, "note": 80, "velocity": 106, "until": 453.13433433333614}, {"on": false, "note": 80, "velocity": 0, "until": 453.15356508333616}, {"on": true, "note": 79, "velocity": 106, "until": 453.2497188333361}, {"on": false, "note": 79, "velocity": 0, "until": 453.2689495833361}, {"on": true, "note": 79, "velocity": 106, "until": 453.3651033333361}, {"on": false, "note": 79, "velocity": 0, "until": 453.38433408333606}, {"on": true, "note": 80, "velocity": 106, "until": 453.48637450000274}, {"on": false, "note": 80, "velocity": 0, "until": 453.5067825833361}, {"on": true, "note": 80, "velocity": 106, "until": 453.60882300000276}, {"on": false, "note": 80, "velocity": 0, "until": 453.6292310833361}, {"on": true, "note": 79, "velocity": 106, "until": 453.7312715000028}, {"on": false, "note": 79, "velocity": 0, "until": 453.7516795833361}, {"on": true, "note": 79, "velocity": 106, "until": 453.8537200000028}, {"on": false, "note": 79, "velocity": 0, "until": 453.87412808333613}, {"on": true, "note": 80, "velocity": 106, "until": 453.97028183333595}, {"on": false, "note": 80, "velocity": 0, "until": 453.98951258333585}, {"on": true, "note": 80, "velocity": 106, "until": 454.0856663333358}, {"on": false, "note": 80, "velocity": 0, "until": 454.1048970833358}, {"on": true, "note": 79, "velocity": 106, "until": 454.2010508333357}, {"on": false, "note": 79, "velocity": 0, "until": 454.22028158333575}, {"on": true, "note": 79, "velocity": 106, "until": 454.31643533333573}, {"on": false, "note": 79, "velocity": 0, "until": 454.3356660833357}, {"on": true, "note": 78, "velocity": 106, "until": 454.4377065000024}, {"on": false, "note": 78, "velocity": 0, "until": 454.4581145833357}, {"on": true, "note": 78, "velocity": 106, "until": 454.5601550000024}, {"on": false, "note": 78, "velocity": 0, "until": 454.58056308333573}, {"on": true, "note": 78, "velocity": 106, "until": 454.6826035000024}, {"on": false, "note": 78, "velocity": 0, "until": 454.70301158333575}, {"on": true, "note": 78, "velocity": 106, "until": 454.80505200000243}, {"on": false, "note": 78, "velocity": 0, "until": 454.82546008333577}, {"on": true, "note": 78, "velocity": 106, "until": 454.9216138333357}, {"on": false, "note": 78, "velocity": 0, "until": 454.9408445833357}, {"on": true, "note": 78, "velocity": 106, "until": 455.0369983333357}, {"on": false, "note": 78, "velocity": 0, "until": 455.0562290833357}, {"on": true, "note": 79, "velocity": 106, "until": 455.15238283333565}, {"on": false, "note": 79, "velocity": 0, "until": 455.17161358333567}, {"on": true, "note": 79, "velocity": 106, "until": 455.26776733333566}, {"on": false, "note": 79, "velocity": 0, "until": 455.2869980833356}, {"on": true, "note": 78, "velocity": 106, "until": 455.3890385000023}, {"on": false, "note": 78, "velocity": 0, "until": 455.40944658333564}, {"on": true, "note": 78, "velocity": 106, "until": 455.5114870000023}, {"on": false, "note": 78, "velocity": 0, "until": 455.53189508333566}, {"on": true, "note": 78, "velocity": 106, "until": 455.63393550000234}, {"on": false, "note": 78, "velocity": 0, "until": 455.6543435833357}, {"on": true, "note": 78, "velocity": 106, "until": 455.75638400000236}, {"on": false, "note": 78, "velocity": 0, "until": 455.7767920833357}, {"on": true, "note": 78, "velocity": 106, "until": 455.8729458333356}, {"on": false, "note": 78, "velocity": 0, "until": 455.89217658333564}, {"on": true, "note": 78, "velocity": 106, "until": 455.9883303333356}, {"on": false, "note": 78, "velocity": 0, "until": 456.00756108333564}, {"on": true, "note": 79, "velocity": 106, "until": 456.1037148333356}, {"on": false, "note": 79, "velocity": 0, "until": 456.1229455833356}, {"on": true, "note": 79, "velocity": 106, "until": 456.2190993333356}, {"on": false, "note": 79, "velocity": 0, "until": 456.23833008333554}, {"on": true, "note": 78, "velocity": 106, "until": 456.3403705000022}, {"on": false, "note": 78, "velocity": 0, "until": 456.36077858333556}, {"on": true, "note": 78, "velocity": 106, "until": 456.46281900000224}, {"on": false, "note": 78, "velocity": 0, "until": 456.4832270833356}, {"on": true, "note": 79, "velocity": 106, "until": 456.58526750000226}, {"on": false, "note": 79, "velocity": 0, "until": 456.6056755833356}, {"on": true, "note": 79, "velocity": 106, "until": 456.7077160000023}, {"on": false, "note": 79, "velocity": 0, "until": 456.7281240833356}, {"on": true, "note": 78, "velocity": 106, "until": 456.82427783333543}, {"on": false, "note": 78, "velocity": 0, "until": 456.84350858333534}, {"on": true, "note": 78, "velocity": 106, "until": 456.93966233333526}, {"on": false, "note": 78, "velocity": 0, "until": 456.9588930833353}, {"on": true, "note": 79, "velocity": 106, "until": 457.0550468333352}, {"on": false, "note": 79, "velocity": 0, "until": 457.07427758333523}, {"on": true, "note": 79, "velocity": 106, "until": 457.1704313333352}, {"on": false, "note": 79, "velocity": 0, "until": 457.1896620833352}, {"on": true, "note": 78, "velocity": 106, "until": 457.29170250000186}, {"on": false, "note": 78, "velocity": 0, "until": 457.3121105833352}, {"on": true, "note": 78, "velocity": 106, "until": 457.4141510000019}, {"on": false, "note": 78, "velocity": 0, "until": 457.4345590833352}, {"on": true, "note": 79, "velocity": 106, "until": 457.5365995000019}, {"on": false, "note": 79, "velocity": 0, "until": 457.55700758333523}, {"on": true, "note": 79, "velocity": 106, "until": 457.6590480000019}, {"on": false, "note": 79, "velocity": 0, "until": 457.67945608333525}, {"on": true, "note": 78, "velocity": 106, "until": 457.77560983333507}, {"on": false, "note": 78, "velocity": 0, "until": 457.794840583335}, {"on": true, "note": 78, "velocity": 106, "until": 457.8909943333349}, {"on": false, "note": 78, "velocity": 0, "until": 457.9102250833349}, {"on": true, "note": 78, "velocity": 106, "until": 458.00637883333485}, {"on": false, "note": 78, "velocity": 0, "until": 458.02560958333487}, {"on": true, "note": 78, "velocity": 106, "until": 458.12176333333485}, {"on": false, "note": 78, "velocity": 0, "until": 458.1409940833348}, {"on": true, "note": 79, "velocity": 106, "until": 458.38589108333485}, {"on": false, "note": 79, "velocity": 0, "until": 458.38589108333485}, {"on": true, "note": 55, "velocity": 106, "until": 458.5083395833349}, {"on": false, "note": 55, "velocity": 0, "until": 458.6307880833349}, {"on": true, "note": 67, "velocity": 106, "until": 459.35219008333445}, {"on": false, "note": 67, "velocity": 0, "until": 459.35219008333445}, {"on": true, "note": 55, "velocity": 106, "until": 459.4766710833344}, {"on": false, "note": 55, "velocity": 0, "until": 459.6011520833343}, {"on": true, "note": 67, "velocity": 106, "until": 460.3292380833343}, {"on": false, "note": 67, "velocity": 0, "until": 460.57923808333436}, {"on": true, "note": 55, "velocity": 106, "until": 461.7998150833346}, {"on": false, "note": 55, "velocity": 0, "until": 461.7998150833346}, {"on": true, "note": 57, "velocity": 106, "until": 461.9232715833346}, {"on": false, "note": 57, "velocity": 0, "until": 461.9232715833346}, {"on": true, "note": 59, "velocity": 106, "until": 462.0467280833346}, {"on": false, "note": 59, "velocity": 0, "until": 462.0467280833346}, {"on": true, "note": 60, "velocity": 106, "until": 462.10948958333455}, {"on": false, "note": 60, "velocity": 0, "until": 462.1722510833345}, {"on": true, "note": 64, "velocity": 106, "until": 462.2350125833345}, {"on": false, "note": 64, "velocity": 0, "until": 462.29777408333445}, {"on": true, "note": 64, "velocity": 106, "until": 462.3605355833344}, {"on": false, "note": 64, "velocity": 0, "until": 462.4232970833344}, {"on": true, "note": 64, "velocity": 106, "until": 462.48605858333434}, {"on": false, "note": 64, "velocity": 0, "until": 462.5488200833343}, {"on": true, "note": 64, "velocity": 106, "until": 462.7705938333344}, {"on": false, "note": 64, "velocity": 0, "until": 462.79075508333443}, {"on": true, "note": 64, "velocity": 106, "until": 463.0125288333345}, {"on": false, "note": 64, "velocity": 0, "until": 463.03269008333456}, {"on": true, "note": 64, "velocity": 106, "until": 463.0954515833345}, {"on": false, "note": 64, "velocity": 0, "until": 463.1582130833345}, {"on": true, "note": 64, "velocity": 106, "until": 463.22097458333445}, {"on": false, "note": 64, "velocity": 0, "until": 463.2837360833344}, {"on": true, "note": 64, "velocity": 106, "until": 463.3464975833344}, {"on": false, "note": 64, "velocity": 0, "until": 463.40925908333435}, {"on": true, "note": 64, "velocity": 106, "until": 463.4720205833343}, {"on": false, "note": 64, "velocity": 0, "until": 463.5347820833343}, {"on": true, "note": 64, "velocity": 106, "until": 463.75655583333435}, {"on": false, "note": 64, "velocity": 0, "until": 463.7767170833344}, {"on": true, "note": 64, "velocity": 106, "until": 463.9984908333345}, {"on": false, "note": 64, "velocity": 0, "until": 464.01865208333453}, {"on": true, "note": 65, "velocity": 106, "until": 464.0814135833345}, {"on": false, "note": 65, "velocity": 0, "until": 464.14417508333446}, {"on": true, "note": 65, "velocity": 106, "until": 464.2069365833344}, {"on": false, "note": 65, "velocity": 0, "until": 464.2696980833344}, {"on": true, "note": 65, "velocity": 106, "until": 464.33245958333436}, {"on": false, "note": 65, "velocity": 0, "until": 464.3952210833343}, {"on": true, "note": 65, "velocity": 106, "until": 464.4579825833343}, {"on": false, "note": 65, "velocity": 0, "until": 464.52074408333425}, {"on": true, "note": 65, "velocity": 106, "until": 464.7425178333343}, {"on": false, "note": 65, "velocity": 0, "until": 464.7626790833344}, {"on": true, "note": 65, "velocity": 106, "until": 464.98445283333444}, {"on": false, "note": 65, "velocity": 0, "until": 465.0046140833345}, {"on": true, "note": 65, "velocity": 106, "until": 465.06737558333447}, {"on": false, "note": 65, "velocity": 0, "until": 465.13013708333443}, {"on": true, "note": 65, "velocity": 106, "until": 465.1928985833344}, {"on": false, "note": 65, "velocity": 0, "until": 465.25566008333436}, {"on": true, "note": 65, "velocity": 106, "until": 465.3184215833343}, {"on": false, "note": 65, "velocity": 0, "until": 465.3811830833343}, {"on": true, "note": 65, "velocity": 106, "until": 465.44394458333426}, {"on": false, "note": 65, "velocity": 0, "until": 465.5067060833342}, {"on": true, "note": 65, "velocity": 106, "until": 465.7284798333343}, {"on": false, "note": 65, "velocity": 0, "until": 465.74864108333435}, {"on": true, "note": 65, "velocity": 106, "until": 465.9704148333344}, {"on": false, "note": 65, "velocity": 0, "until": 465.9905760833345}, {"on": true, "note": 65, "velocity": 106, "until": 466.0533375833343}, {"on": false, "note": 65, "velocity": 0, "until": 466.1160990833341}, {"on": true, "note": 65, "velocity": 106, "until": 466.178860583334}, {"on": false, "note": 65, "velocity": 0, "until": 466.24162208333377}, {"on": true, "note": 65, "velocity": 106, "until": 466.30438358333356}, {"on": false, "note": 65, "velocity": 0, "until": 466.3671450833334}, {"on": true, "note": 65, "velocity": 106, "until": 466.4299065833333}, {"on": false, "note": 65, "velocity": 0, "until": 466.4926680833332}, {"on": true, "note": 65, "velocity": 106, "until": 466.71444183333324}, {"on": false, "note": 65, "velocity": 0, "until": 466.7346030833333}, {"on": true, "note": 62, "velocity": 106, "until": 466.95637683333337}, {"on": false, "note": 62, "velocity": 0, "until": 466.9765380833334}, {"on": true, "note": 64, "velocity": 106, "until": 467.10206108333335}, {"on": false, "note": 64, "velocity": 0, "until": 467.2275840833333}, {"on": true, "note": 65, "velocity": 91, "until": 467.3531070833332}, {"on": false, "note": 65, "velocity": 0, "until": 467.47863008333314}, {"on": true, "note": 64, "velocity": 91, "until": 467.5995975833332}, {"on": false, "note": 64, "velocity": 0, "until": 467.72056508333327}, {"on": true, "note": 64, "velocity": 91, "until": 467.84153258333333}, {"on": false, "note": 64, "velocity": 0, "until": 467.9625000833334}, {"on": true, "note": 65, "velocity": 106, "until": 468.02526158333325}, {"on": false, "note": 65, "velocity": 0, "until": 468.08802308333304}, {"on": true, "note": 65, "velocity": 106, "until": 468.1507845833329}, {"on": false, "note": 65, "velocity": 0, "until": 468.2135460833327}, {"on": true, "note": 65, "velocity": 106, "until": 468.2763075833325}, {"on": false, "note": 65, "velocity": 0, "until": 468.33906908333233}, {"on": true, "note": 65, "velocity": 106, "until": 468.40183058333224}, {"on": false, "note": 65, "velocity": 0, "until": 468.4645920833321}, {"on": true, "note": 65, "velocity": 106, "until": 468.68636583333216}, {"on": false, "note": 65, "velocity": 0, "until": 468.7065270833322}, {"on": true, "note": 62, "velocity": 106, "until": 468.9283008333323}, {"on": false, "note": 62, "velocity": 0, "until": 468.94846208333234}, {"on": true, "note": 64, "velocity": 106, "until": 469.0739850833323}, {"on": false, "note": 64, "velocity": 0, "until": 469.1995080833322}, {"on": true, "note": 65, "velocity": 91, "until": 469.32503108333214}, {"on": false, "note": 65, "velocity": 0, "until": 469.45055408333207}, {"on": true, "note": 64, "velocity": 91, "until": 469.5715215833321}, {"on": false, "note": 64, "velocity": 0, "until": 469.97550708333216}, {"on": true, "note": 63, "velocity": 106, "until": 470.03960958333215}, {"on": false, "note": 63, "velocity": 0, "until": 470.10371208333214}, {"on": true, "note": 63, "velocity": 106, "until": 470.16781458333213}, {"on": false, "note": 63, "velocity": 0, "until": 470.2319170833321}, {"on": true, "note": 63, "velocity": 106, "until": 470.29601958333205}, {"on": false, "note": 63, "velocity": 0, "until": 470.36012208333204}, {"on": true, "note": 63, "velocity": 106, "until": 470.424224583332}, {"on": false, "note": 63, "velocity": 0, "until": 470.48832708333197}, {"on": true, "note": 63, "velocity": 106, "until": 470.71281599999867}, {"on": false, "note": 63, "velocity": 0, "until": 470.733224083332}, {"on": true, "note": 63, "velocity": 106, "until": 470.9577129999987}, {"on": false, "note": 63, "velocity": 0, "until": 470.97812108333204}, {"on": true, "note": 63, "velocity": 106, "until": 471.042223583332}, {"on": false, "note": 63, "velocity": 0, "until": 471.106326083332}, {"on": true, "note": 63, "velocity": 106, "until": 471.170428583332}, {"on": false, "note": 63, "velocity": 0, "until": 471.23453108333206}, {"on": true, "note": 63, "velocity": 106, "until": 471.298633583332}, {"on": false, "note": 63, "velocity": 0, "until": 471.36273608333204}, {"on": true, "note": 63, "velocity": 106, "until": 471.42683858333197}, {"on": false, "note": 63, "velocity": 0, "until": 471.490941083332}, {"on": true, "note": 63, "velocity": 106, "until": 471.7154299999987}, {"on": false, "note": 63, "velocity": 0, "until": 471.73583808333206}, {"on": true, "note": 63, "velocity": 106, "until": 471.96032699999876}, {"on": false, "note": 63, "velocity": 0, "until": 471.9807350833321}, {"on": true, "note": 63, "velocity": 106, "until": 472.044837583332}, {"on": false, "note": 63, "velocity": 0, "until": 472.1089400833321}, {"on": true, "note": 63, "velocity": 106, "until": 472.17304258333206}, {"on": false, "note": 63, "velocity": 0, "until": 472.2371450833321}, {"on": true, "note": 63, "velocity": 106, "until": 472.30124758333204}, {"on": false, "note": 63, "velocity": 0, "until": 472.3653500833321}, {"on": true, "note": 63, "velocity": 106, "until": 472.429452583332}, {"on": false, "note": 63, "velocity": 0, "until": 472.49355508333207}, {"on": true, "note": 63, "velocity": 106, "until": 472.71804399999877}, {"on": false, "note": 63, "velocity": 0, "until": 472.7384520833321}, {"on": true, "note": 63, "velocity": 106, "until": 472.9629409999988}, {"on": false, "note": 63, "velocity": 0, "until": 472.98334908333214}, {"on": true, "note": 63, "velocity": 106, "until": 473.0474515833321}, {"on": false, "note": 63, "velocity": 0, "until": 473.1115540833321}, {"on": true, "note": 63, "velocity": 106, "until": 473.1756565833321}, {"on": false, "note": 63, "velocity": 0, "until": 473.23975908333216}, {"on": true, "note": 63, "velocity": 106, "until": 473.3038615833321}, {"on": false, "note": 63, "velocity": 0, "until": 473.36796408333214}, {"on": true, "note": 63, "velocity": 106, "until": 473.4320665833321}, {"on": false, "note": 63, "velocity": 0, "until": 473.4961690833321}, {"on": true, "note": 63, "velocity": 106, "until": 473.7206579999988}, {"on": false, "note": 63, "velocity": 0, "until": 473.74106608333216}, {"on": true, "note": 63, "velocity": 106, "until": 473.96555499999886}, {"on": false, "note": 63, "velocity": 0, "until": 473.9859630833322}, {"on": true, "note": 62, "velocity": 106, "until": 474.05006558333207}, {"on": false, "note": 62, "velocity": 0, "until": 474.114168083332}, {"on": true, "note": 62, "velocity": 106, "until": 474.178270583332}, {"on": false, "note": 62, "velocity": 0, "until": 474.2423730833319}, {"on": true, "note": 62, "velocity": 106, "until": 474.3064755833319}, {"on": false, "note": 62, "velocity": 0, "until": 474.37057808333185}, {"on": true, "note": 62, "velocity": 106, "until": 474.4346805833318}, {"on": false, "note": 62, "velocity": 0, "until": 474.49878308333166}, {"on": true, "note": 62, "velocity": 106, "until": 474.7232719999983}, {"on": false, "note": 62, "velocity": 0, "until": 474.74368008333164}, {"on": true, "note": 62, "velocity": 106, "until": 474.96816899999834}, {"on": false, "note": 62, "velocity": 0, "until": 474.9885770833317}, {"on": true, "note": 63, "velocity": 106, "until": 475.1167820833316}, {"on": false, "note": 63, "velocity": 0, "until": 475.2449870833315}, {"on": true, "note": 62, "velocity": 91, "until": 475.37319208333145}, {"on": false, "note": 62, "velocity": 0, "until": 475.50139708333137}, {"on": true, "note": 63, "velocity": 91, "until": 475.6238455833314}, {"on": false, "note": 63, "velocity": 0, "until": 475.7462940833314}, {"on": true, "note": 63, "velocity": 91, "until": 475.8687425833314}, {"on": false, "note": 63, "velocity": 0, "until": 475.99119108333144}, {"on": true, "note": 62, "velocity": 106, "until": 476.0552935833313}, {"on": false, "note": 62, "velocity": 0, "until": 476.11939608333125}, {"on": true, "note": 62, "velocity": 106, "until": 476.18349858333124}, {"on": false, "note": 62, "velocity": 0, "until": 476.2476010833312}, {"on": true, "note": 62, "velocity": 106, "until": 476.31170358333117}, {"on": false, "note": 62, "velocity": 0, "until": 476.3758060833311}, {"on": true, "note": 62, "velocity": 106, "until": 476.43990858333103}, {"on": false, "note": 62, "velocity": 0, "until": 476.5040110833309}, {"on": true, "note": 62, "velocity": 106, "until": 476.6264595833309}, {"on": false, "note": 62, "velocity": 0, "until": 476.74890808333095}, {"on": true, "note": 62, "velocity": 106, "until": 476.87135658333096}, {"on": false, "note": 62, "velocity": 0, "until": 476.993805083331}, {"on": true, "note": 63, "velocity": 106, "until": 477.1220100833309}, {"on": false, "note": 63, "velocity": 0, "until": 477.25021508333083}, {"on": true, "note": 62, "velocity": 91, "until": 477.37842008333075}, {"on": false, "note": 62, "velocity": 0, "until": 477.5066250833307}, {"on": true, "note": 63, "velocity": 91, "until": 477.75152208333066}, {"on": false, "note": 63, "velocity": 0, "until": 478.0242490833307}, {"on": true, "note": 67, "velocity": 106, "until": 478.0242490833307}, {"on": true, "note": 55, "velocity": 106, "until": 478.40081808333014}, {"on": false, "note": 55, "velocity": 0, "until": 478.40081808333014}, {"on": false, "note": 67, "velocity": 0, "until": 478.40081808333014}, {"on": true, "note": 68, "velocity": 106, "until": 478.52634108332995}, {"on": false, "note": 68, "velocity": 0, "until": 478.52634108332995}, {"on": true, "note": 67, "velocity": 106, "until": 478.74811483333}, {"on": false, "note": 67, "velocity": 0, "until": 478.7682760833301}, {"on": true, "note": 65, "velocity": 106, "until": 478.88924358333014}, {"on": false, "note": 65, "velocity": 0, "until": 479.0102110833302}, {"on": true, "note": 63, "velocity": 106, "until": 479.13573408333014}, {"on": false, "note": 63, "velocity": 0, "until": 479.13573408333014}, {"on": true, "note": 67, "velocity": 106, "until": 479.2403365833301}, {"on": false, "note": 67, "velocity": 0, "until": 479.26125708333}, {"on": true, "note": 65, "velocity": 106, "until": 479.32401858333}, {"on": false, "note": 65, "velocity": 0, "until": 479.38678008332994}, {"on": true, "note": 62, "velocity": 106, "until": 479.4495415833299}, {"on": false, "note": 62, "velocity": 0, "until": 479.51230308332987}, {"on": true, "note": 60, "velocity": 106, "until": 479.75423808332994}, {"on": false, "note": 60, "velocity": 0, "until": 481.9680970833294}, {"on": true, "note": 67, "velocity": 106, "until": 482.3399965833294}, {"on": false, "note": 67, "velocity": 0, "until": 482.3399965833294}, {"on": true, "note": 68, "velocity": 106, "until": 482.4639630833294}, {"on": false, "note": 68, "velocity": 0, "until": 482.4639630833294}, {"on": true, "note": 67, "velocity": 106, "until": 482.681354249996}, {"on": false, "note": 67, "velocity": 0, "until": 482.7011170833293}, {"on": true, "note": 65, "velocity": 106, "until": 482.8196940833292}, {"on": false, "note": 65, "velocity": 0, "until": 482.9382710833291}, {"on": true, "note": 63, "velocity": 106, "until": 483.06223758332914}, {"on": false, "note": 63, "velocity": 0, "until": 483.06223758332914}, {"on": true, "note": 67, "velocity": 106, "until": 483.1655429999958}, {"on": false, "note": 67, "velocity": 0, "until": 483.1862040833292}, {"on": true, "note": 65, "velocity": 106, "until": 483.2481873333292}, {"on": false, "note": 65, "velocity": 0, "until": 483.31017058332924}, {"on": true, "note": 62, "velocity": 106, "until": 483.37215383332926}, {"on": false, "note": 62, "velocity": 0, "until": 483.4341370833293}, {"on": true, "note": 60, "velocity": 106, "until": 483.67129108332915}, {"on": false, "note": 60, "velocity": 0, "until": 485.84879308332904}, {"on": true, "note": 62, "velocity": 106, "until": 486.2131640833293}, {"on": false, "note": 62, "velocity": 0, "until": 486.2131640833293}, {"on": true, "note": 63, "velocity": 106, "until": 486.3346210833293}, {"on": false, "note": 63, "velocity": 0, "until": 486.3346210833293}, {"on": true, "note": 62, "velocity": 106, "until": 486.54454416666266}, {"on": false, "note": 62, "velocity": 0, "until": 486.5636280833293}, {"on": true, "note": 60, "velocity": 106, "until": 486.6781315833294}, {"on": false, "note": 60, "velocity": 0, "until": 486.79263508332946}, {"on": true, "note": 58, "velocity": 106, "until": 486.91409208332954}, {"on": false, "note": 58, "velocity": 0, "until": 486.91409208332954}, {"on": true, "note": 62, "velocity": 106, "until": 487.01530624999623}, {"on": false, "note": 62, "velocity": 0, "until": 487.03554908332956}, {"on": true, "note": 60, "velocity": 106, "until": 487.0962775833296}, {"on": false, "note": 60, "velocity": 0, "until": 487.1570060833296}, {"on": true, "note": 57, "velocity": 106, "until": 487.2177345833296}, {"on": false, "note": 57, "velocity": 0, "until": 487.2784630833296}, {"on": true, "note": 55, "velocity": 106, "until": 487.50747008332974}, {"on": false, "note": 55, "velocity": 0, "until": 487.7364770833298}, {"on": true, "note": 65, "velocity": 106, "until": 488.1008480833307}, {"on": false, "note": 65, "velocity": 0, "until": 488.1008480833307}, {"on": true, "note": 67, "velocity": 106, "until": 488.22230508333087}, {"on": false, "note": 67, "velocity": 0, "until": 488.22230508333087}, {"on": true, "note": 65, "velocity": 106, "until": 488.43222816666423}, {"on": false, "note": 65, "velocity": 0, "until": 488.4513120833309}, {"on": true, "note": 63, "velocity": 106, "until": 488.56581558333096}, {"on": false, "note": 63, "velocity": 0, "until": 488.680319083331}, {"on": true, "note": 62, "velocity": 106, "until": 488.8017760833311}, {"on": false, "note": 62, "velocity": 0, "until": 488.8017760833311}, {"on": true, "note": 65, "velocity": 106, "until": 488.9029902499978}, {"on": false, "note": 65, "velocity": 0, "until": 488.9232330833311}, {"on": true, "note": 63, "velocity": 106, "until": 488.98396158333117}, {"on": false, "note": 63, "velocity": 0, "until": 489.04469008333115}, {"on": true, "note": 60, "velocity": 106, "until": 489.1054185833312}, {"on": false, "note": 60, "velocity": 0, "until": 489.16614708333117}, {"on": true, "note": 58, "velocity": 106, "until": 489.3951540833313}, {"on": false, "note": 58, "velocity": 0, "until": 489.62416108333133}, {"on": true, "note": 78, "velocity": 106, "until": 489.62416108333133}, {"on": true, "note": 72, "velocity": 106, "until": 489.9126220833309}, {"on": false, "note": 72, "velocity": 0, "until": 489.9126220833309}, {"on": false, "note": 78, "velocity": 0, "until": 490.89522208333096}, {"on": true, "note": 72, "velocity": 106, "until": 491.02342708333094}, {"on": false, "note": 72, "velocity": 0, "until": 491.02342708333094}, {"on": true, "note": 74, "velocity": 106, "until": 491.1516320833309}, {"on": false, "note": 74, "velocity": 0, "until": 491.1516320833309}, {"on": true, "note": 75, "velocity": 106, "until": 491.27408058333094}, {"on": false, "note": 75, "velocity": 0, "until": 491.27408058333094}, {"on": true, "note": 74, "velocity": 106, "until": 491.39652908333096}, {"on": false, "note": 74, "velocity": 0, "until": 491.39652908333096}, {"on": true, "note": 75, "velocity": 106, "until": 491.518977583331}, {"on": false, "note": 75, "velocity": 0, "until": 491.518977583331}, {"on": true, "note": 72, "velocity": 106, "until": 491.62101799999766}, {"on": false, "note": 72, "velocity": 0, "until": 491.641426083331}, {"on": true, "note": 67, "velocity": 106, "until": 491.7696310833309}, {"on": false, "note": 67, "velocity": 0, "until": 491.7696310833309}, {"on": true, "note": 72, "velocity": 106, "until": 491.8764685833309}, {"on": false, "note": 72, "velocity": 0, "until": 491.8978360833309}, {"on": true, "note": 76, "velocity": 106, "until": 491.96193858333083}, {"on": false, "note": 76, "velocity": 0, "until": 492.0260410833308}, {"on": true, "note": 74, "velocity": 106, "until": 492.0901435833308}, {"on": false, "note": 74, "velocity": 0, "until": 492.15424608333075}, {"on": true, "note": 72, "velocity": 106, "until": 492.27669458333077}, {"on": false, "note": 72, "velocity": 0, "until": 492.27669458333077}, {"on": true, "note": 71, "velocity": 106, "until": 492.37873499999745}, {"on": false, "note": 71, "velocity": 0, "until": 492.3991430833308}, {"on": true, "note": 69, "velocity": 106, "until": 492.4603673333308}, {"on": false, "note": 69, "velocity": 0, "until": 492.5215915833308}, {"on": true, "note": 67, "velocity": 106, "until": 492.5828158333308}, {"on": false, "note": 67, "velocity": 0, "until": 492.6440400833308}, {"on": true, "note": 66, "velocity": 106, "until": 492.77224508333074}, {"on": false, "note": 66, "velocity": 0, "until": 492.77224508333074}, {"on": true, "note": 67, "velocity": 106, "until": 492.8790825833307}, {"on": false, "note": 67, "velocity": 0, "until": 492.9004500833307}, {"on": true, "note": 62, "velocity": 106, "until": 492.96455258333066}, {"on": false, "note": 62, "velocity": 0, "until": 493.02865508333065}, {"on": true, "note": 64, "velocity": 106, "until": 493.09275758333064}, {"on": false, "note": 64, "velocity": 0, "until": 493.1568600833306}, {"on": true, "note": 65, "velocity": 106, "until": 493.28344208333067}, {"on": false, "note": 65, "velocity": 0, "until": 493.28344208333067}, {"on": true, "note": 64, "velocity": 106, "until": 493.3889270833307}, {"on": false, "note": 64, "velocity": 0, "until": 493.4100240833307}, {"on": true, "note": 65, "velocity": 106, "until": 493.4801173333307}, {"on": false, "note": 65, "velocity": 0, "until": 493.55021058333074}, {"on": true, "note": 67, "velocity": 106, "until": 493.62030383333075}, {"on": false, "note": 67, "velocity": 0, "until": 493.69039708333077}, {"on": true, "note": 55, "velocity": 106, "until": 493.82314008333077}, {"on": false, "note": 55, "velocity": 0, "until": 493.82314008333077}, {"on": true, "note": 60, "velocity": 106, "until": 493.9337592499974}, {"on": false, "note": 60, "velocity": 0, "until": 493.9558830833308}, {"on": true, "note": 64, "velocity": 106, "until": 494.02225458333083}, {"on": false, "note": 64, "velocity": 0, "until": 494.08862608333084}, {"on": true, "note": 60, "velocity": 106, "until": 494.15499758333084}, {"on": false, "note": 60, "velocity": 0, "until": 494.22136908333084}, {"on": true, "note": 64, "velocity": 106, "until": 494.34636908333084}, {"on": false, "note": 64, "velocity": 0, "until": 494.34636908333084}, {"on": true, "note": 60, "velocity": 106, "until": 494.4505357499975}, {"on": false, "note": 60, "velocity": 0, "until": 494.4713690833309}, {"on": true, "note": 64, "velocity": 106, "until": 494.5338690833309}, {"on": false, "note": 64, "velocity": 0, "until": 494.5963690833309}, {"on": true, "note": 60, "velocity": 106, "until": 494.6588690833309}, {"on": false, "note": 60, "velocity": 0, "until": 494.7213690833309}, {"on": true, "note": 55, "velocity": 106, "until": 494.85180358333093}, {"on": false, "note": 55, "velocity": 0, "until": 494.85180358333093}, {"on": true, "note": 59, "velocity": 106, "until": 494.96049899999764}, {"on": false, "note": 59, "velocity": 0, "until": 494.982238083331}, {"on": true, "note": 65, "velocity": 106, "until": 495.0474553333311}, {"on": false, "note": 65, "velocity": 0, "until": 495.1126725833311}, {"on": true, "note": 59, "velocity": 106, "until": 495.17788983333116}, {"on": false, "note": 59, "velocity": 0, "until": 495.2431070833312}, {"on": true, "note": 65, "velocity": 106, "until": 495.3681070833312}, {"on": false, "note": 65, "velocity": 0, "until": 495.3681070833312}, {"on": true, "note": 59, "velocity": 106, "until": 495.4722737499979}, {"on": false, "note": 59, "velocity": 0, "until": 495.49310708333127}, {"on": true, "note": 65, "velocity": 106, "until": 495.55560708333127}, {"on": false, "note": 65, "velocity": 0, "until": 495.61810708333127}, {"on": true, "note": 59, "velocity": 106, "until": 495.68060708333127}, {"on": false, "note": 59, "velocity": 0, "until": 495.74310708333127}, {"on": true, "note": 55, "velocity": 91, "until": 495.8735415833313}, {"on": false, "note": 55, "velocity": 0, "until": 495.8735415833313}, {"on": true, "note": 60, "velocity": 91, "until": 495.982236999998}, {"on": false, "note": 60, "velocity": 0, "until": 496.0039760833314}, {"on": true, "note": 64, "velocity": 91, "until": 496.06919333333144}, {"on": false, "note": 64, "velocity": 0, "until": 496.1344105833315}, {"on": true, "note": 60, "velocity": 91, "until": 496.19962783333153}, {"on": false, "note": 60, "velocity": 0, "until": 496.2648450833316}, {"on": true, "note": 64, "velocity": 91, "until": 496.3898450833316}, {"on": false, "note": 64, "velocity": 0, "until": 496.3898450833316}, {"on": true, "note": 60, "velocity": 91, "until": 496.49401174999826}, {"on": false, "note": 60, "velocity": 0, "until": 496.51484508333164}, {"on": true, "note": 64, "velocity": 91, "until": 496.57734508333164}, {"on": false, "note": 64, "velocity": 0, "until": 496.63984508333164}, {"on": true, "note": 60, "velocity": 91, "until": 496.70234508333164}, {"on": false, "note": 60, "velocity": 0, "until": 496.76484508333164}, {"on": true, "note": 55, "velocity": 91, "until": 496.8952795833317}, {"on": false, "note": 55, "velocity": 0, "until": 496.8952795833317}, {"on": true, "note": 59, "velocity": 91, "until": 497.00397499999843}, {"on": false, "note": 59, "velocity": 0, "until": 497.0257140833318}, {"on": true, "note": 65, "velocity": 91, "until": 497.0909313333319}, {"on": false, "note": 65, "velocity": 0, "until": 497.15614858333197}, {"on": true, "note": 59, "velocity": 91, "until": 497.221365833332}, {"on": false, "note": 59, "velocity": 0, "until": 497.28658308333206}, {"on": true, "note": 65, "velocity": 91, "until": 497.4115830833321}, {"on": false, "note": 65, "velocity": 0, "until": 497.4115830833321}, {"on": true, "note": 59, "velocity": 91, "until": 497.5157497499988}, {"on": false, "note": 59, "velocity": 0, "until": 497.5365830833322}, {"on": true, "note": 65, "velocity": 91, "until": 497.59908308333223}, {"on": false, "note": 65, "velocity": 0, "until": 497.66158308333223}, {"on": true, "note": 59, "velocity": 91, "until": 497.72408308333223}, {"on": false, "note": 59, "velocity": 0, "until": 497.7865830833323}, {"on": true, "note": 55, "velocity": 106, "until": 497.9170175833324}, {"on": false, "note": 55, "velocity": 0, "until": 497.9170175833324}, {"on": true, "note": 60, "velocity": 106, "until": 498.0257129999991}, {"on": false, "note": 60, "velocity": 0, "until": 498.0474520833325}, {"on": true, "note": 64, "velocity": 106, "until": 498.1126693333325}, {"on": false, "note": 64, "velocity": 0, "until": 498.17788658333257}, {"on": true, "note": 60, "velocity": 106, "until": 498.2431038333326}, {"on": false, "note": 60, "velocity": 0, "until": 498.30832108333266}, {"on": true, "note": 64, "velocity": 106, "until": 498.43332108333266}, {"on": false, "note": 64, "velocity": 0, "until": 498.43332108333266}, {"on": true, "note": 60, "velocity": 106, "until": 498.53748774999934}, {"on": false, "note": 60, "velocity": 0, "until": 498.5583210833327}, {"on": true, "note": 64, "velocity": 106, "until": 498.6208210833327}, {"on": false, "note": 64, "velocity": 0, "until": 498.6833210833327}, {"on": true, "note": 60, "velocity": 106, "until": 498.7458210833327}, {"on": false, "note": 60, "velocity": 0, "until": 498.8083210833327}, {"on": true, "note": 55, "velocity": 106, "until": 498.9387555833328}, {"on": false, "note": 55, "velocity": 0, "until": 498.9387555833328}, {"on": true, "note": 59, "velocity": 106, "until": 499.0474509999995}, {"on": false, "note": 59, "velocity": 0, "until": 499.0691900833329}, {"on": true, "note": 65, "velocity": 106, "until": 499.134407333333}, {"on": false, "note": 65, "velocity": 0, "until": 499.19962458333305}, {"on": true, "note": 59, "velocity": 106, "until": 499.2648418333331}, {"on": false, "note": 59, "velocity": 0, "until": 499.33005908333314}, {"on": true, "note": 65, "velocity": 106, "until": 499.4550590833332}, {"on": false, "note": 65, "velocity": 0, "until": 499.4550590833332}, {"on": true, "note": 59, "velocity": 106, "until": 499.5592257499999}, {"on": false, "note": 59, "velocity": 0, "until": 499.58005908333325}, {"on": true, "note": 65, "velocity": 106, "until": 499.6425590833333}, {"on": false, "note": 65, "velocity": 0, "until": 499.7050590833333}, {"on": true, "note": 59, "velocity": 106, "until": 499.7675590833333}, {"on": false, "note": 59, "velocity": 0, "until": 499.8300590833333}, {"on": true, "note": 55, "velocity": 91, "until": 499.95826408333323}, {"on": false, "note": 55, "velocity": 0, "until": 499.95826408333323}, {"on": true, "note": 60, "velocity": 91, "until": 500.0651015833332}, {"on": false, "note": 60, "velocity": 0, "until": 500.0864690833332}, {"on": true, "note": 64, "velocity": 91, "until": 500.1505715833332}, {"on": false, "note": 64, "velocity": 0, "until": 500.2146740833332}, {"on": true, "note": 60, "velocity": 91, "until": 500.2787765833332}, {"on": false, "note": 60, "velocity": 0, "until": 500.3428790833332}, {"on": true, "note": 64, "velocity": 91, "until": 500.4653275833332}, {"on": false, "note": 64, "velocity": 0, "until": 500.4653275833332}, {"on": true, "note": 60, "velocity": 91, "until": 500.5673679999999}, {"on": false, "note": 60, "velocity": 0, "until": 500.5877760833332}, {"on": true, "note": 64, "velocity": 91, "until": 500.6490003333332}, {"on": false, "note": 64, "velocity": 0, "until": 500.71022458333323}, {"on": true, "note": 60, "velocity": 91, "until": 500.77144883333324}, {"on": false, "note": 60, "velocity": 0, "until": 500.83267308333325}, {"on": true, "note": 55, "velocity": 91, "until": 500.9608780833332}, {"on": false, "note": 55, "velocity": 0, "until": 500.9608780833332}, {"on": true, "note": 59, "velocity": 91, "until": 501.0677155833332}, {"on": false, "note": 59, "velocity": 0, "until": 501.0890830833332}, {"on": true, "note": 65, "velocity": 91, "until": 501.15318558333314}, {"on": false, "note": 65, "velocity": 0, "until": 501.21728808333313}, {"on": true, "note": 59, "velocity": 91, "until": 501.2813905833331}, {"on": false, "note": 59, "velocity": 0, "until": 501.3454930833331}, {"on": true, "note": 65, "velocity": 91, "until": 501.46794158333313}, {"on": false, "note": 65, "velocity": 0, "until": 501.46794158333313}, {"on": true, "note": 59, "velocity": 91, "until": 501.5699819999998}, {"on": false, "note": 59, "velocity": 0, "until": 501.59039008333315}, {"on": true, "note": 65, "velocity": 91, "until": 501.65161433333316}, {"on": false, "note": 65, "velocity": 0, "until": 501.71283858333317}, {"on": true, "note": 59, "velocity": 91, "until": 501.7740628333332}, {"on": false, "note": 59, "velocity": 0, "until": 501.8352870833332}, {"on": true, "note": 60, "velocity": 106, "until": 502.0916970833331}, {"on": false, "note": 60, "velocity": 0, "until": 502.34810708333305}, {"on": true, "note": 64, "velocity": 106, "until": 502.34810708333305}, {"on": true, "note": 73, "velocity": 106, "until": 502.467628583333}, {"on": false, "note": 73, "velocity": 0, "until": 502.467628583333}, {"on": false, "note": 64, "velocity": 0, "until": 502.587150083333}, {"on": true, "note": 64, "velocity": 106, "until": 502.587150083333}, {"on": true, "note": 73, "velocity": 106, "until": 502.70667158333293}, {"on": false, "note": 73, "velocity": 0, "until": 502.70667158333293}, {"on": false, "note": 64, "velocity": 0, "until": 502.8261930833329}, {"on": true, "note": 74, "velocity": 106, "until": 502.8261930833329}, {"on": true, "note": 65, "velocity": 106, "until": 503.0761930833329}, {"on": false, "note": 65, "velocity": 0, "until": 503.0761930833329}, {"on": false, "note": 74, "velocity": 0, "until": 503.3261930833329}, {"on": true, "note": 70, "velocity": 106, "until": 503.3261930833329}, {"on": true, "note": 76, "velocity": 106, "until": 503.4443030833327}, {"on": false, "note": 76, "velocity": 0, "until": 503.4443030833327}, {"on": false, "note": 70, "velocity": 0, "until": 503.5624130833327}, {"on": true, "note": 70, "velocity": 106, "until": 503.5624130833327}, {"on": true, "note": 76, "velocity": 106, "until": 503.6805230833325}, {"on": false, "note": 76, "velocity": 0, "until": 503.6805230833325}, {"on": false, "note": 70, "velocity": 0, "until": 503.79863308333245}, {"on": true, "note": 69, "velocity": 106, "until": 503.79863308333245}, {"on": true, "note": 77, "velocity": 106, "until": 504.04554608333257}, {"on": false, "note": 77, "velocity": 0, "until": 504.04554608333257}, {"on": false, "note": 69, "velocity": 0, "until": 505.33645208333246}, {"on": true, "note": 81, "velocity": 106, "until": 505.4589005833325}, {"on": false, "note": 81, "velocity": 0, "until": 505.5813490833325}, {"on": true, "note": 81, "velocity": 106, "until": 505.7037975833325}, {"on": false, "note": 81, "velocity": 0, "until": 505.82624608333253}, {"on": true, "note": 73, "velocity": 106, "until": 506.3390660833326}, {"on": false, "note": 73, "velocity": 0, "until": 506.3390660833326}, {"on": true, "note": 74, "velocity": 106, "until": 506.58396308333266}, {"on": false, "note": 74, "velocity": 0, "until": 506.58396308333266}, {"on": true, "note": 76, "velocity": 106, "until": 506.80845199999936}, {"on": false, "note": 76, "velocity": 0, "until": 506.8288600833327}, {"on": true, "note": 79, "velocity": 106, "until": 507.08309708333263}, {"on": false, "note": 79, "velocity": 0, "until": 507.08309708333263}, {"on": true, "note": 77, "velocity": 106, "until": 507.33733408333256}, {"on": false, "note": 77, "velocity": 0, "until": 507.33733408333256}, {"on": true, "note": 80, "velocity": 106, "until": 507.5782970833326}, {"on": false, "note": 80, "velocity": 0, "until": 507.5782970833326}, {"on": true, "note": 81, "velocity": 106, "until": 507.7991798333326}, {"on": false, "note": 81, "velocity": 0, "until": 507.8192600833326}, {"on": true, "note": 72, "velocity": 106, "until": 508.07136008333265}, {"on": false, "note": 72, "velocity": 0, "until": 508.8092880833326}, {"on": true, "note": 71, "velocity": 106, "until": 509.06033408333246}, {"on": false, "note": 71, "velocity": 0, "until": 509.79525008333235}, {"on": true, "note": 72, "velocity": 106, "until": 510.0442120833323}, {"on": false, "note": 72, "velocity": 0, "until": 510.29317408333225}, {"on": true, "note": 64, "velocity": 106, "until": 510.29317408333225}, {"on": true, "note": 73, "velocity": 106, "until": 510.4112840833321}, {"on": false, "note": 73, "velocity": 0, "until": 510.4112840833321}, {"on": false, "note": 64, "velocity": 0, "until": 510.529394083332}, {"on": true, "note": 64, "velocity": 106, "until": 510.529394083332}, {"on": true, "note": 73, "velocity": 106, "until": 510.64750408333185}, {"on": false, "note": 73, "velocity": 0, "until": 510.64750408333185}, {"on": false, "note": 64, "velocity": 0, "until": 510.7656140833318}, {"on": true, "note": 74, "velocity": 106, "until": 510.7656140833318}, {"on": true, "note": 65, "velocity": 106, "until": 511.01151508333186}, {"on": false, "note": 65, "velocity": 0, "until": 511.01151508333186}, {"on": false, "note": 74, "velocity": 0, "until": 511.25741608333186}, {"on": true, "note": 70, "velocity": 106, "until": 511.25741608333186}, {"on": true, "note": 76, "velocity": 106, "until": 511.37460358333186}, {"on": false, "note": 76, "velocity": 0, "until": 511.37460358333186}, {"on": false, "note": 70, "velocity": 0, "until": 511.49179108333186}, {"on": true, "note": 70, "velocity": 106, "until": 511.49179108333186}, {"on": true, "note": 76, "velocity": 106, "until": 511.60897858333186}, {"on": false, "note": 76, "velocity": 0, "until": 511.60897858333186}, {"on": false, "note": 70, "velocity": 0, "until": 511.72616608333186}, {"on": true, "note": 69, "velocity": 106, "until": 511.72616608333186}, {"on": true, "note": 77, "velocity": 106, "until": 511.96908008333196}, {"on": false, "note": 77, "velocity": 0, "until": 511.96908008333196}, {"on": false, "note": 69, "velocity": 0, "until": 513.216446083332}, {"on": true, "note": 77, "velocity": 106, "until": 513.3309495833321}, {"on": false, "note": 77, "velocity": 0, "until": 513.4454530833322}, {"on": true, "note": 77, "velocity": 106, "until": 513.5599565833322}, {"on": false, "note": 77, "velocity": 0, "until": 513.6744600833323}, {"on": true, "note": 87, "velocity": 106, "until": 514.6183020833329}, {"on": false, "note": 87, "velocity": 0, "until": 514.6183020833329}, {"on": true, "note": 86, "velocity": 106, "until": 515.0940086666669}, {"on": false, "note": 86, "velocity": 0, "until": 515.1041300833336}, {"on": true, "note": 86, "velocity": 106, "until": 515.2186335833338}, {"on": false, "note": 86, "velocity": 0, "until": 515.333137083334}, {"on": true, "note": 86, "velocity": 106, "until": 515.4476405833342}, {"on": false, "note": 86, "velocity": 0, "until": 515.5621440833344}, {"on": true, "note": 88, "velocity": 106, "until": 516.0479720833342}, {"on": false, "note": 88, "velocity": 0, "until": 516.5373610833342}, {"on": true, "note": 83, "velocity": 106, "until": 516.7802750833343}, {"on": false, "note": 83, "velocity": 0, "until": 517.4937770833344}, {"on": true, "note": 84, "velocity": 106, "until": 517.7366910833343}, {"on": false, "note": 84, "velocity": 0, "until": 517.9796050833344}, {"on": true, "note": 72, "velocity": 106, "until": 518.0972520833343}, {"on": false, "note": 72, "velocity": 0, "until": 518.2148990833342}, {"on": true, "note": 72, "velocity": 106, "until": 518.4501930833342}, {"on": false, "note": 72, "velocity": 0, "until": 518.4501930833342}, {"on": true, "note": 82, "velocity": 106, "until": 518.9360210833349}, {"on": false, "note": 82, "velocity": 0, "until": 518.9360210833349}, {"on": true, "note": 81, "velocity": 106, "until": 519.0536680833349}, {"on": false, "note": 81, "velocity": 0, "until": 519.0536680833349}, {"on": true, "note": 79, "velocity": 106, "until": 519.1713150833349}, {"on": false, "note": 79, "velocity": 0, "until": 519.1713150833349}, {"on": true, "note": 77, "velocity": 106, "until": 519.2889620833349}, {"on": false, "note": 77, "velocity": 0, "until": 519.2889620833349}, {"on": true, "note": 76, "velocity": 106, "until": 519.406609083335}, {"on": false, "note": 76, "velocity": 0, "until": 519.406609083335}, {"on": true, "note": 74, "velocity": 106, "until": 519.6495230833349}, {"on": false, "note": 74, "velocity": 0, "until": 520.3630250833351}, {"on": true, "note": 71, "velocity": 106, "until": 520.605939083335}, {"on": false, "note": 71, "velocity": 0, "until": 521.3194410833347}, {"on": true, "note": 72, "velocity": 106, "until": 521.5623550833345}, {"on": false, "note": 72, "velocity": 0, "until": 521.8052690833343}, {"on": true, "note": 72, "velocity": 106, "until": 521.9229160833344}, {"on": false, "note": 72, "velocity": 0, "until": 522.0405630833343}, {"on": true, "note": 72, "velocity": 106, "until": 522.2758570833342}, {"on": false, "note": 72, "velocity": 0, "until": 522.2758570833342}, {"on": true, "note": 82, "velocity": 106, "until": 522.761685083335}, {"on": false, "note": 82, "velocity": 0, "until": 522.761685083335}, {"on": true, "note": 81, "velocity": 106, "until": 522.8793320833349}, {"on": false, "note": 81, "velocity": 0, "until": 522.8793320833349}, {"on": true, "note": 79, "velocity": 106, "until": 522.996979083335}, {"on": false, "note": 79, "velocity": 0, "until": 522.996979083335}, {"on": true, "note": 77, "velocity": 106, "until": 523.114626083335}, {"on": false, "note": 77, "velocity": 0, "until": 523.114626083335}, {"on": true, "note": 76, "velocity": 106, "until": 523.232273083335}, {"on": false, "note": 76, "velocity": 0, "until": 523.232273083335}, {"on": true, "note": 74, "velocity": 106, "until": 523.4751870833353}, {"on": false, "note": 74, "velocity": 0, "until": 523.7181010833356}, {"on": true, "note": 74, "velocity": 106, "until": 523.8357480833355}, {"on": false, "note": 74, "velocity": 0, "until": 523.9533950833354}, {"on": true, "note": 74, "velocity": 106, "until": 524.0710420833353}, {"on": false, "note": 74, "velocity": 0, "until": 524.1886890833352}, {"on": true, "note": 81, "velocity": 106, "until": 524.7890205833351}, {"on": false, "note": 81, "velocity": 0, "until": 524.7890205833351}, {"on": true, "note": 79, "velocity": 106, "until": 524.846272333335}, {"on": false, "note": 79, "velocity": 0, "until": 524.903524083335}, {"on": true, "note": 77, "velocity": 106, "until": 524.960775833335}, {"on": false, "note": 77, "velocity": 0, "until": 525.018027583335}, {"on": true, "note": 76, "velocity": 106, "until": 525.075279333335}, {"on": false, "note": 76, "velocity": 0, "until": 525.1325310833349}, {"on": true, "note": 74, "velocity": 106, "until": 525.1932595833348}, {"on": false, "note": 74, "velocity": 0, "until": 525.2539880833348}, {"on": true, "note": 72, "velocity": 106, "until": 525.3147165833348}, {"on": false, "note": 72, "velocity": 0, "until": 525.3754450833347}, {"on": true, "note": 71, "velocity": 106, "until": 525.4361735833346}, {"on": false, "note": 71, "velocity": 0, "until": 525.4969020833346}, {"on": true, "note": 69, "velocity": 106, "until": 525.5576305833346}, {"on": false, "note": 69, "velocity": 0, "until": 525.6183590833346}, {"on": true, "note": 67, "velocity": 106, "until": 525.6756108333345}, {"on": false, "note": 67, "velocity": 0, "until": 525.7328625833345}, {"on": true, "note": 65, "velocity": 106, "until": 525.7901143333345}, {"on": false, "note": 65, "velocity": 0, "until": 525.8473660833345}, {"on": true, "note": 64, "velocity": 106, "until": 525.9046178333344}, {"on": false, "note": 64, "velocity": 0, "until": 525.9618695833344}, {"on": true, "note": 62, "velocity": 106, "until": 526.0191213333344}, {"on": false, "note": 62, "velocity": 0, "until": 526.0763730833344}, {"on": true, "note": 60, "velocity": 106, "until": 526.1371015833344}, {"on": false, "note": 60, "velocity": 0, "until": 526.1978300833343}, {"on": true, "note": 59, "velocity": 106, "until": 526.2585585833343}, {"on": false, "note": 59, "velocity": 0, "until": 526.3192870833343}, {"on": true, "note": 57, "velocity": 106, "until": 526.3800155833343}, {"on": false, "note": 57, "velocity": 0, "until": 526.4407440833343}, {"on": true, "note": 55, "velocity": 106, "until": 526.5014725833342}, {"on": false, "note": 55, "velocity": 0, "until": 526.5622010833342}, {"on": true, "note": 56, "velocity": 106, "until": 526.6194528333342}, {"on": false, "note": 56, "velocity": 0, "until": 526.6767045833342}, {"on": true, "note": 57, "velocity": 101, "until": 526.7339563333342}, {"on": false, "note": 57, "velocity": 0, "until": 526.7912080833341}, {"on": true, "note": 58, "velocity": 96, "until": 526.8484598333341}, {"on": false, "note": 58, "velocity": 0, "until": 526.9057115833341}, {"on": true, "note": 59, "velocity": 91, "until": 526.9629633333341}, {"on": false, "note": 59, "velocity": 0, "until": 527.020215083334}, {"on": true, "note": 60, "velocity": 46, "until": 527.2631290833341}, {"on": false, "note": 60, "velocity": 0, "until": 530.795583083334}, {"on": true, "note": 76, "velocity": 121, "until": 530.8360687500008}, {"on": false, "note": 76, "velocity": 0, "until": 530.8360687500008}, {"on": true, "note": 74, "velocity": 121, "until": 530.9372829166674}, {"on": false, "note": 74, "velocity": 0, "until": 531.038497083334}, {"on": true, "note": 73, "velocity": 121, "until": 531.1599540833341}, {"on": false, "note": 73, "velocity": 0, "until": 531.2814110833341}, {"on": true, "note": 76, "velocity": 121, "until": 531.3195789166674}, {"on": false, "note": 76, "velocity": 0, "until": 531.3195789166674}, {"on": true, "note": 74, "velocity": 121, "until": 531.4149985000007}, {"on": false, "note": 74, "velocity": 0, "until": 531.510418083334}, {"on": true, "note": 73, "velocity": 121, "until": 531.6249215833341}, {"on": false, "note": 73, "velocity": 0, "until": 531.739425083334}, {"on": true, "note": 74, "velocity": 106, "until": 532.225253083334}, {"on": false, "note": 74, "velocity": 0, "until": 532.225253083334}, {"on": true, "note": 67, "velocity": 106, "until": 532.4542600833339}, {"on": false, "note": 67, "velocity": 0, "until": 533.6271090833334}, {"on": true, "note": 79, "velocity": 106, "until": 534.3419440833331}, {"on": false, "note": 79, "velocity": 0, "until": 534.3419440833331}, {"on": true, "note": 77, "velocity": 106, "until": 534.4564475833332}, {"on": false, "note": 77, "velocity": 0, "until": 534.4564475833332}, {"on": true, "note": 76, "velocity": 106, "until": 534.5709510833332}, {"on": false, "note": 76, "velocity": 0, "until": 534.5709510833332}, {"on": true, "note": 76, "velocity": 121, "until": 534.6114367499999}, {"on": false, "note": 76, "velocity": 0, "until": 534.6114367499999}, {"on": true, "note": 74, "velocity": 121, "until": 534.7126509166666}, {"on": false, "note": 74, "velocity": 0, "until": 534.8138650833332}, {"on": true, "note": 73, "velocity": 121, "until": 534.9353220833333}, {"on": false, "note": 73, "velocity": 0, "until": 535.0567790833333}, {"on": true, "note": 76, "velocity": 121, "until": 535.0949469166666}, {"on": false, "note": 76, "velocity": 0, "until": 535.0949469166666}, {"on": true, "note": 74, "velocity": 121, "until": 535.1903664999999}, {"on": false, "note": 74, "velocity": 0, "until": 535.2857860833332}, {"on": true, "note": 73, "velocity": 121, "until": 535.4002895833332}, {"on": false, "note": 73, "velocity": 0, "until": 535.5147930833332}, {"on": true, "note": 74, "velocity": 106, "until": 536.0006210833332}, {"on": false, "note": 74, "velocity": 0, "until": 536.0006210833332}, {"on": true, "note": 67, "velocity": 106, "until": 536.2296280833331}, {"on": false, "note": 67, "velocity": 0, "until": 537.4024770833325}, {"on": true, "note": 84, "velocity": 106, "until": 538.0028085833328}, {"on": false, "note": 84, "velocity": 0, "until": 538.0028085833328}, {"on": true, "note": 83, "velocity": 106, "until": 538.1173120833328}, {"on": false, "note": 83, "velocity": 0, "until": 538.1173120833328}, {"on": true, "note": 81, "velocity": 106, "until": 538.2318155833328}, {"on": false, "note": 81, "velocity": 0, "until": 538.2318155833328}, {"on": true, "note": 79, "velocity": 106, "until": 538.3463190833328}, {"on": false, "note": 79, "velocity": 0, "until": 538.3463190833328}, {"on": true, "note": 78, "velocity": 106, "until": 538.5892330833328}, {"on": false, "note": 78, "velocity": 0, "until": 538.8321470833329}, {"on": true, "note": 77, "velocity": 106, "until": 539.061154083333}, {"on": false, "note": 77, "velocity": 0, "until": 539.2901610833331}, {"on": true, "note": 76, "velocity": 106, "until": 539.5330750833332}, {"on": false, "note": 76, "velocity": 0, "until": 539.7759890833332}, {"on": true, "note": 74, "velocity": 106, "until": 540.0049960833334}, {"on": false, "note": 74, "velocity": 0, "until": 540.2340030833335}, {"on": true, "note": 72, "velocity": 106, "until": 540.4769170833334}, {"on": false, "note": 72, "velocity": 0, "until": 540.7198310833334}, {"on": true, "note": 71, "velocity": 106, "until": 540.9488380833335}, {"on": false, "note": 71, "velocity": 0, "until": 541.1778450833336}, {"on": true, "note": 79, "velocity": 121, "until": 541.5807750833335}, {"on": false, "note": 79, "velocity": 0, "until": 541.6174050833333}, {"on": true, "note": 78, "velocity": 121, "until": 541.8243010833335}, {"on": false, "note": 78, "velocity": 0, "until": 541.8243010833335}, {"on": true, "note": 79, "velocity": 106, "until": 541.9277490833335}, {"on": false, "note": 79, "velocity": 0, "until": 541.9277490833335}, {"on": true, "note": 81, "velocity": 106, "until": 541.9967144166669}, {"on": false, "note": 81, "velocity": 0, "until": 542.0311970833337}, {"on": true, "note": 79, "velocity": 121, "until": 542.4254609166671}, {"on": false, "note": 79, "velocity": 0, "until": 542.4613030833339}, {"on": true, "note": 78, "velocity": 121, "until": 542.6674880833341}, {"on": false, "note": 78, "velocity": 0, "until": 542.6674880833341}, {"on": true, "note": 79, "velocity": 106, "until": 542.7705805833342}, {"on": false, "note": 79, "velocity": 0, "until": 542.7705805833342}, {"on": true, "note": 81, "velocity": 106, "until": 542.8393089166676}, {"on": false, "note": 81, "velocity": 0, "until": 542.8736730833344}, {"on": true, "note": 79, "velocity": 121, "until": 543.266528916668}, {"on": false, "note": 79, "velocity": 0, "until": 543.3022430833348}, {"on": true, "note": 78, "velocity": 121, "until": 543.507021083335}, {"on": false, "note": 78, "velocity": 0, "until": 543.507021083335}, {"on": true, "note": 79, "velocity": 106, "until": 543.609410083335}, {"on": false, "note": 79, "velocity": 0, "until": 543.609410083335}, {"on": true, "note": 81, "velocity": 106, "until": 543.6776694166683}, {"on": false, "note": 81, "velocity": 0, "until": 543.7117990833351}, {"on": true, "note": 79, "velocity": 106, "until": 544.1046549166687}, {"on": false, "note": 79, "velocity": 0, "until": 544.1403690833354}, {"on": true, "note": 79, "velocity": 106, "until": 544.2222802833355}, {"on": false, "note": 79, "velocity": 0, "until": 544.2222802833355}, {"on": true, "note": 81, "velocity": 106, "until": 544.3041914833356}, {"on": false, "note": 81, "velocity": 0, "until": 544.3041914833356}, {"on": true, "note": 83, "velocity": 106, "until": 544.3861026833356}, {"on": false, "note": 83, "velocity": 0, "until": 544.3861026833356}, {"on": true, "note": 85, "velocity": 106, "until": 544.4680138833356}, {"on": false, "note": 85, "velocity": 0, "until": 544.4680138833356}, {"on": true, "note": 86, "velocity": 106, "until": 544.5499250833357}, {"on": false, "note": 86, "velocity": 0, "until": 544.5499250833357}, {"on": true, "note": 88, "velocity": 106, "until": 544.9427809166694}, {"on": false, "note": 88, "velocity": 0, "until": 544.9784950833362}, {"on": true, "note": 81, "velocity": 106, "until": 545.0604062833363}, {"on": false, "note": 81, "velocity": 0, "until": 545.0604062833363}, {"on": true, "note": 83, "velocity": 106, "until": 545.1423174833363}, {"on": false, "note": 83, "velocity": 0, "until": 545.1423174833363}, {"on": true, "note": 85, "velocity": 106, "until": 545.2242286833364}, {"on": false, "note": 85, "velocity": 0, "until": 545.2242286833364}, {"on": true, "note": 86, "velocity": 106, "until": 545.3061398833364}, {"on": false, "note": 86, "velocity": 0, "until": 545.3061398833364}, {"on": true, "note": 88, "velocity": 106, "until": 545.3880510833364}, {"on": false, "note": 88, "velocity": 0, "until": 545.3880510833364}, {"on": true, "note": 89, "velocity": 106, "until": 545.7809069166702}, {"on": false, "note": 89, "velocity": 0, "until": 545.8166210833369}, {"on": true, "note": 79, "velocity": 106, "until": 545.898532283337}, {"on": false, "note": 79, "velocity": 0, "until": 545.898532283337}, {"on": true, "note": 81, "velocity": 106, "until": 545.980443483337}, {"on": false, "note": 81, "velocity": 0, "until": 545.980443483337}, {"on": true, "note": 83, "velocity": 106, "until": 546.062354683337}, {"on": false, "note": 83, "velocity": 0, "until": 546.062354683337}, {"on": true, "note": 85, "velocity": 106, "until": 546.1442658833371}, {"on": false, "note": 85, "velocity": 0, "until": 546.1442658833371}, {"on": true, "note": 86, "velocity": 106, "until": 546.2261770833371}, {"on": false, "note": 86, "velocity": 0, "until": 546.2261770833371}, {"on": true, "note": 88, "velocity": 106, "until": 546.6190329166709}, {"on": false, "note": 88, "velocity": 0, "until": 546.6547470833376}, {"on": true, "note": 81, "velocity": 106, "until": 546.7366582833378}, {"on": false, "note": 81, "velocity": 0, "until": 546.7366582833378}, {"on": true, "note": 83, "velocity": 106, "until": 546.8185694833378}, {"on": false, "note": 83, "velocity": 0, "until": 546.8185694833378}, {"on": true, "note": 85, "velocity": 106, "until": 546.9004806833378}, {"on": false, "note": 85, "velocity": 0, "until": 546.9004806833378}, {"on": true, "note": 86, "velocity": 106, "until": 546.9823918833379}, {"on": false, "note": 86, "velocity": 0, "until": 546.9823918833379}, {"on": true, "note": 88, "velocity": 106, "until": 547.0643030833379}, {"on": false, "note": 88, "velocity": 0, "until": 547.0643030833379}, {"on": true, "note": 89, "velocity": 106, "until": 547.4571589166717}, {"on": false, "note": 89, "velocity": 0, "until": 547.4928730833384}, {"on": true, "note": 71, "velocity": 106, "until": 547.5611324166719}, {"on": false, "note": 71, "velocity": 0, "until": 547.5611324166719}, {"on": true, "note": 72, "velocity": 106, "until": 547.6293917500052}, {"on": false, "note": 72, "velocity": 0, "until": 547.6293917500052}, {"on": true, "note": 74, "velocity": 106, "until": 547.6976510833385}, {"on": false, "note": 74, "velocity": 0, "until": 547.6976510833385}, {"on": true, "note": 76, "velocity": 106, "until": 547.7659104166719}, {"on": false, "note": 76, "velocity": 0, "until": 547.7659104166719}, {"on": true, "note": 77, "velocity": 106, "until": 547.8341697500052}, {"on": false, "note": 77, "velocity": 0, "until": 547.8341697500052}, {"on": true, "note": 79, "velocity": 106, "until": 547.9024290833386}, {"on": false, "note": 79, "velocity": 0, "until": 547.9024290833386}, {"on": true, "note": 81, "velocity": 121, "until": 547.9024290833386}, {"on": true, "note": 71, "velocity": 121, "until": 547.9917145000056}, {"on": false, "note": 71, "velocity": 0, "until": 547.9917145000056}, {"on": false, "note": 81, "velocity": 0, "until": 548.0095715833392}, {"on": true, "note": 81, "velocity": 106, "until": 548.0095715833392}, {"on": true, "note": 71, "velocity": 106, "until": 548.0988570000059}, {"on": false, "note": 71, "velocity": 0, "until": 548.0988570000059}, {"on": false, "note": 81, "velocity": 0, "until": 548.1167140833393}, {"on": true, "note": 81, "velocity": 106, "until": 548.1167140833393}, {"on": true, "note": 71, "velocity": 106, "until": 548.205999500006}, {"on": false, "note": 71, "velocity": 0, "until": 548.205999500006}, {"on": false, "note": 81, "velocity": 0, "until": 548.2238565833394}, {"on": true, "note": 81, "velocity": 106, "until": 548.2238565833394}, {"on": true, "note": 71, "velocity": 106, "until": 548.3131420000061}, {"on": false, "note": 71, "velocity": 0, "until": 548.3131420000061}, {"on": false, "note": 81, "velocity": 0, "until": 548.3309990833395}, {"on": true, "note": 81, "velocity": 106, "until": 548.3309990833395}, {"on": true, "note": 71, "velocity": 106, "until": 548.4163232500063}, {"on": false, "note": 71, "velocity": 0, "until": 548.4163232500063}, {"on": false, "note": 81, "velocity": 0, "until": 548.4333880833397}, {"on": true, "note": 81, "velocity": 106, "until": 548.4333880833397}, {"on": true, "note": 71, "velocity": 106, "until": 548.5187122500064}, {"on": false, "note": 71, "velocity": 0, "until": 548.5187122500064}, {"on": false, "note": 81, "velocity": 0, "until": 548.5357770833398}, {"on": true, "note": 81, "velocity": 106, "until": 548.5357770833398}, {"on": true, "note": 71, "velocity": 106, "until": 548.6211012500065}, {"on": false, "note": 71, "velocity": 0, "until": 548.6211012500065}, {"on": false, "note": 81, "velocity": 0, "until": 548.6381660833399}, {"on": true, "note": 81, "velocity": 106, "until": 548.6381660833399}, {"on": true, "note": 71, "velocity": 106, "until": 548.7234902500066}, {"on": false, "note": 71, "velocity": 0, "until": 548.7234902500066}, {"on": false, "note": 81, "velocity": 0, "until": 548.74055508334}, {"on": true, "note": 81, "velocity": 106, "until": 548.74055508334}, {"on": true, "note": 71, "velocity": 106, "until": 548.8298405000068}, {"on": false, "note": 71, "velocity": 0, "until": 548.8298405000068}, {"on": false, "note": 81, "velocity": 0, "until": 548.8476975833402}, {"on": true, "note": 81, "velocity": 106, "until": 548.8476975833402}, {"on": true, "note": 71, "velocity": 106, "until": 548.9369830000069}, {"on": false, "note": 71, "velocity": 0, "until": 548.9369830000069}, {"on": false, "note": 81, "velocity": 0, "until": 548.9548400833403}, {"on": true, "note": 81, "velocity": 106, "until": 548.9548400833403}, {"on": true, "note": 71, "velocity": 106, "until": 549.044125500007}, {"on": false, "note": 71, "velocity": 0, "until": 549.044125500007}, {"on": false, "note": 81, "velocity": 0, "until": 549.0619825833404}, {"on": true, "note": 81, "velocity": 106, "until": 549.0619825833404}, {"on": true, "note": 71, "velocity": 106, "until": 549.1512680000071}, {"on": false, "note": 71, "velocity": 0, "until": 549.1512680000071}, {"on": false, "note": 81, "velocity": 0, "until": 549.1691250833405}, {"on": true, "note": 81, "velocity": 106, "until": 549.1691250833405}, {"on": true, "note": 71, "velocity": 106, "until": 549.2544492500073}, {"on": false, "note": 71, "velocity": 0, "until": 549.2544492500073}, {"on": false, "note": 81, "velocity": 0, "until": 549.2715140833407}, {"on": true, "note": 81, "velocity": 106, "until": 549.2715140833407}, {"on": true, "note": 71, "velocity": 106, "until": 549.3568382500074}, {"on": false, "note": 71, "velocity": 0, "until": 549.3568382500074}, {"on": false, "note": 81, "velocity": 0, "until": 549.3739030833408}, {"on": true, "note": 81, "velocity": 106, "until": 549.3739030833408}, {"on": true, "note": 71, "velocity": 106, "until": 549.4592272500076}, {"on": false, "note": 71, "velocity": 0, "until": 549.4592272500076}, {"on": false, "note": 81, "velocity": 0, "until": 549.476292083341}, {"on": true, "note": 81, "velocity": 106, "until": 549.476292083341}, {"on": true, "note": 71, "velocity": 106, "until": 549.5616162500079}, {"on": false, "note": 71, "velocity": 0, "until": 549.5616162500079}, {"on": false, "note": 81, "velocity": 0, "until": 549.5786810833413}, {"on": true, "note": 81, "velocity": 106, "until": 549.5786810833413}, {"on": true, "note": 71, "velocity": 106, "until": 549.6679665000086}, {"on": false, "note": 71, "velocity": 0, "until": 549.6679665000086}, {"on": false, "note": 81, "velocity": 0, "until": 549.6858235833422}, {"on": true, "note": 81, "velocity": 106, "until": 549.6858235833422}, {"on": true, "note": 71, "velocity": 106, "until": 549.7751090000094}, {"on": false, "note": 71, "velocity": 0, "until": 549.7751090000094}, {"on": false, "note": 81, "velocity": 0, "until": 549.7929660833428}, {"on": true, "note": 81, "velocity": 106, "until": 549.7929660833428}, {"on": true, "note": 71, "velocity": 106, "until": 549.8822515000095}, {"on": false, "note": 71, "velocity": 0, "until": 549.8822515000095}, {"on": false, "note": 81, "velocity": 0, "until": 549.9001085833429}, {"on": true, "note": 81, "velocity": 106, "until": 549.9001085833429}, {"on": true, "note": 71, "velocity": 106, "until": 549.9893940000096}, {"on": false, "note": 71, "velocity": 0, "until": 549.9893940000096}, {"on": false, "note": 81, "velocity": 0, "until": 550.007251083343}, {"on": true, "note": 81, "velocity": 106, "until": 550.007251083343}, {"on": true, "note": 71, "velocity": 106, "until": 550.0925752500096}, {"on": false, "note": 71, "velocity": 0, "until": 550.0925752500096}, {"on": false, "note": 81, "velocity": 0, "until": 550.109640083343}, {"on": true, "note": 81, "velocity": 106, "until": 550.109640083343}, {"on": true, "note": 71, "velocity": 106, "until": 550.1949642500098}, {"on": false, "note": 71, "velocity": 0, "until": 550.1949642500098}, {"on": false, "note": 81, "velocity": 0, "until": 550.2120290833432}, {"on": true, "note": 81, "velocity": 106, "until": 550.2120290833432}, {"on": true, "note": 71, "velocity": 106, "until": 550.29735325001}, {"on": false, "note": 71, "velocity": 0, "until": 550.29735325001}, {"on": false, "note": 81, "velocity": 0, "until": 550.3144180833434}, {"on": true, "note": 81, "velocity": 106, "until": 550.3144180833434}, {"on": true, "note": 71, "velocity": 106, "until": 550.3997422500103}, {"on": false, "note": 71, "velocity": 0, "until": 550.3997422500103}, {"on": false, "note": 81, "velocity": 0, "until": 550.4168070833437}, {"on": true, "note": 81, "velocity": 106, "until": 550.4168070833437}, {"on": true, "note": 71, "velocity": 106, "until": 550.5060925000109}, {"on": false, "note": 71, "velocity": 0, "until": 550.5060925000109}, {"on": false, "note": 81, "velocity": 0, "until": 550.5239495833446}, {"on": true, "note": 81, "velocity": 106, "until": 550.5239495833446}, {"on": true, "note": 71, "velocity": 106, "until": 550.6132350000117}, {"on": false, "note": 71, "velocity": 0, "until": 550.6132350000117}, {"on": false, "note": 81, "velocity": 0, "until": 550.6310920833452}, {"on": true, "note": 81, "velocity": 106, "until": 550.6310920833452}, {"on": true, "note": 71, "velocity": 106, "until": 550.7203775000119}, {"on": false, "note": 71, "velocity": 0, "until": 550.7203775000119}, {"on": false, "note": 81, "velocity": 0, "until": 550.7382345833453}, {"on": true, "note": 81, "velocity": 106, "until": 550.7382345833453}, {"on": true, "note": 71, "velocity": 106, "until": 550.827520000012}, {"on": false, "note": 71, "velocity": 0, "until": 550.827520000012}, {"on": false, "note": 81, "velocity": 0, "until": 550.8453770833454}, {"on": true, "note": 81, "velocity": 106, "until": 550.8453770833454}, {"on": true, "note": 71, "velocity": 106, "until": 550.930701250012}, {"on": false, "note": 71, "velocity": 0, "until": 550.930701250012}, {"on": false, "note": 81, "velocity": 0, "until": 550.9477660833454}, {"on": true, "note": 81, "velocity": 106, "until": 550.9477660833454}, {"on": true, "note": 71, "velocity": 106, "until": 551.0330902500122}, {"on": false, "note": 71, "velocity": 0, "until": 551.0330902500122}, {"on": false, "note": 81, "velocity": 0, "until": 551.0501550833455}, {"on": true, "note": 81, "velocity": 106, "until": 551.0501550833455}, {"on": true, "note": 71, "velocity": 106, "until": 551.1354792500124}, {"on": false, "note": 71, "velocity": 0, "until": 551.1354792500124}, {"on": false, "note": 81, "velocity": 0, "until": 551.1525440833458}, {"on": true, "note": 81, "velocity": 106, "until": 551.1525440833458}, {"on": true, "note": 71, "velocity": 106, "until": 551.2378682500126}, {"on": false, "note": 71, "velocity": 0, "until": 551.2378682500126}, {"on": false, "note": 81, "velocity": 0, "until": 551.254933083346}, {"on": true, "note": 80, "velocity": 106, "until": 551.254933083346}, {"on": true, "note": 71, "velocity": 106, "until": 551.3442185000133}, {"on": false, "note": 71, "velocity": 0, "until": 551.3442185000133}, {"on": false, "note": 80, "velocity": 0, "until": 551.362075583347}, {"on": true, "note": 71, "velocity": 106, "until": 551.362075583347}, {"on": true, "note": 80, "velocity": 106, "until": 551.4513610000141}, {"on": false, "note": 80, "velocity": 0, "until": 551.4513610000141}, {"on": false, "note": 71, "velocity": 0, "until": 551.4692180833475}, {"on": true, "note": 80, "velocity": 106, "until": 551.4692180833475}, {"on": true, "note": 71, "velocity": 106, "until": 551.5585035000142}, {"on": false, "note": 71, "velocity": 0, "until": 551.5585035000142}, {"on": false, "note": 80, "velocity": 0, "until": 551.5763605833477}, {"on": true, "note": 80, "velocity": 106, "until": 551.5763605833477}, {"on": true, "note": 71, "velocity": 106, "until": 551.6656460000144}, {"on": false, "note": 71, "velocity": 0, "until": 551.6656460000144}, {"on": false, "note": 80, "velocity": 0, "until": 551.6835030833478}, {"on": true, "note": 80, "velocity": 106, "until": 551.6835030833478}, {"on": true, "note": 71, "velocity": 106, "until": 551.7688272500145}, {"on": false, "note": 71, "velocity": 0, "until": 551.7688272500145}, {"on": false, "note": 80, "velocity": 0, "until": 551.7858920833479}, {"on": true, "note": 80, "velocity": 106, "until": 551.7858920833479}, {"on": true, "note": 71, "velocity": 106, "until": 551.8712162500146}, {"on": false, "note": 71, "velocity": 0, "until": 551.8712162500146}, {"on": false, "note": 80, "velocity": 0, "until": 551.888281083348}, {"on": true, "note": 80, "velocity": 106, "until": 551.888281083348}, {"on": true, "note": 71, "velocity": 106, "until": 551.9736052500148}, {"on": false, "note": 71, "velocity": 0, "until": 551.9736052500148}, {"on": false, "note": 80, "velocity": 0, "until": 551.9906700833482}, {"on": true, "note": 80, "velocity": 106, "until": 551.9906700833482}, {"on": true, "note": 71, "velocity": 106, "until": 552.0759942500149}, {"on": false, "note": 71, "velocity": 0, "until": 552.0759942500149}, {"on": false, "note": 80, "velocity": 0, "until": 552.0930590833483}, {"on": true, "note": 80, "velocity": 106, "until": 552.0930590833483}, {"on": true, "note": 71, "velocity": 106, "until": 552.182344500015}, {"on": false, "note": 71, "velocity": 0, "until": 552.182344500015}, {"on": false, "note": 80, "velocity": 0, "until": 552.2002015833484}, {"on": true, "note": 80, "velocity": 106, "until": 552.2002015833484}, {"on": true, "note": 71, "velocity": 106, "until": 552.2894870000151}, {"on": false, "note": 71, "velocity": 0, "until": 552.2894870000151}, {"on": false, "note": 80, "velocity": 0, "until": 552.3073440833485}, {"on": true, "note": 80, "velocity": 106, "until": 552.3073440833485}, {"on": true, "note": 71, "velocity": 106, "until": 552.3966295000153}, {"on": false, "note": 71, "velocity": 0, "until": 552.3966295000153}, {"on": false, "note": 80, "velocity": 0, "until": 552.4144865833487}, {"on": true, "note": 80, "velocity": 106, "until": 552.4144865833487}, {"on": true, "note": 71, "velocity": 106, "until": 552.5037720000154}, {"on": false, "note": 71, "velocity": 0, "until": 552.5037720000154}, {"on": false, "note": 80, "velocity": 0, "until": 552.5216290833488}, {"on": true, "note": 80, "velocity": 106, "until": 552.5216290833488}, {"on": true, "note": 71, "velocity": 106, "until": 552.6069532500155}, {"on": false, "note": 71, "velocity": 0, "until": 552.6069532500155}, {"on": false, "note": 80, "velocity": 0, "until": 552.6240180833489}, {"on": true, "note": 80, "velocity": 106, "until": 552.6240180833489}, {"on": true, "note": 71, "velocity": 106, "until": 552.7093422500157}, {"on": false, "note": 71, "velocity": 0, "until": 552.7093422500157}, {"on": false, "note": 80, "velocity": 0, "until": 552.726407083349}, {"on": true, "note": 80, "velocity": 106, "until": 552.726407083349}, {"on": true, "note": 71, "velocity": 106, "until": 552.8117312500159}, {"on": false, "note": 71, "velocity": 0, "until": 552.8117312500159}, {"on": false, "note": 80, "velocity": 0, "until": 552.8287960833493}, {"on": true, "note": 80, "velocity": 106, "until": 552.8287960833493}, {"on": true, "note": 71, "velocity": 106, "until": 552.9141202500161}, {"on": false, "note": 71, "velocity": 0, "until": 552.9141202500161}, {"on": false, "note": 80, "velocity": 0, "until": 552.9311850833495}, {"on": true, "note": 80, "velocity": 106, "until": 552.9311850833495}, {"on": true, "note": 71, "velocity": 106, "until": 553.0204705000168}, {"on": false, "note": 71, "velocity": 0, "until": 553.0204705000168}, {"on": false, "note": 80, "velocity": 0, "until": 553.0383275833505}, {"on": true, "note": 80, "velocity": 106, "until": 553.0383275833505}, {"on": true, "note": 71, "velocity": 106, "until": 553.1276130000176}, {"on": false, "note": 71, "velocity": 0, "until": 553.1276130000176}, {"on": false, "note": 80, "velocity": 0, "until": 553.145470083351}, {"on": true, "note": 80, "velocity": 106, "until": 553.145470083351}, {"on": true, "note": 71, "velocity": 106, "until": 553.2347555000177}, {"on": false, "note": 71, "velocity": 0, "until": 553.2347555000177}, {"on": false, "note": 80, "velocity": 0, "until": 553.2526125833512}, {"on": true, "note": 80, "velocity": 106, "until": 553.2526125833512}, {"on": true, "note": 71, "velocity": 106, "until": 553.3418980000179}, {"on": false, "note": 71, "velocity": 0, "until": 553.3418980000179}, {"on": false, "note": 80, "velocity": 0, "until": 553.3597550833513}, {"on": true, "note": 80, "velocity": 106, "until": 553.3597550833513}, {"on": true, "note": 71, "velocity": 106, "until": 553.4450792500179}, {"on": false, "note": 71, "velocity": 0, "until": 553.4450792500179}, {"on": false, "note": 80, "velocity": 0, "until": 553.4621440833513}, {"on": true, "note": 80, "velocity": 106, "until": 553.4621440833513}, {"on": true, "note": 71, "velocity": 106, "until": 553.547468250018}, {"on": false, "note": 71, "velocity": 0, "until": 553.547468250018}, {"on": false, "note": 80, "velocity": 0, "until": 553.5645330833514}, {"on": true, "note": 80, "velocity": 106, "until": 553.5645330833514}, {"on": true, "note": 71, "velocity": 106, "until": 553.6498572500183}, {"on": false, "note": 71, "velocity": 0, "until": 553.6498572500183}, {"on": false, "note": 80, "velocity": 0, "until": 553.6669220833517}, {"on": true, "note": 80, "velocity": 106, "until": 553.6669220833517}, {"on": true, "note": 71, "velocity": 106, "until": 553.7522462500185}, {"on": false, "note": 71, "velocity": 0, "until": 553.7522462500185}, {"on": false, "note": 80, "velocity": 0, "until": 553.7693110833519}, {"on": true, "note": 80, "velocity": 106, "until": 553.7693110833519}, {"on": true, "note": 71, "velocity": 106, "until": 553.8585965000192}, {"on": false, "note": 71, "velocity": 0, "until": 553.8585965000192}, {"on": false, "note": 80, "velocity": 0, "until": 553.8764535833528}, {"on": true, "note": 80, "velocity": 106, "until": 553.8764535833528}, {"on": true, "note": 71, "velocity": 106, "until": 553.96573900002}, {"on": false, "note": 71, "velocity": 0, "until": 553.96573900002}, {"on": false, "note": 80, "velocity": 0, "until": 553.9835960833534}, {"on": true, "note": 80, "velocity": 106, "until": 553.9835960833534}, {"on": true, "note": 71, "velocity": 106, "until": 554.0728815000201}, {"on": false, "note": 71, "velocity": 0, "until": 554.0728815000201}, {"on": false, "note": 80, "velocity": 0, "until": 554.0907385833535}, {"on": true, "note": 80, "velocity": 106, "until": 554.0907385833535}, {"on": true, "note": 71, "velocity": 106, "until": 554.1800240000202}, {"on": false, "note": 71, "velocity": 0, "until": 554.1800240000202}, {"on": false, "note": 80, "velocity": 0, "until": 554.1978810833536}, {"on": true, "note": 80, "velocity": 106, "until": 554.1978810833536}, {"on": true, "note": 71, "velocity": 106, "until": 554.2832052500203}, {"on": false, "note": 71, "velocity": 0, "until": 554.2832052500203}, {"on": false, "note": 80, "velocity": 0, "until": 554.3002700833537}, {"on": true, "note": 80, "velocity": 106, "until": 554.3002700833537}, {"on": true, "note": 71, "velocity": 106, "until": 554.3855942500204}, {"on": false, "note": 71, "velocity": 0, "until": 554.3855942500204}, {"on": false, "note": 80, "velocity": 0, "until": 554.4026590833538}, {"on": true, "note": 80, "velocity": 106, "until": 554.4026590833538}, {"on": true, "note": 71, "velocity": 106, "until": 554.4879832500206}, {"on": false, "note": 71, "velocity": 0, "until": 554.4879832500206}, {"on": false, "note": 80, "velocity": 0, "until": 554.505048083354}, {"on": true, "note": 80, "velocity": 106, "until": 554.505048083354}, {"on": true, "note": 71, "velocity": 106, "until": 554.5903722500209}, {"on": false, "note": 71, "velocity": 0, "until": 554.5903722500209}, {"on": false, "note": 80, "velocity": 0, "until": 554.6074370833543}, {"on": true, "note": 71, "velocity": 106, "until": 554.6074370833543}, {"on": true, "note": 79, "velocity": 106, "until": 554.6967225000216}, {"on": false, "note": 79, "velocity": 0, "until": 554.6967225000216}, {"on": false, "note": 71, "velocity": 0, "until": 554.7145795833552}, {"on": true, "note": 71, "velocity": 106, "until": 554.7145795833552}, {"on": true, "note": 79, "velocity": 106, "until": 554.8038650000224}, {"on": false, "note": 79, "velocity": 0, "until": 554.8038650000224}, {"on": false, "note": 71, "velocity": 0, "until": 554.8217220833558}, {"on": true, "note": 71, "velocity": 106, "until": 554.8217220833558}, {"on": true, "note": 79, "velocity": 106, "until": 554.9110075000225}, {"on": false, "note": 79, "velocity": 0, "until": 554.9110075000225}, {"on": false, "note": 71, "velocity": 0, "until": 554.9288645833559}, {"on": true, "note": 71, "velocity": 106, "until": 554.9288645833559}, {"on": true, "note": 79, "velocity": 106, "until": 555.0181500000226}, {"on": false, "note": 79, "velocity": 0, "until": 555.0181500000226}, {"on": false, "note": 71, "velocity": 0, "until": 555.036007083356}, {"on": true, "note": 71, "velocity": 106, "until": 555.036007083356}, {"on": true, "note": 79, "velocity": 106, "until": 555.1213312500228}, {"on": false, "note": 79, "velocity": 0, "until": 555.1213312500228}, {"on": false, "note": 71, "velocity": 0, "until": 555.1383960833562}, {"on": true, "note": 71, "velocity": 106, "until": 555.1383960833562}, {"on": true, "note": 79, "velocity": 106, "until": 555.2237202500229}, {"on": false, "note": 79, "velocity": 0, "until": 555.2237202500229}, {"on": false, "note": 71, "velocity": 0, "until": 555.2407850833563}, {"on": true, "note": 71, "velocity": 106, "until": 555.2407850833563}, {"on": true, "note": 79, "velocity": 106, "until": 555.326109250023}, {"on": false, "note": 79, "velocity": 0, "until": 555.326109250023}, {"on": false, "note": 71, "velocity": 0, "until": 555.3431740833564}, {"on": true, "note": 71, "velocity": 106, "until": 555.3431740833564}, {"on": true, "note": 79, "velocity": 106, "until": 555.4284982500232}, {"on": false, "note": 79, "velocity": 0, "until": 555.4284982500232}, {"on": false, "note": 71, "velocity": 0, "until": 555.4455630833565}, {"on": true, "note": 71, "velocity": 106, "until": 555.4455630833565}, {"on": true, "note": 79, "velocity": 106, "until": 555.5348485000233}, {"on": false, "note": 79, "velocity": 0, "until": 555.5348485000233}, {"on": false, "note": 71, "velocity": 0, "until": 555.5527055833567}, {"on": true, "note": 71, "velocity": 106, "until": 555.5527055833567}, {"on": true, "note": 79, "velocity": 106, "until": 555.6419910000234}, {"on": false, "note": 79, "velocity": 0, "until": 555.6419910000234}, {"on": false, "note": 71, "velocity": 0, "until": 555.6598480833568}, {"on": true, "note": 71, "velocity": 106, "until": 555.6598480833568}, {"on": true, "note": 79, "velocity": 106, "until": 555.7491335000235}, {"on": false, "note": 79, "velocity": 0, "until": 555.7491335000235}, {"on": false, "note": 71, "velocity": 0, "until": 555.7669905833569}, {"on": true, "note": 71, "velocity": 106, "until": 555.7669905833569}, {"on": true, "note": 79, "velocity": 106, "until": 555.8562760000236}, {"on": false, "note": 79, "velocity": 0, "until": 555.8562760000236}, {"on": false, "note": 71, "velocity": 0, "until": 555.874133083357}, {"on": true, "note": 71, "velocity": 106, "until": 555.874133083357}, {"on": true, "note": 79, "velocity": 106, "until": 555.9594572500238}, {"on": false, "note": 79, "velocity": 0, "until": 555.9594572500238}, {"on": false, "note": 71, "velocity": 0, "until": 555.9765220833572}, {"on": true, "note": 71, "velocity": 106, "until": 555.9765220833572}, {"on": true, "note": 79, "velocity": 106, "until": 556.0618462500239}, {"on": false, "note": 79, "velocity": 0, "until": 556.0618462500239}, {"on": false, "note": 71, "velocity": 0, "until": 556.0789110833573}, {"on": true, "note": 71, "velocity": 106, "until": 556.0789110833573}, {"on": true, "note": 79, "velocity": 106, "until": 556.164235250024}, {"on": false, "note": 79, "velocity": 0, "until": 556.164235250024}, {"on": false, "note": 71, "velocity": 0, "until": 556.1813000833574}, {"on": true, "note": 71, "velocity": 106, "until": 556.1813000833574}, {"on": true, "note": 79, "velocity": 106, "until": 556.2666242500242}, {"on": false, "note": 79, "velocity": 0, "until": 556.2666242500242}, {"on": false, "note": 71, "velocity": 0, "until": 556.2836890833576}, {"on": true, "note": 79, "velocity": 106, "until": 556.2836890833576}, {"on": true, "note": 72, "velocity": 106, "until": 556.3729745000244}, {"on": false, "note": 72, "velocity": 0, "until": 556.3729745000244}, {"on": false, "note": 79, "velocity": 0, "until": 556.3908315833578}, {"on": true, "note": 72, "velocity": 106, "until": 556.3908315833578}, {"on": true, "note": 79, "velocity": 106, "until": 556.4801170000245}, {"on": false, "note": 79, "velocity": 0, "until": 556.4801170000245}, {"on": false, "note": 72, "velocity": 0, "until": 556.4979740833579}, {"on": true, "note": 79, "velocity": 106, "until": 556.4979740833579}, {"on": true, "note": 72, "velocity": 106, "until": 556.5872595000246}, {"on": false, "note": 72, "velocity": 0, "until": 556.5872595000246}, {"on": false, "note": 79, "velocity": 0, "until": 556.605116583358}, {"on": true, "note": 72, "velocity": 106, "until": 556.605116583358}, {"on": true, "note": 79, "velocity": 106, "until": 556.6944020000248}, {"on": false, "note": 79, "velocity": 0, "until": 556.6944020000248}, {"on": false, "note": 72, "velocity": 0, "until": 556.7122590833582}, {"on": true, "note": 72, "velocity": 106, "until": 556.7122590833582}, {"on": true, "note": 79, "velocity": 106, "until": 556.7975832500249}, {"on": false, "note": 79, "velocity": 0, "until": 556.7975832500249}, {"on": false, "note": 72, "velocity": 0, "until": 556.8146480833583}, {"on": true, "note": 79, "velocity": 106, "until": 556.8146480833583}, {"on": true, "note": 72, "velocity": 106, "until": 556.899972250025}, {"on": false, "note": 72, "velocity": 0, "until": 556.899972250025}, {"on": false, "note": 79, "velocity": 0, "until": 556.9170370833584}, {"on": true, "note": 72, "velocity": 106, "until": 556.9170370833584}, {"on": true, "note": 79, "velocity": 106, "until": 557.0023612500252}, {"on": false, "note": 79, "velocity": 0, "until": 557.0023612500252}, {"on": false, "note": 72, "velocity": 0, "until": 557.0194260833586}, {"on": true, "note": 79, "velocity": 106, "until": 557.0194260833586}, {"on": true, "note": 72, "velocity": 106, "until": 557.1047502500253}, {"on": false, "note": 72, "velocity": 0, "until": 557.1047502500253}, {"on": false, "note": 79, "velocity": 0, "until": 557.1218150833587}, {"on": true, "note": 73, "velocity": 106, "until": 557.1218150833587}, {"on": true, "note": 82, "velocity": 106, "until": 557.2111005000255}, {"on": false, "note": 82, "velocity": 0, "until": 557.2111005000255}, {"on": false, "note": 73, "velocity": 0, "until": 557.2289575833589}, {"on": true, "note": 82, "velocity": 106, "until": 557.2289575833589}, {"on": true, "note": 73, "velocity": 106, "until": 557.3182430000256}, {"on": false, "note": 73, "velocity": 0, "until": 557.3182430000256}, {"on": false, "note": 82, "velocity": 0, "until": 557.336100083359}, {"on": true, "note": 73, "velocity": 106, "until": 557.336100083359}, {"on": true, "note": 82, "velocity": 106, "until": 557.4253855000258}, {"on": false, "note": 82, "velocity": 0, "until": 557.4253855000258}, {"on": false, "note": 73, "velocity": 0, "until": 557.4432425833592}, {"on": true, "note": 82, "velocity": 106, "until": 557.4432425833592}, {"on": true, "note": 73, "velocity": 106, "until": 557.5325280000259}, {"on": false, "note": 73, "velocity": 0, "until": 557.5325280000259}, {"on": false, "note": 82, "velocity": 0, "until": 557.5503850833593}, {"on": true, "note": 82, "velocity": 106, "until": 557.5503850833593}, {"on": true, "note": 73, "velocity": 106, "until": 557.635709250026}, {"on": false, "note": 73, "velocity": 0, "until": 557.635709250026}, {"on": false, "note": 82, "velocity": 0, "until": 557.6527740833594}, {"on": true, "note": 73, "velocity": 106, "until": 557.6527740833594}, {"on": true, "note": 82, "velocity": 106, "until": 557.7380982500262}, {"on": false, "note": 82, "velocity": 0, "until": 557.7380982500262}, {"on": false, "note": 73, "velocity": 0, "until": 557.7551630833595}, {"on": true, "note": 82, "velocity": 106, "until": 557.7551630833595}, {"on": true, "note": 73, "velocity": 106, "until": 557.8404872500263}, {"on": false, "note": 73, "velocity": 0, "until": 557.8404872500263}, {"on": false, "note": 82, "velocity": 0, "until": 557.8575520833597}, {"on": true, "note": 73, "velocity": 106, "until": 557.8575520833597}, {"on": true, "note": 82, "velocity": 106, "until": 557.9428762500264}, {"on": false, "note": 82, "velocity": 0, "until": 557.9428762500264}, {"on": false, "note": 73, "velocity": 0, "until": 557.9599410833598}, {"on": true, "note": 80, "velocity": 106, "until": 557.9599410833598}, {"on": true, "note": 72, "velocity": 106, "until": 558.17422608336}, {"on": false, "note": 72, "velocity": 0, "until": 558.17422608336}, {"on": false, "note": 80, "velocity": 0, "until": 558.3885110833603}, {"on": true, "note": 72, "velocity": 106, "until": 558.4909000833603}, {"on": false, "note": 72, "velocity": 0, "until": 558.4909000833603}, {"on": true, "note": 71, "velocity": 106, "until": 558.5932890833603}, {"on": false, "note": 71, "velocity": 0, "until": 558.5932890833603}, {"on": true, "note": 72, "velocity": 106, "until": 558.6956780833603}, {"on": false, "note": 72, "velocity": 0, "until": 558.6956780833603}, {"on": true, "note": 74, "velocity": 106, "until": 558.7980670833604}, {"on": false, "note": 74, "velocity": 0, "until": 558.7980670833604}, {"on": true, "note": 75, "velocity": 106, "until": 559.0123520833608}, {"on": false, "note": 75, "velocity": 0, "until": 559.2266370833611}, {"on": true, "note": 72, "velocity": 106, "until": 559.3290260833611}, {"on": false, "note": 72, "velocity": 0, "until": 559.3290260833611}, {"on": true, "note": 74, "velocity": 106, "until": 559.4314150833611}, {"on": false, "note": 74, "velocity": 0, "until": 559.4314150833611}, {"on": true, "note": 76, "velocity": 106, "until": 559.5338040833611}, {"on": false, "note": 76, "velocity": 0, "until": 559.5338040833611}, {"on": true, "note": 77, "velocity": 106, "until": 559.6361930833611}, {"on": false, "note": 77, "velocity": 0, "until": 559.6361930833611}, {"on": true, "note": 79, "velocity": 106, "until": 559.8504780833616}, {"on": false, "note": 79, "velocity": 0, "until": 560.0647630833619}, {"on": true, "note": 67, "velocity": 106, "until": 560.1671520833619}, {"on": false, "note": 67, "velocity": 0, "until": 560.1671520833619}, {"on": true, "note": 69, "velocity": 106, "until": 560.2695410833619}, {"on": false, "note": 69, "velocity": 0, "until": 560.2695410833619}, {"on": true, "note": 71, "velocity": 106, "until": 560.3719300833619}, {"on": false, "note": 71, "velocity": 0, "until": 560.3719300833619}, {"on": true, "note": 72, "velocity": 106, "until": 560.4743190833619}, {"on": false, "note": 72, "velocity": 0, "until": 560.4743190833619}, {"on": true, "note": 74, "velocity": 106, "until": 560.6886040833624}, {"on": false, "note": 74, "velocity": 0, "until": 561.3880420833625}, {"on": true, "note": 71, "velocity": 106, "until": 561.3880420833625}, {"on": true, "note": 79, "velocity": 106, "until": 561.4773275000296}, {"on": false, "note": 79, "velocity": 0, "until": 561.4773275000296}, {"on": false, "note": 71, "velocity": 0, "until": 561.4951845833631}, {"on": true, "note": 71, "velocity": 106, "until": 561.4951845833631}, {"on": true, "note": 79, "velocity": 106, "until": 561.5844700000298}, {"on": false, "note": 79, "velocity": 0, "until": 561.5844700000298}, {"on": false, "note": 71, "velocity": 0, "until": 561.6023270833632}, {"on": true, "note": 71, "velocity": 106, "until": 561.6023270833632}, {"on": true, "note": 79, "velocity": 106, "until": 561.6916125000299}, {"on": false, "note": 79, "velocity": 0, "until": 561.6916125000299}, {"on": false, "note": 71, "velocity": 0, "until": 561.7094695833633}, {"on": true, "note": 71, "velocity": 106, "until": 561.7094695833633}, {"on": true, "note": 79, "velocity": 106, "until": 561.79875500003}, {"on": false, "note": 79, "velocity": 0, "until": 561.79875500003}, {"on": false, "note": 71, "velocity": 0, "until": 561.8166120833635}, {"on": true, "note": 71, "velocity": 106, "until": 561.8166120833635}, {"on": true, "note": 79, "velocity": 106, "until": 561.9019362500302}, {"on": false, "note": 79, "velocity": 0, "until": 561.9019362500302}, {"on": false, "note": 71, "velocity": 0, "until": 561.9190010833636}, {"on": true, "note": 71, "velocity": 106, "until": 561.9190010833636}, {"on": true, "note": 79, "velocity": 106, "until": 562.0043252500303}, {"on": false, "note": 79, "velocity": 0, "until": 562.0043252500303}, {"on": false, "note": 71, "velocity": 0, "until": 562.0213900833637}, {"on": true, "note": 71, "velocity": 106, "until": 562.0213900833637}, {"on": true, "note": 79, "velocity": 106, "until": 562.1067142500304}, {"on": false, "note": 79, "velocity": 0, "until": 562.1067142500304}, {"on": false, "note": 71, "velocity": 0, "until": 562.1237790833638}, {"on": true, "note": 71, "velocity": 106, "until": 562.1237790833638}, {"on": true, "note": 79, "velocity": 106, "until": 562.2091032500306}, {"on": false, "note": 79, "velocity": 0, "until": 562.2091032500306}, {"on": false, "note": 71, "velocity": 0, "until": 562.226168083364}, {"on": true, "note": 71, "velocity": 106, "until": 562.226168083364}, {"on": true, "note": 79, "velocity": 106, "until": 562.3154535000307}, {"on": false, "note": 79, "velocity": 0, "until": 562.3154535000307}, {"on": false, "note": 71, "velocity": 0, "until": 562.3333105833641}, {"on": true, "note": 71, "velocity": 106, "until": 562.3333105833641}, {"on": true, "note": 79, "velocity": 106, "until": 562.4225960000308}, {"on": false, "note": 79, "velocity": 0, "until": 562.4225960000308}, {"on": false, "note": 71, "velocity": 0, "until": 562.4404530833642}, {"on": true, "note": 71, "velocity": 106, "until": 562.4404530833642}, {"on": true, "note": 79, "velocity": 106, "until": 562.5297385000309}, {"on": false, "note": 79, "velocity": 0, "until": 562.5297385000309}, {"on": false, "note": 71, "velocity": 0, "until": 562.5475955833643}, {"on": true, "note": 71, "velocity": 106, "until": 562.5475955833643}, {"on": true, "note": 79, "velocity": 106, "until": 562.636881000031}, {"on": false, "note": 79, "velocity": 0, "until": 562.636881000031}, {"on": false, "note": 71, "velocity": 0, "until": 562.6547380833645}, {"on": true, "note": 71, "velocity": 106, "until": 562.6547380833645}, {"on": true, "note": 79, "velocity": 106, "until": 562.7400622500312}, {"on": false, "note": 79, "velocity": 0, "until": 562.7400622500312}, {"on": false, "note": 71, "velocity": 0, "until": 562.7571270833646}, {"on": true, "note": 71, "velocity": 106, "until": 562.7571270833646}, {"on": true, "note": 79, "velocity": 106, "until": 562.8424512500313}, {"on": false, "note": 79, "velocity": 0, "until": 562.8424512500313}, {"on": false, "note": 71, "velocity": 0, "until": 562.8595160833647}, {"on": true, "note": 71, "velocity": 106, "until": 562.8595160833647}, {"on": true, "note": 79, "velocity": 106, "until": 562.9448402500315}, {"on": false, "note": 79, "velocity": 0, "until": 562.9448402500315}, {"on": false, "note": 71, "velocity": 0, "until": 562.9619050833649}, {"on": true, "note": 71, "velocity": 106, "until": 562.9619050833649}, {"on": true, "note": 79, "velocity": 106, "until": 563.0472292500316}, {"on": false, "note": 79, "velocity": 0, "until": 563.0472292500316}, {"on": false, "note": 71, "velocity": 0, "until": 563.064294083365}, {"on": true, "note": 79, "velocity": 106, "until": 563.064294083365}, {"on": true, "note": 72, "velocity": 106, "until": 563.1535795000318}, {"on": false, "note": 72, "velocity": 0, "until": 563.1535795000318}, {"on": false, "note": 79, "velocity": 0, "until": 563.1714365833652}, {"on": true, "note": 72, "velocity": 106, "until": 563.1714365833652}, {"on": true, "note": 79, "velocity": 106, "until": 563.2607220000319}, {"on": false, "note": 79, "velocity": 0, "until": 563.2607220000319}, {"on": false, "note": 72, "velocity": 0, "until": 563.2785790833653}, {"on": true, "note": 79, "velocity": 106, "until": 563.2785790833653}, {"on": true, "note": 72, "velocity": 106, "until": 563.367864500032}, {"on": false, "note": 72, "velocity": 0, "until": 563.367864500032}, {"on": false, "note": 79, "velocity": 0, "until": 563.3857215833655}, {"on": true, "note": 72, "velocity": 106, "until": 563.3857215833655}, {"on": true, "note": 79, "velocity": 106, "until": 563.4750070000322}, {"on": false, "note": 79, "velocity": 0, "until": 563.4750070000322}, {"on": false, "note": 72, "velocity": 0, "until": 563.4928640833656}, {"on": true, "note": 72, "velocity": 106, "until": 563.4928640833656}, {"on": true, "note": 79, "velocity": 106, "until": 563.5781882500323}, {"on": false, "note": 79, "velocity": 0, "until": 563.5781882500323}, {"on": false, "note": 72, "velocity": 0, "until": 563.5952530833657}, {"on": true, "note": 79, "velocity": 106, "until": 563.5952530833657}, {"on": true, "note": 72, "velocity": 106, "until": 563.6805772500325}, {"on": false, "note": 72, "velocity": 0, "until": 563.6805772500325}, {"on": false, "note": 79, "velocity": 0, "until": 563.6976420833658}, {"on": true, "note": 72, "velocity": 106, "until": 563.6976420833658}, {"on": true, "note": 79, "velocity": 106, "until": 563.7829662500326}, {"on": false, "note": 79, "velocity": 0, "until": 563.7829662500326}, {"on": false, "note": 72, "velocity": 0, "until": 563.800031083366}, {"on": true, "note": 79, "velocity": 106, "until": 563.800031083366}, {"on": true, "note": 72, "velocity": 106, "until": 563.8853552500327}, {"on": false, "note": 72, "velocity": 0, "until": 563.8853552500327}, {"on": false, "note": 79, "velocity": 0, "until": 563.9024200833661}, {"on": true, "note": 73, "velocity": 106, "until": 563.9024200833661}, {"on": true, "note": 82, "velocity": 106, "until": 563.9917055000329}, {"on": false, "note": 82, "velocity": 0, "until": 563.9917055000329}, {"on": false, "note": 73, "velocity": 0, "until": 564.0095625833663}, {"on": true, "note": 82, "velocity": 106, "until": 564.0095625833663}, {"on": true, "note": 73, "velocity": 106, "until": 564.0988480000331}, {"on": false, "note": 73, "velocity": 0, "until": 564.0988480000331}, {"on": false, "note": 82, "velocity": 0, "until": 564.1167050833665}, {"on": true, "note": 73, "velocity": 106, "until": 564.1167050833665}, {"on": true, "note": 82, "velocity": 106, "until": 564.2059905000332}, {"on": false, "note": 82, "velocity": 0, "until": 564.2059905000332}, {"on": false, "note": 73, "velocity": 0, "until": 564.2238475833666}, {"on": true, "note": 82, "velocity": 106, "until": 564.2238475833666}, {"on": true, "note": 73, "velocity": 106, "until": 564.3131330000333}, {"on": false, "note": 73, "velocity": 0, "until": 564.3131330000333}, {"on": false, "note": 82, "velocity": 0, "until": 564.3309900833667}, {"on": true, "note": 82, "velocity": 106, "until": 564.3309900833667}, {"on": true, "note": 73, "velocity": 106, "until": 564.4163142500335}, {"on": false, "note": 73, "velocity": 0, "until": 564.4163142500335}, {"on": false, "note": 82, "velocity": 0, "until": 564.4333790833668}, {"on": true, "note": 73, "velocity": 106, "until": 564.4333790833668}, {"on": true, "note": 82, "velocity": 106, "until": 564.5187032500336}, {"on": false, "note": 82, "velocity": 0, "until": 564.5187032500336}, {"on": false, "note": 73, "velocity": 0, "until": 564.535768083367}, {"on": true, "note": 82, "velocity": 106, "until": 564.535768083367}, {"on": true, "note": 73, "velocity": 106, "until": 564.6210922500337}, {"on": false, "note": 73, "velocity": 0, "until": 564.6210922500337}, {"on": false, "note": 82, "velocity": 0, "until": 564.6381570833671}, {"on": true, "note": 73, "velocity": 106, "until": 564.6381570833671}, {"on": true, "note": 82, "velocity": 106, "until": 564.7234812500338}, {"on": false, "note": 82, "velocity": 0, "until": 564.7234812500338}, {"on": false, "note": 73, "velocity": 0, "until": 564.7405460833672}, {"on": true, "note": 80, "velocity": 106, "until": 564.7405460833672}, {"on": true, "note": 72, "velocity": 106, "until": 564.9548310833675}, {"on": false, "note": 72, "velocity": 0, "until": 564.9548310833675}, {"on": false, "note": 80, "velocity": 0, "until": 565.1691160833677}, {"on": true, "note": 72, "velocity": 106, "until": 565.2715050833677}, {"on": false, "note": 72, "velocity": 0, "until": 565.2715050833677}, {"on": true, "note": 71, "velocity": 106, "until": 565.3738940833678}, {"on": false, "note": 71, "velocity": 0, "until": 565.3738940833678}, {"on": true, "note": 72, "velocity": 106, "until": 565.4762830833678}, {"on": false, "note": 72, "velocity": 0, "until": 565.4762830833678}, {"on": true, "note": 74, "velocity": 106, "until": 565.5786720833678}, {"on": false, "note": 74, "velocity": 0, "until": 565.5786720833678}, {"on": true, "note": 75, "velocity": 106, "until": 565.7929570833683}, {"on": false, "note": 75, "velocity": 0, "until": 566.0072420833685}, {"on": true, "note": 72, "velocity": 106, "until": 566.1096310833685}, {"on": false, "note": 72, "velocity": 0, "until": 566.1096310833685}, {"on": true, "note": 74, "velocity": 106, "until": 566.2120200833685}, {"on": false, "note": 74, "velocity": 0, "until": 566.2120200833685}, {"on": true, "note": 76, "velocity": 106, "until": 566.3144090833686}, {"on": false, "note": 76, "velocity": 0, "until": 566.3144090833686}, {"on": true, "note": 77, "velocity": 106, "until": 566.4167980833686}, {"on": false, "note": 77, "velocity": 0, "until": 566.4167980833686}, {"on": true, "note": 79, "velocity": 106, "until": 566.6341890833681}, {"on": false, "note": 79, "velocity": 0, "until": 566.851580083368}, {"on": true, "note": 67, "velocity": 106, "until": 566.956109583368}, {"on": false, "note": 67, "velocity": 0, "until": 566.956109583368}, {"on": true, "note": 69, "velocity": 106, "until": 567.0606390833678}, {"on": false, "note": 69, "velocity": 0, "until": 567.0606390833678}, {"on": true, "note": 71, "velocity": 106, "until": 567.1651685833677}, {"on": false, "note": 71, "velocity": 0, "until": 567.1651685833677}, {"on": true, "note": 72, "velocity": 106, "until": 567.2696980833676}, {"on": false, "note": 72, "velocity": 0, "until": 567.2696980833676}, {"on": true, "note": 74, "velocity": 106, "until": 567.5004670833682}, {"on": false, "note": 74, "velocity": 0, "until": 569.968289083369}, {"on": true, "note": 79, "velocity": 106, "until": 570.070678083369}, {"on": false, "note": 79, "velocity": 0, "until": 570.070678083369}, {"on": true, "note": 77, "velocity": 106, "until": 570.173067083369}, {"on": false, "note": 77, "velocity": 0, "until": 570.173067083369}, {"on": true, "note": 76, "velocity": 106, "until": 570.275456083369}, {"on": false, "note": 76, "velocity": 0, "until": 570.275456083369}, {"on": true, "note": 74, "velocity": 106, "until": 570.377845083369}, {"on": false, "note": 74, "velocity": 0, "until": 570.377845083369}, {"on": true, "note": 72, "velocity": 106, "until": 570.484987583369}, {"on": false, "note": 72, "velocity": 0, "until": 570.592130083369}, {"on": true, "note": 71, "velocity": 106, "until": 570.6992725833691}, {"on": false, "note": 71, "velocity": 0, "until": 570.8064150833691}, {"on": true, "note": 72, "velocity": 106, "until": 570.9088040833692}, {"on": false, "note": 72, "velocity": 0, "until": 571.0111930833693}, {"on": true, "note": 71, "velocity": 106, "until": 571.1135820833695}, {"on": false, "note": 71, "velocity": 0, "until": 571.2159710833696}, {"on": true, "note": 72, "velocity": 106, "until": 571.6445410833696}, {"on": false, "note": 72, "velocity": 0, "until": 573.3207930833705}, {"on": true, "note": 79, "velocity": 106, "until": 573.4231820833705}, {"on": false, "note": 79, "velocity": 0, "until": 573.4231820833705}, {"on": true, "note": 77, "velocity": 106, "until": 573.5255710833706}, {"on": false, "note": 77, "velocity": 0, "until": 573.5255710833706}, {"on": true, "note": 76, "velocity": 106, "until": 573.6279600833706}, {"on": false, "note": 76, "velocity": 0, "until": 573.6279600833706}, {"on": true, "note": 74, "velocity": 106, "until": 573.7303490833706}, {"on": false, "note": 74, "velocity": 0, "until": 573.7303490833706}, {"on": true, "note": 72, "velocity": 106, "until": 573.8374915833706}, {"on": false, "note": 72, "velocity": 0, "until": 573.9446340833706}, {"on": true, "note": 71, "velocity": 106, "until": 574.0517765833706}, {"on": false, "note": 71, "velocity": 0, "until": 574.1589190833706}, {"on": true, "note": 72, "velocity": 106, "until": 574.2613080833707}, {"on": false, "note": 72, "velocity": 0, "until": 574.3636970833709}, {"on": true, "note": 71, "velocity": 106, "until": 574.466086083371}, {"on": false, "note": 71, "velocity": 0, "until": 574.5684750833711}, {"on": true, "note": 72, "velocity": 106, "until": 574.9970450833712}, {"on": false, "note": 72, "velocity": 0, "until": 578.3495490833764}, {"on": true, "note": 67, "velocity": 106, "until": 578.4519380833764}, {"on": false, "note": 67, "velocity": 0, "until": 578.4519380833764}, {"on": true, "note": 65, "velocity": 106, "until": 578.5543270833764}, {"on": false, "note": 65, "velocity": 0, "until": 578.5543270833764}, {"on": true, "note": 64, "velocity": 106, "until": 578.6567160833764}, {"on": false, "note": 64, "velocity": 0, "until": 578.6567160833764}, {"on": true, "note": 62, "velocity": 106, "until": 578.7591050833764}, {"on": false, "note": 62, "velocity": 0, "until": 578.7591050833764}, {"on": true, "note": 60, "velocity": 106, "until": 578.9412473333765}, {"on": false, "note": 60, "velocity": 0, "until": 578.9733900833766}, {"on": true, "note": 59, "velocity": 106, "until": 579.1555323333766}, {"on": false, "note": 59, "velocity": 0, "until": 579.1876750833767}, {"on": true, "note": 60, "velocity": 106, "until": 579.3617363833769}, {"on": false, "note": 60, "velocity": 0, "until": 579.392453083377}, {"on": true, "note": 59, "velocity": 106, "until": 579.5665143833771}, {"on": false, "note": 59, "velocity": 0, "until": 579.5972310833772}, {"on": true, "note": 60, "velocity": 106, "until": 579.7793733333773}, {"on": false, "note": 60, "velocity": 0, "until": 579.8115160833773}, {"on": true, "note": 59, "velocity": 106, "until": 579.9936583333774}, {"on": false, "note": 59, "velocity": 0, "until": 580.0258010833775}, {"on": true, "note": 60, "velocity": 106, "until": 580.1998623833776}, {"on": false, "note": 60, "velocity": 0, "until": 580.2305790833777}, {"on": true, "note": 59, "velocity": 106, "until": 580.4046403833779}, {"on": false, "note": 59, "velocity": 0, "until": 580.435357083378}, {"on": true, "note": 60, "velocity": 106, "until": 580.6174993333782}, {"on": false, "note": 60, "velocity": 0, "until": 580.6496420833784}, {"on": true, "note": 83, "velocity": 106, "until": 580.7567845833786}, {"on": false, "note": 83, "velocity": 0, "until": 580.8639270833788}, {"on": true, "note": 84, "velocity": 106, "until": 580.966316083379}, {"on": false, "note": 84, "velocity": 0, "until": 581.068705083379}, {"on": true, "note": 83, "velocity": 106, "until": 581.1710940833791}, {"on": false, "note": 83, "velocity": 0, "until": 581.2734830833791}, {"on": true, "note": 84, "velocity": 106, "until": 581.3806255833794}, {"on": false, "note": 84, "velocity": 0, "until": 581.4877680833796}, {"on": true, "note": 83, "velocity": 106, "until": 581.5949105833798}, {"on": false, "note": 83, "velocity": 0, "until": 581.7020530833801}, {"on": true, "note": 84, "velocity": 106, "until": 581.8044420833802}, {"on": false, "note": 84, "velocity": 0, "until": 581.9068310833802}, {"on": true, "note": 83, "velocity": 106, "until": 582.0092200833803}, {"on": false, "note": 83, "velocity": 0, "until": 582.1116090833804}, {"on": true, "note": 84, "velocity": 106, "until": 582.2495397500471}, {"on": false, "note": 84, "velocity": 0, "until": 583.0254010833805}, {"on": true, "note": 67, "velocity": 106, "until": 583.0254010833805}, {"on": true, "note": 76, "velocity": 106, "until": 583.0254010833805}, {"on": true, "note": 84, "velocity": 106, "until": 583.2389240833807}, {"on": false, "note": 84, "velocity": 0, "until": 583.2389240833807}, {"on": false, "note": 76, "velocity": 0, "until": 583.2389240833807}, {"on": false, "note": 67, "velocity": 0, "until": 583.9954330833808}, {"on": true, "note": 60, "velocity": 106, "until": 584.5641530833809}]}, {"id": 11, "states": [{"on": true, "note": 60, "velocity": 106, "until": 0}, {"on": false, "note": 0, "velocity": 0, "until": 5.410638291666643}, {"on": false, "note": 60, "velocity": 0, "until": 5.410638291666643}, {"on": true, "note": 67, "velocity": 76, "until": 5.410638291666643}, {"on": true, "note": 72, "velocity": 76, "until": 5.410638291666643}, {"on": true, "note": 76, "velocity": 76, "until": 6.048935791666645}, {"on": false, "note": 76, "velocity": 0, "until": 6.048935791666645}, {"on": false, "note": 72, "velocity": 0, "until": 6.048935791666645}, {"on": false, "note": 67, "velocity": 0, "until": 6.687233291666646}, {"on": true, "note": 65, "velocity": 76, "until": 6.687233291666646}, {"on": true, "note": 72, "velocity": 76, "until": 6.687233291666646}, {"on": true, "note": 77, "velocity": 76, "until": 7.3255307916666474}, {"on": false, "note": 77, "velocity": 0, "until": 7.3255307916666474}, {"on": false, "note": 72, "velocity": 0, "until": 7.3255307916666474}, {"on": false, "note": 65, "velocity": 0, "until": 9.67747499999999}, {"on": true, "note": 60, "velocity": 106, "until": 13.278586108333295}, {"on": false, "note": 60, "velocity": 0, "until": 13.278586108333295}, {"on": true, "note": 72, "velocity": 106, "until": 13.278586108333295}, {"on": true, "note": 78, "velocity": 106, "until": 13.945252608333293}, {"on": false, "note": 78, "velocity": 0, "until": 13.945252608333293}, {"on": false, "note": 72, "velocity": 0, "until": 14.611919108333291}, {"on": true, "note": 71, "velocity": 106, "until": 14.611919108333291}, {"on": true, "note": 79, "velocity": 106, "until": 15.27858560833329}, {"on": false, "note": 79, "velocity": 0, "until": 15.27858560833329}, {"on": false, "note": 71, "velocity": 0, "until": 27.729080000000053}, {"on": true, "note": 65, "velocity": 106, "until": 28.929949558333423}, {"on": false, "note": 65, "velocity": 0, "until": 28.929949558333423}, {"on": true, "note": 60, "velocity": 106, "until": 29.908209808333417}, {"on": false, "note": 60, "velocity": 0, "until": 29.908209808333417}, {"on": true, "note": 62, "velocity": 106, "until": 30.233427000000084}, {"on": false, "note": 62, "velocity": 0, "until": 30.233427000000084}, {"on": true, "note": 64, "velocity": 106, "until": 30.833427000000093}, {"on": false, "note": 64, "velocity": 0, "until": 31.4334270000001}, {"on": true, "note": 59, "velocity": 106, "until": 32.033427000000174}, {"on": false, "note": 59, "velocity": 0, "until": 32.6342965583335}, {"on": true, "note": 60, "velocity": 106, "until": 33.61255680833349}, {"on": false, "note": 60, "velocity": 0, "until": 33.61255680833349}, {"on": true, "note": 62, "velocity": 106, "until": 33.937774000000154}, {"on": false, "note": 62, "velocity": 0, "until": 33.937774000000154}, {"on": true, "note": 64, "velocity": 106, "until": 34.53777400000014}, {"on": false, "note": 64, "velocity": 0, "until": 35.1384122916668}, {"on": true, "note": 59, "velocity": 106, "until": 35.77922939166677}, {"on": false, "note": 59, "velocity": 0, "until": 36.567172900000095}, {"on": true, "note": 60, "velocity": 106, "until": 37.61368390000014}, {"on": false, "note": 60, "velocity": 0, "until": 37.61368390000014}, {"on": true, "note": 62, "velocity": 106, "until": 37.961762558333476}, {"on": false, "note": 62, "velocity": 0, "until": 37.961762558333476}, {"on": true, "note": 63, "velocity": 106, "until": 38.613936058333465}, {"on": false, "note": 63, "velocity": 0, "until": 42.21255134166678}, {"on": true, "note": 68, "velocity": 106, "until": 42.46507655000013}, {"on": false, "note": 68, "velocity": 0, "until": 42.61659167500013}, {"on": true, "note": 67, "velocity": 106, "until": 42.86911688333347}, {"on": false, "note": 67, "velocity": 0, "until": 43.02063200833347}, {"on": true, "note": 65, "velocity": 106, "until": 43.27315721666681}, {"on": false, "note": 65, "velocity": 0, "until": 43.42467234166681}, {"on": true, "note": 63, "velocity": 106, "until": 43.67719755000015}, {"on": false, "note": 63, "velocity": 0, "until": 43.828712675000155}, {"on": true, "note": 62, "velocity": 106, "until": 44.08123788333349}, {"on": false, "note": 62, "velocity": 0, "until": 44.23352155833349}, {"on": true, "note": 60, "velocity": 106, "until": 44.34221714166682}, {"on": false, "note": 60, "velocity": 0, "until": 44.34221714166682}, {"on": true, "note": 62, "velocity": 106, "until": 44.45091272500016}, {"on": false, "note": 62, "velocity": 0, "until": 44.45091272500016}, {"on": true, "note": 60, "velocity": 106, "until": 44.668303891666824}, {"on": false, "note": 60, "velocity": 0, "until": 44.668303891666824}, {"on": true, "note": 58, "velocity": 106, "until": 45.04873843333349}, {"on": false, "note": 58, "velocity": 0, "until": 45.103086225000155}, {"on": true, "note": 58, "velocity": 106, "until": 45.34221650833349}, {"on": false, "note": 58, "velocity": 0, "until": 45.53699900000016}, {"on": true, "note": 60, "velocity": 106, "until": 45.63699900000015}, {"on": false, "note": 60, "velocity": 0, "until": 45.63699900000015}, {"on": true, "note": 62, "velocity": 106, "until": 45.736999000000154}, {"on": false, "note": 62, "velocity": 0, "until": 45.736999000000154}, {"on": true, "note": 60, "velocity": 106, "until": 45.93699900000015}, {"on": false, "note": 60, "velocity": 0, "until": 45.93699900000015}, {"on": true, "note": 58, "velocity": 106, "until": 46.28699900000015}, {"on": false, "note": 58, "velocity": 0, "until": 46.33699900000015}, {"on": true, "note": 58, "velocity": 106, "until": 46.55699900000014}, {"on": false, "note": 58, "velocity": 0, "until": 46.73699900000013}, {"on": true, "note": 62, "velocity": 106, "until": 46.83699900000013}, {"on": false, "note": 62, "velocity": 0, "until": 46.83699900000013}, {"on": true, "note": 60, "velocity": 106, "until": 46.93699900000013}, {"on": false, "note": 60, "velocity": 0, "until": 46.93699900000013}, {"on": true, "note": 60, "velocity": 106, "until": 47.136999000000124}, {"on": false, "note": 60, "velocity": 0, "until": 47.136999000000124}, {"on": true, "note": 58, "velocity": 106, "until": 47.486999000000125}, {"on": false, "note": 58, "velocity": 0, "until": 47.53699900000012}, {"on": true, "note": 58, "velocity": 106, "until": 47.756999000000114}, {"on": false, "note": 58, "velocity": 0, "until": 47.93786855833344}, {"on": true, "note": 58, "velocity": 106, "until": 48.372650891666765}, {"on": false, "note": 58, "velocity": 0, "until": 48.372650891666765}, {"on": true, "note": 67, "velocity": 106, "until": 48.807433225000096}, {"on": false, "note": 67, "velocity": 0, "until": 48.807433225000096}, {"on": true, "note": 65, "velocity": 106, "until": 49.24134600000009}, {"on": false, "note": 65, "velocity": 0, "until": 49.24134600000009}, {"on": true, "note": 63, "velocity": 106, "until": 49.64134600000009}, {"on": false, "note": 63, "velocity": 0, "until": 49.64134600000009}, {"on": true, "note": 62, "velocity": 106, "until": 50.04134600000009}, {"on": false, "note": 62, "velocity": 0, "until": 50.04134600000009}, {"on": true, "note": 60, "velocity": 106, "until": 50.44134600000009}, {"on": false, "note": 60, "velocity": 0, "until": 50.44134600000009}, {"on": true, "note": 58, "velocity": 106, "until": 50.841346000000094}, {"on": false, "note": 58, "velocity": 0, "until": 50.841346000000094}, {"on": true, "note": 57, "velocity": 106, "until": 51.24134600000009}, {"on": false, "note": 57, "velocity": 0, "until": 51.24134600000009}, {"on": true, "note": 58, "velocity": 106, "until": 51.59134600000009}, {"on": false, "note": 58, "velocity": 0, "until": 51.64221555833342}, {"on": true, "note": 60, "velocity": 106, "until": 51.75091114166675}, {"on": false, "note": 60, "velocity": 0, "until": 51.75091114166675}, {"on": true, "note": 62, "velocity": 106, "until": 51.859606725000084}, {"on": false, "note": 62, "velocity": 0, "until": 51.859606725000084}, {"on": true, "note": 60, "velocity": 106, "until": 52.07699789166675}, {"on": false, "note": 60, "velocity": 0, "until": 52.07699789166675}, {"on": true, "note": 58, "velocity": 106, "until": 52.457432433333416}, {"on": false, "note": 58, "velocity": 0, "until": 52.51178022500008}, {"on": true, "note": 58, "velocity": 106, "until": 52.75091050833342}, {"on": false, "note": 58, "velocity": 0, "until": 52.945693000000084}, {"on": true, "note": 60, "velocity": 106, "until": 53.04569300000008}, {"on": false, "note": 60, "velocity": 0, "until": 53.04569300000008}, {"on": true, "note": 62, "velocity": 106, "until": 53.14569300000008}, {"on": false, "note": 62, "velocity": 0, "until": 53.14569300000008}, {"on": true, "note": 60, "velocity": 106, "until": 53.345693000000075}, {"on": false, "note": 60, "velocity": 0, "until": 53.345693000000075}, {"on": true, "note": 58, "velocity": 106, "until": 53.69569300000008}, {"on": false, "note": 58, "velocity": 0, "until": 53.745693000000074}, {"on": true, "note": 58, "velocity": 106, "until": 53.965693000000066}, {"on": false, "note": 58, "velocity": 0, "until": 54.14569300000006}, {"on": true, "note": 62, "velocity": 106, "until": 54.24569300000005}, {"on": false, "note": 62, "velocity": 0, "until": 54.24569300000005}, {"on": true, "note": 60, "velocity": 106, "until": 54.345693000000054}, {"on": false, "note": 60, "velocity": 0, "until": 54.345693000000054}, {"on": true, "note": 60, "velocity": 106, "until": 54.54569300000005}, {"on": false, "note": 60, "velocity": 0, "until": 54.54569300000005}, {"on": true, "note": 58, "velocity": 106, "until": 54.89569300000005}, {"on": false, "note": 58, "velocity": 0, "until": 54.94569300000005}, {"on": true, "note": 58, "velocity": 106, "until": 55.16569300000004}, {"on": false, "note": 58, "velocity": 0, "until": 55.34656255833337}, {"on": true, "note": 58, "velocity": 106, "until": 55.78134489166669}, {"on": false, "note": 58, "velocity": 0, "until": 55.78134489166669}, {"on": true, "note": 67, "velocity": 106, "until": 56.21612722500002}, {"on": false, "note": 67, "velocity": 0, "until": 56.21612722500002}, {"on": true, "note": 65, "velocity": 106, "until": 56.65004000000002}, {"on": false, "note": 65, "velocity": 0, "until": 56.65004000000002}, {"on": true, "note": 63, "velocity": 106, "until": 57.05004000000002}, {"on": false, "note": 63, "velocity": 0, "until": 57.05004000000002}, {"on": true, "note": 62, "velocity": 106, "until": 57.45004000000001}, {"on": false, "note": 62, "velocity": 0, "until": 57.45004000000001}, {"on": true, "note": 60, "velocity": 106, "until": 57.85004}, {"on": false, "note": 60, "velocity": 0, "until": 57.85004}, {"on": true, "note": 58, "velocity": 106, "until": 58.250040000000006}, {"on": false, "note": 58, "velocity": 0, "until": 58.250040000000006}, {"on": true, "note": 57, "velocity": 106, "until": 58.651944758333336}, {"on": false, "note": 57, "velocity": 0, "until": 58.651944758333336}, {"on": true, "note": 58, "velocity": 106, "until": 59.06861129999998}, {"on": false, "note": 58, "velocity": 0, "until": 59.127593966666645}, {"on": true, "note": 59, "velocity": 106, "until": 59.127593966666645}, {"on": true, "note": 68, "velocity": 106, "until": 59.80941196666655}, {"on": false, "note": 68, "velocity": 0, "until": 59.80941196666655}, {"on": false, "note": 59, "velocity": 0, "until": 62.95634596666654}, {"on": true, "note": 60, "velocity": 106, "until": 62.95634596666654}, {"on": true, "note": 67, "velocity": 106, "until": 63.63816396666645}, {"on": false, "note": 67, "velocity": 0, "until": 63.63816396666645}, {"on": false, "note": 60, "velocity": 0, "until": 66.78460389166648}, {"on": true, "note": 56, "velocity": 106, "until": 67.7628641416668}, {"on": false, "note": 56, "velocity": 0, "until": 67.7628641416668}, {"on": true, "note": 58, "velocity": 78, "until": 68.08808133333346}, {"on": false, "note": 58, "velocity": 0, "until": 68.08808133333346}, {"on": true, "note": 60, "velocity": 78, "until": 70.61657095000007}, {"on": false, "note": 60, "velocity": 0, "until": 70.61657095000007}, {"on": true, "note": 61, "velocity": 86, "until": 73.16083216666674}, {"on": false, "note": 61, "velocity": 0, "until": 73.1927766083334}, {"on": true, "note": 61, "velocity": 94, "until": 74.47055406666676}, {"on": false, "note": 61, "velocity": 0, "until": 74.52662640000008}, {"on": true, "note": 60, "velocity": 98, "until": 74.99174240000006}, {"on": false, "note": 60, "velocity": 0, "until": 74.99174240000006}, {"on": true, "note": 59, "velocity": 99, "until": 75.45685840000004}, {"on": false, "note": 59, "velocity": 0, "until": 75.45685840000004}, {"on": true, "note": 60, "velocity": 100, "until": 75.92121605833337}, {"on": false, "note": 60, "velocity": 0, "until": 75.92121605833337}, {"on": true, "note": 60, "velocity": 102, "until": 77.22556305833339}, {"on": false, "note": 60, "velocity": 0, "until": 77.22556305833339}, {"on": true, "note": 61, "velocity": 106, "until": 78.53066840000015}, {"on": false, "note": 61, "velocity": 0, "until": 78.53066840000015}, {"on": true, "note": 60, "velocity": 106, "until": 78.99578440000013}, {"on": false, "note": 60, "velocity": 0, "until": 78.99578440000013}, {"on": true, "note": 55, "velocity": 106, "until": 79.46090040000013}, {"on": false, "note": 55, "velocity": 0, "until": 79.46090040000013}, {"on": true, "note": 56, "velocity": 106, "until": 79.92525805833347}, {"on": false, "note": 56, "velocity": 0, "until": 79.92525805833347}, {"on": true, "note": 60, "velocity": 106, "until": 80.36004039166689}, {"on": false, "note": 60, "velocity": 0, "until": 80.36004039166689}, {"on": true, "note": 59, "velocity": 106, "until": 80.7948227250003}, {"on": false, "note": 59, "velocity": 0, "until": 80.7948227250003}, {"on": true, "note": 60, "velocity": 106, "until": 81.22960505833376}, {"on": false, "note": 60, "velocity": 0, "until": 81.22960505833376}, {"on": true, "note": 63, "velocity": 106, "until": 81.66438739166718}, {"on": false, "note": 63, "velocity": 0, "until": 81.66438739166718}, {"on": true, "note": 62, "velocity": 106, "until": 82.09916972500059}, {"on": false, "note": 62, "velocity": 0, "until": 82.09916972500059}, {"on": true, "note": 60, "velocity": 106, "until": 82.53395205833407}, {"on": false, "note": 60, "velocity": 0, "until": 82.53395205833407}, {"on": true, "note": 67, "velocity": 106, "until": 82.96873439166752}, {"on": false, "note": 67, "velocity": 0, "until": 82.96873439166752}, {"on": true, "note": 64, "velocity": 106, "until": 83.40351672500094}, {"on": false, "note": 64, "velocity": 0, "until": 83.40351672500094}, {"on": true, "note": 60, "velocity": 106, "until": 83.83742950000104}, {"on": false, "note": 60, "velocity": 0, "until": 83.83742950000104}, {"on": true, "note": 55, "velocity": 106, "until": 84.23742950000114}, {"on": false, "note": 55, "velocity": 0, "until": 84.23742950000114}, {"on": true, "note": 60, "velocity": 106, "until": 84.63742950000119}, {"on": false, "note": 60, "velocity": 0, "until": 84.63742950000119}, {"on": true, "note": 64, "velocity": 106, "until": 85.03742950000125}, {"on": false, "note": 64, "velocity": 0, "until": 85.03742950000125}, {"on": true, "note": 65, "velocity": 106, "until": 85.43742950000127}, {"on": false, "note": 65, "velocity": 0, "until": 85.43742950000127}, {"on": true, "note": 62, "velocity": 106, "until": 85.8393342583346}, {"on": false, "note": 62, "velocity": 0, "until": 85.8393342583346}, {"on": true, "note": 59, "velocity": 106, "until": 86.31448939166793}, {"on": false, "note": 59, "velocity": 0, "until": 86.31448939166793}, {"on": true, "note": 60, "velocity": 106, "until": 87.6179668333348}, {"on": false, "note": 60, "velocity": 0, "until": 90.0733817250016}, {"on": true, "note": 55, "velocity": 106, "until": 91.05164197500163}, {"on": false, "note": 55, "velocity": 0, "until": 91.05164197500163}, {"on": true, "note": 57, "velocity": 106, "until": 91.37685916666831}, {"on": false, "note": 57, "velocity": 0, "until": 91.37685916666831}, {"on": true, "note": 58, "velocity": 106, "until": 91.62685916666831}, {"on": false, "note": 58, "velocity": 0, "until": 91.77685916666832}, {"on": true, "note": 58, "velocity": 106, "until": 92.02685916666832}, {"on": false, "note": 58, "velocity": 0, "until": 92.17685916666832}, {"on": true, "note": 58, "velocity": 106, "until": 92.42685916666832}, {"on": false, "note": 58, "velocity": 0, "until": 92.57685916666833}, {"on": true, "note": 58, "velocity": 106, "until": 92.97685916666833}, {"on": false, "note": 58, "velocity": 0, "until": 92.97685916666833}, {"on": true, "note": 57, "velocity": 106, "until": 93.37876392500166}, {"on": false, "note": 57, "velocity": 0, "until": 93.37876392500166}, {"on": true, "note": 56, "velocity": 106, "until": 93.853919058335}, {"on": false, "note": 56, "velocity": 0, "until": 93.853919058335}, {"on": true, "note": 57, "velocity": 106, "until": 94.83217930833501}, {"on": false, "note": 57, "velocity": 0, "until": 94.83217930833501}, {"on": true, "note": 60, "velocity": 106, "until": 95.1573965000017}, {"on": false, "note": 60, "velocity": 0, "until": 95.1573965000017}, {"on": true, "note": 60, "velocity": 106, "until": 95.31739650000172}, {"on": false, "note": 60, "velocity": 0, "until": 95.55739650000177}, {"on": true, "note": 60, "velocity": 106, "until": 95.7173965000018}, {"on": false, "note": 60, "velocity": 0, "until": 95.95739650000186}, {"on": true, "note": 60, "velocity": 106, "until": 96.1173965000019}, {"on": false, "note": 60, "velocity": 0, "until": 96.35739650000195}, {"on": true, "note": 60, "velocity": 106, "until": 96.57739650000198}, {"on": false, "note": 60, "velocity": 0, "until": 96.75739650000203}, {"on": true, "note": 60, "velocity": 106, "until": 96.97739650000204}, {"on": false, "note": 60, "velocity": 0, "until": 97.15739650000206}, {"on": true, "note": 60, "velocity": 106, "until": 97.37739650000208}, {"on": false, "note": 60, "velocity": 0, "until": 97.62885418333545}, {"on": true, "note": 55, "velocity": 91, "until": 97.62885418333545}, {"on": true, "note": 64, "velocity": 91, "until": 100.13296991666908}, {"on": false, "note": 64, "velocity": 0, "until": 100.13296991666908}, {"on": false, "note": 55, "velocity": 0, "until": 100.13296991666908}, {"on": true, "note": 59, "velocity": 67, "until": 101.47944538333574}, {"on": false, "note": 59, "velocity": 0, "until": 101.47944538333574}, {"on": true, "note": 60, "velocity": 57, "until": 102.84071261666905}, {"on": false, "note": 60, "velocity": 0, "until": 113.73524517500235}, {"on": true, "note": 64, "velocity": 76, "until": 113.73524517500235}, {"on": true, "note": 60, "velocity": 76, "until": 116.80929170833568}, {"on": false, "note": 60, "velocity": 0, "until": 116.80929170833568}, {"on": false, "note": 64, "velocity": 0, "until": 116.80929170833568}, {"on": true, "note": 59, "velocity": 76, "until": 118.55929158333564}, {"on": false, "note": 59, "velocity": 0, "until": 126.76343889166897}, {"on": true, "note": 55, "velocity": 106, "until": 126.86547930833565}, {"on": false, "note": 55, "velocity": 0, "until": 126.88588739166899}, {"on": true, "note": 57, "velocity": 106, "until": 126.98792780833567}, {"on": false, "note": 57, "velocity": 0, "until": 127.008335891669}, {"on": true, "note": 59, "velocity": 106, "until": 127.11037630833569}, {"on": false, "note": 59, "velocity": 0, "until": 127.13066665833568}, {"on": true, "note": 60, "velocity": 106, "until": 127.22682040833564}, {"on": false, "note": 60, "velocity": 0, "until": 127.24605115833563}, {"on": true, "note": 62, "velocity": 106, "until": 127.34220490833559}, {"on": false, "note": 62, "velocity": 0, "until": 127.36143565833558}, {"on": true, "note": 64, "velocity": 106, "until": 127.45758940833555}, {"on": false, "note": 64, "velocity": 0, "until": 127.47682015833554}, {"on": true, "note": 65, "velocity": 106, "until": 127.57297390833551}, {"on": false, "note": 65, "velocity": 0, "until": 127.59232239166883}, {"on": true, "note": 67, "velocity": 106, "until": 128.07191235000218}, {"on": false, "note": 67, "velocity": 0, "until": 128.08199865833552}, {"on": true, "note": 66, "velocity": 106, "until": 128.31276765833553}, {"on": false, "note": 66, "velocity": 0, "until": 128.31276765833553}, {"on": true, "note": 67, "velocity": 106, "until": 128.42815215833554}, {"on": false, "note": 67, "velocity": 0, "until": 128.42815215833554}, {"on": true, "note": 69, "velocity": 106, "until": 128.5436543916689}, {"on": false, "note": 69, "velocity": 0, "until": 128.5436543916689}, {"on": true, "note": 67, "velocity": 106, "until": 129.03333065833556}, {"on": false, "note": 67, "velocity": 0, "until": 129.03333065833556}, {"on": true, "note": 67, "velocity": 106, "until": 129.14871515833556}, {"on": false, "note": 67, "velocity": 0, "until": 129.14871515833556}, {"on": true, "note": 69, "velocity": 106, "until": 129.26409965833557}, {"on": false, "note": 69, "velocity": 0, "until": 129.26409965833557}, {"on": true, "note": 71, "velocity": 106, "until": 129.37948415833557}, {"on": false, "note": 71, "velocity": 0, "until": 129.37948415833557}, {"on": true, "note": 72, "velocity": 106, "until": 129.49494558333558}, {"on": false, "note": 72, "velocity": 0, "until": 129.49494558333558}, {"on": true, "note": 76, "velocity": 106, "until": 129.53494558333557}, {"on": false, "note": 76, "velocity": 0, "until": 129.53494558333557}, {"on": true, "note": 74, "velocity": 106, "until": 129.6349455833356}, {"on": false, "note": 74, "velocity": 0, "until": 129.7349455833356}, {"on": true, "note": 73, "velocity": 106, "until": 129.8549455833356}, {"on": false, "note": 73, "velocity": 0, "until": 129.9749455833356}, {"on": true, "note": 76, "velocity": 106, "until": 130.0149455833356}, {"on": false, "note": 76, "velocity": 0, "until": 130.0149455833356}, {"on": true, "note": 74, "velocity": 106, "until": 130.1149455833356}, {"on": false, "note": 74, "velocity": 0, "until": 130.2149455833356}, {"on": true, "note": 73, "velocity": 106, "until": 130.3349455833356}, {"on": false, "note": 73, "velocity": 0, "until": 130.45494558333561}, {"on": true, "note": 74, "velocity": 106, "until": 130.9348686583356}, {"on": false, "note": 74, "velocity": 0, "until": 130.9348686583356}, {"on": true, "note": 67, "velocity": 106, "until": 131.1656376583355}, {"on": false, "note": 67, "velocity": 0, "until": 131.3965243916687}, {"on": true, "note": 67, "velocity": 106, "until": 131.88620065833535}, {"on": false, "note": 67, "velocity": 0, "until": 131.88620065833535}, {"on": true, "note": 66, "velocity": 106, "until": 132.11696965833536}, {"on": false, "note": 66, "velocity": 0, "until": 132.11696965833536}, {"on": true, "note": 67, "velocity": 106, "until": 132.23235415833537}, {"on": false, "note": 67, "velocity": 0, "until": 132.23235415833537}, {"on": true, "note": 69, "velocity": 106, "until": 132.3478563916687}, {"on": false, "note": 69, "velocity": 0, "until": 132.3478563916687}, {"on": true, "note": 67, "velocity": 106, "until": 132.95291715833537}, {"on": false, "note": 67, "velocity": 0, "until": 132.95291715833537}, {"on": true, "note": 69, "velocity": 106, "until": 133.06830165833537}, {"on": false, "note": 69, "velocity": 0, "until": 133.06830165833537}, {"on": true, "note": 71, "velocity": 106, "until": 133.18368615833538}, {"on": false, "note": 71, "velocity": 0, "until": 133.18368615833538}, {"on": true, "note": 72, "velocity": 106, "until": 133.29911608333538}, {"on": false, "note": 72, "velocity": 0, "until": 133.29911608333538}, {"on": true, "note": 76, "velocity": 106, "until": 133.4172260833354}, {"on": false, "note": 76, "velocity": 0, "until": 133.53533608333544}, {"on": true, "note": 81, "velocity": 106, "until": 133.53533608333544}, {"on": true, "note": 72, "velocity": 106, "until": 133.65344608333547}, {"on": false, "note": 72, "velocity": 0, "until": 133.65344608333547}, {"on": false, "note": 81, "velocity": 0, "until": 133.7715560833355}, {"on": true, "note": 71, "velocity": 106, "until": 133.7715560833355}, {"on": true, "note": 80, "velocity": 106, "until": 133.88966608333553}, {"on": false, "note": 80, "velocity": 0, "until": 133.88966608333553}, {"on": false, "note": 71, "velocity": 0, "until": 134.00777608333556}, {"on": true, "note": 81, "velocity": 106, "until": 134.00777608333556}, {"on": true, "note": 72, "velocity": 106, "until": 134.1258860833356}, {"on": false, "note": 72, "velocity": 0, "until": 134.1258860833356}, {"on": false, "note": 81, "velocity": 0, "until": 134.24399608333562}, {"on": true, "note": 71, "velocity": 106, "until": 134.24399608333562}, {"on": true, "note": 80, "velocity": 106, "until": 134.716390658336}, {"on": false, "note": 80, "velocity": 0, "until": 134.716390658336}, {"on": false, "note": 71, "velocity": 0, "until": 136.17638639166933}, {"on": true, "note": 57, "velocity": 106, "until": 136.23761064166933}, {"on": false, "note": 57, "velocity": 0, "until": 136.29883489166934}, {"on": true, "note": 59, "velocity": 106, "until": 136.36005914166935}, {"on": false, "note": 59, "velocity": 0, "until": 136.42128339166936}, {"on": true, "note": 61, "velocity": 106, "until": 136.48250764166937}, {"on": false, "note": 61, "velocity": 0, "until": 136.54373189166938}, {"on": true, "note": 62, "velocity": 106, "until": 136.6049561416694}, {"on": false, "note": 62, "velocity": 0, "until": 136.66606265833607}, {"on": true, "note": 64, "velocity": 106, "until": 136.7237549083361}, {"on": false, "note": 64, "velocity": 0, "until": 136.7814471583361}, {"on": true, "note": 65, "velocity": 106, "until": 136.8391394083361}, {"on": false, "note": 65, "velocity": 0, "until": 136.8968316583361}, {"on": true, "note": 67, "velocity": 106, "until": 136.95452390833614}, {"on": false, "note": 67, "velocity": 0, "until": 137.01221615833614}, {"on": true, "note": 69, "velocity": 106, "until": 137.06990840833615}, {"on": false, "note": 69, "velocity": 0, "until": 137.12771839166948}, {"on": true, "note": 67, "velocity": 106, "until": 137.37261539166948}, {"on": false, "note": 67, "velocity": 0, "until": 138.07905039166948}, {"on": true, "note": 55, "velocity": 106, "until": 138.1402746416695}, {"on": false, "note": 55, "velocity": 0, "until": 138.2014988916695}, {"on": true, "note": 57, "velocity": 106, "until": 138.2627231416695}, {"on": false, "note": 57, "velocity": 0, "until": 138.32394739166952}, {"on": true, "note": 59, "velocity": 106, "until": 138.38517164166953}, {"on": false, "note": 59, "velocity": 0, "until": 138.44639589166954}, {"on": true, "note": 60, "velocity": 106, "until": 138.50762014166955}, {"on": false, "note": 60, "velocity": 0, "until": 138.56872665833623}, {"on": true, "note": 62, "velocity": 106, "until": 138.62641890833626}, {"on": false, "note": 62, "velocity": 0, "until": 138.6841111583363}, {"on": true, "note": 64, "velocity": 106, "until": 138.7418034083363}, {"on": false, "note": 64, "velocity": 0, "until": 138.79949565833633}, {"on": true, "note": 65, "velocity": 106, "until": 138.85718790833636}, {"on": false, "note": 65, "velocity": 0, "until": 138.9148801583364}, {"on": true, "note": 67, "velocity": 106, "until": 138.9725724083364}, {"on": false, "note": 67, "velocity": 0, "until": 139.03038239166972}, {"on": true, "note": 59, "velocity": 106, "until": 139.1528308916697}, {"on": false, "note": 59, "velocity": 0, "until": 139.27527939166973}, {"on": true, "note": 65, "velocity": 106, "until": 139.75082765833648}, {"on": false, "note": 65, "velocity": 0, "until": 139.75082765833648}, {"on": true, "note": 64, "velocity": 106, "until": 139.86621215833648}, {"on": false, "note": 64, "velocity": 0, "until": 139.86621215833648}, {"on": true, "note": 60, "velocity": 106, "until": 139.9623659083365}, {"on": false, "note": 60, "velocity": 0, "until": 139.9817143916698}, {"on": true, "note": 59, "velocity": 106, "until": 140.1041628916698}, {"on": false, "note": 59, "velocity": 0, "until": 140.22661139166982}, {"on": true, "note": 65, "velocity": 106, "until": 140.70215965833657}, {"on": false, "note": 65, "velocity": 0, "until": 140.70215965833657}, {"on": true, "note": 64, "velocity": 106, "until": 140.81754415833657}, {"on": false, "note": 64, "velocity": 0, "until": 140.81754415833657}, {"on": true, "note": 60, "velocity": 106, "until": 140.9136979083366}, {"on": false, "note": 60, "velocity": 0, "until": 140.9330463916699}, {"on": true, "note": 59, "velocity": 106, "until": 141.0554948916699}, {"on": false, "note": 59, "velocity": 0, "until": 141.1779433916699}, {"on": true, "note": 65, "velocity": 106, "until": 141.65349165833666}, {"on": false, "note": 65, "velocity": 0, "until": 141.65349165833666}, {"on": true, "note": 64, "velocity": 106, "until": 141.76887615833667}, {"on": false, "note": 64, "velocity": 0, "until": 141.76887615833667}, {"on": true, "note": 60, "velocity": 106, "until": 141.86502990833668}, {"on": false, "note": 60, "velocity": 0, "until": 141.88437839167}, {"on": true, "note": 67, "velocity": 106, "until": 141.88437839167}, {"on": true, "note": 59, "velocity": 106, "until": 142.12927539167003}, {"on": false, "note": 59, "velocity": 0, "until": 142.12927539167003}, {"on": false, "note": 67, "velocity": 0, "until": 146.4706436583367}, {"on": true, "note": 72, "velocity": 106, "until": 146.4706436583367}, {"on": true, "note": 67, "velocity": 106, "until": 146.58602815833672}, {"on": false, "note": 67, "velocity": 0, "until": 146.58602815833672}, {"on": false, "note": 72, "velocity": 0, "until": 146.70148958333675}, {"on": true, "note": 72, "velocity": 106, "until": 146.70148958333675}, {"on": true, "note": 65, "velocity": 106, "until": 146.82148958333678}, {"on": false, "note": 65, "velocity": 0, "until": 146.82148958333678}, {"on": false, "note": 72, "velocity": 0, "until": 146.94148958333682}, {"on": true, "note": 72, "velocity": 106, "until": 146.94148958333682}, {"on": true, "note": 67, "velocity": 106, "until": 147.06148958333685}, {"on": false, "note": 67, "velocity": 0, "until": 147.06148958333685}, {"on": false, "note": 72, "velocity": 0, "until": 147.18148958333688}, {"on": true, "note": 72, "velocity": 106, "until": 147.18148958333688}, {"on": true, "note": 65, "velocity": 106, "until": 147.30148958333692}, {"on": false, "note": 65, "velocity": 0, "until": 147.30148958333692}, {"on": false, "note": 72, "velocity": 0, "until": 147.42148958333695}, {"on": true, "note": 72, "velocity": 106, "until": 147.42148958333695}, {"on": true, "note": 67, "velocity": 106, "until": 147.54148958333698}, {"on": false, "note": 67, "velocity": 0, "until": 147.54148958333698}, {"on": false, "note": 72, "velocity": 0, "until": 147.66148958333702}, {"on": true, "note": 72, "velocity": 106, "until": 147.66148958333702}, {"on": true, "note": 65, "velocity": 106, "until": 148.14141265833732}, {"on": false, "note": 65, "velocity": 0, "until": 148.14141265833732}, {"on": false, "note": 72, "velocity": 0, "until": 150.25664365833748}, {"on": true, "note": 83, "velocity": 106, "until": 150.25664365833748}, {"on": true, "note": 74, "velocity": 106, "until": 150.37202815833749}, {"on": false, "note": 74, "velocity": 0, "until": 150.37202815833749}, {"on": false, "note": 83, "velocity": 0, "until": 150.4874580833375}, {"on": true, "note": 84, "velocity": 106, "until": 150.4874580833375}, {"on": true, "note": 76, "velocity": 106, "until": 150.60556808333752}, {"on": false, "note": 76, "velocity": 0, "until": 150.60556808333752}, {"on": false, "note": 84, "velocity": 0, "until": 150.72367808333755}, {"on": true, "note": 83, "velocity": 106, "until": 150.72367808333755}, {"on": true, "note": 74, "velocity": 106, "until": 150.84178808333758}, {"on": false, "note": 74, "velocity": 0, "until": 150.84178808333758}, {"on": false, "note": 83, "velocity": 0, "until": 150.9598980833376}, {"on": true, "note": 84, "velocity": 106, "until": 150.9598980833376}, {"on": true, "note": 76, "velocity": 106, "until": 151.07800808333764}, {"on": false, "note": 76, "velocity": 0, "until": 151.07800808333764}, {"on": false, "note": 84, "velocity": 0, "until": 151.19611808333767}, {"on": true, "note": 83, "velocity": 106, "until": 151.19611808333767}, {"on": true, "note": 74, "velocity": 106, "until": 151.3142280833377}, {"on": false, "note": 74, "velocity": 0, "until": 151.3142280833377}, {"on": false, "note": 83, "velocity": 0, "until": 151.43233808333773}, {"on": true, "note": 84, "velocity": 106, "until": 151.43233808333773}, {"on": true, "note": 76, "velocity": 106, "until": 151.66855808333776}, {"on": false, "note": 76, "velocity": 0, "until": 151.66855808333776}, {"on": false, "note": 84, "velocity": 0, "until": 151.9047326583378}, {"on": true, "note": 83, "velocity": 106, "until": 151.9047326583378}, {"on": true, "note": 74, "velocity": 106, "until": 152.3470399083378}, {"on": false, "note": 74, "velocity": 0, "until": 152.3470399083378}, {"on": false, "note": 83, "velocity": 0, "until": 152.36638839167114}, {"on": true, "note": 82, "velocity": 106, "until": 152.36638839167114}, {"on": true, "note": 73, "velocity": 106, "until": 152.83577430833785}, {"on": false, "note": 73, "velocity": 0, "until": 152.83577430833785}, {"on": false, "note": 82, "velocity": 0, "until": 152.85606465833786}, {"on": true, "note": 81, "velocity": 106, "until": 152.85606465833786}, {"on": true, "note": 72, "velocity": 106, "until": 153.29837190833786}, {"on": false, "note": 72, "velocity": 0, "until": 153.29837190833786}, {"on": false, "note": 81, "velocity": 0, "until": 153.3177203916712}, {"on": true, "note": 79, "velocity": 106, "until": 153.3177203916712}, {"on": true, "note": 71, "velocity": 106, "until": 153.7871063083379}, {"on": false, "note": 71, "velocity": 0, "until": 153.7871063083379}, {"on": false, "note": 79, "velocity": 0, "until": 153.80739665833792}, {"on": true, "note": 79, "velocity": 106, "until": 153.80739665833792}, {"on": true, "note": 70, "velocity": 106, "until": 154.24970390833792}, {"on": false, "note": 70, "velocity": 0, "until": 154.24970390833792}, {"on": false, "note": 79, "velocity": 0, "until": 154.26905239167127}, {"on": true, "note": 68, "velocity": 106, "until": 154.37109280833795}, {"on": false, "note": 68, "velocity": 0, "until": 154.39150089167128}, {"on": true, "note": 68, "velocity": 106, "until": 154.49354130833797}, {"on": false, "note": 68, "velocity": 0, "until": 154.5139493916713}, {"on": true, "note": 68, "velocity": 106, "until": 154.61598980833799}, {"on": false, "note": 68, "velocity": 0, "until": 154.63639789167132}, {"on": true, "note": 68, "velocity": 106, "until": 154.738438308338}, {"on": false, "note": 68, "velocity": 0, "until": 154.75872865833801}, {"on": true, "note": 68, "velocity": 106, "until": 154.85488240833803}, {"on": false, "note": 68, "velocity": 0, "until": 154.87411315833802}, {"on": true, "note": 68, "velocity": 106, "until": 154.970266908338}, {"on": false, "note": 68, "velocity": 0, "until": 154.989497658338}, {"on": true, "note": 67, "velocity": 106, "until": 155.085651408338}, {"on": false, "note": 67, "velocity": 0, "until": 155.104882158338}, {"on": true, "note": 67, "velocity": 106, "until": 155.20103590833799}, {"on": false, "note": 67, "velocity": 0, "until": 155.2203843916713}, {"on": true, "note": 68, "velocity": 106, "until": 155.32242480833798}, {"on": false, "note": 68, "velocity": 0, "until": 155.34283289167132}, {"on": true, "note": 68, "velocity": 106, "until": 155.444873308338}, {"on": false, "note": 68, "velocity": 0, "until": 155.46528139167134}, {"on": true, "note": 68, "velocity": 106, "until": 155.56732180833802}, {"on": false, "note": 68, "velocity": 0, "until": 155.58772989167136}, {"on": true, "note": 68, "velocity": 106, "until": 155.68977030833804}, {"on": false, "note": 68, "velocity": 0, "until": 155.71006065833805}, {"on": true, "note": 68, "velocity": 106, "until": 155.80621440833812}, {"on": false, "note": 68, "velocity": 0, "until": 155.82544515833814}, {"on": true, "note": 68, "velocity": 106, "until": 155.92159890833818}, {"on": false, "note": 68, "velocity": 0, "until": 155.94082965833817}, {"on": true, "note": 67, "velocity": 106, "until": 156.0369834083382}, {"on": false, "note": 67, "velocity": 0, "until": 156.05621415833818}, {"on": true, "note": 67, "velocity": 106, "until": 156.15236790833816}, {"on": false, "note": 67, "velocity": 0, "until": 156.17171639167148}, {"on": true, "note": 68, "velocity": 106, "until": 156.27375680833816}, {"on": false, "note": 68, "velocity": 0, "until": 156.2941648916715}, {"on": true, "note": 68, "velocity": 106, "until": 156.39620530833818}, {"on": false, "note": 68, "velocity": 0, "until": 156.41661339167152}, {"on": true, "note": 67, "velocity": 106, "until": 156.5186538083382}, {"on": false, "note": 67, "velocity": 0, "until": 156.53906189167154}, {"on": true, "note": 67, "velocity": 106, "until": 156.64110230833822}, {"on": false, "note": 67, "velocity": 0, "until": 156.66139265833823}, {"on": true, "note": 68, "velocity": 106, "until": 156.75754640833827}, {"on": false, "note": 68, "velocity": 0, "until": 156.7767771583383}, {"on": true, "note": 68, "velocity": 106, "until": 156.87293090833828}, {"on": false, "note": 68, "velocity": 0, "until": 156.89216165833827}, {"on": true, "note": 67, "velocity": 106, "until": 156.98831540833828}, {"on": false, "note": 67, "velocity": 0, "until": 157.00754615833827}, {"on": true, "note": 67, "velocity": 106, "until": 157.10369990833826}, {"on": false, "note": 67, "velocity": 0, "until": 157.1230483916716}, {"on": true, "note": 68, "velocity": 106, "until": 157.22508880833828}, {"on": false, "note": 68, "velocity": 0, "until": 157.24549689167162}, {"on": true, "note": 68, "velocity": 106, "until": 157.3475373083383}, {"on": false, "note": 68, "velocity": 0, "until": 157.36794539167164}, {"on": true, "note": 67, "velocity": 106, "until": 157.46998580833832}, {"on": false, "note": 67, "velocity": 0, "until": 157.49039389167166}, {"on": true, "note": 67, "velocity": 106, "until": 157.59243430833834}, {"on": false, "note": 67, "velocity": 0, "until": 157.61272465833835}, {"on": true, "note": 68, "velocity": 106, "until": 157.7088784083384}, {"on": false, "note": 68, "velocity": 0, "until": 157.7281091583384}, {"on": true, "note": 68, "velocity": 106, "until": 157.8242629083384}, {"on": false, "note": 68, "velocity": 0, "until": 157.8434936583384}, {"on": true, "note": 67, "velocity": 106, "until": 157.9396474083384}, {"on": false, "note": 67, "velocity": 0, "until": 157.9588781583384}, {"on": true, "note": 67, "velocity": 106, "until": 158.05503190833838}, {"on": false, "note": 67, "velocity": 0, "until": 158.07438039167172}, {"on": true, "note": 73, "velocity": 106, "until": 158.1764208083384}, {"on": false, "note": 73, "velocity": 0, "until": 158.19682889167174}, {"on": true, "note": 73, "velocity": 106, "until": 158.29886930833842}, {"on": false, "note": 73, "velocity": 0, "until": 158.31927739167176}, {"on": true, "note": 73, "velocity": 106, "until": 158.42131780833844}, {"on": false, "note": 73, "velocity": 0, "until": 158.44172589167178}, {"on": true, "note": 73, "velocity": 106, "until": 158.54376630833846}, {"on": false, "note": 73, "velocity": 0, "until": 158.56405665833847}, {"on": true, "note": 73, "velocity": 106, "until": 158.66021040833854}, {"on": false, "note": 73, "velocity": 0, "until": 158.67944115833856}, {"on": true, "note": 73, "velocity": 106, "until": 158.7755949083386}, {"on": false, "note": 73, "velocity": 0, "until": 158.7948256583386}, {"on": true, "note": 74, "velocity": 106, "until": 158.8909794083386}, {"on": false, "note": 74, "velocity": 0, "until": 158.9102101583386}, {"on": true, "note": 74, "velocity": 106, "until": 159.00636390833859}, {"on": false, "note": 74, "velocity": 0, "until": 159.0257123916719}, {"on": true, "note": 73, "velocity": 106, "until": 159.12775280833858}, {"on": false, "note": 73, "velocity": 0, "until": 159.14816089167192}, {"on": true, "note": 73, "velocity": 106, "until": 159.2502013083386}, {"on": false, "note": 73, "velocity": 0, "until": 159.27060939167194}, {"on": true, "note": 73, "velocity": 106, "until": 159.37264980833862}, {"on": false, "note": 73, "velocity": 0, "until": 159.39305789167196}, {"on": true, "note": 73, "velocity": 106, "until": 159.49509830833864}, {"on": false, "note": 73, "velocity": 0, "until": 159.51538865833865}, {"on": true, "note": 73, "velocity": 106, "until": 159.61154240833872}, {"on": false, "note": 73, "velocity": 0, "until": 159.63077315833874}, {"on": true, "note": 73, "velocity": 106, "until": 159.72692690833878}, {"on": false, "note": 73, "velocity": 0, "until": 159.74615765833877}, {"on": true, "note": 74, "velocity": 106, "until": 159.8423114083388}, {"on": false, "note": 74, "velocity": 0, "until": 159.86154215833878}, {"on": true, "note": 74, "velocity": 106, "until": 159.95769590833876}, {"on": false, "note": 74, "velocity": 0, "until": 159.97704439167208}, {"on": true, "note": 73, "velocity": 106, "until": 160.07908480833876}, {"on": false, "note": 73, "velocity": 0, "until": 160.0994928916721}, {"on": true, "note": 73, "velocity": 106, "until": 160.20153330833878}, {"on": false, "note": 73, "velocity": 0, "until": 160.22194139167212}, {"on": true, "note": 74, "velocity": 106, "until": 160.3239818083388}, {"on": false, "note": 74, "velocity": 0, "until": 160.34438989167214}, {"on": true, "note": 74, "velocity": 106, "until": 160.4464303083388}, {"on": false, "note": 74, "velocity": 0, "until": 160.4667206583388}, {"on": true, "note": 73, "velocity": 106, "until": 160.56287440833884}, {"on": false, "note": 73, "velocity": 0, "until": 160.58210515833886}, {"on": true, "note": 73, "velocity": 106, "until": 160.67825890833888}, {"on": false, "note": 73, "velocity": 0, "until": 160.69748965833887}, {"on": true, "note": 74, "velocity": 106, "until": 160.79364340833888}, {"on": false, "note": 74, "velocity": 0, "until": 160.8128741583389}, {"on": true, "note": 74, "velocity": 106, "until": 160.9090279083389}, {"on": false, "note": 74, "velocity": 0, "until": 160.92837639167226}, {"on": true, "note": 73, "velocity": 106, "until": 161.03041680833894}, {"on": false, "note": 73, "velocity": 0, "until": 161.05082489167228}, {"on": true, "note": 73, "velocity": 106, "until": 161.15286530833896}, {"on": false, "note": 73, "velocity": 0, "until": 161.1732733916723}, {"on": true, "note": 74, "velocity": 106, "until": 161.27531380833898}, {"on": false, "note": 74, "velocity": 0, "until": 161.29572189167231}, {"on": true, "note": 74, "velocity": 106, "until": 161.39776230833897}, {"on": false, "note": 74, "velocity": 0, "until": 161.41805265833898}, {"on": true, "note": 73, "velocity": 106, "until": 161.51420640833902}, {"on": false, "note": 73, "velocity": 0, "until": 161.53343715833904}, {"on": true, "note": 73, "velocity": 106, "until": 161.62959090833903}, {"on": false, "note": 73, "velocity": 0, "until": 161.64882165833902}, {"on": true, "note": 73, "velocity": 106, "until": 161.74497540833903}, {"on": false, "note": 73, "velocity": 0, "until": 161.76420615833902}, {"on": true, "note": 73, "velocity": 106, "until": 161.86035990833903}, {"on": false, "note": 73, "velocity": 0, "until": 161.87970839167235}, {"on": true, "note": 74, "velocity": 106, "until": 162.1246053916724}, {"on": false, "note": 74, "velocity": 0, "until": 165.7854936333389}, {"on": true, "note": 59, "velocity": 106, "until": 165.84825513333888}, {"on": false, "note": 59, "velocity": 0, "until": 165.91101663333887}, {"on": true, "note": 59, "velocity": 106, "until": 165.97377813333887}, {"on": false, "note": 59, "velocity": 0, "until": 166.03653963333886}, {"on": true, "note": 59, "velocity": 106, "until": 166.09930113333883}, {"on": false, "note": 59, "velocity": 0, "until": 166.16206263333882}, {"on": true, "note": 59, "velocity": 106, "until": 166.22482413333879}, {"on": false, "note": 59, "velocity": 0, "until": 166.2875097083388}, {"on": true, "note": 59, "velocity": 106, "until": 166.5092834583388}, {"on": false, "note": 59, "velocity": 0, "until": 166.52944470833881}, {"on": true, "note": 59, "velocity": 106, "until": 166.7512184583388}, {"on": false, "note": 59, "velocity": 0, "until": 166.77145563333877}, {"on": true, "note": 59, "velocity": 106, "until": 166.83421713333877}, {"on": false, "note": 59, "velocity": 0, "until": 166.89697863333876}, {"on": true, "note": 59, "velocity": 106, "until": 166.95974013333876}, {"on": false, "note": 59, "velocity": 0, "until": 167.02250163333875}, {"on": true, "note": 59, "velocity": 106, "until": 167.0852631333387}, {"on": false, "note": 59, "velocity": 0, "until": 167.1480246333387}, {"on": true, "note": 59, "velocity": 106, "until": 167.21078613333867}, {"on": false, "note": 59, "velocity": 0, "until": 167.2734717083387}, {"on": true, "note": 59, "velocity": 106, "until": 167.4952454583387}, {"on": false, "note": 59, "velocity": 0, "until": 167.5154067083387}, {"on": true, "note": 59, "velocity": 106, "until": 167.73718045833868}, {"on": false, "note": 59, "velocity": 0, "until": 167.75741763333866}, {"on": true, "note": 60, "velocity": 106, "until": 167.82017913333866}, {"on": false, "note": 60, "velocity": 0, "until": 167.88294063333865}, {"on": true, "note": 60, "velocity": 106, "until": 167.94570213333864}, {"on": false, "note": 60, "velocity": 0, "until": 168.00846363333864}, {"on": true, "note": 60, "velocity": 106, "until": 168.0712251333386}, {"on": false, "note": 60, "velocity": 0, "until": 168.1339866333386}, {"on": true, "note": 60, "velocity": 106, "until": 168.19674813333856}, {"on": false, "note": 60, "velocity": 0, "until": 168.25943370833858}, {"on": true, "note": 60, "velocity": 106, "until": 168.4812074583386}, {"on": false, "note": 60, "velocity": 0, "until": 168.5013687083386}, {"on": true, "note": 60, "velocity": 106, "until": 168.72314245833857}, {"on": false, "note": 60, "velocity": 0, "until": 168.74337963333855}, {"on": true, "note": 60, "velocity": 106, "until": 168.80614113333854}, {"on": false, "note": 60, "velocity": 0, "until": 168.86890263333854}, {"on": true, "note": 60, "velocity": 106, "until": 168.93166413333853}, {"on": false, "note": 60, "velocity": 0, "until": 168.99442563333852}, {"on": true, "note": 60, "velocity": 106, "until": 169.0571871333385}, {"on": false, "note": 60, "velocity": 0, "until": 169.11994863333848}, {"on": true, "note": 60, "velocity": 106, "until": 169.18271013333845}, {"on": false, "note": 60, "velocity": 0, "until": 169.24539570833846}, {"on": true, "note": 60, "velocity": 106, "until": 169.46716945833847}, {"on": false, "note": 60, "velocity": 0, "until": 169.48733070833848}, {"on": true, "note": 60, "velocity": 106, "until": 169.64257233333845}, {"on": false, "note": 60, "velocity": 0, "until": 169.72934163333844}, {"on": true, "note": 60, "velocity": 106, "until": 169.79210313333834}, {"on": false, "note": 60, "velocity": 0, "until": 169.85486463333822}, {"on": true, "note": 60, "velocity": 106, "until": 169.91762613333816}, {"on": false, "note": 60, "velocity": 0, "until": 169.98038763333815}, {"on": true, "note": 60, "velocity": 106, "until": 170.0431491333381}, {"on": false, "note": 60, "velocity": 0, "until": 170.10591063333808}, {"on": true, "note": 60, "velocity": 106, "until": 170.16867213333796}, {"on": false, "note": 60, "velocity": 0, "until": 170.23135770833795}, {"on": true, "note": 60, "velocity": 106, "until": 170.453131458338}, {"on": false, "note": 60, "velocity": 0, "until": 170.473292708338}, {"on": true, "note": 57, "velocity": 106, "until": 170.69506645833803}, {"on": false, "note": 57, "velocity": 0, "until": 170.715303633338}, {"on": true, "note": 59, "velocity": 106, "until": 170.84082663333797}, {"on": false, "note": 59, "velocity": 0, "until": 170.96634963333793}, {"on": true, "note": 62, "velocity": 91, "until": 171.09187263333789}, {"on": false, "note": 62, "velocity": 0, "until": 171.21731970833787}, {"on": true, "note": 62, "velocity": 91, "until": 171.33828720833787}, {"on": false, "note": 62, "velocity": 0, "until": 171.45925470833788}, {"on": true, "note": 59, "velocity": 91, "until": 171.5802222083379}, {"on": false, "note": 59, "velocity": 0, "until": 171.70126563333787}, {"on": true, "note": 60, "velocity": 106, "until": 171.76402713333783}, {"on": false, "note": 60, "velocity": 0, "until": 171.82678863333774}, {"on": true, "note": 60, "velocity": 106, "until": 171.88955013333768}, {"on": false, "note": 60, "velocity": 0, "until": 171.95231163333767}, {"on": true, "note": 60, "velocity": 106, "until": 172.0150731333377}, {"on": false, "note": 60, "velocity": 0, "until": 172.07783463333763}, {"on": true, "note": 60, "velocity": 106, "until": 172.1405961333376}, {"on": false, "note": 60, "velocity": 0, "until": 172.20328170833758}, {"on": true, "note": 60, "velocity": 106, "until": 172.42505545833762}, {"on": false, "note": 60, "velocity": 0, "until": 172.44521670833763}, {"on": true, "note": 57, "velocity": 106, "until": 172.66699045833766}, {"on": false, "note": 57, "velocity": 0, "until": 172.68722763333764}, {"on": true, "note": 59, "velocity": 106, "until": 172.8127506333376}, {"on": false, "note": 59, "velocity": 0, "until": 172.93827363333756}, {"on": true, "note": 62, "velocity": 91, "until": 173.06379663333752}, {"on": false, "note": 62, "velocity": 0, "until": 173.1892437083375}, {"on": true, "note": 62, "velocity": 91, "until": 173.43152106667085}, {"on": false, "note": 62, "velocity": 0, "until": 173.71431733333753}, {"on": true, "note": 58, "velocity": 106, "until": 173.77841983333755}, {"on": false, "note": 58, "velocity": 0, "until": 173.84252233333757}, {"on": true, "note": 58, "velocity": 106, "until": 173.9066248333376}, {"on": false, "note": 58, "velocity": 0, "until": 173.9707273333376}, {"on": true, "note": 58, "velocity": 106, "until": 174.03482983333762}, {"on": false, "note": 58, "velocity": 0, "until": 174.09893233333764}, {"on": true, "note": 58, "velocity": 106, "until": 174.16303483333766}, {"on": false, "note": 58, "velocity": 0, "until": 174.227041391671}, {"on": true, "note": 58, "velocity": 106, "until": 174.4515303083377}, {"on": false, "note": 58, "velocity": 0, "until": 174.47193839167105}, {"on": true, "note": 58, "velocity": 106, "until": 174.69642730833775}, {"on": false, "note": 58, "velocity": 0, "until": 174.71693133333775}, {"on": true, "note": 58, "velocity": 106, "until": 174.7810338333378}, {"on": false, "note": 58, "velocity": 0, "until": 174.84513633333785}, {"on": true, "note": 58, "velocity": 106, "until": 174.9092388333379}, {"on": false, "note": 58, "velocity": 0, "until": 174.97334133333794}, {"on": true, "note": 58, "velocity": 106, "until": 175.037443833338}, {"on": false, "note": 58, "velocity": 0, "until": 175.10154633333804}, {"on": true, "note": 58, "velocity": 106, "until": 175.16564883333808}, {"on": false, "note": 58, "velocity": 0, "until": 175.22965539167146}, {"on": true, "note": 58, "velocity": 106, "until": 175.45414430833816}, {"on": false, "note": 58, "velocity": 0, "until": 175.4745523916715}, {"on": true, "note": 58, "velocity": 106, "until": 175.6990413083382}, {"on": false, "note": 58, "velocity": 0, "until": 175.7195453333382}, {"on": true, "note": 58, "velocity": 106, "until": 175.78364783333825}, {"on": false, "note": 58, "velocity": 0, "until": 175.8477503333383}, {"on": true, "note": 58, "velocity": 106, "until": 175.91185283333834}, {"on": false, "note": 58, "velocity": 0, "until": 175.9759553333384}, {"on": true, "note": 58, "velocity": 106, "until": 176.04005783333844}, {"on": false, "note": 58, "velocity": 0, "until": 176.10416033333848}, {"on": true, "note": 58, "velocity": 106, "until": 176.16826283333853}, {"on": false, "note": 58, "velocity": 0, "until": 176.2322693916719}, {"on": true, "note": 58, "velocity": 106, "until": 176.4567583083386}, {"on": false, "note": 58, "velocity": 0, "until": 176.47716639167194}, {"on": true, "note": 58, "velocity": 106, "until": 176.70165530833864}, {"on": false, "note": 58, "velocity": 0, "until": 176.72215933333865}, {"on": true, "note": 58, "velocity": 106, "until": 176.78626183333867}, {"on": false, "note": 58, "velocity": 0, "until": 176.8503643333387}, {"on": true, "note": 58, "velocity": 106, "until": 176.9144668333387}, {"on": false, "note": 58, "velocity": 0, "until": 176.97856933333873}, {"on": true, "note": 58, "velocity": 106, "until": 177.04267183333874}, {"on": false, "note": 58, "velocity": 0, "until": 177.10677433333876}, {"on": true, "note": 58, "velocity": 106, "until": 177.17087683333878}, {"on": false, "note": 58, "velocity": 0, "until": 177.23488339167213}, {"on": true, "note": 58, "velocity": 106, "until": 177.45937230833883}, {"on": false, "note": 58, "velocity": 0, "until": 177.47978039167216}, {"on": true, "note": 58, "velocity": 106, "until": 177.70426930833887}, {"on": false, "note": 58, "velocity": 0, "until": 177.72477333333887}, {"on": true, "note": 58, "velocity": 106, "until": 177.78887583333898}, {"on": false, "note": 58, "velocity": 0, "until": 177.85297833333908}, {"on": true, "note": 58, "velocity": 106, "until": 177.91708083333918}, {"on": false, "note": 58, "velocity": 0, "until": 177.9811833333393}, {"on": true, "note": 58, "velocity": 106, "until": 178.0452858333393}, {"on": false, "note": 58, "velocity": 0, "until": 178.10938833333933}, {"on": true, "note": 58, "velocity": 106, "until": 178.17349083333937}, {"on": false, "note": 58, "velocity": 0, "until": 178.23749739167275}, {"on": true, "note": 57, "velocity": 106, "until": 178.46198630833942}, {"on": false, "note": 57, "velocity": 0, "until": 178.48239439167276}, {"on": true, "note": 60, "velocity": 106, "until": 178.7068833083394}, {"on": false, "note": 60, "velocity": 0, "until": 178.7273873333394}, {"on": true, "note": 62, "velocity": 106, "until": 178.85559233333944}, {"on": false, "note": 62, "velocity": 0, "until": 178.98379733333948}, {"on": true, "note": 65, "velocity": 91, "until": 179.11200233333952}, {"on": false, "note": 65, "velocity": 0, "until": 179.24011139167288}, {"on": true, "note": 65, "velocity": 91, "until": 179.3625598916729}, {"on": false, "note": 65, "velocity": 0, "until": 179.4850083916729}, {"on": true, "note": 62, "velocity": 91, "until": 179.6074568916729}, {"on": false, "note": 62, "velocity": 0, "until": 179.73000133333957}, {"on": true, "note": 63, "velocity": 106, "until": 179.73000133333957}, {"on": true, "note": 60, "velocity": 106, "until": 179.79410383333968}, {"on": false, "note": 60, "velocity": 0, "until": 179.79410383333968}, {"on": false, "note": 63, "velocity": 0, "until": 179.85820633333978}, {"on": true, "note": 63, "velocity": 106, "until": 179.85820633333978}, {"on": true, "note": 60, "velocity": 106, "until": 179.92230883333988}, {"on": false, "note": 60, "velocity": 0, "until": 179.92230883333988}, {"on": false, "note": 63, "velocity": 0, "until": 179.98641133334}, {"on": true, "note": 63, "velocity": 106, "until": 179.98641133334}, {"on": true, "note": 60, "velocity": 106, "until": 180.05051383334}, {"on": false, "note": 60, "velocity": 0, "until": 180.05051383334}, {"on": false, "note": 63, "velocity": 0, "until": 180.11461633334005}, {"on": true, "note": 63, "velocity": 106, "until": 180.11461633334005}, {"on": true, "note": 60, "velocity": 106, "until": 180.1787188333401}, {"on": false, "note": 60, "velocity": 0, "until": 180.1787188333401}, {"on": false, "note": 63, "velocity": 0, "until": 180.24272539167345}, {"on": true, "note": 63, "velocity": 106, "until": 180.24272539167345}, {"on": true, "note": 60, "velocity": 106, "until": 180.46721430834012}, {"on": false, "note": 60, "velocity": 0, "until": 180.46721430834012}, {"on": false, "note": 63, "velocity": 0, "until": 180.48762239167345}, {"on": true, "note": 60, "velocity": 106, "until": 180.7121113083401}, {"on": false, "note": 60, "velocity": 0, "until": 180.7326153333401}, {"on": true, "note": 62, "velocity": 106, "until": 180.86082033334014}, {"on": false, "note": 62, "velocity": 0, "until": 180.98902533334018}, {"on": true, "note": 65, "velocity": 91, "until": 181.11723033334022}, {"on": false, "note": 65, "velocity": 0, "until": 181.24533939167358}, {"on": true, "note": 65, "velocity": 91, "until": 181.49046830834027}, {"on": false, "note": 65, "velocity": 0, "until": 181.76301463334025}, {"on": true, "note": 62, "velocity": 106, "until": 182.1395836333402}, {"on": false, "note": 62, "velocity": 0, "until": 182.1395836333402}, {"on": true, "note": 63, "velocity": 106, "until": 182.26503070834022}, {"on": false, "note": 63, "velocity": 0, "until": 182.26503070834022}, {"on": true, "note": 62, "velocity": 106, "until": 182.48680445834026}, {"on": false, "note": 62, "velocity": 0, "until": 182.50696570834026}, {"on": true, "note": 60, "velocity": 106, "until": 182.62793320834027}, {"on": false, "note": 60, "velocity": 0, "until": 182.74897663334025}, {"on": true, "note": 58, "velocity": 106, "until": 182.87449963334024}, {"on": false, "note": 58, "velocity": 0, "until": 182.87449963334024}, {"on": true, "note": 62, "velocity": 106, "until": 182.97910213334023}, {"on": false, "note": 62, "velocity": 0, "until": 183.00002263334022}, {"on": true, "note": 60, "velocity": 106, "until": 183.06278413334022}, {"on": false, "note": 60, "velocity": 0, "until": 183.1255456333402}, {"on": true, "note": 57, "velocity": 106, "until": 183.1883071333402}, {"on": false, "note": 57, "velocity": 0, "until": 183.25099270834022}, {"on": true, "note": 55, "velocity": 106, "until": 183.49292770834023}, {"on": false, "note": 55, "velocity": 0, "until": 185.70683669167332}, {"on": true, "note": 62, "velocity": 106, "until": 186.07873619167358}, {"on": false, "note": 62, "velocity": 0, "until": 186.07873619167358}, {"on": true, "note": 63, "velocity": 106, "until": 186.2026128666736}, {"on": false, "note": 63, "velocity": 0, "until": 186.2026128666736}, {"on": true, "note": 62, "velocity": 106, "until": 186.4200040333403}, {"on": false, "note": 62, "velocity": 0, "until": 186.43976686667364}, {"on": true, "note": 60, "velocity": 106, "until": 186.55834386667365}, {"on": false, "note": 60, "velocity": 0, "until": 186.67701069167367}, {"on": true, "note": 58, "velocity": 106, "until": 186.8009771916737}, {"on": false, "note": 58, "velocity": 0, "until": 186.8009771916737}, {"on": true, "note": 62, "velocity": 106, "until": 186.9042826083404}, {"on": false, "note": 62, "velocity": 0, "until": 186.92494369167375}, {"on": true, "note": 60, "velocity": 106, "until": 186.98692694167377}, {"on": false, "note": 60, "velocity": 0, "until": 187.0489101916738}, {"on": true, "note": 57, "velocity": 106, "until": 187.11089344167382}, {"on": false, "note": 57, "velocity": 0, "until": 187.17278686667385}, {"on": true, "note": 55, "velocity": 106, "until": 187.40994086667385}, {"on": false, "note": 55, "velocity": 0, "until": 189.58749086667387}, {"on": true, "note": 69, "velocity": 106, "until": 189.95186186667343}, {"on": false, "note": 69, "velocity": 0, "until": 189.95186186667343}, {"on": true, "note": 70, "velocity": 106, "until": 190.0732029750067}, {"on": false, "note": 70, "velocity": 0, "until": 190.0732029750067}, {"on": true, "note": 69, "velocity": 106, "until": 190.28312605834}, {"on": false, "note": 69, "velocity": 0, "until": 190.30220997500663}, {"on": true, "note": 67, "velocity": 106, "until": 190.4167134750066}, {"on": false, "note": 67, "velocity": 0, "until": 190.5313328666732}, {"on": true, "note": 65, "velocity": 106, "until": 190.65278986667317}, {"on": false, "note": 65, "velocity": 0, "until": 190.65278986667317}, {"on": true, "note": 69, "velocity": 106, "until": 190.7540040333398}, {"on": false, "note": 69, "velocity": 0, "until": 190.7742468666731}, {"on": true, "note": 67, "velocity": 106, "until": 190.8349753666731}, {"on": false, "note": 67, "velocity": 0, "until": 190.89570386667305}, {"on": true, "note": 64, "velocity": 106, "until": 190.95643236667303}, {"on": false, "note": 64, "velocity": 0, "until": 191.0170449750063}, {"on": true, "note": 62, "velocity": 106, "until": 191.24605197500625}, {"on": false, "note": 62, "velocity": 0, "until": 191.4751748666729}, {"on": true, "note": 72, "velocity": 106, "until": 191.83954586667247}, {"on": false, "note": 72, "velocity": 0, "until": 191.83954586667247}, {"on": true, "note": 74, "velocity": 106, "until": 191.9608869750057}, {"on": false, "note": 74, "velocity": 0, "until": 191.9608869750057}, {"on": true, "note": 72, "velocity": 106, "until": 192.17081005833901}, {"on": false, "note": 72, "velocity": 0, "until": 192.18989397500562}, {"on": true, "note": 70, "velocity": 106, "until": 192.30439747500557}, {"on": false, "note": 70, "velocity": 0, "until": 192.41901686667222}, {"on": true, "note": 69, "velocity": 106, "until": 192.5404738666722}, {"on": false, "note": 69, "velocity": 0, "until": 192.5404738666722}, {"on": true, "note": 72, "velocity": 106, "until": 192.64168803333882}, {"on": false, "note": 72, "velocity": 0, "until": 192.6619308666721}, {"on": true, "note": 70, "velocity": 106, "until": 192.72265936667205}, {"on": false, "note": 70, "velocity": 0, "until": 192.783387866672}, {"on": true, "note": 67, "velocity": 106, "until": 192.84411636667198}, {"on": false, "note": 67, "velocity": 0, "until": 192.90472897500527}, {"on": true, "note": 65, "velocity": 106, "until": 193.1337359750052}, {"on": false, "note": 65, "velocity": 0, "until": 193.3632384250052}, {"on": true, "note": 70, "velocity": 106, "until": 193.3632384250052}, {"on": true, "note": 67, "velocity": 106, "until": 193.6513789166721}, {"on": false, "note": 67, "velocity": 0, "until": 193.6513789166721}, {"on": false, "note": 70, "velocity": 0, "until": 194.6340323333388}, {"on": true, "note": 67, "velocity": 106, "until": 194.76223733333882}, {"on": false, "note": 67, "velocity": 0, "until": 194.76223733333882}, {"on": true, "note": 69, "velocity": 106, "until": 194.89034639167215}, {"on": false, "note": 69, "velocity": 0, "until": 194.89034639167215}, {"on": true, "note": 70, "velocity": 106, "until": 195.01279489167214}, {"on": false, "note": 70, "velocity": 0, "until": 195.01279489167214}, {"on": true, "note": 69, "velocity": 106, "until": 195.13524339167213}, {"on": false, "note": 69, "velocity": 0, "until": 195.13524339167213}, {"on": true, "note": 70, "velocity": 106, "until": 195.25769189167212}, {"on": false, "note": 70, "velocity": 0, "until": 195.25769189167212}, {"on": true, "note": 67, "velocity": 106, "until": 195.35973230833878}, {"on": false, "note": 67, "velocity": 0, "until": 195.3802363333388}, {"on": true, "note": 62, "velocity": 106, "until": 195.50844133333882}, {"on": false, "note": 62, "velocity": 0, "until": 195.50844133333882}, {"on": true, "note": 67, "velocity": 106, "until": 195.61527883333883}, {"on": false, "note": 67, "velocity": 0, "until": 195.63664633333883}, {"on": true, "note": 71, "velocity": 106, "until": 195.70074883333885}, {"on": false, "note": 71, "velocity": 0, "until": 195.76485133333887}, {"on": true, "note": 69, "velocity": 106, "until": 195.8289538333389}, {"on": false, "note": 69, "velocity": 0, "until": 195.89296039167223}, {"on": true, "note": 67, "velocity": 106, "until": 196.01540889167222}, {"on": false, "note": 67, "velocity": 0, "until": 196.01540889167222}, {"on": true, "note": 66, "velocity": 106, "until": 196.11744930833888}, {"on": false, "note": 66, "velocity": 0, "until": 196.1378573916722}, {"on": true, "note": 64, "velocity": 106, "until": 196.19908164167222}, {"on": false, "note": 64, "velocity": 0, "until": 196.26030589167223}, {"on": true, "note": 62, "velocity": 106, "until": 196.32153014167224}, {"on": false, "note": 62, "velocity": 0, "until": 196.38285033333892}, {"on": true, "note": 61, "velocity": 106, "until": 196.51105533333896}, {"on": false, "note": 61, "velocity": 0, "until": 196.51105533333896}, {"on": true, "note": 62, "velocity": 106, "until": 196.61789283333897}, {"on": false, "note": 62, "velocity": 0, "until": 196.63926033333897}, {"on": true, "note": 57, "velocity": 106, "until": 196.70336283333899}, {"on": false, "note": 57, "velocity": 0, "until": 196.767465333339}, {"on": true, "note": 59, "velocity": 106, "until": 196.83156783333902}, {"on": false, "note": 59, "velocity": 0, "until": 196.89564328333904}, {"on": true, "note": 60, "velocity": 106, "until": 197.02222528333908}, {"on": false, "note": 60, "velocity": 0, "until": 197.02222528333908}, {"on": true, "note": 59, "velocity": 106, "until": 197.12771028333913}, {"on": false, "note": 59, "velocity": 0, "until": 197.1490340250058}, {"on": true, "note": 60, "velocity": 106, "until": 197.2191272750058}, {"on": false, "note": 60, "velocity": 0, "until": 197.2892205250058}, {"on": true, "note": 62, "velocity": 106, "until": 197.35931377500577}, {"on": false, "note": 62, "velocity": 0, "until": 197.42928296667245}, {"on": true, "note": 59, "velocity": 106, "until": 197.56202596667245}, {"on": false, "note": 59, "velocity": 0, "until": 197.56202596667245}, {"on": true, "note": 62, "velocity": 106, "until": 197.69476896667246}, {"on": false, "note": 62, "velocity": 0, "until": 197.69476896667246}, {"on": true, "note": 67, "velocity": 106, "until": 197.76114046667246}, {"on": false, "note": 67, "velocity": 0, "until": 197.82751196667246}, {"on": true, "note": 62, "velocity": 106, "until": 197.89388346667246}, {"on": false, "note": 62, "velocity": 0, "until": 197.96012591667247}, {"on": true, "note": 67, "velocity": 106, "until": 198.08512591667247}, {"on": false, "note": 67, "velocity": 0, "until": 198.08512591667247}, {"on": true, "note": 62, "velocity": 106, "until": 198.21012591667244}, {"on": false, "note": 62, "velocity": 0, "until": 198.21012591667244}, {"on": true, "note": 67, "velocity": 106, "until": 198.27262591667244}, {"on": false, "note": 67, "velocity": 0, "until": 198.33512591667244}, {"on": true, "note": 62, "velocity": 106, "until": 198.39762591667244}, {"on": false, "note": 62, "velocity": 0, "until": 198.46021649167244}, {"on": true, "note": 60, "velocity": 106, "until": 198.59065099167245}, {"on": false, "note": 60, "velocity": 0, "until": 198.59065099167245}, {"on": true, "note": 62, "velocity": 106, "until": 198.72108549167245}, {"on": false, "note": 62, "velocity": 0, "until": 198.72108549167245}, {"on": true, "note": 69, "velocity": 106, "until": 198.78630274167244}, {"on": false, "note": 69, "velocity": 0, "until": 198.85151999167243}, {"on": true, "note": 62, "velocity": 106, "until": 198.91673724167242}, {"on": false, "note": 62, "velocity": 0, "until": 198.9818639166724}, {"on": true, "note": 69, "velocity": 106, "until": 199.1068639166724}, {"on": false, "note": 69, "velocity": 0, "until": 199.1068639166724}, {"on": true, "note": 62, "velocity": 106, "until": 199.2318639166724}, {"on": false, "note": 62, "velocity": 0, "until": 199.2318639166724}, {"on": true, "note": 69, "velocity": 106, "until": 199.2943639166724}, {"on": false, "note": 69, "velocity": 0, "until": 199.3568639166724}, {"on": true, "note": 62, "velocity": 106, "until": 199.4193639166724}, {"on": false, "note": 62, "velocity": 0, "until": 199.4819544916724}, {"on": true, "note": 59, "velocity": 91, "until": 199.61238899167242}, {"on": false, "note": 59, "velocity": 0, "until": 199.61238899167242}, {"on": true, "note": 62, "velocity": 91, "until": 199.74282349167243}, {"on": false, "note": 62, "velocity": 0, "until": 199.74282349167243}, {"on": true, "note": 67, "velocity": 91, "until": 199.80804074167241}, {"on": false, "note": 67, "velocity": 0, "until": 199.8732579916724}, {"on": true, "note": 62, "velocity": 91, "until": 199.9384752416724}, {"on": false, "note": 62, "velocity": 0, "until": 200.00360191667238}, {"on": true, "note": 67, "velocity": 91, "until": 200.12860191667238}, {"on": false, "note": 67, "velocity": 0, "until": 200.12860191667238}, {"on": true, "note": 62, "velocity": 91, "until": 200.25360191667238}, {"on": false, "note": 62, "velocity": 0, "until": 200.25360191667238}, {"on": true, "note": 67, "velocity": 91, "until": 200.31610191667238}, {"on": false, "note": 67, "velocity": 0, "until": 200.37860191667238}, {"on": true, "note": 62, "velocity": 91, "until": 200.44110191667238}, {"on": false, "note": 62, "velocity": 0, "until": 200.50369249167238}, {"on": true, "note": 57, "velocity": 91, "until": 200.6341269916724}, {"on": false, "note": 57, "velocity": 0, "until": 200.6341269916724}, {"on": true, "note": 62, "velocity": 91, "until": 200.76456149167237}, {"on": false, "note": 62, "velocity": 0, "until": 200.76456149167237}, {"on": true, "note": 72, "velocity": 91, "until": 200.82977874167236}, {"on": false, "note": 72, "velocity": 0, "until": 200.89499599167235}, {"on": true, "note": 62, "velocity": 91, "until": 200.96021324167234}, {"on": false, "note": 62, "velocity": 0, "until": 201.02533991667232}, {"on": true, "note": 72, "velocity": 91, "until": 201.15033991667232}, {"on": false, "note": 72, "velocity": 0, "until": 201.15033991667232}, {"on": true, "note": 62, "velocity": 91, "until": 201.2753399166723}, {"on": false, "note": 62, "velocity": 0, "until": 201.2753399166723}, {"on": true, "note": 72, "velocity": 91, "until": 201.3378399166723}, {"on": false, "note": 72, "velocity": 0, "until": 201.4003399166723}, {"on": true, "note": 62, "velocity": 91, "until": 201.4628399166723}, {"on": false, "note": 62, "velocity": 0, "until": 201.52543049167227}, {"on": true, "note": 55, "velocity": 106, "until": 201.65586499167227}, {"on": false, "note": 55, "velocity": 0, "until": 201.65586499167227}, {"on": true, "note": 67, "velocity": 106, "until": 201.78629949167228}, {"on": false, "note": 67, "velocity": 0, "until": 201.78629949167228}, {"on": true, "note": 71, "velocity": 106, "until": 201.85151674167227}, {"on": false, "note": 71, "velocity": 0, "until": 201.91673399167226}, {"on": true, "note": 67, "velocity": 106, "until": 201.98195124167225}, {"on": false, "note": 67, "velocity": 0, "until": 202.04707791667224}, {"on": true, "note": 71, "velocity": 106, "until": 202.17207791667224}, {"on": false, "note": 71, "velocity": 0, "until": 202.17207791667224}, {"on": true, "note": 67, "velocity": 106, "until": 202.29707791667224}, {"on": false, "note": 67, "velocity": 0, "until": 202.29707791667224}, {"on": true, "note": 71, "velocity": 106, "until": 202.35957791667224}, {"on": false, "note": 71, "velocity": 0, "until": 202.42207791667224}, {"on": true, "note": 67, "velocity": 106, "until": 202.48457791667224}, {"on": false, "note": 67, "velocity": 0, "until": 202.54716849167224}, {"on": true, "note": 60, "velocity": 106, "until": 202.67760299167225}, {"on": false, "note": 60, "velocity": 0, "until": 202.67760299167225}, {"on": true, "note": 62, "velocity": 106, "until": 202.80803749167225}, {"on": false, "note": 62, "velocity": 0, "until": 202.80803749167225}, {"on": true, "note": 69, "velocity": 106, "until": 202.87325474167224}, {"on": false, "note": 69, "velocity": 0, "until": 202.93847199167223}, {"on": true, "note": 62, "velocity": 106, "until": 203.00368924167222}, {"on": false, "note": 62, "velocity": 0, "until": 203.0688159166722}, {"on": true, "note": 69, "velocity": 106, "until": 203.1938159166722}, {"on": false, "note": 69, "velocity": 0, "until": 203.1938159166722}, {"on": true, "note": 62, "velocity": 106, "until": 203.3188159166722}, {"on": false, "note": 62, "velocity": 0, "until": 203.3188159166722}, {"on": true, "note": 69, "velocity": 106, "until": 203.3813159166722}, {"on": false, "note": 69, "velocity": 0, "until": 203.4438159166722}, {"on": true, "note": 62, "velocity": 106, "until": 203.5063159166722}, {"on": false, "note": 62, "velocity": 0, "until": 203.56886933333888}, {"on": true, "note": 59, "velocity": 91, "until": 203.6970743333389}, {"on": false, "note": 59, "velocity": 0, "until": 203.6970743333389}, {"on": true, "note": 62, "velocity": 91, "until": 203.8252793333389}, {"on": false, "note": 62, "velocity": 0, "until": 203.8252793333389}, {"on": true, "note": 67, "velocity": 91, "until": 203.88938183333892}, {"on": false, "note": 67, "velocity": 0, "until": 203.95348433333893}, {"on": true, "note": 62, "velocity": 91, "until": 204.01758683333895}, {"on": false, "note": 62, "velocity": 0, "until": 204.0815933916723}, {"on": true, "note": 67, "velocity": 91, "until": 204.2040418916723}, {"on": false, "note": 67, "velocity": 0, "until": 204.2040418916723}, {"on": true, "note": 62, "velocity": 91, "until": 204.32649039167228}, {"on": false, "note": 62, "velocity": 0, "until": 204.32649039167228}, {"on": true, "note": 67, "velocity": 91, "until": 204.3877146416723}, {"on": false, "note": 67, "velocity": 0, "until": 204.4489388916723}, {"on": true, "note": 62, "velocity": 91, "until": 204.5101631416723}, {"on": false, "note": 62, "velocity": 0, "until": 204.571483333339}, {"on": true, "note": 57, "velocity": 91, "until": 204.699688333339}, {"on": false, "note": 57, "velocity": 0, "until": 204.699688333339}, {"on": true, "note": 62, "velocity": 91, "until": 204.827893333339}, {"on": false, "note": 62, "velocity": 0, "until": 204.827893333339}, {"on": true, "note": 72, "velocity": 91, "until": 204.89199583333902}, {"on": false, "note": 72, "velocity": 0, "until": 204.95609833333904}, {"on": true, "note": 62, "velocity": 91, "until": 205.02020083333906}, {"on": false, "note": 62, "velocity": 0, "until": 205.0842073916724}, {"on": true, "note": 72, "velocity": 91, "until": 205.2066558916724}, {"on": false, "note": 72, "velocity": 0, "until": 205.2066558916724}, {"on": true, "note": 62, "velocity": 91, "until": 205.32910439167242}, {"on": false, "note": 62, "velocity": 0, "until": 205.32910439167242}, {"on": true, "note": 72, "velocity": 91, "until": 205.39032864167243}, {"on": false, "note": 72, "velocity": 0, "until": 205.45155289167243}, {"on": true, "note": 62, "velocity": 91, "until": 205.51277714167244}, {"on": false, "note": 62, "velocity": 0, "until": 205.57409733333913}, {"on": true, "note": 71, "velocity": 106, "until": 205.57409733333913}, {"on": true, "note": 62, "velocity": 106, "until": 205.83050733333914}, {"on": false, "note": 62, "velocity": 0, "until": 205.83050733333914}, {"on": false, "note": 71, "velocity": 0, "until": 206.08677260833915}, {"on": true, "note": 62, "velocity": 106, "until": 206.08677260833915}, {"on": true, "note": 64, "velocity": 106, "until": 206.20629410833914}, {"on": false, "note": 64, "velocity": 0, "until": 206.20629410833914}, {"on": false, "note": 62, "velocity": 0, "until": 206.32581560833916}, {"on": true, "note": 62, "velocity": 106, "until": 206.32581560833916}, {"on": true, "note": 64, "velocity": 106, "until": 206.44533710833915}, {"on": false, "note": 64, "velocity": 0, "until": 206.44533710833915}, {"on": false, "note": 62, "velocity": 0, "until": 206.5649499166725}, {"on": true, "note": 60, "velocity": 106, "until": 206.5649499166725}, {"on": true, "note": 64, "velocity": 106, "until": 206.8149499166725}, {"on": false, "note": 64, "velocity": 0, "until": 206.8149499166725}, {"on": false, "note": 60, "velocity": 0, "until": 207.06483508333915}, {"on": true, "note": 55, "velocity": 106, "until": 207.06483508333915}, {"on": true, "note": 62, "velocity": 106, "until": 207.1829450833392}, {"on": false, "note": 62, "velocity": 0, "until": 207.1829450833392}, {"on": false, "note": 55, "velocity": 0, "until": 207.30105508333924}, {"on": true, "note": 55, "velocity": 106, "until": 207.30105508333924}, {"on": true, "note": 62, "velocity": 106, "until": 207.4191650833393}, {"on": false, "note": 62, "velocity": 0, "until": 207.4191650833393}, {"on": false, "note": 55, "velocity": 0, "until": 207.53736419167265}, {"on": true, "note": 64, "velocity": 106, "until": 207.53736419167265}, {"on": true, "note": 55, "velocity": 106, "until": 207.7847195833393}, {"on": false, "note": 55, "velocity": 0, "until": 207.7847195833393}, {"on": false, "note": 64, "velocity": 0, "until": 209.07516639167258}, {"on": true, "note": 64, "velocity": 106, "until": 209.19557408333924}, {"on": false, "note": 64, "velocity": 0, "until": 209.32006339167256}, {"on": true, "note": 64, "velocity": 106, "until": 209.44047108333922}, {"on": false, "note": 64, "velocity": 0, "until": 209.56505633333921}, {"on": true, "note": 56, "velocity": 106, "until": 210.0777803916727}, {"on": false, "note": 56, "velocity": 0, "until": 210.0777803916727}, {"on": true, "note": 57, "velocity": 106, "until": 210.3226773916727}, {"on": false, "note": 57, "velocity": 0, "until": 210.3226773916727}, {"on": true, "note": 59, "velocity": 106, "until": 210.54716630833937}, {"on": false, "note": 59, "velocity": 0, "until": 210.56765222500604}, {"on": true, "note": 62, "velocity": 106, "until": 210.82188922500606}, {"on": false, "note": 62, "velocity": 0, "until": 210.82188922500606}, {"on": true, "note": 60, "velocity": 106, "until": 211.07601560833942}, {"on": false, "note": 60, "velocity": 0, "until": 211.07601560833942}, {"on": true, "note": 63, "velocity": 106, "until": 211.31697860833944}, {"on": false, "note": 63, "velocity": 0, "until": 211.31697860833944}, {"on": true, "note": 64, "velocity": 106, "until": 211.53786135833946}, {"on": false, "note": 64, "velocity": 0, "until": 211.5580344166728}, {"on": true, "note": 59, "velocity": 106, "until": 211.81013441667278}, {"on": false, "note": 59, "velocity": 0, "until": 212.54805363333938}, {"on": true, "note": 60, "velocity": 91, "until": 212.67357663333937}, {"on": false, "note": 60, "velocity": 0, "until": 213.5339982666727}, {"on": true, "note": 59, "velocity": 106, "until": 213.7829602666726}, {"on": false, "note": 59, "velocity": 0, "until": 214.03181608333927}, {"on": true, "note": 62, "velocity": 106, "until": 214.03181608333927}, {"on": true, "note": 64, "velocity": 106, "until": 214.1499260833393}, {"on": false, "note": 64, "velocity": 0, "until": 214.1499260833393}, {"on": false, "note": 62, "velocity": 0, "until": 214.26803608333933}, {"on": true, "note": 62, "velocity": 106, "until": 214.26803608333933}, {"on": true, "note": 64, "velocity": 106, "until": 214.38614608333936}, {"on": false, "note": 64, "velocity": 0, "until": 214.38614608333936}, {"on": false, "note": 62, "velocity": 0, "until": 214.50433675833938}, {"on": true, "note": 60, "velocity": 106, "until": 214.50433675833938}, {"on": true, "note": 64, "velocity": 106, "until": 214.75023775833935}, {"on": false, "note": 64, "velocity": 0, "until": 214.75023775833935}, {"on": false, "note": 60, "velocity": 0, "until": 214.99604270833933}, {"on": true, "note": 55, "velocity": 106, "until": 214.99604270833933}, {"on": true, "note": 62, "velocity": 106, "until": 215.11323020833933}, {"on": false, "note": 62, "velocity": 0, "until": 215.11323020833933}, {"on": false, "note": 55, "velocity": 0, "until": 215.23041770833933}, {"on": true, "note": 55, "velocity": 106, "until": 215.23041770833933}, {"on": true, "note": 62, "velocity": 106, "until": 215.34760520833933}, {"on": false, "note": 62, "velocity": 0, "until": 215.34760520833933}, {"on": false, "note": 55, "velocity": 0, "until": 215.46486386667266}, {"on": true, "note": 64, "velocity": 106, "until": 215.46486386667266}, {"on": true, "note": 60, "velocity": 106, "until": 215.70825358333929}, {"on": false, "note": 60, "velocity": 0, "until": 215.70825358333929}, {"on": false, "note": 64, "velocity": 0, "until": 216.95502797500595}, {"on": true, "note": 60, "velocity": 106, "until": 217.06953147500593}, {"on": false, "note": 60, "velocity": 0, "until": 217.18403497500591}, {"on": true, "note": 60, "velocity": 106, "until": 217.2985384750059}, {"on": false, "note": 60, "velocity": 0, "until": 217.41315786667255}, {"on": true, "note": 70, "velocity": 106, "until": 218.35699986667237}, {"on": false, "note": 70, "velocity": 0, "until": 218.35699986667237}, {"on": true, "note": 69, "velocity": 106, "until": 218.822585033339}, {"on": false, "note": 69, "velocity": 0, "until": 218.84271197500564}, {"on": true, "note": 76, "velocity": 106, "until": 218.84271197500564}, {"on": true, "note": 67, "velocity": 106, "until": 219.02400918333893}, {"on": false, "note": 67, "velocity": 0, "until": 219.02400918333893}, {"on": false, "note": 76, "velocity": 0, "until": 219.07171897500555}, {"on": true, "note": 76, "velocity": 106, "until": 219.07171897500555}, {"on": true, "note": 67, "velocity": 106, "until": 219.25301618333884}, {"on": false, "note": 67, "velocity": 0, "until": 219.25301618333884}, {"on": false, "note": 76, "velocity": 0, "until": 219.30084186667213}, {"on": true, "note": 71, "velocity": 106, "until": 219.30084186667213}, {"on": true, "note": 79, "velocity": 106, "until": 219.78680075000503}, {"on": false, "note": 79, "velocity": 0, "until": 219.78680075000503}, {"on": false, "note": 71, "velocity": 0, "until": 220.27605886667158}, {"on": true, "note": 72, "velocity": 106, "until": 220.51897286667153}, {"on": false, "note": 72, "velocity": 0, "until": 221.2324748666715}, {"on": true, "note": 71, "velocity": 106, "until": 221.47538886667147}, {"on": false, "note": 71, "velocity": 0, "until": 222.18889086667144}, {"on": true, "note": 68, "velocity": 106, "until": 223.14530686667112}, {"on": false, "note": 68, "velocity": 0, "until": 223.14530686667112}, {"on": true, "note": 69, "velocity": 106, "until": 223.38822086667108}, {"on": false, "note": 69, "velocity": 0, "until": 224.10172286667108}, {"on": true, "note": 60, "velocity": 106, "until": 224.22317986667105}, {"on": false, "note": 60, "velocity": 0, "until": 225.05813886667104}, {"on": true, "note": 59, "velocity": 106, "until": 225.301052866671}, {"on": false, "note": 59, "velocity": 0, "until": 226.01455486667098}, {"on": true, "note": 68, "velocity": 106, "until": 226.97097086667065}, {"on": false, "note": 68, "velocity": 0, "until": 226.97097086667065}, {"on": true, "note": 69, "velocity": 106, "until": 227.2138848666706}, {"on": false, "note": 69, "velocity": 0, "until": 227.92738686667062}, {"on": true, "note": 60, "velocity": 106, "until": 228.17030086667057}, {"on": false, "note": 60, "velocity": 0, "until": 228.88380286667055}, {"on": true, "note": 59, "velocity": 106, "until": 229.12697568333718}, {"on": false, "note": 59, "velocity": 0, "until": 229.86043458333725}, {"on": true, "note": 78, "velocity": 106, "until": 229.86043458333725}, {"on": true, "note": 69, "velocity": 106, "until": 229.86043458333725}, {"on": true, "note": 62, "velocity": 106, "until": 230.10043458333726}, {"on": false, "note": 62, "velocity": 0, "until": 230.10043458333726}, {"on": false, "note": 69, "velocity": 0, "until": 230.10043458333726}, {"on": false, "note": 78, "velocity": 0, "until": 230.79847286667058}, {"on": true, "note": 79, "velocity": 106, "until": 230.79847286667058}, {"on": true, "note": 71, "velocity": 106, "until": 230.79847286667058}, {"on": true, "note": 62, "velocity": 106, "until": 231.04138686667054}, {"on": false, "note": 62, "velocity": 0, "until": 231.04138686667054}, {"on": false, "note": 71, "velocity": 0, "until": 231.04138686667054}, {"on": false, "note": 79, "velocity": 0, "until": 231.7423148666705}, {"on": true, "note": 78, "velocity": 106, "until": 231.7423148666705}, {"on": true, "note": 69, "velocity": 106, "until": 231.7423148666705}, {"on": true, "note": 62, "velocity": 106, "until": 231.98522886667047}, {"on": false, "note": 62, "velocity": 0, "until": 231.98522886667047}, {"on": false, "note": 69, "velocity": 0, "until": 231.98522886667047}, {"on": false, "note": 78, "velocity": 0, "until": 232.68611670833712}, {"on": true, "note": 79, "velocity": 106, "until": 232.68611670833712}, {"on": true, "note": 71, "velocity": 106, "until": 232.68611670833712}, {"on": true, "note": 62, "velocity": 106, "until": 232.68611670833712}, {"on": true, "note": 55, "velocity": 106, "until": 232.92508472500384}, {"on": false, "note": 55, "velocity": 0, "until": 232.92508472500384}, {"on": false, "note": 79, "velocity": 0, "until": 232.92508472500384}, {"on": false, "note": 71, "velocity": 0, "until": 232.92508472500384}, {"on": false, "note": 62, "velocity": 0, "until": 245.8958153916709}, {"on": true, "note": 55, "velocity": 106, "until": 245.9978558083376}, {"on": false, "note": 55, "velocity": 0, "until": 246.01826389167093}, {"on": true, "note": 57, "velocity": 106, "until": 246.1203043083376}, {"on": false, "note": 57, "velocity": 0, "until": 246.14071239167095}, {"on": true, "note": 59, "velocity": 106, "until": 246.24275280833763}, {"on": false, "note": 59, "velocity": 0, "until": 246.26304315833764}, {"on": true, "note": 60, "velocity": 106, "until": 246.35919690833765}, {"on": false, "note": 60, "velocity": 0, "until": 246.37842765833767}, {"on": true, "note": 62, "velocity": 106, "until": 246.47458140833768}, {"on": false, "note": 62, "velocity": 0, "until": 246.4938121583377}, {"on": true, "note": 64, "velocity": 106, "until": 246.58996590833772}, {"on": false, "note": 64, "velocity": 0, "until": 246.60919665833774}, {"on": true, "note": 65, "velocity": 106, "until": 246.70535040833778}, {"on": false, "note": 65, "velocity": 0, "until": 246.72469889167112}, {"on": true, "note": 67, "velocity": 106, "until": 247.20428885000447}, {"on": false, "note": 67, "velocity": 0, "until": 247.21437515833782}, {"on": true, "note": 66, "velocity": 106, "until": 247.44514415833783}, {"on": false, "note": 66, "velocity": 0, "until": 247.44514415833783}, {"on": true, "note": 67, "velocity": 106, "until": 247.56052865833783}, {"on": false, "note": 67, "velocity": 0, "until": 247.56052865833783}, {"on": true, "note": 69, "velocity": 106, "until": 247.6760308916712}, {"on": false, "note": 69, "velocity": 0, "until": 247.6760308916712}, {"on": true, "note": 67, "velocity": 106, "until": 248.16570715833785}, {"on": false, "note": 67, "velocity": 0, "until": 248.16570715833785}, {"on": true, "note": 67, "velocity": 106, "until": 248.28109165833786}, {"on": false, "note": 67, "velocity": 0, "until": 248.28109165833786}, {"on": true, "note": 69, "velocity": 106, "until": 248.39647615833786}, {"on": false, "note": 69, "velocity": 0, "until": 248.39647615833786}, {"on": true, "note": 71, "velocity": 106, "until": 248.51186065833787}, {"on": false, "note": 71, "velocity": 0, "until": 248.51186065833787}, {"on": true, "note": 72, "velocity": 106, "until": 248.62732208333787}, {"on": false, "note": 72, "velocity": 0, "until": 248.62732208333787}, {"on": true, "note": 76, "velocity": 106, "until": 248.66732208333787}, {"on": false, "note": 76, "velocity": 0, "until": 248.66732208333787}, {"on": true, "note": 74, "velocity": 106, "until": 248.7673220833379}, {"on": false, "note": 74, "velocity": 0, "until": 248.86732208333788}, {"on": true, "note": 73, "velocity": 106, "until": 248.9873220833379}, {"on": false, "note": 73, "velocity": 0, "until": 249.1073220833379}, {"on": true, "note": 76, "velocity": 106, "until": 249.14732208333788}, {"on": false, "note": 76, "velocity": 0, "until": 249.14732208333788}, {"on": true, "note": 74, "velocity": 106, "until": 249.2473220833379}, {"on": false, "note": 74, "velocity": 0, "until": 249.3473220833379}, {"on": true, "note": 73, "velocity": 106, "until": 249.4673220833379}, {"on": false, "note": 73, "velocity": 0, "until": 249.5873220833379}, {"on": true, "note": 74, "velocity": 106, "until": 250.0672451583379}, {"on": false, "note": 74, "velocity": 0, "until": 250.0672451583379}, {"on": true, "note": 67, "velocity": 106, "until": 250.2980141583378}, {"on": false, "note": 67, "velocity": 0, "until": 250.528900891671}, {"on": true, "note": 67, "velocity": 106, "until": 251.01857715833765}, {"on": false, "note": 67, "velocity": 0, "until": 251.01857715833765}, {"on": true, "note": 66, "velocity": 106, "until": 251.24934615833766}, {"on": false, "note": 66, "velocity": 0, "until": 251.24934615833766}, {"on": true, "note": 67, "velocity": 106, "until": 251.36473065833766}, {"on": false, "note": 67, "velocity": 0, "until": 251.36473065833766}, {"on": true, "note": 69, "velocity": 106, "until": 251.480232891671}, {"on": false, "note": 69, "velocity": 0, "until": 251.480232891671}, {"on": true, "note": 67, "velocity": 106, "until": 252.08529365833766}, {"on": false, "note": 67, "velocity": 0, "until": 252.08529365833766}, {"on": true, "note": 69, "velocity": 106, "until": 252.20067815833767}, {"on": false, "note": 69, "velocity": 0, "until": 252.20067815833767}, {"on": true, "note": 71, "velocity": 106, "until": 252.31606265833767}, {"on": false, "note": 71, "velocity": 0, "until": 252.31606265833767}, {"on": true, "note": 72, "velocity": 106, "until": 252.43149258333767}, {"on": false, "note": 72, "velocity": 0, "until": 252.43149258333767}, {"on": true, "note": 76, "velocity": 106, "until": 252.5496025833377}, {"on": false, "note": 76, "velocity": 0, "until": 252.66771258333773}, {"on": true, "note": 72, "velocity": 106, "until": 252.66771258333773}, {"on": true, "note": 81, "velocity": 106, "until": 252.78582258333776}, {"on": false, "note": 81, "velocity": 0, "until": 252.78582258333776}, {"on": false, "note": 72, "velocity": 0, "until": 252.9039325833378}, {"on": true, "note": 80, "velocity": 106, "until": 252.9039325833378}, {"on": true, "note": 71, "velocity": 106, "until": 253.02204258333782}, {"on": false, "note": 71, "velocity": 0, "until": 253.02204258333782}, {"on": false, "note": 80, "velocity": 0, "until": 253.14015258333785}, {"on": true, "note": 81, "velocity": 106, "until": 253.14015258333785}, {"on": true, "note": 72, "velocity": 106, "until": 253.25826258333788}, {"on": false, "note": 72, "velocity": 0, "until": 253.25826258333788}, {"on": false, "note": 81, "velocity": 0, "until": 253.3763725833379}, {"on": true, "note": 71, "velocity": 106, "until": 253.3763725833379}, {"on": true, "note": 80, "velocity": 106, "until": 253.8487671583383}, {"on": false, "note": 80, "velocity": 0, "until": 253.8487671583383}, {"on": false, "note": 71, "velocity": 0, "until": 255.30876289167162}, {"on": true, "note": 57, "velocity": 106, "until": 255.36998714167163}, {"on": false, "note": 57, "velocity": 0, "until": 255.43121139167164}, {"on": true, "note": 59, "velocity": 106, "until": 255.49243564167165}, {"on": false, "note": 59, "velocity": 0, "until": 255.55365989167166}, {"on": true, "note": 61, "velocity": 106, "until": 255.61488414167167}, {"on": false, "note": 61, "velocity": 0, "until": 255.67610839167168}, {"on": true, "note": 62, "velocity": 106, "until": 255.73733264167168}, {"on": false, "note": 62, "velocity": 0, "until": 255.79843915833837}, {"on": true, "note": 64, "velocity": 106, "until": 255.8561314083384}, {"on": false, "note": 64, "velocity": 0, "until": 255.9138236583384}, {"on": true, "note": 65, "velocity": 106, "until": 255.9715159083384}, {"on": false, "note": 65, "velocity": 0, "until": 256.0292081583384}, {"on": true, "note": 67, "velocity": 106, "until": 256.08690040833835}, {"on": false, "note": 67, "velocity": 0, "until": 256.14459265833835}, {"on": true, "note": 69, "velocity": 106, "until": 256.20228490833836}, {"on": false, "note": 69, "velocity": 0, "until": 256.26009489167166}, {"on": true, "note": 67, "velocity": 106, "until": 256.5049918916717}, {"on": false, "note": 67, "velocity": 0, "until": 257.21142689167175}, {"on": true, "note": 55, "velocity": 106, "until": 257.27265114167176}, {"on": false, "note": 55, "velocity": 0, "until": 257.33387539167177}, {"on": true, "note": 57, "velocity": 106, "until": 257.3950996416718}, {"on": false, "note": 57, "velocity": 0, "until": 257.4563238916718}, {"on": true, "note": 59, "velocity": 106, "until": 257.5175481416718}, {"on": false, "note": 59, "velocity": 0, "until": 257.5787723916718}, {"on": true, "note": 60, "velocity": 106, "until": 257.6399966416718}, {"on": false, "note": 60, "velocity": 0, "until": 257.70110315833847}, {"on": true, "note": 62, "velocity": 106, "until": 257.75879540833836}, {"on": false, "note": 62, "velocity": 0, "until": 257.8164876583383}, {"on": true, "note": 64, "velocity": 106, "until": 257.87417990833825}, {"on": false, "note": 64, "velocity": 0, "until": 257.93187215833814}, {"on": true, "note": 65, "velocity": 106, "until": 257.989564408338}, {"on": false, "note": 65, "velocity": 0, "until": 258.047256658338}, {"on": true, "note": 67, "velocity": 106, "until": 258.104948908338}, {"on": false, "note": 67, "velocity": 0, "until": 258.1627588916713}, {"on": true, "note": 59, "velocity": 106, "until": 258.2852073916713}, {"on": false, "note": 59, "velocity": 0, "until": 258.4076558916713}, {"on": true, "note": 65, "velocity": 106, "until": 258.8832041583378}, {"on": false, "note": 65, "velocity": 0, "until": 258.8832041583378}, {"on": true, "note": 64, "velocity": 106, "until": 258.9985886583377}, {"on": false, "note": 64, "velocity": 0, "until": 258.9985886583377}, {"on": true, "note": 60, "velocity": 106, "until": 259.0947424083377}, {"on": false, "note": 60, "velocity": 0, "until": 259.1140908916711}, {"on": true, "note": 59, "velocity": 106, "until": 259.2365393916711}, {"on": false, "note": 59, "velocity": 0, "until": 259.3589878916711}, {"on": true, "note": 65, "velocity": 106, "until": 259.8345361583376}, {"on": false, "note": 65, "velocity": 0, "until": 259.8345361583376}, {"on": true, "note": 64, "velocity": 106, "until": 259.94992065833753}, {"on": false, "note": 64, "velocity": 0, "until": 259.94992065833753}, {"on": true, "note": 60, "velocity": 106, "until": 260.0460744083375}, {"on": false, "note": 60, "velocity": 0, "until": 260.0654228916709}, {"on": true, "note": 59, "velocity": 106, "until": 260.1878713916709}, {"on": false, "note": 59, "velocity": 0, "until": 260.31031989167093}, {"on": true, "note": 65, "velocity": 106, "until": 260.7858681583374}, {"on": false, "note": 65, "velocity": 0, "until": 260.7858681583374}, {"on": true, "note": 64, "velocity": 106, "until": 260.90125265833734}, {"on": false, "note": 64, "velocity": 0, "until": 260.90125265833734}, {"on": true, "note": 60, "velocity": 106, "until": 260.9974064083373}, {"on": false, "note": 60, "velocity": 0, "until": 261.0167548916707}, {"on": true, "note": 67, "velocity": 106, "until": 261.0167548916707}, {"on": true, "note": 59, "velocity": 106, "until": 261.2617570000041}, {"on": false, "note": 59, "velocity": 0, "until": 261.2617570000041}, {"on": false, "note": 67, "velocity": 0, "until": 265.6156331583371}, {"on": true, "note": 67, "velocity": 106, "until": 265.6156331583371}, {"on": true, "note": 72, "velocity": 106, "until": 265.73101765833707}, {"on": false, "note": 72, "velocity": 0, "until": 265.73101765833707}, {"on": false, "note": 67, "velocity": 0, "until": 265.846479083337}, {"on": true, "note": 65, "velocity": 106, "until": 265.846479083337}, {"on": true, "note": 72, "velocity": 106, "until": 265.96647908333705}, {"on": false, "note": 72, "velocity": 0, "until": 265.96647908333705}, {"on": false, "note": 65, "velocity": 0, "until": 266.0864790833371}, {"on": true, "note": 67, "velocity": 106, "until": 266.0864790833371}, {"on": true, "note": 72, "velocity": 106, "until": 266.2064790833372}, {"on": false, "note": 72, "velocity": 0, "until": 266.2064790833372}, {"on": false, "note": 67, "velocity": 0, "until": 266.32647908333723}, {"on": true, "note": 72, "velocity": 106, "until": 266.32647908333723}, {"on": true, "note": 65, "velocity": 106, "until": 266.4464790833373}, {"on": false, "note": 65, "velocity": 0, "until": 266.4464790833373}, {"on": false, "note": 72, "velocity": 0, "until": 266.56647908333736}, {"on": true, "note": 72, "velocity": 106, "until": 266.56647908333736}, {"on": true, "note": 67, "velocity": 106, "until": 266.6864790833374}, {"on": false, "note": 67, "velocity": 0, "until": 266.6864790833374}, {"on": false, "note": 72, "velocity": 0, "until": 266.8064790833375}, {"on": true, "note": 65, "velocity": 106, "until": 266.8064790833375}, {"on": true, "note": 72, "velocity": 106, "until": 267.2864021583384}, {"on": false, "note": 72, "velocity": 0, "until": 267.2864021583384}, {"on": false, "note": 65, "velocity": 0, "until": 269.4016331583378}, {"on": true, "note": 83, "velocity": 106, "until": 269.4016331583378}, {"on": true, "note": 74, "velocity": 106, "until": 269.51701765833775}, {"on": false, "note": 74, "velocity": 0, "until": 269.51701765833775}, {"on": false, "note": 83, "velocity": 0, "until": 269.63244758333764}, {"on": true, "note": 84, "velocity": 106, "until": 269.63244758333764}, {"on": true, "note": 76, "velocity": 106, "until": 269.7505575833375}, {"on": false, "note": 76, "velocity": 0, "until": 269.7505575833375}, {"on": false, "note": 84, "velocity": 0, "until": 269.8686675833374}, {"on": true, "note": 83, "velocity": 106, "until": 269.8686675833374}, {"on": true, "note": 74, "velocity": 106, "until": 269.9867775833373}, {"on": false, "note": 74, "velocity": 0, "until": 269.9867775833373}, {"on": false, "note": 83, "velocity": 0, "until": 270.1048875833372}, {"on": true, "note": 76, "velocity": 106, "until": 270.1048875833372}, {"on": true, "note": 84, "velocity": 106, "until": 270.2229975833371}, {"on": false, "note": 84, "velocity": 0, "until": 270.2229975833371}, {"on": false, "note": 76, "velocity": 0, "until": 270.34110758333696}, {"on": true, "note": 74, "velocity": 106, "until": 270.34110758333696}, {"on": true, "note": 83, "velocity": 106, "until": 270.45921758333685}, {"on": false, "note": 83, "velocity": 0, "until": 270.45921758333685}, {"on": false, "note": 74, "velocity": 0, "until": 270.57732758333674}, {"on": true, "note": 84, "velocity": 106, "until": 270.57732758333674}, {"on": true, "note": 76, "velocity": 106, "until": 270.81354758333663}, {"on": false, "note": 76, "velocity": 0, "until": 270.81354758333663}, {"on": false, "note": 84, "velocity": 0, "until": 271.0497221583365}, {"on": true, "note": 83, "velocity": 106, "until": 271.0497221583365}, {"on": true, "note": 74, "velocity": 106, "until": 271.49202940833624}, {"on": false, "note": 74, "velocity": 0, "until": 271.49202940833624}, {"on": false, "note": 83, "velocity": 0, "until": 271.51137789166955}, {"on": true, "note": 82, "velocity": 106, "until": 271.51137789166955}, {"on": true, "note": 73, "velocity": 106, "until": 271.98076380833623}, {"on": false, "note": 73, "velocity": 0, "until": 271.98076380833623}, {"on": false, "note": 82, "velocity": 0, "until": 272.0010541583362}, {"on": true, "note": 72, "velocity": 106, "until": 272.0010541583362}, {"on": true, "note": 81, "velocity": 106, "until": 272.44336140833593}, {"on": false, "note": 81, "velocity": 0, "until": 272.44336140833593}, {"on": false, "note": 72, "velocity": 0, "until": 272.46270989166925}, {"on": true, "note": 71, "velocity": 106, "until": 272.46270989166925}, {"on": true, "note": 79, "velocity": 106, "until": 272.93209580833593}, {"on": false, "note": 79, "velocity": 0, "until": 272.93209580833593}, {"on": false, "note": 71, "velocity": 0, "until": 272.9523861583359}, {"on": true, "note": 79, "velocity": 106, "until": 272.9523861583359}, {"on": true, "note": 70, "velocity": 106, "until": 273.3946934083356}, {"on": false, "note": 70, "velocity": 0, "until": 273.3946934083356}, {"on": false, "note": 79, "velocity": 0, "until": 273.41404189166894}, {"on": true, "note": 68, "velocity": 106, "until": 273.5160823083356}, {"on": false, "note": 68, "velocity": 0, "until": 273.53649039166896}, {"on": true, "note": 68, "velocity": 106, "until": 273.63853080833564}, {"on": false, "note": 68, "velocity": 0, "until": 273.658938891669}, {"on": true, "note": 68, "velocity": 106, "until": 273.76097930833566}, {"on": false, "note": 68, "velocity": 0, "until": 273.781387391669}, {"on": true, "note": 68, "velocity": 106, "until": 273.8834278083357}, {"on": false, "note": 68, "velocity": 0, "until": 273.90371815833566}, {"on": true, "note": 68, "velocity": 106, "until": 273.9998719083356}, {"on": false, "note": 68, "velocity": 0, "until": 274.0191026583356}, {"on": true, "note": 68, "velocity": 106, "until": 274.1152564083356}, {"on": false, "note": 68, "velocity": 0, "until": 274.1344871583356}, {"on": true, "note": 67, "velocity": 106, "until": 274.23064090833554}, {"on": false, "note": 67, "velocity": 0, "until": 274.24987165833556}, {"on": true, "note": 67, "velocity": 106, "until": 274.34602540833555}, {"on": false, "note": 67, "velocity": 0, "until": 274.3653738916689}, {"on": true, "note": 68, "velocity": 106, "until": 274.4674143083356}, {"on": false, "note": 68, "velocity": 0, "until": 274.48782239166894}, {"on": true, "note": 68, "velocity": 106, "until": 274.5898628083356}, {"on": false, "note": 68, "velocity": 0, "until": 274.61027089166896}, {"on": true, "note": 68, "velocity": 106, "until": 274.71231130833564}, {"on": false, "note": 68, "velocity": 0, "until": 274.732719391669}, {"on": true, "note": 68, "velocity": 106, "until": 274.83475980833566}, {"on": false, "note": 68, "velocity": 0, "until": 274.85505015833564}, {"on": true, "note": 68, "velocity": 106, "until": 274.9512039083354}, {"on": false, "note": 68, "velocity": 0, "until": 274.9704346583353}, {"on": true, "note": 68, "velocity": 106, "until": 275.0665884083351}, {"on": false, "note": 68, "velocity": 0, "until": 275.08581915833514}, {"on": true, "note": 67, "velocity": 106, "until": 275.18197290833507}, {"on": false, "note": 67, "velocity": 0, "until": 275.2012036583351}, {"on": true, "note": 67, "velocity": 106, "until": 275.2973574083351}, {"on": false, "note": 67, "velocity": 0, "until": 275.31670589166845}, {"on": true, "note": 68, "velocity": 106, "until": 275.41874630833513}, {"on": false, "note": 68, "velocity": 0, "until": 275.43915439166847}, {"on": true, "note": 68, "velocity": 106, "until": 275.54119480833515}, {"on": false, "note": 68, "velocity": 0, "until": 275.5616028916685}, {"on": true, "note": 67, "velocity": 106, "until": 275.66364330833517}, {"on": false, "note": 67, "velocity": 0, "until": 275.6840513916685}, {"on": true, "note": 67, "velocity": 106, "until": 275.7860918083352}, {"on": false, "note": 67, "velocity": 0, "until": 275.80638215833517}, {"on": true, "note": 68, "velocity": 106, "until": 275.902535908335}, {"on": false, "note": 68, "velocity": 0, "until": 275.9217666583349}, {"on": true, "note": 68, "velocity": 106, "until": 276.0179204083348}, {"on": false, "note": 68, "velocity": 0, "until": 276.03715115833484}, {"on": true, "note": 67, "velocity": 106, "until": 276.13330490833476}, {"on": false, "note": 67, "velocity": 0, "until": 276.1525356583348}, {"on": true, "note": 67, "velocity": 106, "until": 276.24868940833477}, {"on": false, "note": 67, "velocity": 0, "until": 276.2680378916681}, {"on": true, "note": 68, "velocity": 106, "until": 276.37007830833477}, {"on": false, "note": 68, "velocity": 0, "until": 276.3904863916681}, {"on": true, "note": 68, "velocity": 106, "until": 276.4925268083348}, {"on": false, "note": 68, "velocity": 0, "until": 276.5129348916681}, {"on": true, "note": 67, "velocity": 106, "until": 276.6149753083348}, {"on": false, "note": 67, "velocity": 0, "until": 276.63538339166814}, {"on": true, "note": 67, "velocity": 106, "until": 276.7374238083348}, {"on": false, "note": 67, "velocity": 0, "until": 276.7577141583348}, {"on": true, "note": 68, "velocity": 106, "until": 276.8538679083346}, {"on": false, "note": 68, "velocity": 0, "until": 276.8730986583345}, {"on": true, "note": 68, "velocity": 106, "until": 276.96925240833446}, {"on": false, "note": 68, "velocity": 0, "until": 276.9884831583345}, {"on": true, "note": 67, "velocity": 106, "until": 277.0846369083344}, {"on": false, "note": 67, "velocity": 0, "until": 277.1038676583344}, {"on": true, "note": 67, "velocity": 106, "until": 277.2000214083344}, {"on": false, "note": 67, "velocity": 0, "until": 277.2193698916677}, {"on": true, "note": 73, "velocity": 106, "until": 277.3214103083344}, {"on": false, "note": 73, "velocity": 0, "until": 277.34181839166774}, {"on": true, "note": 73, "velocity": 106, "until": 277.4438588083344}, {"on": false, "note": 73, "velocity": 0, "until": 277.46426689166776}, {"on": true, "note": 73, "velocity": 106, "until": 277.56630730833444}, {"on": false, "note": 73, "velocity": 0, "until": 277.5867153916678}, {"on": true, "note": 73, "velocity": 106, "until": 277.68875580833446}, {"on": false, "note": 73, "velocity": 0, "until": 277.70904615833444}, {"on": true, "note": 73, "velocity": 106, "until": 277.8051999083342}, {"on": false, "note": 73, "velocity": 0, "until": 277.8244306583341}, {"on": true, "note": 73, "velocity": 106, "until": 277.9205844083339}, {"on": false, "note": 73, "velocity": 0, "until": 277.93981515833394}, {"on": true, "note": 74, "velocity": 106, "until": 278.03596890833387}, {"on": false, "note": 74, "velocity": 0, "until": 278.0551996583339}, {"on": true, "note": 74, "velocity": 106, "until": 278.1513534083339}, {"on": false, "note": 74, "velocity": 0, "until": 278.1707018916672}, {"on": true, "note": 73, "velocity": 106, "until": 278.2727423083339}, {"on": false, "note": 73, "velocity": 0, "until": 278.2931503916672}, {"on": true, "note": 73, "velocity": 106, "until": 278.3951908083339}, {"on": false, "note": 73, "velocity": 0, "until": 278.41559889166723}, {"on": true, "note": 73, "velocity": 106, "until": 278.5176393083339}, {"on": false, "note": 73, "velocity": 0, "until": 278.53804739166725}, {"on": true, "note": 73, "velocity": 106, "until": 278.64008780833393}, {"on": false, "note": 73, "velocity": 0, "until": 278.6603781583339}, {"on": true, "note": 73, "velocity": 106, "until": 278.75653190833367}, {"on": false, "note": 73, "velocity": 0, "until": 278.7757626583336}, {"on": true, "note": 73, "velocity": 106, "until": 278.8719164083334}, {"on": false, "note": 73, "velocity": 0, "until": 278.8911471583334}, {"on": true, "note": 74, "velocity": 106, "until": 278.98730090833334}, {"on": false, "note": 74, "velocity": 0, "until": 279.00653165833336}, {"on": true, "note": 74, "velocity": 106, "until": 279.10268540833334}, {"on": false, "note": 74, "velocity": 0, "until": 279.12203389166666}, {"on": true, "note": 73, "velocity": 106, "until": 279.22407430833334}, {"on": false, "note": 73, "velocity": 0, "until": 279.2444823916667}, {"on": true, "note": 73, "velocity": 106, "until": 279.34652280833336}, {"on": false, "note": 73, "velocity": 0, "until": 279.3669308916667}, {"on": true, "note": 74, "velocity": 106, "until": 279.4689713083334}, {"on": false, "note": 74, "velocity": 0, "until": 279.4893793916667}, {"on": true, "note": 74, "velocity": 106, "until": 279.5914198083334}, {"on": false, "note": 74, "velocity": 0, "until": 279.6117101583334}, {"on": true, "note": 73, "velocity": 106, "until": 279.7078639083332}, {"on": false, "note": 73, "velocity": 0, "until": 279.7270946583331}, {"on": true, "note": 73, "velocity": 106, "until": 279.823248408333}, {"on": false, "note": 73, "velocity": 0, "until": 279.842479158333}, {"on": true, "note": 74, "velocity": 106, "until": 279.9386329083329}, {"on": false, "note": 74, "velocity": 0, "until": 279.9578636583329}, {"on": true, "note": 74, "velocity": 106, "until": 280.05401740833287}, {"on": false, "note": 74, "velocity": 0, "until": 280.0733658916661}, {"on": true, "note": 73, "velocity": 106, "until": 280.1754063083328}, {"on": false, "note": 73, "velocity": 0, "until": 280.19581439166615}, {"on": true, "note": 73, "velocity": 106, "until": 280.29785480833283}, {"on": false, "note": 73, "velocity": 0, "until": 280.31826289166617}, {"on": true, "note": 74, "velocity": 106, "until": 280.42030330833285}, {"on": false, "note": 74, "velocity": 0, "until": 280.4407113916662}, {"on": true, "note": 74, "velocity": 106, "until": 280.54275180833287}, {"on": false, "note": 74, "velocity": 0, "until": 280.56304215833285}, {"on": true, "note": 73, "velocity": 106, "until": 280.65919590833266}, {"on": false, "note": 73, "velocity": 0, "until": 280.67842665833257}, {"on": true, "note": 73, "velocity": 106, "until": 280.7745804083325}, {"on": false, "note": 73, "velocity": 0, "until": 280.7938111583325}, {"on": true, "note": 73, "velocity": 106, "until": 280.88996490833244}, {"on": false, "note": 73, "velocity": 0, "until": 280.90919565833246}, {"on": true, "note": 73, "velocity": 106, "until": 281.0053494083324}, {"on": false, "note": 73, "velocity": 0, "until": 281.0246978916657}, {"on": true, "note": 74, "velocity": 106, "until": 281.26959489166575}, {"on": false, "note": 74, "velocity": 0, "until": 284.9304831333325}, {"on": true, "note": 59, "velocity": 106, "until": 284.99324463333244}, {"on": false, "note": 59, "velocity": 0, "until": 285.0560061333324}, {"on": true, "note": 59, "velocity": 106, "until": 285.11876763333237}, {"on": false, "note": 59, "velocity": 0, "until": 285.18152913333233}, {"on": true, "note": 59, "velocity": 106, "until": 285.2442906333323}, {"on": false, "note": 59, "velocity": 0, "until": 285.30705213333226}, {"on": true, "note": 59, "velocity": 106, "until": 285.3698136333322}, {"on": false, "note": 59, "velocity": 0, "until": 285.4324992083322}, {"on": true, "note": 59, "velocity": 106, "until": 285.6542729583324}, {"on": false, "note": 59, "velocity": 0, "until": 285.67443420833246}, {"on": true, "note": 59, "velocity": 106, "until": 285.89620795833264}, {"on": false, "note": 59, "velocity": 0, "until": 285.9164451333327}, {"on": true, "note": 59, "velocity": 106, "until": 285.97920663333264}, {"on": false, "note": 59, "velocity": 0, "until": 286.0419681333326}, {"on": true, "note": 59, "velocity": 106, "until": 286.10472963333257}, {"on": false, "note": 59, "velocity": 0, "until": 286.16749113333253}, {"on": true, "note": 59, "velocity": 106, "until": 286.2302526333325}, {"on": false, "note": 59, "velocity": 0, "until": 286.29301413333246}, {"on": true, "note": 59, "velocity": 106, "until": 286.3557756333324}, {"on": false, "note": 59, "velocity": 0, "until": 286.4184612083324}, {"on": true, "note": 59, "velocity": 106, "until": 286.6402349583326}, {"on": false, "note": 59, "velocity": 0, "until": 286.66039620833266}, {"on": true, "note": 59, "velocity": 106, "until": 286.88216995833284}, {"on": false, "note": 59, "velocity": 0, "until": 286.9024071333329}, {"on": true, "note": 60, "velocity": 106, "until": 286.96516863333284}, {"on": false, "note": 60, "velocity": 0, "until": 287.0279301333328}, {"on": true, "note": 60, "velocity": 106, "until": 287.09069163333277}, {"on": false, "note": 60, "velocity": 0, "until": 287.15345313333273}, {"on": true, "note": 60, "velocity": 106, "until": 287.2162146333327}, {"on": false, "note": 60, "velocity": 0, "until": 287.27897613333266}, {"on": true, "note": 60, "velocity": 106, "until": 287.3417376333326}, {"on": false, "note": 60, "velocity": 0, "until": 287.4044232083326}, {"on": true, "note": 60, "velocity": 106, "until": 287.6261969583328}, {"on": false, "note": 60, "velocity": 0, "until": 287.64635820833286}, {"on": true, "note": 60, "velocity": 106, "until": 287.86813195833304}, {"on": false, "note": 60, "velocity": 0, "until": 287.8883691333331}, {"on": true, "note": 60, "velocity": 106, "until": 287.95113063333304}, {"on": false, "note": 60, "velocity": 0, "until": 288.013892133333}, {"on": true, "note": 60, "velocity": 106, "until": 288.07665363333297}, {"on": false, "note": 60, "velocity": 0, "until": 288.13941513333293}, {"on": true, "note": 60, "velocity": 106, "until": 288.2021766333329}, {"on": false, "note": 60, "velocity": 0, "until": 288.26493813333286}, {"on": true, "note": 60, "velocity": 106, "until": 288.3276996333328}, {"on": false, "note": 60, "velocity": 0, "until": 288.3903852083328}, {"on": true, "note": 60, "velocity": 106, "until": 288.612158958333}, {"on": false, "note": 60, "velocity": 0, "until": 288.63232020833306}, {"on": true, "note": 60, "velocity": 106, "until": 288.7875618333332}, {"on": false, "note": 60, "velocity": 0, "until": 288.87433113333327}, {"on": true, "note": 60, "velocity": 106, "until": 288.93709263333307}, {"on": false, "note": 60, "velocity": 0, "until": 288.9998541333328}, {"on": true, "note": 60, "velocity": 106, "until": 289.0626156333326}, {"on": false, "note": 60, "velocity": 0, "until": 289.1253771333324}, {"on": true, "note": 60, "velocity": 106, "until": 289.18813863333224}, {"on": false, "note": 60, "velocity": 0, "until": 289.25090013333204}, {"on": true, "note": 60, "velocity": 106, "until": 289.3136616333319}, {"on": false, "note": 60, "velocity": 0, "until": 289.37634720833177}, {"on": true, "note": 60, "velocity": 106, "until": 289.59812095833183}, {"on": false, "note": 60, "velocity": 0, "until": 289.6182822083319}, {"on": true, "note": 57, "velocity": 106, "until": 289.84005595833196}, {"on": false, "note": 57, "velocity": 0, "until": 289.860293133332}, {"on": true, "note": 59, "velocity": 106, "until": 289.9858161333319}, {"on": false, "note": 59, "velocity": 0, "until": 290.11133913333185}, {"on": true, "note": 62, "velocity": 91, "until": 290.2368621333318}, {"on": false, "note": 62, "velocity": 0, "until": 290.36230920833174}, {"on": true, "note": 62, "velocity": 91, "until": 290.4832767083318}, {"on": false, "note": 62, "velocity": 0, "until": 290.60424420833186}, {"on": true, "note": 59, "velocity": 91, "until": 290.7252117083319}, {"on": false, "note": 59, "velocity": 0, "until": 290.84625513333197}, {"on": true, "note": 60, "velocity": 106, "until": 290.9090166333319}, {"on": false, "note": 60, "velocity": 0, "until": 290.97177813333167}, {"on": true, "note": 60, "velocity": 106, "until": 291.0345396333316}, {"on": false, "note": 60, "velocity": 0, "until": 291.09730113333137}, {"on": true, "note": 60, "velocity": 106, "until": 291.1600626333313}, {"on": false, "note": 60, "velocity": 0, "until": 291.2228241333312}, {"on": true, "note": 60, "velocity": 106, "until": 291.2855856333311}, {"on": false, "note": 60, "velocity": 0, "until": 291.348271208331}, {"on": true, "note": 60, "velocity": 106, "until": 291.5700449583311}, {"on": false, "note": 60, "velocity": 0, "until": 291.59020620833115}, {"on": true, "note": 57, "velocity": 106, "until": 291.8119799583312}, {"on": false, "note": 57, "velocity": 0, "until": 291.83221713333126}, {"on": true, "note": 59, "velocity": 106, "until": 291.9577401333312}, {"on": false, "note": 59, "velocity": 0, "until": 292.0832631333311}, {"on": true, "note": 62, "velocity": 91, "until": 292.20878613333105}, {"on": false, "note": 62, "velocity": 0, "until": 292.334233208331}, {"on": true, "note": 62, "velocity": 91, "until": 292.5765105666644}, {"on": false, "note": 62, "velocity": 0, "until": 292.85930683333106}, {"on": true, "note": 58, "velocity": 106, "until": 292.92340933333105}, {"on": false, "note": 58, "velocity": 0, "until": 292.98751183333104}, {"on": true, "note": 58, "velocity": 106, "until": 293.05161433333103}, {"on": false, "note": 58, "velocity": 0, "until": 293.115716833331}, {"on": true, "note": 58, "velocity": 106, "until": 293.179819333331}, {"on": false, "note": 58, "velocity": 0, "until": 293.243921833331}, {"on": true, "note": 58, "velocity": 106, "until": 293.308024333331}, {"on": false, "note": 58, "velocity": 0, "until": 293.37203089166434}, {"on": true, "note": 58, "velocity": 106, "until": 293.59651980833104}, {"on": false, "note": 58, "velocity": 0, "until": 293.6169278916644}, {"on": true, "note": 58, "velocity": 106, "until": 293.8414168083311}, {"on": false, "note": 58, "velocity": 0, "until": 293.86192083333106}, {"on": true, "note": 58, "velocity": 106, "until": 293.926023333331}, {"on": false, "note": 58, "velocity": 0, "until": 293.990125833331}, {"on": true, "note": 58, "velocity": 106, "until": 294.05422833333097}, {"on": false, "note": 58, "velocity": 0, "until": 294.11833083333096}, {"on": true, "note": 58, "velocity": 106, "until": 294.18243333333095}, {"on": false, "note": 58, "velocity": 0, "until": 294.24653583333094}, {"on": true, "note": 58, "velocity": 106, "until": 294.3106383333309}, {"on": false, "note": 58, "velocity": 0, "until": 294.3746448916643}, {"on": true, "note": 58, "velocity": 106, "until": 294.599133808331}, {"on": false, "note": 58, "velocity": 0, "until": 294.6195418916643}, {"on": true, "note": 58, "velocity": 106, "until": 294.844030808331}, {"on": false, "note": 58, "velocity": 0, "until": 294.864534833331}, {"on": true, "note": 58, "velocity": 106, "until": 294.9286373333309}, {"on": false, "note": 58, "velocity": 0, "until": 294.9927398333309}, {"on": true, "note": 58, "velocity": 106, "until": 295.0568423333309}, {"on": false, "note": 58, "velocity": 0, "until": 295.1209448333309}, {"on": true, "note": 58, "velocity": 106, "until": 295.1850473333309}, {"on": false, "note": 58, "velocity": 0, "until": 295.2491498333309}, {"on": true, "note": 58, "velocity": 106, "until": 295.31325233333087}, {"on": false, "note": 58, "velocity": 0, "until": 295.3772588916642}, {"on": true, "note": 58, "velocity": 106, "until": 295.6017478083309}, {"on": false, "note": 58, "velocity": 0, "until": 295.62215589166425}, {"on": true, "note": 58, "velocity": 106, "until": 295.84664480833095}, {"on": false, "note": 58, "velocity": 0, "until": 295.86714883333093}, {"on": true, "note": 58, "velocity": 106, "until": 295.93125133333086}, {"on": false, "note": 58, "velocity": 0, "until": 295.99535383333085}, {"on": true, "note": 58, "velocity": 106, "until": 296.05945633333084}, {"on": false, "note": 58, "velocity": 0, "until": 296.12355883333083}, {"on": true, "note": 58, "velocity": 106, "until": 296.1876613333308}, {"on": false, "note": 58, "velocity": 0, "until": 296.2517638333308}, {"on": true, "note": 58, "velocity": 106, "until": 296.3158663333308}, {"on": false, "note": 58, "velocity": 0, "until": 296.37987289166415}, {"on": true, "note": 58, "velocity": 106, "until": 296.60436180833085}, {"on": false, "note": 58, "velocity": 0, "until": 296.6247698916642}, {"on": true, "note": 58, "velocity": 106, "until": 296.8492588083309}, {"on": false, "note": 58, "velocity": 0, "until": 296.86976283333087}, {"on": true, "note": 58, "velocity": 106, "until": 296.9338653333308}, {"on": false, "note": 58, "velocity": 0, "until": 296.9979678333308}, {"on": true, "note": 58, "velocity": 106, "until": 297.06207033333067}, {"on": false, "note": 58, "velocity": 0, "until": 297.12617283333066}, {"on": true, "note": 58, "velocity": 106, "until": 297.1902753333307}, {"on": false, "note": 58, "velocity": 0, "until": 297.25437783333075}, {"on": true, "note": 58, "velocity": 106, "until": 297.31848033333074}, {"on": false, "note": 58, "velocity": 0, "until": 297.3824868916641}, {"on": true, "note": 57, "velocity": 106, "until": 297.60697580833073}, {"on": false, "note": 57, "velocity": 0, "until": 297.62738389166407}, {"on": true, "note": 60, "velocity": 106, "until": 297.85187280833077}, {"on": false, "note": 60, "velocity": 0, "until": 297.87237683333075}, {"on": true, "note": 62, "velocity": 106, "until": 298.0005818333307}, {"on": false, "note": 62, "velocity": 0, "until": 298.1287868333307}, {"on": true, "note": 65, "velocity": 91, "until": 298.2569918333307}, {"on": false, "note": 65, "velocity": 0, "until": 298.385100891664}, {"on": true, "note": 65, "velocity": 91, "until": 298.50754939166404}, {"on": false, "note": 65, "velocity": 0, "until": 298.62999789166406}, {"on": true, "note": 62, "velocity": 91, "until": 298.7524463916641}, {"on": false, "note": 62, "velocity": 0, "until": 298.87499083333074}, {"on": true, "note": 63, "velocity": 106, "until": 298.87499083333074}, {"on": true, "note": 60, "velocity": 106, "until": 298.93909333333073}, {"on": false, "note": 60, "velocity": 0, "until": 298.93909333333073}, {"on": false, "note": 63, "velocity": 0, "until": 299.0031958333307}, {"on": true, "note": 60, "velocity": 106, "until": 299.0031958333307}, {"on": true, "note": 63, "velocity": 106, "until": 299.0672983333307}, {"on": false, "note": 63, "velocity": 0, "until": 299.0672983333307}, {"on": false, "note": 60, "velocity": 0, "until": 299.13140083333064}, {"on": true, "note": 63, "velocity": 106, "until": 299.13140083333064}, {"on": true, "note": 60, "velocity": 106, "until": 299.1955033333307}, {"on": false, "note": 60, "velocity": 0, "until": 299.1955033333307}, {"on": false, "note": 63, "velocity": 0, "until": 299.2596058333307}, {"on": true, "note": 60, "velocity": 106, "until": 299.2596058333307}, {"on": true, "note": 63, "velocity": 106, "until": 299.32370833333067}, {"on": false, "note": 63, "velocity": 0, "until": 299.32370833333067}, {"on": false, "note": 60, "velocity": 0, "until": 299.387714891664}, {"on": true, "note": 63, "velocity": 106, "until": 299.387714891664}, {"on": true, "note": 60, "velocity": 106, "until": 299.61220380833066}, {"on": false, "note": 60, "velocity": 0, "until": 299.61220380833066}, {"on": false, "note": 63, "velocity": 0, "until": 299.632611891664}, {"on": true, "note": 60, "velocity": 106, "until": 299.8571008083307}, {"on": false, "note": 60, "velocity": 0, "until": 299.8776048333307}, {"on": true, "note": 62, "velocity": 106, "until": 300.00580983333066}, {"on": false, "note": 62, "velocity": 0, "until": 300.13401483333064}, {"on": true, "note": 65, "velocity": 91, "until": 300.2622198333306}, {"on": false, "note": 65, "velocity": 0, "until": 300.39032889166396}, {"on": true, "note": 65, "velocity": 91, "until": 300.6354578083306}, {"on": false, "note": 65, "velocity": 0, "until": 300.9080041333306}, {"on": true, "note": 62, "velocity": 106, "until": 301.28457313333007}, {"on": false, "note": 62, "velocity": 0, "until": 301.28457313333007}, {"on": true, "note": 63, "velocity": 106, "until": 301.41002020833}, {"on": false, "note": 63, "velocity": 0, "until": 301.41002020833}, {"on": true, "note": 62, "velocity": 106, "until": 301.6317939583301}, {"on": false, "note": 62, "velocity": 0, "until": 301.65195520833015}, {"on": true, "note": 60, "velocity": 106, "until": 301.7729227083302}, {"on": false, "note": 60, "velocity": 0, "until": 301.89396613333025}, {"on": true, "note": 58, "velocity": 106, "until": 302.0194891333302}, {"on": false, "note": 58, "velocity": 0, "until": 302.0194891333302}, {"on": true, "note": 62, "velocity": 106, "until": 302.1240916333301}, {"on": false, "note": 62, "velocity": 0, "until": 302.14501213333006}, {"on": true, "note": 60, "velocity": 106, "until": 302.20777363333}, {"on": false, "note": 60, "velocity": 0, "until": 302.27053513333}, {"on": true, "note": 57, "velocity": 106, "until": 302.33329663332995}, {"on": false, "note": 57, "velocity": 0, "until": 302.39598220832994}, {"on": true, "note": 55, "velocity": 106, "until": 302.63791720833}, {"on": false, "note": 55, "velocity": 0, "until": 304.85182619166335}, {"on": true, "note": 62, "velocity": 106, "until": 305.2237256916636}, {"on": false, "note": 62, "velocity": 0, "until": 305.2237256916636}, {"on": true, "note": 63, "velocity": 106, "until": 305.34760236666364}, {"on": false, "note": 63, "velocity": 0, "until": 305.34760236666364}, {"on": true, "note": 62, "velocity": 106, "until": 305.5649935333302}, {"on": false, "note": 62, "velocity": 0, "until": 305.5847563666635}, {"on": true, "note": 60, "velocity": 106, "until": 305.70333336666346}, {"on": false, "note": 60, "velocity": 0, "until": 305.82200019166345}, {"on": true, "note": 58, "velocity": 106, "until": 305.9459666916635}, {"on": false, "note": 58, "velocity": 0, "until": 305.9459666916635}, {"on": true, "note": 62, "velocity": 106, "until": 306.0492721083302}, {"on": false, "note": 62, "velocity": 0, "until": 306.06993319166355}, {"on": true, "note": 60, "velocity": 106, "until": 306.1319164416636}, {"on": false, "note": 60, "velocity": 0, "until": 306.1938996916636}, {"on": true, "note": 57, "velocity": 106, "until": 306.25588294166363}, {"on": false, "note": 57, "velocity": 0, "until": 306.3177763666636}, {"on": true, "note": 55, "velocity": 106, "until": 306.55493036666354}, {"on": false, "note": 55, "velocity": 0, "until": 308.7324803666637}, {"on": true, "note": 69, "velocity": 106, "until": 309.0968513666643}, {"on": false, "note": 69, "velocity": 0, "until": 309.0968513666643}, {"on": true, "note": 70, "velocity": 106, "until": 309.2181924749978}, {"on": false, "note": 70, "velocity": 0, "until": 309.2181924749978}, {"on": true, "note": 69, "velocity": 106, "until": 309.42811555833117}, {"on": false, "note": 69, "velocity": 0, "until": 309.44719947499783}, {"on": true, "note": 67, "velocity": 106, "until": 309.5617029749979}, {"on": false, "note": 67, "velocity": 0, "until": 309.67632236666464}, {"on": true, "note": 65, "velocity": 106, "until": 309.7977793666647}, {"on": false, "note": 65, "velocity": 0, "until": 309.7977793666647}, {"on": true, "note": 69, "velocity": 106, "until": 309.8989935333314}, {"on": false, "note": 69, "velocity": 0, "until": 309.91923636666473}, {"on": true, "note": 67, "velocity": 106, "until": 309.9799648666648}, {"on": false, "note": 67, "velocity": 0, "until": 310.04069336666475}, {"on": true, "note": 64, "velocity": 106, "until": 310.1014218666648}, {"on": false, "note": 64, "velocity": 0, "until": 310.1620344749981}, {"on": true, "note": 62, "velocity": 106, "until": 310.39104147499825}, {"on": false, "note": 62, "velocity": 0, "until": 310.62016436666494}, {"on": true, "note": 72, "velocity": 106, "until": 310.98453536666545}, {"on": false, "note": 72, "velocity": 0, "until": 310.98453536666545}, {"on": true, "note": 74, "velocity": 106, "until": 311.10587647499904}, {"on": false, "note": 74, "velocity": 0, "until": 311.10587647499904}, {"on": true, "note": 72, "velocity": 106, "until": 311.31579955833246}, {"on": false, "note": 72, "velocity": 0, "until": 311.3348834749992}, {"on": true, "note": 70, "velocity": 106, "until": 311.44938697499924}, {"on": false, "note": 70, "velocity": 0, "until": 311.564006366666}, {"on": true, "note": 69, "velocity": 106, "until": 311.68546336666606}, {"on": false, "note": 69, "velocity": 0, "until": 311.68546336666606}, {"on": true, "note": 72, "velocity": 106, "until": 311.78667753333275}, {"on": false, "note": 72, "velocity": 0, "until": 311.80692036666613}, {"on": true, "note": 70, "velocity": 106, "until": 311.86764886666623}, {"on": false, "note": 70, "velocity": 0, "until": 311.9283773666662}, {"on": true, "note": 67, "velocity": 106, "until": 311.98910586666625}, {"on": false, "note": 67, "velocity": 0, "until": 312.0497184749996}, {"on": true, "note": 65, "velocity": 106, "until": 312.27872547499976}, {"on": false, "note": 65, "velocity": 0, "until": 312.5082279249998}, {"on": true, "note": 67, "velocity": 106, "until": 312.5082279249998}, {"on": true, "note": 70, "velocity": 106, "until": 312.79636841666627}, {"on": false, "note": 70, "velocity": 0, "until": 312.79636841666627}, {"on": false, "note": 67, "velocity": 0, "until": 313.77902183333345}, {"on": true, "note": 67, "velocity": 106, "until": 313.9072268333334}, {"on": false, "note": 67, "velocity": 0, "until": 313.9072268333334}, {"on": true, "note": 69, "velocity": 106, "until": 314.03533589166676}, {"on": false, "note": 69, "velocity": 0, "until": 314.03533589166676}, {"on": true, "note": 70, "velocity": 106, "until": 314.1577843916668}, {"on": false, "note": 70, "velocity": 0, "until": 314.1577843916668}, {"on": true, "note": 69, "velocity": 106, "until": 314.2802328916668}, {"on": false, "note": 69, "velocity": 0, "until": 314.2802328916668}, {"on": true, "note": 70, "velocity": 106, "until": 314.4026813916668}, {"on": false, "note": 70, "velocity": 0, "until": 314.4026813916668}, {"on": true, "note": 67, "velocity": 106, "until": 314.5047218083335}, {"on": false, "note": 67, "velocity": 0, "until": 314.5252258333335}, {"on": true, "note": 62, "velocity": 106, "until": 314.6534308333334}, {"on": false, "note": 62, "velocity": 0, "until": 314.6534308333334}, {"on": true, "note": 67, "velocity": 106, "until": 314.7602683333334}, {"on": false, "note": 67, "velocity": 0, "until": 314.7816358333334}, {"on": true, "note": 71, "velocity": 106, "until": 314.8457383333333}, {"on": false, "note": 71, "velocity": 0, "until": 314.9098408333333}, {"on": true, "note": 69, "velocity": 106, "until": 314.9739433333333}, {"on": false, "note": 69, "velocity": 0, "until": 315.03794989166664}, {"on": true, "note": 67, "velocity": 106, "until": 315.16039839166666}, {"on": false, "note": 67, "velocity": 0, "until": 315.16039839166666}, {"on": true, "note": 66, "velocity": 106, "until": 315.26243880833334}, {"on": false, "note": 66, "velocity": 0, "until": 315.2828468916667}, {"on": true, "note": 64, "velocity": 106, "until": 315.3440711416667}, {"on": false, "note": 64, "velocity": 0, "until": 315.4052953916667}, {"on": true, "note": 62, "velocity": 106, "until": 315.4665196416667}, {"on": false, "note": 62, "velocity": 0, "until": 315.52783983333336}, {"on": true, "note": 61, "velocity": 106, "until": 315.6560448333333}, {"on": false, "note": 61, "velocity": 0, "until": 315.6560448333333}, {"on": true, "note": 62, "velocity": 106, "until": 315.76288233333327}, {"on": false, "note": 62, "velocity": 0, "until": 315.78424983333326}, {"on": true, "note": 57, "velocity": 106, "until": 315.8483523333332}, {"on": false, "note": 57, "velocity": 0, "until": 315.9124548333332}, {"on": true, "note": 59, "velocity": 106, "until": 315.9765573333332}, {"on": false, "note": 59, "velocity": 0, "until": 316.0406327833332}, {"on": true, "note": 60, "velocity": 106, "until": 316.16721478333324}, {"on": false, "note": 60, "velocity": 0, "until": 316.16721478333324}, {"on": true, "note": 59, "velocity": 106, "until": 316.2726997833333}, {"on": false, "note": 59, "velocity": 0, "until": 316.29402352499994}, {"on": true, "note": 60, "velocity": 106, "until": 316.36411677499996}, {"on": false, "note": 60, "velocity": 0, "until": 316.43421002499997}, {"on": true, "note": 62, "velocity": 106, "until": 316.504303275}, {"on": false, "note": 62, "velocity": 0, "until": 316.5742724666667}, {"on": true, "note": 59, "velocity": 106, "until": 316.70701546666686}, {"on": false, "note": 59, "velocity": 0, "until": 316.70701546666686}, {"on": true, "note": 62, "velocity": 106, "until": 316.83975846666704}, {"on": false, "note": 62, "velocity": 0, "until": 316.83975846666704}, {"on": true, "note": 67, "velocity": 106, "until": 316.90612996666715}, {"on": false, "note": 67, "velocity": 0, "until": 316.97250146666727}, {"on": true, "note": 62, "velocity": 106, "until": 317.0388729666673}, {"on": false, "note": 62, "velocity": 0, "until": 317.10511541666733}, {"on": true, "note": 67, "velocity": 106, "until": 317.23011541666745}, {"on": false, "note": 67, "velocity": 0, "until": 317.23011541666745}, {"on": true, "note": 62, "velocity": 106, "until": 317.3551154166675}, {"on": false, "note": 62, "velocity": 0, "until": 317.3551154166675}, {"on": true, "note": 67, "velocity": 106, "until": 317.4176154166676}, {"on": false, "note": 67, "velocity": 0, "until": 317.4801154166676}, {"on": true, "note": 62, "velocity": 106, "until": 317.54261541666773}, {"on": false, "note": 62, "velocity": 0, "until": 317.60520599166773}, {"on": true, "note": 60, "velocity": 106, "until": 317.7356404916678}, {"on": false, "note": 60, "velocity": 0, "until": 317.7356404916678}, {"on": true, "note": 62, "velocity": 106, "until": 317.86607499166786}, {"on": false, "note": 62, "velocity": 0, "until": 317.86607499166786}, {"on": true, "note": 69, "velocity": 106, "until": 317.93129224166796}, {"on": false, "note": 69, "velocity": 0, "until": 317.996509491668}, {"on": true, "note": 62, "velocity": 106, "until": 318.06172674166805}, {"on": false, "note": 62, "velocity": 0, "until": 318.1268534166681}, {"on": true, "note": 69, "velocity": 106, "until": 318.25185341666815}, {"on": false, "note": 69, "velocity": 0, "until": 318.25185341666815}, {"on": true, "note": 62, "velocity": 106, "until": 318.37685341666815}, {"on": false, "note": 62, "velocity": 0, "until": 318.37685341666815}, {"on": true, "note": 69, "velocity": 106, "until": 318.4393534166682}, {"on": false, "note": 69, "velocity": 0, "until": 318.5018534166682}, {"on": true, "note": 62, "velocity": 106, "until": 318.5643534166682}, {"on": false, "note": 62, "velocity": 0, "until": 318.6269439916682}, {"on": true, "note": 59, "velocity": 91, "until": 318.7573784916683}, {"on": false, "note": 59, "velocity": 0, "until": 318.7573784916683}, {"on": true, "note": 62, "velocity": 91, "until": 318.88781299166834}, {"on": false, "note": 62, "velocity": 0, "until": 318.88781299166834}, {"on": true, "note": 67, "velocity": 91, "until": 318.9530302416684}, {"on": false, "note": 67, "velocity": 0, "until": 319.01824749166843}, {"on": true, "note": 62, "velocity": 91, "until": 319.0834647416685}, {"on": false, "note": 62, "velocity": 0, "until": 319.1485914166685}, {"on": true, "note": 67, "velocity": 91, "until": 319.2735914166686}, {"on": false, "note": 67, "velocity": 0, "until": 319.2735914166686}, {"on": true, "note": 62, "velocity": 91, "until": 319.39859141666864}, {"on": false, "note": 62, "velocity": 0, "until": 319.39859141666864}, {"on": true, "note": 67, "velocity": 91, "until": 319.4610914166687}, {"on": false, "note": 67, "velocity": 0, "until": 319.5235914166687}, {"on": true, "note": 62, "velocity": 91, "until": 319.58609141666875}, {"on": false, "note": 62, "velocity": 0, "until": 319.64868199166875}, {"on": true, "note": 57, "velocity": 91, "until": 319.77911649166884}, {"on": false, "note": 57, "velocity": 0, "until": 319.77911649166884}, {"on": true, "note": 62, "velocity": 91, "until": 319.9095509916689}, {"on": false, "note": 62, "velocity": 0, "until": 319.9095509916689}, {"on": true, "note": 72, "velocity": 91, "until": 319.974768241669}, {"on": false, "note": 72, "velocity": 0, "until": 320.03998549166903}, {"on": true, "note": 62, "velocity": 91, "until": 320.1052027416691}, {"on": false, "note": 62, "velocity": 0, "until": 320.1703294166691}, {"on": true, "note": 72, "velocity": 91, "until": 320.2953294166692}, {"on": false, "note": 72, "velocity": 0, "until": 320.2953294166692}, {"on": true, "note": 62, "velocity": 91, "until": 320.42032941666923}, {"on": false, "note": 62, "velocity": 0, "until": 320.42032941666923}, {"on": true, "note": 72, "velocity": 91, "until": 320.4828294166693}, {"on": false, "note": 72, "velocity": 0, "until": 320.5453294166693}, {"on": true, "note": 62, "velocity": 91, "until": 320.6078294166693}, {"on": false, "note": 62, "velocity": 0, "until": 320.67041999166935}, {"on": true, "note": 55, "velocity": 106, "until": 320.80085449166944}, {"on": false, "note": 55, "velocity": 0, "until": 320.80085449166944}, {"on": true, "note": 67, "velocity": 106, "until": 320.9312889916695}, {"on": false, "note": 67, "velocity": 0, "until": 320.9312889916695}, {"on": true, "note": 71, "velocity": 106, "until": 320.9965062416695}, {"on": false, "note": 71, "velocity": 0, "until": 321.06172349166957}, {"on": true, "note": 67, "velocity": 106, "until": 321.12694074166967}, {"on": false, "note": 67, "velocity": 0, "until": 321.1920674166697}, {"on": true, "note": 71, "velocity": 106, "until": 321.3170674166698}, {"on": false, "note": 71, "velocity": 0, "until": 321.3170674166698}, {"on": true, "note": 67, "velocity": 106, "until": 321.4420674166698}, {"on": false, "note": 67, "velocity": 0, "until": 321.4420674166698}, {"on": true, "note": 71, "velocity": 106, "until": 321.50456741666983}, {"on": false, "note": 71, "velocity": 0, "until": 321.56706741666983}, {"on": true, "note": 67, "velocity": 106, "until": 321.6295674166699}, {"on": false, "note": 67, "velocity": 0, "until": 321.6921579916699}, {"on": true, "note": 60, "velocity": 106, "until": 321.82259249167}, {"on": false, "note": 60, "velocity": 0, "until": 321.82259249167}, {"on": true, "note": 62, "velocity": 106, "until": 321.95302699167}, {"on": false, "note": 62, "velocity": 0, "until": 321.95302699167}, {"on": true, "note": 69, "velocity": 106, "until": 322.0182442416701}, {"on": false, "note": 69, "velocity": 0, "until": 322.08346149167016}, {"on": true, "note": 62, "velocity": 106, "until": 322.1486787416702}, {"on": false, "note": 62, "velocity": 0, "until": 322.21380541667025}, {"on": true, "note": 69, "velocity": 106, "until": 322.3388054166703}, {"on": false, "note": 69, "velocity": 0, "until": 322.3388054166703}, {"on": true, "note": 62, "velocity": 106, "until": 322.4638054166703}, {"on": false, "note": 62, "velocity": 0, "until": 322.4638054166703}, {"on": true, "note": 69, "velocity": 106, "until": 322.52630541667037}, {"on": false, "note": 69, "velocity": 0, "until": 322.58880541667037}, {"on": true, "note": 62, "velocity": 106, "until": 322.65130541667037}, {"on": false, "note": 62, "velocity": 0, "until": 322.713858833337}, {"on": true, "note": 59, "velocity": 91, "until": 322.8420638333369}, {"on": false, "note": 59, "velocity": 0, "until": 322.8420638333369}, {"on": true, "note": 62, "velocity": 91, "until": 322.9702688333369}, {"on": false, "note": 62, "velocity": 0, "until": 322.9702688333369}, {"on": true, "note": 67, "velocity": 91, "until": 323.0343713333369}, {"on": false, "note": 67, "velocity": 0, "until": 323.09847383333687}, {"on": true, "note": 62, "velocity": 91, "until": 323.16257633333686}, {"on": false, "note": 62, "velocity": 0, "until": 323.2265828916702}, {"on": true, "note": 67, "velocity": 91, "until": 323.3490313916702}, {"on": false, "note": 67, "velocity": 0, "until": 323.3490313916702}, {"on": true, "note": 62, "velocity": 91, "until": 323.47147989167024}, {"on": false, "note": 62, "velocity": 0, "until": 323.47147989167024}, {"on": true, "note": 67, "velocity": 91, "until": 323.53270414167025}, {"on": false, "note": 67, "velocity": 0, "until": 323.59392839167026}, {"on": true, "note": 62, "velocity": 91, "until": 323.65515264167027}, {"on": false, "note": 62, "velocity": 0, "until": 323.7164728333369}, {"on": true, "note": 57, "velocity": 91, "until": 323.84467783333685}, {"on": false, "note": 57, "velocity": 0, "until": 323.84467783333685}, {"on": true, "note": 62, "velocity": 91, "until": 323.9728828333368}, {"on": false, "note": 62, "velocity": 0, "until": 323.9728828333368}, {"on": true, "note": 72, "velocity": 91, "until": 324.03698533333676}, {"on": false, "note": 72, "velocity": 0, "until": 324.10108783333675}, {"on": true, "note": 62, "velocity": 91, "until": 324.16519033333674}, {"on": false, "note": 62, "velocity": 0, "until": 324.22919689167003}, {"on": true, "note": 72, "velocity": 91, "until": 324.35164539167005}, {"on": false, "note": 72, "velocity": 0, "until": 324.35164539167005}, {"on": true, "note": 62, "velocity": 91, "until": 324.47409389167007}, {"on": false, "note": 62, "velocity": 0, "until": 324.47409389167007}, {"on": true, "note": 72, "velocity": 91, "until": 324.5353181416701}, {"on": false, "note": 72, "velocity": 0, "until": 324.5965423916701}, {"on": true, "note": 62, "velocity": 91, "until": 324.6577666416701}, {"on": false, "note": 62, "velocity": 0, "until": 324.71908683333675}, {"on": true, "note": 71, "velocity": 106, "until": 324.71908683333675}, {"on": true, "note": 62, "velocity": 106, "until": 324.97549683333665}, {"on": false, "note": 62, "velocity": 0, "until": 324.97549683333665}, {"on": false, "note": 71, "velocity": 0, "until": 325.2317621083366}, {"on": true, "note": 62, "velocity": 106, "until": 325.2317621083366}, {"on": true, "note": 64, "velocity": 106, "until": 325.35128360833653}, {"on": false, "note": 64, "velocity": 0, "until": 325.35128360833653}, {"on": false, "note": 62, "velocity": 0, "until": 325.4708051083365}, {"on": true, "note": 62, "velocity": 106, "until": 325.4708051083365}, {"on": true, "note": 64, "velocity": 106, "until": 325.5903266083364}, {"on": false, "note": 64, "velocity": 0, "until": 325.5903266083364}, {"on": false, "note": 62, "velocity": 0, "until": 325.7099394166697}, {"on": true, "note": 64, "velocity": 106, "until": 325.7099394166697}, {"on": true, "note": 60, "velocity": 106, "until": 325.9599394166698}, {"on": false, "note": 60, "velocity": 0, "until": 325.9599394166698}, {"on": false, "note": 64, "velocity": 0, "until": 326.20982458333646}, {"on": true, "note": 62, "velocity": 106, "until": 326.20982458333646}, {"on": true, "note": 55, "velocity": 106, "until": 326.3279345833363}, {"on": false, "note": 55, "velocity": 0, "until": 326.3279345833363}, {"on": false, "note": 62, "velocity": 0, "until": 326.44604458333623}, {"on": true, "note": 62, "velocity": 106, "until": 326.44604458333623}, {"on": true, "note": 55, "velocity": 106, "until": 326.56415458333606}, {"on": false, "note": 55, "velocity": 0, "until": 326.56415458333606}, {"on": false, "note": 62, "velocity": 0, "until": 326.6823536916694}, {"on": true, "note": 55, "velocity": 106, "until": 326.6823536916694}, {"on": true, "note": 64, "velocity": 106, "until": 326.92970908333615}, {"on": false, "note": 64, "velocity": 0, "until": 326.92970908333615}, {"on": false, "note": 55, "velocity": 0, "until": 328.22015589166944}, {"on": true, "note": 64, "velocity": 106, "until": 328.3405635833361}, {"on": false, "note": 64, "velocity": 0, "until": 328.4650528916695}, {"on": true, "note": 64, "velocity": 106, "until": 328.58546058333616}, {"on": false, "note": 64, "velocity": 0, "until": 328.71004583333615}, {"on": true, "note": 56, "velocity": 106, "until": 329.22276989166966}, {"on": false, "note": 56, "velocity": 0, "until": 329.22276989166966}, {"on": true, "note": 57, "velocity": 106, "until": 329.46766689166964}, {"on": false, "note": 57, "velocity": 0, "until": 329.46766689166964}, {"on": true, "note": 59, "velocity": 106, "until": 329.6921558083363}, {"on": false, "note": 59, "velocity": 0, "until": 329.7126417250029}, {"on": true, "note": 62, "velocity": 106, "until": 329.9668787250029}, {"on": false, "note": 62, "velocity": 0, "until": 329.9668787250029}, {"on": true, "note": 60, "velocity": 106, "until": 330.22100510833627}, {"on": false, "note": 60, "velocity": 0, "until": 330.22100510833627}, {"on": true, "note": 63, "velocity": 106, "until": 330.4619681083363}, {"on": false, "note": 63, "velocity": 0, "until": 330.4619681083363}, {"on": true, "note": 64, "velocity": 106, "until": 330.6828508583363}, {"on": false, "note": 64, "velocity": 0, "until": 330.7030239166696}, {"on": true, "note": 59, "velocity": 106, "until": 330.9551239166697}, {"on": false, "note": 59, "velocity": 0, "until": 331.6930431333365}, {"on": true, "note": 60, "velocity": 91, "until": 331.81856613333645}, {"on": false, "note": 60, "velocity": 0, "until": 332.67898776666976}, {"on": true, "note": 59, "velocity": 106, "until": 332.9279497666694}, {"on": false, "note": 59, "velocity": 0, "until": 333.17680558333603}, {"on": true, "note": 62, "velocity": 106, "until": 333.17680558333603}, {"on": true, "note": 64, "velocity": 106, "until": 333.29491558333586}, {"on": false, "note": 64, "velocity": 0, "until": 333.29491558333586}, {"on": false, "note": 62, "velocity": 0, "until": 333.4130255833358}, {"on": true, "note": 64, "velocity": 106, "until": 333.4130255833358}, {"on": true, "note": 62, "velocity": 106, "until": 333.53113558333564}, {"on": false, "note": 62, "velocity": 0, "until": 333.53113558333564}, {"on": false, "note": 64, "velocity": 0, "until": 333.64932625833563}, {"on": true, "note": 60, "velocity": 106, "until": 333.64932625833563}, {"on": true, "note": 64, "velocity": 106, "until": 333.8952272583357}, {"on": false, "note": 64, "velocity": 0, "until": 333.8952272583357}, {"on": false, "note": 60, "velocity": 0, "until": 334.14103220833573}, {"on": true, "note": 55, "velocity": 106, "until": 334.14103220833573}, {"on": true, "note": 62, "velocity": 106, "until": 334.25821970833573}, {"on": false, "note": 62, "velocity": 0, "until": 334.25821970833573}, {"on": false, "note": 55, "velocity": 0, "until": 334.37540720833573}, {"on": true, "note": 62, "velocity": 106, "until": 334.37540720833573}, {"on": true, "note": 55, "velocity": 106, "until": 334.49259470833573}, {"on": false, "note": 55, "velocity": 0, "until": 334.49259470833573}, {"on": false, "note": 62, "velocity": 0, "until": 334.6098533666691}, {"on": true, "note": 64, "velocity": 106, "until": 334.6098533666691}, {"on": true, "note": 60, "velocity": 106, "until": 334.8532430833358}, {"on": false, "note": 60, "velocity": 0, "until": 334.8532430833358}, {"on": false, "note": 64, "velocity": 0, "until": 336.10001747500246}, {"on": true, "note": 60, "velocity": 106, "until": 336.2145209750025}, {"on": false, "note": 60, "velocity": 0, "until": 336.3290244750025}, {"on": true, "note": 60, "velocity": 106, "until": 336.4435279750025}, {"on": false, "note": 60, "velocity": 0, "until": 336.5581473666692}, {"on": true, "note": 70, "velocity": 106, "until": 337.50198936666925}, {"on": false, "note": 70, "velocity": 0, "until": 337.50198936666925}, {"on": true, "note": 69, "velocity": 106, "until": 337.9675745333359}, {"on": false, "note": 69, "velocity": 0, "until": 337.98770147500255}, {"on": true, "note": 76, "velocity": 106, "until": 337.98770147500255}, {"on": true, "note": 67, "velocity": 106, "until": 338.168998683336}, {"on": false, "note": 67, "velocity": 0, "until": 338.168998683336}, {"on": false, "note": 76, "velocity": 0, "until": 338.21670847500275}, {"on": true, "note": 76, "velocity": 106, "until": 338.21670847500275}, {"on": true, "note": 67, "velocity": 106, "until": 338.3980056833362}, {"on": false, "note": 67, "velocity": 0, "until": 338.3980056833362}, {"on": false, "note": 76, "velocity": 0, "until": 338.4458313666696}, {"on": true, "note": 71, "velocity": 106, "until": 338.4458313666696}, {"on": true, "note": 79, "velocity": 106, "until": 338.93179025000364}, {"on": false, "note": 79, "velocity": 0, "until": 338.93179025000364}, {"on": false, "note": 71, "velocity": 0, "until": 339.4210483666704}, {"on": true, "note": 72, "velocity": 106, "until": 339.6639623666704}, {"on": false, "note": 72, "velocity": 0, "until": 340.37746436667044}, {"on": true, "note": 71, "velocity": 106, "until": 340.6203783666704}, {"on": false, "note": 71, "velocity": 0, "until": 341.33388036667054}, {"on": true, "note": 68, "velocity": 106, "until": 342.2902963666708}, {"on": false, "note": 68, "velocity": 0, "until": 342.2902963666708}, {"on": true, "note": 69, "velocity": 106, "until": 342.53321036667086}, {"on": false, "note": 69, "velocity": 0, "until": 343.2467123666709}, {"on": true, "note": 60, "velocity": 106, "until": 343.368169366671}, {"on": false, "note": 60, "velocity": 0, "until": 344.2031283666709}, {"on": true, "note": 59, "velocity": 106, "until": 344.4460423666709}, {"on": false, "note": 59, "velocity": 0, "until": 345.1595443666708}, {"on": true, "note": 68, "velocity": 106, "until": 346.11596036667106}, {"on": false, "note": 68, "velocity": 0, "until": 346.11596036667106}, {"on": true, "note": 69, "velocity": 106, "until": 346.3588743666711}, {"on": false, "note": 69, "velocity": 0, "until": 347.07237636667116}, {"on": true, "note": 60, "velocity": 106, "until": 347.3152903666712}, {"on": false, "note": 60, "velocity": 0, "until": 348.02879236667115}, {"on": true, "note": 59, "velocity": 106, "until": 348.2719651833378}, {"on": false, "note": 59, "velocity": 0, "until": 349.00542408333786}, {"on": true, "note": 62, "velocity": 106, "until": 349.00542408333786}, {"on": true, "note": 69, "velocity": 106, "until": 349.00542408333786}, {"on": true, "note": 78, "velocity": 106, "until": 349.2454240833379}, {"on": false, "note": 78, "velocity": 0, "until": 349.2454240833379}, {"on": false, "note": 69, "velocity": 0, "until": 349.2454240833379}, {"on": false, "note": 62, "velocity": 0, "until": 349.94346236667144}, {"on": true, "note": 79, "velocity": 106, "until": 349.94346236667144}, {"on": true, "note": 71, "velocity": 106, "until": 349.94346236667144}, {"on": true, "note": 62, "velocity": 106, "until": 350.18637636667154}, {"on": false, "note": 62, "velocity": 0, "until": 350.18637636667154}, {"on": false, "note": 71, "velocity": 0, "until": 350.18637636667154}, {"on": false, "note": 79, "velocity": 0, "until": 350.8873043666718}, {"on": true, "note": 69, "velocity": 106, "until": 350.8873043666718}, {"on": true, "note": 62, "velocity": 106, "until": 350.8873043666718}, {"on": true, "note": 78, "velocity": 106, "until": 351.13021836667184}, {"on": false, "note": 78, "velocity": 0, "until": 351.13021836667184}, {"on": false, "note": 62, "velocity": 0, "until": 351.13021836667184}, {"on": false, "note": 69, "velocity": 0, "until": 351.83110620833867}, {"on": true, "note": 71, "velocity": 106, "until": 351.83110620833867}, {"on": true, "note": 79, "velocity": 106, "until": 351.83110620833867}, {"on": true, "note": 55, "velocity": 106, "until": 351.83110620833867}, {"on": true, "note": 62, "velocity": 106, "until": 352.07007422500527}, {"on": false, "note": 62, "velocity": 0, "until": 352.07007422500527}, {"on": false, "note": 71, "velocity": 0, "until": 352.07007422500527}, {"on": false, "note": 79, "velocity": 0, "until": 352.07007422500527}, {"on": false, "note": 55, "velocity": 0, "until": 360.96514015834}, {"on": true, "note": 57, "velocity": 106, "until": 361.14783228334}, {"on": false, "note": 57, "velocity": 0, "until": 361.19590915834}, {"on": true, "note": 57, "velocity": 106, "until": 361.39783203334}, {"on": false, "note": 57, "velocity": 0, "until": 361.4267958916734}, {"on": true, "note": 67, "velocity": 106, "until": 361.8961818083401}, {"on": false, "note": 67, "velocity": 0, "until": 361.91647215834007}, {"on": true, "note": 67, "velocity": 106, "until": 362.02224128334007}, {"on": false, "note": 67, "velocity": 0, "until": 362.0318566583401}, {"on": true, "note": 65, "velocity": 106, "until": 362.13762578334007}, {"on": false, "note": 65, "velocity": 0, "until": 362.1472411583401}, {"on": true, "note": 64, "velocity": 106, "until": 362.2530102833401}, {"on": false, "note": 64, "velocity": 0, "until": 362.2626256583401}, {"on": true, "note": 62, "velocity": 106, "until": 362.3683947833401}, {"on": false, "note": 62, "velocity": 0, "until": 362.37812789167344}, {"on": true, "note": 61, "velocity": 106, "until": 362.8475138083401}, {"on": false, "note": 61, "velocity": 0, "until": 362.8678041583401}, {"on": true, "note": 61, "velocity": 106, "until": 363.05049628334007}, {"on": false, "note": 61, "velocity": 0, "until": 363.09857315834006}, {"on": true, "note": 61, "velocity": 106, "until": 363.3004960333401}, {"on": false, "note": 61, "velocity": 0, "until": 363.3294598916735}, {"on": true, "note": 70, "velocity": 106, "until": 363.79884580834016}, {"on": false, "note": 70, "velocity": 0, "until": 363.81913615834014}, {"on": true, "note": 70, "velocity": 106, "until": 363.92490528334014}, {"on": false, "note": 70, "velocity": 0, "until": 363.93452065834015}, {"on": true, "note": 69, "velocity": 106, "until": 364.04028978334014}, {"on": false, "note": 69, "velocity": 0, "until": 364.04990515834015}, {"on": true, "note": 67, "velocity": 106, "until": 364.15567428334015}, {"on": false, "note": 67, "velocity": 0, "until": 364.16528965834016}, {"on": true, "note": 65, "velocity": 106, "until": 364.27105878334015}, {"on": false, "note": 65, "velocity": 0, "until": 364.2807918916735}, {"on": true, "note": 64, "velocity": 106, "until": 364.7501778083402}, {"on": false, "note": 64, "velocity": 0, "until": 364.7704681583402}, {"on": true, "note": 64, "velocity": 106, "until": 364.95316028334014}, {"on": false, "note": 64, "velocity": 0, "until": 365.00123715834013}, {"on": true, "note": 64, "velocity": 106, "until": 365.20316003334017}, {"on": false, "note": 64, "velocity": 0, "until": 365.23212389167355}, {"on": true, "note": 76, "velocity": 106, "until": 365.70150980834023}, {"on": false, "note": 76, "velocity": 0, "until": 365.7218001583402}, {"on": true, "note": 76, "velocity": 106, "until": 365.8275692833402}, {"on": false, "note": 76, "velocity": 0, "until": 365.8371846583402}, {"on": true, "note": 74, "velocity": 106, "until": 365.9429537833402}, {"on": false, "note": 74, "velocity": 0, "until": 365.9525691583402}, {"on": true, "note": 73, "velocity": 106, "until": 366.0583382833402}, {"on": false, "note": 73, "velocity": 0, "until": 366.06795365834023}, {"on": true, "note": 70, "velocity": 106, "until": 366.1737227833402}, {"on": false, "note": 70, "velocity": 0, "until": 366.1834558916736}, {"on": true, "note": 69, "velocity": 106, "until": 366.42835289167357}, {"on": false, "note": 69, "velocity": 0, "until": 366.6731321583402}, {"on": true, "note": 67, "velocity": 106, "until": 366.90390115834015}, {"on": false, "note": 67, "velocity": 0, "until": 367.13478789167345}, {"on": true, "note": 64, "velocity": 106, "until": 367.37968489167343}, {"on": false, "note": 64, "velocity": 0, "until": 367.62446415834006}, {"on": true, "note": 61, "velocity": 106, "until": 367.85523315834}, {"on": false, "note": 61, "velocity": 0, "until": 368.08629146667334}, {"on": true, "note": 57, "velocity": 106, "until": 368.3516058916734}, {"on": false, "note": 57, "velocity": 0, "until": 375.0271238916736}, {"on": true, "note": 67, "velocity": 106, "until": 375.14957239167364}, {"on": false, "note": 67, "velocity": 0, "until": 375.2719031583403}, {"on": true, "note": 65, "velocity": 106, "until": 375.3872876583403}, {"on": false, "note": 65, "velocity": 0, "until": 375.5026721583403}, {"on": true, "note": 63, "velocity": 106, "until": 375.6180566583403}, {"on": false, "note": 63, "velocity": 0, "until": 375.7335588916737}, {"on": true, "note": 62, "velocity": 106, "until": 375.9784558916737}, {"on": false, "note": 62, "velocity": 0, "until": 376.9297878916738}, {"on": true, "note": 59, "velocity": 106, "until": 377.05223639167383}, {"on": false, "note": 59, "velocity": 0, "until": 377.1745671583405}, {"on": true, "note": 60, "velocity": 106, "until": 377.2899516583405}, {"on": false, "note": 60, "velocity": 0, "until": 377.4053361583405}, {"on": true, "note": 64, "velocity": 106, "until": 377.5207206583405}, {"on": false, "note": 64, "velocity": 0, "until": 377.63622289167387}, {"on": true, "note": 65, "velocity": 106, "until": 378.3566681583406}, {"on": false, "note": 65, "velocity": 0, "until": 378.3566681583406}, {"on": true, "note": 60, "velocity": 106, "until": 378.5682064083406}, {"on": false, "note": 60, "velocity": 0, "until": 378.5875548916739}, {"on": true, "note": 61, "velocity": 106, "until": 379.30800015834063}, {"on": false, "note": 61, "velocity": 0, "until": 379.30800015834063}, {"on": true, "note": 64, "velocity": 106, "until": 379.5195384083406}, {"on": false, "note": 64, "velocity": 0, "until": 379.53888689167394}, {"on": true, "note": 65, "velocity": 106, "until": 380.4920092583407}, {"on": false, "note": 65, "velocity": 0, "until": 380.4920092583407}, {"on": true, "note": 64, "velocity": 106, "until": 381.4525696916743}, {"on": false, "note": 64, "velocity": 0, "until": 381.4525696916743}, {"on": true, "note": 65, "velocity": 106, "until": 381.69948269167435}, {"on": false, "note": 65, "velocity": 0, "until": 382.41699219167447}, {"on": true, "note": 66, "velocity": 106, "until": 382.66492519167446}, {"on": false, "note": 66, "velocity": 0, "until": 383.3834547666745}, {"on": true, "note": 67, "velocity": 106, "until": 383.63241676667434}, {"on": false, "note": 67, "velocity": 0, "until": 384.35020000000753}, {"on": true, "note": 67, "velocity": 106, "until": 384.6077100000076}, {"on": false, "note": 67, "velocity": 0, "until": 385.3490992500077}, {"on": true, "note": 68, "velocity": 106, "until": 385.6077192500078}, {"on": false, "note": 68, "velocity": 0, "until": 386.3541248333412}, {"on": true, "note": 62, "velocity": 106, "until": 386.6105348333411}, {"on": false, "note": 62, "velocity": 0, "until": 387.3567572500078}, {"on": true, "note": 62, "velocity": 106, "until": 387.61537725000784}, {"on": false, "note": 62, "velocity": 0, "until": 388.36989148334123}, {"on": true, "note": 62, "velocity": 106, "until": 388.63189948334133}, {"on": false, "note": 62, "velocity": 0, "until": 389.4001797416749}, {"on": true, "note": 62, "velocity": 106, "until": 389.6554987416749}, {"on": false, "note": 62, "velocity": 0, "until": 395.32495889167456}, {"on": true, "note": 70, "velocity": 106, "until": 395.4474073916746}, {"on": false, "note": 70, "velocity": 0, "until": 395.5698558916746}, {"on": true, "note": 70, "velocity": 106, "until": 395.6923043916746}, {"on": false, "note": 70, "velocity": 0, "until": 395.8146351583413}, {"on": true, "note": 70, "velocity": 106, "until": 395.9300196583413}, {"on": false, "note": 70, "velocity": 0, "until": 396.0454041583412}, {"on": true, "note": 70, "velocity": 106, "until": 396.16078865834123}, {"on": false, "note": 70, "velocity": 0, "until": 396.2762908916746}, {"on": true, "note": 70, "velocity": 106, "until": 396.3987393916746}, {"on": false, "note": 70, "velocity": 0, "until": 396.52118789167463}, {"on": true, "note": 70, "velocity": 106, "until": 396.64363639167465}, {"on": false, "note": 70, "velocity": 0, "until": 396.7659671583413}, {"on": true, "note": 70, "velocity": 106, "until": 396.8813516583413}, {"on": false, "note": 70, "velocity": 0, "until": 396.99673615834126}, {"on": true, "note": 70, "velocity": 106, "until": 397.11212065834127}, {"on": false, "note": 70, "velocity": 0, "until": 397.22762289167457}, {"on": true, "note": 70, "velocity": 106, "until": 397.3500713916746}, {"on": false, "note": 70, "velocity": 0, "until": 397.4725198916746}, {"on": true, "note": 70, "velocity": 106, "until": 397.5949683916746}, {"on": false, "note": 70, "velocity": 0, "until": 397.7172991583413}, {"on": true, "note": 70, "velocity": 106, "until": 397.83268365834124}, {"on": false, "note": 70, "velocity": 0, "until": 397.94806815834124}, {"on": true, "note": 70, "velocity": 106, "until": 398.06345265834125}, {"on": false, "note": 70, "velocity": 0, "until": 398.17895489167455}, {"on": true, "note": 70, "velocity": 106, "until": 398.30140339167457}, {"on": false, "note": 70, "velocity": 0, "until": 398.4238518916746}, {"on": true, "note": 70, "velocity": 106, "until": 398.5463003916746}, {"on": false, "note": 70, "velocity": 0, "until": 398.66863115834127}, {"on": true, "note": 70, "velocity": 106, "until": 398.7840156583413}, {"on": false, "note": 70, "velocity": 0, "until": 398.8994001583413}, {"on": true, "note": 70, "velocity": 106, "until": 399.0147846583412}, {"on": false, "note": 70, "velocity": 0, "until": 399.1302868916746}, {"on": true, "note": 70, "velocity": 106, "until": 399.2527353916746}, {"on": false, "note": 70, "velocity": 0, "until": 399.3751838916746}, {"on": true, "note": 70, "velocity": 106, "until": 399.49763239167464}, {"on": false, "note": 70, "velocity": 0, "until": 399.6199631583413}, {"on": true, "note": 70, "velocity": 106, "until": 399.7353476583413}, {"on": false, "note": 70, "velocity": 0, "until": 399.85073215834126}, {"on": true, "note": 70, "velocity": 106, "until": 399.96611665834126}, {"on": false, "note": 70, "velocity": 0, "until": 400.0816188916746}, {"on": true, "note": 70, "velocity": 106, "until": 400.20406739167464}, {"on": false, "note": 70, "velocity": 0, "until": 400.32651589167466}, {"on": true, "note": 70, "velocity": 106, "until": 400.4489643916747}, {"on": false, "note": 70, "velocity": 0, "until": 400.57129515834134}, {"on": true, "note": 70, "velocity": 106, "until": 400.68667965834135}, {"on": false, "note": 70, "velocity": 0, "until": 400.8020641583413}, {"on": true, "note": 70, "velocity": 106, "until": 400.9174486583413}, {"on": false, "note": 70, "velocity": 0, "until": 401.0329508916746}, {"on": true, "note": 70, "velocity": 106, "until": 401.1553993916746}, {"on": false, "note": 70, "velocity": 0, "until": 401.27784789167464}, {"on": true, "note": 70, "velocity": 106, "until": 401.40029639167466}, {"on": false, "note": 70, "velocity": 0, "until": 401.5226271583413}, {"on": true, "note": 70, "velocity": 106, "until": 401.63801165834127}, {"on": false, "note": 70, "velocity": 0, "until": 401.7533961583413}, {"on": true, "note": 70, "velocity": 106, "until": 401.8687806583412}, {"on": false, "note": 70, "velocity": 0, "until": 401.9842828916745}, {"on": true, "note": 70, "velocity": 106, "until": 402.10673139167454}, {"on": false, "note": 70, "velocity": 0, "until": 402.22917989167456}, {"on": true, "note": 70, "velocity": 106, "until": 402.3516283916746}, {"on": false, "note": 70, "velocity": 0, "until": 402.47395915834124}, {"on": true, "note": 70, "velocity": 106, "until": 402.5893436583412}, {"on": false, "note": 70, "velocity": 0, "until": 402.7047281583412}, {"on": true, "note": 70, "velocity": 106, "until": 402.82011265834115}, {"on": false, "note": 70, "velocity": 0, "until": 402.9356148916745}, {"on": true, "note": 65, "velocity": 106, "until": 403.42537610834114}, {"on": false, "note": 65, "velocity": 0, "until": 403.42537610834114}, {"on": true, "note": 64, "velocity": 106, "until": 403.66633910834116}, {"on": false, "note": 64, "velocity": 0, "until": 403.66633910834116}, {"on": true, "note": 65, "velocity": 106, "until": 403.7868206083412}, {"on": false, "note": 65, "velocity": 0, "until": 403.7868206083412}, {"on": true, "note": 67, "velocity": 106, "until": 403.9073348916745}, {"on": false, "note": 67, "velocity": 0, "until": 403.9073348916745}, {"on": true, "note": 68, "velocity": 106, "until": 404.15223189167455}, {"on": false, "note": 68, "velocity": 0, "until": 404.88100725834124}, {"on": true, "note": 60, "velocity": 106, "until": 405.3727843666747}, {"on": false, "note": 60, "velocity": 0, "until": 405.3727843666747}, {"on": true, "note": 59, "velocity": 106, "until": 405.6156983666747}, {"on": false, "note": 59, "velocity": 0, "until": 405.6156983666747}, {"on": true, "note": 60, "velocity": 106, "until": 405.7371553666747}, {"on": false, "note": 60, "velocity": 0, "until": 405.7371553666747}, {"on": true, "note": 62, "velocity": 106, "until": 405.8383695333414}, {"on": false, "note": 62, "velocity": 0, "until": 405.8586456916747}, {"on": true, "note": 63, "velocity": 106, "until": 406.1055586916748}, {"on": false, "note": 63, "velocity": 0, "until": 406.8382663666749}, {"on": true, "note": 75, "velocity": 63, "until": 406.95972336667495}, {"on": false, "note": 75, "velocity": 0, "until": 407.08118036667497}, {"on": true, "note": 75, "velocity": 51, "until": 407.20263736667505}, {"on": false, "note": 75, "velocity": 0, "until": 407.809938891675}, {"on": true, "note": 67, "velocity": 63, "until": 407.93238739167504}, {"on": false, "note": 67, "velocity": 0, "until": 408.05483589167505}, {"on": true, "note": 67, "velocity": 51, "until": 408.1772843916751}, {"on": false, "note": 67, "velocity": 0, "until": 408.7895607666751}, {"on": true, "note": 67, "velocity": 63, "until": 408.91404176667504}, {"on": false, "note": 67, "velocity": 0, "until": 409.038522766675}, {"on": true, "note": 67, "velocity": 51, "until": 409.16300376667493}, {"on": false, "note": 67, "velocity": 0, "until": 409.78544378334146}, {"on": true, "note": 63, "velocity": 78, "until": 409.9120257833415}, {"on": false, "note": 63, "velocity": 0, "until": 410.03860778334155}, {"on": true, "note": 63, "velocity": 63, "until": 410.1651897833416}, {"on": false, "note": 63, "velocity": 0, "until": 410.7981360000083}, {"on": true, "note": 63, "velocity": 78, "until": 410.92689100000837}, {"on": false, "note": 63, "velocity": 0, "until": 411.05564600000844}, {"on": true, "note": 63, "velocity": 63, "until": 411.18440100000856}, {"on": false, "note": 63, "velocity": 0, "until": 411.8282039916754}, {"on": true, "note": 63, "velocity": 78, "until": 411.9586384916755}, {"on": false, "note": 63, "velocity": 0, "until": 412.0890729916756}, {"on": true, "note": 63, "velocity": 63, "until": 412.21950749167564}, {"on": false, "note": 63, "velocity": 0, "until": 412.8717283000092}, {"on": true, "note": 61, "velocity": 78, "until": 413.0050613000092}, {"on": false, "note": 61, "velocity": 0, "until": 413.13839430000917}, {"on": true, "note": 61, "velocity": 63, "until": 413.27172730000916}, {"on": false, "note": 61, "velocity": 0, "until": 413.9384428083425}, {"on": true, "note": 60, "velocity": 78, "until": 414.07480630834254}, {"on": false, "note": 60, "velocity": 0, "until": 414.2111698083427}, {"on": true, "note": 60, "velocity": 63, "until": 414.34753330834275}, {"on": false, "note": 60, "velocity": 0, "until": 415.0294036583429}, {"on": true, "note": 60, "velocity": 78, "until": 415.1689381583428}, {"on": false, "note": 60, "velocity": 0, "until": 415.30847265834274}, {"on": true, "note": 60, "velocity": 63, "until": 415.44800715834265}, {"on": false, "note": 60, "velocity": 0, "until": 423.0267653916754}, {"on": true, "note": 55, "velocity": 106, "until": 423.12880580834207}, {"on": false, "note": 55, "velocity": 0, "until": 423.1492138916754}, {"on": true, "note": 57, "velocity": 106, "until": 423.2512543083421}, {"on": false, "note": 57, "velocity": 0, "until": 423.2716623916754}, {"on": true, "note": 59, "velocity": 106, "until": 423.3737028083421}, {"on": false, "note": 59, "velocity": 0, "until": 423.3939931583421}, {"on": true, "note": 60, "velocity": 106, "until": 423.49014690834196}, {"on": false, "note": 60, "velocity": 0, "until": 423.5093776583419}, {"on": true, "note": 62, "velocity": 106, "until": 423.6055314083418}, {"on": false, "note": 62, "velocity": 0, "until": 423.62476215834175}, {"on": true, "note": 64, "velocity": 106, "until": 423.7209159083416}, {"on": false, "note": 64, "velocity": 0, "until": 423.7401466583416}, {"on": true, "note": 65, "velocity": 106, "until": 423.83630040834146}, {"on": false, "note": 65, "velocity": 0, "until": 423.8556488916748}, {"on": true, "note": 67, "velocity": 106, "until": 424.3352388500081}, {"on": false, "note": 67, "velocity": 0, "until": 424.34532515834144}, {"on": true, "note": 66, "velocity": 106, "until": 424.5760941583414}, {"on": false, "note": 66, "velocity": 0, "until": 424.5760941583414}, {"on": true, "note": 67, "velocity": 106, "until": 424.69147865834134}, {"on": false, "note": 67, "velocity": 0, "until": 424.69147865834134}, {"on": true, "note": 69, "velocity": 106, "until": 424.80698089167464}, {"on": false, "note": 69, "velocity": 0, "until": 424.80698089167464}, {"on": true, "note": 67, "velocity": 106, "until": 425.2966571583413}, {"on": false, "note": 67, "velocity": 0, "until": 425.2966571583413}, {"on": true, "note": 67, "velocity": 106, "until": 425.41204165834125}, {"on": false, "note": 67, "velocity": 0, "until": 425.41204165834125}, {"on": true, "note": 69, "velocity": 106, "until": 425.52742615834126}, {"on": false, "note": 69, "velocity": 0, "until": 425.52742615834126}, {"on": true, "note": 71, "velocity": 106, "until": 425.64281065834126}, {"on": false, "note": 71, "velocity": 0, "until": 425.64281065834126}, {"on": true, "note": 72, "velocity": 106, "until": 425.7582720833413}, {"on": false, "note": 72, "velocity": 0, "until": 425.7582720833413}, {"on": true, "note": 76, "velocity": 106, "until": 425.7982720833413}, {"on": false, "note": 76, "velocity": 0, "until": 425.7982720833413}, {"on": true, "note": 74, "velocity": 106, "until": 425.89827208334134}, {"on": false, "note": 74, "velocity": 0, "until": 425.9982720833414}, {"on": true, "note": 73, "velocity": 106, "until": 426.1182720833415}, {"on": false, "note": 73, "velocity": 0, "until": 426.23827208334154}, {"on": true, "note": 76, "velocity": 106, "until": 426.27827208334156}, {"on": false, "note": 76, "velocity": 0, "until": 426.27827208334156}, {"on": true, "note": 74, "velocity": 106, "until": 426.3782720833415}, {"on": false, "note": 74, "velocity": 0, "until": 426.4782720833416}, {"on": true, "note": 73, "velocity": 106, "until": 426.59827208334167}, {"on": false, "note": 73, "velocity": 0, "until": 426.71827208334173}, {"on": true, "note": 74, "velocity": 106, "until": 427.1981951583418}, {"on": false, "note": 74, "velocity": 0, "until": 427.1981951583418}, {"on": true, "note": 67, "velocity": 106, "until": 427.4289641583418}, {"on": false, "note": 67, "velocity": 0, "until": 427.65985089167526}, {"on": true, "note": 67, "velocity": 106, "until": 428.1495271583419}, {"on": false, "note": 67, "velocity": 0, "until": 428.1495271583419}, {"on": true, "note": 66, "velocity": 106, "until": 428.3802961583419}, {"on": false, "note": 66, "velocity": 0, "until": 428.3802961583419}, {"on": true, "note": 67, "velocity": 106, "until": 428.4956806583418}, {"on": false, "note": 67, "velocity": 0, "until": 428.4956806583418}, {"on": true, "note": 69, "velocity": 106, "until": 428.6111828916751}, {"on": false, "note": 69, "velocity": 0, "until": 428.6111828916751}, {"on": true, "note": 67, "velocity": 106, "until": 429.21624365834174}, {"on": false, "note": 67, "velocity": 0, "until": 429.21624365834174}, {"on": true, "note": 69, "velocity": 106, "until": 429.3316281583417}, {"on": false, "note": 69, "velocity": 0, "until": 429.3316281583417}, {"on": true, "note": 71, "velocity": 106, "until": 429.44701265834163}, {"on": false, "note": 71, "velocity": 0, "until": 429.44701265834163}, {"on": true, "note": 72, "velocity": 106, "until": 429.5624425833416}, {"on": false, "note": 72, "velocity": 0, "until": 429.5624425833416}, {"on": true, "note": 76, "velocity": 106, "until": 429.6805525833415}, {"on": false, "note": 76, "velocity": 0, "until": 429.7986625833414}, {"on": true, "note": 81, "velocity": 106, "until": 429.7986625833414}, {"on": true, "note": 72, "velocity": 106, "until": 429.91677258334136}, {"on": false, "note": 72, "velocity": 0, "until": 429.91677258334136}, {"on": false, "note": 81, "velocity": 0, "until": 430.03488258334124}, {"on": true, "note": 71, "velocity": 106, "until": 430.03488258334124}, {"on": true, "note": 80, "velocity": 106, "until": 430.1529925833412}, {"on": false, "note": 80, "velocity": 0, "until": 430.1529925833412}, {"on": false, "note": 71, "velocity": 0, "until": 430.2711025833411}, {"on": true, "note": 81, "velocity": 106, "until": 430.2711025833411}, {"on": true, "note": 72, "velocity": 106, "until": 430.389212583341}, {"on": false, "note": 72, "velocity": 0, "until": 430.389212583341}, {"on": false, "note": 81, "velocity": 0, "until": 430.5073225833409}, {"on": true, "note": 71, "velocity": 106, "until": 430.5073225833409}, {"on": true, "note": 80, "velocity": 106, "until": 430.97971715833984}, {"on": false, "note": 80, "velocity": 0, "until": 430.97971715833984}, {"on": false, "note": 71, "velocity": 0, "until": 432.43971289167325}, {"on": true, "note": 57, "velocity": 106, "until": 432.50093714167326}, {"on": false, "note": 57, "velocity": 0, "until": 432.56216139167327}, {"on": true, "note": 59, "velocity": 106, "until": 432.6233856416733}, {"on": false, "note": 59, "velocity": 0, "until": 432.6846098916733}, {"on": true, "note": 61, "velocity": 106, "until": 432.7458341416733}, {"on": false, "note": 61, "velocity": 0, "until": 432.8070583916733}, {"on": true, "note": 62, "velocity": 106, "until": 432.8682826416733}, {"on": false, "note": 62, "velocity": 0, "until": 432.92938915834}, {"on": true, "note": 64, "velocity": 106, "until": 432.9870814083399}, {"on": false, "note": 64, "velocity": 0, "until": 433.04477365833986}, {"on": true, "note": 65, "velocity": 106, "until": 433.10246590833987}, {"on": false, "note": 65, "velocity": 0, "until": 433.1601581583398}, {"on": true, "note": 67, "velocity": 106, "until": 433.21785040833976}, {"on": false, "note": 67, "velocity": 0, "until": 433.27554265833976}, {"on": true, "note": 69, "velocity": 106, "until": 433.33323490833976}, {"on": false, "note": 69, "velocity": 0, "until": 433.39104489167306}, {"on": true, "note": 67, "velocity": 106, "until": 433.6359418916731}, {"on": false, "note": 67, "velocity": 0, "until": 434.34237689167315}, {"on": true, "note": 55, "velocity": 106, "until": 434.40360114167316}, {"on": false, "note": 55, "velocity": 0, "until": 434.4648253916732}, {"on": true, "note": 57, "velocity": 106, "until": 434.5260496416732}, {"on": false, "note": 57, "velocity": 0, "until": 434.5872738916732}, {"on": true, "note": 59, "velocity": 106, "until": 434.6484981416732}, {"on": false, "note": 59, "velocity": 0, "until": 434.7097223916732}, {"on": true, "note": 60, "velocity": 106, "until": 434.7709466416732}, {"on": false, "note": 60, "velocity": 0, "until": 434.8320531583399}, {"on": true, "note": 62, "velocity": 106, "until": 434.88974540833976}, {"on": false, "note": 62, "velocity": 0, "until": 434.9474376583397}, {"on": true, "note": 64, "velocity": 106, "until": 435.00512990833965}, {"on": false, "note": 64, "velocity": 0, "until": 435.06282215833954}, {"on": true, "note": 65, "velocity": 106, "until": 435.12051440833943}, {"on": false, "note": 65, "velocity": 0, "until": 435.1782066583394}, {"on": true, "note": 67, "velocity": 106, "until": 435.2358989083394}, {"on": false, "note": 67, "velocity": 0, "until": 435.2937088916727}, {"on": true, "note": 59, "velocity": 106, "until": 435.4161573916727}, {"on": false, "note": 59, "velocity": 0, "until": 435.5386058916727}, {"on": true, "note": 65, "velocity": 106, "until": 436.0141541583392}, {"on": false, "note": 65, "velocity": 0, "until": 436.0141541583392}, {"on": true, "note": 64, "velocity": 106, "until": 436.12953865833913}, {"on": false, "note": 64, "velocity": 0, "until": 436.12953865833913}, {"on": true, "note": 60, "velocity": 106, "until": 436.2256924083391}, {"on": false, "note": 60, "velocity": 0, "until": 436.2450408916725}, {"on": true, "note": 59, "velocity": 106, "until": 436.3674893916725}, {"on": false, "note": 59, "velocity": 0, "until": 436.4899378916725}, {"on": true, "note": 65, "velocity": 106, "until": 436.965486158339}, {"on": false, "note": 65, "velocity": 0, "until": 436.965486158339}, {"on": true, "note": 64, "velocity": 106, "until": 437.08087065833894}, {"on": false, "note": 64, "velocity": 0, "until": 437.08087065833894}, {"on": true, "note": 60, "velocity": 106, "until": 437.1770244083389}, {"on": false, "note": 60, "velocity": 0, "until": 437.1963728916723}, {"on": true, "note": 59, "velocity": 106, "until": 437.3188213916723}, {"on": false, "note": 59, "velocity": 0, "until": 437.44126989167233}, {"on": true, "note": 65, "velocity": 106, "until": 437.9168181583388}, {"on": false, "note": 65, "velocity": 0, "until": 437.9168181583388}, {"on": true, "note": 64, "velocity": 106, "until": 438.03220265833875}, {"on": false, "note": 64, "velocity": 0, "until": 438.03220265833875}, {"on": true, "note": 60, "velocity": 106, "until": 438.12835640833873}, {"on": false, "note": 60, "velocity": 0, "until": 438.1477048916721}, {"on": true, "note": 67, "velocity": 106, "until": 438.1477048916721}, {"on": true, "note": 59, "velocity": 106, "until": 438.39260189167214}, {"on": false, "note": 59, "velocity": 0, "until": 438.39260189167214}, {"on": false, "note": 67, "velocity": 0, "until": 442.7339701583384}, {"on": true, "note": 72, "velocity": 106, "until": 442.7339701583384}, {"on": true, "note": 67, "velocity": 106, "until": 442.84935465833837}, {"on": false, "note": 67, "velocity": 0, "until": 442.84935465833837}, {"on": false, "note": 72, "velocity": 0, "until": 442.9648160833383}, {"on": true, "note": 72, "velocity": 106, "until": 442.9648160833383}, {"on": true, "note": 65, "velocity": 106, "until": 443.08481608333835}, {"on": false, "note": 65, "velocity": 0, "until": 443.08481608333835}, {"on": false, "note": 72, "velocity": 0, "until": 443.2048160833384}, {"on": true, "note": 72, "velocity": 106, "until": 443.2048160833384}, {"on": true, "note": 67, "velocity": 106, "until": 443.3248160833385}, {"on": false, "note": 67, "velocity": 0, "until": 443.3248160833385}, {"on": false, "note": 72, "velocity": 0, "until": 443.44481608333854}, {"on": true, "note": 72, "velocity": 106, "until": 443.44481608333854}, {"on": true, "note": 65, "velocity": 106, "until": 443.5648160833386}, {"on": false, "note": 65, "velocity": 0, "until": 443.5648160833386}, {"on": false, "note": 72, "velocity": 0, "until": 443.68481608333866}, {"on": true, "note": 72, "velocity": 106, "until": 443.68481608333866}, {"on": true, "note": 67, "velocity": 106, "until": 443.8048160833387}, {"on": false, "note": 67, "velocity": 0, "until": 443.8048160833387}, {"on": false, "note": 72, "velocity": 0, "until": 443.9248160833388}, {"on": true, "note": 72, "velocity": 106, "until": 443.9248160833388}, {"on": true, "note": 65, "velocity": 106, "until": 444.4047391583397}, {"on": false, "note": 65, "velocity": 0, "until": 444.4047391583397}, {"on": false, "note": 72, "velocity": 0, "until": 446.5199701583391}, {"on": true, "note": 74, "velocity": 106, "until": 446.5199701583391}, {"on": true, "note": 83, "velocity": 106, "until": 446.63535465833905}, {"on": false, "note": 83, "velocity": 0, "until": 446.63535465833905}, {"on": false, "note": 74, "velocity": 0, "until": 446.75078458333894}, {"on": true, "note": 84, "velocity": 106, "until": 446.75078458333894}, {"on": true, "note": 76, "velocity": 106, "until": 446.86889458333883}, {"on": false, "note": 76, "velocity": 0, "until": 446.86889458333883}, {"on": false, "note": 84, "velocity": 0, "until": 446.9870045833387}, {"on": true, "note": 83, "velocity": 106, "until": 446.9870045833387}, {"on": true, "note": 74, "velocity": 106, "until": 447.1051145833386}, {"on": false, "note": 74, "velocity": 0, "until": 447.1051145833386}, {"on": false, "note": 83, "velocity": 0, "until": 447.2232245833385}, {"on": true, "note": 84, "velocity": 106, "until": 447.2232245833385}, {"on": true, "note": 76, "velocity": 106, "until": 447.3413345833384}, {"on": false, "note": 76, "velocity": 0, "until": 447.3413345833384}, {"on": false, "note": 84, "velocity": 0, "until": 447.45944458333827}, {"on": true, "note": 83, "velocity": 106, "until": 447.45944458333827}, {"on": true, "note": 74, "velocity": 106, "until": 447.57755458333816}, {"on": false, "note": 74, "velocity": 0, "until": 447.57755458333816}, {"on": false, "note": 83, "velocity": 0, "until": 447.69566458333804}, {"on": true, "note": 84, "velocity": 106, "until": 447.69566458333804}, {"on": true, "note": 76, "velocity": 106, "until": 447.93188458333793}, {"on": false, "note": 76, "velocity": 0, "until": 447.93188458333793}, {"on": false, "note": 84, "velocity": 0, "until": 448.1680591583378}, {"on": true, "note": 83, "velocity": 106, "until": 448.1680591583378}, {"on": true, "note": 74, "velocity": 106, "until": 448.61036640833754}, {"on": false, "note": 74, "velocity": 0, "until": 448.61036640833754}, {"on": false, "note": 83, "velocity": 0, "until": 448.62971489167086}, {"on": true, "note": 82, "velocity": 106, "until": 448.62971489167086}, {"on": true, "note": 73, "velocity": 106, "until": 449.09910080833754}, {"on": false, "note": 73, "velocity": 0, "until": 449.09910080833754}, {"on": false, "note": 82, "velocity": 0, "until": 449.1193911583375}, {"on": true, "note": 81, "velocity": 106, "until": 449.1193911583375}, {"on": true, "note": 72, "velocity": 106, "until": 449.56169840833724}, {"on": false, "note": 72, "velocity": 0, "until": 449.56169840833724}, {"on": false, "note": 81, "velocity": 0, "until": 449.58104689167055}, {"on": true, "note": 79, "velocity": 106, "until": 449.58104689167055}, {"on": true, "note": 71, "velocity": 106, "until": 450.05043280833723}, {"on": false, "note": 71, "velocity": 0, "until": 450.05043280833723}, {"on": false, "note": 79, "velocity": 0, "until": 450.0707231583372}, {"on": true, "note": 79, "velocity": 106, "until": 450.0707231583372}, {"on": true, "note": 70, "velocity": 106, "until": 450.51303040833693}, {"on": false, "note": 70, "velocity": 0, "until": 450.51303040833693}, {"on": false, "note": 79, "velocity": 0, "until": 450.53237889167025}, {"on": true, "note": 68, "velocity": 106, "until": 450.63441930833693}, {"on": false, "note": 68, "velocity": 0, "until": 450.65482739167027}, {"on": true, "note": 68, "velocity": 106, "until": 450.75686780833695}, {"on": false, "note": 68, "velocity": 0, "until": 450.7772758916703}, {"on": true, "note": 68, "velocity": 106, "until": 450.87931630833697}, {"on": false, "note": 68, "velocity": 0, "until": 450.8997243916703}, {"on": true, "note": 68, "velocity": 106, "until": 451.001764808337}, {"on": false, "note": 68, "velocity": 0, "until": 451.02205515833697}, {"on": true, "note": 68, "velocity": 106, "until": 451.1182089083369}, {"on": false, "note": 68, "velocity": 0, "until": 451.1374396583369}, {"on": true, "note": 68, "velocity": 106, "until": 451.2335934083369}, {"on": false, "note": 68, "velocity": 0, "until": 451.2528241583369}, {"on": true, "note": 67, "velocity": 106, "until": 451.34897790833685}, {"on": false, "note": 67, "velocity": 0, "until": 451.36820865833687}, {"on": true, "note": 67, "velocity": 106, "until": 451.46436240833685}, {"on": false, "note": 67, "velocity": 0, "until": 451.4837108916702}, {"on": true, "note": 68, "velocity": 106, "until": 451.5857513083369}, {"on": false, "note": 68, "velocity": 0, "until": 451.60615939167025}, {"on": true, "note": 68, "velocity": 106, "until": 451.70819980833693}, {"on": false, "note": 68, "velocity": 0, "until": 451.72860789167026}, {"on": true, "note": 68, "velocity": 106, "until": 451.83064830833695}, {"on": false, "note": 68, "velocity": 0, "until": 451.8510563916703}, {"on": true, "note": 68, "velocity": 106, "until": 451.95309680833697}, {"on": false, "note": 68, "velocity": 0, "until": 451.97338715833695}, {"on": true, "note": 68, "velocity": 106, "until": 452.0695409083367}, {"on": false, "note": 68, "velocity": 0, "until": 452.0887716583366}, {"on": true, "note": 68, "velocity": 106, "until": 452.1849254083364}, {"on": false, "note": 68, "velocity": 0, "until": 452.20415615833645}, {"on": true, "note": 67, "velocity": 106, "until": 452.3003099083364}, {"on": false, "note": 67, "velocity": 0, "until": 452.3195406583364}, {"on": true, "note": 67, "velocity": 106, "until": 452.4156944083364}, {"on": false, "note": 67, "velocity": 0, "until": 452.43504289166975}, {"on": true, "note": 68, "velocity": 106, "until": 452.53708330833643}, {"on": false, "note": 68, "velocity": 0, "until": 452.55749139166977}, {"on": true, "note": 68, "velocity": 106, "until": 452.65953180833645}, {"on": false, "note": 68, "velocity": 0, "until": 452.6799398916698}, {"on": true, "note": 67, "velocity": 106, "until": 452.7819803083365}, {"on": false, "note": 67, "velocity": 0, "until": 452.8023883916698}, {"on": true, "note": 67, "velocity": 106, "until": 452.9044288083365}, {"on": false, "note": 67, "velocity": 0, "until": 452.9247191583365}, {"on": true, "note": 68, "velocity": 106, "until": 453.0208729083363}, {"on": false, "note": 68, "velocity": 0, "until": 453.0401036583362}, {"on": true, "note": 68, "velocity": 106, "until": 453.1362574083361}, {"on": false, "note": 68, "velocity": 0, "until": 453.15548815833614}, {"on": true, "note": 67, "velocity": 106, "until": 453.25164190833607}, {"on": false, "note": 67, "velocity": 0, "until": 453.2708726583361}, {"on": true, "note": 67, "velocity": 106, "until": 453.3670264083361}, {"on": false, "note": 67, "velocity": 0, "until": 453.3863748916694}, {"on": true, "note": 68, "velocity": 106, "until": 453.4884153083361}, {"on": false, "note": 68, "velocity": 0, "until": 453.5088233916694}, {"on": true, "note": 68, "velocity": 106, "until": 453.6108638083361}, {"on": false, "note": 68, "velocity": 0, "until": 453.6312718916694}, {"on": true, "note": 67, "velocity": 106, "until": 453.7333123083361}, {"on": false, "note": 67, "velocity": 0, "until": 453.75372039166945}, {"on": true, "note": 67, "velocity": 106, "until": 453.85576080833613}, {"on": false, "note": 67, "velocity": 0, "until": 453.8760511583361}, {"on": true, "note": 68, "velocity": 106, "until": 453.9722049083359}, {"on": false, "note": 68, "velocity": 0, "until": 453.99143565833583}, {"on": true, "note": 68, "velocity": 106, "until": 454.08758940833576}, {"on": false, "note": 68, "velocity": 0, "until": 454.1068201583358}, {"on": true, "note": 67, "velocity": 106, "until": 454.2029739083357}, {"on": false, "note": 67, "velocity": 0, "until": 454.2222046583357}, {"on": true, "note": 67, "velocity": 106, "until": 454.3183584083357}, {"on": false, "note": 67, "velocity": 0, "until": 454.33770689166903}, {"on": true, "note": 66, "velocity": 106, "until": 454.4397473083357}, {"on": false, "note": 66, "velocity": 0, "until": 454.46015539166905}, {"on": true, "note": 66, "velocity": 106, "until": 454.56219580833573}, {"on": false, "note": 66, "velocity": 0, "until": 454.58260389166907}, {"on": true, "note": 66, "velocity": 106, "until": 454.68464430833575}, {"on": false, "note": 66, "velocity": 0, "until": 454.7050523916691}, {"on": true, "note": 66, "velocity": 106, "until": 454.80709280833577}, {"on": false, "note": 66, "velocity": 0, "until": 454.82738315833575}, {"on": true, "note": 66, "velocity": 106, "until": 454.9235369083357}, {"on": false, "note": 66, "velocity": 0, "until": 454.9427676583357}, {"on": true, "note": 66, "velocity": 106, "until": 455.0389214083357}, {"on": false, "note": 66, "velocity": 0, "until": 455.0581521583357}, {"on": true, "note": 67, "velocity": 106, "until": 455.15430590833563}, {"on": false, "note": 67, "velocity": 0, "until": 455.17353665833565}, {"on": true, "note": 67, "velocity": 106, "until": 455.26969040833563}, {"on": false, "note": 67, "velocity": 0, "until": 455.28903889166895}, {"on": true, "note": 66, "velocity": 106, "until": 455.39107930833563}, {"on": false, "note": 66, "velocity": 0, "until": 455.41148739166897}, {"on": true, "note": 66, "velocity": 106, "until": 455.51352780833565}, {"on": false, "note": 66, "velocity": 0, "until": 455.533935891669}, {"on": true, "note": 66, "velocity": 106, "until": 455.63597630833567}, {"on": false, "note": 66, "velocity": 0, "until": 455.656384391669}, {"on": true, "note": 66, "velocity": 106, "until": 455.7584248083357}, {"on": false, "note": 66, "velocity": 0, "until": 455.7787151583357}, {"on": true, "note": 66, "velocity": 106, "until": 455.8748689083356}, {"on": false, "note": 66, "velocity": 0, "until": 455.8940996583356}, {"on": true, "note": 66, "velocity": 106, "until": 455.9902534083356}, {"on": false, "note": 66, "velocity": 0, "until": 456.0094841583356}, {"on": true, "note": 67, "velocity": 106, "until": 456.10563790833555}, {"on": false, "note": 67, "velocity": 0, "until": 456.1248686583356}, {"on": true, "note": 67, "velocity": 106, "until": 456.22102240833556}, {"on": false, "note": 67, "velocity": 0, "until": 456.2403708916689}, {"on": true, "note": 66, "velocity": 106, "until": 456.34241130833556}, {"on": false, "note": 66, "velocity": 0, "until": 456.3628193916689}, {"on": true, "note": 66, "velocity": 106, "until": 456.4648598083356}, {"on": false, "note": 66, "velocity": 0, "until": 456.4852678916689}, {"on": true, "note": 67, "velocity": 106, "until": 456.5873083083356}, {"on": false, "note": 67, "velocity": 0, "until": 456.60771639166893}, {"on": true, "note": 67, "velocity": 106, "until": 456.7097568083356}, {"on": false, "note": 67, "velocity": 0, "until": 456.7300471583356}, {"on": true, "note": 66, "velocity": 106, "until": 456.8262009083354}, {"on": false, "note": 66, "velocity": 0, "until": 456.8454316583353}, {"on": true, "note": 66, "velocity": 106, "until": 456.94158540833524}, {"on": false, "note": 66, "velocity": 0, "until": 456.96081615833526}, {"on": true, "note": 67, "velocity": 106, "until": 457.0569699083352}, {"on": false, "note": 67, "velocity": 0, "until": 457.0762006583352}, {"on": true, "note": 67, "velocity": 106, "until": 457.1723544083352}, {"on": false, "note": 67, "velocity": 0, "until": 457.1917028916685}, {"on": true, "note": 66, "velocity": 106, "until": 457.2937433083352}, {"on": false, "note": 66, "velocity": 0, "until": 457.31415139166853}, {"on": true, "note": 66, "velocity": 106, "until": 457.4161918083352}, {"on": false, "note": 66, "velocity": 0, "until": 457.43659989166855}, {"on": true, "note": 67, "velocity": 106, "until": 457.53864030833523}, {"on": false, "note": 67, "velocity": 0, "until": 457.55904839166857}, {"on": true, "note": 67, "velocity": 106, "until": 457.66108880833525}, {"on": false, "note": 67, "velocity": 0, "until": 457.68137915833523}, {"on": true, "note": 66, "velocity": 106, "until": 457.77753290833505}, {"on": false, "note": 66, "velocity": 0, "until": 457.79676365833495}, {"on": true, "note": 66, "velocity": 106, "until": 457.8929174083349}, {"on": false, "note": 66, "velocity": 0, "until": 457.9121481583349}, {"on": true, "note": 66, "velocity": 106, "until": 458.00830190833483}, {"on": false, "note": 66, "velocity": 0, "until": 458.02753265833485}, {"on": true, "note": 66, "velocity": 106, "until": 458.12368640833483}, {"on": false, "note": 66, "velocity": 0, "until": 458.14303489166815}, {"on": true, "note": 67, "velocity": 106, "until": 458.3879318916682}, {"on": false, "note": 67, "velocity": 0, "until": 462.0488201333346}, {"on": true, "note": 60, "velocity": 106, "until": 462.11158163333454}, {"on": false, "note": 60, "velocity": 0, "until": 462.1743431333345}, {"on": true, "note": 60, "velocity": 106, "until": 462.23710463333447}, {"on": false, "note": 60, "velocity": 0, "until": 462.29986613333443}, {"on": true, "note": 60, "velocity": 106, "until": 462.3626276333344}, {"on": false, "note": 60, "velocity": 0, "until": 462.42538913333436}, {"on": true, "note": 60, "velocity": 106, "until": 462.4881506333343}, {"on": false, "note": 60, "velocity": 0, "until": 462.5508362083343}, {"on": true, "note": 60, "velocity": 106, "until": 462.7726099583344}, {"on": false, "note": 60, "velocity": 0, "until": 462.79277120833444}, {"on": true, "note": 60, "velocity": 106, "until": 463.0145449583345}, {"on": false, "note": 60, "velocity": 0, "until": 463.03478213333455}, {"on": true, "note": 60, "velocity": 106, "until": 463.0975436333345}, {"on": false, "note": 60, "velocity": 0, "until": 463.1603051333345}, {"on": true, "note": 60, "velocity": 106, "until": 463.22306663333444}, {"on": false, "note": 60, "velocity": 0, "until": 463.2858281333344}, {"on": true, "note": 60, "velocity": 106, "until": 463.34858963333437}, {"on": false, "note": 60, "velocity": 0, "until": 463.41135113333434}, {"on": true, "note": 60, "velocity": 106, "until": 463.4741126333343}, {"on": false, "note": 60, "velocity": 0, "until": 463.5367982083343}, {"on": true, "note": 60, "velocity": 106, "until": 463.75857195833436}, {"on": false, "note": 60, "velocity": 0, "until": 463.7787332083344}, {"on": true, "note": 60, "velocity": 106, "until": 464.0005069583345}, {"on": false, "note": 60, "velocity": 0, "until": 464.0207441333345}, {"on": true, "note": 62, "velocity": 106, "until": 464.0835056333345}, {"on": false, "note": 62, "velocity": 0, "until": 464.14626713333445}, {"on": true, "note": 62, "velocity": 106, "until": 464.2090286333344}, {"on": false, "note": 62, "velocity": 0, "until": 464.2717901333344}, {"on": true, "note": 62, "velocity": 106, "until": 464.33455163333434}, {"on": false, "note": 62, "velocity": 0, "until": 464.3973131333343}, {"on": true, "note": 62, "velocity": 106, "until": 464.4600746333343}, {"on": false, "note": 62, "velocity": 0, "until": 464.52276020833426}, {"on": true, "note": 62, "velocity": 106, "until": 464.74453395833433}, {"on": false, "note": 62, "velocity": 0, "until": 464.7646952083344}, {"on": true, "note": 62, "velocity": 106, "until": 464.98646895833446}, {"on": false, "note": 62, "velocity": 0, "until": 465.0067061333345}, {"on": true, "note": 62, "velocity": 106, "until": 465.06946763333445}, {"on": false, "note": 62, "velocity": 0, "until": 465.1322291333344}, {"on": true, "note": 62, "velocity": 106, "until": 465.1949906333344}, {"on": false, "note": 62, "velocity": 0, "until": 465.25775213333435}, {"on": true, "note": 62, "velocity": 106, "until": 465.3205136333343}, {"on": false, "note": 62, "velocity": 0, "until": 465.3832751333343}, {"on": true, "note": 62, "velocity": 106, "until": 465.44603663333424}, {"on": false, "note": 62, "velocity": 0, "until": 465.50872220833423}, {"on": true, "note": 62, "velocity": 106, "until": 465.7304959583343}, {"on": false, "note": 62, "velocity": 0, "until": 465.75065720833436}, {"on": true, "note": 62, "velocity": 106, "until": 465.9724309583344}, {"on": false, "note": 62, "velocity": 0, "until": 465.99266813333446}, {"on": true, "note": 62, "velocity": 106, "until": 466.0554296333343}, {"on": false, "note": 62, "velocity": 0, "until": 466.1181911333341}, {"on": true, "note": 62, "velocity": 106, "until": 466.18095263333396}, {"on": false, "note": 62, "velocity": 0, "until": 466.24371413333375}, {"on": true, "note": 62, "velocity": 106, "until": 466.30647563333355}, {"on": false, "note": 62, "velocity": 0, "until": 466.3692371333334}, {"on": true, "note": 62, "velocity": 106, "until": 466.4319986333333}, {"on": false, "note": 62, "velocity": 0, "until": 466.4946842083332}, {"on": true, "note": 62, "velocity": 106, "until": 466.71645795833325}, {"on": false, "note": 62, "velocity": 0, "until": 466.7366192083333}, {"on": true, "note": 59, "velocity": 106, "until": 466.9583929583334}, {"on": false, "note": 59, "velocity": 0, "until": 466.9786301333334}, {"on": true, "note": 60, "velocity": 106, "until": 467.10415313333334}, {"on": false, "note": 60, "velocity": 0, "until": 467.22967613333327}, {"on": true, "note": 59, "velocity": 91, "until": 467.3551991333332}, {"on": false, "note": 59, "velocity": 0, "until": 467.48064620833316}, {"on": true, "note": 60, "velocity": 91, "until": 467.6016137083332}, {"on": false, "note": 60, "velocity": 0, "until": 467.7225812083333}, {"on": true, "note": 60, "velocity": 91, "until": 467.84354870833334}, {"on": false, "note": 60, "velocity": 0, "until": 467.9645921333334}, {"on": true, "note": 59, "velocity": 106, "until": 467.9645921333334}, {"on": true, "note": 62, "velocity": 106, "until": 468.02735363333323}, {"on": false, "note": 62, "velocity": 0, "until": 468.02735363333323}, {"on": false, "note": 59, "velocity": 0, "until": 468.09011513333303}, {"on": true, "note": 59, "velocity": 106, "until": 468.09011513333303}, {"on": true, "note": 62, "velocity": 106, "until": 468.1528766333329}, {"on": false, "note": 62, "velocity": 0, "until": 468.1528766333329}, {"on": false, "note": 59, "velocity": 0, "until": 468.2156381333327}, {"on": true, "note": 59, "velocity": 106, "until": 468.2156381333327}, {"on": true, "note": 62, "velocity": 106, "until": 468.27839963333247}, {"on": false, "note": 62, "velocity": 0, "until": 468.27839963333247}, {"on": false, "note": 59, "velocity": 0, "until": 468.3411611333323}, {"on": true, "note": 59, "velocity": 106, "until": 468.3411611333323}, {"on": true, "note": 62, "velocity": 106, "until": 468.40392263333223}, {"on": false, "note": 62, "velocity": 0, "until": 468.40392263333223}, {"on": false, "note": 59, "velocity": 0, "until": 468.4666082083321}, {"on": true, "note": 59, "velocity": 106, "until": 468.4666082083321}, {"on": true, "note": 62, "velocity": 106, "until": 468.6883819583322}, {"on": false, "note": 62, "velocity": 0, "until": 468.6883819583322}, {"on": false, "note": 59, "velocity": 0, "until": 468.70854320833223}, {"on": true, "note": 59, "velocity": 106, "until": 468.9303169583323}, {"on": false, "note": 59, "velocity": 0, "until": 468.95055413333233}, {"on": true, "note": 60, "velocity": 106, "until": 469.07607713333226}, {"on": false, "note": 60, "velocity": 0, "until": 469.2016001333322}, {"on": true, "note": 59, "velocity": 91, "until": 469.3271231333321}, {"on": false, "note": 59, "velocity": 0, "until": 469.4525702083321}, {"on": true, "note": 60, "velocity": 91, "until": 469.57353770833214}, {"on": false, "note": 60, "velocity": 0, "until": 469.97764383333214}, {"on": true, "note": 60, "velocity": 106, "until": 470.0417463333321}, {"on": false, "note": 60, "velocity": 0, "until": 470.1058488333321}, {"on": true, "note": 60, "velocity": 106, "until": 470.1699513333321}, {"on": false, "note": 60, "velocity": 0, "until": 470.2340538333321}, {"on": true, "note": 60, "velocity": 106, "until": 470.29815633333203}, {"on": false, "note": 60, "velocity": 0, "until": 470.362258833332}, {"on": true, "note": 60, "velocity": 106, "until": 470.42636133333195}, {"on": false, "note": 60, "velocity": 0, "until": 470.4903678916653}, {"on": true, "note": 60, "velocity": 106, "until": 470.714856808332}, {"on": false, "note": 60, "velocity": 0, "until": 470.73526489166534}, {"on": true, "note": 60, "velocity": 106, "until": 470.95975380833204}, {"on": false, "note": 60, "velocity": 0, "until": 470.980257833332}, {"on": true, "note": 60, "velocity": 106, "until": 471.04436033333195}, {"on": false, "note": 60, "velocity": 0, "until": 471.108462833332}, {"on": true, "note": 60, "velocity": 106, "until": 471.172565333332}, {"on": false, "note": 60, "velocity": 0, "until": 471.23666783333204}, {"on": true, "note": 60, "velocity": 106, "until": 471.30077033333197}, {"on": false, "note": 60, "velocity": 0, "until": 471.364872833332}, {"on": true, "note": 60, "velocity": 106, "until": 471.42897533333195}, {"on": false, "note": 60, "velocity": 0, "until": 471.49298189166535}, {"on": true, "note": 60, "velocity": 106, "until": 471.71747080833205}, {"on": false, "note": 60, "velocity": 0, "until": 471.7378788916654}, {"on": true, "note": 60, "velocity": 106, "until": 471.9623678083321}, {"on": false, "note": 60, "velocity": 0, "until": 471.98287183333207}, {"on": true, "note": 60, "velocity": 106, "until": 472.046974333332}, {"on": false, "note": 60, "velocity": 0, "until": 472.11107683333205}, {"on": true, "note": 60, "velocity": 106, "until": 472.17517933333204}, {"on": false, "note": 60, "velocity": 0, "until": 472.2392818333321}, {"on": true, "note": 60, "velocity": 106, "until": 472.303384333332}, {"on": false, "note": 60, "velocity": 0, "until": 472.36748683333207}, {"on": true, "note": 60, "velocity": 106, "until": 472.431589333332}, {"on": false, "note": 60, "velocity": 0, "until": 472.4955958916654}, {"on": true, "note": 60, "velocity": 106, "until": 472.7200848083321}, {"on": false, "note": 60, "velocity": 0, "until": 472.74049289166544}, {"on": true, "note": 60, "velocity": 106, "until": 472.96498180833214}, {"on": false, "note": 60, "velocity": 0, "until": 472.9854858333321}, {"on": true, "note": 60, "velocity": 106, "until": 473.04958833333205}, {"on": false, "note": 60, "velocity": 0, "until": 473.1136908333321}, {"on": true, "note": 60, "velocity": 106, "until": 473.1777933333321}, {"on": false, "note": 60, "velocity": 0, "until": 473.24189583333214}, {"on": true, "note": 60, "velocity": 106, "until": 473.30599833333207}, {"on": false, "note": 60, "velocity": 0, "until": 473.3701008333321}, {"on": true, "note": 60, "velocity": 106, "until": 473.43420333333205}, {"on": false, "note": 60, "velocity": 0, "until": 473.49820989166545}, {"on": true, "note": 60, "velocity": 106, "until": 473.72269880833215}, {"on": false, "note": 60, "velocity": 0, "until": 473.7431068916655}, {"on": true, "note": 60, "velocity": 106, "until": 473.9675958083322}, {"on": false, "note": 60, "velocity": 0, "until": 473.98809983333217}, {"on": true, "note": 58, "velocity": 106, "until": 474.05220233333205}, {"on": false, "note": 58, "velocity": 0, "until": 474.116304833332}, {"on": true, "note": 58, "velocity": 106, "until": 474.18040733333197}, {"on": false, "note": 58, "velocity": 0, "until": 474.2445098333319}, {"on": true, "note": 58, "velocity": 106, "until": 474.3086123333319}, {"on": false, "note": 58, "velocity": 0, "until": 474.3727148333318}, {"on": true, "note": 58, "velocity": 106, "until": 474.43681733333176}, {"on": false, "note": 58, "velocity": 0, "until": 474.500823891665}, {"on": true, "note": 58, "velocity": 106, "until": 474.72531280833164}, {"on": false, "note": 58, "velocity": 0, "until": 474.745720891665}, {"on": true, "note": 58, "velocity": 106, "until": 474.9702098083317}, {"on": false, "note": 58, "velocity": 0, "until": 474.99071383333165}, {"on": true, "note": 58, "velocity": 106, "until": 475.1189188333316}, {"on": false, "note": 58, "velocity": 0, "until": 475.2471238333315}, {"on": true, "note": 58, "velocity": 91, "until": 475.3753288333314}, {"on": false, "note": 58, "velocity": 0, "until": 475.5034378916647}, {"on": true, "note": 58, "velocity": 91, "until": 475.6258863916647}, {"on": false, "note": 58, "velocity": 0, "until": 475.74833489166474}, {"on": true, "note": 58, "velocity": 91, "until": 475.87078339166476}, {"on": false, "note": 58, "velocity": 0, "until": 475.9933278333314}, {"on": true, "note": 58, "velocity": 106, "until": 476.0574303333313}, {"on": false, "note": 58, "velocity": 0, "until": 476.12153283333123}, {"on": true, "note": 58, "velocity": 106, "until": 476.1856353333312}, {"on": false, "note": 58, "velocity": 0, "until": 476.24973783333115}, {"on": true, "note": 58, "velocity": 106, "until": 476.31384033333114}, {"on": false, "note": 58, "velocity": 0, "until": 476.3779428333311}, {"on": true, "note": 58, "velocity": 106, "until": 476.442045333331}, {"on": false, "note": 58, "velocity": 0, "until": 476.50605189166424}, {"on": true, "note": 58, "velocity": 106, "until": 476.62850039166426}, {"on": false, "note": 58, "velocity": 0, "until": 476.7509488916643}, {"on": true, "note": 58, "velocity": 106, "until": 476.8733973916643}, {"on": false, "note": 58, "velocity": 0, "until": 476.99594183333096}, {"on": true, "note": 58, "velocity": 106, "until": 477.1241468333309}, {"on": false, "note": 58, "velocity": 0, "until": 477.2523518333308}, {"on": true, "note": 58, "velocity": 91, "until": 477.38055683333073}, {"on": false, "note": 58, "velocity": 0, "until": 477.508665891664}, {"on": true, "note": 58, "velocity": 91, "until": 477.75379480833067}, {"on": false, "note": 58, "velocity": 0, "until": 478.0263411333307}, {"on": true, "note": 55, "velocity": 106, "until": 478.0263411333307}, {"on": true, "note": 67, "velocity": 106, "until": 478.4029101333301}, {"on": false, "note": 67, "velocity": 0, "until": 478.4029101333301}, {"on": false, "note": 55, "velocity": 0, "until": 478.4029101333301}, {"on": true, "note": 68, "velocity": 106, "until": 478.52835720832996}, {"on": false, "note": 68, "velocity": 0, "until": 478.52835720832996}, {"on": true, "note": 67, "velocity": 106, "until": 478.75013095833003}, {"on": false, "note": 67, "velocity": 0, "until": 478.7702922083301}, {"on": true, "note": 65, "velocity": 106, "until": 478.89125970833015}, {"on": false, "note": 65, "velocity": 0, "until": 479.0123031333302}, {"on": true, "note": 63, "velocity": 106, "until": 479.1378261333301}, {"on": false, "note": 63, "velocity": 0, "until": 479.1378261333301}, {"on": true, "note": 67, "velocity": 106, "until": 479.24242863333006}, {"on": false, "note": 67, "velocity": 0, "until": 479.26334913333}, {"on": true, "note": 65, "velocity": 106, "until": 479.32611063332996}, {"on": false, "note": 65, "velocity": 0, "until": 479.3888721333299}, {"on": true, "note": 62, "velocity": 106, "until": 479.4516336333299}, {"on": false, "note": 62, "velocity": 0, "until": 479.5143192083299}, {"on": true, "note": 60, "velocity": 106, "until": 479.75625420832995}, {"on": false, "note": 60, "velocity": 0, "until": 481.9701631916627}, {"on": true, "note": 67, "velocity": 106, "until": 482.34206269166276}, {"on": false, "note": 67, "velocity": 0, "until": 482.34206269166276}, {"on": true, "note": 68, "velocity": 106, "until": 482.4659393666627}, {"on": false, "note": 68, "velocity": 0, "until": 482.4659393666627}, {"on": true, "note": 67, "velocity": 106, "until": 482.6833305333293}, {"on": false, "note": 67, "velocity": 0, "until": 482.7030933666626}, {"on": true, "note": 65, "velocity": 106, "until": 482.8216703666625}, {"on": false, "note": 65, "velocity": 0, "until": 482.9403371916624}, {"on": true, "note": 63, "velocity": 106, "until": 483.0643036916625}, {"on": false, "note": 63, "velocity": 0, "until": 483.0643036916625}, {"on": true, "note": 67, "velocity": 106, "until": 483.16760910832915}, {"on": false, "note": 67, "velocity": 0, "until": 483.1882701916625}, {"on": true, "note": 65, "velocity": 106, "until": 483.25025344166255}, {"on": false, "note": 65, "velocity": 0, "until": 483.3122366916626}, {"on": true, "note": 62, "velocity": 106, "until": 483.3742199416626}, {"on": false, "note": 62, "velocity": 0, "until": 483.4361133666626}, {"on": true, "note": 60, "velocity": 106, "until": 483.67326736666246}, {"on": false, "note": 60, "velocity": 0, "until": 485.8508173666624}, {"on": true, "note": 62, "velocity": 106, "until": 486.21518836666263}, {"on": false, "note": 62, "velocity": 0, "until": 486.21518836666263}, {"on": true, "note": 63, "velocity": 106, "until": 486.336529474996}, {"on": false, "note": 63, "velocity": 0, "until": 486.336529474996}, {"on": true, "note": 62, "velocity": 106, "until": 486.54645255832935}, {"on": false, "note": 62, "velocity": 0, "until": 486.565536474996}, {"on": true, "note": 60, "velocity": 106, "until": 486.6800399749961}, {"on": false, "note": 60, "velocity": 0, "until": 486.7946593666628}, {"on": true, "note": 58, "velocity": 106, "until": 486.9161163666629}, {"on": false, "note": 58, "velocity": 0, "until": 486.9161163666629}, {"on": true, "note": 62, "velocity": 106, "until": 487.0173305333296}, {"on": false, "note": 62, "velocity": 0, "until": 487.0375733666629}, {"on": true, "note": 60, "velocity": 106, "until": 487.09830186666295}, {"on": false, "note": 60, "velocity": 0, "until": 487.15903036666293}, {"on": true, "note": 57, "velocity": 106, "until": 487.21975886666297}, {"on": false, "note": 57, "velocity": 0, "until": 487.2803714749963}, {"on": true, "note": 55, "velocity": 106, "until": 487.5093784749964}, {"on": false, "note": 55, "velocity": 0, "until": 487.7385013666632}, {"on": true, "note": 65, "velocity": 106, "until": 488.10287236666403}, {"on": false, "note": 65, "velocity": 0, "until": 488.10287236666403}, {"on": true, "note": 67, "velocity": 106, "until": 488.22421347499755}, {"on": false, "note": 67, "velocity": 0, "until": 488.22421347499755}, {"on": true, "note": 65, "velocity": 106, "until": 488.4341365583309}, {"on": false, "note": 65, "velocity": 0, "until": 488.4532204749976}, {"on": true, "note": 63, "velocity": 106, "until": 488.56772397499765}, {"on": false, "note": 63, "velocity": 0, "until": 488.6823433666644}, {"on": true, "note": 62, "velocity": 106, "until": 488.80380036666446}, {"on": false, "note": 62, "velocity": 0, "until": 488.80380036666446}, {"on": true, "note": 65, "velocity": 106, "until": 488.90501453333115}, {"on": false, "note": 65, "velocity": 0, "until": 488.9252573666645}, {"on": true, "note": 63, "velocity": 106, "until": 488.9859858666645}, {"on": false, "note": 63, "velocity": 0, "until": 489.0467143666645}, {"on": true, "note": 60, "velocity": 106, "until": 489.10744286666454}, {"on": false, "note": 60, "velocity": 0, "until": 489.16805547499786}, {"on": true, "note": 58, "velocity": 106, "until": 489.397062474998}, {"on": false, "note": 58, "velocity": 0, "until": 489.626564924998}, {"on": true, "note": 72, "velocity": 106, "until": 489.626564924998}, {"on": true, "note": 66, "velocity": 106, "until": 489.9147054166643}, {"on": false, "note": 66, "velocity": 0, "until": 489.9147054166643}, {"on": false, "note": 72, "velocity": 0, "until": 490.89735883333094}, {"on": true, "note": 60, "velocity": 106, "until": 491.0255638333309}, {"on": false, "note": 60, "velocity": 0, "until": 491.0255638333309}, {"on": true, "note": 62, "velocity": 106, "until": 491.15367289166426}, {"on": false, "note": 62, "velocity": 0, "until": 491.15367289166426}, {"on": true, "note": 63, "velocity": 106, "until": 491.2761213916643}, {"on": false, "note": 63, "velocity": 0, "until": 491.2761213916643}, {"on": true, "note": 62, "velocity": 106, "until": 491.3985698916643}, {"on": false, "note": 62, "velocity": 0, "until": 491.3985698916643}, {"on": true, "note": 63, "velocity": 106, "until": 491.5210183916643}, {"on": false, "note": 63, "velocity": 0, "until": 491.5210183916643}, {"on": true, "note": 60, "velocity": 106, "until": 491.623058808331}, {"on": false, "note": 60, "velocity": 0, "until": 491.643562833331}, {"on": true, "note": 55, "velocity": 106, "until": 491.7717678333309}, {"on": false, "note": 55, "velocity": 0, "until": 491.7717678333309}, {"on": true, "note": 60, "velocity": 106, "until": 491.8786053333309}, {"on": false, "note": 60, "velocity": 0, "until": 491.8999728333309}, {"on": true, "note": 64, "velocity": 106, "until": 491.9640753333308}, {"on": false, "note": 64, "velocity": 0, "until": 492.0281778333308}, {"on": true, "note": 62, "velocity": 106, "until": 492.0922803333308}, {"on": false, "note": 62, "velocity": 0, "until": 492.1562868916641}, {"on": true, "note": 60, "velocity": 106, "until": 492.2787353916641}, {"on": false, "note": 60, "velocity": 0, "until": 492.2787353916641}, {"on": true, "note": 59, "velocity": 106, "until": 492.3807758083308}, {"on": false, "note": 59, "velocity": 0, "until": 492.4011838916641}, {"on": true, "note": 57, "velocity": 106, "until": 492.4624081416641}, {"on": false, "note": 57, "velocity": 0, "until": 492.52363239166414}, {"on": true, "note": 55, "velocity": 106, "until": 492.58485664166415}, {"on": false, "note": 55, "velocity": 0, "until": 492.6461768333308}, {"on": true, "note": 66, "velocity": 106, "until": 492.7743818333307}, {"on": false, "note": 66, "velocity": 0, "until": 492.7743818333307}, {"on": true, "note": 67, "velocity": 106, "until": 492.8812193333307}, {"on": false, "note": 67, "velocity": 0, "until": 492.9025868333307}, {"on": true, "note": 62, "velocity": 106, "until": 492.96668933333063}, {"on": false, "note": 62, "velocity": 0, "until": 493.0307918333306}, {"on": true, "note": 64, "velocity": 106, "until": 493.0948943333306}, {"on": false, "note": 64, "velocity": 0, "until": 493.15896978333063}, {"on": true, "note": 65, "velocity": 106, "until": 493.2855517833307}, {"on": false, "note": 65, "velocity": 0, "until": 493.2855517833307}, {"on": true, "note": 64, "velocity": 106, "until": 493.3910367833307}, {"on": false, "note": 64, "velocity": 0, "until": 493.4123605249974}, {"on": true, "note": 65, "velocity": 106, "until": 493.4824537749974}, {"on": false, "note": 65, "velocity": 0, "until": 493.5525470249974}, {"on": true, "note": 67, "velocity": 106, "until": 493.6226402749974}, {"on": false, "note": 67, "velocity": 0, "until": 493.6926094666641}, {"on": true, "note": 55, "velocity": 106, "until": 502.09383383333306}, {"on": false, "note": 55, "velocity": 0, "until": 502.35009910833304}, {"on": true, "note": 69, "velocity": 106, "until": 502.35009910833304}, {"on": true, "note": 67, "velocity": 106, "until": 502.469620608333}, {"on": false, "note": 67, "velocity": 0, "until": 502.469620608333}, {"on": false, "note": 69, "velocity": 0, "until": 502.58914210833296}, {"on": true, "note": 69, "velocity": 106, "until": 502.58914210833296}, {"on": true, "note": 67, "velocity": 106, "until": 502.7086636083329}, {"on": false, "note": 67, "velocity": 0, "until": 502.7086636083329}, {"on": false, "note": 69, "velocity": 0, "until": 502.82827641666626}, {"on": true, "note": 65, "velocity": 106, "until": 502.82827641666626}, {"on": true, "note": 69, "velocity": 106, "until": 503.07827641666626}, {"on": false, "note": 69, "velocity": 0, "until": 503.07827641666626}, {"on": false, "note": 65, "velocity": 0, "until": 503.32816158333287}, {"on": true, "note": 72, "velocity": 106, "until": 503.32816158333287}, {"on": true, "note": 67, "velocity": 106, "until": 503.4462715833327}, {"on": false, "note": 67, "velocity": 0, "until": 503.4462715833327}, {"on": false, "note": 72, "velocity": 0, "until": 503.56438158333265}, {"on": true, "note": 72, "velocity": 106, "until": 503.56438158333265}, {"on": true, "note": 67, "velocity": 106, "until": 503.6824915833325}, {"on": false, "note": 67, "velocity": 0, "until": 503.6824915833325}, {"on": false, "note": 72, "velocity": 0, "until": 503.8006906916658}, {"on": true, "note": 65, "velocity": 106, "until": 503.8006906916658}, {"on": true, "note": 72, "velocity": 106, "until": 504.04804608333257}, {"on": false, "note": 72, "velocity": 0, "until": 504.04804608333257}, {"on": false, "note": 65, "velocity": 0, "until": 505.3384928916658}, {"on": true, "note": 69, "velocity": 106, "until": 505.4609413916658}, {"on": false, "note": 69, "velocity": 0, "until": 505.58338989166583}, {"on": true, "note": 69, "velocity": 106, "until": 505.70583839166585}, {"on": false, "note": 69, "velocity": 0, "until": 505.8283828333325}, {"on": true, "note": 61, "velocity": 106, "until": 506.34110689166596}, {"on": false, "note": 61, "velocity": 0, "until": 506.34110689166596}, {"on": true, "note": 62, "velocity": 106, "until": 506.586003891666}, {"on": false, "note": 62, "velocity": 0, "until": 506.586003891666}, {"on": true, "note": 64, "velocity": 106, "until": 506.8104928083327}, {"on": false, "note": 64, "velocity": 0, "until": 506.83097872499934}, {"on": true, "note": 67, "velocity": 106, "until": 507.0852157249993}, {"on": false, "note": 67, "velocity": 0, "until": 507.0852157249993}, {"on": true, "note": 65, "velocity": 106, "until": 507.3393421083326}, {"on": false, "note": 65, "velocity": 0, "until": 507.3393421083326}, {"on": true, "note": 68, "velocity": 106, "until": 507.5803051083326}, {"on": false, "note": 68, "velocity": 0, "until": 507.5803051083326}, {"on": true, "note": 69, "velocity": 106, "until": 507.8011878583326}, {"on": false, "note": 69, "velocity": 0, "until": 507.8213609166659}, {"on": true, "note": 64, "velocity": 106, "until": 508.07346091666597}, {"on": false, "note": 64, "velocity": 0, "until": 508.8113801333326}, {"on": true, "note": 65, "velocity": 106, "until": 509.06242613333245}, {"on": false, "note": 65, "velocity": 0, "until": 509.79732476666567}, {"on": true, "note": 64, "velocity": 106, "until": 510.0462867666656}, {"on": false, "note": 64, "velocity": 0, "until": 510.2951425833322}, {"on": true, "note": 69, "velocity": 106, "until": 510.2951425833322}, {"on": true, "note": 67, "velocity": 106, "until": 510.41325258333205}, {"on": false, "note": 67, "velocity": 0, "until": 510.41325258333205}, {"on": false, "note": 69, "velocity": 0, "until": 510.531362583332}, {"on": true, "note": 69, "velocity": 106, "until": 510.531362583332}, {"on": true, "note": 67, "velocity": 106, "until": 510.64947258333183}, {"on": false, "note": 67, "velocity": 0, "until": 510.64947258333183}, {"on": false, "note": 69, "velocity": 0, "until": 510.7676632583318}, {"on": true, "note": 65, "velocity": 106, "until": 510.7676632583318}, {"on": true, "note": 69, "velocity": 106, "until": 511.0135642583319}, {"on": false, "note": 69, "velocity": 0, "until": 511.0135642583319}, {"on": false, "note": 65, "velocity": 0, "until": 511.25936920833186}, {"on": true, "note": 72, "velocity": 106, "until": 511.25936920833186}, {"on": true, "note": 67, "velocity": 106, "until": 511.37655670833186}, {"on": false, "note": 67, "velocity": 0, "until": 511.37655670833186}, {"on": false, "note": 72, "velocity": 0, "until": 511.49374420833186}, {"on": true, "note": 67, "velocity": 106, "until": 511.49374420833186}, {"on": true, "note": 72, "velocity": 106, "until": 511.61093170833186}, {"on": false, "note": 72, "velocity": 0, "until": 511.61093170833186}, {"on": false, "note": 67, "velocity": 0, "until": 511.7281903666652}, {"on": true, "note": 65, "velocity": 106, "until": 511.7281903666652}, {"on": true, "note": 72, "velocity": 106, "until": 511.97158008333196}, {"on": false, "note": 72, "velocity": 0, "until": 511.97158008333196}, {"on": false, "note": 65, "velocity": 0, "until": 513.2183544749987}, {"on": true, "note": 65, "velocity": 106, "until": 513.3328579749988}, {"on": false, "note": 65, "velocity": 0, "until": 513.4473614749988}, {"on": true, "note": 65, "velocity": 106, "until": 513.5618649749989}, {"on": false, "note": 65, "velocity": 0, "until": 513.6764843666656}, {"on": true, "note": 75, "velocity": 106, "until": 514.6203263666662}, {"on": false, "note": 75, "velocity": 0, "until": 514.6203263666662}, {"on": true, "note": 74, "velocity": 106, "until": 515.0960329500002}, {"on": false, "note": 74, "velocity": 0, "until": 515.1060384750003}, {"on": true, "note": 81, "velocity": 106, "until": 515.1060384750003}, {"on": true, "note": 72, "velocity": 106, "until": 515.2205419750005}, {"on": false, "note": 72, "velocity": 0, "until": 515.2205419750005}, {"on": false, "note": 81, "velocity": 0, "until": 515.3350454750007}, {"on": true, "note": 81, "velocity": 106, "until": 515.3350454750007}, {"on": true, "note": 72, "velocity": 106, "until": 515.4495489750009}, {"on": false, "note": 72, "velocity": 0, "until": 515.4495489750009}, {"on": false, "note": 81, "velocity": 0, "until": 515.5641683666677}, {"on": true, "note": 72, "velocity": 106, "until": 515.5641683666677}, {"on": true, "note": 79, "velocity": 106, "until": 515.5641683666677}, {"on": true, "note": 64, "velocity": 106, "until": 516.0501272500009}, {"on": false, "note": 64, "velocity": 0, "until": 516.0501272500009}, {"on": false, "note": 79, "velocity": 0, "until": 516.0501272500009}, {"on": false, "note": 72, "velocity": 0, "until": 516.5393853666675}, {"on": true, "note": 77, "velocity": 106, "until": 516.7822993666676}, {"on": false, "note": 77, "velocity": 0, "until": 517.4958013666677}, {"on": true, "note": 76, "velocity": 106, "until": 517.7387153666676}, {"on": false, "note": 76, "velocity": 0, "until": 518.4522173666675}, {"on": true, "note": 73, "velocity": 106, "until": 519.4086333666683}, {"on": false, "note": 73, "velocity": 0, "until": 519.4086333666683}, {"on": true, "note": 74, "velocity": 106, "until": 519.6515473666682}, {"on": false, "note": 74, "velocity": 0, "until": 520.3650493666684}, {"on": true, "note": 65, "velocity": 106, "until": 520.6079633666683}, {"on": false, "note": 65, "velocity": 0, "until": 521.321465366668}, {"on": true, "note": 64, "velocity": 106, "until": 521.5643793666678}, {"on": false, "note": 64, "velocity": 0, "until": 522.2778813666675}, {"on": true, "note": 73, "velocity": 106, "until": 523.2342973666683}, {"on": false, "note": 73, "velocity": 0, "until": 523.2342973666683}, {"on": true, "note": 74, "velocity": 106, "until": 523.4772113666686}, {"on": false, "note": 74, "velocity": 0, "until": 523.7200618666689}, {"on": true, "note": 62, "velocity": 106, "until": 523.8377088666688}, {"on": false, "note": 62, "velocity": 0, "until": 523.9553558666687}, {"on": true, "note": 62, "velocity": 106, "until": 524.0730028666686}, {"on": false, "note": 62, "velocity": 0, "until": 524.1907133666685}, {"on": true, "note": 69, "velocity": 106, "until": 524.7909289750017}, {"on": false, "note": 69, "velocity": 0, "until": 524.7909289750017}, {"on": true, "note": 67, "velocity": 106, "until": 524.8481807250017}, {"on": false, "note": 67, "velocity": 0, "until": 524.9054324750017}, {"on": true, "note": 65, "velocity": 106, "until": 524.9626842250017}, {"on": false, "note": 65, "velocity": 0, "until": 525.0199359750017}, {"on": true, "note": 64, "velocity": 106, "until": 525.0771877250016}, {"on": false, "note": 64, "velocity": 0, "until": 525.1345553666682}, {"on": true, "note": 62, "velocity": 106, "until": 525.1952838666681}, {"on": false, "note": 62, "velocity": 0, "until": 525.2560123666681}, {"on": true, "note": 60, "velocity": 106, "until": 525.316740866668}, {"on": false, "note": 60, "velocity": 0, "until": 525.377469366668}, {"on": true, "note": 59, "velocity": 106, "until": 525.4381978666679}, {"on": false, "note": 59, "velocity": 0, "until": 525.4989263666679}, {"on": true, "note": 57, "velocity": 106, "until": 525.5596548666679}, {"on": false, "note": 57, "velocity": 0, "until": 525.6202674750012}, {"on": true, "note": 55, "velocity": 106, "until": 525.6775192250012}, {"on": false, "note": 55, "velocity": 0, "until": 525.7347709750012}, {"on": true, "note": 65, "velocity": 106, "until": 525.7920227250012}, {"on": false, "note": 65, "velocity": 0, "until": 525.8492744750012}, {"on": true, "note": 64, "velocity": 106, "until": 525.9065262250011}, {"on": false, "note": 64, "velocity": 0, "until": 525.9637779750011}, {"on": true, "note": 62, "velocity": 106, "until": 526.0210297250011}, {"on": false, "note": 62, "velocity": 0, "until": 526.0783973666677}, {"on": true, "note": 60, "velocity": 106, "until": 526.1391258666677}, {"on": false, "note": 60, "velocity": 0, "until": 526.1998543666676}, {"on": true, "note": 59, "velocity": 106, "until": 526.2605828666676}, {"on": false, "note": 59, "velocity": 0, "until": 526.3213113666676}, {"on": true, "note": 57, "velocity": 106, "until": 526.3820398666676}, {"on": false, "note": 57, "velocity": 0, "until": 526.4427683666676}, {"on": true, "note": 55, "velocity": 106, "until": 526.5034968666675}, {"on": false, "note": 55, "velocity": 0, "until": 526.5641094750009}, {"on": true, "note": 56, "velocity": 106, "until": 526.6213612250009}, {"on": false, "note": 56, "velocity": 0, "until": 526.6786129750009}, {"on": true, "note": 57, "velocity": 101, "until": 526.7358647250009}, {"on": false, "note": 57, "velocity": 0, "until": 526.7931164750008}, {"on": true, "note": 58, "velocity": 96, "until": 526.8503682250008}, {"on": false, "note": 58, "velocity": 0, "until": 526.9076199750008}, {"on": true, "note": 59, "velocity": 91, "until": 526.9648717250008}, {"on": false, "note": 59, "velocity": 0, "until": 527.0222393666673}, {"on": true, "note": 60, "velocity": 46, "until": 527.2651533666674}, {"on": false, "note": 60, "velocity": 0, "until": 530.7976073666673}, {"on": true, "note": 67, "velocity": 106, "until": 531.0101571166674}, {"on": false, "note": 67, "velocity": 0, "until": 531.0405213666673}, {"on": true, "note": 67, "velocity": 106, "until": 531.2530711166675}, {"on": false, "note": 67, "velocity": 0, "until": 531.2833194750008}, {"on": true, "note": 67, "velocity": 106, "until": 531.4837006000007}, {"on": false, "note": 67, "velocity": 0, "until": 531.5123264750007}, {"on": true, "note": 67, "velocity": 106, "until": 531.7127076000007}, {"on": false, "note": 67, "velocity": 0, "until": 531.7414493666673}, {"on": true, "note": 67, "velocity": 106, "until": 531.9539991166673}, {"on": false, "note": 67, "velocity": 0, "until": 531.9843633666674}, {"on": true, "note": 67, "velocity": 106, "until": 532.1969131166674}, {"on": false, "note": 67, "velocity": 0, "until": 532.2271614750007}, {"on": true, "note": 67, "velocity": 106, "until": 532.4275426000006}, {"on": false, "note": 67, "velocity": 0, "until": 532.4561684750006}, {"on": true, "note": 67, "velocity": 106, "until": 532.6565496000005}, {"on": false, "note": 67, "velocity": 0, "until": 532.6852913666671}, {"on": true, "note": 67, "velocity": 106, "until": 532.897841116667}, {"on": false, "note": 67, "velocity": 0, "until": 532.928205366667}, {"on": true, "note": 67, "velocity": 106, "until": 533.1407551166669}, {"on": false, "note": 67, "velocity": 0, "until": 533.1710034750002}, {"on": true, "note": 67, "velocity": 106, "until": 533.3713846000002}, {"on": false, "note": 67, "velocity": 0, "until": 533.4000104750002}, {"on": true, "note": 67, "velocity": 106, "until": 533.6003916000001}, {"on": false, "note": 67, "velocity": 0, "until": 533.6291333666667}, {"on": true, "note": 67, "velocity": 106, "until": 533.8416831166664}, {"on": false, "note": 67, "velocity": 0, "until": 533.8720473666665}, {"on": true, "note": 67, "velocity": 106, "until": 534.0845971166663}, {"on": false, "note": 67, "velocity": 0, "until": 534.1148454749996}, {"on": true, "note": 67, "velocity": 106, "until": 534.3152265999998}, {"on": false, "note": 67, "velocity": 0, "until": 534.3438524749998}, {"on": true, "note": 67, "velocity": 106, "until": 534.5442335999999}, {"on": false, "note": 67, "velocity": 0, "until": 534.5729753666665}, {"on": true, "note": 67, "velocity": 106, "until": 534.7855251166666}, {"on": false, "note": 67, "velocity": 0, "until": 534.8158893666665}, {"on": true, "note": 67, "velocity": 106, "until": 535.0284391166666}, {"on": false, "note": 67, "velocity": 0, "until": 535.0586874749999}, {"on": true, "note": 67, "velocity": 106, "until": 535.2590685999999}, {"on": false, "note": 67, "velocity": 0, "until": 535.2876944749999}, {"on": true, "note": 67, "velocity": 106, "until": 535.4880755999999}, {"on": false, "note": 67, "velocity": 0, "until": 535.5168173666665}, {"on": true, "note": 67, "velocity": 106, "until": 535.7293671166665}, {"on": false, "note": 67, "velocity": 0, "until": 535.7597313666665}, {"on": true, "note": 67, "velocity": 106, "until": 535.9722811166665}, {"on": false, "note": 67, "velocity": 0, "until": 536.0025294749998}, {"on": true, "note": 67, "velocity": 106, "until": 536.2029105999998}, {"on": false, "note": 67, "velocity": 0, "until": 536.2315364749998}, {"on": true, "note": 67, "velocity": 106, "until": 536.4319175999997}, {"on": false, "note": 67, "velocity": 0, "until": 536.4606593666663}, {"on": true, "note": 67, "velocity": 106, "until": 536.6732091166662}, {"on": false, "note": 67, "velocity": 0, "until": 536.7035733666662}, {"on": true, "note": 67, "velocity": 106, "until": 536.9161231166661}, {"on": false, "note": 67, "velocity": 0, "until": 536.9463714749994}, {"on": true, "note": 67, "velocity": 106, "until": 537.1467525999993}, {"on": false, "note": 67, "velocity": 0, "until": 537.1753784749993}, {"on": true, "note": 67, "velocity": 106, "until": 537.3757595999992}, {"on": false, "note": 67, "velocity": 0, "until": 537.4045013666658}, {"on": true, "note": 67, "velocity": 106, "until": 537.6170511166661}, {"on": false, "note": 67, "velocity": 0, "until": 537.647415366666}, {"on": true, "note": 67, "velocity": 106, "until": 537.8599651166662}, {"on": false, "note": 67, "velocity": 0, "until": 537.8902134749995}, {"on": true, "note": 67, "velocity": 106, "until": 538.0905945999995}, {"on": false, "note": 67, "velocity": 0, "until": 538.1192204749995}, {"on": true, "note": 67, "velocity": 106, "until": 538.3196015999995}, {"on": false, "note": 67, "velocity": 0, "until": 538.3483433666661}, {"on": true, "note": 72, "velocity": 106, "until": 538.5912573666661}, {"on": false, "note": 72, "velocity": 0, "until": 538.8340554749996}, {"on": true, "note": 74, "velocity": 106, "until": 539.0630624749997}, {"on": false, "note": 74, "velocity": 0, "until": 539.2921853666664}, {"on": true, "note": 72, "velocity": 106, "until": 539.5350993666665}, {"on": false, "note": 72, "velocity": 0, "until": 539.7778974749999}, {"on": true, "note": 69, "velocity": 106, "until": 540.006904475}, {"on": false, "note": 69, "velocity": 0, "until": 540.2360273666668}, {"on": true, "note": 67, "velocity": 106, "until": 540.4789413666667}, {"on": false, "note": 67, "velocity": 0, "until": 540.721739475}, {"on": true, "note": 65, "velocity": 106, "until": 540.9507464750002}, {"on": false, "note": 65, "velocity": 0, "until": 541.1796765833336}, {"on": true, "note": 67, "velocity": 121, "until": 541.5826065833335}, {"on": false, "note": 67, "velocity": 0, "until": 541.6191292166667}, {"on": true, "note": 66, "velocity": 121, "until": 541.8260252166668}, {"on": false, "note": 66, "velocity": 0, "until": 541.8260252166668}, {"on": true, "note": 67, "velocity": 106, "until": 541.9294732166669}, {"on": false, "note": 67, "velocity": 0, "until": 541.9294732166669}, {"on": true, "note": 69, "velocity": 106, "until": 541.9984385500003}, {"on": false, "note": 69, "velocity": 0, "until": 542.0329891916671}, {"on": true, "note": 67, "velocity": 121, "until": 542.4272530250005}, {"on": false, "note": 67, "velocity": 0, "until": 542.4630212916672}, {"on": true, "note": 66, "velocity": 121, "until": 542.6692062916675}, {"on": false, "note": 66, "velocity": 0, "until": 542.6692062916675}, {"on": true, "note": 67, "velocity": 106, "until": 542.7722987916676}, {"on": false, "note": 67, "velocity": 0, "until": 542.7722987916676}, {"on": true, "note": 69, "velocity": 106, "until": 542.841027125001}, {"on": false, "note": 69, "velocity": 0, "until": 542.8754587916678}, {"on": true, "note": 67, "velocity": 121, "until": 543.2683146250014}, {"on": false, "note": 67, "velocity": 0, "until": 543.3039495666682}, {"on": true, "note": 66, "velocity": 121, "until": 543.5087275666683}, {"on": false, "note": 66, "velocity": 0, "until": 543.5087275666683}, {"on": true, "note": 67, "velocity": 106, "until": 543.6111165666683}, {"on": false, "note": 67, "velocity": 0, "until": 543.6111165666683}, {"on": true, "note": 69, "velocity": 106, "until": 543.6793759000017}, {"on": false, "note": 69, "velocity": 0, "until": 543.7135847916685}, {"on": true, "note": 67, "velocity": 106, "until": 544.106440625002}, {"on": false, "note": 67, "velocity": 0, "until": 544.1420755666687}, {"on": true, "note": 67, "velocity": 106, "until": 544.2239867666689}, {"on": false, "note": 67, "velocity": 0, "until": 544.2239867666689}, {"on": true, "note": 69, "velocity": 106, "until": 544.3058979666689}, {"on": false, "note": 69, "velocity": 0, "until": 544.3058979666689}, {"on": true, "note": 71, "velocity": 106, "until": 544.387809166669}, {"on": false, "note": 71, "velocity": 0, "until": 544.387809166669}, {"on": true, "note": 73, "velocity": 106, "until": 544.469720366669}, {"on": false, "note": 73, "velocity": 0, "until": 544.469720366669}, {"on": true, "note": 74, "velocity": 106, "until": 544.551710791669}, {"on": false, "note": 74, "velocity": 0, "until": 544.551710791669}, {"on": true, "note": 76, "velocity": 106, "until": 544.9445666250028}, {"on": false, "note": 76, "velocity": 0, "until": 544.9802015666695}, {"on": true, "note": 69, "velocity": 106, "until": 545.0621127666697}, {"on": false, "note": 69, "velocity": 0, "until": 545.0621127666697}, {"on": true, "note": 71, "velocity": 106, "until": 545.1440239666697}, {"on": false, "note": 71, "velocity": 0, "until": 545.1440239666697}, {"on": true, "note": 73, "velocity": 106, "until": 545.2259351666697}, {"on": false, "note": 73, "velocity": 0, "until": 545.2259351666697}, {"on": true, "note": 74, "velocity": 106, "until": 545.3078463666698}, {"on": false, "note": 74, "velocity": 0, "until": 545.3078463666698}, {"on": true, "note": 76, "velocity": 106, "until": 545.3898367916698}, {"on": false, "note": 76, "velocity": 0, "until": 545.3898367916698}, {"on": true, "note": 77, "velocity": 106, "until": 545.7826926250036}, {"on": false, "note": 77, "velocity": 0, "until": 545.8183275666703}, {"on": true, "note": 67, "velocity": 106, "until": 545.9002387666703}, {"on": false, "note": 67, "velocity": 0, "until": 545.9002387666703}, {"on": true, "note": 69, "velocity": 106, "until": 545.9821499666704}, {"on": false, "note": 69, "velocity": 0, "until": 545.9821499666704}, {"on": true, "note": 71, "velocity": 106, "until": 546.0640611666704}, {"on": false, "note": 71, "velocity": 0, "until": 546.0640611666704}, {"on": true, "note": 73, "velocity": 106, "until": 546.1459723666704}, {"on": false, "note": 73, "velocity": 0, "until": 546.1459723666704}, {"on": true, "note": 74, "velocity": 106, "until": 546.2279627916705}, {"on": false, "note": 74, "velocity": 0, "until": 546.2279627916705}, {"on": true, "note": 76, "velocity": 106, "until": 546.6208186250043}, {"on": false, "note": 76, "velocity": 0, "until": 546.656453566671}, {"on": true, "note": 69, "velocity": 106, "until": 546.7383647666711}, {"on": false, "note": 69, "velocity": 0, "until": 546.7383647666711}, {"on": true, "note": 71, "velocity": 106, "until": 546.8202759666711}, {"on": false, "note": 71, "velocity": 0, "until": 546.8202759666711}, {"on": true, "note": 73, "velocity": 106, "until": 546.9021871666712}, {"on": false, "note": 73, "velocity": 0, "until": 546.9021871666712}, {"on": true, "note": 74, "velocity": 106, "until": 546.9840983666712}, {"on": false, "note": 74, "velocity": 0, "until": 546.9840983666712}, {"on": true, "note": 76, "velocity": 106, "until": 547.0660887916713}, {"on": false, "note": 76, "velocity": 0, "until": 547.0660887916713}, {"on": true, "note": 77, "velocity": 106, "until": 547.4589446250051}, {"on": false, "note": 77, "velocity": 0, "until": 547.4945795666717}, {"on": true, "note": 59, "velocity": 106, "until": 547.5628389000052}, {"on": false, "note": 59, "velocity": 0, "until": 547.5628389000052}, {"on": true, "note": 60, "velocity": 106, "until": 547.6310982333385}, {"on": false, "note": 60, "velocity": 0, "until": 547.6310982333385}, {"on": true, "note": 62, "velocity": 106, "until": 547.6993575666719}, {"on": false, "note": 62, "velocity": 0, "until": 547.6993575666719}, {"on": true, "note": 64, "velocity": 106, "until": 547.7676169000052}, {"on": false, "note": 64, "velocity": 0, "until": 547.7676169000052}, {"on": true, "note": 65, "velocity": 106, "until": 547.8358762333386}, {"on": false, "note": 65, "velocity": 0, "until": 547.8358762333386}, {"on": true, "note": 67, "velocity": 106, "until": 547.904214791672}, {"on": false, "note": 67, "velocity": 0, "until": 547.904214791672}, {"on": true, "note": 69, "velocity": 121, "until": 547.993500208339}, {"on": false, "note": 69, "velocity": 0, "until": 548.0113572916725}, {"on": true, "note": 77, "velocity": 106, "until": 548.0113572916725}, {"on": true, "note": 74, "velocity": 106, "until": 548.1006427083393}, {"on": false, "note": 74, "velocity": 0, "until": 548.1006427083393}, {"on": false, "note": 77, "velocity": 0, "until": 548.1184997916727}, {"on": true, "note": 77, "velocity": 106, "until": 548.1184997916727}, {"on": true, "note": 74, "velocity": 106, "until": 548.2077852083394}, {"on": false, "note": 74, "velocity": 0, "until": 548.2077852083394}, {"on": false, "note": 77, "velocity": 0, "until": 548.2256422916728}, {"on": true, "note": 77, "velocity": 106, "until": 548.2256422916728}, {"on": true, "note": 74, "velocity": 106, "until": 548.3149277083395}, {"on": false, "note": 74, "velocity": 0, "until": 548.3149277083395}, {"on": false, "note": 77, "velocity": 0, "until": 548.3327055666729}, {"on": true, "note": 77, "velocity": 106, "until": 548.3327055666729}, {"on": true, "note": 74, "velocity": 106, "until": 548.4180297333396}, {"on": false, "note": 74, "velocity": 0, "until": 548.4180297333396}, {"on": false, "note": 77, "velocity": 0, "until": 548.435094566673}, {"on": true, "note": 77, "velocity": 106, "until": 548.435094566673}, {"on": true, "note": 74, "velocity": 106, "until": 548.5204187333397}, {"on": false, "note": 74, "velocity": 0, "until": 548.5204187333397}, {"on": false, "note": 77, "velocity": 0, "until": 548.5374835666731}, {"on": true, "note": 77, "velocity": 106, "until": 548.5374835666731}, {"on": true, "note": 74, "velocity": 106, "until": 548.6228077333399}, {"on": false, "note": 74, "velocity": 0, "until": 548.6228077333399}, {"on": false, "note": 77, "velocity": 0, "until": 548.6398725666733}, {"on": true, "note": 77, "velocity": 106, "until": 548.6398725666733}, {"on": true, "note": 74, "velocity": 106, "until": 548.72519673334}, {"on": false, "note": 74, "velocity": 0, "until": 548.72519673334}, {"on": false, "note": 77, "velocity": 0, "until": 548.7423407916734}, {"on": true, "note": 77, "velocity": 106, "until": 548.7423407916734}, {"on": true, "note": 74, "velocity": 106, "until": 548.8316262083401}, {"on": false, "note": 74, "velocity": 0, "until": 548.8316262083401}, {"on": false, "note": 77, "velocity": 0, "until": 548.8494832916736}, {"on": true, "note": 77, "velocity": 106, "until": 548.8494832916736}, {"on": true, "note": 74, "velocity": 106, "until": 548.9387687083403}, {"on": false, "note": 74, "velocity": 0, "until": 548.9387687083403}, {"on": false, "note": 77, "velocity": 0, "until": 548.9566257916737}, {"on": true, "note": 77, "velocity": 106, "until": 548.9566257916737}, {"on": true, "note": 74, "velocity": 106, "until": 549.0459112083404}, {"on": false, "note": 74, "velocity": 0, "until": 549.0459112083404}, {"on": false, "note": 77, "velocity": 0, "until": 549.0637682916738}, {"on": true, "note": 77, "velocity": 106, "until": 549.0637682916738}, {"on": true, "note": 74, "velocity": 106, "until": 549.1530537083405}, {"on": false, "note": 74, "velocity": 0, "until": 549.1530537083405}, {"on": false, "note": 77, "velocity": 0, "until": 549.1708315666739}, {"on": true, "note": 77, "velocity": 106, "until": 549.1708315666739}, {"on": true, "note": 74, "velocity": 106, "until": 549.2561557333406}, {"on": false, "note": 74, "velocity": 0, "until": 549.2561557333406}, {"on": false, "note": 77, "velocity": 0, "until": 549.273220566674}, {"on": true, "note": 77, "velocity": 106, "until": 549.273220566674}, {"on": true, "note": 74, "velocity": 106, "until": 549.3585447333408}, {"on": false, "note": 74, "velocity": 0, "until": 549.3585447333408}, {"on": false, "note": 77, "velocity": 0, "until": 549.3756095666741}, {"on": true, "note": 77, "velocity": 106, "until": 549.3756095666741}, {"on": true, "note": 74, "velocity": 106, "until": 549.460933733341}, {"on": false, "note": 74, "velocity": 0, "until": 549.460933733341}, {"on": false, "note": 77, "velocity": 0, "until": 549.4779985666744}, {"on": true, "note": 77, "velocity": 106, "until": 549.4779985666744}, {"on": true, "note": 74, "velocity": 106, "until": 549.5633227333412}, {"on": false, "note": 74, "velocity": 0, "until": 549.5633227333412}, {"on": false, "note": 77, "velocity": 0, "until": 549.5804667916747}, {"on": true, "note": 77, "velocity": 106, "until": 549.5804667916747}, {"on": true, "note": 74, "velocity": 106, "until": 549.669752208342}, {"on": false, "note": 74, "velocity": 0, "until": 549.669752208342}, {"on": false, "note": 77, "velocity": 0, "until": 549.6876092916756}, {"on": true, "note": 77, "velocity": 106, "until": 549.6876092916756}, {"on": true, "note": 74, "velocity": 106, "until": 549.7768947083428}, {"on": false, "note": 74, "velocity": 0, "until": 549.7768947083428}, {"on": false, "note": 77, "velocity": 0, "until": 549.7947517916762}, {"on": true, "note": 77, "velocity": 106, "until": 549.7947517916762}, {"on": true, "note": 74, "velocity": 106, "until": 549.8840372083429}, {"on": false, "note": 74, "velocity": 0, "until": 549.8840372083429}, {"on": false, "note": 77, "velocity": 0, "until": 549.9018942916763}, {"on": true, "note": 77, "velocity": 106, "until": 549.9018942916763}, {"on": true, "note": 74, "velocity": 106, "until": 549.991179708343}, {"on": false, "note": 74, "velocity": 0, "until": 549.991179708343}, {"on": false, "note": 77, "velocity": 0, "until": 550.0089575666764}, {"on": true, "note": 77, "velocity": 106, "until": 550.0089575666764}, {"on": true, "note": 74, "velocity": 106, "until": 550.094281733343}, {"on": false, "note": 74, "velocity": 0, "until": 550.094281733343}, {"on": false, "note": 77, "velocity": 0, "until": 550.1113465666764}, {"on": true, "note": 77, "velocity": 106, "until": 550.1113465666764}, {"on": true, "note": 74, "velocity": 106, "until": 550.1966707333431}, {"on": false, "note": 74, "velocity": 0, "until": 550.1966707333431}, {"on": false, "note": 77, "velocity": 0, "until": 550.2137355666765}, {"on": true, "note": 77, "velocity": 106, "until": 550.2137355666765}, {"on": true, "note": 74, "velocity": 106, "until": 550.2990597333434}, {"on": false, "note": 74, "velocity": 0, "until": 550.2990597333434}, {"on": false, "note": 77, "velocity": 0, "until": 550.3161245666768}, {"on": true, "note": 77, "velocity": 106, "until": 550.3161245666768}, {"on": true, "note": 74, "velocity": 106, "until": 550.4014487333436}, {"on": false, "note": 74, "velocity": 0, "until": 550.4014487333436}, {"on": false, "note": 77, "velocity": 0, "until": 550.418592791677}, {"on": true, "note": 77, "velocity": 106, "until": 550.418592791677}, {"on": true, "note": 74, "velocity": 106, "until": 550.5078782083443}, {"on": false, "note": 74, "velocity": 0, "until": 550.5078782083443}, {"on": false, "note": 77, "velocity": 0, "until": 550.525735291678}, {"on": true, "note": 77, "velocity": 106, "until": 550.525735291678}, {"on": true, "note": 74, "velocity": 106, "until": 550.6150207083451}, {"on": false, "note": 74, "velocity": 0, "until": 550.6150207083451}, {"on": false, "note": 77, "velocity": 0, "until": 550.6328777916785}, {"on": true, "note": 77, "velocity": 106, "until": 550.6328777916785}, {"on": true, "note": 74, "velocity": 106, "until": 550.7221632083453}, {"on": false, "note": 74, "velocity": 0, "until": 550.7221632083453}, {"on": false, "note": 77, "velocity": 0, "until": 550.7400202916787}, {"on": true, "note": 77, "velocity": 106, "until": 550.7400202916787}, {"on": true, "note": 74, "velocity": 106, "until": 550.8293057083454}, {"on": false, "note": 74, "velocity": 0, "until": 550.8293057083454}, {"on": false, "note": 77, "velocity": 0, "until": 550.8470835666787}, {"on": true, "note": 77, "velocity": 106, "until": 550.8470835666787}, {"on": true, "note": 74, "velocity": 106, "until": 550.9324077333454}, {"on": false, "note": 74, "velocity": 0, "until": 550.9324077333454}, {"on": false, "note": 77, "velocity": 0, "until": 550.9494725666788}, {"on": true, "note": 77, "velocity": 106, "until": 550.9494725666788}, {"on": true, "note": 74, "velocity": 106, "until": 551.0347967333455}, {"on": false, "note": 74, "velocity": 0, "until": 551.0347967333455}, {"on": false, "note": 77, "velocity": 0, "until": 551.0518615666789}, {"on": true, "note": 77, "velocity": 106, "until": 551.0518615666789}, {"on": true, "note": 74, "velocity": 106, "until": 551.1371857333457}, {"on": false, "note": 74, "velocity": 0, "until": 551.1371857333457}, {"on": false, "note": 77, "velocity": 0, "until": 551.1542505666791}, {"on": true, "note": 77, "velocity": 106, "until": 551.1542505666791}, {"on": true, "note": 74, "velocity": 106, "until": 551.239574733346}, {"on": false, "note": 74, "velocity": 0, "until": 551.239574733346}, {"on": false, "note": 77, "velocity": 0, "until": 551.2567187916794}, {"on": true, "note": 77, "velocity": 106, "until": 551.2567187916794}, {"on": true, "note": 74, "velocity": 106, "until": 551.3460042083467}, {"on": false, "note": 74, "velocity": 0, "until": 551.3460042083467}, {"on": false, "note": 77, "velocity": 0, "until": 551.3638612916803}, {"on": true, "note": 77, "velocity": 106, "until": 551.3638612916803}, {"on": true, "note": 74, "velocity": 106, "until": 551.4531467083475}, {"on": false, "note": 74, "velocity": 0, "until": 551.4531467083475}, {"on": false, "note": 77, "velocity": 0, "until": 551.4710037916809}, {"on": true, "note": 77, "velocity": 106, "until": 551.4710037916809}, {"on": true, "note": 74, "velocity": 106, "until": 551.5602892083476}, {"on": false, "note": 74, "velocity": 0, "until": 551.5602892083476}, {"on": false, "note": 77, "velocity": 0, "until": 551.578146291681}, {"on": true, "note": 77, "velocity": 106, "until": 551.578146291681}, {"on": true, "note": 74, "velocity": 106, "until": 551.6674317083477}, {"on": false, "note": 74, "velocity": 0, "until": 551.6674317083477}, {"on": false, "note": 77, "velocity": 0, "until": 551.6852095666811}, {"on": true, "note": 77, "velocity": 106, "until": 551.6852095666811}, {"on": true, "note": 74, "velocity": 106, "until": 551.7705337333479}, {"on": false, "note": 74, "velocity": 0, "until": 551.7705337333479}, {"on": false, "note": 77, "velocity": 0, "until": 551.7875985666813}, {"on": true, "note": 77, "velocity": 106, "until": 551.7875985666813}, {"on": true, "note": 74, "velocity": 106, "until": 551.872922733348}, {"on": false, "note": 74, "velocity": 0, "until": 551.872922733348}, {"on": false, "note": 77, "velocity": 0, "until": 551.8899875666814}, {"on": true, "note": 77, "velocity": 106, "until": 551.8899875666814}, {"on": true, "note": 74, "velocity": 106, "until": 551.9753117333481}, {"on": false, "note": 74, "velocity": 0, "until": 551.9753117333481}, {"on": false, "note": 77, "velocity": 0, "until": 551.9923765666815}, {"on": true, "note": 77, "velocity": 106, "until": 551.9923765666815}, {"on": true, "note": 74, "velocity": 106, "until": 552.0777007333483}, {"on": false, "note": 74, "velocity": 0, "until": 552.0777007333483}, {"on": false, "note": 77, "velocity": 0, "until": 552.0948447916817}, {"on": true, "note": 77, "velocity": 106, "until": 552.0948447916817}, {"on": true, "note": 74, "velocity": 106, "until": 552.1841302083484}, {"on": false, "note": 74, "velocity": 0, "until": 552.1841302083484}, {"on": false, "note": 77, "velocity": 0, "until": 552.2019872916818}, {"on": true, "note": 77, "velocity": 106, "until": 552.2019872916818}, {"on": true, "note": 74, "velocity": 106, "until": 552.2912727083485}, {"on": false, "note": 74, "velocity": 0, "until": 552.2912727083485}, {"on": false, "note": 77, "velocity": 0, "until": 552.3091297916819}, {"on": true, "note": 77, "velocity": 106, "until": 552.3091297916819}, {"on": true, "note": 74, "velocity": 106, "until": 552.3984152083486}, {"on": false, "note": 74, "velocity": 0, "until": 552.3984152083486}, {"on": false, "note": 77, "velocity": 0, "until": 552.416272291682}, {"on": true, "note": 77, "velocity": 106, "until": 552.416272291682}, {"on": true, "note": 74, "velocity": 106, "until": 552.5055577083488}, {"on": false, "note": 74, "velocity": 0, "until": 552.5055577083488}, {"on": false, "note": 77, "velocity": 0, "until": 552.5233355666821}, {"on": true, "note": 77, "velocity": 106, "until": 552.5233355666821}, {"on": true, "note": 74, "velocity": 106, "until": 552.6086597333489}, {"on": false, "note": 74, "velocity": 0, "until": 552.6086597333489}, {"on": false, "note": 77, "velocity": 0, "until": 552.6257245666823}, {"on": true, "note": 77, "velocity": 106, "until": 552.6257245666823}, {"on": true, "note": 74, "velocity": 106, "until": 552.711048733349}, {"on": false, "note": 74, "velocity": 0, "until": 552.711048733349}, {"on": false, "note": 77, "velocity": 0, "until": 552.7281135666824}, {"on": true, "note": 77, "velocity": 106, "until": 552.7281135666824}, {"on": true, "note": 74, "velocity": 106, "until": 552.8134377333492}, {"on": false, "note": 74, "velocity": 0, "until": 552.8134377333492}, {"on": false, "note": 77, "velocity": 0, "until": 552.8305025666826}, {"on": true, "note": 77, "velocity": 106, "until": 552.8305025666826}, {"on": true, "note": 74, "velocity": 106, "until": 552.9158267333495}, {"on": false, "note": 74, "velocity": 0, "until": 552.9158267333495}, {"on": false, "note": 77, "velocity": 0, "until": 552.9329707916829}, {"on": true, "note": 77, "velocity": 106, "until": 552.9329707916829}, {"on": true, "note": 74, "velocity": 106, "until": 553.0222562083502}, {"on": false, "note": 74, "velocity": 0, "until": 553.0222562083502}, {"on": false, "note": 77, "velocity": 0, "until": 553.0401132916838}, {"on": true, "note": 77, "velocity": 106, "until": 553.0401132916838}, {"on": true, "note": 74, "velocity": 106, "until": 553.129398708351}, {"on": false, "note": 74, "velocity": 0, "until": 553.129398708351}, {"on": false, "note": 77, "velocity": 0, "until": 553.1472557916844}, {"on": true, "note": 77, "velocity": 106, "until": 553.1472557916844}, {"on": true, "note": 74, "velocity": 106, "until": 553.2365412083511}, {"on": false, "note": 74, "velocity": 0, "until": 553.2365412083511}, {"on": false, "note": 77, "velocity": 0, "until": 553.2543982916845}, {"on": true, "note": 77, "velocity": 106, "until": 553.2543982916845}, {"on": true, "note": 74, "velocity": 106, "until": 553.3436837083513}, {"on": false, "note": 74, "velocity": 0, "until": 553.3436837083513}, {"on": false, "note": 77, "velocity": 0, "until": 553.3614615666846}, {"on": true, "note": 77, "velocity": 106, "until": 553.3614615666846}, {"on": true, "note": 74, "velocity": 106, "until": 553.4467857333512}, {"on": false, "note": 74, "velocity": 0, "until": 553.4467857333512}, {"on": false, "note": 77, "velocity": 0, "until": 553.4638505666846}, {"on": true, "note": 77, "velocity": 106, "until": 553.4638505666846}, {"on": true, "note": 74, "velocity": 106, "until": 553.5491747333514}, {"on": false, "note": 74, "velocity": 0, "until": 553.5491747333514}, {"on": false, "note": 77, "velocity": 0, "until": 553.5662395666848}, {"on": true, "note": 77, "velocity": 106, "until": 553.5662395666848}, {"on": true, "note": 74, "velocity": 106, "until": 553.6515637333516}, {"on": false, "note": 74, "velocity": 0, "until": 553.6515637333516}, {"on": false, "note": 77, "velocity": 0, "until": 553.668628566685}, {"on": true, "note": 77, "velocity": 106, "until": 553.668628566685}, {"on": true, "note": 74, "velocity": 106, "until": 553.7539527333519}, {"on": false, "note": 74, "velocity": 0, "until": 553.7539527333519}, {"on": false, "note": 77, "velocity": 0, "until": 553.7710967916853}, {"on": true, "note": 77, "velocity": 106, "until": 553.7710967916853}, {"on": true, "note": 74, "velocity": 106, "until": 553.8603822083526}, {"on": false, "note": 74, "velocity": 0, "until": 553.8603822083526}, {"on": false, "note": 77, "velocity": 0, "until": 553.8782392916862}, {"on": true, "note": 77, "velocity": 106, "until": 553.8782392916862}, {"on": true, "note": 74, "velocity": 106, "until": 553.9675247083534}, {"on": false, "note": 74, "velocity": 0, "until": 553.9675247083534}, {"on": false, "note": 77, "velocity": 0, "until": 553.9853817916868}, {"on": true, "note": 77, "velocity": 106, "until": 553.9853817916868}, {"on": true, "note": 74, "velocity": 106, "until": 554.0746672083535}, {"on": false, "note": 74, "velocity": 0, "until": 554.0746672083535}, {"on": false, "note": 77, "velocity": 0, "until": 554.0925242916869}, {"on": true, "note": 77, "velocity": 106, "until": 554.0925242916869}, {"on": true, "note": 74, "velocity": 106, "until": 554.1818097083536}, {"on": false, "note": 74, "velocity": 0, "until": 554.1818097083536}, {"on": false, "note": 77, "velocity": 0, "until": 554.199587566687}, {"on": true, "note": 77, "velocity": 106, "until": 554.199587566687}, {"on": true, "note": 74, "velocity": 106, "until": 554.2849117333536}, {"on": false, "note": 74, "velocity": 0, "until": 554.2849117333536}, {"on": false, "note": 77, "velocity": 0, "until": 554.301976566687}, {"on": true, "note": 77, "velocity": 106, "until": 554.301976566687}, {"on": true, "note": 74, "velocity": 106, "until": 554.3873007333538}, {"on": false, "note": 74, "velocity": 0, "until": 554.3873007333538}, {"on": false, "note": 77, "velocity": 0, "until": 554.4043655666871}, {"on": true, "note": 77, "velocity": 106, "until": 554.4043655666871}, {"on": true, "note": 74, "velocity": 106, "until": 554.489689733354}, {"on": false, "note": 74, "velocity": 0, "until": 554.489689733354}, {"on": false, "note": 77, "velocity": 0, "until": 554.5067545666874}, {"on": true, "note": 77, "velocity": 106, "until": 554.5067545666874}, {"on": true, "note": 74, "velocity": 106, "until": 554.5920787333542}, {"on": false, "note": 74, "velocity": 0, "until": 554.5920787333542}, {"on": false, "note": 77, "velocity": 0, "until": 554.6092227916877}, {"on": true, "note": 75, "velocity": 106, "until": 554.6092227916877}, {"on": true, "note": 63, "velocity": 106, "until": 554.698508208355}, {"on": false, "note": 63, "velocity": 0, "until": 554.698508208355}, {"on": false, "note": 75, "velocity": 0, "until": 554.7163652916886}, {"on": true, "note": 63, "velocity": 106, "until": 554.7163652916886}, {"on": true, "note": 75, "velocity": 106, "until": 554.8056507083558}, {"on": false, "note": 75, "velocity": 0, "until": 554.8056507083558}, {"on": false, "note": 63, "velocity": 0, "until": 554.8235077916892}, {"on": true, "note": 75, "velocity": 106, "until": 554.8235077916892}, {"on": true, "note": 63, "velocity": 106, "until": 554.9127932083559}, {"on": false, "note": 63, "velocity": 0, "until": 554.9127932083559}, {"on": false, "note": 75, "velocity": 0, "until": 554.9306502916893}, {"on": true, "note": 63, "velocity": 106, "until": 554.9306502916893}, {"on": true, "note": 75, "velocity": 106, "until": 555.019935708356}, {"on": false, "note": 75, "velocity": 0, "until": 555.019935708356}, {"on": false, "note": 63, "velocity": 0, "until": 555.0377135666894}, {"on": true, "note": 63, "velocity": 106, "until": 555.0377135666894}, {"on": true, "note": 75, "velocity": 106, "until": 555.1230377333561}, {"on": false, "note": 75, "velocity": 0, "until": 555.1230377333561}, {"on": false, "note": 63, "velocity": 0, "until": 555.1401025666895}, {"on": true, "note": 75, "velocity": 106, "until": 555.1401025666895}, {"on": true, "note": 63, "velocity": 106, "until": 555.2254267333562}, {"on": false, "note": 63, "velocity": 0, "until": 555.2254267333562}, {"on": false, "note": 75, "velocity": 0, "until": 555.2424915666896}, {"on": true, "note": 63, "velocity": 106, "until": 555.2424915666896}, {"on": true, "note": 75, "velocity": 106, "until": 555.3278157333564}, {"on": false, "note": 75, "velocity": 0, "until": 555.3278157333564}, {"on": false, "note": 63, "velocity": 0, "until": 555.3448805666898}, {"on": true, "note": 75, "velocity": 106, "until": 555.3448805666898}, {"on": true, "note": 63, "velocity": 106, "until": 555.4302047333565}, {"on": false, "note": 63, "velocity": 0, "until": 555.4302047333565}, {"on": false, "note": 75, "velocity": 0, "until": 555.4473487916899}, {"on": true, "note": 75, "velocity": 106, "until": 555.4473487916899}, {"on": true, "note": 63, "velocity": 106, "until": 555.5366342083566}, {"on": false, "note": 63, "velocity": 0, "until": 555.5366342083566}, {"on": false, "note": 75, "velocity": 0, "until": 555.55449129169}, {"on": true, "note": 63, "velocity": 106, "until": 555.55449129169}, {"on": true, "note": 75, "velocity": 106, "until": 555.6437767083568}, {"on": false, "note": 75, "velocity": 0, "until": 555.6437767083568}, {"on": false, "note": 63, "velocity": 0, "until": 555.6616337916902}, {"on": true, "note": 75, "velocity": 106, "until": 555.6616337916902}, {"on": true, "note": 63, "velocity": 106, "until": 555.7509192083569}, {"on": false, "note": 63, "velocity": 0, "until": 555.7509192083569}, {"on": false, "note": 75, "velocity": 0, "until": 555.7687762916903}, {"on": true, "note": 63, "velocity": 106, "until": 555.7687762916903}, {"on": true, "note": 75, "velocity": 106, "until": 555.858061708357}, {"on": false, "note": 75, "velocity": 0, "until": 555.858061708357}, {"on": false, "note": 63, "velocity": 0, "until": 555.8758395666904}, {"on": true, "note": 63, "velocity": 106, "until": 555.8758395666904}, {"on": true, "note": 75, "velocity": 106, "until": 555.9611637333571}, {"on": false, "note": 75, "velocity": 0, "until": 555.9611637333571}, {"on": false, "note": 63, "velocity": 0, "until": 555.9782285666905}, {"on": true, "note": 75, "velocity": 106, "until": 555.9782285666905}, {"on": true, "note": 63, "velocity": 106, "until": 556.0635527333573}, {"on": false, "note": 63, "velocity": 0, "until": 556.0635527333573}, {"on": false, "note": 75, "velocity": 0, "until": 556.0806175666906}, {"on": true, "note": 63, "velocity": 106, "until": 556.0806175666906}, {"on": true, "note": 75, "velocity": 106, "until": 556.1659417333574}, {"on": false, "note": 75, "velocity": 0, "until": 556.1659417333574}, {"on": false, "note": 63, "velocity": 0, "until": 556.1830065666908}, {"on": true, "note": 75, "velocity": 106, "until": 556.1830065666908}, {"on": true, "note": 63, "velocity": 106, "until": 556.2683307333575}, {"on": false, "note": 63, "velocity": 0, "until": 556.2683307333575}, {"on": false, "note": 75, "velocity": 0, "until": 556.285474791691}, {"on": true, "note": 75, "velocity": 106, "until": 556.285474791691}, {"on": true, "note": 63, "velocity": 106, "until": 556.3747602083578}, {"on": false, "note": 63, "velocity": 0, "until": 556.3747602083578}, {"on": false, "note": 75, "velocity": 0, "until": 556.3926172916912}, {"on": true, "note": 63, "velocity": 106, "until": 556.3926172916912}, {"on": true, "note": 75, "velocity": 106, "until": 556.4819027083579}, {"on": false, "note": 75, "velocity": 0, "until": 556.4819027083579}, {"on": false, "note": 63, "velocity": 0, "until": 556.4997597916913}, {"on": true, "note": 75, "velocity": 106, "until": 556.4997597916913}, {"on": true, "note": 63, "velocity": 106, "until": 556.589045208358}, {"on": false, "note": 63, "velocity": 0, "until": 556.589045208358}, {"on": false, "note": 75, "velocity": 0, "until": 556.6069022916914}, {"on": true, "note": 63, "velocity": 106, "until": 556.6069022916914}, {"on": true, "note": 75, "velocity": 106, "until": 556.6961877083581}, {"on": false, "note": 75, "velocity": 0, "until": 556.6961877083581}, {"on": false, "note": 63, "velocity": 0, "until": 556.7139655666915}, {"on": true, "note": 63, "velocity": 106, "until": 556.7139655666915}, {"on": true, "note": 75, "velocity": 106, "until": 556.7992897333583}, {"on": false, "note": 75, "velocity": 0, "until": 556.7992897333583}, {"on": false, "note": 63, "velocity": 0, "until": 556.8163545666916}, {"on": true, "note": 75, "velocity": 106, "until": 556.8163545666916}, {"on": true, "note": 63, "velocity": 106, "until": 556.9016787333584}, {"on": false, "note": 63, "velocity": 0, "until": 556.9016787333584}, {"on": false, "note": 75, "velocity": 0, "until": 556.9187435666918}, {"on": true, "note": 63, "velocity": 106, "until": 556.9187435666918}, {"on": true, "note": 75, "velocity": 106, "until": 557.0040677333585}, {"on": false, "note": 75, "velocity": 0, "until": 557.0040677333585}, {"on": false, "note": 63, "velocity": 0, "until": 557.0211325666919}, {"on": true, "note": 75, "velocity": 106, "until": 557.0211325666919}, {"on": true, "note": 63, "velocity": 106, "until": 557.1064567333586}, {"on": false, "note": 63, "velocity": 0, "until": 557.1064567333586}, {"on": false, "note": 75, "velocity": 0, "until": 557.1236007916921}, {"on": true, "note": 75, "velocity": 106, "until": 557.1236007916921}, {"on": true, "note": 63, "velocity": 106, "until": 557.2128862083589}, {"on": false, "note": 63, "velocity": 0, "until": 557.2128862083589}, {"on": false, "note": 75, "velocity": 0, "until": 557.2307432916923}, {"on": true, "note": 63, "velocity": 106, "until": 557.2307432916923}, {"on": true, "note": 75, "velocity": 106, "until": 557.320028708359}, {"on": false, "note": 75, "velocity": 0, "until": 557.320028708359}, {"on": false, "note": 63, "velocity": 0, "until": 557.3378857916924}, {"on": true, "note": 75, "velocity": 106, "until": 557.3378857916924}, {"on": true, "note": 63, "velocity": 106, "until": 557.4271712083591}, {"on": false, "note": 63, "velocity": 0, "until": 557.4271712083591}, {"on": false, "note": 75, "velocity": 0, "until": 557.4450282916926}, {"on": true, "note": 63, "velocity": 106, "until": 557.4450282916926}, {"on": true, "note": 75, "velocity": 106, "until": 557.5343137083593}, {"on": false, "note": 75, "velocity": 0, "until": 557.5343137083593}, {"on": false, "note": 63, "velocity": 0, "until": 557.5520915666926}, {"on": true, "note": 63, "velocity": 106, "until": 557.5520915666926}, {"on": true, "note": 75, "velocity": 106, "until": 557.6374157333594}, {"on": false, "note": 75, "velocity": 0, "until": 557.6374157333594}, {"on": false, "note": 63, "velocity": 0, "until": 557.6544805666928}, {"on": true, "note": 75, "velocity": 106, "until": 557.6544805666928}, {"on": true, "note": 63, "velocity": 106, "until": 557.7398047333595}, {"on": false, "note": 63, "velocity": 0, "until": 557.7398047333595}, {"on": false, "note": 75, "velocity": 0, "until": 557.7568695666929}, {"on": true, "note": 63, "velocity": 106, "until": 557.7568695666929}, {"on": true, "note": 75, "velocity": 106, "until": 557.8421937333596}, {"on": false, "note": 75, "velocity": 0, "until": 557.8421937333596}, {"on": false, "note": 63, "velocity": 0, "until": 557.859258566693}, {"on": true, "note": 75, "velocity": 106, "until": 557.859258566693}, {"on": true, "note": 63, "velocity": 106, "until": 557.9445827333598}, {"on": false, "note": 63, "velocity": 0, "until": 557.9445827333598}, {"on": false, "note": 75, "velocity": 0, "until": 557.9617267916932}, {"on": true, "note": 75, "velocity": 106, "until": 557.9617267916932}, {"on": true, "note": 63, "velocity": 106, "until": 558.1760117916934}, {"on": false, "note": 63, "velocity": 0, "until": 558.1760117916934}, {"on": false, "note": 75, "velocity": 0, "until": 558.3902175666937}, {"on": true, "note": 60, "velocity": 106, "until": 558.4926065666937}, {"on": false, "note": 60, "velocity": 0, "until": 558.4926065666937}, {"on": true, "note": 59, "velocity": 106, "until": 558.5949955666937}, {"on": false, "note": 59, "velocity": 0, "until": 558.5949955666937}, {"on": true, "note": 60, "velocity": 106, "until": 558.6973845666937}, {"on": false, "note": 60, "velocity": 0, "until": 558.6973845666937}, {"on": true, "note": 62, "velocity": 106, "until": 558.7998527916938}, {"on": false, "note": 62, "velocity": 0, "until": 558.7998527916938}, {"on": true, "note": 63, "velocity": 106, "until": 559.0141377916942}, {"on": false, "note": 63, "velocity": 0, "until": 559.2283435666944}, {"on": true, "note": 60, "velocity": 106, "until": 559.3307325666945}, {"on": false, "note": 60, "velocity": 0, "until": 559.3307325666945}, {"on": true, "note": 62, "velocity": 106, "until": 559.4331215666945}, {"on": false, "note": 62, "velocity": 0, "until": 559.4331215666945}, {"on": true, "note": 64, "velocity": 106, "until": 559.5355105666945}, {"on": false, "note": 64, "velocity": 0, "until": 559.5355105666945}, {"on": true, "note": 65, "velocity": 106, "until": 559.6379787916945}, {"on": false, "note": 65, "velocity": 0, "until": 559.6379787916945}, {"on": true, "note": 67, "velocity": 106, "until": 559.852263791695}, {"on": false, "note": 67, "velocity": 0, "until": 560.0664695666952}, {"on": true, "note": 55, "velocity": 106, "until": 560.1688585666952}, {"on": false, "note": 55, "velocity": 0, "until": 560.1688585666952}, {"on": true, "note": 57, "velocity": 106, "until": 560.2712475666953}, {"on": false, "note": 57, "velocity": 0, "until": 560.2712475666953}, {"on": true, "note": 59, "velocity": 106, "until": 560.3736365666953}, {"on": false, "note": 59, "velocity": 0, "until": 560.3736365666953}, {"on": true, "note": 60, "velocity": 106, "until": 560.4761047916953}, {"on": false, "note": 60, "velocity": 0, "until": 560.4761047916953}, {"on": true, "note": 62, "velocity": 106, "until": 560.6906874166957}, {"on": false, "note": 62, "velocity": 0, "until": 561.3898277916959}, {"on": true, "note": 75, "velocity": 106, "until": 561.3898277916959}, {"on": true, "note": 63, "velocity": 106, "until": 561.479113208363}, {"on": false, "note": 63, "velocity": 0, "until": 561.479113208363}, {"on": false, "note": 75, "velocity": 0, "until": 561.4969702916965}, {"on": true, "note": 63, "velocity": 106, "until": 561.4969702916965}, {"on": true, "note": 75, "velocity": 106, "until": 561.5862557083632}, {"on": false, "note": 75, "velocity": 0, "until": 561.5862557083632}, {"on": false, "note": 63, "velocity": 0, "until": 561.6041127916966}, {"on": true, "note": 75, "velocity": 106, "until": 561.6041127916966}, {"on": true, "note": 63, "velocity": 106, "until": 561.6933982083633}, {"on": false, "note": 63, "velocity": 0, "until": 561.6933982083633}, {"on": false, "note": 75, "velocity": 0, "until": 561.7112552916967}, {"on": true, "note": 63, "velocity": 106, "until": 561.7112552916967}, {"on": true, "note": 75, "velocity": 106, "until": 561.8005407083634}, {"on": false, "note": 75, "velocity": 0, "until": 561.8005407083634}, {"on": false, "note": 63, "velocity": 0, "until": 561.8183185666968}, {"on": true, "note": 63, "velocity": 106, "until": 561.8183185666968}, {"on": true, "note": 75, "velocity": 106, "until": 561.9036427333635}, {"on": false, "note": 75, "velocity": 0, "until": 561.9036427333635}, {"on": false, "note": 63, "velocity": 0, "until": 561.9207075666969}, {"on": true, "note": 75, "velocity": 106, "until": 561.9207075666969}, {"on": true, "note": 63, "velocity": 106, "until": 562.0060317333637}, {"on": false, "note": 63, "velocity": 0, "until": 562.0060317333637}, {"on": false, "note": 75, "velocity": 0, "until": 562.0230965666971}, {"on": true, "note": 63, "velocity": 106, "until": 562.0230965666971}, {"on": true, "note": 75, "velocity": 106, "until": 562.1084207333638}, {"on": false, "note": 75, "velocity": 0, "until": 562.1084207333638}, {"on": false, "note": 63, "velocity": 0, "until": 562.1254855666972}, {"on": true, "note": 75, "velocity": 106, "until": 562.1254855666972}, {"on": true, "note": 63, "velocity": 106, "until": 562.2108097333639}, {"on": false, "note": 63, "velocity": 0, "until": 562.2108097333639}, {"on": false, "note": 75, "velocity": 0, "until": 562.2279537916974}, {"on": true, "note": 75, "velocity": 106, "until": 562.2279537916974}, {"on": true, "note": 63, "velocity": 106, "until": 562.3172392083641}, {"on": false, "note": 63, "velocity": 0, "until": 562.3172392083641}, {"on": false, "note": 75, "velocity": 0, "until": 562.3350962916975}, {"on": true, "note": 63, "velocity": 106, "until": 562.3350962916975}, {"on": true, "note": 75, "velocity": 106, "until": 562.4243817083642}, {"on": false, "note": 75, "velocity": 0, "until": 562.4243817083642}, {"on": false, "note": 63, "velocity": 0, "until": 562.4422387916976}, {"on": true, "note": 75, "velocity": 106, "until": 562.4422387916976}, {"on": true, "note": 63, "velocity": 106, "until": 562.5315242083643}, {"on": false, "note": 63, "velocity": 0, "until": 562.5315242083643}, {"on": false, "note": 75, "velocity": 0, "until": 562.5493812916977}, {"on": true, "note": 63, "velocity": 106, "until": 562.5493812916977}, {"on": true, "note": 75, "velocity": 106, "until": 562.6386667083644}, {"on": false, "note": 75, "velocity": 0, "until": 562.6386667083644}, {"on": false, "note": 63, "velocity": 0, "until": 562.6564445666978}, {"on": true, "note": 63, "velocity": 106, "until": 562.6564445666978}, {"on": true, "note": 75, "velocity": 106, "until": 562.7417687333646}, {"on": false, "note": 75, "velocity": 0, "until": 562.7417687333646}, {"on": false, "note": 63, "velocity": 0, "until": 562.758833566698}, {"on": true, "note": 75, "velocity": 106, "until": 562.758833566698}, {"on": true, "note": 63, "velocity": 106, "until": 562.8441577333647}, {"on": false, "note": 63, "velocity": 0, "until": 562.8441577333647}, {"on": false, "note": 75, "velocity": 0, "until": 562.8612225666981}, {"on": true, "note": 63, "velocity": 106, "until": 562.8612225666981}, {"on": true, "note": 75, "velocity": 106, "until": 562.9465467333648}, {"on": false, "note": 75, "velocity": 0, "until": 562.9465467333648}, {"on": false, "note": 63, "velocity": 0, "until": 562.9636115666982}, {"on": true, "note": 75, "velocity": 106, "until": 562.9636115666982}, {"on": true, "note": 63, "velocity": 106, "until": 563.0489357333649}, {"on": false, "note": 63, "velocity": 0, "until": 563.0489357333649}, {"on": false, "note": 75, "velocity": 0, "until": 563.0660797916984}, {"on": true, "note": 75, "velocity": 106, "until": 563.0660797916984}, {"on": true, "note": 63, "velocity": 106, "until": 563.1553652083652}, {"on": false, "note": 63, "velocity": 0, "until": 563.1553652083652}, {"on": false, "note": 75, "velocity": 0, "until": 563.1732222916986}, {"on": true, "note": 63, "velocity": 106, "until": 563.1732222916986}, {"on": true, "note": 75, "velocity": 106, "until": 563.2625077083653}, {"on": false, "note": 75, "velocity": 0, "until": 563.2625077083653}, {"on": false, "note": 63, "velocity": 0, "until": 563.2803647916987}, {"on": true, "note": 75, "velocity": 106, "until": 563.2803647916987}, {"on": true, "note": 63, "velocity": 106, "until": 563.3696502083654}, {"on": false, "note": 63, "velocity": 0, "until": 563.3696502083654}, {"on": false, "note": 75, "velocity": 0, "until": 563.3875072916989}, {"on": true, "note": 63, "velocity": 106, "until": 563.3875072916989}, {"on": true, "note": 75, "velocity": 106, "until": 563.4767927083656}, {"on": false, "note": 75, "velocity": 0, "until": 563.4767927083656}, {"on": false, "note": 63, "velocity": 0, "until": 563.4945705666989}, {"on": true, "note": 63, "velocity": 106, "until": 563.4945705666989}, {"on": true, "note": 75, "velocity": 106, "until": 563.5798947333657}, {"on": false, "note": 75, "velocity": 0, "until": 563.5798947333657}, {"on": false, "note": 63, "velocity": 0, "until": 563.5969595666991}, {"on": true, "note": 75, "velocity": 106, "until": 563.5969595666991}, {"on": true, "note": 63, "velocity": 106, "until": 563.6822837333658}, {"on": false, "note": 63, "velocity": 0, "until": 563.6822837333658}, {"on": false, "note": 75, "velocity": 0, "until": 563.6993485666992}, {"on": true, "note": 63, "velocity": 106, "until": 563.6993485666992}, {"on": true, "note": 75, "velocity": 106, "until": 563.7846727333659}, {"on": false, "note": 75, "velocity": 0, "until": 563.7846727333659}, {"on": false, "note": 63, "velocity": 0, "until": 563.8017375666993}, {"on": true, "note": 75, "velocity": 106, "until": 563.8017375666993}, {"on": true, "note": 63, "velocity": 106, "until": 563.8870617333661}, {"on": false, "note": 63, "velocity": 0, "until": 563.8870617333661}, {"on": false, "note": 75, "velocity": 0, "until": 563.9042057916995}, {"on": true, "note": 75, "velocity": 106, "until": 563.9042057916995}, {"on": true, "note": 63, "velocity": 106, "until": 563.9934912083663}, {"on": false, "note": 63, "velocity": 0, "until": 563.9934912083663}, {"on": false, "note": 75, "velocity": 0, "until": 564.0113482916997}, {"on": true, "note": 63, "velocity": 106, "until": 564.0113482916997}, {"on": true, "note": 75, "velocity": 106, "until": 564.1006337083664}, {"on": false, "note": 75, "velocity": 0, "until": 564.1006337083664}, {"on": false, "note": 63, "velocity": 0, "until": 564.1184907916999}, {"on": true, "note": 75, "velocity": 106, "until": 564.1184907916999}, {"on": true, "note": 63, "velocity": 106, "until": 564.2077762083666}, {"on": false, "note": 63, "velocity": 0, "until": 564.2077762083666}, {"on": false, "note": 75, "velocity": 0, "until": 564.2256332917}, {"on": true, "note": 63, "velocity": 106, "until": 564.2256332917}, {"on": true, "note": 75, "velocity": 106, "until": 564.3149187083667}, {"on": false, "note": 75, "velocity": 0, "until": 564.3149187083667}, {"on": false, "note": 63, "velocity": 0, "until": 564.3326965667001}, {"on": true, "note": 63, "velocity": 106, "until": 564.3326965667001}, {"on": true, "note": 75, "velocity": 106, "until": 564.4180207333668}, {"on": false, "note": 75, "velocity": 0, "until": 564.4180207333668}, {"on": false, "note": 63, "velocity": 0, "until": 564.4350855667002}, {"on": true, "note": 75, "velocity": 106, "until": 564.4350855667002}, {"on": true, "note": 63, "velocity": 106, "until": 564.5204097333669}, {"on": false, "note": 63, "velocity": 0, "until": 564.5204097333669}, {"on": false, "note": 75, "velocity": 0, "until": 564.5374745667003}, {"on": true, "note": 63, "velocity": 106, "until": 564.5374745667003}, {"on": true, "note": 75, "velocity": 106, "until": 564.6227987333671}, {"on": false, "note": 75, "velocity": 0, "until": 564.6227987333671}, {"on": false, "note": 63, "velocity": 0, "until": 564.6398635667005}, {"on": true, "note": 75, "velocity": 106, "until": 564.6398635667005}, {"on": true, "note": 63, "velocity": 106, "until": 564.7251877333672}, {"on": false, "note": 63, "velocity": 0, "until": 564.7251877333672}, {"on": false, "note": 75, "velocity": 0, "until": 564.7423317917006}, {"on": true, "note": 75, "velocity": 106, "until": 564.7423317917006}, {"on": true, "note": 63, "velocity": 106, "until": 564.9566167917009}, {"on": false, "note": 63, "velocity": 0, "until": 564.9566167917009}, {"on": false, "note": 75, "velocity": 0, "until": 565.1708225667011}, {"on": true, "note": 60, "velocity": 106, "until": 565.2732115667011}, {"on": false, "note": 60, "velocity": 0, "until": 565.2732115667011}, {"on": true, "note": 59, "velocity": 106, "until": 565.3756005667011}, {"on": false, "note": 59, "velocity": 0, "until": 565.3756005667011}, {"on": true, "note": 60, "velocity": 106, "until": 565.4779895667011}, {"on": false, "note": 60, "velocity": 0, "until": 565.4779895667011}, {"on": true, "note": 62, "velocity": 106, "until": 565.5804577917012}, {"on": false, "note": 62, "velocity": 0, "until": 565.5804577917012}, {"on": true, "note": 63, "velocity": 106, "until": 565.7947427917017}, {"on": false, "note": 63, "velocity": 0, "until": 566.0089485667019}, {"on": true, "note": 60, "velocity": 106, "until": 566.1113375667019}, {"on": false, "note": 60, "velocity": 0, "until": 566.1113375667019}, {"on": true, "note": 62, "velocity": 106, "until": 566.2137265667019}, {"on": false, "note": 62, "velocity": 0, "until": 566.2137265667019}, {"on": true, "note": 64, "velocity": 106, "until": 566.3161155667019}, {"on": false, "note": 64, "velocity": 0, "until": 566.3161155667019}, {"on": true, "note": 65, "velocity": 106, "until": 566.4186096750352}, {"on": false, "note": 65, "velocity": 0, "until": 566.4186096750352}, {"on": true, "note": 67, "velocity": 106, "until": 566.6360006750348}, {"on": false, "note": 67, "velocity": 0, "until": 566.8533222417013}, {"on": true, "note": 55, "velocity": 106, "until": 566.9578517417012}, {"on": false, "note": 55, "velocity": 0, "until": 566.9578517417012}, {"on": true, "note": 57, "velocity": 106, "until": 567.0623812417011}, {"on": false, "note": 57, "velocity": 0, "until": 567.0623812417011}, {"on": true, "note": 59, "velocity": 106, "until": 567.166910741701}, {"on": false, "note": 59, "velocity": 0, "until": 567.166910741701}, {"on": true, "note": 60, "velocity": 106, "until": 567.2716211583677}, {"on": false, "note": 60, "velocity": 0, "until": 567.2716211583677}, {"on": true, "note": 62, "velocity": 106, "until": 567.5067170833682}, {"on": false, "note": 62, "velocity": 0, "until": 570.3796307917024}, {"on": true, "note": 67, "velocity": 106, "until": 570.4867732917024}, {"on": false, "note": 67, "velocity": 0, "until": 570.5939157917024}, {"on": true, "note": 67, "velocity": 106, "until": 570.7010582917025}, {"on": false, "note": 67, "velocity": 0, "until": 570.8081215667024}, {"on": true, "note": 67, "velocity": 106, "until": 570.9105105667026}, {"on": false, "note": 67, "velocity": 0, "until": 571.0128995667027}, {"on": true, "note": 67, "velocity": 106, "until": 571.1152885667028}, {"on": false, "note": 67, "velocity": 0, "until": 571.217756791703}, {"on": true, "note": 67, "velocity": 106, "until": 571.646247566703}, {"on": false, "note": 67, "velocity": 0, "until": 573.732134791704}, {"on": true, "note": 67, "velocity": 106, "until": 573.839277291704}, {"on": false, "note": 67, "velocity": 0, "until": 573.946419791704}, {"on": true, "note": 67, "velocity": 106, "until": 574.053562291704}, {"on": false, "note": 67, "velocity": 0, "until": 574.160625566704}, {"on": true, "note": 67, "velocity": 106, "until": 574.2630145667041}, {"on": false, "note": 67, "velocity": 0, "until": 574.3654035667042}, {"on": true, "note": 67, "velocity": 106, "until": 574.4677925667044}, {"on": false, "note": 67, "velocity": 0, "until": 574.5702607917045}, {"on": true, "note": 67, "velocity": 106, "until": 574.9987515667045}, {"on": false, "note": 67, "velocity": 0, "until": 578.7608907917098}, {"on": true, "note": 55, "velocity": 106, "until": 578.9430330417099}, {"on": false, "note": 55, "velocity": 0, "until": 578.97517579171}, {"on": true, "note": 55, "velocity": 106, "until": 579.15731804171}, {"on": false, "note": 55, "velocity": 0, "until": 579.18938156671}, {"on": true, "note": 55, "velocity": 106, "until": 579.3634428667102}, {"on": false, "note": 55, "velocity": 0, "until": 579.3941595667103}, {"on": true, "note": 55, "velocity": 106, "until": 579.5682208667105}, {"on": false, "note": 55, "velocity": 0, "until": 579.5990167917106}, {"on": true, "note": 55, "velocity": 106, "until": 579.7811590417107}, {"on": false, "note": 55, "velocity": 0, "until": 579.8133017917107}, {"on": true, "note": 55, "velocity": 106, "until": 579.9954440417108}, {"on": false, "note": 55, "velocity": 0, "until": 580.0275075667108}, {"on": true, "note": 55, "velocity": 106, "until": 580.201568866711}, {"on": false, "note": 55, "velocity": 0, "until": 580.2322855667111}, {"on": true, "note": 55, "velocity": 106, "until": 580.4063468667113}, {"on": false, "note": 55, "velocity": 0, "until": 580.4371427917114}, {"on": true, "note": 55, "velocity": 106, "until": 580.6192850417116}, {"on": false, "note": 55, "velocity": 0, "until": 580.6514277917117}, {"on": true, "note": 74, "velocity": 106, "until": 580.6514277917117}, {"on": true, "note": 67, "velocity": 106, "until": 580.758570291712}, {"on": false, "note": 67, "velocity": 0, "until": 580.758570291712}, {"on": false, "note": 74, "velocity": 0, "until": 580.8656335667122}, {"on": true, "note": 76, "velocity": 106, "until": 580.8656335667122}, {"on": true, "note": 67, "velocity": 106, "until": 580.9680225667123}, {"on": false, "note": 67, "velocity": 0, "until": 580.9680225667123}, {"on": false, "note": 76, "velocity": 0, "until": 581.0704115667123}, {"on": true, "note": 74, "velocity": 106, "until": 581.0704115667123}, {"on": true, "note": 67, "velocity": 106, "until": 581.1728005667125}, {"on": false, "note": 67, "velocity": 0, "until": 581.1728005667125}, {"on": false, "note": 74, "velocity": 0, "until": 581.2752687917125}, {"on": true, "note": 76, "velocity": 106, "until": 581.2752687917125}, {"on": true, "note": 67, "velocity": 106, "until": 581.3824112917127}, {"on": false, "note": 67, "velocity": 0, "until": 581.3824112917127}, {"on": false, "note": 76, "velocity": 0, "until": 581.489553791713}, {"on": true, "note": 74, "velocity": 106, "until": 581.489553791713}, {"on": true, "note": 67, "velocity": 106, "until": 581.5966962917132}, {"on": false, "note": 67, "velocity": 0, "until": 581.5966962917132}, {"on": false, "note": 74, "velocity": 0, "until": 581.7037595667134}, {"on": true, "note": 76, "velocity": 106, "until": 581.7037595667134}, {"on": true, "note": 67, "velocity": 106, "until": 581.8061485667135}, {"on": false, "note": 67, "velocity": 0, "until": 581.8061485667135}, {"on": false, "note": 76, "velocity": 0, "until": 581.9085375667136}, {"on": true, "note": 74, "velocity": 106, "until": 581.9085375667136}, {"on": true, "note": 67, "velocity": 106, "until": 582.0109265667137}, {"on": false, "note": 67, "velocity": 0, "until": 582.0109265667137}, {"on": false, "note": 74, "velocity": 0, "until": 582.1133332167137}, {"on": true, "note": 76, "velocity": 106, "until": 582.1133332167137}, {"on": true, "note": 67, "velocity": 106, "until": 582.2512638833805}, {"on": false, "note": 67, "velocity": 0, "until": 582.2512638833805}, {"on": false, "note": 76, "velocity": 0, "until": 583.0271804417139}, {"on": true, "note": 67, "velocity": 106, "until": 583.0271804417139}, {"on": true, "note": 76, "velocity": 106, "until": 583.0271804417139}, {"on": true, "note": 60, "velocity": 106, "until": 583.240703441714}, {"on": false, "note": 60, "velocity": 0, "until": 583.240703441714}, {"on": false, "note": 76, "velocity": 0, "until": 583.240703441714}, {"on": false, "note": 67, "velocity": 0, "until": 583.9978027500475}, {"on": true, "note": 60, "velocity": 106, "until": 584.5665227500476}]}, {"id": 12, "states": [{"on": true, "note": 48, "velocity": 106, "until": 0}, {"on": false, "note": 0, "velocity": 0, "until": 1.8100000000000003}, {"on": true, "note": 60, "velocity": 106, "until": 4.809999999999984}, {"on": false, "note": 60, "velocity": 0, "until": 4.809999999999984}, {"on": false, "note": 48, "velocity": 0, "until": 4.809999999999984}, {"on": true, "note": 60, "velocity": 121, "until": 4.909999999999982}, {"on": false, "note": 60, "velocity": 0, "until": 4.909999999999982}, {"on": true, "note": 62, "velocity": 121, "until": 5.009999999999981}, {"on": false, "note": 62, "velocity": 0, "until": 5.009999999999981}, {"on": true, "note": 64, "velocity": 121, "until": 5.10999999999998}, {"on": false, "note": 64, "velocity": 0, "until": 5.10999999999998}, {"on": true, "note": 65, "velocity": 121, "until": 5.209999999999979}, {"on": false, "note": 65, "velocity": 0, "until": 5.209999999999979}, {"on": true, "note": 67, "velocity": 121, "until": 5.309999999999977}, {"on": false, "note": 67, "velocity": 0, "until": 5.309999999999977}, {"on": true, "note": 69, "velocity": 121, "until": 5.410638291666643}, {"on": false, "note": 69, "velocity": 0, "until": 5.410638291666643}, {"on": true, "note": 70, "velocity": 76, "until": 6.048935791666645}, {"on": false, "note": 70, "velocity": 0, "until": 6.687233291666646}, {"on": true, "note": 69, "velocity": 76, "until": 7.3255307916666474}, {"on": false, "note": 69, "velocity": 0, "until": 9.67747499999999}, {"on": true, "note": 48, "velocity": 106, "until": 9.67747499999999}, {"on": true, "note": 60, "velocity": 106, "until": 12.67747499999997}, {"on": false, "note": 60, "velocity": 0, "until": 12.67747499999997}, {"on": false, "note": 48, "velocity": 0, "until": 12.67747499999997}, {"on": true, "note": 60, "velocity": 121, "until": 12.797474999999968}, {"on": false, "note": 60, "velocity": 0, "until": 12.797474999999968}, {"on": true, "note": 62, "velocity": 121, "until": 12.917474999999966}, {"on": false, "note": 62, "velocity": 0, "until": 12.917474999999966}, {"on": true, "note": 64, "velocity": 121, "until": 13.037474999999963}, {"on": false, "note": 64, "velocity": 0, "until": 13.037474999999963}, {"on": true, "note": 65, "velocity": 121, "until": 13.157474999999963}, {"on": false, "note": 65, "velocity": 0, "until": 13.157474999999963}, {"on": true, "note": 67, "velocity": 121, "until": 13.278586108333295}, {"on": false, "note": 67, "velocity": 0, "until": 13.278586108333295}, {"on": true, "note": 68, "velocity": 106, "until": 13.945252608333293}, {"on": false, "note": 68, "velocity": 0, "until": 14.611919108333291}, {"on": true, "note": 67, "velocity": 106, "until": 15.27858560833329}, {"on": false, "note": 67, "velocity": 0, "until": 27.729080000000053}, {"on": true, "note": 55, "velocity": 106, "until": 28.929949558333423}, {"on": false, "note": 55, "velocity": 0, "until": 28.929949558333423}, {"on": true, "note": 55, "velocity": 106, "until": 31.4334270000001}, {"on": false, "note": 55, "velocity": 0, "until": 31.4334270000001}, {"on": true, "note": 55, "velocity": 106, "until": 31.4334270000001}, {"on": true, "note": 67, "velocity": 106, "until": 32.033427000000174}, {"on": false, "note": 67, "velocity": 0, "until": 32.033427000000174}, {"on": false, "note": 55, "velocity": 0, "until": 32.6342965583335}, {"on": true, "note": 55, "velocity": 106, "until": 35.1384122916668}, {"on": false, "note": 55, "velocity": 0, "until": 35.1384122916668}, {"on": true, "note": 55, "velocity": 106, "until": 35.1384122916668}, {"on": true, "note": 67, "velocity": 106, "until": 35.77922939166677}, {"on": false, "note": 67, "velocity": 0, "until": 35.77922939166677}, {"on": false, "note": 55, "velocity": 0, "until": 36.567172900000095}, {"on": true, "note": 55, "velocity": 106, "until": 38.613936058333465}, {"on": false, "note": 55, "velocity": 0, "until": 44.23352155833349}, {"on": true, "note": 58, "velocity": 106, "until": 44.88569505833349}, {"on": false, "note": 58, "velocity": 0, "until": 45.53699900000016}, {"on": true, "note": 58, "velocity": 106, "until": 46.136999000000145}, {"on": false, "note": 58, "velocity": 0, "until": 46.73699900000013}, {"on": true, "note": 58, "velocity": 106, "until": 47.33699900000012}, {"on": false, "note": 58, "velocity": 0, "until": 47.93786855833344}, {"on": true, "note": 55, "velocity": 106, "until": 48.372650891666765}, {"on": false, "note": 55, "velocity": 0, "until": 48.372650891666765}, {"on": true, "note": 63, "velocity": 106, "until": 48.807433225000096}, {"on": false, "note": 63, "velocity": 0, "until": 48.807433225000096}, {"on": true, "note": 62, "velocity": 106, "until": 49.24134600000009}, {"on": false, "note": 62, "velocity": 0, "until": 49.24134600000009}, {"on": true, "note": 60, "velocity": 106, "until": 49.64134600000009}, {"on": false, "note": 60, "velocity": 0, "until": 49.64134600000009}, {"on": true, "note": 58, "velocity": 106, "until": 50.04134600000009}, {"on": false, "note": 58, "velocity": 0, "until": 50.04134600000009}, {"on": true, "note": 56, "velocity": 106, "until": 50.44134600000009}, {"on": false, "note": 56, "velocity": 0, "until": 50.44134600000009}, {"on": true, "note": 55, "velocity": 106, "until": 50.841346000000094}, {"on": false, "note": 55, "velocity": 0, "until": 50.841346000000094}, {"on": true, "note": 54, "velocity": 106, "until": 51.24134600000009}, {"on": false, "note": 54, "velocity": 0, "until": 51.24134600000009}, {"on": true, "note": 55, "velocity": 106, "until": 51.59134600000009}, {"on": false, "note": 55, "velocity": 0, "until": 51.64221555833342}, {"on": true, "note": 58, "velocity": 106, "until": 52.294389058333415}, {"on": false, "note": 58, "velocity": 0, "until": 52.945693000000084}, {"on": true, "note": 58, "velocity": 106, "until": 53.54569300000007}, {"on": false, "note": 58, "velocity": 0, "until": 54.14569300000006}, {"on": true, "note": 58, "velocity": 106, "until": 54.745693000000045}, {"on": false, "note": 58, "velocity": 0, "until": 55.34656255833337}, {"on": true, "note": 55, "velocity": 106, "until": 55.78134489166669}, {"on": false, "note": 55, "velocity": 0, "until": 55.78134489166669}, {"on": true, "note": 63, "velocity": 106, "until": 56.21612722500002}, {"on": false, "note": 63, "velocity": 0, "until": 56.21612722500002}, {"on": true, "note": 62, "velocity": 106, "until": 56.65004000000002}, {"on": false, "note": 62, "velocity": 0, "until": 56.65004000000002}, {"on": true, "note": 60, "velocity": 106, "until": 57.05004000000002}, {"on": false, "note": 60, "velocity": 0, "until": 57.05004000000002}, {"on": true, "note": 58, "velocity": 106, "until": 57.45004000000001}, {"on": false, "note": 58, "velocity": 0, "until": 57.45004000000001}, {"on": true, "note": 56, "velocity": 106, "until": 57.85004}, {"on": false, "note": 56, "velocity": 0, "until": 57.85004}, {"on": true, "note": 55, "velocity": 106, "until": 58.250040000000006}, {"on": false, "note": 55, "velocity": 0, "until": 58.250040000000006}, {"on": true, "note": 54, "velocity": 106, "until": 58.651944758333336}, {"on": false, "note": 54, "velocity": 0, "until": 58.651944758333336}, {"on": true, "note": 55, "velocity": 106, "until": 59.06861129999998}, {"on": false, "note": 55, "velocity": 0, "until": 59.127593966666645}, {"on": true, "note": 62, "velocity": 106, "until": 59.127593966666645}, {"on": true, "note": 55, "velocity": 106, "until": 59.80941196666655}, {"on": false, "note": 55, "velocity": 0, "until": 59.80941196666655}, {"on": false, "note": 62, "velocity": 0, "until": 62.95634596666654}, {"on": true, "note": 63, "velocity": 106, "until": 62.95634596666654}, {"on": true, "note": 55, "velocity": 106, "until": 63.63816396666645}, {"on": false, "note": 55, "velocity": 0, "until": 63.63816396666645}, {"on": false, "note": 63, "velocity": 0, "until": 66.78460389166648}, {"on": true, "note": 56, "velocity": 106, "until": 70.61657095000007}, {"on": false, "note": 56, "velocity": 0, "until": 70.61657095000007}, {"on": true, "note": 56, "velocity": 86, "until": 71.94208216666672}, {"on": false, "note": 56, "velocity": 0, "until": 71.94208216666672}, {"on": true, "note": 57, "velocity": 90, "until": 72.87958216666674}, {"on": false, "note": 57, "velocity": 0, "until": 72.87958216666674}, {"on": true, "note": 58, "velocity": 93, "until": 73.1927766083334}, {"on": false, "note": 58, "velocity": 0, "until": 73.1927766083334}, {"on": true, "note": 61, "velocity": 94, "until": 74.52662640000008}, {"on": false, "note": 61, "velocity": 0, "until": 74.52662640000008}, {"on": true, "note": 56, "velocity": 98, "until": 74.99174240000006}, {"on": false, "note": 56, "velocity": 0, "until": 74.99174240000006}, {"on": true, "note": 55, "velocity": 99, "until": 75.45685840000004}, {"on": false, "note": 55, "velocity": 0, "until": 75.45685840000004}, {"on": true, "note": 56, "velocity": 100, "until": 75.92121605833337}, {"on": false, "note": 56, "velocity": 0, "until": 75.92121605833337}, {"on": true, "note": 56, "velocity": 102, "until": 77.22556305833339}, {"on": false, "note": 56, "velocity": 0, "until": 77.22556305833339}, {"on": true, "note": 58, "velocity": 106, "until": 78.53066840000015}, {"on": false, "note": 58, "velocity": 0, "until": 78.53066840000015}, {"on": true, "note": 56, "velocity": 106, "until": 79.86787690000013}, {"on": false, "note": 56, "velocity": 0, "until": 79.92525805833347}, {"on": true, "note": 63, "velocity": 106, "until": 79.92525805833347}, {"on": true, "note": 60, "velocity": 106, "until": 81.17525726666707}, {"on": false, "note": 60, "velocity": 0, "until": 81.17525726666707}, {"on": false, "note": 63, "velocity": 0, "until": 81.22960505833376}, {"on": true, "note": 63, "velocity": 106, "until": 81.22960505833376}, {"on": true, "note": 60, "velocity": 106, "until": 82.47960426666737}, {"on": false, "note": 60, "velocity": 0, "until": 82.47960426666737}, {"on": false, "note": 63, "velocity": 0, "until": 82.53395205833407}, {"on": true, "note": 60, "velocity": 106, "until": 82.53395205833407}, {"on": true, "note": 64, "velocity": 106, "until": 84.98742950000124}, {"on": false, "note": 64, "velocity": 0, "until": 84.98742950000124}, {"on": false, "note": 60, "velocity": 0, "until": 85.03742950000125}, {"on": true, "note": 55, "velocity": 106, "until": 85.03742950000125}, {"on": true, "note": 62, "velocity": 106, "until": 86.25600080000127}, {"on": false, "note": 62, "velocity": 0, "until": 86.25600080000127}, {"on": false, "note": 55, "velocity": 0, "until": 86.31448939166793}, {"on": true, "note": 52, "velocity": 106, "until": 86.31448939166793}, {"on": true, "note": 60, "velocity": 106, "until": 87.6179668333348}, {"on": false, "note": 60, "velocity": 0, "until": 87.6179668333348}, {"on": false, "note": 52, "velocity": 0, "until": 93.853919058335}, {"on": true, "note": 53, "velocity": 106, "until": 94.83217930833501}, {"on": false, "note": 53, "velocity": 0, "until": 94.83217930833501}, {"on": true, "note": 52, "velocity": 106, "until": 95.1573965000017}, {"on": false, "note": 52, "velocity": 0, "until": 95.1573965000017}, {"on": true, "note": 51, "velocity": 106, "until": 95.31739650000172}, {"on": false, "note": 51, "velocity": 0, "until": 95.55739650000177}, {"on": true, "note": 51, "velocity": 106, "until": 95.7173965000018}, {"on": false, "note": 51, "velocity": 0, "until": 95.95739650000186}, {"on": true, "note": 51, "velocity": 106, "until": 96.1173965000019}, {"on": false, "note": 51, "velocity": 0, "until": 96.35739650000195}, {"on": true, "note": 51, "velocity": 106, "until": 96.57739650000198}, {"on": false, "note": 51, "velocity": 0, "until": 96.75739650000203}, {"on": true, "note": 51, "velocity": 106, "until": 96.97739650000204}, {"on": false, "note": 51, "velocity": 0, "until": 97.15739650000206}, {"on": true, "note": 51, "velocity": 106, "until": 97.37739650000208}, {"on": false, "note": 51, "velocity": 0, "until": 97.62885418333545}, {"on": true, "note": 52, "velocity": 91, "until": 97.62885418333545}, {"on": true, "note": 55, "velocity": 91, "until": 100.13296991666908}, {"on": false, "note": 55, "velocity": 0, "until": 100.13296991666908}, {"on": false, "note": 52, "velocity": 0, "until": 100.13296991666908}, {"on": true, "note": 55, "velocity": 67, "until": 101.47944538333574}, {"on": false, "note": 55, "velocity": 0, "until": 101.47944538333574}, {"on": true, "note": 55, "velocity": 57, "until": 102.84071261666905}, {"on": false, "note": 55, "velocity": 0, "until": 113.73524517500235}, {"on": true, "note": 55, "velocity": 76, "until": 116.80929170833568}, {"on": false, "note": 55, "velocity": 0, "until": 116.80929170833568}, {"on": true, "note": 53, "velocity": 76, "until": 118.40304158333564}, {"on": false, "note": 53, "velocity": 0, "until": 127.59232239166883}, {"on": true, "note": 60, "velocity": 96, "until": 127.59232239166883}, {"on": true, "note": 64, "velocity": 96, "until": 128.03313699166884}, {"on": false, "note": 64, "velocity": 0, "until": 128.03313699166884}, {"on": false, "note": 60, "velocity": 0, "until": 128.08199865833552}, {"on": true, "note": 63, "velocity": 96, "until": 128.08199865833552}, {"on": true, "note": 60, "velocity": 96, "until": 128.49738285833556}, {"on": false, "note": 60, "velocity": 0, "until": 128.49738285833556}, {"on": false, "note": 63, "velocity": 0, "until": 128.5436543916689}, {"on": true, "note": 64, "velocity": 96, "until": 128.5436543916689}, {"on": true, "note": 60, "velocity": 96, "until": 129.03333065833556}, {"on": false, "note": 60, "velocity": 0, "until": 129.03333065833556}, {"on": false, "note": 64, "velocity": 0, "until": 129.49494558333558}, {"on": true, "note": 65, "velocity": 106, "until": 129.49494558333558}, {"on": true, "note": 59, "velocity": 106, "until": 129.7109455833356}, {"on": false, "note": 59, "velocity": 0, "until": 129.7109455833356}, {"on": false, "note": 65, "velocity": 0, "until": 129.7349455833356}, {"on": true, "note": 59, "velocity": 106, "until": 129.7349455833356}, {"on": true, "note": 65, "velocity": 106, "until": 129.9509455833356}, {"on": false, "note": 65, "velocity": 0, "until": 129.9509455833356}, {"on": false, "note": 59, "velocity": 0, "until": 129.9749455833356}, {"on": true, "note": 59, "velocity": 106, "until": 129.9749455833356}, {"on": true, "note": 65, "velocity": 106, "until": 130.1909455833356}, {"on": false, "note": 65, "velocity": 0, "until": 130.1909455833356}, {"on": false, "note": 59, "velocity": 0, "until": 130.2149455833356}, {"on": true, "note": 59, "velocity": 106, "until": 130.2149455833356}, {"on": true, "note": 65, "velocity": 106, "until": 130.4309455833356}, {"on": false, "note": 65, "velocity": 0, "until": 130.4309455833356}, {"on": false, "note": 59, "velocity": 0, "until": 130.45494558333561}, {"on": true, "note": 59, "velocity": 106, "until": 130.45494558333561}, {"on": true, "note": 65, "velocity": 106, "until": 130.9348686583356}, {"on": false, "note": 65, "velocity": 0, "until": 130.9348686583356}, {"on": false, "note": 59, "velocity": 0, "until": 131.3965243916687}, {"on": true, "note": 64, "velocity": 96, "until": 131.3965243916687}, {"on": true, "note": 60, "velocity": 96, "until": 131.88620065833535}, {"on": false, "note": 60, "velocity": 0, "until": 131.88620065833535}, {"on": false, "note": 64, "velocity": 0, "until": 131.88620065833535}, {"on": true, "note": 60, "velocity": 96, "until": 131.88620065833535}, {"on": true, "note": 63, "velocity": 96, "until": 132.3478563916687}, {"on": false, "note": 63, "velocity": 0, "until": 132.3478563916687}, {"on": false, "note": 60, "velocity": 0, "until": 132.3478563916687}, {"on": true, "note": 60, "velocity": 96, "until": 132.3478563916687}, {"on": true, "note": 64, "velocity": 96, "until": 132.83753265833536}, {"on": false, "note": 64, "velocity": 0, "until": 132.83753265833536}, {"on": false, "note": 60, "velocity": 0, "until": 133.29911608333538}, {"on": true, "note": 64, "velocity": 106, "until": 133.4172260833354}, {"on": false, "note": 64, "velocity": 0, "until": 133.53533608333544}, {"on": true, "note": 64, "velocity": 106, "until": 133.65344608333547}, {"on": false, "note": 64, "velocity": 0, "until": 133.7715560833355}, {"on": true, "note": 64, "velocity": 106, "until": 133.88966608333553}, {"on": false, "note": 64, "velocity": 0, "until": 134.00777608333556}, {"on": true, "note": 64, "velocity": 106, "until": 134.1258860833356}, {"on": false, "note": 64, "velocity": 0, "until": 134.24399608333562}, {"on": true, "note": 64, "velocity": 106, "until": 134.716390658336}, {"on": false, "note": 64, "velocity": 0, "until": 139.03038239166972}, {"on": true, "note": 55, "velocity": 106, "until": 139.1528308916697}, {"on": false, "note": 55, "velocity": 0, "until": 139.27527939166973}, {"on": true, "note": 65, "velocity": 106, "until": 139.75082765833648}, {"on": false, "note": 65, "velocity": 0, "until": 139.75082765833648}, {"on": true, "note": 64, "velocity": 106, "until": 139.86621215833648}, {"on": false, "note": 64, "velocity": 0, "until": 139.86621215833648}, {"on": true, "note": 60, "velocity": 106, "until": 139.9623659083365}, {"on": false, "note": 60, "velocity": 0, "until": 139.9817143916698}, {"on": true, "note": 59, "velocity": 106, "until": 140.1041628916698}, {"on": false, "note": 59, "velocity": 0, "until": 140.22661139166982}, {"on": true, "note": 65, "velocity": 106, "until": 140.70215965833657}, {"on": false, "note": 65, "velocity": 0, "until": 140.70215965833657}, {"on": true, "note": 64, "velocity": 106, "until": 140.81754415833657}, {"on": false, "note": 64, "velocity": 0, "until": 140.81754415833657}, {"on": true, "note": 60, "velocity": 106, "until": 140.9136979083366}, {"on": false, "note": 60, "velocity": 0, "until": 140.9330463916699}, {"on": true, "note": 59, "velocity": 106, "until": 141.0554948916699}, {"on": false, "note": 59, "velocity": 0, "until": 141.1779433916699}, {"on": true, "note": 65, "velocity": 106, "until": 141.65349165833666}, {"on": false, "note": 65, "velocity": 0, "until": 141.65349165833666}, {"on": true, "note": 64, "velocity": 106, "until": 141.76887615833667}, {"on": false, "note": 64, "velocity": 0, "until": 141.76887615833667}, {"on": true, "note": 60, "velocity": 106, "until": 141.86502990833668}, {"on": false, "note": 60, "velocity": 0, "until": 141.88437839167}, {"on": true, "note": 55, "velocity": 106, "until": 142.12927539167003}, {"on": false, "note": 55, "velocity": 0, "until": 146.4706436583367}, {"on": true, "note": 67, "velocity": 106, "until": 146.4706436583367}, {"on": true, "note": 60, "velocity": 106, "until": 146.58602815833672}, {"on": false, "note": 60, "velocity": 0, "until": 146.58602815833672}, {"on": false, "note": 67, "velocity": 0, "until": 146.70148958333675}, {"on": true, "note": 69, "velocity": 106, "until": 146.70148958333675}, {"on": true, "note": 65, "velocity": 106, "until": 146.82148958333678}, {"on": false, "note": 65, "velocity": 0, "until": 146.82148958333678}, {"on": false, "note": 69, "velocity": 0, "until": 146.94148958333682}, {"on": true, "note": 67, "velocity": 106, "until": 146.94148958333682}, {"on": true, "note": 60, "velocity": 106, "until": 147.06148958333685}, {"on": false, "note": 60, "velocity": 0, "until": 147.06148958333685}, {"on": false, "note": 67, "velocity": 0, "until": 147.18148958333688}, {"on": true, "note": 69, "velocity": 106, "until": 147.18148958333688}, {"on": true, "note": 65, "velocity": 106, "until": 147.30148958333692}, {"on": false, "note": 65, "velocity": 0, "until": 147.30148958333692}, {"on": false, "note": 69, "velocity": 0, "until": 147.42148958333695}, {"on": true, "note": 67, "velocity": 106, "until": 147.42148958333695}, {"on": true, "note": 60, "velocity": 106, "until": 147.54148958333698}, {"on": false, "note": 60, "velocity": 0, "until": 147.54148958333698}, {"on": false, "note": 67, "velocity": 0, "until": 147.66148958333702}, {"on": true, "note": 69, "velocity": 106, "until": 147.66148958333702}, {"on": true, "note": 65, "velocity": 106, "until": 148.14141265833732}, {"on": false, "note": 65, "velocity": 0, "until": 148.14141265833732}, {"on": false, "note": 69, "velocity": 0, "until": 150.25664365833748}, {"on": true, "note": 62, "velocity": 106, "until": 150.25664365833748}, {"on": true, "note": 55, "velocity": 106, "until": 150.37202815833749}, {"on": false, "note": 55, "velocity": 0, "until": 150.37202815833749}, {"on": false, "note": 62, "velocity": 0, "until": 150.4874580833375}, {"on": true, "note": 64, "velocity": 106, "until": 150.4874580833375}, {"on": true, "note": 60, "velocity": 106, "until": 150.60556808333752}, {"on": false, "note": 60, "velocity": 0, "until": 150.60556808333752}, {"on": false, "note": 64, "velocity": 0, "until": 150.72367808333755}, {"on": true, "note": 62, "velocity": 106, "until": 150.72367808333755}, {"on": true, "note": 55, "velocity": 106, "until": 150.84178808333758}, {"on": false, "note": 55, "velocity": 0, "until": 150.84178808333758}, {"on": false, "note": 62, "velocity": 0, "until": 150.9598980833376}, {"on": true, "note": 64, "velocity": 106, "until": 150.9598980833376}, {"on": true, "note": 60, "velocity": 106, "until": 151.07800808333764}, {"on": false, "note": 60, "velocity": 0, "until": 151.07800808333764}, {"on": false, "note": 64, "velocity": 0, "until": 151.19611808333767}, {"on": true, "note": 62, "velocity": 106, "until": 151.19611808333767}, {"on": true, "note": 55, "velocity": 106, "until": 151.3142280833377}, {"on": false, "note": 55, "velocity": 0, "until": 151.3142280833377}, {"on": false, "note": 62, "velocity": 0, "until": 151.43233808333773}, {"on": true, "note": 64, "velocity": 106, "until": 151.43233808333773}, {"on": true, "note": 60, "velocity": 106, "until": 151.66855808333776}, {"on": false, "note": 60, "velocity": 0, "until": 151.66855808333776}, {"on": false, "note": 64, "velocity": 0, "until": 151.9047326583378}, {"on": true, "note": 67, "velocity": 106, "until": 152.3470399083378}, {"on": false, "note": 67, "velocity": 0, "until": 152.36638839167114}, {"on": true, "note": 64, "velocity": 106, "until": 152.83577430833785}, {"on": false, "note": 64, "velocity": 0, "until": 152.85606465833786}, {"on": true, "note": 66, "velocity": 106, "until": 153.29837190833786}, {"on": false, "note": 66, "velocity": 0, "until": 153.3177203916712}, {"on": true, "note": 67, "velocity": 106, "until": 153.7871063083379}, {"on": false, "note": 67, "velocity": 0, "until": 153.80739665833792}, {"on": true, "note": 55, "velocity": 106, "until": 154.24970390833792}, {"on": false, "note": 55, "velocity": 0, "until": 154.26905239167127}, {"on": true, "note": 60, "velocity": 106, "until": 154.37109280833795}, {"on": false, "note": 60, "velocity": 0, "until": 154.39150089167128}, {"on": true, "note": 60, "velocity": 106, "until": 154.49354130833797}, {"on": false, "note": 60, "velocity": 0, "until": 154.5139493916713}, {"on": true, "note": 60, "velocity": 106, "until": 154.61598980833799}, {"on": false, "note": 60, "velocity": 0, "until": 154.63639789167132}, {"on": true, "note": 60, "velocity": 106, "until": 154.738438308338}, {"on": false, "note": 60, "velocity": 0, "until": 154.75872865833801}, {"on": true, "note": 60, "velocity": 106, "until": 154.85488240833803}, {"on": false, "note": 60, "velocity": 0, "until": 154.87411315833802}, {"on": true, "note": 60, "velocity": 106, "until": 154.970266908338}, {"on": false, "note": 60, "velocity": 0, "until": 154.989497658338}, {"on": true, "note": 63, "velocity": 106, "until": 155.085651408338}, {"on": false, "note": 63, "velocity": 0, "until": 155.104882158338}, {"on": true, "note": 63, "velocity": 106, "until": 155.20103590833799}, {"on": false, "note": 63, "velocity": 0, "until": 155.2203843916713}, {"on": true, "note": 60, "velocity": 106, "until": 155.32242480833798}, {"on": false, "note": 60, "velocity": 0, "until": 155.34283289167132}, {"on": true, "note": 60, "velocity": 106, "until": 155.444873308338}, {"on": false, "note": 60, "velocity": 0, "until": 155.46528139167134}, {"on": true, "note": 60, "velocity": 106, "until": 155.56732180833802}, {"on": false, "note": 60, "velocity": 0, "until": 155.58772989167136}, {"on": true, "note": 60, "velocity": 106, "until": 155.68977030833804}, {"on": false, "note": 60, "velocity": 0, "until": 155.71006065833805}, {"on": true, "note": 60, "velocity": 106, "until": 155.80621440833812}, {"on": false, "note": 60, "velocity": 0, "until": 155.82544515833814}, {"on": true, "note": 60, "velocity": 106, "until": 155.92159890833818}, {"on": false, "note": 60, "velocity": 0, "until": 155.94082965833817}, {"on": true, "note": 63, "velocity": 106, "until": 156.0369834083382}, {"on": false, "note": 63, "velocity": 0, "until": 156.05621415833818}, {"on": true, "note": 63, "velocity": 106, "until": 156.15236790833816}, {"on": false, "note": 63, "velocity": 0, "until": 156.17171639167148}, {"on": true, "note": 60, "velocity": 106, "until": 156.27375680833816}, {"on": false, "note": 60, "velocity": 0, "until": 156.2941648916715}, {"on": true, "note": 60, "velocity": 106, "until": 156.39620530833818}, {"on": false, "note": 60, "velocity": 0, "until": 156.41661339167152}, {"on": true, "note": 63, "velocity": 106, "until": 156.5186538083382}, {"on": false, "note": 63, "velocity": 0, "until": 156.53906189167154}, {"on": true, "note": 63, "velocity": 106, "until": 156.64110230833822}, {"on": false, "note": 63, "velocity": 0, "until": 156.66139265833823}, {"on": true, "note": 60, "velocity": 106, "until": 156.75754640833827}, {"on": false, "note": 60, "velocity": 0, "until": 156.7767771583383}, {"on": true, "note": 60, "velocity": 106, "until": 156.87293090833828}, {"on": false, "note": 60, "velocity": 0, "until": 156.89216165833827}, {"on": true, "note": 63, "velocity": 106, "until": 156.98831540833828}, {"on": false, "note": 63, "velocity": 0, "until": 157.00754615833827}, {"on": true, "note": 63, "velocity": 106, "until": 157.10369990833826}, {"on": false, "note": 63, "velocity": 0, "until": 157.1230483916716}, {"on": true, "note": 60, "velocity": 106, "until": 157.22508880833828}, {"on": false, "note": 60, "velocity": 0, "until": 157.24549689167162}, {"on": true, "note": 60, "velocity": 106, "until": 157.3475373083383}, {"on": false, "note": 60, "velocity": 0, "until": 157.36794539167164}, {"on": true, "note": 63, "velocity": 106, "until": 157.46998580833832}, {"on": false, "note": 63, "velocity": 0, "until": 157.49039389167166}, {"on": true, "note": 63, "velocity": 106, "until": 157.59243430833834}, {"on": false, "note": 63, "velocity": 0, "until": 157.61272465833835}, {"on": true, "note": 60, "velocity": 106, "until": 157.7088784083384}, {"on": false, "note": 60, "velocity": 0, "until": 157.7281091583384}, {"on": true, "note": 60, "velocity": 106, "until": 157.8242629083384}, {"on": false, "note": 60, "velocity": 0, "until": 157.8434936583384}, {"on": true, "note": 63, "velocity": 106, "until": 157.9396474083384}, {"on": false, "note": 63, "velocity": 0, "until": 157.9588781583384}, {"on": true, "note": 63, "velocity": 106, "until": 158.05503190833838}, {"on": false, "note": 63, "velocity": 0, "until": 158.07438039167172}, {"on": true, "note": 63, "velocity": 106, "until": 158.1764208083384}, {"on": false, "note": 63, "velocity": 0, "until": 158.19682889167174}, {"on": true, "note": 63, "velocity": 106, "until": 158.29886930833842}, {"on": false, "note": 63, "velocity": 0, "until": 158.31927739167176}, {"on": true, "note": 63, "velocity": 106, "until": 158.42131780833844}, {"on": false, "note": 63, "velocity": 0, "until": 158.44172589167178}, {"on": true, "note": 63, "velocity": 106, "until": 158.54376630833846}, {"on": false, "note": 63, "velocity": 0, "until": 158.56405665833847}, {"on": true, "note": 63, "velocity": 106, "until": 158.66021040833854}, {"on": false, "note": 63, "velocity": 0, "until": 158.67944115833856}, {"on": true, "note": 63, "velocity": 106, "until": 158.7755949083386}, {"on": false, "note": 63, "velocity": 0, "until": 158.7948256583386}, {"on": true, "note": 62, "velocity": 106, "until": 158.8909794083386}, {"on": false, "note": 62, "velocity": 0, "until": 158.9102101583386}, {"on": true, "note": 62, "velocity": 106, "until": 159.00636390833859}, {"on": false, "note": 62, "velocity": 0, "until": 159.0257123916719}, {"on": true, "note": 63, "velocity": 106, "until": 159.12775280833858}, {"on": false, "note": 63, "velocity": 0, "until": 159.14816089167192}, {"on": true, "note": 63, "velocity": 106, "until": 159.2502013083386}, {"on": false, "note": 63, "velocity": 0, "until": 159.27060939167194}, {"on": true, "note": 63, "velocity": 106, "until": 159.37264980833862}, {"on": false, "note": 63, "velocity": 0, "until": 159.39305789167196}, {"on": true, "note": 63, "velocity": 106, "until": 159.49509830833864}, {"on": false, "note": 63, "velocity": 0, "until": 159.51538865833865}, {"on": true, "note": 63, "velocity": 106, "until": 159.61154240833872}, {"on": false, "note": 63, "velocity": 0, "until": 159.63077315833874}, {"on": true, "note": 63, "velocity": 106, "until": 159.72692690833878}, {"on": false, "note": 63, "velocity": 0, "until": 159.74615765833877}, {"on": true, "note": 62, "velocity": 106, "until": 159.8423114083388}, {"on": false, "note": 62, "velocity": 0, "until": 159.86154215833878}, {"on": true, "note": 62, "velocity": 106, "until": 159.95769590833876}, {"on": false, "note": 62, "velocity": 0, "until": 159.97704439167208}, {"on": true, "note": 63, "velocity": 106, "until": 160.22194139167212}, {"on": false, "note": 63, "velocity": 0, "until": 160.4667206583388}, {"on": true, "note": 63, "velocity": 106, "until": 160.69748965833887}, {"on": false, "note": 63, "velocity": 0, "until": 160.92837639167226}, {"on": true, "note": 63, "velocity": 106, "until": 161.1732733916723}, {"on": false, "note": 63, "velocity": 0, "until": 161.41805265833898}, {"on": true, "note": 63, "velocity": 106, "until": 161.51420640833902}, {"on": false, "note": 63, "velocity": 0, "until": 161.53343715833904}, {"on": true, "note": 63, "velocity": 106, "until": 161.62959090833903}, {"on": false, "note": 63, "velocity": 0, "until": 161.64882165833902}, {"on": true, "note": 63, "velocity": 106, "until": 161.74497540833903}, {"on": false, "note": 63, "velocity": 0, "until": 161.76420615833902}, {"on": true, "note": 63, "velocity": 106, "until": 161.86035990833903}, {"on": false, "note": 63, "velocity": 0, "until": 161.87970839167235}, {"on": true, "note": 62, "velocity": 106, "until": 162.1246053916724}, {"on": false, "note": 62, "velocity": 0, "until": 165.7854936333389}, {"on": true, "note": 55, "velocity": 106, "until": 165.84825513333888}, {"on": false, "note": 55, "velocity": 0, "until": 165.91101663333887}, {"on": true, "note": 55, "velocity": 106, "until": 165.97377813333887}, {"on": false, "note": 55, "velocity": 0, "until": 166.03653963333886}, {"on": true, "note": 55, "velocity": 106, "until": 166.09930113333883}, {"on": false, "note": 55, "velocity": 0, "until": 166.16206263333882}, {"on": true, "note": 55, "velocity": 106, "until": 166.22482413333879}, {"on": false, "note": 55, "velocity": 0, "until": 166.2875097083388}, {"on": true, "note": 55, "velocity": 106, "until": 166.5092834583388}, {"on": false, "note": 55, "velocity": 0, "until": 166.52944470833881}, {"on": true, "note": 55, "velocity": 106, "until": 166.7512184583388}, {"on": false, "note": 55, "velocity": 0, "until": 166.77145563333877}, {"on": true, "note": 55, "velocity": 106, "until": 166.83421713333877}, {"on": false, "note": 55, "velocity": 0, "until": 166.89697863333876}, {"on": true, "note": 55, "velocity": 106, "until": 166.95974013333876}, {"on": false, "note": 55, "velocity": 0, "until": 167.02250163333875}, {"on": true, "note": 55, "velocity": 106, "until": 167.0852631333387}, {"on": false, "note": 55, "velocity": 0, "until": 167.1480246333387}, {"on": true, "note": 55, "velocity": 106, "until": 167.21078613333867}, {"on": false, "note": 55, "velocity": 0, "until": 167.2734717083387}, {"on": true, "note": 55, "velocity": 106, "until": 167.4952454583387}, {"on": false, "note": 55, "velocity": 0, "until": 167.5154067083387}, {"on": true, "note": 55, "velocity": 106, "until": 167.73718045833868}, {"on": false, "note": 55, "velocity": 0, "until": 167.75741763333866}, {"on": true, "note": 55, "velocity": 106, "until": 167.82017913333866}, {"on": false, "note": 55, "velocity": 0, "until": 167.88294063333865}, {"on": true, "note": 55, "velocity": 106, "until": 167.94570213333864}, {"on": false, "note": 55, "velocity": 0, "until": 168.00846363333864}, {"on": true, "note": 55, "velocity": 106, "until": 168.0712251333386}, {"on": false, "note": 55, "velocity": 0, "until": 168.1339866333386}, {"on": true, "note": 55, "velocity": 106, "until": 168.19674813333856}, {"on": false, "note": 55, "velocity": 0, "until": 168.25943370833858}, {"on": true, "note": 55, "velocity": 106, "until": 168.4812074583386}, {"on": false, "note": 55, "velocity": 0, "until": 168.5013687083386}, {"on": true, "note": 55, "velocity": 106, "until": 168.72314245833857}, {"on": false, "note": 55, "velocity": 0, "until": 168.74337963333855}, {"on": true, "note": 55, "velocity": 106, "until": 168.80614113333854}, {"on": false, "note": 55, "velocity": 0, "until": 168.86890263333854}, {"on": true, "note": 55, "velocity": 106, "until": 168.93166413333853}, {"on": false, "note": 55, "velocity": 0, "until": 168.99442563333852}, {"on": true, "note": 55, "velocity": 106, "until": 169.0571871333385}, {"on": false, "note": 55, "velocity": 0, "until": 169.11994863333848}, {"on": true, "note": 55, "velocity": 106, "until": 169.18271013333845}, {"on": false, "note": 55, "velocity": 0, "until": 169.24539570833846}, {"on": true, "note": 55, "velocity": 106, "until": 169.46716945833847}, {"on": false, "note": 55, "velocity": 0, "until": 169.48733070833848}, {"on": true, "note": 55, "velocity": 106, "until": 169.64257233333845}, {"on": false, "note": 55, "velocity": 0, "until": 169.72934163333844}, {"on": true, "note": 54, "velocity": 106, "until": 169.79210313333834}, {"on": false, "note": 54, "velocity": 0, "until": 169.85486463333822}, {"on": true, "note": 54, "velocity": 106, "until": 169.91762613333816}, {"on": false, "note": 54, "velocity": 0, "until": 169.98038763333815}, {"on": true, "note": 54, "velocity": 106, "until": 170.0431491333381}, {"on": false, "note": 54, "velocity": 0, "until": 170.10591063333808}, {"on": true, "note": 54, "velocity": 106, "until": 170.16867213333796}, {"on": false, "note": 54, "velocity": 0, "until": 170.23135770833795}, {"on": true, "note": 54, "velocity": 106, "until": 170.453131458338}, {"on": false, "note": 54, "velocity": 0, "until": 170.473292708338}, {"on": true, "note": 54, "velocity": 106, "until": 170.69506645833803}, {"on": false, "note": 54, "velocity": 0, "until": 170.715303633338}, {"on": true, "note": 55, "velocity": 106, "until": 170.84082663333797}, {"on": false, "note": 55, "velocity": 0, "until": 170.96634963333793}, {"on": true, "note": 60, "velocity": 91, "until": 171.09187263333789}, {"on": false, "note": 60, "velocity": 0, "until": 171.21731970833787}, {"on": true, "note": 59, "velocity": 91, "until": 171.33828720833787}, {"on": false, "note": 59, "velocity": 0, "until": 171.45925470833788}, {"on": true, "note": 55, "velocity": 91, "until": 171.5802222083379}, {"on": false, "note": 55, "velocity": 0, "until": 171.70126563333787}, {"on": true, "note": 54, "velocity": 106, "until": 171.76402713333783}, {"on": false, "note": 54, "velocity": 0, "until": 171.82678863333774}, {"on": true, "note": 54, "velocity": 106, "until": 171.88955013333768}, {"on": false, "note": 54, "velocity": 0, "until": 171.95231163333767}, {"on": true, "note": 54, "velocity": 106, "until": 172.0150731333377}, {"on": false, "note": 54, "velocity": 0, "until": 172.07783463333763}, {"on": true, "note": 54, "velocity": 106, "until": 172.1405961333376}, {"on": false, "note": 54, "velocity": 0, "until": 172.20328170833758}, {"on": true, "note": 54, "velocity": 106, "until": 172.42505545833762}, {"on": false, "note": 54, "velocity": 0, "until": 172.44521670833763}, {"on": true, "note": 54, "velocity": 106, "until": 172.66699045833766}, {"on": false, "note": 54, "velocity": 0, "until": 172.68722763333764}, {"on": true, "note": 55, "velocity": 106, "until": 172.8127506333376}, {"on": false, "note": 55, "velocity": 0, "until": 172.93827363333756}, {"on": true, "note": 60, "velocity": 91, "until": 173.06379663333752}, {"on": false, "note": 60, "velocity": 0, "until": 173.1892437083375}, {"on": true, "note": 59, "velocity": 91, "until": 173.43152106667085}, {"on": false, "note": 59, "velocity": 0, "until": 173.71431733333753}, {"on": true, "note": 55, "velocity": 106, "until": 173.77841983333755}, {"on": false, "note": 55, "velocity": 0, "until": 173.84252233333757}, {"on": true, "note": 55, "velocity": 106, "until": 173.9066248333376}, {"on": false, "note": 55, "velocity": 0, "until": 173.9707273333376}, {"on": true, "note": 55, "velocity": 106, "until": 174.03482983333762}, {"on": false, "note": 55, "velocity": 0, "until": 174.09893233333764}, {"on": true, "note": 55, "velocity": 106, "until": 174.16303483333766}, {"on": false, "note": 55, "velocity": 0, "until": 174.227041391671}, {"on": true, "note": 55, "velocity": 106, "until": 174.4515303083377}, {"on": false, "note": 55, "velocity": 0, "until": 174.47193839167105}, {"on": true, "note": 55, "velocity": 106, "until": 174.69642730833775}, {"on": false, "note": 55, "velocity": 0, "until": 174.71693133333775}, {"on": true, "note": 55, "velocity": 106, "until": 174.7810338333378}, {"on": false, "note": 55, "velocity": 0, "until": 174.84513633333785}, {"on": true, "note": 55, "velocity": 106, "until": 174.9092388333379}, {"on": false, "note": 55, "velocity": 0, "until": 174.97334133333794}, {"on": true, "note": 55, "velocity": 106, "until": 175.037443833338}, {"on": false, "note": 55, "velocity": 0, "until": 175.10154633333804}, {"on": true, "note": 55, "velocity": 106, "until": 175.16564883333808}, {"on": false, "note": 55, "velocity": 0, "until": 175.22965539167146}, {"on": true, "note": 55, "velocity": 106, "until": 175.45414430833816}, {"on": false, "note": 55, "velocity": 0, "until": 175.4745523916715}, {"on": true, "note": 55, "velocity": 106, "until": 175.6990413083382}, {"on": false, "note": 55, "velocity": 0, "until": 175.7195453333382}, {"on": true, "note": 55, "velocity": 106, "until": 175.78364783333825}, {"on": false, "note": 55, "velocity": 0, "until": 175.8477503333383}, {"on": true, "note": 55, "velocity": 106, "until": 175.91185283333834}, {"on": false, "note": 55, "velocity": 0, "until": 175.9759553333384}, {"on": true, "note": 55, "velocity": 106, "until": 176.04005783333844}, {"on": false, "note": 55, "velocity": 0, "until": 176.10416033333848}, {"on": true, "note": 55, "velocity": 106, "until": 176.16826283333853}, {"on": false, "note": 55, "velocity": 0, "until": 176.2322693916719}, {"on": true, "note": 55, "velocity": 106, "until": 176.4567583083386}, {"on": false, "note": 55, "velocity": 0, "until": 176.47716639167194}, {"on": true, "note": 55, "velocity": 106, "until": 176.70165530833864}, {"on": false, "note": 55, "velocity": 0, "until": 176.72215933333865}, {"on": true, "note": 55, "velocity": 106, "until": 176.78626183333867}, {"on": false, "note": 55, "velocity": 0, "until": 176.8503643333387}, {"on": true, "note": 55, "velocity": 106, "until": 176.9144668333387}, {"on": false, "note": 55, "velocity": 0, "until": 176.97856933333873}, {"on": true, "note": 55, "velocity": 106, "until": 177.04267183333874}, {"on": false, "note": 55, "velocity": 0, "until": 177.10677433333876}, {"on": true, "note": 55, "velocity": 106, "until": 177.17087683333878}, {"on": false, "note": 55, "velocity": 0, "until": 177.23488339167213}, {"on": true, "note": 55, "velocity": 106, "until": 177.45937230833883}, {"on": false, "note": 55, "velocity": 0, "until": 177.47978039167216}, {"on": true, "note": 55, "velocity": 106, "until": 177.70426930833887}, {"on": false, "note": 55, "velocity": 0, "until": 177.72477333333887}, {"on": true, "note": 53, "velocity": 106, "until": 177.78887583333898}, {"on": false, "note": 53, "velocity": 0, "until": 177.85297833333908}, {"on": true, "note": 53, "velocity": 106, "until": 177.91708083333918}, {"on": false, "note": 53, "velocity": 0, "until": 177.9811833333393}, {"on": true, "note": 53, "velocity": 106, "until": 178.0452858333393}, {"on": false, "note": 53, "velocity": 0, "until": 178.10938833333933}, {"on": true, "note": 53, "velocity": 106, "until": 178.17349083333937}, {"on": false, "note": 53, "velocity": 0, "until": 178.23749739167275}, {"on": true, "note": 53, "velocity": 106, "until": 178.46198630833942}, {"on": false, "note": 53, "velocity": 0, "until": 178.48239439167276}, {"on": true, "note": 57, "velocity": 106, "until": 178.7068833083394}, {"on": false, "note": 57, "velocity": 0, "until": 178.7273873333394}, {"on": true, "note": 58, "velocity": 106, "until": 178.85559233333944}, {"on": false, "note": 58, "velocity": 0, "until": 178.98379733333948}, {"on": true, "note": 60, "velocity": 91, "until": 179.11200233333952}, {"on": false, "note": 60, "velocity": 0, "until": 179.24011139167288}, {"on": true, "note": 62, "velocity": 91, "until": 179.3625598916729}, {"on": false, "note": 62, "velocity": 0, "until": 179.4850083916729}, {"on": true, "note": 58, "velocity": 91, "until": 179.6074568916729}, {"on": false, "note": 58, "velocity": 0, "until": 179.73000133333957}, {"on": true, "note": 57, "velocity": 106, "until": 179.79410383333968}, {"on": false, "note": 57, "velocity": 0, "until": 179.85820633333978}, {"on": true, "note": 57, "velocity": 106, "until": 179.92230883333988}, {"on": false, "note": 57, "velocity": 0, "until": 179.98641133334}, {"on": true, "note": 57, "velocity": 106, "until": 180.05051383334}, {"on": false, "note": 57, "velocity": 0, "until": 180.11461633334005}, {"on": true, "note": 57, "velocity": 106, "until": 180.1787188333401}, {"on": false, "note": 57, "velocity": 0, "until": 180.24272539167345}, {"on": true, "note": 57, "velocity": 106, "until": 180.46721430834012}, {"on": false, "note": 57, "velocity": 0, "until": 180.48762239167345}, {"on": true, "note": 57, "velocity": 106, "until": 180.7121113083401}, {"on": false, "note": 57, "velocity": 0, "until": 180.7326153333401}, {"on": true, "note": 58, "velocity": 106, "until": 180.86082033334014}, {"on": false, "note": 58, "velocity": 0, "until": 180.98902533334018}, {"on": true, "note": 60, "velocity": 91, "until": 181.11723033334022}, {"on": false, "note": 60, "velocity": 0, "until": 181.24533939167358}, {"on": true, "note": 62, "velocity": 91, "until": 181.49046830834027}, {"on": false, "note": 62, "velocity": 0, "until": 181.76301463334025}, {"on": true, "note": 62, "velocity": 106, "until": 182.1395836333402}, {"on": false, "note": 62, "velocity": 0, "until": 182.1395836333402}, {"on": true, "note": 63, "velocity": 106, "until": 182.26503070834022}, {"on": false, "note": 63, "velocity": 0, "until": 182.26503070834022}, {"on": true, "note": 62, "velocity": 106, "until": 182.48680445834026}, {"on": false, "note": 62, "velocity": 0, "until": 182.50696570834026}, {"on": true, "note": 60, "velocity": 106, "until": 182.62793320834027}, {"on": false, "note": 60, "velocity": 0, "until": 182.74897663334025}, {"on": true, "note": 58, "velocity": 106, "until": 182.87449963334024}, {"on": false, "note": 58, "velocity": 0, "until": 182.87449963334024}, {"on": true, "note": 62, "velocity": 106, "until": 182.97910213334023}, {"on": false, "note": 62, "velocity": 0, "until": 183.00002263334022}, {"on": true, "note": 60, "velocity": 106, "until": 183.06278413334022}, {"on": false, "note": 60, "velocity": 0, "until": 183.1255456333402}, {"on": true, "note": 57, "velocity": 106, "until": 183.1883071333402}, {"on": false, "note": 57, "velocity": 0, "until": 183.25099270834022}, {"on": true, "note": 55, "velocity": 106, "until": 183.49292770834023}, {"on": false, "note": 55, "velocity": 0, "until": 185.70683669167332}, {"on": true, "note": 62, "velocity": 106, "until": 186.07873619167358}, {"on": false, "note": 62, "velocity": 0, "until": 186.07873619167358}, {"on": true, "note": 63, "velocity": 106, "until": 186.2026128666736}, {"on": false, "note": 63, "velocity": 0, "until": 186.2026128666736}, {"on": true, "note": 62, "velocity": 106, "until": 186.4200040333403}, {"on": false, "note": 62, "velocity": 0, "until": 186.43976686667364}, {"on": true, "note": 60, "velocity": 106, "until": 186.55834386667365}, {"on": false, "note": 60, "velocity": 0, "until": 186.67701069167367}, {"on": true, "note": 58, "velocity": 106, "until": 186.8009771916737}, {"on": false, "note": 58, "velocity": 0, "until": 186.8009771916737}, {"on": true, "note": 62, "velocity": 106, "until": 186.9042826083404}, {"on": false, "note": 62, "velocity": 0, "until": 186.92494369167375}, {"on": true, "note": 60, "velocity": 106, "until": 186.98692694167377}, {"on": false, "note": 60, "velocity": 0, "until": 187.0489101916738}, {"on": true, "note": 57, "velocity": 106, "until": 187.11089344167382}, {"on": false, "note": 57, "velocity": 0, "until": 187.17278686667385}, {"on": true, "note": 55, "velocity": 106, "until": 187.40994086667385}, {"on": false, "note": 55, "velocity": 0, "until": 189.58749086667387}, {"on": true, "note": 69, "velocity": 106, "until": 189.95186186667343}, {"on": false, "note": 69, "velocity": 0, "until": 189.95186186667343}, {"on": true, "note": 70, "velocity": 106, "until": 190.0732029750067}, {"on": false, "note": 70, "velocity": 0, "until": 190.0732029750067}, {"on": true, "note": 69, "velocity": 106, "until": 190.28312605834}, {"on": false, "note": 69, "velocity": 0, "until": 190.30220997500663}, {"on": true, "note": 67, "velocity": 106, "until": 190.4167134750066}, {"on": false, "note": 67, "velocity": 0, "until": 190.5313328666732}, {"on": true, "note": 65, "velocity": 106, "until": 190.65278986667317}, {"on": false, "note": 65, "velocity": 0, "until": 190.65278986667317}, {"on": true, "note": 69, "velocity": 106, "until": 190.7540040333398}, {"on": false, "note": 69, "velocity": 0, "until": 190.7742468666731}, {"on": true, "note": 67, "velocity": 106, "until": 190.8349753666731}, {"on": false, "note": 67, "velocity": 0, "until": 190.89570386667305}, {"on": true, "note": 64, "velocity": 106, "until": 190.95643236667303}, {"on": false, "note": 64, "velocity": 0, "until": 191.0170449750063}, {"on": true, "note": 62, "velocity": 106, "until": 191.24605197500625}, {"on": false, "note": 62, "velocity": 0, "until": 191.4751748666729}, {"on": true, "note": 60, "velocity": 106, "until": 191.83954586667247}, {"on": false, "note": 60, "velocity": 0, "until": 191.83954586667247}, {"on": true, "note": 62, "velocity": 106, "until": 191.9608869750057}, {"on": false, "note": 62, "velocity": 0, "until": 191.9608869750057}, {"on": true, "note": 60, "velocity": 106, "until": 192.17081005833901}, {"on": false, "note": 60, "velocity": 0, "until": 192.18989397500562}, {"on": true, "note": 58, "velocity": 106, "until": 192.30439747500557}, {"on": false, "note": 58, "velocity": 0, "until": 192.41901686667222}, {"on": true, "note": 57, "velocity": 106, "until": 192.5404738666722}, {"on": false, "note": 57, "velocity": 0, "until": 192.5404738666722}, {"on": true, "note": 60, "velocity": 106, "until": 192.64168803333882}, {"on": false, "note": 60, "velocity": 0, "until": 192.6619308666721}, {"on": true, "note": 58, "velocity": 106, "until": 192.72265936667205}, {"on": false, "note": 58, "velocity": 0, "until": 192.783387866672}, {"on": true, "note": 55, "velocity": 106, "until": 192.84411636667198}, {"on": false, "note": 55, "velocity": 0, "until": 192.90472897500527}, {"on": true, "note": 53, "velocity": 106, "until": 193.1337359750052}, {"on": false, "note": 53, "velocity": 0, "until": 193.3632384250052}, {"on": true, "note": 63, "velocity": 106, "until": 193.6513789166721}, {"on": false, "note": 63, "velocity": 0, "until": 195.3802363333388}, {"on": true, "note": 62, "velocity": 106, "until": 195.3802363333388}, {"on": true, "note": 59, "velocity": 106, "until": 195.63664633333883}, {"on": false, "note": 59, "velocity": 0, "until": 195.63664633333883}, {"on": false, "note": 62, "velocity": 0, "until": 196.38285033333892}, {"on": true, "note": 66, "velocity": 106, "until": 196.38285033333892}, {"on": true, "note": 57, "velocity": 106, "until": 196.63926033333897}, {"on": false, "note": 57, "velocity": 0, "until": 196.63926033333897}, {"on": false, "note": 66, "velocity": 0, "until": 197.42928296667245}, {"on": true, "note": 62, "velocity": 106, "until": 197.42928296667245}, {"on": true, "note": 55, "velocity": 106, "until": 205.83050733333914}, {"on": false, "note": 55, "velocity": 0, "until": 205.83050733333914}, {"on": false, "note": 62, "velocity": 0, "until": 206.08677260833915}, {"on": true, "note": 52, "velocity": 106, "until": 206.20629410833914}, {"on": false, "note": 52, "velocity": 0, "until": 206.32581560833916}, {"on": true, "note": 52, "velocity": 106, "until": 206.44533710833915}, {"on": false, "note": 52, "velocity": 0, "until": 206.5649499166725}, {"on": true, "note": 57, "velocity": 106, "until": 206.8149499166725}, {"on": false, "note": 57, "velocity": 0, "until": 207.06483508333915}, {"on": true, "note": 55, "velocity": 106, "until": 207.1829450833392}, {"on": false, "note": 55, "velocity": 0, "until": 207.30105508333924}, {"on": true, "note": 55, "velocity": 106, "until": 207.4191650833393}, {"on": false, "note": 55, "velocity": 0, "until": 207.53736419167265}, {"on": true, "note": 60, "velocity": 106, "until": 207.7847195833393}, {"on": false, "note": 60, "velocity": 0, "until": 209.56505633333921}, {"on": true, "note": 52, "velocity": 106, "until": 210.56765222500604}, {"on": false, "note": 52, "velocity": 0, "until": 210.56765222500604}, {"on": true, "note": 57, "velocity": 106, "until": 210.82188922500606}, {"on": false, "note": 57, "velocity": 0, "until": 211.5580344166728}, {"on": true, "note": 62, "velocity": 106, "until": 211.81013441667278}, {"on": false, "note": 62, "velocity": 0, "until": 212.54805363333938}, {"on": true, "note": 50, "velocity": 91, "until": 212.67357663333937}, {"on": false, "note": 50, "velocity": 0, "until": 213.5339982666727}, {"on": true, "note": 55, "velocity": 106, "until": 213.7829602666726}, {"on": false, "note": 55, "velocity": 0, "until": 214.03181608333927}, {"on": true, "note": 52, "velocity": 106, "until": 214.1499260833393}, {"on": false, "note": 52, "velocity": 0, "until": 214.26803608333933}, {"on": true, "note": 52, "velocity": 106, "until": 214.38614608333936}, {"on": false, "note": 52, "velocity": 0, "until": 214.50433675833938}, {"on": true, "note": 57, "velocity": 106, "until": 214.75023775833935}, {"on": false, "note": 57, "velocity": 0, "until": 214.99604270833933}, {"on": true, "note": 55, "velocity": 106, "until": 215.11323020833933}, {"on": false, "note": 55, "velocity": 0, "until": 215.23041770833933}, {"on": true, "note": 55, "velocity": 106, "until": 215.34760520833933}, {"on": false, "note": 55, "velocity": 0, "until": 215.46486386667266}, {"on": true, "note": 60, "velocity": 106, "until": 215.70825358333929}, {"on": false, "note": 60, "velocity": 0, "until": 217.8988699750058}, {"on": true, "note": 60, "velocity": 106, "until": 218.01337347500578}, {"on": false, "note": 60, "velocity": 0, "until": 218.12787697500576}, {"on": true, "note": 60, "velocity": 106, "until": 218.24238047500575}, {"on": false, "note": 60, "velocity": 0, "until": 218.35699986667237}, {"on": true, "note": 61, "velocity": 106, "until": 218.822585033339}, {"on": false, "note": 61, "velocity": 0, "until": 218.84271197500564}, {"on": true, "note": 61, "velocity": 106, "until": 219.02400918333893}, {"on": false, "note": 61, "velocity": 0, "until": 219.07171897500555}, {"on": true, "note": 61, "velocity": 106, "until": 219.25301618333884}, {"on": false, "note": 61, "velocity": 0, "until": 219.30084186667213}, {"on": true, "note": 62, "velocity": 106, "until": 219.78680075000503}, {"on": false, "note": 62, "velocity": 0, "until": 220.27605886667158}, {"on": true, "note": 62, "velocity": 106, "until": 220.51897286667153}, {"on": false, "note": 62, "velocity": 0, "until": 221.2324748666715}, {"on": true, "note": 55, "velocity": 106, "until": 221.47538886667147}, {"on": false, "note": 55, "velocity": 0, "until": 222.18889086667144}, {"on": true, "note": 62, "velocity": 106, "until": 223.14530686667112}, {"on": false, "note": 62, "velocity": 0, "until": 223.14530686667112}, {"on": true, "note": 64, "velocity": 106, "until": 223.38822086667108}, {"on": false, "note": 64, "velocity": 0, "until": 224.10172286667108}, {"on": true, "note": 57, "velocity": 106, "until": 224.22317986667105}, {"on": false, "note": 57, "velocity": 0, "until": 225.05813886667104}, {"on": true, "note": 55, "velocity": 106, "until": 225.301052866671}, {"on": false, "note": 55, "velocity": 0, "until": 226.01455486667098}, {"on": true, "note": 62, "velocity": 106, "until": 226.97097086667065}, {"on": false, "note": 62, "velocity": 0, "until": 226.97097086667065}, {"on": true, "note": 64, "velocity": 106, "until": 227.2138848666706}, {"on": false, "note": 64, "velocity": 0, "until": 227.92738686667062}, {"on": true, "note": 57, "velocity": 106, "until": 228.17030086667057}, {"on": false, "note": 57, "velocity": 0, "until": 228.88380286667055}, {"on": true, "note": 55, "velocity": 106, "until": 229.12697568333718}, {"on": false, "note": 55, "velocity": 0, "until": 229.86043458333725}, {"on": true, "note": 62, "velocity": 106, "until": 230.10043458333726}, {"on": false, "note": 62, "velocity": 0, "until": 230.79847286667058}, {"on": true, "note": 67, "velocity": 106, "until": 231.04138686667054}, {"on": false, "note": 67, "velocity": 0, "until": 231.7423148666705}, {"on": true, "note": 62, "velocity": 106, "until": 231.98522886667047}, {"on": false, "note": 62, "velocity": 0, "until": 232.68611670833712}, {"on": true, "note": 55, "velocity": 106, "until": 232.92508472500384}, {"on": false, "note": 55, "velocity": 0, "until": 246.72469889167112}, {"on": true, "note": 60, "velocity": 96, "until": 246.72469889167112}, {"on": true, "note": 64, "velocity": 96, "until": 247.16551349167113}, {"on": false, "note": 64, "velocity": 0, "until": 247.16551349167113}, {"on": false, "note": 60, "velocity": 0, "until": 247.21437515833782}, {"on": true, "note": 63, "velocity": 96, "until": 247.21437515833782}, {"on": true, "note": 60, "velocity": 96, "until": 247.62975935833785}, {"on": false, "note": 60, "velocity": 0, "until": 247.62975935833785}, {"on": false, "note": 63, "velocity": 0, "until": 247.6760308916712}, {"on": true, "note": 64, "velocity": 96, "until": 247.6760308916712}, {"on": true, "note": 60, "velocity": 96, "until": 248.16570715833785}, {"on": false, "note": 60, "velocity": 0, "until": 248.16570715833785}, {"on": false, "note": 64, "velocity": 0, "until": 248.62732208333787}, {"on": true, "note": 65, "velocity": 106, "until": 248.62732208333787}, {"on": true, "note": 59, "velocity": 106, "until": 248.84332208333788}, {"on": false, "note": 59, "velocity": 0, "until": 248.84332208333788}, {"on": false, "note": 65, "velocity": 0, "until": 248.86732208333788}, {"on": true, "note": 65, "velocity": 106, "until": 248.86732208333788}, {"on": true, "note": 59, "velocity": 106, "until": 249.0833220833379}, {"on": false, "note": 59, "velocity": 0, "until": 249.0833220833379}, {"on": false, "note": 65, "velocity": 0, "until": 249.1073220833379}, {"on": true, "note": 65, "velocity": 106, "until": 249.1073220833379}, {"on": true, "note": 59, "velocity": 106, "until": 249.3233220833379}, {"on": false, "note": 59, "velocity": 0, "until": 249.3233220833379}, {"on": false, "note": 65, "velocity": 0, "until": 249.3473220833379}, {"on": true, "note": 65, "velocity": 106, "until": 249.3473220833379}, {"on": true, "note": 59, "velocity": 106, "until": 249.5633220833379}, {"on": false, "note": 59, "velocity": 0, "until": 249.5633220833379}, {"on": false, "note": 65, "velocity": 0, "until": 249.5873220833379}, {"on": true, "note": 65, "velocity": 106, "until": 249.5873220833379}, {"on": true, "note": 59, "velocity": 106, "until": 250.0672451583379}, {"on": false, "note": 59, "velocity": 0, "until": 250.0672451583379}, {"on": false, "note": 65, "velocity": 0, "until": 250.528900891671}, {"on": true, "note": 60, "velocity": 96, "until": 250.528900891671}, {"on": true, "note": 64, "velocity": 96, "until": 251.01857715833765}, {"on": false, "note": 64, "velocity": 0, "until": 251.01857715833765}, {"on": false, "note": 60, "velocity": 0, "until": 251.01857715833765}, {"on": true, "note": 60, "velocity": 96, "until": 251.01857715833765}, {"on": true, "note": 63, "velocity": 96, "until": 251.480232891671}, {"on": false, "note": 63, "velocity": 0, "until": 251.480232891671}, {"on": false, "note": 60, "velocity": 0, "until": 251.480232891671}, {"on": true, "note": 60, "velocity": 96, "until": 251.480232891671}, {"on": true, "note": 64, "velocity": 96, "until": 251.96990915833766}, {"on": false, "note": 64, "velocity": 0, "until": 251.96990915833766}, {"on": false, "note": 60, "velocity": 0, "until": 252.43149258333767}, {"on": true, "note": 64, "velocity": 106, "until": 252.5496025833377}, {"on": false, "note": 64, "velocity": 0, "until": 252.66771258333773}, {"on": true, "note": 64, "velocity": 106, "until": 252.78582258333776}, {"on": false, "note": 64, "velocity": 0, "until": 252.9039325833378}, {"on": true, "note": 64, "velocity": 106, "until": 253.02204258333782}, {"on": false, "note": 64, "velocity": 0, "until": 253.14015258333785}, {"on": true, "note": 64, "velocity": 106, "until": 253.25826258333788}, {"on": false, "note": 64, "velocity": 0, "until": 253.3763725833379}, {"on": true, "note": 64, "velocity": 106, "until": 253.8487671583383}, {"on": false, "note": 64, "velocity": 0, "until": 258.1627588916713}, {"on": true, "note": 55, "velocity": 106, "until": 258.2852073916713}, {"on": false, "note": 55, "velocity": 0, "until": 258.4076558916713}, {"on": true, "note": 65, "velocity": 106, "until": 258.8832041583378}, {"on": false, "note": 65, "velocity": 0, "until": 258.8832041583378}, {"on": true, "note": 64, "velocity": 106, "until": 258.9985886583377}, {"on": false, "note": 64, "velocity": 0, "until": 258.9985886583377}, {"on": true, "note": 60, "velocity": 106, "until": 259.0947424083377}, {"on": false, "note": 60, "velocity": 0, "until": 259.1140908916711}, {"on": true, "note": 59, "velocity": 106, "until": 259.2365393916711}, {"on": false, "note": 59, "velocity": 0, "until": 259.3589878916711}, {"on": true, "note": 65, "velocity": 106, "until": 259.8345361583376}, {"on": false, "note": 65, "velocity": 0, "until": 259.8345361583376}, {"on": true, "note": 64, "velocity": 106, "until": 259.94992065833753}, {"on": false, "note": 64, "velocity": 0, "until": 259.94992065833753}, {"on": true, "note": 60, "velocity": 106, "until": 260.0460744083375}, {"on": false, "note": 60, "velocity": 0, "until": 260.0654228916709}, {"on": true, "note": 59, "velocity": 106, "until": 260.1878713916709}, {"on": false, "note": 59, "velocity": 0, "until": 260.31031989167093}, {"on": true, "note": 65, "velocity": 106, "until": 260.7858681583374}, {"on": false, "note": 65, "velocity": 0, "until": 260.7858681583374}, {"on": true, "note": 64, "velocity": 106, "until": 260.90125265833734}, {"on": false, "note": 64, "velocity": 0, "until": 260.90125265833734}, {"on": true, "note": 60, "velocity": 106, "until": 260.9974064083373}, {"on": false, "note": 60, "velocity": 0, "until": 261.0167548916707}, {"on": true, "note": 55, "velocity": 106, "until": 261.2617570000041}, {"on": false, "note": 55, "velocity": 0, "until": 265.6156331583371}, {"on": true, "note": 60, "velocity": 106, "until": 265.6156331583371}, {"on": true, "note": 67, "velocity": 106, "until": 265.73101765833707}, {"on": false, "note": 67, "velocity": 0, "until": 265.73101765833707}, {"on": false, "note": 60, "velocity": 0, "until": 265.846479083337}, {"on": true, "note": 69, "velocity": 106, "until": 265.846479083337}, {"on": true, "note": 65, "velocity": 106, "until": 265.96647908333705}, {"on": false, "note": 65, "velocity": 0, "until": 265.96647908333705}, {"on": false, "note": 69, "velocity": 0, "until": 266.0864790833371}, {"on": true, "note": 67, "velocity": 106, "until": 266.0864790833371}, {"on": true, "note": 60, "velocity": 106, "until": 266.2064790833372}, {"on": false, "note": 60, "velocity": 0, "until": 266.2064790833372}, {"on": false, "note": 67, "velocity": 0, "until": 266.32647908333723}, {"on": true, "note": 69, "velocity": 106, "until": 266.32647908333723}, {"on": true, "note": 65, "velocity": 106, "until": 266.4464790833373}, {"on": false, "note": 65, "velocity": 0, "until": 266.4464790833373}, {"on": false, "note": 69, "velocity": 0, "until": 266.56647908333736}, {"on": true, "note": 60, "velocity": 106, "until": 266.56647908333736}, {"on": true, "note": 67, "velocity": 106, "until": 266.6864790833374}, {"on": false, "note": 67, "velocity": 0, "until": 266.6864790833374}, {"on": false, "note": 60, "velocity": 0, "until": 266.8064790833375}, {"on": true, "note": 65, "velocity": 106, "until": 266.8064790833375}, {"on": true, "note": 69, "velocity": 106, "until": 267.2864021583384}, {"on": false, "note": 69, "velocity": 0, "until": 267.2864021583384}, {"on": false, "note": 65, "velocity": 0, "until": 269.4016331583378}, {"on": true, "note": 55, "velocity": 106, "until": 269.4016331583378}, {"on": true, "note": 62, "velocity": 106, "until": 269.51701765833775}, {"on": false, "note": 62, "velocity": 0, "until": 269.51701765833775}, {"on": false, "note": 55, "velocity": 0, "until": 269.63244758333764}, {"on": true, "note": 60, "velocity": 106, "until": 269.63244758333764}, {"on": true, "note": 64, "velocity": 106, "until": 269.7505575833375}, {"on": false, "note": 64, "velocity": 0, "until": 269.7505575833375}, {"on": false, "note": 60, "velocity": 0, "until": 269.8686675833374}, {"on": true, "note": 62, "velocity": 106, "until": 269.8686675833374}, {"on": true, "note": 55, "velocity": 106, "until": 269.9867775833373}, {"on": false, "note": 55, "velocity": 0, "until": 269.9867775833373}, {"on": false, "note": 62, "velocity": 0, "until": 270.1048875833372}, {"on": true, "note": 60, "velocity": 106, "until": 270.1048875833372}, {"on": true, "note": 64, "velocity": 106, "until": 270.2229975833371}, {"on": false, "note": 64, "velocity": 0, "until": 270.2229975833371}, {"on": false, "note": 60, "velocity": 0, "until": 270.34110758333696}, {"on": true, "note": 62, "velocity": 106, "until": 270.34110758333696}, {"on": true, "note": 55, "velocity": 106, "until": 270.45921758333685}, {"on": false, "note": 55, "velocity": 0, "until": 270.45921758333685}, {"on": false, "note": 62, "velocity": 0, "until": 270.57732758333674}, {"on": true, "note": 64, "velocity": 106, "until": 270.57732758333674}, {"on": true, "note": 60, "velocity": 106, "until": 270.81354758333663}, {"on": false, "note": 60, "velocity": 0, "until": 270.81354758333663}, {"on": false, "note": 64, "velocity": 0, "until": 271.0497221583365}, {"on": true, "note": 67, "velocity": 106, "until": 271.49202940833624}, {"on": false, "note": 67, "velocity": 0, "until": 271.51137789166955}, {"on": true, "note": 64, "velocity": 106, "until": 271.98076380833623}, {"on": false, "note": 64, "velocity": 0, "until": 272.0010541583362}, {"on": true, "note": 66, "velocity": 106, "until": 272.44336140833593}, {"on": false, "note": 66, "velocity": 0, "until": 272.46270989166925}, {"on": true, "note": 67, "velocity": 106, "until": 272.93209580833593}, {"on": false, "note": 67, "velocity": 0, "until": 272.9523861583359}, {"on": true, "note": 55, "velocity": 106, "until": 273.3946934083356}, {"on": false, "note": 55, "velocity": 0, "until": 273.41404189166894}, {"on": true, "note": 60, "velocity": 106, "until": 273.5160823083356}, {"on": false, "note": 60, "velocity": 0, "until": 273.53649039166896}, {"on": true, "note": 60, "velocity": 106, "until": 273.63853080833564}, {"on": false, "note": 60, "velocity": 0, "until": 273.658938891669}, {"on": true, "note": 60, "velocity": 106, "until": 273.76097930833566}, {"on": false, "note": 60, "velocity": 0, "until": 273.781387391669}, {"on": true, "note": 60, "velocity": 106, "until": 273.8834278083357}, {"on": false, "note": 60, "velocity": 0, "until": 273.90371815833566}, {"on": true, "note": 60, "velocity": 106, "until": 273.9998719083356}, {"on": false, "note": 60, "velocity": 0, "until": 274.0191026583356}, {"on": true, "note": 60, "velocity": 106, "until": 274.1152564083356}, {"on": false, "note": 60, "velocity": 0, "until": 274.1344871583356}, {"on": true, "note": 63, "velocity": 106, "until": 274.23064090833554}, {"on": false, "note": 63, "velocity": 0, "until": 274.24987165833556}, {"on": true, "note": 63, "velocity": 106, "until": 274.34602540833555}, {"on": false, "note": 63, "velocity": 0, "until": 274.3653738916689}, {"on": true, "note": 60, "velocity": 106, "until": 274.4674143083356}, {"on": false, "note": 60, "velocity": 0, "until": 274.48782239166894}, {"on": true, "note": 60, "velocity": 106, "until": 274.5898628083356}, {"on": false, "note": 60, "velocity": 0, "until": 274.61027089166896}, {"on": true, "note": 60, "velocity": 106, "until": 274.71231130833564}, {"on": false, "note": 60, "velocity": 0, "until": 274.732719391669}, {"on": true, "note": 60, "velocity": 106, "until": 274.83475980833566}, {"on": false, "note": 60, "velocity": 0, "until": 274.85505015833564}, {"on": true, "note": 60, "velocity": 106, "until": 274.9512039083354}, {"on": false, "note": 60, "velocity": 0, "until": 274.9704346583353}, {"on": true, "note": 60, "velocity": 106, "until": 275.0665884083351}, {"on": false, "note": 60, "velocity": 0, "until": 275.08581915833514}, {"on": true, "note": 63, "velocity": 106, "until": 275.18197290833507}, {"on": false, "note": 63, "velocity": 0, "until": 275.2012036583351}, {"on": true, "note": 63, "velocity": 106, "until": 275.2973574083351}, {"on": false, "note": 63, "velocity": 0, "until": 275.31670589166845}, {"on": true, "note": 60, "velocity": 106, "until": 275.41874630833513}, {"on": false, "note": 60, "velocity": 0, "until": 275.43915439166847}, {"on": true, "note": 60, "velocity": 106, "until": 275.54119480833515}, {"on": false, "note": 60, "velocity": 0, "until": 275.5616028916685}, {"on": true, "note": 63, "velocity": 106, "until": 275.66364330833517}, {"on": false, "note": 63, "velocity": 0, "until": 275.6840513916685}, {"on": true, "note": 63, "velocity": 106, "until": 275.7860918083352}, {"on": false, "note": 63, "velocity": 0, "until": 275.80638215833517}, {"on": true, "note": 60, "velocity": 106, "until": 275.902535908335}, {"on": false, "note": 60, "velocity": 0, "until": 275.9217666583349}, {"on": true, "note": 60, "velocity": 106, "until": 276.0179204083348}, {"on": false, "note": 60, "velocity": 0, "until": 276.03715115833484}, {"on": true, "note": 63, "velocity": 106, "until": 276.13330490833476}, {"on": false, "note": 63, "velocity": 0, "until": 276.1525356583348}, {"on": true, "note": 63, "velocity": 106, "until": 276.24868940833477}, {"on": false, "note": 63, "velocity": 0, "until": 276.2680378916681}, {"on": true, "note": 60, "velocity": 106, "until": 276.37007830833477}, {"on": false, "note": 60, "velocity": 0, "until": 276.3904863916681}, {"on": true, "note": 60, "velocity": 106, "until": 276.4925268083348}, {"on": false, "note": 60, "velocity": 0, "until": 276.5129348916681}, {"on": true, "note": 63, "velocity": 106, "until": 276.6149753083348}, {"on": false, "note": 63, "velocity": 0, "until": 276.63538339166814}, {"on": true, "note": 63, "velocity": 106, "until": 276.7374238083348}, {"on": false, "note": 63, "velocity": 0, "until": 276.7577141583348}, {"on": true, "note": 60, "velocity": 106, "until": 276.8538679083346}, {"on": false, "note": 60, "velocity": 0, "until": 276.8730986583345}, {"on": true, "note": 60, "velocity": 106, "until": 276.96925240833446}, {"on": false, "note": 60, "velocity": 0, "until": 276.9884831583345}, {"on": true, "note": 63, "velocity": 106, "until": 277.0846369083344}, {"on": false, "note": 63, "velocity": 0, "until": 277.1038676583344}, {"on": true, "note": 63, "velocity": 106, "until": 277.2000214083344}, {"on": false, "note": 63, "velocity": 0, "until": 277.2193698916677}, {"on": true, "note": 63, "velocity": 106, "until": 277.3214103083344}, {"on": false, "note": 63, "velocity": 0, "until": 277.34181839166774}, {"on": true, "note": 63, "velocity": 106, "until": 277.4438588083344}, {"on": false, "note": 63, "velocity": 0, "until": 277.46426689166776}, {"on": true, "note": 63, "velocity": 106, "until": 277.56630730833444}, {"on": false, "note": 63, "velocity": 0, "until": 277.5867153916678}, {"on": true, "note": 63, "velocity": 106, "until": 277.68875580833446}, {"on": false, "note": 63, "velocity": 0, "until": 277.70904615833444}, {"on": true, "note": 63, "velocity": 106, "until": 277.8051999083342}, {"on": false, "note": 63, "velocity": 0, "until": 277.8244306583341}, {"on": true, "note": 63, "velocity": 106, "until": 277.9205844083339}, {"on": false, "note": 63, "velocity": 0, "until": 277.93981515833394}, {"on": true, "note": 62, "velocity": 106, "until": 278.03596890833387}, {"on": false, "note": 62, "velocity": 0, "until": 278.0551996583339}, {"on": true, "note": 62, "velocity": 106, "until": 278.1513534083339}, {"on": false, "note": 62, "velocity": 0, "until": 278.1707018916672}, {"on": true, "note": 63, "velocity": 106, "until": 278.2727423083339}, {"on": false, "note": 63, "velocity": 0, "until": 278.2931503916672}, {"on": true, "note": 63, "velocity": 106, "until": 278.3951908083339}, {"on": false, "note": 63, "velocity": 0, "until": 278.41559889166723}, {"on": true, "note": 63, "velocity": 106, "until": 278.5176393083339}, {"on": false, "note": 63, "velocity": 0, "until": 278.53804739166725}, {"on": true, "note": 63, "velocity": 106, "until": 278.64008780833393}, {"on": false, "note": 63, "velocity": 0, "until": 278.6603781583339}, {"on": true, "note": 63, "velocity": 106, "until": 278.75653190833367}, {"on": false, "note": 63, "velocity": 0, "until": 278.7757626583336}, {"on": true, "note": 63, "velocity": 106, "until": 278.8719164083334}, {"on": false, "note": 63, "velocity": 0, "until": 278.8911471583334}, {"on": true, "note": 62, "velocity": 106, "until": 278.98730090833334}, {"on": false, "note": 62, "velocity": 0, "until": 279.00653165833336}, {"on": true, "note": 62, "velocity": 106, "until": 279.10268540833334}, {"on": false, "note": 62, "velocity": 0, "until": 279.12203389166666}, {"on": true, "note": 63, "velocity": 106, "until": 279.3669308916667}, {"on": false, "note": 63, "velocity": 0, "until": 279.6117101583334}, {"on": true, "note": 63, "velocity": 106, "until": 279.842479158333}, {"on": false, "note": 63, "velocity": 0, "until": 280.0733658916661}, {"on": true, "note": 63, "velocity": 106, "until": 280.31826289166617}, {"on": false, "note": 63, "velocity": 0, "until": 280.56304215833285}, {"on": true, "note": 63, "velocity": 106, "until": 280.65919590833266}, {"on": false, "note": 63, "velocity": 0, "until": 280.67842665833257}, {"on": true, "note": 63, "velocity": 106, "until": 280.7745804083325}, {"on": false, "note": 63, "velocity": 0, "until": 280.7938111583325}, {"on": true, "note": 63, "velocity": 106, "until": 280.88996490833244}, {"on": false, "note": 63, "velocity": 0, "until": 280.90919565833246}, {"on": true, "note": 63, "velocity": 106, "until": 281.0053494083324}, {"on": false, "note": 63, "velocity": 0, "until": 281.0246978916657}, {"on": true, "note": 62, "velocity": 106, "until": 281.26959489166575}, {"on": false, "note": 62, "velocity": 0, "until": 284.9304831333325}, {"on": true, "note": 55, "velocity": 106, "until": 284.99324463333244}, {"on": false, "note": 55, "velocity": 0, "until": 285.0560061333324}, {"on": true, "note": 55, "velocity": 106, "until": 285.11876763333237}, {"on": false, "note": 55, "velocity": 0, "until": 285.18152913333233}, {"on": true, "note": 55, "velocity": 106, "until": 285.2442906333323}, {"on": false, "note": 55, "velocity": 0, "until": 285.30705213333226}, {"on": true, "note": 55, "velocity": 106, "until": 285.3698136333322}, {"on": false, "note": 55, "velocity": 0, "until": 285.4324992083322}, {"on": true, "note": 55, "velocity": 106, "until": 285.6542729583324}, {"on": false, "note": 55, "velocity": 0, "until": 285.67443420833246}, {"on": true, "note": 55, "velocity": 106, "until": 285.89620795833264}, {"on": false, "note": 55, "velocity": 0, "until": 285.9164451333327}, {"on": true, "note": 55, "velocity": 106, "until": 285.97920663333264}, {"on": false, "note": 55, "velocity": 0, "until": 286.0419681333326}, {"on": true, "note": 55, "velocity": 106, "until": 286.10472963333257}, {"on": false, "note": 55, "velocity": 0, "until": 286.16749113333253}, {"on": true, "note": 55, "velocity": 106, "until": 286.2302526333325}, {"on": false, "note": 55, "velocity": 0, "until": 286.29301413333246}, {"on": true, "note": 55, "velocity": 106, "until": 286.3557756333324}, {"on": false, "note": 55, "velocity": 0, "until": 286.4184612083324}, {"on": true, "note": 55, "velocity": 106, "until": 286.6402349583326}, {"on": false, "note": 55, "velocity": 0, "until": 286.66039620833266}, {"on": true, "note": 55, "velocity": 106, "until": 286.88216995833284}, {"on": false, "note": 55, "velocity": 0, "until": 286.9024071333329}, {"on": true, "note": 55, "velocity": 106, "until": 286.96516863333284}, {"on": false, "note": 55, "velocity": 0, "until": 287.0279301333328}, {"on": true, "note": 55, "velocity": 106, "until": 287.09069163333277}, {"on": false, "note": 55, "velocity": 0, "until": 287.15345313333273}, {"on": true, "note": 55, "velocity": 106, "until": 287.2162146333327}, {"on": false, "note": 55, "velocity": 0, "until": 287.27897613333266}, {"on": true, "note": 55, "velocity": 106, "until": 287.3417376333326}, {"on": false, "note": 55, "velocity": 0, "until": 287.4044232083326}, {"on": true, "note": 55, "velocity": 106, "until": 287.6261969583328}, {"on": false, "note": 55, "velocity": 0, "until": 287.64635820833286}, {"on": true, "note": 55, "velocity": 106, "until": 287.86813195833304}, {"on": false, "note": 55, "velocity": 0, "until": 287.8883691333331}, {"on": true, "note": 55, "velocity": 106, "until": 287.95113063333304}, {"on": false, "note": 55, "velocity": 0, "until": 288.013892133333}, {"on": true, "note": 55, "velocity": 106, "until": 288.07665363333297}, {"on": false, "note": 55, "velocity": 0, "until": 288.13941513333293}, {"on": true, "note": 55, "velocity": 106, "until": 288.2021766333329}, {"on": false, "note": 55, "velocity": 0, "until": 288.26493813333286}, {"on": true, "note": 55, "velocity": 106, "until": 288.3276996333328}, {"on": false, "note": 55, "velocity": 0, "until": 288.3903852083328}, {"on": true, "note": 55, "velocity": 106, "until": 288.612158958333}, {"on": false, "note": 55, "velocity": 0, "until": 288.63232020833306}, {"on": true, "note": 55, "velocity": 106, "until": 288.7875618333332}, {"on": false, "note": 55, "velocity": 0, "until": 288.87433113333327}, {"on": true, "note": 54, "velocity": 106, "until": 288.93709263333307}, {"on": false, "note": 54, "velocity": 0, "until": 288.9998541333328}, {"on": true, "note": 54, "velocity": 106, "until": 289.0626156333326}, {"on": false, "note": 54, "velocity": 0, "until": 289.1253771333324}, {"on": true, "note": 54, "velocity": 106, "until": 289.18813863333224}, {"on": false, "note": 54, "velocity": 0, "until": 289.25090013333204}, {"on": true, "note": 54, "velocity": 106, "until": 289.3136616333319}, {"on": false, "note": 54, "velocity": 0, "until": 289.37634720833177}, {"on": true, "note": 54, "velocity": 106, "until": 289.59812095833183}, {"on": false, "note": 54, "velocity": 0, "until": 289.6182822083319}, {"on": true, "note": 54, "velocity": 106, "until": 289.84005595833196}, {"on": false, "note": 54, "velocity": 0, "until": 289.860293133332}, {"on": true, "note": 55, "velocity": 106, "until": 289.9858161333319}, {"on": false, "note": 55, "velocity": 0, "until": 290.11133913333185}, {"on": true, "note": 60, "velocity": 91, "until": 290.2368621333318}, {"on": false, "note": 60, "velocity": 0, "until": 290.36230920833174}, {"on": true, "note": 59, "velocity": 91, "until": 290.4832767083318}, {"on": false, "note": 59, "velocity": 0, "until": 290.60424420833186}, {"on": true, "note": 55, "velocity": 91, "until": 290.7252117083319}, {"on": false, "note": 55, "velocity": 0, "until": 290.84625513333197}, {"on": true, "note": 54, "velocity": 106, "until": 290.9090166333319}, {"on": false, "note": 54, "velocity": 0, "until": 290.97177813333167}, {"on": true, "note": 54, "velocity": 106, "until": 291.0345396333316}, {"on": false, "note": 54, "velocity": 0, "until": 291.09730113333137}, {"on": true, "note": 54, "velocity": 106, "until": 291.1600626333313}, {"on": false, "note": 54, "velocity": 0, "until": 291.2228241333312}, {"on": true, "note": 54, "velocity": 106, "until": 291.2855856333311}, {"on": false, "note": 54, "velocity": 0, "until": 291.348271208331}, {"on": true, "note": 54, "velocity": 106, "until": 291.5700449583311}, {"on": false, "note": 54, "velocity": 0, "until": 291.59020620833115}, {"on": true, "note": 54, "velocity": 106, "until": 291.8119799583312}, {"on": false, "note": 54, "velocity": 0, "until": 291.83221713333126}, {"on": true, "note": 55, "velocity": 106, "until": 291.9577401333312}, {"on": false, "note": 55, "velocity": 0, "until": 292.0832631333311}, {"on": true, "note": 60, "velocity": 91, "until": 292.20878613333105}, {"on": false, "note": 60, "velocity": 0, "until": 292.334233208331}, {"on": true, "note": 59, "velocity": 91, "until": 292.5765105666644}, {"on": false, "note": 59, "velocity": 0, "until": 292.85930683333106}, {"on": true, "note": 55, "velocity": 106, "until": 292.92340933333105}, {"on": false, "note": 55, "velocity": 0, "until": 292.98751183333104}, {"on": true, "note": 55, "velocity": 106, "until": 293.05161433333103}, {"on": false, "note": 55, "velocity": 0, "until": 293.115716833331}, {"on": true, "note": 55, "velocity": 106, "until": 293.179819333331}, {"on": false, "note": 55, "velocity": 0, "until": 293.243921833331}, {"on": true, "note": 55, "velocity": 106, "until": 293.308024333331}, {"on": false, "note": 55, "velocity": 0, "until": 293.37203089166434}, {"on": true, "note": 55, "velocity": 106, "until": 293.59651980833104}, {"on": false, "note": 55, "velocity": 0, "until": 293.6169278916644}, {"on": true, "note": 55, "velocity": 106, "until": 293.8414168083311}, {"on": false, "note": 55, "velocity": 0, "until": 293.86192083333106}, {"on": true, "note": 55, "velocity": 106, "until": 293.926023333331}, {"on": false, "note": 55, "velocity": 0, "until": 293.990125833331}, {"on": true, "note": 55, "velocity": 106, "until": 294.05422833333097}, {"on": false, "note": 55, "velocity": 0, "until": 294.11833083333096}, {"on": true, "note": 55, "velocity": 106, "until": 294.18243333333095}, {"on": false, "note": 55, "velocity": 0, "until": 294.24653583333094}, {"on": true, "note": 55, "velocity": 106, "until": 294.3106383333309}, {"on": false, "note": 55, "velocity": 0, "until": 294.3746448916643}, {"on": true, "note": 55, "velocity": 106, "until": 294.599133808331}, {"on": false, "note": 55, "velocity": 0, "until": 294.6195418916643}, {"on": true, "note": 55, "velocity": 106, "until": 294.844030808331}, {"on": false, "note": 55, "velocity": 0, "until": 294.864534833331}, {"on": true, "note": 55, "velocity": 106, "until": 294.9286373333309}, {"on": false, "note": 55, "velocity": 0, "until": 294.9927398333309}, {"on": true, "note": 55, "velocity": 106, "until": 295.0568423333309}, {"on": false, "note": 55, "velocity": 0, "until": 295.1209448333309}, {"on": true, "note": 55, "velocity": 106, "until": 295.1850473333309}, {"on": false, "note": 55, "velocity": 0, "until": 295.2491498333309}, {"on": true, "note": 55, "velocity": 106, "until": 295.31325233333087}, {"on": false, "note": 55, "velocity": 0, "until": 295.3772588916642}, {"on": true, "note": 55, "velocity": 106, "until": 295.6017478083309}, {"on": false, "note": 55, "velocity": 0, "until": 295.62215589166425}, {"on": true, "note": 55, "velocity": 106, "until": 295.84664480833095}, {"on": false, "note": 55, "velocity": 0, "until": 295.86714883333093}, {"on": true, "note": 55, "velocity": 106, "until": 295.93125133333086}, {"on": false, "note": 55, "velocity": 0, "until": 295.99535383333085}, {"on": true, "note": 55, "velocity": 106, "until": 296.05945633333084}, {"on": false, "note": 55, "velocity": 0, "until": 296.12355883333083}, {"on": true, "note": 55, "velocity": 106, "until": 296.1876613333308}, {"on": false, "note": 55, "velocity": 0, "until": 296.2517638333308}, {"on": true, "note": 55, "velocity": 106, "until": 296.3158663333308}, {"on": false, "note": 55, "velocity": 0, "until": 296.37987289166415}, {"on": true, "note": 55, "velocity": 106, "until": 296.60436180833085}, {"on": false, "note": 55, "velocity": 0, "until": 296.6247698916642}, {"on": true, "note": 55, "velocity": 106, "until": 296.8492588083309}, {"on": false, "note": 55, "velocity": 0, "until": 296.86976283333087}, {"on": true, "note": 53, "velocity": 106, "until": 296.9338653333308}, {"on": false, "note": 53, "velocity": 0, "until": 296.9979678333308}, {"on": true, "note": 53, "velocity": 106, "until": 297.06207033333067}, {"on": false, "note": 53, "velocity": 0, "until": 297.12617283333066}, {"on": true, "note": 53, "velocity": 106, "until": 297.1902753333307}, {"on": false, "note": 53, "velocity": 0, "until": 297.25437783333075}, {"on": true, "note": 53, "velocity": 106, "until": 297.31848033333074}, {"on": false, "note": 53, "velocity": 0, "until": 297.3824868916641}, {"on": true, "note": 53, "velocity": 106, "until": 297.60697580833073}, {"on": false, "note": 53, "velocity": 0, "until": 297.62738389166407}, {"on": true, "note": 57, "velocity": 106, "until": 297.85187280833077}, {"on": false, "note": 57, "velocity": 0, "until": 297.87237683333075}, {"on": true, "note": 58, "velocity": 106, "until": 298.0005818333307}, {"on": false, "note": 58, "velocity": 0, "until": 298.1287868333307}, {"on": true, "note": 60, "velocity": 91, "until": 298.2569918333307}, {"on": false, "note": 60, "velocity": 0, "until": 298.385100891664}, {"on": true, "note": 62, "velocity": 91, "until": 298.50754939166404}, {"on": false, "note": 62, "velocity": 0, "until": 298.62999789166406}, {"on": true, "note": 58, "velocity": 91, "until": 298.7524463916641}, {"on": false, "note": 58, "velocity": 0, "until": 298.87499083333074}, {"on": true, "note": 57, "velocity": 106, "until": 298.93909333333073}, {"on": false, "note": 57, "velocity": 0, "until": 299.0031958333307}, {"on": true, "note": 57, "velocity": 106, "until": 299.0672983333307}, {"on": false, "note": 57, "velocity": 0, "until": 299.13140083333064}, {"on": true, "note": 57, "velocity": 106, "until": 299.1955033333307}, {"on": false, "note": 57, "velocity": 0, "until": 299.2596058333307}, {"on": true, "note": 57, "velocity": 106, "until": 299.32370833333067}, {"on": false, "note": 57, "velocity": 0, "until": 299.387714891664}, {"on": true, "note": 57, "velocity": 106, "until": 299.61220380833066}, {"on": false, "note": 57, "velocity": 0, "until": 299.632611891664}, {"on": true, "note": 57, "velocity": 106, "until": 299.8571008083307}, {"on": false, "note": 57, "velocity": 0, "until": 299.8776048333307}, {"on": true, "note": 58, "velocity": 106, "until": 300.00580983333066}, {"on": false, "note": 58, "velocity": 0, "until": 300.13401483333064}, {"on": true, "note": 60, "velocity": 91, "until": 300.2622198333306}, {"on": false, "note": 60, "velocity": 0, "until": 300.39032889166396}, {"on": true, "note": 62, "velocity": 91, "until": 300.6354578083306}, {"on": false, "note": 62, "velocity": 0, "until": 300.9080041333306}, {"on": true, "note": 62, "velocity": 106, "until": 301.28457313333007}, {"on": false, "note": 62, "velocity": 0, "until": 301.28457313333007}, {"on": true, "note": 63, "velocity": 106, "until": 301.41002020833}, {"on": false, "note": 63, "velocity": 0, "until": 301.41002020833}, {"on": true, "note": 62, "velocity": 106, "until": 301.6317939583301}, {"on": false, "note": 62, "velocity": 0, "until": 301.65195520833015}, {"on": true, "note": 60, "velocity": 106, "until": 301.7729227083302}, {"on": false, "note": 60, "velocity": 0, "until": 301.89396613333025}, {"on": true, "note": 58, "velocity": 106, "until": 302.0194891333302}, {"on": false, "note": 58, "velocity": 0, "until": 302.0194891333302}, {"on": true, "note": 62, "velocity": 106, "until": 302.1240916333301}, {"on": false, "note": 62, "velocity": 0, "until": 302.14501213333006}, {"on": true, "note": 60, "velocity": 106, "until": 302.20777363333}, {"on": false, "note": 60, "velocity": 0, "until": 302.27053513333}, {"on": true, "note": 57, "velocity": 106, "until": 302.33329663332995}, {"on": false, "note": 57, "velocity": 0, "until": 302.39598220832994}, {"on": true, "note": 55, "velocity": 106, "until": 302.63791720833}, {"on": false, "note": 55, "velocity": 0, "until": 304.85182619166335}, {"on": true, "note": 62, "velocity": 106, "until": 305.2237256916636}, {"on": false, "note": 62, "velocity": 0, "until": 305.2237256916636}, {"on": true, "note": 63, "velocity": 106, "until": 305.34760236666364}, {"on": false, "note": 63, "velocity": 0, "until": 305.34760236666364}, {"on": true, "note": 62, "velocity": 106, "until": 305.5649935333302}, {"on": false, "note": 62, "velocity": 0, "until": 305.5847563666635}, {"on": true, "note": 60, "velocity": 106, "until": 305.70333336666346}, {"on": false, "note": 60, "velocity": 0, "until": 305.82200019166345}, {"on": true, "note": 58, "velocity": 106, "until": 305.9459666916635}, {"on": false, "note": 58, "velocity": 0, "until": 305.9459666916635}, {"on": true, "note": 62, "velocity": 106, "until": 306.0492721083302}, {"on": false, "note": 62, "velocity": 0, "until": 306.06993319166355}, {"on": true, "note": 60, "velocity": 106, "until": 306.1319164416636}, {"on": false, "note": 60, "velocity": 0, "until": 306.1938996916636}, {"on": true, "note": 57, "velocity": 106, "until": 306.25588294166363}, {"on": false, "note": 57, "velocity": 0, "until": 306.3177763666636}, {"on": true, "note": 55, "velocity": 106, "until": 306.55493036666354}, {"on": false, "note": 55, "velocity": 0, "until": 308.7324803666637}, {"on": true, "note": 69, "velocity": 106, "until": 309.0968513666643}, {"on": false, "note": 69, "velocity": 0, "until": 309.0968513666643}, {"on": true, "note": 70, "velocity": 106, "until": 309.2181924749978}, {"on": false, "note": 70, "velocity": 0, "until": 309.2181924749978}, {"on": true, "note": 69, "velocity": 106, "until": 309.42811555833117}, {"on": false, "note": 69, "velocity": 0, "until": 309.44719947499783}, {"on": true, "note": 67, "velocity": 106, "until": 309.5617029749979}, {"on": false, "note": 67, "velocity": 0, "until": 309.67632236666464}, {"on": true, "note": 65, "velocity": 106, "until": 309.7977793666647}, {"on": false, "note": 65, "velocity": 0, "until": 309.7977793666647}, {"on": true, "note": 69, "velocity": 106, "until": 309.8989935333314}, {"on": false, "note": 69, "velocity": 0, "until": 309.91923636666473}, {"on": true, "note": 67, "velocity": 106, "until": 309.9799648666648}, {"on": false, "note": 67, "velocity": 0, "until": 310.04069336666475}, {"on": true, "note": 64, "velocity": 106, "until": 310.1014218666648}, {"on": false, "note": 64, "velocity": 0, "until": 310.1620344749981}, {"on": true, "note": 62, "velocity": 106, "until": 310.39104147499825}, {"on": false, "note": 62, "velocity": 0, "until": 310.62016436666494}, {"on": true, "note": 60, "velocity": 106, "until": 310.98453536666545}, {"on": false, "note": 60, "velocity": 0, "until": 310.98453536666545}, {"on": true, "note": 62, "velocity": 106, "until": 311.10587647499904}, {"on": false, "note": 62, "velocity": 0, "until": 311.10587647499904}, {"on": true, "note": 60, "velocity": 106, "until": 311.31579955833246}, {"on": false, "note": 60, "velocity": 0, "until": 311.3348834749992}, {"on": true, "note": 58, "velocity": 106, "until": 311.44938697499924}, {"on": false, "note": 58, "velocity": 0, "until": 311.564006366666}, {"on": true, "note": 57, "velocity": 106, "until": 311.68546336666606}, {"on": false, "note": 57, "velocity": 0, "until": 311.68546336666606}, {"on": true, "note": 60, "velocity": 106, "until": 311.78667753333275}, {"on": false, "note": 60, "velocity": 0, "until": 311.80692036666613}, {"on": true, "note": 58, "velocity": 106, "until": 311.86764886666623}, {"on": false, "note": 58, "velocity": 0, "until": 311.9283773666662}, {"on": true, "note": 55, "velocity": 106, "until": 311.98910586666625}, {"on": false, "note": 55, "velocity": 0, "until": 312.0497184749996}, {"on": true, "note": 53, "velocity": 106, "until": 312.27872547499976}, {"on": false, "note": 53, "velocity": 0, "until": 312.5082279249998}, {"on": true, "note": 63, "velocity": 106, "until": 312.79636841666627}, {"on": false, "note": 63, "velocity": 0, "until": 314.5252258333335}, {"on": true, "note": 59, "velocity": 106, "until": 314.5252258333335}, {"on": true, "note": 62, "velocity": 106, "until": 314.7816358333334}, {"on": false, "note": 62, "velocity": 0, "until": 314.7816358333334}, {"on": false, "note": 59, "velocity": 0, "until": 315.52783983333336}, {"on": true, "note": 66, "velocity": 106, "until": 315.52783983333336}, {"on": true, "note": 57, "velocity": 106, "until": 315.78424983333326}, {"on": false, "note": 57, "velocity": 0, "until": 315.78424983333326}, {"on": false, "note": 66, "velocity": 0, "until": 316.5742724666667}, {"on": true, "note": 62, "velocity": 106, "until": 316.5742724666667}, {"on": true, "note": 55, "velocity": 106, "until": 324.97549683333665}, {"on": false, "note": 55, "velocity": 0, "until": 324.97549683333665}, {"on": false, "note": 62, "velocity": 0, "until": 325.2317621083366}, {"on": true, "note": 52, "velocity": 106, "until": 325.35128360833653}, {"on": false, "note": 52, "velocity": 0, "until": 325.4708051083365}, {"on": true, "note": 52, "velocity": 106, "until": 325.5903266083364}, {"on": false, "note": 52, "velocity": 0, "until": 325.7099394166697}, {"on": true, "note": 57, "velocity": 106, "until": 325.9599394166698}, {"on": false, "note": 57, "velocity": 0, "until": 326.20982458333646}, {"on": true, "note": 55, "velocity": 106, "until": 326.3279345833363}, {"on": false, "note": 55, "velocity": 0, "until": 326.44604458333623}, {"on": true, "note": 55, "velocity": 106, "until": 326.56415458333606}, {"on": false, "note": 55, "velocity": 0, "until": 326.6823536916694}, {"on": true, "note": 60, "velocity": 106, "until": 326.92970908333615}, {"on": false, "note": 60, "velocity": 0, "until": 328.71004583333615}, {"on": true, "note": 52, "velocity": 106, "until": 329.7126417250029}, {"on": false, "note": 52, "velocity": 0, "until": 329.7126417250029}, {"on": true, "note": 57, "velocity": 106, "until": 329.9668787250029}, {"on": false, "note": 57, "velocity": 0, "until": 330.7030239166696}, {"on": true, "note": 62, "velocity": 106, "until": 330.9551239166697}, {"on": false, "note": 62, "velocity": 0, "until": 331.6930431333365}, {"on": true, "note": 50, "velocity": 91, "until": 331.81856613333645}, {"on": false, "note": 50, "velocity": 0, "until": 332.67898776666976}, {"on": true, "note": 55, "velocity": 106, "until": 332.9279497666694}, {"on": false, "note": 55, "velocity": 0, "until": 333.17680558333603}, {"on": true, "note": 52, "velocity": 106, "until": 333.29491558333586}, {"on": false, "note": 52, "velocity": 0, "until": 333.4130255833358}, {"on": true, "note": 52, "velocity": 106, "until": 333.53113558333564}, {"on": false, "note": 52, "velocity": 0, "until": 333.64932625833563}, {"on": true, "note": 57, "velocity": 106, "until": 333.8952272583357}, {"on": false, "note": 57, "velocity": 0, "until": 334.14103220833573}, {"on": true, "note": 55, "velocity": 106, "until": 334.25821970833573}, {"on": false, "note": 55, "velocity": 0, "until": 334.37540720833573}, {"on": true, "note": 55, "velocity": 106, "until": 334.49259470833573}, {"on": false, "note": 55, "velocity": 0, "until": 334.6098533666691}, {"on": true, "note": 60, "velocity": 106, "until": 334.8532430833358}, {"on": false, "note": 60, "velocity": 0, "until": 337.0438594750027}, {"on": true, "note": 60, "velocity": 106, "until": 337.15836297500266}, {"on": false, "note": 60, "velocity": 0, "until": 337.2728664750026}, {"on": true, "note": 60, "velocity": 106, "until": 337.38736997500257}, {"on": false, "note": 60, "velocity": 0, "until": 337.50198936666925}, {"on": true, "note": 61, "velocity": 106, "until": 337.9675745333359}, {"on": false, "note": 61, "velocity": 0, "until": 337.98770147500255}, {"on": true, "note": 61, "velocity": 106, "until": 338.168998683336}, {"on": false, "note": 61, "velocity": 0, "until": 338.21670847500275}, {"on": true, "note": 61, "velocity": 106, "until": 338.3980056833362}, {"on": false, "note": 61, "velocity": 0, "until": 338.4458313666696}, {"on": true, "note": 62, "velocity": 106, "until": 338.93179025000364}, {"on": false, "note": 62, "velocity": 0, "until": 339.4210483666704}, {"on": true, "note": 62, "velocity": 106, "until": 339.6639623666704}, {"on": false, "note": 62, "velocity": 0, "until": 340.37746436667044}, {"on": true, "note": 55, "velocity": 106, "until": 340.6203783666704}, {"on": false, "note": 55, "velocity": 0, "until": 341.33388036667054}, {"on": true, "note": 62, "velocity": 106, "until": 342.2902963666708}, {"on": false, "note": 62, "velocity": 0, "until": 342.2902963666708}, {"on": true, "note": 64, "velocity": 106, "until": 342.53321036667086}, {"on": false, "note": 64, "velocity": 0, "until": 343.2467123666709}, {"on": true, "note": 57, "velocity": 106, "until": 343.368169366671}, {"on": false, "note": 57, "velocity": 0, "until": 344.2031283666709}, {"on": true, "note": 55, "velocity": 106, "until": 344.4460423666709}, {"on": false, "note": 55, "velocity": 0, "until": 345.1595443666708}, {"on": true, "note": 62, "velocity": 106, "until": 346.11596036667106}, {"on": false, "note": 62, "velocity": 0, "until": 346.11596036667106}, {"on": true, "note": 64, "velocity": 106, "until": 346.3588743666711}, {"on": false, "note": 64, "velocity": 0, "until": 347.07237636667116}, {"on": true, "note": 57, "velocity": 106, "until": 347.3152903666712}, {"on": false, "note": 57, "velocity": 0, "until": 348.02879236667115}, {"on": true, "note": 55, "velocity": 106, "until": 348.2719651833378}, {"on": false, "note": 55, "velocity": 0, "until": 349.00542408333786}, {"on": true, "note": 62, "velocity": 106, "until": 349.2454240833379}, {"on": false, "note": 62, "velocity": 0, "until": 349.94346236667144}, {"on": true, "note": 67, "velocity": 106, "until": 350.18637636667154}, {"on": false, "note": 67, "velocity": 0, "until": 350.8873043666718}, {"on": true, "note": 62, "velocity": 106, "until": 351.13021836667184}, {"on": false, "note": 62, "velocity": 0, "until": 351.83110620833867}, {"on": true, "note": 55, "velocity": 106, "until": 352.07007422500527}, {"on": false, "note": 55, "velocity": 0, "until": 360.96514015834}, {"on": true, "note": 57, "velocity": 106, "until": 361.14783228334}, {"on": false, "note": 57, "velocity": 0, "until": 361.19590915834}, {"on": true, "note": 57, "velocity": 106, "until": 361.39783203334}, {"on": false, "note": 57, "velocity": 0, "until": 361.4267958916734}, {"on": true, "note": 67, "velocity": 106, "until": 361.8961818083401}, {"on": false, "note": 67, "velocity": 0, "until": 361.91647215834007}, {"on": true, "note": 67, "velocity": 106, "until": 362.02224128334007}, {"on": false, "note": 67, "velocity": 0, "until": 362.0318566583401}, {"on": true, "note": 65, "velocity": 106, "until": 362.13762578334007}, {"on": false, "note": 65, "velocity": 0, "until": 362.1472411583401}, {"on": true, "note": 64, "velocity": 106, "until": 362.2530102833401}, {"on": false, "note": 64, "velocity": 0, "until": 362.2626256583401}, {"on": true, "note": 62, "velocity": 106, "until": 362.3683947833401}, {"on": false, "note": 62, "velocity": 0, "until": 362.37812789167344}, {"on": true, "note": 61, "velocity": 106, "until": 362.8475138083401}, {"on": false, "note": 61, "velocity": 0, "until": 362.8678041583401}, {"on": true, "note": 61, "velocity": 106, "until": 363.05049628334007}, {"on": false, "note": 61, "velocity": 0, "until": 363.09857315834006}, {"on": true, "note": 61, "velocity": 106, "until": 363.3004960333401}, {"on": false, "note": 61, "velocity": 0, "until": 363.3294598916735}, {"on": true, "note": 70, "velocity": 106, "until": 363.79884580834016}, {"on": false, "note": 70, "velocity": 0, "until": 363.81913615834014}, {"on": true, "note": 70, "velocity": 106, "until": 363.92490528334014}, {"on": false, "note": 70, "velocity": 0, "until": 363.93452065834015}, {"on": true, "note": 69, "velocity": 106, "until": 364.04028978334014}, {"on": false, "note": 69, "velocity": 0, "until": 364.04990515834015}, {"on": true, "note": 67, "velocity": 106, "until": 364.15567428334015}, {"on": false, "note": 67, "velocity": 0, "until": 364.16528965834016}, {"on": true, "note": 65, "velocity": 106, "until": 364.27105878334015}, {"on": false, "note": 65, "velocity": 0, "until": 364.2807918916735}, {"on": true, "note": 64, "velocity": 106, "until": 364.7501778083402}, {"on": false, "note": 64, "velocity": 0, "until": 364.7704681583402}, {"on": true, "note": 64, "velocity": 106, "until": 364.95316028334014}, {"on": false, "note": 64, "velocity": 0, "until": 365.00123715834013}, {"on": true, "note": 64, "velocity": 106, "until": 365.20316003334017}, {"on": false, "note": 64, "velocity": 0, "until": 365.23212389167355}, {"on": true, "note": 76, "velocity": 106, "until": 365.70150980834023}, {"on": false, "note": 76, "velocity": 0, "until": 365.7218001583402}, {"on": true, "note": 76, "velocity": 106, "until": 365.8275692833402}, {"on": false, "note": 76, "velocity": 0, "until": 365.8371846583402}, {"on": true, "note": 74, "velocity": 106, "until": 365.9429537833402}, {"on": false, "note": 74, "velocity": 0, "until": 365.9525691583402}, {"on": true, "note": 73, "velocity": 106, "until": 366.0583382833402}, {"on": false, "note": 73, "velocity": 0, "until": 366.06795365834023}, {"on": true, "note": 70, "velocity": 106, "until": 366.1737227833402}, {"on": false, "note": 70, "velocity": 0, "until": 366.1834558916736}, {"on": true, "note": 69, "velocity": 106, "until": 366.42835289167357}, {"on": false, "note": 69, "velocity": 0, "until": 366.6731321583402}, {"on": true, "note": 67, "velocity": 106, "until": 366.90390115834015}, {"on": false, "note": 67, "velocity": 0, "until": 367.13478789167345}, {"on": true, "note": 64, "velocity": 106, "until": 367.37968489167343}, {"on": false, "note": 64, "velocity": 0, "until": 367.62446415834006}, {"on": true, "note": 61, "velocity": 106, "until": 367.85523315834}, {"on": false, "note": 61, "velocity": 0, "until": 368.08629146667334}, {"on": true, "note": 57, "velocity": 106, "until": 368.3516058916734}, {"on": false, "note": 57, "velocity": 0, "until": 375.0271238916736}, {"on": true, "note": 61, "velocity": 106, "until": 375.14957239167364}, {"on": false, "note": 61, "velocity": 0, "until": 375.2719031583403}, {"on": true, "note": 62, "velocity": 106, "until": 375.3872876583403}, {"on": false, "note": 62, "velocity": 0, "until": 375.5026721583403}, {"on": true, "note": 60, "velocity": 106, "until": 375.6180566583403}, {"on": false, "note": 60, "velocity": 0, "until": 375.7335588916737}, {"on": true, "note": 58, "velocity": 106, "until": 375.9784558916737}, {"on": false, "note": 58, "velocity": 0, "until": 376.9297878916738}, {"on": true, "note": 56, "velocity": 106, "until": 377.05223639167383}, {"on": false, "note": 56, "velocity": 0, "until": 377.1745671583405}, {"on": true, "note": 57, "velocity": 106, "until": 377.2899516583405}, {"on": false, "note": 57, "velocity": 0, "until": 377.4053361583405}, {"on": true, "note": 58, "velocity": 106, "until": 377.5207206583405}, {"on": false, "note": 58, "velocity": 0, "until": 377.63622289167387}, {"on": true, "note": 57, "velocity": 106, "until": 378.5875548916739}, {"on": false, "note": 57, "velocity": 0, "until": 378.5875548916739}, {"on": true, "note": 58, "velocity": 106, "until": 379.30800015834063}, {"on": false, "note": 58, "velocity": 0, "until": 379.30800015834063}, {"on": true, "note": 61, "velocity": 106, "until": 379.5195384083406}, {"on": false, "note": 61, "velocity": 0, "until": 379.53888689167394}, {"on": true, "note": 60, "velocity": 106, "until": 379.783783891674}, {"on": false, "note": 60, "velocity": 0, "until": 379.783783891674}, {"on": true, "note": 57, "velocity": 106, "until": 380.2602305833406}, {"on": false, "note": 57, "velocity": 0, "until": 380.2602305833406}, {"on": true, "note": 60, "velocity": 106, "until": 380.4725855833407}, {"on": false, "note": 60, "velocity": 0, "until": 380.4920092583407}, {"on": true, "note": 61, "velocity": 106, "until": 380.73791025834083}, {"on": false, "note": 61, "velocity": 0, "until": 380.73791025834083}, {"on": true, "note": 58, "velocity": 106, "until": 381.2180902083409}, {"on": false, "note": 58, "velocity": 0, "until": 381.2180902083409}, {"on": true, "note": 61, "velocity": 106, "until": 381.4329339583409}, {"on": false, "note": 61, "velocity": 0, "until": 381.4525696916743}, {"on": true, "note": 60, "velocity": 106, "until": 381.69948269167435}, {"on": false, "note": 60, "velocity": 0, "until": 382.41699219167447}, {"on": true, "note": 63, "velocity": 106, "until": 382.41699219167447}, {"on": true, "note": 60, "velocity": 106, "until": 382.66492519167446}, {"on": false, "note": 60, "velocity": 0, "until": 382.66492519167446}, {"on": false, "note": 63, "velocity": 0, "until": 383.3834547666745}, {"on": true, "note": 62, "velocity": 106, "until": 383.63241676667434}, {"on": false, "note": 62, "velocity": 0, "until": 384.35020000000753}, {"on": true, "note": 62, "velocity": 106, "until": 384.6077100000076}, {"on": false, "note": 62, "velocity": 0, "until": 385.3490992500077}, {"on": true, "note": 65, "velocity": 106, "until": 385.3490992500077}, {"on": true, "note": 62, "velocity": 106, "until": 385.6077192500078}, {"on": false, "note": 62, "velocity": 0, "until": 385.6077192500078}, {"on": false, "note": 65, "velocity": 0, "until": 386.3541248333412}, {"on": true, "note": 56, "velocity": 106, "until": 386.6105348333411}, {"on": false, "note": 56, "velocity": 0, "until": 387.3567572500078}, {"on": true, "note": 56, "velocity": 106, "until": 387.61537725000784}, {"on": false, "note": 56, "velocity": 0, "until": 388.36989148334123}, {"on": true, "note": 56, "velocity": 106, "until": 388.63189948334133}, {"on": false, "note": 56, "velocity": 0, "until": 389.4001797416749}, {"on": true, "note": 56, "velocity": 106, "until": 389.6554987416749}, {"on": false, "note": 56, "velocity": 0, "until": 395.32495889167456}, {"on": true, "note": 68, "velocity": 106, "until": 395.4474073916746}, {"on": false, "note": 68, "velocity": 0, "until": 395.5698558916746}, {"on": true, "note": 68, "velocity": 106, "until": 395.6923043916746}, {"on": false, "note": 68, "velocity": 0, "until": 395.8146351583413}, {"on": true, "note": 68, "velocity": 106, "until": 395.9300196583413}, {"on": false, "note": 68, "velocity": 0, "until": 396.0454041583412}, {"on": true, "note": 68, "velocity": 106, "until": 396.16078865834123}, {"on": false, "note": 68, "velocity": 0, "until": 396.2762908916746}, {"on": true, "note": 68, "velocity": 106, "until": 396.3987393916746}, {"on": false, "note": 68, "velocity": 0, "until": 396.52118789167463}, {"on": true, "note": 68, "velocity": 106, "until": 396.64363639167465}, {"on": false, "note": 68, "velocity": 0, "until": 396.7659671583413}, {"on": true, "note": 68, "velocity": 106, "until": 396.8813516583413}, {"on": false, "note": 68, "velocity": 0, "until": 396.99673615834126}, {"on": true, "note": 68, "velocity": 106, "until": 397.11212065834127}, {"on": false, "note": 68, "velocity": 0, "until": 397.22762289167457}, {"on": true, "note": 67, "velocity": 106, "until": 397.3500713916746}, {"on": false, "note": 67, "velocity": 0, "until": 397.4725198916746}, {"on": true, "note": 67, "velocity": 106, "until": 397.5949683916746}, {"on": false, "note": 67, "velocity": 0, "until": 397.7172991583413}, {"on": true, "note": 67, "velocity": 106, "until": 397.83268365834124}, {"on": false, "note": 67, "velocity": 0, "until": 397.94806815834124}, {"on": true, "note": 67, "velocity": 106, "until": 398.06345265834125}, {"on": false, "note": 67, "velocity": 0, "until": 398.17895489167455}, {"on": true, "note": 67, "velocity": 106, "until": 398.30140339167457}, {"on": false, "note": 67, "velocity": 0, "until": 398.4238518916746}, {"on": true, "note": 67, "velocity": 106, "until": 398.5463003916746}, {"on": false, "note": 67, "velocity": 0, "until": 398.66863115834127}, {"on": true, "note": 67, "velocity": 106, "until": 398.7840156583413}, {"on": false, "note": 67, "velocity": 0, "until": 398.8994001583413}, {"on": true, "note": 67, "velocity": 106, "until": 399.0147846583412}, {"on": false, "note": 67, "velocity": 0, "until": 399.1302868916746}, {"on": true, "note": 68, "velocity": 106, "until": 399.2527353916746}, {"on": false, "note": 68, "velocity": 0, "until": 399.3751838916746}, {"on": true, "note": 68, "velocity": 106, "until": 399.49763239167464}, {"on": false, "note": 68, "velocity": 0, "until": 399.6199631583413}, {"on": true, "note": 68, "velocity": 106, "until": 399.7353476583413}, {"on": false, "note": 68, "velocity": 0, "until": 399.85073215834126}, {"on": true, "note": 68, "velocity": 106, "until": 399.96611665834126}, {"on": false, "note": 68, "velocity": 0, "until": 400.0816188916746}, {"on": true, "note": 68, "velocity": 106, "until": 400.20406739167464}, {"on": false, "note": 68, "velocity": 0, "until": 400.32651589167466}, {"on": true, "note": 68, "velocity": 106, "until": 400.4489643916747}, {"on": false, "note": 68, "velocity": 0, "until": 400.57129515834134}, {"on": true, "note": 68, "velocity": 106, "until": 400.68667965834135}, {"on": false, "note": 68, "velocity": 0, "until": 400.8020641583413}, {"on": true, "note": 68, "velocity": 106, "until": 400.9174486583413}, {"on": false, "note": 68, "velocity": 0, "until": 401.0329508916746}, {"on": true, "note": 67, "velocity": 106, "until": 401.1553993916746}, {"on": false, "note": 67, "velocity": 0, "until": 401.27784789167464}, {"on": true, "note": 67, "velocity": 106, "until": 401.40029639167466}, {"on": false, "note": 67, "velocity": 0, "until": 401.5226271583413}, {"on": true, "note": 67, "velocity": 106, "until": 401.63801165834127}, {"on": false, "note": 67, "velocity": 0, "until": 401.7533961583413}, {"on": true, "note": 67, "velocity": 106, "until": 401.8687806583412}, {"on": false, "note": 67, "velocity": 0, "until": 401.9842828916745}, {"on": true, "note": 67, "velocity": 106, "until": 402.10673139167454}, {"on": false, "note": 67, "velocity": 0, "until": 402.22917989167456}, {"on": true, "note": 67, "velocity": 106, "until": 402.3516283916746}, {"on": false, "note": 67, "velocity": 0, "until": 402.47395915834124}, {"on": true, "note": 67, "velocity": 106, "until": 402.5893436583412}, {"on": false, "note": 67, "velocity": 0, "until": 402.7047281583412}, {"on": true, "note": 67, "velocity": 106, "until": 402.82011265834115}, {"on": false, "note": 67, "velocity": 0, "until": 402.9356148916745}, {"on": true, "note": 60, "velocity": 106, "until": 402.9356148916745}, {"on": true, "note": 68, "velocity": 106, "until": 403.1805118916745}, {"on": false, "note": 68, "velocity": 0, "until": 403.1805118916745}, {"on": false, "note": 60, "velocity": 0, "until": 403.42537610834114}, {"on": true, "note": 58, "velocity": 106, "until": 403.42537610834114}, {"on": true, "note": 67, "velocity": 106, "until": 403.66633910834116}, {"on": false, "note": 67, "velocity": 0, "until": 403.66633910834116}, {"on": false, "note": 58, "velocity": 0, "until": 403.9073348916745}, {"on": true, "note": 56, "velocity": 106, "until": 403.9073348916745}, {"on": true, "note": 65, "velocity": 106, "until": 404.15223189167455}, {"on": false, "note": 65, "velocity": 0, "until": 404.15223189167455}, {"on": false, "note": 56, "velocity": 0, "until": 404.88100725834124}, {"on": true, "note": 63, "velocity": 106, "until": 404.88100725834124}, {"on": true, "note": 60, "velocity": 106, "until": 405.1269082583413}, {"on": false, "note": 60, "velocity": 0, "until": 405.1269082583413}, {"on": false, "note": 63, "velocity": 0, "until": 405.3727843666747}, {"on": true, "note": 55, "velocity": 106, "until": 405.3727843666747}, {"on": true, "note": 65, "velocity": 106, "until": 405.6156983666747}, {"on": false, "note": 65, "velocity": 0, "until": 405.6156983666747}, {"on": false, "note": 55, "velocity": 0, "until": 405.8586456916747}, {"on": true, "note": 63, "velocity": 106, "until": 405.8586456916747}, {"on": true, "note": 55, "velocity": 106, "until": 406.1055586916748}, {"on": false, "note": 55, "velocity": 0, "until": 406.1055586916748}, {"on": false, "note": 63, "velocity": 0, "until": 406.8382663666749}, {"on": true, "note": 67, "velocity": 63, "until": 406.95972336667495}, {"on": false, "note": 67, "velocity": 0, "until": 407.08118036667497}, {"on": true, "note": 67, "velocity": 51, "until": 407.20263736667505}, {"on": false, "note": 67, "velocity": 0, "until": 407.809938891675}, {"on": true, "note": 63, "velocity": 63, "until": 407.93238739167504}, {"on": false, "note": 63, "velocity": 0, "until": 408.05483589167505}, {"on": true, "note": 63, "velocity": 51, "until": 408.1772843916751}, {"on": false, "note": 63, "velocity": 0, "until": 408.7895607666751}, {"on": true, "note": 63, "velocity": 63, "until": 408.91404176667504}, {"on": false, "note": 63, "velocity": 0, "until": 409.038522766675}, {"on": true, "note": 63, "velocity": 51, "until": 409.16300376667493}, {"on": false, "note": 63, "velocity": 0, "until": 409.78544378334146}, {"on": true, "note": 55, "velocity": 78, "until": 409.9120257833415}, {"on": false, "note": 55, "velocity": 0, "until": 410.03860778334155}, {"on": true, "note": 55, "velocity": 63, "until": 410.1651897833416}, {"on": false, "note": 55, "velocity": 0, "until": 410.7981360000083}, {"on": true, "note": 55, "velocity": 78, "until": 410.92689100000837}, {"on": false, "note": 55, "velocity": 0, "until": 411.05564600000844}, {"on": true, "note": 55, "velocity": 63, "until": 411.18440100000856}, {"on": false, "note": 55, "velocity": 0, "until": 411.8282039916754}, {"on": true, "note": 51, "velocity": 78, "until": 411.9586384916755}, {"on": false, "note": 51, "velocity": 0, "until": 412.0890729916756}, {"on": true, "note": 51, "velocity": 63, "until": 412.21950749167564}, {"on": false, "note": 51, "velocity": 0, "until": 412.8717283000092}, {"on": true, "note": 49, "velocity": 78, "until": 413.0050613000092}, {"on": false, "note": 49, "velocity": 0, "until": 413.13839430000917}, {"on": true, "note": 49, "velocity": 63, "until": 413.27172730000916}, {"on": false, "note": 49, "velocity": 0, "until": 413.9384428083425}, {"on": true, "note": 48, "velocity": 78, "until": 414.07480630834254}, {"on": false, "note": 48, "velocity": 0, "until": 414.2111698083427}, {"on": true, "note": 48, "velocity": 63, "until": 414.34753330834275}, {"on": false, "note": 48, "velocity": 0, "until": 415.0294036583429}, {"on": true, "note": 48, "velocity": 78, "until": 415.1689381583428}, {"on": false, "note": 48, "velocity": 0, "until": 415.30847265834274}, {"on": true, "note": 48, "velocity": 63, "until": 415.44800715834265}, {"on": false, "note": 48, "velocity": 0, "until": 423.8556488916748}, {"on": true, "note": 60, "velocity": 96, "until": 423.8556488916748}, {"on": true, "note": 64, "velocity": 96, "until": 424.2964634916748}, {"on": false, "note": 64, "velocity": 0, "until": 424.2964634916748}, {"on": false, "note": 60, "velocity": 0, "until": 424.34532515834144}, {"on": true, "note": 63, "velocity": 96, "until": 424.34532515834144}, {"on": true, "note": 60, "velocity": 96, "until": 424.76070935834133}, {"on": false, "note": 60, "velocity": 0, "until": 424.76070935834133}, {"on": false, "note": 63, "velocity": 0, "until": 424.80698089167464}, {"on": true, "note": 64, "velocity": 96, "until": 424.80698089167464}, {"on": true, "note": 60, "velocity": 96, "until": 425.2966571583413}, {"on": false, "note": 60, "velocity": 0, "until": 425.2966571583413}, {"on": false, "note": 64, "velocity": 0, "until": 425.7582720833413}, {"on": true, "note": 59, "velocity": 106, "until": 425.7582720833413}, {"on": true, "note": 65, "velocity": 106, "until": 425.97427208334136}, {"on": false, "note": 65, "velocity": 0, "until": 425.97427208334136}, {"on": false, "note": 59, "velocity": 0, "until": 425.9982720833414}, {"on": true, "note": 59, "velocity": 106, "until": 425.9982720833414}, {"on": true, "note": 65, "velocity": 106, "until": 426.2142720833415}, {"on": false, "note": 65, "velocity": 0, "until": 426.2142720833415}, {"on": false, "note": 59, "velocity": 0, "until": 426.23827208334154}, {"on": true, "note": 59, "velocity": 106, "until": 426.23827208334154}, {"on": true, "note": 65, "velocity": 106, "until": 426.45427208334155}, {"on": false, "note": 65, "velocity": 0, "until": 426.45427208334155}, {"on": false, "note": 59, "velocity": 0, "until": 426.4782720833416}, {"on": true, "note": 59, "velocity": 106, "until": 426.4782720833416}, {"on": true, "note": 65, "velocity": 106, "until": 426.6942720833417}, {"on": false, "note": 65, "velocity": 0, "until": 426.6942720833417}, {"on": false, "note": 59, "velocity": 0, "until": 426.71827208334173}, {"on": true, "note": 59, "velocity": 106, "until": 426.71827208334173}, {"on": true, "note": 65, "velocity": 106, "until": 427.1981951583418}, {"on": false, "note": 65, "velocity": 0, "until": 427.1981951583418}, {"on": false, "note": 59, "velocity": 0, "until": 427.65985089167526}, {"on": true, "note": 64, "velocity": 96, "until": 427.65985089167526}, {"on": true, "note": 60, "velocity": 96, "until": 428.1495271583419}, {"on": false, "note": 60, "velocity": 0, "until": 428.1495271583419}, {"on": false, "note": 64, "velocity": 0, "until": 428.1495271583419}, {"on": true, "note": 60, "velocity": 96, "until": 428.1495271583419}, {"on": true, "note": 63, "velocity": 96, "until": 428.6111828916751}, {"on": false, "note": 63, "velocity": 0, "until": 428.6111828916751}, {"on": false, "note": 60, "velocity": 0, "until": 428.6111828916751}, {"on": true, "note": 60, "velocity": 96, "until": 428.6111828916751}, {"on": true, "note": 64, "velocity": 96, "until": 429.1008591583418}, {"on": false, "note": 64, "velocity": 0, "until": 429.1008591583418}, {"on": false, "note": 60, "velocity": 0, "until": 429.5624425833416}, {"on": true, "note": 64, "velocity": 106, "until": 429.6805525833415}, {"on": false, "note": 64, "velocity": 0, "until": 429.7986625833414}, {"on": true, "note": 64, "velocity": 106, "until": 429.91677258334136}, {"on": false, "note": 64, "velocity": 0, "until": 430.03488258334124}, {"on": true, "note": 64, "velocity": 106, "until": 430.1529925833412}, {"on": false, "note": 64, "velocity": 0, "until": 430.2711025833411}, {"on": true, "note": 64, "velocity": 106, "until": 430.389212583341}, {"on": false, "note": 64, "velocity": 0, "until": 430.5073225833409}, {"on": true, "note": 64, "velocity": 106, "until": 430.97971715833984}, {"on": false, "note": 64, "velocity": 0, "until": 435.2937088916727}, {"on": true, "note": 55, "velocity": 106, "until": 435.4161573916727}, {"on": false, "note": 55, "velocity": 0, "until": 435.5386058916727}, {"on": true, "note": 65, "velocity": 106, "until": 436.0141541583392}, {"on": false, "note": 65, "velocity": 0, "until": 436.0141541583392}, {"on": true, "note": 64, "velocity": 106, "until": 436.12953865833913}, {"on": false, "note": 64, "velocity": 0, "until": 436.12953865833913}, {"on": true, "note": 60, "velocity": 106, "until": 436.2256924083391}, {"on": false, "note": 60, "velocity": 0, "until": 436.2450408916725}, {"on": true, "note": 59, "velocity": 106, "until": 436.3674893916725}, {"on": false, "note": 59, "velocity": 0, "until": 436.4899378916725}, {"on": true, "note": 65, "velocity": 106, "until": 436.965486158339}, {"on": false, "note": 65, "velocity": 0, "until": 436.965486158339}, {"on": true, "note": 64, "velocity": 106, "until": 437.08087065833894}, {"on": false, "note": 64, "velocity": 0, "until": 437.08087065833894}, {"on": true, "note": 60, "velocity": 106, "until": 437.1770244083389}, {"on": false, "note": 60, "velocity": 0, "until": 437.1963728916723}, {"on": true, "note": 59, "velocity": 106, "until": 437.3188213916723}, {"on": false, "note": 59, "velocity": 0, "until": 437.44126989167233}, {"on": true, "note": 65, "velocity": 106, "until": 437.9168181583388}, {"on": false, "note": 65, "velocity": 0, "until": 437.9168181583388}, {"on": true, "note": 64, "velocity": 106, "until": 438.03220265833875}, {"on": false, "note": 64, "velocity": 0, "until": 438.03220265833875}, {"on": true, "note": 60, "velocity": 106, "until": 438.12835640833873}, {"on": false, "note": 60, "velocity": 0, "until": 438.1477048916721}, {"on": true, "note": 55, "velocity": 106, "until": 438.39260189167214}, {"on": false, "note": 55, "velocity": 0, "until": 442.7339701583384}, {"on": true, "note": 60, "velocity": 106, "until": 442.7339701583384}, {"on": true, "note": 67, "velocity": 106, "until": 442.84935465833837}, {"on": false, "note": 67, "velocity": 0, "until": 442.84935465833837}, {"on": false, "note": 60, "velocity": 0, "until": 442.9648160833383}, {"on": true, "note": 69, "velocity": 106, "until": 442.9648160833383}, {"on": true, "note": 65, "velocity": 106, "until": 443.08481608333835}, {"on": false, "note": 65, "velocity": 0, "until": 443.08481608333835}, {"on": false, "note": 69, "velocity": 0, "until": 443.2048160833384}, {"on": true, "note": 67, "velocity": 106, "until": 443.2048160833384}, {"on": true, "note": 60, "velocity": 106, "until": 443.3248160833385}, {"on": false, "note": 60, "velocity": 0, "until": 443.3248160833385}, {"on": false, "note": 67, "velocity": 0, "until": 443.44481608333854}, {"on": true, "note": 69, "velocity": 106, "until": 443.44481608333854}, {"on": true, "note": 65, "velocity": 106, "until": 443.5648160833386}, {"on": false, "note": 65, "velocity": 0, "until": 443.5648160833386}, {"on": false, "note": 69, "velocity": 0, "until": 443.68481608333866}, {"on": true, "note": 67, "velocity": 106, "until": 443.68481608333866}, {"on": true, "note": 60, "velocity": 106, "until": 443.8048160833387}, {"on": false, "note": 60, "velocity": 0, "until": 443.8048160833387}, {"on": false, "note": 67, "velocity": 0, "until": 443.9248160833388}, {"on": true, "note": 69, "velocity": 106, "until": 443.9248160833388}, {"on": true, "note": 65, "velocity": 106, "until": 444.4047391583397}, {"on": false, "note": 65, "velocity": 0, "until": 444.4047391583397}, {"on": false, "note": 69, "velocity": 0, "until": 446.5199701583391}, {"on": true, "note": 62, "velocity": 106, "until": 446.5199701583391}, {"on": true, "note": 55, "velocity": 106, "until": 446.63535465833905}, {"on": false, "note": 55, "velocity": 0, "until": 446.63535465833905}, {"on": false, "note": 62, "velocity": 0, "until": 446.75078458333894}, {"on": true, "note": 64, "velocity": 106, "until": 446.75078458333894}, {"on": true, "note": 60, "velocity": 106, "until": 446.86889458333883}, {"on": false, "note": 60, "velocity": 0, "until": 446.86889458333883}, {"on": false, "note": 64, "velocity": 0, "until": 446.9870045833387}, {"on": true, "note": 62, "velocity": 106, "until": 446.9870045833387}, {"on": true, "note": 55, "velocity": 106, "until": 447.1051145833386}, {"on": false, "note": 55, "velocity": 0, "until": 447.1051145833386}, {"on": false, "note": 62, "velocity": 0, "until": 447.2232245833385}, {"on": true, "note": 64, "velocity": 106, "until": 447.2232245833385}, {"on": true, "note": 60, "velocity": 106, "until": 447.3413345833384}, {"on": false, "note": 60, "velocity": 0, "until": 447.3413345833384}, {"on": false, "note": 64, "velocity": 0, "until": 447.45944458333827}, {"on": true, "note": 62, "velocity": 106, "until": 447.45944458333827}, {"on": true, "note": 55, "velocity": 106, "until": 447.57755458333816}, {"on": false, "note": 55, "velocity": 0, "until": 447.57755458333816}, {"on": false, "note": 62, "velocity": 0, "until": 447.69566458333804}, {"on": true, "note": 64, "velocity": 106, "until": 447.69566458333804}, {"on": true, "note": 60, "velocity": 106, "until": 447.93188458333793}, {"on": false, "note": 60, "velocity": 0, "until": 447.93188458333793}, {"on": false, "note": 64, "velocity": 0, "until": 448.1680591583378}, {"on": true, "note": 67, "velocity": 106, "until": 448.61036640833754}, {"on": false, "note": 67, "velocity": 0, "until": 448.62971489167086}, {"on": true, "note": 64, "velocity": 106, "until": 449.09910080833754}, {"on": false, "note": 64, "velocity": 0, "until": 449.1193911583375}, {"on": true, "note": 66, "velocity": 106, "until": 449.56169840833724}, {"on": false, "note": 66, "velocity": 0, "until": 449.58104689167055}, {"on": true, "note": 67, "velocity": 106, "until": 450.05043280833723}, {"on": false, "note": 67, "velocity": 0, "until": 450.0707231583372}, {"on": true, "note": 55, "velocity": 106, "until": 450.51303040833693}, {"on": false, "note": 55, "velocity": 0, "until": 450.53237889167025}, {"on": true, "note": 60, "velocity": 106, "until": 450.63441930833693}, {"on": false, "note": 60, "velocity": 0, "until": 450.65482739167027}, {"on": true, "note": 60, "velocity": 106, "until": 450.75686780833695}, {"on": false, "note": 60, "velocity": 0, "until": 450.7772758916703}, {"on": true, "note": 60, "velocity": 106, "until": 450.87931630833697}, {"on": false, "note": 60, "velocity": 0, "until": 450.8997243916703}, {"on": true, "note": 60, "velocity": 106, "until": 451.001764808337}, {"on": false, "note": 60, "velocity": 0, "until": 451.02205515833697}, {"on": true, "note": 60, "velocity": 106, "until": 451.1182089083369}, {"on": false, "note": 60, "velocity": 0, "until": 451.1374396583369}, {"on": true, "note": 60, "velocity": 106, "until": 451.2335934083369}, {"on": false, "note": 60, "velocity": 0, "until": 451.2528241583369}, {"on": true, "note": 63, "velocity": 106, "until": 451.34897790833685}, {"on": false, "note": 63, "velocity": 0, "until": 451.36820865833687}, {"on": true, "note": 63, "velocity": 106, "until": 451.46436240833685}, {"on": false, "note": 63, "velocity": 0, "until": 451.4837108916702}, {"on": true, "note": 60, "velocity": 106, "until": 451.5857513083369}, {"on": false, "note": 60, "velocity": 0, "until": 451.60615939167025}, {"on": true, "note": 60, "velocity": 106, "until": 451.70819980833693}, {"on": false, "note": 60, "velocity": 0, "until": 451.72860789167026}, {"on": true, "note": 60, "velocity": 106, "until": 451.83064830833695}, {"on": false, "note": 60, "velocity": 0, "until": 451.8510563916703}, {"on": true, "note": 60, "velocity": 106, "until": 451.95309680833697}, {"on": false, "note": 60, "velocity": 0, "until": 451.97338715833695}, {"on": true, "note": 60, "velocity": 106, "until": 452.0695409083367}, {"on": false, "note": 60, "velocity": 0, "until": 452.0887716583366}, {"on": true, "note": 60, "velocity": 106, "until": 452.1849254083364}, {"on": false, "note": 60, "velocity": 0, "until": 452.20415615833645}, {"on": true, "note": 63, "velocity": 106, "until": 452.3003099083364}, {"on": false, "note": 63, "velocity": 0, "until": 452.3195406583364}, {"on": true, "note": 63, "velocity": 106, "until": 452.4156944083364}, {"on": false, "note": 63, "velocity": 0, "until": 452.43504289166975}, {"on": true, "note": 60, "velocity": 106, "until": 452.53708330833643}, {"on": false, "note": 60, "velocity": 0, "until": 452.55749139166977}, {"on": true, "note": 60, "velocity": 106, "until": 452.65953180833645}, {"on": false, "note": 60, "velocity": 0, "until": 452.6799398916698}, {"on": true, "note": 63, "velocity": 106, "until": 452.7819803083365}, {"on": false, "note": 63, "velocity": 0, "until": 452.8023883916698}, {"on": true, "note": 63, "velocity": 106, "until": 452.9044288083365}, {"on": false, "note": 63, "velocity": 0, "until": 452.9247191583365}, {"on": true, "note": 60, "velocity": 106, "until": 453.0208729083363}, {"on": false, "note": 60, "velocity": 0, "until": 453.0401036583362}, {"on": true, "note": 60, "velocity": 106, "until": 453.1362574083361}, {"on": false, "note": 60, "velocity": 0, "until": 453.15548815833614}, {"on": true, "note": 63, "velocity": 106, "until": 453.25164190833607}, {"on": false, "note": 63, "velocity": 0, "until": 453.2708726583361}, {"on": true, "note": 63, "velocity": 106, "until": 453.3670264083361}, {"on": false, "note": 63, "velocity": 0, "until": 453.3863748916694}, {"on": true, "note": 60, "velocity": 106, "until": 453.4884153083361}, {"on": false, "note": 60, "velocity": 0, "until": 453.5088233916694}, {"on": true, "note": 60, "velocity": 106, "until": 453.6108638083361}, {"on": false, "note": 60, "velocity": 0, "until": 453.6312718916694}, {"on": true, "note": 63, "velocity": 106, "until": 453.7333123083361}, {"on": false, "note": 63, "velocity": 0, "until": 453.75372039166945}, {"on": true, "note": 63, "velocity": 106, "until": 453.85576080833613}, {"on": false, "note": 63, "velocity": 0, "until": 453.8760511583361}, {"on": true, "note": 60, "velocity": 106, "until": 453.9722049083359}, {"on": false, "note": 60, "velocity": 0, "until": 453.99143565833583}, {"on": true, "note": 60, "velocity": 106, "until": 454.08758940833576}, {"on": false, "note": 60, "velocity": 0, "until": 454.1068201583358}, {"on": true, "note": 63, "velocity": 106, "until": 454.2029739083357}, {"on": false, "note": 63, "velocity": 0, "until": 454.2222046583357}, {"on": true, "note": 63, "velocity": 106, "until": 454.3183584083357}, {"on": false, "note": 63, "velocity": 0, "until": 454.33770689166903}, {"on": true, "note": 56, "velocity": 106, "until": 454.4397473083357}, {"on": false, "note": 56, "velocity": 0, "until": 454.46015539166905}, {"on": true, "note": 56, "velocity": 106, "until": 454.56219580833573}, {"on": false, "note": 56, "velocity": 0, "until": 454.58260389166907}, {"on": true, "note": 56, "velocity": 106, "until": 454.68464430833575}, {"on": false, "note": 56, "velocity": 0, "until": 454.7050523916691}, {"on": true, "note": 56, "velocity": 106, "until": 454.80709280833577}, {"on": false, "note": 56, "velocity": 0, "until": 454.82738315833575}, {"on": true, "note": 56, "velocity": 106, "until": 454.9235369083357}, {"on": false, "note": 56, "velocity": 0, "until": 454.9427676583357}, {"on": true, "note": 56, "velocity": 106, "until": 455.0389214083357}, {"on": false, "note": 56, "velocity": 0, "until": 455.0581521583357}, {"on": true, "note": 55, "velocity": 106, "until": 455.15430590833563}, {"on": false, "note": 55, "velocity": 0, "until": 455.17353665833565}, {"on": true, "note": 55, "velocity": 106, "until": 455.26969040833563}, {"on": false, "note": 55, "velocity": 0, "until": 455.28903889166895}, {"on": true, "note": 56, "velocity": 106, "until": 455.39107930833563}, {"on": false, "note": 56, "velocity": 0, "until": 455.41148739166897}, {"on": true, "note": 56, "velocity": 106, "until": 455.51352780833565}, {"on": false, "note": 56, "velocity": 0, "until": 455.533935891669}, {"on": true, "note": 56, "velocity": 106, "until": 455.63597630833567}, {"on": false, "note": 56, "velocity": 0, "until": 455.656384391669}, {"on": true, "note": 56, "velocity": 106, "until": 455.7584248083357}, {"on": false, "note": 56, "velocity": 0, "until": 455.7787151583357}, {"on": true, "note": 56, "velocity": 106, "until": 455.8748689083356}, {"on": false, "note": 56, "velocity": 0, "until": 455.8940996583356}, {"on": true, "note": 56, "velocity": 106, "until": 455.9902534083356}, {"on": false, "note": 56, "velocity": 0, "until": 456.0094841583356}, {"on": true, "note": 55, "velocity": 106, "until": 456.10563790833555}, {"on": false, "note": 55, "velocity": 0, "until": 456.1248686583356}, {"on": true, "note": 55, "velocity": 106, "until": 456.22102240833556}, {"on": false, "note": 55, "velocity": 0, "until": 456.2403708916689}, {"on": true, "note": 56, "velocity": 106, "until": 456.34241130833556}, {"on": false, "note": 56, "velocity": 0, "until": 456.3628193916689}, {"on": true, "note": 56, "velocity": 106, "until": 456.4648598083356}, {"on": false, "note": 56, "velocity": 0, "until": 456.4852678916689}, {"on": true, "note": 55, "velocity": 106, "until": 456.5873083083356}, {"on": false, "note": 55, "velocity": 0, "until": 456.60771639166893}, {"on": true, "note": 55, "velocity": 106, "until": 456.7097568083356}, {"on": false, "note": 55, "velocity": 0, "until": 456.7300471583356}, {"on": true, "note": 56, "velocity": 106, "until": 456.8262009083354}, {"on": false, "note": 56, "velocity": 0, "until": 456.8454316583353}, {"on": true, "note": 56, "velocity": 106, "until": 456.94158540833524}, {"on": false, "note": 56, "velocity": 0, "until": 456.96081615833526}, {"on": true, "note": 55, "velocity": 106, "until": 457.0569699083352}, {"on": false, "note": 55, "velocity": 0, "until": 457.0762006583352}, {"on": true, "note": 55, "velocity": 106, "until": 457.1723544083352}, {"on": false, "note": 55, "velocity": 0, "until": 457.1917028916685}, {"on": true, "note": 56, "velocity": 106, "until": 457.2937433083352}, {"on": false, "note": 56, "velocity": 0, "until": 457.31415139166853}, {"on": true, "note": 56, "velocity": 106, "until": 457.4161918083352}, {"on": false, "note": 56, "velocity": 0, "until": 457.43659989166855}, {"on": true, "note": 55, "velocity": 106, "until": 457.53864030833523}, {"on": false, "note": 55, "velocity": 0, "until": 457.55904839166857}, {"on": true, "note": 55, "velocity": 106, "until": 457.66108880833525}, {"on": false, "note": 55, "velocity": 0, "until": 457.68137915833523}, {"on": true, "note": 56, "velocity": 106, "until": 457.77753290833505}, {"on": false, "note": 56, "velocity": 0, "until": 457.79676365833495}, {"on": true, "note": 56, "velocity": 106, "until": 457.8929174083349}, {"on": false, "note": 56, "velocity": 0, "until": 457.9121481583349}, {"on": true, "note": 56, "velocity": 106, "until": 458.00830190833483}, {"on": false, "note": 56, "velocity": 0, "until": 458.02753265833485}, {"on": true, "note": 56, "velocity": 106, "until": 458.12368640833483}, {"on": false, "note": 56, "velocity": 0, "until": 458.14303489166815}, {"on": true, "note": 55, "velocity": 106, "until": 458.3879318916682}, {"on": false, "note": 55, "velocity": 0, "until": 462.0488201333346}, {"on": true, "note": 55, "velocity": 106, "until": 462.11158163333454}, {"on": false, "note": 55, "velocity": 0, "until": 462.1743431333345}, {"on": true, "note": 55, "velocity": 106, "until": 462.23710463333447}, {"on": false, "note": 55, "velocity": 0, "until": 462.29986613333443}, {"on": true, "note": 55, "velocity": 106, "until": 462.3626276333344}, {"on": false, "note": 55, "velocity": 0, "until": 462.42538913333436}, {"on": true, "note": 55, "velocity": 106, "until": 462.4881506333343}, {"on": false, "note": 55, "velocity": 0, "until": 462.5508362083343}, {"on": true, "note": 55, "velocity": 106, "until": 462.7726099583344}, {"on": false, "note": 55, "velocity": 0, "until": 462.79277120833444}, {"on": true, "note": 55, "velocity": 106, "until": 463.0145449583345}, {"on": false, "note": 55, "velocity": 0, "until": 463.03478213333455}, {"on": true, "note": 55, "velocity": 106, "until": 463.0975436333345}, {"on": false, "note": 55, "velocity": 0, "until": 463.1603051333345}, {"on": true, "note": 55, "velocity": 106, "until": 463.22306663333444}, {"on": false, "note": 55, "velocity": 0, "until": 463.2858281333344}, {"on": true, "note": 55, "velocity": 106, "until": 463.34858963333437}, {"on": false, "note": 55, "velocity": 0, "until": 463.41135113333434}, {"on": true, "note": 55, "velocity": 106, "until": 463.4741126333343}, {"on": false, "note": 55, "velocity": 0, "until": 463.5367982083343}, {"on": true, "note": 55, "velocity": 106, "until": 463.75857195833436}, {"on": false, "note": 55, "velocity": 0, "until": 463.7787332083344}, {"on": true, "note": 56, "velocity": 106, "until": 464.0005069583345}, {"on": false, "note": 56, "velocity": 0, "until": 464.0207441333345}, {"on": true, "note": 57, "velocity": 106, "until": 464.0835056333345}, {"on": false, "note": 57, "velocity": 0, "until": 464.14626713333445}, {"on": true, "note": 57, "velocity": 106, "until": 464.2090286333344}, {"on": false, "note": 57, "velocity": 0, "until": 464.2717901333344}, {"on": true, "note": 57, "velocity": 106, "until": 464.33455163333434}, {"on": false, "note": 57, "velocity": 0, "until": 464.3973131333343}, {"on": true, "note": 57, "velocity": 106, "until": 464.4600746333343}, {"on": false, "note": 57, "velocity": 0, "until": 464.52276020833426}, {"on": true, "note": 57, "velocity": 106, "until": 464.74453395833433}, {"on": false, "note": 57, "velocity": 0, "until": 464.7646952083344}, {"on": true, "note": 57, "velocity": 106, "until": 464.98646895833446}, {"on": false, "note": 57, "velocity": 0, "until": 465.0067061333345}, {"on": true, "note": 57, "velocity": 106, "until": 465.06946763333445}, {"on": false, "note": 57, "velocity": 0, "until": 465.1322291333344}, {"on": true, "note": 57, "velocity": 106, "until": 465.1949906333344}, {"on": false, "note": 57, "velocity": 0, "until": 465.25775213333435}, {"on": true, "note": 57, "velocity": 106, "until": 465.3205136333343}, {"on": false, "note": 57, "velocity": 0, "until": 465.3832751333343}, {"on": true, "note": 57, "velocity": 106, "until": 465.44603663333424}, {"on": false, "note": 57, "velocity": 0, "until": 465.50872220833423}, {"on": true, "note": 57, "velocity": 106, "until": 465.7304959583343}, {"on": false, "note": 57, "velocity": 0, "until": 465.75065720833436}, {"on": true, "note": 57, "velocity": 106, "until": 465.9724309583344}, {"on": false, "note": 57, "velocity": 0, "until": 465.99266813333446}, {"on": true, "note": 55, "velocity": 106, "until": 466.0554296333343}, {"on": false, "note": 55, "velocity": 0, "until": 466.1181911333341}, {"on": true, "note": 55, "velocity": 106, "until": 466.18095263333396}, {"on": false, "note": 55, "velocity": 0, "until": 466.24371413333375}, {"on": true, "note": 55, "velocity": 106, "until": 466.30647563333355}, {"on": false, "note": 55, "velocity": 0, "until": 466.3692371333334}, {"on": true, "note": 55, "velocity": 106, "until": 466.4319986333333}, {"on": false, "note": 55, "velocity": 0, "until": 466.4946842083332}, {"on": true, "note": 55, "velocity": 106, "until": 466.71645795833325}, {"on": false, "note": 55, "velocity": 0, "until": 466.7366192083333}, {"on": true, "note": 55, "velocity": 106, "until": 466.9583929583334}, {"on": false, "note": 55, "velocity": 0, "until": 466.9786301333334}, {"on": true, "note": 55, "velocity": 106, "until": 467.10415313333334}, {"on": false, "note": 55, "velocity": 0, "until": 467.22967613333327}, {"on": true, "note": 55, "velocity": 91, "until": 467.3551991333332}, {"on": false, "note": 55, "velocity": 0, "until": 467.48064620833316}, {"on": true, "note": 55, "velocity": 91, "until": 467.6016137083332}, {"on": false, "note": 55, "velocity": 0, "until": 467.7225812083333}, {"on": true, "note": 55, "velocity": 91, "until": 467.84354870833334}, {"on": false, "note": 55, "velocity": 0, "until": 467.9645921333334}, {"on": true, "note": 55, "velocity": 106, "until": 468.02735363333323}, {"on": false, "note": 55, "velocity": 0, "until": 468.09011513333303}, {"on": true, "note": 55, "velocity": 106, "until": 468.1528766333329}, {"on": false, "note": 55, "velocity": 0, "until": 468.2156381333327}, {"on": true, "note": 55, "velocity": 106, "until": 468.27839963333247}, {"on": false, "note": 55, "velocity": 0, "until": 468.3411611333323}, {"on": true, "note": 55, "velocity": 106, "until": 468.40392263333223}, {"on": false, "note": 55, "velocity": 0, "until": 468.4666082083321}, {"on": true, "note": 55, "velocity": 106, "until": 468.6883819583322}, {"on": false, "note": 55, "velocity": 0, "until": 468.70854320833223}, {"on": true, "note": 55, "velocity": 106, "until": 468.9303169583323}, {"on": false, "note": 55, "velocity": 0, "until": 468.95055413333233}, {"on": true, "note": 55, "velocity": 106, "until": 469.07607713333226}, {"on": false, "note": 55, "velocity": 0, "until": 469.2016001333322}, {"on": true, "note": 55, "velocity": 91, "until": 469.3271231333321}, {"on": false, "note": 55, "velocity": 0, "until": 469.4525702083321}, {"on": true, "note": 55, "velocity": 91, "until": 469.6948475666655}, {"on": false, "note": 55, "velocity": 0, "until": 469.97764383333214}, {"on": true, "note": 55, "velocity": 106, "until": 470.0417463333321}, {"on": false, "note": 55, "velocity": 0, "until": 470.1058488333321}, {"on": true, "note": 55, "velocity": 106, "until": 470.1699513333321}, {"on": false, "note": 55, "velocity": 0, "until": 470.2340538333321}, {"on": true, "note": 55, "velocity": 106, "until": 470.29815633333203}, {"on": false, "note": 55, "velocity": 0, "until": 470.362258833332}, {"on": true, "note": 55, "velocity": 106, "until": 470.42636133333195}, {"on": false, "note": 55, "velocity": 0, "until": 470.4903678916653}, {"on": true, "note": 55, "velocity": 106, "until": 470.714856808332}, {"on": false, "note": 55, "velocity": 0, "until": 470.73526489166534}, {"on": true, "note": 55, "velocity": 106, "until": 470.95975380833204}, {"on": false, "note": 55, "velocity": 0, "until": 470.980257833332}, {"on": true, "note": 55, "velocity": 106, "until": 471.04436033333195}, {"on": false, "note": 55, "velocity": 0, "until": 471.108462833332}, {"on": true, "note": 55, "velocity": 106, "until": 471.172565333332}, {"on": false, "note": 55, "velocity": 0, "until": 471.23666783333204}, {"on": true, "note": 55, "velocity": 106, "until": 471.30077033333197}, {"on": false, "note": 55, "velocity": 0, "until": 471.364872833332}, {"on": true, "note": 55, "velocity": 106, "until": 471.42897533333195}, {"on": false, "note": 55, "velocity": 0, "until": 471.49298189166535}, {"on": true, "note": 55, "velocity": 106, "until": 471.71747080833205}, {"on": false, "note": 55, "velocity": 0, "until": 471.7378788916654}, {"on": true, "note": 55, "velocity": 106, "until": 471.9623678083321}, {"on": false, "note": 55, "velocity": 0, "until": 471.98287183333207}, {"on": true, "note": 56, "velocity": 106, "until": 472.046974333332}, {"on": false, "note": 56, "velocity": 0, "until": 472.11107683333205}, {"on": true, "note": 56, "velocity": 106, "until": 472.17517933333204}, {"on": false, "note": 56, "velocity": 0, "until": 472.2392818333321}, {"on": true, "note": 56, "velocity": 106, "until": 472.303384333332}, {"on": false, "note": 56, "velocity": 0, "until": 472.36748683333207}, {"on": true, "note": 56, "velocity": 106, "until": 472.431589333332}, {"on": false, "note": 56, "velocity": 0, "until": 472.4955958916654}, {"on": true, "note": 56, "velocity": 106, "until": 472.7200848083321}, {"on": false, "note": 56, "velocity": 0, "until": 472.74049289166544}, {"on": true, "note": 56, "velocity": 106, "until": 472.96498180833214}, {"on": false, "note": 56, "velocity": 0, "until": 472.9854858333321}, {"on": true, "note": 56, "velocity": 106, "until": 473.04958833333205}, {"on": false, "note": 56, "velocity": 0, "until": 473.1136908333321}, {"on": true, "note": 56, "velocity": 106, "until": 473.1777933333321}, {"on": false, "note": 56, "velocity": 0, "until": 473.24189583333214}, {"on": true, "note": 56, "velocity": 106, "until": 473.30599833333207}, {"on": false, "note": 56, "velocity": 0, "until": 473.3701008333321}, {"on": true, "note": 56, "velocity": 106, "until": 473.43420333333205}, {"on": false, "note": 56, "velocity": 0, "until": 473.49820989166545}, {"on": true, "note": 54, "velocity": 106, "until": 473.72269880833215}, {"on": false, "note": 54, "velocity": 0, "until": 473.7431068916655}, {"on": true, "note": 54, "velocity": 106, "until": 473.9675958083322}, {"on": false, "note": 54, "velocity": 0, "until": 473.98809983333217}, {"on": true, "note": 53, "velocity": 106, "until": 473.98809983333217}, {"on": true, "note": 56, "velocity": 106, "until": 474.05220233333205}, {"on": false, "note": 56, "velocity": 0, "until": 474.05220233333205}, {"on": false, "note": 53, "velocity": 0, "until": 474.116304833332}, {"on": true, "note": 53, "velocity": 106, "until": 474.116304833332}, {"on": true, "note": 56, "velocity": 106, "until": 474.18040733333197}, {"on": false, "note": 56, "velocity": 0, "until": 474.18040733333197}, {"on": false, "note": 53, "velocity": 0, "until": 474.2445098333319}, {"on": true, "note": 53, "velocity": 106, "until": 474.2445098333319}, {"on": true, "note": 56, "velocity": 106, "until": 474.3086123333319}, {"on": false, "note": 56, "velocity": 0, "until": 474.3086123333319}, {"on": false, "note": 53, "velocity": 0, "until": 474.3727148333318}, {"on": true, "note": 53, "velocity": 106, "until": 474.3727148333318}, {"on": true, "note": 56, "velocity": 106, "until": 474.43681733333176}, {"on": false, "note": 56, "velocity": 0, "until": 474.43681733333176}, {"on": false, "note": 53, "velocity": 0, "until": 474.500823891665}, {"on": true, "note": 56, "velocity": 106, "until": 474.500823891665}, {"on": true, "note": 53, "velocity": 106, "until": 474.72531280833164}, {"on": false, "note": 53, "velocity": 0, "until": 474.72531280833164}, {"on": false, "note": 56, "velocity": 0, "until": 474.745720891665}, {"on": true, "note": 56, "velocity": 106, "until": 474.745720891665}, {"on": true, "note": 53, "velocity": 106, "until": 474.9702098083317}, {"on": false, "note": 53, "velocity": 0, "until": 474.9702098083317}, {"on": false, "note": 56, "velocity": 0, "until": 474.99071383333165}, {"on": true, "note": 55, "velocity": 106, "until": 475.1189188333316}, {"on": false, "note": 55, "velocity": 0, "until": 475.2471238333315}, {"on": true, "note": 56, "velocity": 91, "until": 475.3753288333314}, {"on": false, "note": 56, "velocity": 0, "until": 475.5034378916647}, {"on": true, "note": 55, "velocity": 91, "until": 475.6258863916647}, {"on": false, "note": 55, "velocity": 0, "until": 475.74833489166474}, {"on": true, "note": 55, "velocity": 91, "until": 475.87078339166476}, {"on": false, "note": 55, "velocity": 0, "until": 475.9933278333314}, {"on": true, "note": 56, "velocity": 106, "until": 475.9933278333314}, {"on": true, "note": 53, "velocity": 106, "until": 476.0574303333313}, {"on": false, "note": 53, "velocity": 0, "until": 476.0574303333313}, {"on": false, "note": 56, "velocity": 0, "until": 476.12153283333123}, {"on": true, "note": 53, "velocity": 106, "until": 476.12153283333123}, {"on": true, "note": 56, "velocity": 106, "until": 476.1856353333312}, {"on": false, "note": 56, "velocity": 0, "until": 476.1856353333312}, {"on": false, "note": 53, "velocity": 0, "until": 476.24973783333115}, {"on": true, "note": 53, "velocity": 106, "until": 476.24973783333115}, {"on": true, "note": 56, "velocity": 106, "until": 476.31384033333114}, {"on": false, "note": 56, "velocity": 0, "until": 476.31384033333114}, {"on": false, "note": 53, "velocity": 0, "until": 476.3779428333311}, {"on": true, "note": 53, "velocity": 106, "until": 476.3779428333311}, {"on": true, "note": 56, "velocity": 106, "until": 476.442045333331}, {"on": false, "note": 56, "velocity": 0, "until": 476.442045333331}, {"on": false, "note": 53, "velocity": 0, "until": 476.50605189166424}, {"on": true, "note": 56, "velocity": 106, "until": 476.50605189166424}, {"on": true, "note": 53, "velocity": 106, "until": 476.62850039166426}, {"on": false, "note": 53, "velocity": 0, "until": 476.62850039166426}, {"on": false, "note": 56, "velocity": 0, "until": 476.7509488916643}, {"on": true, "note": 56, "velocity": 106, "until": 476.7509488916643}, {"on": true, "note": 53, "velocity": 106, "until": 476.8733973916643}, {"on": false, "note": 53, "velocity": 0, "until": 476.8733973916643}, {"on": false, "note": 56, "velocity": 0, "until": 476.99594183333096}, {"on": true, "note": 55, "velocity": 106, "until": 477.1241468333309}, {"on": false, "note": 55, "velocity": 0, "until": 477.2523518333308}, {"on": true, "note": 56, "velocity": 91, "until": 477.38055683333073}, {"on": false, "note": 56, "velocity": 0, "until": 477.508665891664}, {"on": true, "note": 55, "velocity": 91, "until": 477.75379480833067}, {"on": false, "note": 55, "velocity": 0, "until": 478.0263411333307}, {"on": true, "note": 55, "velocity": 106, "until": 478.4029101333301}, {"on": false, "note": 55, "velocity": 0, "until": 478.4029101333301}, {"on": true, "note": 56, "velocity": 106, "until": 478.52835720832996}, {"on": false, "note": 56, "velocity": 0, "until": 478.52835720832996}, {"on": true, "note": 55, "velocity": 106, "until": 478.75013095833003}, {"on": false, "note": 55, "velocity": 0, "until": 478.7702922083301}, {"on": true, "note": 53, "velocity": 106, "until": 478.89125970833015}, {"on": false, "note": 53, "velocity": 0, "until": 479.0123031333302}, {"on": true, "note": 51, "velocity": 106, "until": 479.1378261333301}, {"on": false, "note": 51, "velocity": 0, "until": 479.1378261333301}, {"on": true, "note": 55, "velocity": 106, "until": 479.24242863333006}, {"on": false, "note": 55, "velocity": 0, "until": 479.26334913333}, {"on": true, "note": 53, "velocity": 106, "until": 479.32611063332996}, {"on": false, "note": 53, "velocity": 0, "until": 479.3888721333299}, {"on": true, "note": 50, "velocity": 106, "until": 479.4516336333299}, {"on": false, "note": 50, "velocity": 0, "until": 479.5143192083299}, {"on": true, "note": 48, "velocity": 106, "until": 479.75625420832995}, {"on": false, "note": 48, "velocity": 0, "until": 481.9701631916627}, {"on": true, "note": 55, "velocity": 106, "until": 482.34206269166276}, {"on": false, "note": 55, "velocity": 0, "until": 482.34206269166276}, {"on": true, "note": 56, "velocity": 106, "until": 482.4659393666627}, {"on": false, "note": 56, "velocity": 0, "until": 482.4659393666627}, {"on": true, "note": 55, "velocity": 106, "until": 482.6833305333293}, {"on": false, "note": 55, "velocity": 0, "until": 482.7030933666626}, {"on": true, "note": 53, "velocity": 106, "until": 482.8216703666625}, {"on": false, "note": 53, "velocity": 0, "until": 482.9403371916624}, {"on": true, "note": 51, "velocity": 106, "until": 483.0643036916625}, {"on": false, "note": 51, "velocity": 0, "until": 483.0643036916625}, {"on": true, "note": 55, "velocity": 106, "until": 483.16760910832915}, {"on": false, "note": 55, "velocity": 0, "until": 483.1882701916625}, {"on": true, "note": 53, "velocity": 106, "until": 483.25025344166255}, {"on": false, "note": 53, "velocity": 0, "until": 483.3122366916626}, {"on": true, "note": 50, "velocity": 106, "until": 483.3742199416626}, {"on": false, "note": 50, "velocity": 0, "until": 483.4361133666626}, {"on": true, "note": 48, "velocity": 106, "until": 483.67326736666246}, {"on": false, "note": 48, "velocity": 0, "until": 485.8508173666624}, {"on": true, "note": 62, "velocity": 106, "until": 486.21518836666263}, {"on": false, "note": 62, "velocity": 0, "until": 486.21518836666263}, {"on": true, "note": 63, "velocity": 106, "until": 486.336529474996}, {"on": false, "note": 63, "velocity": 0, "until": 486.336529474996}, {"on": true, "note": 62, "velocity": 106, "until": 486.54645255832935}, {"on": false, "note": 62, "velocity": 0, "until": 486.565536474996}, {"on": true, "note": 60, "velocity": 106, "until": 486.6800399749961}, {"on": false, "note": 60, "velocity": 0, "until": 486.7946593666628}, {"on": true, "note": 58, "velocity": 106, "until": 486.9161163666629}, {"on": false, "note": 58, "velocity": 0, "until": 486.9161163666629}, {"on": true, "note": 62, "velocity": 106, "until": 487.0173305333296}, {"on": false, "note": 62, "velocity": 0, "until": 487.0375733666629}, {"on": true, "note": 60, "velocity": 106, "until": 487.09830186666295}, {"on": false, "note": 60, "velocity": 0, "until": 487.15903036666293}, {"on": true, "note": 57, "velocity": 106, "until": 487.21975886666297}, {"on": false, "note": 57, "velocity": 0, "until": 487.2803714749963}, {"on": true, "note": 55, "velocity": 106, "until": 487.5093784749964}, {"on": false, "note": 55, "velocity": 0, "until": 487.7385013666632}, {"on": true, "note": 65, "velocity": 106, "until": 488.10287236666403}, {"on": false, "note": 65, "velocity": 0, "until": 488.10287236666403}, {"on": true, "note": 67, "velocity": 106, "until": 488.22421347499755}, {"on": false, "note": 67, "velocity": 0, "until": 488.22421347499755}, {"on": true, "note": 65, "velocity": 106, "until": 488.4341365583309}, {"on": false, "note": 65, "velocity": 0, "until": 488.4532204749976}, {"on": true, "note": 63, "velocity": 106, "until": 488.56772397499765}, {"on": false, "note": 63, "velocity": 0, "until": 488.6823433666644}, {"on": true, "note": 62, "velocity": 106, "until": 488.80380036666446}, {"on": false, "note": 62, "velocity": 0, "until": 488.80380036666446}, {"on": true, "note": 65, "velocity": 106, "until": 488.90501453333115}, {"on": false, "note": 65, "velocity": 0, "until": 488.9252573666645}, {"on": true, "note": 63, "velocity": 106, "until": 488.9859858666645}, {"on": false, "note": 63, "velocity": 0, "until": 489.0467143666645}, {"on": true, "note": 60, "velocity": 106, "until": 489.10744286666454}, {"on": false, "note": 60, "velocity": 0, "until": 489.16805547499786}, {"on": true, "note": 58, "velocity": 106, "until": 489.397062474998}, {"on": false, "note": 58, "velocity": 0, "until": 489.626564924998}, {"on": true, "note": 56, "velocity": 106, "until": 489.9147054166643}, {"on": false, "note": 56, "velocity": 0, "until": 491.643562833331}, {"on": true, "note": 55, "velocity": 106, "until": 491.8999728333309}, {"on": false, "note": 55, "velocity": 0, "until": 492.6461768333308}, {"on": true, "note": 55, "velocity": 106, "until": 492.9025868333307}, {"on": false, "note": 55, "velocity": 0, "until": 493.6926094666641}, {"on": true, "note": 52, "velocity": 106, "until": 493.8253524666641}, {"on": false, "note": 52, "velocity": 0, "until": 493.8253524666641}, {"on": true, "note": 55, "velocity": 106, "until": 493.9359716333308}, {"on": false, "note": 55, "velocity": 0, "until": 493.95809546666413}, {"on": true, "note": 60, "velocity": 106, "until": 494.0244669666642}, {"on": false, "note": 60, "velocity": 0, "until": 494.0908384666642}, {"on": true, "note": 55, "velocity": 106, "until": 494.1572099666642}, {"on": false, "note": 55, "velocity": 0, "until": 494.2234524166642}, {"on": true, "note": 60, "velocity": 106, "until": 494.3484524166642}, {"on": false, "note": 60, "velocity": 0, "until": 494.3484524166642}, {"on": true, "note": 55, "velocity": 106, "until": 494.4526190833309}, {"on": false, "note": 55, "velocity": 0, "until": 494.47345241666426}, {"on": true, "note": 60, "velocity": 106, "until": 494.53595241666426}, {"on": false, "note": 60, "velocity": 0, "until": 494.59845241666426}, {"on": true, "note": 55, "velocity": 106, "until": 494.66095241666426}, {"on": false, "note": 55, "velocity": 0, "until": 494.72354299166426}, {"on": true, "note": 53, "velocity": 106, "until": 494.8539774916643}, {"on": false, "note": 53, "velocity": 0, "until": 494.8539774916643}, {"on": true, "note": 55, "velocity": 106, "until": 494.962672908331}, {"on": false, "note": 55, "velocity": 0, "until": 494.9844119916644}, {"on": true, "note": 62, "velocity": 106, "until": 495.04962924166443}, {"on": false, "note": 62, "velocity": 0, "until": 495.1148464916645}, {"on": true, "note": 55, "velocity": 106, "until": 495.1800637416645}, {"on": false, "note": 55, "velocity": 0, "until": 495.24519041666457}, {"on": true, "note": 62, "velocity": 106, "until": 495.37019041666457}, {"on": false, "note": 62, "velocity": 0, "until": 495.37019041666457}, {"on": true, "note": 55, "velocity": 106, "until": 495.47435708333126}, {"on": false, "note": 55, "velocity": 0, "until": 495.4951904166646}, {"on": true, "note": 62, "velocity": 106, "until": 495.5576904166646}, {"on": false, "note": 62, "velocity": 0, "until": 495.6201904166646}, {"on": true, "note": 55, "velocity": 106, "until": 495.6826904166646}, {"on": false, "note": 55, "velocity": 0, "until": 495.74528099166463}, {"on": true, "note": 52, "velocity": 91, "until": 495.87571549166466}, {"on": false, "note": 52, "velocity": 0, "until": 495.87571549166466}, {"on": true, "note": 55, "velocity": 91, "until": 495.98441090833137}, {"on": false, "note": 55, "velocity": 0, "until": 496.00614999166476}, {"on": true, "note": 60, "velocity": 91, "until": 496.0713672416648}, {"on": false, "note": 60, "velocity": 0, "until": 496.13658449166485}, {"on": true, "note": 55, "velocity": 91, "until": 496.2018017416649}, {"on": false, "note": 55, "velocity": 0, "until": 496.26692841666494}, {"on": true, "note": 60, "velocity": 91, "until": 496.39192841666494}, {"on": false, "note": 60, "velocity": 0, "until": 496.39192841666494}, {"on": true, "note": 55, "velocity": 91, "until": 496.4960950833316}, {"on": false, "note": 55, "velocity": 0, "until": 496.516928416665}, {"on": true, "note": 60, "velocity": 91, "until": 496.579428416665}, {"on": false, "note": 60, "velocity": 0, "until": 496.641928416665}, {"on": true, "note": 55, "velocity": 91, "until": 496.704428416665}, {"on": false, "note": 55, "velocity": 0, "until": 496.767018991665}, {"on": true, "note": 53, "velocity": 91, "until": 496.8974534916651}, {"on": false, "note": 53, "velocity": 0, "until": 496.8974534916651}, {"on": true, "note": 55, "velocity": 91, "until": 497.0061489083318}, {"on": false, "note": 55, "velocity": 0, "until": 497.0278879916652}, {"on": true, "note": 62, "velocity": 91, "until": 497.0931052416653}, {"on": false, "note": 62, "velocity": 0, "until": 497.15832249166533}, {"on": true, "note": 55, "velocity": 91, "until": 497.2235397416654}, {"on": false, "note": 55, "velocity": 0, "until": 497.2886664166654}, {"on": true, "note": 62, "velocity": 91, "until": 497.4136664166655}, {"on": false, "note": 62, "velocity": 0, "until": 497.4136664166655}, {"on": true, "note": 55, "velocity": 91, "until": 497.51783308333216}, {"on": false, "note": 55, "velocity": 0, "until": 497.53866641666554}, {"on": true, "note": 62, "velocity": 91, "until": 497.6011664166656}, {"on": false, "note": 62, "velocity": 0, "until": 497.6636664166656}, {"on": true, "note": 55, "velocity": 91, "until": 497.7261664166656}, {"on": false, "note": 55, "velocity": 0, "until": 497.78875699166565}, {"on": true, "note": 52, "velocity": 106, "until": 497.91919149166574}, {"on": false, "note": 52, "velocity": 0, "until": 497.91919149166574}, {"on": true, "note": 55, "velocity": 106, "until": 498.02788690833245}, {"on": false, "note": 55, "velocity": 0, "until": 498.04962599166583}, {"on": true, "note": 60, "velocity": 106, "until": 498.1148432416659}, {"on": false, "note": 60, "velocity": 0, "until": 498.1800604916659}, {"on": true, "note": 55, "velocity": 106, "until": 498.245277741666}, {"on": false, "note": 55, "velocity": 0, "until": 498.310404416666}, {"on": true, "note": 60, "velocity": 106, "until": 498.435404416666}, {"on": false, "note": 60, "velocity": 0, "until": 498.435404416666}, {"on": true, "note": 55, "velocity": 106, "until": 498.5395710833327}, {"on": false, "note": 55, "velocity": 0, "until": 498.5604044166661}, {"on": true, "note": 60, "velocity": 106, "until": 498.6229044166661}, {"on": false, "note": 60, "velocity": 0, "until": 498.6854044166661}, {"on": true, "note": 55, "velocity": 106, "until": 498.7479044166661}, {"on": false, "note": 55, "velocity": 0, "until": 498.8104949916661}, {"on": true, "note": 53, "velocity": 106, "until": 498.94092949166617}, {"on": false, "note": 53, "velocity": 0, "until": 498.94092949166617}, {"on": true, "note": 55, "velocity": 106, "until": 499.0496249083329}, {"on": false, "note": 55, "velocity": 0, "until": 499.07136399166626}, {"on": true, "note": 62, "velocity": 106, "until": 499.13658124166636}, {"on": false, "note": 62, "velocity": 0, "until": 499.2017984916664}, {"on": true, "note": 55, "velocity": 106, "until": 499.26701574166646}, {"on": false, "note": 55, "velocity": 0, "until": 499.3321424166665}, {"on": true, "note": 62, "velocity": 106, "until": 499.45714241666656}, {"on": false, "note": 62, "velocity": 0, "until": 499.45714241666656}, {"on": true, "note": 55, "velocity": 106, "until": 499.56130908333324}, {"on": false, "note": 55, "velocity": 0, "until": 499.5821424166666}, {"on": true, "note": 62, "velocity": 106, "until": 499.64464241666667}, {"on": false, "note": 62, "velocity": 0, "until": 499.70714241666667}, {"on": true, "note": 55, "velocity": 106, "until": 499.76964241666667}, {"on": false, "note": 55, "velocity": 0, "until": 499.8321958333333}, {"on": true, "note": 52, "velocity": 91, "until": 499.9604008333332}, {"on": false, "note": 52, "velocity": 0, "until": 499.9604008333332}, {"on": true, "note": 55, "velocity": 91, "until": 500.0672383333332}, {"on": false, "note": 55, "velocity": 0, "until": 500.0886058333332}, {"on": true, "note": 60, "velocity": 91, "until": 500.1527083333332}, {"on": false, "note": 60, "velocity": 0, "until": 500.21681083333317}, {"on": true, "note": 55, "velocity": 91, "until": 500.28091333333316}, {"on": false, "note": 55, "velocity": 0, "until": 500.3449198916665}, {"on": true, "note": 60, "velocity": 91, "until": 500.4673683916665}, {"on": false, "note": 60, "velocity": 0, "until": 500.4673683916665}, {"on": true, "note": 55, "velocity": 91, "until": 500.5694088083332}, {"on": false, "note": 55, "velocity": 0, "until": 500.58981689166654}, {"on": true, "note": 60, "velocity": 91, "until": 500.65104114166655}, {"on": false, "note": 60, "velocity": 0, "until": 500.71226539166656}, {"on": true, "note": 55, "velocity": 91, "until": 500.7734896416666}, {"on": false, "note": 55, "velocity": 0, "until": 500.8348098333332}, {"on": true, "note": 53, "velocity": 91, "until": 500.9630148333332}, {"on": false, "note": 53, "velocity": 0, "until": 500.9630148333332}, {"on": true, "note": 55, "velocity": 91, "until": 501.0698523333332}, {"on": false, "note": 55, "velocity": 0, "until": 501.0912198333332}, {"on": true, "note": 62, "velocity": 91, "until": 501.1553223333331}, {"on": false, "note": 62, "velocity": 0, "until": 501.2194248333331}, {"on": true, "note": 55, "velocity": 91, "until": 501.2835273333331}, {"on": false, "note": 55, "velocity": 0, "until": 501.34753389166644}, {"on": true, "note": 62, "velocity": 91, "until": 501.46998239166646}, {"on": false, "note": 62, "velocity": 0, "until": 501.46998239166646}, {"on": true, "note": 55, "velocity": 91, "until": 501.57202280833314}, {"on": false, "note": 55, "velocity": 0, "until": 501.5924308916665}, {"on": true, "note": 62, "velocity": 91, "until": 501.6536551416665}, {"on": false, "note": 62, "velocity": 0, "until": 501.7148793916665}, {"on": true, "note": 55, "velocity": 91, "until": 501.7761036416665}, {"on": false, "note": 55, "velocity": 0, "until": 501.83742383333316}, {"on": true, "note": 52, "velocity": 106, "until": 502.09383383333306}, {"on": false, "note": 52, "velocity": 0, "until": 502.35009910833304}, {"on": true, "note": 57, "velocity": 106, "until": 502.469620608333}, {"on": false, "note": 57, "velocity": 0, "until": 502.58914210833296}, {"on": true, "note": 57, "velocity": 106, "until": 502.7086636083329}, {"on": false, "note": 57, "velocity": 0, "until": 502.82827641666626}, {"on": true, "note": 62, "velocity": 106, "until": 503.07827641666626}, {"on": false, "note": 62, "velocity": 0, "until": 503.32816158333287}, {"on": true, "note": 60, "velocity": 106, "until": 503.4462715833327}, {"on": false, "note": 60, "velocity": 0, "until": 503.56438158333265}, {"on": true, "note": 60, "velocity": 106, "until": 503.6824915833325}, {"on": false, "note": 60, "velocity": 0, "until": 503.8006906916658}, {"on": true, "note": 65, "velocity": 106, "until": 504.04804608333257}, {"on": false, "note": 65, "velocity": 0, "until": 505.8283828333325}, {"on": true, "note": 57, "velocity": 106, "until": 506.83097872499934}, {"on": false, "note": 57, "velocity": 0, "until": 506.83097872499934}, {"on": true, "note": 62, "velocity": 106, "until": 507.0852157249993}, {"on": false, "note": 62, "velocity": 0, "until": 507.8213609166659}, {"on": true, "note": 67, "velocity": 106, "until": 508.07346091666597}, {"on": false, "note": 67, "velocity": 0, "until": 508.8113801333326}, {"on": true, "note": 55, "velocity": 106, "until": 509.06242613333245}, {"on": false, "note": 55, "velocity": 0, "until": 509.79732476666567}, {"on": true, "note": 60, "velocity": 106, "until": 510.0462867666656}, {"on": false, "note": 60, "velocity": 0, "until": 510.2951425833322}, {"on": true, "note": 57, "velocity": 106, "until": 510.41325258333205}, {"on": false, "note": 57, "velocity": 0, "until": 510.531362583332}, {"on": true, "note": 57, "velocity": 106, "until": 510.64947258333183}, {"on": false, "note": 57, "velocity": 0, "until": 510.7676632583318}, {"on": true, "note": 62, "velocity": 106, "until": 511.0135642583319}, {"on": false, "note": 62, "velocity": 0, "until": 511.25936920833186}, {"on": true, "note": 60, "velocity": 106, "until": 511.37655670833186}, {"on": false, "note": 60, "velocity": 0, "until": 511.49374420833186}, {"on": true, "note": 60, "velocity": 106, "until": 511.61093170833186}, {"on": false, "note": 60, "velocity": 0, "until": 511.7281903666652}, {"on": true, "note": 65, "velocity": 106, "until": 511.97158008333196}, {"on": false, "note": 65, "velocity": 0, "until": 514.1621964749986}, {"on": true, "note": 65, "velocity": 106, "until": 514.2766999749988}, {"on": false, "note": 65, "velocity": 0, "until": 514.3912034749991}, {"on": true, "note": 65, "velocity": 106, "until": 514.5057069749993}, {"on": false, "note": 65, "velocity": 0, "until": 514.6203263666662}, {"on": true, "note": 66, "velocity": 106, "until": 515.0960329500002}, {"on": false, "note": 66, "velocity": 0, "until": 515.1060384750003}, {"on": true, "note": 66, "velocity": 106, "until": 515.2205419750005}, {"on": false, "note": 66, "velocity": 0, "until": 515.3350454750007}, {"on": true, "note": 66, "velocity": 106, "until": 515.4495489750009}, {"on": false, "note": 66, "velocity": 0, "until": 515.5641683666677}, {"on": true, "note": 67, "velocity": 106, "until": 516.0501272500009}, {"on": false, "note": 67, "velocity": 0, "until": 516.5393853666675}, {"on": true, "note": 55, "velocity": 106, "until": 516.7822993666676}, {"on": false, "note": 55, "velocity": 0, "until": 517.4958013666677}, {"on": true, "note": 60, "velocity": 106, "until": 517.7387153666676}, {"on": false, "note": 60, "velocity": 0, "until": 518.4522173666675}, {"on": true, "note": 64, "velocity": 106, "until": 519.4086333666683}, {"on": false, "note": 64, "velocity": 0, "until": 519.4086333666683}, {"on": true, "note": 65, "velocity": 106, "until": 519.6515473666682}, {"on": false, "note": 65, "velocity": 0, "until": 520.3650493666684}, {"on": true, "note": 62, "velocity": 106, "until": 520.6079633666683}, {"on": false, "note": 62, "velocity": 0, "until": 521.321465366668}, {"on": true, "note": 60, "velocity": 106, "until": 521.5643793666678}, {"on": false, "note": 60, "velocity": 0, "until": 522.2778813666675}, {"on": true, "note": 64, "velocity": 106, "until": 523.2342973666683}, {"on": false, "note": 64, "velocity": 0, "until": 523.2342973666683}, {"on": true, "note": 65, "velocity": 106, "until": 523.4772113666686}, {"on": false, "note": 65, "velocity": 0, "until": 523.7200618666689}, {"on": true, "note": 62, "velocity": 106, "until": 523.8377088666688}, {"on": false, "note": 62, "velocity": 0, "until": 523.9553558666687}, {"on": true, "note": 62, "velocity": 106, "until": 524.0730028666686}, {"on": false, "note": 62, "velocity": 0, "until": 524.1907133666685}, {"on": true, "note": 69, "velocity": 106, "until": 524.7909289750017}, {"on": false, "note": 69, "velocity": 0, "until": 524.7909289750017}, {"on": true, "note": 67, "velocity": 106, "until": 524.8481807250017}, {"on": false, "note": 67, "velocity": 0, "until": 524.9054324750017}, {"on": true, "note": 65, "velocity": 106, "until": 524.9626842250017}, {"on": false, "note": 65, "velocity": 0, "until": 525.0199359750017}, {"on": true, "note": 64, "velocity": 106, "until": 525.0771877250016}, {"on": false, "note": 64, "velocity": 0, "until": 525.1345553666682}, {"on": true, "note": 62, "velocity": 106, "until": 525.1952838666681}, {"on": false, "note": 62, "velocity": 0, "until": 525.2560123666681}, {"on": true, "note": 60, "velocity": 106, "until": 525.316740866668}, {"on": false, "note": 60, "velocity": 0, "until": 525.377469366668}, {"on": true, "note": 59, "velocity": 106, "until": 525.4381978666679}, {"on": false, "note": 59, "velocity": 0, "until": 525.4989263666679}, {"on": true, "note": 57, "velocity": 106, "until": 525.5596548666679}, {"on": false, "note": 57, "velocity": 0, "until": 525.6202674750012}, {"on": true, "note": 55, "velocity": 106, "until": 525.6775192250012}, {"on": false, "note": 55, "velocity": 0, "until": 525.7347709750012}, {"on": true, "note": 65, "velocity": 106, "until": 525.7920227250012}, {"on": false, "note": 65, "velocity": 0, "until": 525.8492744750012}, {"on": true, "note": 64, "velocity": 106, "until": 525.9065262250011}, {"on": false, "note": 64, "velocity": 0, "until": 525.9637779750011}, {"on": true, "note": 62, "velocity": 106, "until": 526.0210297250011}, {"on": false, "note": 62, "velocity": 0, "until": 526.0783973666677}, {"on": true, "note": 60, "velocity": 106, "until": 526.1391258666677}, {"on": false, "note": 60, "velocity": 0, "until": 526.1998543666676}, {"on": true, "note": 59, "velocity": 106, "until": 526.2605828666676}, {"on": false, "note": 59, "velocity": 0, "until": 526.3213113666676}, {"on": true, "note": 57, "velocity": 106, "until": 526.3820398666676}, {"on": false, "note": 57, "velocity": 0, "until": 526.4427683666676}, {"on": true, "note": 55, "velocity": 106, "until": 526.5034968666675}, {"on": false, "note": 55, "velocity": 0, "until": 526.5641094750009}, {"on": true, "note": 56, "velocity": 106, "until": 526.6213612250009}, {"on": false, "note": 56, "velocity": 0, "until": 526.6786129750009}, {"on": true, "note": 57, "velocity": 101, "until": 526.7358647250009}, {"on": false, "note": 57, "velocity": 0, "until": 526.7931164750008}, {"on": true, "note": 58, "velocity": 96, "until": 526.8503682250008}, {"on": false, "note": 58, "velocity": 0, "until": 526.9076199750008}, {"on": true, "note": 59, "velocity": 91, "until": 526.9648717250008}, {"on": false, "note": 59, "velocity": 0, "until": 527.0222393666673}, {"on": true, "note": 60, "velocity": 46, "until": 527.2651533666674}, {"on": false, "note": 60, "velocity": 0, "until": 530.7976073666673}, {"on": true, "note": 65, "velocity": 106, "until": 531.0101571166674}, {"on": false, "note": 65, "velocity": 0, "until": 531.0405213666673}, {"on": true, "note": 65, "velocity": 106, "until": 531.2530711166675}, {"on": false, "note": 65, "velocity": 0, "until": 531.2833194750008}, {"on": true, "note": 65, "velocity": 106, "until": 531.4837006000007}, {"on": false, "note": 65, "velocity": 0, "until": 531.5123264750007}, {"on": true, "note": 65, "velocity": 106, "until": 531.7127076000007}, {"on": false, "note": 65, "velocity": 0, "until": 531.7414493666673}, {"on": true, "note": 65, "velocity": 106, "until": 531.9539991166673}, {"on": false, "note": 65, "velocity": 0, "until": 531.9843633666674}, {"on": true, "note": 65, "velocity": 106, "until": 532.1969131166674}, {"on": false, "note": 65, "velocity": 0, "until": 532.2271614750007}, {"on": true, "note": 65, "velocity": 106, "until": 532.4275426000006}, {"on": false, "note": 65, "velocity": 0, "until": 532.4561684750006}, {"on": true, "note": 65, "velocity": 106, "until": 532.6565496000005}, {"on": false, "note": 65, "velocity": 0, "until": 532.6852913666671}, {"on": true, "note": 64, "velocity": 106, "until": 532.897841116667}, {"on": false, "note": 64, "velocity": 0, "until": 532.928205366667}, {"on": true, "note": 64, "velocity": 106, "until": 533.1407551166669}, {"on": false, "note": 64, "velocity": 0, "until": 533.1710034750002}, {"on": true, "note": 64, "velocity": 106, "until": 533.3713846000002}, {"on": false, "note": 64, "velocity": 0, "until": 533.4000104750002}, {"on": true, "note": 64, "velocity": 106, "until": 533.6003916000001}, {"on": false, "note": 64, "velocity": 0, "until": 533.6291333666667}, {"on": true, "note": 64, "velocity": 106, "until": 533.8416831166664}, {"on": false, "note": 64, "velocity": 0, "until": 533.8720473666665}, {"on": true, "note": 64, "velocity": 106, "until": 534.0845971166663}, {"on": false, "note": 64, "velocity": 0, "until": 534.1148454749996}, {"on": true, "note": 64, "velocity": 106, "until": 534.3152265999998}, {"on": false, "note": 64, "velocity": 0, "until": 534.3438524749998}, {"on": true, "note": 64, "velocity": 106, "until": 534.5442335999999}, {"on": false, "note": 64, "velocity": 0, "until": 534.5729753666665}, {"on": true, "note": 65, "velocity": 106, "until": 534.7855251166666}, {"on": false, "note": 65, "velocity": 0, "until": 534.8158893666665}, {"on": true, "note": 65, "velocity": 106, "until": 535.0284391166666}, {"on": false, "note": 65, "velocity": 0, "until": 535.0586874749999}, {"on": true, "note": 65, "velocity": 106, "until": 535.2590685999999}, {"on": false, "note": 65, "velocity": 0, "until": 535.2876944749999}, {"on": true, "note": 65, "velocity": 106, "until": 535.4880755999999}, {"on": false, "note": 65, "velocity": 0, "until": 535.5168173666665}, {"on": true, "note": 65, "velocity": 106, "until": 535.7293671166665}, {"on": false, "note": 65, "velocity": 0, "until": 535.7597313666665}, {"on": true, "note": 65, "velocity": 106, "until": 535.9722811166665}, {"on": false, "note": 65, "velocity": 0, "until": 536.0025294749998}, {"on": true, "note": 65, "velocity": 106, "until": 536.2029105999998}, {"on": false, "note": 65, "velocity": 0, "until": 536.2315364749998}, {"on": true, "note": 65, "velocity": 106, "until": 536.4319175999997}, {"on": false, "note": 65, "velocity": 0, "until": 536.4606593666663}, {"on": true, "note": 64, "velocity": 106, "until": 536.6732091166662}, {"on": false, "note": 64, "velocity": 0, "until": 536.7035733666662}, {"on": true, "note": 64, "velocity": 106, "until": 536.9161231166661}, {"on": false, "note": 64, "velocity": 0, "until": 536.9463714749994}, {"on": true, "note": 64, "velocity": 106, "until": 537.1467525999993}, {"on": false, "note": 64, "velocity": 0, "until": 537.1753784749993}, {"on": true, "note": 64, "velocity": 106, "until": 537.3757595999992}, {"on": false, "note": 64, "velocity": 0, "until": 537.4045013666658}, {"on": true, "note": 64, "velocity": 106, "until": 537.6170511166661}, {"on": false, "note": 64, "velocity": 0, "until": 537.647415366666}, {"on": true, "note": 64, "velocity": 106, "until": 537.8599651166662}, {"on": false, "note": 64, "velocity": 0, "until": 537.8902134749995}, {"on": true, "note": 64, "velocity": 106, "until": 538.0905945999995}, {"on": false, "note": 64, "velocity": 0, "until": 538.1192204749995}, {"on": true, "note": 64, "velocity": 106, "until": 538.3196015999995}, {"on": false, "note": 64, "velocity": 0, "until": 538.3483433666661}, {"on": true, "note": 69, "velocity": 106, "until": 538.5912573666661}, {"on": false, "note": 69, "velocity": 0, "until": 538.8340554749996}, {"on": true, "note": 71, "velocity": 106, "until": 539.0630624749997}, {"on": false, "note": 71, "velocity": 0, "until": 539.2921853666664}, {"on": true, "note": 72, "velocity": 106, "until": 539.5350993666665}, {"on": false, "note": 72, "velocity": 0, "until": 539.7778974749999}, {"on": true, "note": 65, "velocity": 106, "until": 540.006904475}, {"on": false, "note": 65, "velocity": 0, "until": 540.2360273666668}, {"on": true, "note": 64, "velocity": 106, "until": 540.4789413666667}, {"on": false, "note": 64, "velocity": 0, "until": 540.721739475}, {"on": true, "note": 62, "velocity": 106, "until": 540.9507464750002}, {"on": false, "note": 62, "velocity": 0, "until": 541.1796765833336}, {"on": true, "note": 64, "velocity": 106, "until": 541.1796765833336}, {"on": true, "note": 60, "velocity": 106, "until": 541.5826065833335}, {"on": false, "note": 60, "velocity": 0, "until": 541.5826065833335}, {"on": false, "note": 64, "velocity": 0, "until": 541.6191292166667}, {"on": true, "note": 63, "velocity": 106, "until": 541.6191292166667}, {"on": true, "note": 60, "velocity": 106, "until": 541.9984385500003}, {"on": false, "note": 60, "velocity": 0, "until": 541.9984385500003}, {"on": false, "note": 63, "velocity": 0, "until": 542.0329891916671}, {"on": true, "note": 64, "velocity": 106, "until": 542.0329891916671}, {"on": true, "note": 60, "velocity": 106, "until": 542.4272530250005}, {"on": false, "note": 60, "velocity": 0, "until": 542.4272530250005}, {"on": false, "note": 64, "velocity": 0, "until": 542.4630212916672}, {"on": true, "note": 63, "velocity": 106, "until": 542.4630212916672}, {"on": true, "note": 60, "velocity": 106, "until": 542.841027125001}, {"on": false, "note": 60, "velocity": 0, "until": 542.841027125001}, {"on": false, "note": 63, "velocity": 0, "until": 542.8754587916678}, {"on": true, "note": 64, "velocity": 106, "until": 542.8754587916678}, {"on": true, "note": 60, "velocity": 106, "until": 543.2683146250014}, {"on": false, "note": 60, "velocity": 0, "until": 543.2683146250014}, {"on": false, "note": 64, "velocity": 0, "until": 543.3039495666682}, {"on": true, "note": 63, "velocity": 106, "until": 543.3039495666682}, {"on": true, "note": 60, "velocity": 106, "until": 543.6793759000017}, {"on": false, "note": 60, "velocity": 0, "until": 543.6793759000017}, {"on": false, "note": 63, "velocity": 0, "until": 543.7135847916685}, {"on": true, "note": 64, "velocity": 106, "until": 543.7135847916685}, {"on": true, "note": 60, "velocity": 106, "until": 544.1420755666687}, {"on": false, "note": 60, "velocity": 0, "until": 544.1420755666687}, {"on": false, "note": 64, "velocity": 0, "until": 544.551710791669}, {"on": true, "note": 67, "velocity": 106, "until": 544.551710791669}, {"on": true, "note": 57, "velocity": 106, "until": 544.9802015666695}, {"on": false, "note": 57, "velocity": 0, "until": 544.9802015666695}, {"on": false, "note": 67, "velocity": 0, "until": 545.3898367916698}, {"on": true, "note": 65, "velocity": 106, "until": 545.3898367916698}, {"on": true, "note": 57, "velocity": 106, "until": 545.8183275666703}, {"on": false, "note": 57, "velocity": 0, "until": 545.8183275666703}, {"on": false, "note": 65, "velocity": 0, "until": 546.2279627916705}, {"on": true, "note": 67, "velocity": 106, "until": 546.2279627916705}, {"on": true, "note": 57, "velocity": 106, "until": 546.656453566671}, {"on": false, "note": 57, "velocity": 0, "until": 546.656453566671}, {"on": false, "note": 67, "velocity": 0, "until": 547.0660887916713}, {"on": true, "note": 65, "velocity": 106, "until": 547.0660887916713}, {"on": true, "note": 57, "velocity": 106, "until": 547.4945795666717}, {"on": false, "note": 57, "velocity": 0, "until": 547.4945795666717}, {"on": false, "note": 65, "velocity": 0, "until": 547.904214791672}, {"on": true, "note": 71, "velocity": 121, "until": 547.904214791672}, {"on": true, "note": 62, "velocity": 121, "until": 547.993500208339}, {"on": false, "note": 62, "velocity": 0, "until": 547.993500208339}, {"on": false, "note": 71, "velocity": 0, "until": 548.0113572916725}, {"on": true, "note": 71, "velocity": 106, "until": 548.0113572916725}, {"on": true, "note": 62, "velocity": 106, "until": 548.1006427083393}, {"on": false, "note": 62, "velocity": 0, "until": 548.1006427083393}, {"on": false, "note": 71, "velocity": 0, "until": 548.1184997916727}, {"on": true, "note": 71, "velocity": 106, "until": 548.1184997916727}, {"on": true, "note": 62, "velocity": 106, "until": 548.2077852083394}, {"on": false, "note": 62, "velocity": 0, "until": 548.2077852083394}, {"on": false, "note": 71, "velocity": 0, "until": 548.2256422916728}, {"on": true, "note": 71, "velocity": 106, "until": 548.2256422916728}, {"on": true, "note": 62, "velocity": 106, "until": 548.3149277083395}, {"on": false, "note": 62, "velocity": 0, "until": 548.3149277083395}, {"on": false, "note": 71, "velocity": 0, "until": 548.3327055666729}, {"on": true, "note": 71, "velocity": 106, "until": 548.3327055666729}, {"on": true, "note": 62, "velocity": 106, "until": 548.4180297333396}, {"on": false, "note": 62, "velocity": 0, "until": 548.4180297333396}, {"on": false, "note": 71, "velocity": 0, "until": 548.435094566673}, {"on": true, "note": 71, "velocity": 106, "until": 548.435094566673}, {"on": true, "note": 62, "velocity": 106, "until": 548.5204187333397}, {"on": false, "note": 62, "velocity": 0, "until": 548.5204187333397}, {"on": false, "note": 71, "velocity": 0, "until": 548.5374835666731}, {"on": true, "note": 71, "velocity": 106, "until": 548.5374835666731}, {"on": true, "note": 62, "velocity": 106, "until": 548.6228077333399}, {"on": false, "note": 62, "velocity": 0, "until": 548.6228077333399}, {"on": false, "note": 71, "velocity": 0, "until": 548.6398725666733}, {"on": true, "note": 71, "velocity": 106, "until": 548.6398725666733}, {"on": true, "note": 62, "velocity": 106, "until": 548.72519673334}, {"on": false, "note": 62, "velocity": 0, "until": 548.72519673334}, {"on": false, "note": 71, "velocity": 0, "until": 548.7423407916734}, {"on": true, "note": 62, "velocity": 106, "until": 548.7423407916734}, {"on": true, "note": 71, "velocity": 106, "until": 548.8316262083401}, {"on": false, "note": 71, "velocity": 0, "until": 548.8316262083401}, {"on": false, "note": 62, "velocity": 0, "until": 548.8494832916736}, {"on": true, "note": 62, "velocity": 106, "until": 548.8494832916736}, {"on": true, "note": 71, "velocity": 106, "until": 548.9387687083403}, {"on": false, "note": 71, "velocity": 0, "until": 548.9387687083403}, {"on": false, "note": 62, "velocity": 0, "until": 548.9566257916737}, {"on": true, "note": 62, "velocity": 106, "until": 548.9566257916737}, {"on": true, "note": 71, "velocity": 106, "until": 549.0459112083404}, {"on": false, "note": 71, "velocity": 0, "until": 549.0459112083404}, {"on": false, "note": 62, "velocity": 0, "until": 549.0637682916738}, {"on": true, "note": 62, "velocity": 106, "until": 549.0637682916738}, {"on": true, "note": 71, "velocity": 106, "until": 549.1530537083405}, {"on": false, "note": 71, "velocity": 0, "until": 549.1530537083405}, {"on": false, "note": 62, "velocity": 0, "until": 549.1708315666739}, {"on": true, "note": 71, "velocity": 106, "until": 549.1708315666739}, {"on": true, "note": 62, "velocity": 106, "until": 549.3414799000074}, {"on": false, "note": 62, "velocity": 0, "until": 549.3414799000074}, {"on": false, "note": 71, "velocity": 0, "until": 549.3756095666741}, {"on": true, "note": 55, "velocity": 106, "until": 549.4268040666742}, {"on": false, "note": 55, "velocity": 0, "until": 549.4268040666742}, {"on": true, "note": 57, "velocity": 106, "until": 549.4779985666744}, {"on": false, "note": 57, "velocity": 0, "until": 549.4779985666744}, {"on": true, "note": 59, "velocity": 106, "until": 549.5291930666745}, {"on": false, "note": 59, "velocity": 0, "until": 549.5291930666745}, {"on": true, "note": 60, "velocity": 106, "until": 549.5804667916747}, {"on": false, "note": 60, "velocity": 0, "until": 549.5804667916747}, {"on": true, "note": 62, "velocity": 106, "until": 550.1796059000097}, {"on": false, "note": 62, "velocity": 0, "until": 550.2137355666765}, {"on": true, "note": 55, "velocity": 106, "until": 550.2649300666766}, {"on": false, "note": 55, "velocity": 0, "until": 550.2649300666766}, {"on": true, "note": 57, "velocity": 106, "until": 550.3161245666768}, {"on": false, "note": 57, "velocity": 0, "until": 550.3161245666768}, {"on": true, "note": 59, "velocity": 106, "until": 550.3673190666768}, {"on": false, "note": 59, "velocity": 0, "until": 550.3673190666768}, {"on": true, "note": 60, "velocity": 106, "until": 550.418592791677}, {"on": false, "note": 60, "velocity": 0, "until": 550.418592791677}, {"on": true, "note": 62, "velocity": 106, "until": 551.0177319000121}, {"on": false, "note": 62, "velocity": 0, "until": 551.0518615666789}, {"on": true, "note": 55, "velocity": 106, "until": 551.103056066679}, {"on": false, "note": 55, "velocity": 0, "until": 551.103056066679}, {"on": true, "note": 57, "velocity": 106, "until": 551.1542505666791}, {"on": false, "note": 57, "velocity": 0, "until": 551.1542505666791}, {"on": true, "note": 59, "velocity": 106, "until": 551.2054450666792}, {"on": false, "note": 59, "velocity": 0, "until": 551.2054450666792}, {"on": true, "note": 60, "velocity": 106, "until": 551.2567187916794}, {"on": false, "note": 60, "velocity": 0, "until": 551.2567187916794}, {"on": true, "note": 55, "velocity": 106, "until": 551.2567187916794}, {"on": true, "note": 62, "velocity": 106, "until": 551.3460042083467}, {"on": false, "note": 62, "velocity": 0, "until": 551.3460042083467}, {"on": false, "note": 55, "velocity": 0, "until": 551.3638612916803}, {"on": true, "note": 55, "velocity": 106, "until": 551.3638612916803}, {"on": true, "note": 62, "velocity": 106, "until": 551.4531467083475}, {"on": false, "note": 62, "velocity": 0, "until": 551.4531467083475}, {"on": false, "note": 55, "velocity": 0, "until": 551.4710037916809}, {"on": true, "note": 55, "velocity": 106, "until": 551.4710037916809}, {"on": true, "note": 62, "velocity": 106, "until": 551.5602892083476}, {"on": false, "note": 62, "velocity": 0, "until": 551.5602892083476}, {"on": false, "note": 55, "velocity": 0, "until": 551.578146291681}, {"on": true, "note": 55, "velocity": 106, "until": 551.578146291681}, {"on": true, "note": 62, "velocity": 106, "until": 551.6674317083477}, {"on": false, "note": 62, "velocity": 0, "until": 551.6674317083477}, {"on": false, "note": 55, "velocity": 0, "until": 551.6852095666811}, {"on": true, "note": 55, "velocity": 106, "until": 551.6852095666811}, {"on": true, "note": 62, "velocity": 106, "until": 551.7705337333479}, {"on": false, "note": 62, "velocity": 0, "until": 551.7705337333479}, {"on": false, "note": 55, "velocity": 0, "until": 551.7875985666813}, {"on": true, "note": 55, "velocity": 106, "until": 551.7875985666813}, {"on": true, "note": 62, "velocity": 106, "until": 551.872922733348}, {"on": false, "note": 62, "velocity": 0, "until": 551.872922733348}, {"on": false, "note": 55, "velocity": 0, "until": 551.8899875666814}, {"on": true, "note": 55, "velocity": 106, "until": 551.8899875666814}, {"on": true, "note": 62, "velocity": 106, "until": 551.9753117333481}, {"on": false, "note": 62, "velocity": 0, "until": 551.9753117333481}, {"on": false, "note": 55, "velocity": 0, "until": 551.9923765666815}, {"on": true, "note": 55, "velocity": 106, "until": 551.9923765666815}, {"on": true, "note": 62, "velocity": 106, "until": 552.0777007333483}, {"on": false, "note": 62, "velocity": 0, "until": 552.0777007333483}, {"on": false, "note": 55, "velocity": 0, "until": 552.0948447916817}, {"on": true, "note": 62, "velocity": 106, "until": 552.0948447916817}, {"on": true, "note": 55, "velocity": 106, "until": 552.1841302083484}, {"on": false, "note": 55, "velocity": 0, "until": 552.1841302083484}, {"on": false, "note": 62, "velocity": 0, "until": 552.2019872916818}, {"on": true, "note": 62, "velocity": 106, "until": 552.2019872916818}, {"on": true, "note": 55, "velocity": 106, "until": 552.2912727083485}, {"on": false, "note": 55, "velocity": 0, "until": 552.2912727083485}, {"on": false, "note": 62, "velocity": 0, "until": 552.3091297916819}, {"on": true, "note": 62, "velocity": 106, "until": 552.3091297916819}, {"on": true, "note": 55, "velocity": 106, "until": 552.3984152083486}, {"on": false, "note": 55, "velocity": 0, "until": 552.3984152083486}, {"on": false, "note": 62, "velocity": 0, "until": 552.416272291682}, {"on": true, "note": 62, "velocity": 106, "until": 552.416272291682}, {"on": true, "note": 55, "velocity": 106, "until": 552.5055577083488}, {"on": false, "note": 55, "velocity": 0, "until": 552.5055577083488}, {"on": false, "note": 62, "velocity": 0, "until": 552.5233355666821}, {"on": true, "note": 62, "velocity": 106, "until": 552.5233355666821}, {"on": true, "note": 55, "velocity": 106, "until": 552.6939839000156}, {"on": false, "note": 55, "velocity": 0, "until": 552.6939839000156}, {"on": false, "note": 62, "velocity": 0, "until": 552.7281135666824}, {"on": true, "note": 55, "velocity": 106, "until": 552.7793080666825}, {"on": false, "note": 55, "velocity": 0, "until": 552.7793080666825}, {"on": true, "note": 57, "velocity": 106, "until": 552.8305025666826}, {"on": false, "note": 57, "velocity": 0, "until": 552.8305025666826}, {"on": true, "note": 59, "velocity": 106, "until": 552.8816970666827}, {"on": false, "note": 59, "velocity": 0, "until": 552.8816970666827}, {"on": true, "note": 60, "velocity": 106, "until": 552.9329707916829}, {"on": false, "note": 60, "velocity": 0, "until": 552.9329707916829}, {"on": true, "note": 62, "velocity": 106, "until": 553.532109900018}, {"on": false, "note": 62, "velocity": 0, "until": 553.5662395666848}, {"on": true, "note": 55, "velocity": 106, "until": 553.6174340666848}, {"on": false, "note": 55, "velocity": 0, "until": 553.6174340666848}, {"on": true, "note": 57, "velocity": 106, "until": 553.668628566685}, {"on": false, "note": 57, "velocity": 0, "until": 553.668628566685}, {"on": true, "note": 59, "velocity": 106, "until": 553.7198230666851}, {"on": false, "note": 59, "velocity": 0, "until": 553.7198230666851}, {"on": true, "note": 60, "velocity": 106, "until": 553.7710967916853}, {"on": false, "note": 60, "velocity": 0, "until": 553.7710967916853}, {"on": true, "note": 62, "velocity": 106, "until": 554.3702359000204}, {"on": false, "note": 62, "velocity": 0, "until": 554.4043655666871}, {"on": true, "note": 55, "velocity": 106, "until": 554.4453211666872}, {"on": false, "note": 55, "velocity": 0, "until": 554.4453211666872}, {"on": true, "note": 57, "velocity": 106, "until": 554.4862767666873}, {"on": false, "note": 57, "velocity": 0, "until": 554.4862767666873}, {"on": true, "note": 59, "velocity": 106, "until": 554.5272323666874}, {"on": false, "note": 59, "velocity": 0, "until": 554.5272323666874}, {"on": true, "note": 60, "velocity": 106, "until": 554.5681879666874}, {"on": false, "note": 60, "velocity": 0, "until": 554.5681879666874}, {"on": true, "note": 62, "velocity": 106, "until": 554.6092227916877}, {"on": false, "note": 62, "velocity": 0, "until": 554.6092227916877}, {"on": true, "note": 63, "velocity": 106, "until": 554.698508208355}, {"on": false, "note": 63, "velocity": 0, "until": 554.7163652916886}, {"on": true, "note": 63, "velocity": 106, "until": 554.8056507083558}, {"on": false, "note": 63, "velocity": 0, "until": 554.8235077916892}, {"on": true, "note": 63, "velocity": 106, "until": 554.9127932083559}, {"on": false, "note": 63, "velocity": 0, "until": 554.9306502916893}, {"on": true, "note": 63, "velocity": 106, "until": 555.019935708356}, {"on": false, "note": 63, "velocity": 0, "until": 555.0377135666894}, {"on": true, "note": 59, "velocity": 106, "until": 555.1230377333561}, {"on": false, "note": 59, "velocity": 0, "until": 555.1401025666895}, {"on": true, "note": 59, "velocity": 106, "until": 555.2254267333562}, {"on": false, "note": 59, "velocity": 0, "until": 555.2424915666896}, {"on": true, "note": 59, "velocity": 106, "until": 555.3278157333564}, {"on": false, "note": 59, "velocity": 0, "until": 555.3448805666898}, {"on": true, "note": 59, "velocity": 106, "until": 555.4302047333565}, {"on": false, "note": 59, "velocity": 0, "until": 555.4473487916899}, {"on": true, "note": 59, "velocity": 106, "until": 555.5366342083566}, {"on": false, "note": 59, "velocity": 0, "until": 555.55449129169}, {"on": true, "note": 59, "velocity": 106, "until": 555.6437767083568}, {"on": false, "note": 59, "velocity": 0, "until": 555.6616337916902}, {"on": true, "note": 59, "velocity": 106, "until": 555.7509192083569}, {"on": false, "note": 59, "velocity": 0, "until": 555.7687762916903}, {"on": true, "note": 59, "velocity": 106, "until": 555.858061708357}, {"on": false, "note": 59, "velocity": 0, "until": 555.8758395666904}, {"on": true, "note": 59, "velocity": 106, "until": 555.9611637333571}, {"on": false, "note": 59, "velocity": 0, "until": 555.9782285666905}, {"on": true, "note": 59, "velocity": 106, "until": 556.0635527333573}, {"on": false, "note": 59, "velocity": 0, "until": 556.0806175666906}, {"on": true, "note": 59, "velocity": 106, "until": 556.1659417333574}, {"on": false, "note": 59, "velocity": 0, "until": 556.1830065666908}, {"on": true, "note": 59, "velocity": 106, "until": 556.2683307333575}, {"on": false, "note": 59, "velocity": 0, "until": 556.285474791691}, {"on": true, "note": 60, "velocity": 106, "until": 556.3747602083578}, {"on": false, "note": 60, "velocity": 0, "until": 556.3926172916912}, {"on": true, "note": 60, "velocity": 106, "until": 556.4819027083579}, {"on": false, "note": 60, "velocity": 0, "until": 556.4997597916913}, {"on": true, "note": 60, "velocity": 106, "until": 556.589045208358}, {"on": false, "note": 60, "velocity": 0, "until": 556.6069022916914}, {"on": true, "note": 60, "velocity": 106, "until": 556.6961877083581}, {"on": false, "note": 60, "velocity": 0, "until": 556.7139655666915}, {"on": true, "note": 60, "velocity": 106, "until": 556.7992897333583}, {"on": false, "note": 60, "velocity": 0, "until": 556.8163545666916}, {"on": true, "note": 60, "velocity": 106, "until": 556.9016787333584}, {"on": false, "note": 60, "velocity": 0, "until": 556.9187435666918}, {"on": true, "note": 60, "velocity": 106, "until": 557.0040677333585}, {"on": false, "note": 60, "velocity": 0, "until": 557.0211325666919}, {"on": true, "note": 60, "velocity": 106, "until": 557.1064567333586}, {"on": false, "note": 60, "velocity": 0, "until": 557.1236007916921}, {"on": true, "note": 61, "velocity": 106, "until": 557.2128862083589}, {"on": false, "note": 61, "velocity": 0, "until": 557.2307432916923}, {"on": true, "note": 61, "velocity": 106, "until": 557.320028708359}, {"on": false, "note": 61, "velocity": 0, "until": 557.3378857916924}, {"on": true, "note": 61, "velocity": 106, "until": 557.4271712083591}, {"on": false, "note": 61, "velocity": 0, "until": 557.4450282916926}, {"on": true, "note": 61, "velocity": 106, "until": 557.5343137083593}, {"on": false, "note": 61, "velocity": 0, "until": 557.5520915666926}, {"on": true, "note": 61, "velocity": 106, "until": 557.6374157333594}, {"on": false, "note": 61, "velocity": 0, "until": 557.6544805666928}, {"on": true, "note": 61, "velocity": 106, "until": 557.7398047333595}, {"on": false, "note": 61, "velocity": 0, "until": 557.7568695666929}, {"on": true, "note": 61, "velocity": 106, "until": 557.8421937333596}, {"on": false, "note": 61, "velocity": 0, "until": 557.859258566693}, {"on": true, "note": 61, "velocity": 106, "until": 557.9445827333598}, {"on": false, "note": 61, "velocity": 0, "until": 557.9617267916932}, {"on": true, "note": 60, "velocity": 106, "until": 558.1760117916934}, {"on": false, "note": 60, "velocity": 0, "until": 558.7998527916938}, {"on": true, "note": 56, "velocity": 106, "until": 559.0141377916942}, {"on": false, "note": 56, "velocity": 0, "until": 559.6379787916945}, {"on": true, "note": 55, "velocity": 106, "until": 559.852263791695}, {"on": false, "note": 55, "velocity": 0, "until": 560.4761047916953}, {"on": true, "note": 55, "velocity": 106, "until": 560.6906874166957}, {"on": false, "note": 55, "velocity": 0, "until": 561.1651957416956}, {"on": true, "note": 55, "velocity": 106, "until": 561.2101395416956}, {"on": false, "note": 55, "velocity": 0, "until": 561.2101395416956}, {"on": true, "note": 57, "velocity": 106, "until": 561.2550833416957}, {"on": false, "note": 57, "velocity": 0, "until": 561.2550833416957}, {"on": true, "note": 59, "velocity": 106, "until": 561.3000271416958}, {"on": false, "note": 59, "velocity": 0, "until": 561.3000271416958}, {"on": true, "note": 60, "velocity": 106, "until": 561.3449709416958}, {"on": false, "note": 60, "velocity": 0, "until": 561.3449709416958}, {"on": true, "note": 62, "velocity": 106, "until": 561.3898277916959}, {"on": false, "note": 62, "velocity": 0, "until": 561.3898277916959}, {"on": true, "note": 63, "velocity": 106, "until": 561.479113208363}, {"on": false, "note": 63, "velocity": 0, "until": 561.4969702916965}, {"on": true, "note": 63, "velocity": 106, "until": 561.5862557083632}, {"on": false, "note": 63, "velocity": 0, "until": 561.6041127916966}, {"on": true, "note": 63, "velocity": 106, "until": 561.6933982083633}, {"on": false, "note": 63, "velocity": 0, "until": 561.7112552916967}, {"on": true, "note": 63, "velocity": 106, "until": 561.8005407083634}, {"on": false, "note": 63, "velocity": 0, "until": 561.8183185666968}, {"on": true, "note": 59, "velocity": 106, "until": 561.9036427333635}, {"on": false, "note": 59, "velocity": 0, "until": 561.9207075666969}, {"on": true, "note": 59, "velocity": 106, "until": 562.0060317333637}, {"on": false, "note": 59, "velocity": 0, "until": 562.0230965666971}, {"on": true, "note": 59, "velocity": 106, "until": 562.1084207333638}, {"on": false, "note": 59, "velocity": 0, "until": 562.1254855666972}, {"on": true, "note": 59, "velocity": 106, "until": 562.2108097333639}, {"on": false, "note": 59, "velocity": 0, "until": 562.2279537916974}, {"on": true, "note": 59, "velocity": 106, "until": 562.3172392083641}, {"on": false, "note": 59, "velocity": 0, "until": 562.3350962916975}, {"on": true, "note": 59, "velocity": 106, "until": 562.4243817083642}, {"on": false, "note": 59, "velocity": 0, "until": 562.4422387916976}, {"on": true, "note": 59, "velocity": 106, "until": 562.5315242083643}, {"on": false, "note": 59, "velocity": 0, "until": 562.5493812916977}, {"on": true, "note": 59, "velocity": 106, "until": 562.6386667083644}, {"on": false, "note": 59, "velocity": 0, "until": 562.6564445666978}, {"on": true, "note": 59, "velocity": 106, "until": 562.7417687333646}, {"on": false, "note": 59, "velocity": 0, "until": 562.758833566698}, {"on": true, "note": 59, "velocity": 106, "until": 562.8441577333647}, {"on": false, "note": 59, "velocity": 0, "until": 562.8612225666981}, {"on": true, "note": 59, "velocity": 106, "until": 562.9465467333648}, {"on": false, "note": 59, "velocity": 0, "until": 562.9636115666982}, {"on": true, "note": 59, "velocity": 106, "until": 563.0489357333649}, {"on": false, "note": 59, "velocity": 0, "until": 563.0660797916984}, {"on": true, "note": 60, "velocity": 106, "until": 563.1553652083652}, {"on": false, "note": 60, "velocity": 0, "until": 563.1732222916986}, {"on": true, "note": 60, "velocity": 106, "until": 563.2625077083653}, {"on": false, "note": 60, "velocity": 0, "until": 563.2803647916987}, {"on": true, "note": 60, "velocity": 106, "until": 563.3696502083654}, {"on": false, "note": 60, "velocity": 0, "until": 563.3875072916989}, {"on": true, "note": 60, "velocity": 106, "until": 563.4767927083656}, {"on": false, "note": 60, "velocity": 0, "until": 563.4945705666989}, {"on": true, "note": 60, "velocity": 106, "until": 563.5798947333657}, {"on": false, "note": 60, "velocity": 0, "until": 563.5969595666991}, {"on": true, "note": 60, "velocity": 106, "until": 563.6822837333658}, {"on": false, "note": 60, "velocity": 0, "until": 563.6993485666992}, {"on": true, "note": 60, "velocity": 106, "until": 563.7846727333659}, {"on": false, "note": 60, "velocity": 0, "until": 563.8017375666993}, {"on": true, "note": 60, "velocity": 106, "until": 563.8870617333661}, {"on": false, "note": 60, "velocity": 0, "until": 563.9042057916995}, {"on": true, "note": 61, "velocity": 106, "until": 563.9934912083663}, {"on": false, "note": 61, "velocity": 0, "until": 564.0113482916997}, {"on": true, "note": 61, "velocity": 106, "until": 564.1006337083664}, {"on": false, "note": 61, "velocity": 0, "until": 564.1184907916999}, {"on": true, "note": 61, "velocity": 106, "until": 564.2077762083666}, {"on": false, "note": 61, "velocity": 0, "until": 564.2256332917}, {"on": true, "note": 61, "velocity": 106, "until": 564.3149187083667}, {"on": false, "note": 61, "velocity": 0, "until": 564.3326965667001}, {"on": true, "note": 61, "velocity": 106, "until": 564.4180207333668}, {"on": false, "note": 61, "velocity": 0, "until": 564.4350855667002}, {"on": true, "note": 61, "velocity": 106, "until": 564.5204097333669}, {"on": false, "note": 61, "velocity": 0, "until": 564.5374745667003}, {"on": true, "note": 61, "velocity": 106, "until": 564.6227987333671}, {"on": false, "note": 61, "velocity": 0, "until": 564.6398635667005}, {"on": true, "note": 61, "velocity": 106, "until": 564.7251877333672}, {"on": false, "note": 61, "velocity": 0, "until": 564.7423317917006}, {"on": true, "note": 60, "velocity": 106, "until": 564.9566167917009}, {"on": false, "note": 60, "velocity": 0, "until": 565.5804577917012}, {"on": true, "note": 56, "velocity": 106, "until": 565.7947427917017}, {"on": false, "note": 56, "velocity": 0, "until": 566.4186096750352}, {"on": true, "note": 55, "velocity": 106, "until": 566.6360006750348}, {"on": false, "note": 55, "velocity": 0, "until": 567.2716211583677}, {"on": true, "note": 67, "velocity": 106, "until": 567.2716211583677}, {"on": true, "note": 55, "velocity": 106, "until": 567.5067170833682}, {"on": false, "note": 55, "velocity": 0, "until": 567.5067170833682}, {"on": false, "note": 67, "velocity": 0, "until": 570.3796307917024}, {"on": true, "note": 64, "velocity": 106, "until": 570.3796307917024}, {"on": true, "note": 60, "velocity": 106, "until": 570.4867732917024}, {"on": false, "note": 60, "velocity": 0, "until": 570.4867732917024}, {"on": false, "note": 64, "velocity": 0, "until": 570.5939157917024}, {"on": true, "note": 62, "velocity": 106, "until": 570.5939157917024}, {"on": true, "note": 65, "velocity": 106, "until": 570.7010582917025}, {"on": false, "note": 65, "velocity": 0, "until": 570.7010582917025}, {"on": false, "note": 62, "velocity": 0, "until": 570.8081215667024}, {"on": true, "note": 60, "velocity": 106, "until": 570.8081215667024}, {"on": true, "note": 64, "velocity": 106, "until": 570.9105105667026}, {"on": false, "note": 64, "velocity": 0, "until": 570.9105105667026}, {"on": false, "note": 60, "velocity": 0, "until": 571.0128995667027}, {"on": true, "note": 62, "velocity": 106, "until": 571.0128995667027}, {"on": true, "note": 65, "velocity": 106, "until": 571.1152885667028}, {"on": false, "note": 65, "velocity": 0, "until": 571.1152885667028}, {"on": false, "note": 62, "velocity": 0, "until": 571.217756791703}, {"on": true, "note": 60, "velocity": 106, "until": 571.217756791703}, {"on": true, "note": 64, "velocity": 106, "until": 571.646247566703}, {"on": false, "note": 64, "velocity": 0, "until": 571.646247566703}, {"on": false, "note": 60, "velocity": 0, "until": 573.732134791704}, {"on": true, "note": 64, "velocity": 106, "until": 573.732134791704}, {"on": true, "note": 60, "velocity": 106, "until": 573.839277291704}, {"on": false, "note": 60, "velocity": 0, "until": 573.839277291704}, {"on": false, "note": 64, "velocity": 0, "until": 573.946419791704}, {"on": true, "note": 65, "velocity": 106, "until": 573.946419791704}, {"on": true, "note": 62, "velocity": 106, "until": 574.053562291704}, {"on": false, "note": 62, "velocity": 0, "until": 574.053562291704}, {"on": false, "note": 65, "velocity": 0, "until": 574.160625566704}, {"on": true, "note": 60, "velocity": 106, "until": 574.160625566704}, {"on": true, "note": 64, "velocity": 106, "until": 574.2630145667041}, {"on": false, "note": 64, "velocity": 0, "until": 574.2630145667041}, {"on": false, "note": 60, "velocity": 0, "until": 574.3654035667042}, {"on": true, "note": 65, "velocity": 106, "until": 574.3654035667042}, {"on": true, "note": 62, "velocity": 106, "until": 574.4677925667044}, {"on": false, "note": 62, "velocity": 0, "until": 574.4677925667044}, {"on": false, "note": 65, "velocity": 0, "until": 574.5702607917045}, {"on": true, "note": 60, "velocity": 106, "until": 574.5702607917045}, {"on": true, "note": 64, "velocity": 106, "until": 574.9987515667045}, {"on": false, "note": 64, "velocity": 0, "until": 574.9987515667045}, {"on": false, "note": 60, "velocity": 0, "until": 578.7608907917098}, {"on": true, "note": 52, "velocity": 106, "until": 578.9430330417099}, {"on": false, "note": 52, "velocity": 0, "until": 578.97517579171}, {"on": true, "note": 50, "velocity": 106, "until": 579.15731804171}, {"on": false, "note": 50, "velocity": 0, "until": 579.18938156671}, {"on": true, "note": 52, "velocity": 106, "until": 579.3634428667102}, {"on": false, "note": 52, "velocity": 0, "until": 579.3941595667103}, {"on": true, "note": 50, "velocity": 106, "until": 579.5682208667105}, {"on": false, "note": 50, "velocity": 0, "until": 579.5990167917106}, {"on": true, "note": 52, "velocity": 106, "until": 579.7811590417107}, {"on": false, "note": 52, "velocity": 0, "until": 579.8133017917107}, {"on": true, "note": 50, "velocity": 106, "until": 579.9954440417108}, {"on": false, "note": 50, "velocity": 0, "until": 580.0275075667108}, {"on": true, "note": 52, "velocity": 106, "until": 580.201568866711}, {"on": false, "note": 52, "velocity": 0, "until": 580.2322855667111}, {"on": true, "note": 50, "velocity": 106, "until": 580.4063468667113}, {"on": false, "note": 50, "velocity": 0, "until": 580.4371427917114}, {"on": true, "note": 52, "velocity": 106, "until": 580.6192850417116}, {"on": false, "note": 52, "velocity": 0, "until": 580.6514277917117}, {"on": true, "note": 65, "velocity": 106, "until": 580.6514277917117}, {"on": true, "note": 55, "velocity": 106, "until": 580.758570291712}, {"on": false, "note": 55, "velocity": 0, "until": 580.758570291712}, {"on": false, "note": 65, "velocity": 0, "until": 580.8656335667122}, {"on": true, "note": 64, "velocity": 106, "until": 580.8656335667122}, {"on": true, "note": 55, "velocity": 106, "until": 580.9680225667123}, {"on": false, "note": 55, "velocity": 0, "until": 580.9680225667123}, {"on": false, "note": 64, "velocity": 0, "until": 581.0704115667123}, {"on": true, "note": 65, "velocity": 106, "until": 581.0704115667123}, {"on": true, "note": 55, "velocity": 106, "until": 581.1728005667125}, {"on": false, "note": 55, "velocity": 0, "until": 581.1728005667125}, {"on": false, "note": 65, "velocity": 0, "until": 581.2752687917125}, {"on": true, "note": 64, "velocity": 106, "until": 581.2752687917125}, {"on": true, "note": 55, "velocity": 106, "until": 581.3824112917127}, {"on": false, "note": 55, "velocity": 0, "until": 581.3824112917127}, {"on": false, "note": 64, "velocity": 0, "until": 581.489553791713}, {"on": true, "note": 65, "velocity": 106, "until": 581.489553791713}, {"on": true, "note": 55, "velocity": 106, "until": 581.5966962917132}, {"on": false, "note": 55, "velocity": 0, "until": 581.5966962917132}, {"on": false, "note": 65, "velocity": 0, "until": 581.7037595667134}, {"on": true, "note": 64, "velocity": 106, "until": 581.7037595667134}, {"on": true, "note": 55, "velocity": 106, "until": 581.8061485667135}, {"on": false, "note": 55, "velocity": 0, "until": 581.8061485667135}, {"on": false, "note": 64, "velocity": 0, "until": 581.9085375667136}, {"on": true, "note": 65, "velocity": 106, "until": 581.9085375667136}, {"on": true, "note": 55, "velocity": 106, "until": 582.0109265667137}, {"on": false, "note": 55, "velocity": 0, "until": 582.0109265667137}, {"on": false, "note": 65, "velocity": 0, "until": 582.1133332167137}, {"on": true, "note": 64, "velocity": 106, "until": 582.1133332167137}, {"on": true, "note": 55, "velocity": 106, "until": 582.2512638833805}, {"on": false, "note": 55, "velocity": 0, "until": 582.2512638833805}, {"on": false, "note": 64, "velocity": 0, "until": 583.0271804417139}, {"on": true, "note": 48, "velocity": 106, "until": 583.0271804417139}, {"on": true, "note": 64, "velocity": 106, "until": 583.0271804417139}, {"on": true, "note": 72, "velocity": 106, "until": 583.0271804417139}, {"on": true, "note": 55, "velocity": 106, "until": 583.240703441714}, {"on": false, "note": 55, "velocity": 0, "until": 583.240703441714}, {"on": false, "note": 48, "velocity": 0, "until": 583.240703441714}, {"on": false, "note": 64, "velocity": 0, "until": 583.240703441714}, {"on": false, "note": 72, "velocity": 0, "until": 583.9978027500475}, {"on": true, "note": 60, "velocity": 106, "until": 583.9978027500475}, {"on": true, "note": 48, "velocity": 106, "until": 584.5665227500476}, {"on": false, "note": 48, "velocity": 0, "until": 584.5665227500476}]}, {"id": 13, "states": [{"on": true, "note": 48, "velocity": 102, "until": 0}, {"on": false, "note": 0, "velocity": 0, "until": 4.829999999999983}, {"on": false, "note": 48, "velocity": 0, "until": 4.829999999999983}, {"on": true, "note": 48, "velocity": 117, "until": 4.929999999999982}, {"on": false, "note": 48, "velocity": 0, "until": 4.929999999999982}, {"on": true, "note": 50, "velocity": 117, "until": 5.029999999999981}, {"on": false, "note": 50, "velocity": 0, "until": 5.029999999999981}, {"on": true, "note": 52, "velocity": 117, "until": 5.1299999999999795}, {"on": false, "note": 52, "velocity": 0, "until": 5.1299999999999795}, {"on": true, "note": 53, "velocity": 117, "until": 5.229999999999978}, {"on": false, "note": 53, "velocity": 0, "until": 5.229999999999978}, {"on": true, "note": 55, "velocity": 117, "until": 5.329999999999977}, {"on": false, "note": 55, "velocity": 0, "until": 5.329999999999977}, {"on": true, "note": 57, "velocity": 117, "until": 5.431914874999977}, {"on": false, "note": 57, "velocity": 0, "until": 5.431914874999977}, {"on": true, "note": 58, "velocity": 72, "until": 6.070212374999978}, {"on": false, "note": 58, "velocity": 0, "until": 6.70850987499998}, {"on": true, "note": 57, "velocity": 72, "until": 7.3468073749999805}, {"on": false, "note": 57, "velocity": 0, "until": 9.69747499999999}, {"on": true, "note": 48, "velocity": 102, "until": 12.697474999999969}, {"on": false, "note": 48, "velocity": 0, "until": 12.697474999999969}, {"on": true, "note": 48, "velocity": 117, "until": 12.817474999999968}, {"on": false, "note": 48, "velocity": 0, "until": 12.817474999999968}, {"on": true, "note": 50, "velocity": 117, "until": 12.937474999999965}, {"on": false, "note": 50, "velocity": 0, "until": 12.937474999999965}, {"on": true, "note": 52, "velocity": 117, "until": 13.057474999999963}, {"on": false, "note": 52, "velocity": 0, "until": 13.057474999999963}, {"on": true, "note": 53, "velocity": 117, "until": 13.177474999999962}, {"on": false, "note": 53, "velocity": 0, "until": 13.177474999999962}, {"on": true, "note": 55, "velocity": 117, "until": 13.300808324999961}, {"on": false, "note": 55, "velocity": 0, "until": 13.300808324999961}, {"on": true, "note": 56, "velocity": 102, "until": 13.96747482499996}, {"on": false, "note": 56, "velocity": 0, "until": 14.634141324999957}, {"on": true, "note": 55, "velocity": 102, "until": 15.300807824999955}, {"on": false, "note": 55, "velocity": 0, "until": 27.749080000000056}, {"on": true, "note": 55, "velocity": 102, "until": 28.95168867500009}, {"on": false, "note": 55, "velocity": 0, "until": 28.95168867500009}, {"on": true, "note": 48, "velocity": 102, "until": 31.453427000000104}, {"on": false, "note": 48, "velocity": 0, "until": 31.453427000000104}, {"on": true, "note": 43, "velocity": 102, "until": 32.05342700000017}, {"on": false, "note": 43, "velocity": 0, "until": 32.65603567500017}, {"on": true, "note": 48, "velocity": 102, "until": 35.159688875000136}, {"on": false, "note": 48, "velocity": 0, "until": 35.159688875000136}, {"on": true, "note": 43, "velocity": 102, "until": 35.8055451750001}, {"on": false, "note": 43, "velocity": 0, "until": 36.590428700000096}, {"on": true, "note": 48, "velocity": 102, "until": 38.63567517500013}, {"on": false, "note": 48, "velocity": 0, "until": 44.25526067500016}, {"on": true, "note": 46, "velocity": 102, "until": 44.907434175000155}, {"on": false, "note": 46, "velocity": 0, "until": 45.556999000000154}, {"on": true, "note": 50, "velocity": 102, "until": 46.15699900000015}, {"on": false, "note": 50, "velocity": 0, "until": 46.75699900000013}, {"on": true, "note": 46, "velocity": 102, "until": 47.35699900000012}, {"on": false, "note": 46, "velocity": 0, "until": 47.95960767500011}, {"on": true, "note": 51, "velocity": 102, "until": 48.6117811750001}, {"on": false, "note": 51, "velocity": 0, "until": 49.261346000000096}, {"on": true, "note": 39, "velocity": 102, "until": 49.86134600000009}, {"on": false, "note": 39, "velocity": 0, "until": 50.46134600000009}, {"on": true, "note": 43, "velocity": 102, "until": 51.06134600000009}, {"on": false, "note": 43, "velocity": 0, "until": 51.663954675000085}, {"on": true, "note": 46, "velocity": 102, "until": 52.31612817500008}, {"on": false, "note": 46, "velocity": 0, "until": 52.96569300000008}, {"on": true, "note": 50, "velocity": 102, "until": 53.565693000000074}, {"on": false, "note": 50, "velocity": 0, "until": 54.165693000000054}, {"on": true, "note": 46, "velocity": 102, "until": 54.76569300000005}, {"on": false, "note": 46, "velocity": 0, "until": 55.36830167500003}, {"on": true, "note": 51, "velocity": 102, "until": 56.02047517500002}, {"on": false, "note": 51, "velocity": 0, "until": 56.67004000000002}, {"on": true, "note": 39, "velocity": 102, "until": 57.270040000000016}, {"on": false, "note": 39, "velocity": 0, "until": 57.87004}, {"on": true, "note": 43, "velocity": 102, "until": 58.470040000000004}, {"on": false, "note": 43, "velocity": 0, "until": 59.15032123333331}, {"on": true, "note": 55, "velocity": 102, "until": 59.832139233333216}, {"on": false, "note": 55, "velocity": 0, "until": 62.9790732333332}, {"on": true, "note": 55, "velocity": 102, "until": 63.66089123333311}, {"on": false, "note": 55, "velocity": 0, "until": 66.80634300833316}, {"on": true, "note": 44, "velocity": 102, "until": 70.63904285000007}, {"on": false, "note": 44, "velocity": 0, "until": 70.63904285000007}, {"on": true, "note": 49, "velocity": 102, "until": 73.18166550000007}, {"on": false, "note": 49, "velocity": 0, "until": 73.21499882500008}, {"on": true, "note": 49, "velocity": 102, "until": 74.49277628333343}, {"on": false, "note": 49, "velocity": 0, "until": 74.54988220000007}, {"on": true, "note": 51, "velocity": 102, "until": 78.55392420000014}, {"on": false, "note": 51, "velocity": 0, "until": 78.55392420000014}, {"on": true, "note": 44, "velocity": 102, "until": 79.89113270000013}, {"on": false, "note": 44, "velocity": 0, "until": 79.94699717500015}, {"on": true, "note": 56, "velocity": 102, "until": 81.19699638333375}, {"on": false, "note": 56, "velocity": 0, "until": 81.25134417500044}, {"on": true, "note": 56, "velocity": 102, "until": 82.50134338333405}, {"on": false, "note": 56, "velocity": 0, "until": 82.55569117500075}, {"on": true, "note": 55, "velocity": 102, "until": 85.00742950000125}, {"on": false, "note": 55, "velocity": 0, "until": 85.05742950000126}, {"on": true, "note": 55, "velocity": 102, "until": 86.27981031666793}, {"on": false, "note": 55, "velocity": 0, "until": 86.33622850833461}, {"on": true, "note": 48, "velocity": 102, "until": 87.63796683333481}, {"on": false, "note": 48, "velocity": 0, "until": 93.87565817500167}, {"on": true, "note": 41, "velocity": 102, "until": 94.85391842500168}, {"on": false, "note": 41, "velocity": 0, "until": 94.85391842500168}, {"on": true, "note": 43, "velocity": 102, "until": 95.1773965000017}, {"on": false, "note": 43, "velocity": 0, "until": 95.1773965000017}, {"on": true, "note": 44, "velocity": 102, "until": 95.33739650000173}, {"on": false, "note": 44, "velocity": 0, "until": 95.57739650000178}, {"on": true, "note": 44, "velocity": 102, "until": 95.73739650000181}, {"on": false, "note": 44, "velocity": 0, "until": 95.97739650000187}, {"on": true, "note": 44, "velocity": 102, "until": 96.1373965000019}, {"on": false, "note": 44, "velocity": 0, "until": 96.37739650000196}, {"on": true, "note": 44, "velocity": 102, "until": 96.59739650000199}, {"on": false, "note": 44, "velocity": 0, "until": 96.77739650000204}, {"on": true, "note": 44, "velocity": 102, "until": 96.99739650000204}, {"on": false, "note": 44, "velocity": 0, "until": 97.17739650000208}, {"on": true, "note": 44, "velocity": 102, "until": 97.39739650000207}, {"on": false, "note": 44, "velocity": 0, "until": 97.65059330000213}, {"on": true, "note": 43, "velocity": 87, "until": 100.15424650000242}, {"on": false, "note": 43, "velocity": 0, "until": 100.15424650000242}, {"on": true, "note": 43, "velocity": 63, "until": 101.50508640000241}, {"on": false, "note": 43, "velocity": 0, "until": 101.50508640000241}, {"on": true, "note": 48, "velocity": 53, "until": 102.86112076666906}, {"on": false, "note": 48, "velocity": 0, "until": 113.76088619166902}, {"on": true, "note": 43, "velocity": 72, "until": 118.46554158333564}, {"on": false, "note": 43, "velocity": 0, "until": 127.5964040083355}, {"on": true, "note": 60, "velocity": 92, "until": 128.0372186083355}, {"on": false, "note": 60, "velocity": 0, "until": 128.08584480833554}, {"on": true, "note": 60, "velocity": 92, "until": 128.50122900833557}, {"on": false, "note": 60, "velocity": 0, "until": 128.54773600833556}, {"on": true, "note": 60, "velocity": 92, "until": 129.03717680833557}, {"on": false, "note": 60, "velocity": 0, "until": 129.49894558333557}, {"on": true, "note": 55, "velocity": 102, "until": 129.71494558333558}, {"on": false, "note": 55, "velocity": 0, "until": 129.73894558333558}, {"on": true, "note": 55, "velocity": 102, "until": 129.9549455833356}, {"on": false, "note": 55, "velocity": 0, "until": 129.9789455833356}, {"on": true, "note": 55, "velocity": 102, "until": 130.1949455833356}, {"on": false, "note": 55, "velocity": 0, "until": 130.2189455833356}, {"on": true, "note": 55, "velocity": 102, "until": 130.4349455833356}, {"on": false, "note": 55, "velocity": 0, "until": 130.4589455833356}, {"on": true, "note": 55, "velocity": 102, "until": 130.9387148083356}, {"on": false, "note": 55, "velocity": 0, "until": 130.9387148083356}, {"on": true, "note": 55, "velocity": 102, "until": 131.02525318333556}, {"on": false, "note": 55, "velocity": 0, "until": 131.05409930833554}, {"on": true, "note": 53, "velocity": 102, "until": 131.1406376833355}, {"on": false, "note": 53, "velocity": 0, "until": 131.16948380833549}, {"on": true, "note": 52, "velocity": 102, "until": 131.25602218333543}, {"on": false, "note": 52, "velocity": 0, "until": 131.2848683083354}, {"on": true, "note": 50, "velocity": 102, "until": 131.37140668333535}, {"on": false, "note": 50, "velocity": 0, "until": 131.40060600833536}, {"on": true, "note": 48, "velocity": 92, "until": 131.89004680833537}, {"on": false, "note": 48, "velocity": 0, "until": 131.89004680833537}, {"on": true, "note": 60, "velocity": 92, "until": 132.35193800833537}, {"on": false, "note": 60, "velocity": 0, "until": 132.35193800833537}, {"on": true, "note": 60, "velocity": 92, "until": 132.84137880833538}, {"on": false, "note": 60, "velocity": 0, "until": 133.30305308333539}, {"on": true, "note": 52, "velocity": 102, "until": 133.42116308333541}, {"on": false, "note": 52, "velocity": 0, "until": 133.53927308333544}, {"on": true, "note": 52, "velocity": 102, "until": 133.65738308333547}, {"on": false, "note": 52, "velocity": 0, "until": 133.7754930833355}, {"on": true, "note": 52, "velocity": 102, "until": 133.89360308333553}, {"on": false, "note": 52, "velocity": 0, "until": 134.01171308333556}, {"on": true, "note": 52, "velocity": 102, "until": 134.1298230833356}, {"on": false, "note": 52, "velocity": 0, "until": 134.24793308333562}, {"on": true, "note": 52, "velocity": 102, "until": 134.720236808336}, {"on": false, "note": 52, "velocity": 0, "until": 139.03446400833639}, {"on": true, "note": 55, "velocity": 102, "until": 139.15691250833638}, {"on": false, "note": 55, "velocity": 0, "until": 139.2793610083364}, {"on": true, "note": 55, "velocity": 102, "until": 139.7546738083365}, {"on": false, "note": 55, "velocity": 0, "until": 139.7546738083365}, {"on": true, "note": 60, "velocity": 102, "until": 139.96621205833648}, {"on": false, "note": 60, "velocity": 0, "until": 139.98579600833648}, {"on": true, "note": 55, "velocity": 102, "until": 140.10824450833647}, {"on": false, "note": 55, "velocity": 0, "until": 140.2306930083365}, {"on": true, "note": 55, "velocity": 102, "until": 140.70600580833658}, {"on": false, "note": 55, "velocity": 0, "until": 140.70600580833658}, {"on": true, "note": 60, "velocity": 102, "until": 140.91754405833657}, {"on": false, "note": 60, "velocity": 0, "until": 140.93712800833657}, {"on": true, "note": 55, "velocity": 102, "until": 141.05957650833656}, {"on": false, "note": 55, "velocity": 0, "until": 141.18202500833658}, {"on": true, "note": 55, "velocity": 102, "until": 141.65733780833668}, {"on": false, "note": 55, "velocity": 0, "until": 141.65733780833668}, {"on": true, "note": 60, "velocity": 102, "until": 141.86887605833667}, {"on": false, "note": 60, "velocity": 0, "until": 141.88846000833666}, {"on": true, "note": 55, "velocity": 102, "until": 142.1333570083367}, {"on": false, "note": 55, "velocity": 0, "until": 146.47448980833673}, {"on": true, "note": 48, "velocity": 102, "until": 146.58987430833673}, {"on": false, "note": 48, "velocity": 0, "until": 146.70548958333677}, {"on": true, "note": 53, "velocity": 102, "until": 146.8254895833368}, {"on": false, "note": 53, "velocity": 0, "until": 146.94548958333684}, {"on": true, "note": 48, "velocity": 102, "until": 147.06548958333687}, {"on": false, "note": 48, "velocity": 0, "until": 147.1854895833369}, {"on": true, "note": 53, "velocity": 102, "until": 147.30548958333694}, {"on": false, "note": 53, "velocity": 0, "until": 147.42548958333697}, {"on": true, "note": 48, "velocity": 102, "until": 147.545489583337}, {"on": false, "note": 48, "velocity": 0, "until": 147.66548958333703}, {"on": true, "note": 53, "velocity": 102, "until": 148.14525880833733}, {"on": false, "note": 53, "velocity": 0, "until": 150.2604898083375}, {"on": true, "note": 55, "velocity": 102, "until": 150.3758743083375}, {"on": false, "note": 55, "velocity": 0, "until": 150.4913950833375}, {"on": true, "note": 60, "velocity": 102, "until": 150.60950508333752}, {"on": false, "note": 60, "velocity": 0, "until": 150.72761508333755}, {"on": true, "note": 55, "velocity": 102, "until": 150.84572508333758}, {"on": false, "note": 55, "velocity": 0, "until": 150.9638350833376}, {"on": true, "note": 60, "velocity": 102, "until": 151.08194508333764}, {"on": false, "note": 60, "velocity": 0, "until": 151.20005508333767}, {"on": true, "note": 55, "velocity": 102, "until": 151.3181650833377}, {"on": false, "note": 55, "velocity": 0, "until": 151.43627508333773}, {"on": true, "note": 60, "velocity": 102, "until": 151.67249508333776}, {"on": false, "note": 60, "velocity": 0, "until": 151.9085788083378}, {"on": true, "note": 55, "velocity": 102, "until": 152.3508860583378}, {"on": false, "note": 55, "velocity": 0, "until": 152.3704700083378}, {"on": true, "note": 52, "velocity": 102, "until": 152.8398559250045}, {"on": false, "note": 52, "velocity": 0, "until": 152.85991080833787}, {"on": true, "note": 54, "velocity": 102, "until": 153.30221805833787}, {"on": false, "note": 54, "velocity": 0, "until": 153.32180200833787}, {"on": true, "note": 55, "velocity": 102, "until": 153.79118792500458}, {"on": false, "note": 55, "velocity": 0, "until": 153.81124280833794}, {"on": true, "note": 43, "velocity": 102, "until": 154.25355005833794}, {"on": false, "note": 43, "velocity": 0, "until": 154.27313400833793}, {"on": true, "note": 48, "velocity": 102, "until": 154.37517442500462}, {"on": false, "note": 48, "velocity": 0, "until": 154.39558250833795}, {"on": true, "note": 48, "velocity": 102, "until": 154.49762292500463}, {"on": false, "note": 48, "velocity": 0, "until": 154.51803100833797}, {"on": true, "note": 48, "velocity": 102, "until": 154.62007142500465}, {"on": false, "note": 48, "velocity": 0, "until": 154.640479508338}, {"on": true, "note": 48, "velocity": 102, "until": 154.74251992500467}, {"on": false, "note": 48, "velocity": 0, "until": 154.76257480833803}, {"on": true, "note": 48, "velocity": 102, "until": 154.85872855833802}, {"on": false, "note": 48, "velocity": 0, "until": 154.877959308338}, {"on": true, "note": 48, "velocity": 102, "until": 154.974113058338}, {"on": false, "note": 48, "velocity": 0, "until": 154.993343808338}, {"on": true, "note": 51, "velocity": 102, "until": 155.089497558338}, {"on": false, "note": 51, "velocity": 0, "until": 155.108728308338}, {"on": true, "note": 51, "velocity": 102, "until": 155.20488205833797}, {"on": false, "note": 51, "velocity": 0, "until": 155.22446600833797}, {"on": true, "note": 48, "velocity": 102, "until": 155.32650642500465}, {"on": false, "note": 48, "velocity": 0, "until": 155.346914508338}, {"on": true, "note": 48, "velocity": 102, "until": 155.44895492500467}, {"on": false, "note": 48, "velocity": 0, "until": 155.469363008338}, {"on": true, "note": 48, "velocity": 102, "until": 155.5714034250047}, {"on": false, "note": 48, "velocity": 0, "until": 155.59181150833803}, {"on": true, "note": 48, "velocity": 102, "until": 155.6938519250047}, {"on": false, "note": 48, "velocity": 0, "until": 155.71390680833807}, {"on": true, "note": 48, "velocity": 102, "until": 155.8100605583381}, {"on": false, "note": 48, "velocity": 0, "until": 155.82929130833813}, {"on": true, "note": 48, "velocity": 102, "until": 155.92544505833817}, {"on": false, "note": 48, "velocity": 0, "until": 155.9446758083382}, {"on": true, "note": 51, "velocity": 102, "until": 156.04082955833817}, {"on": false, "note": 51, "velocity": 0, "until": 156.06006030833817}, {"on": true, "note": 51, "velocity": 102, "until": 156.15621405833815}, {"on": false, "note": 51, "velocity": 0, "until": 156.17579800833815}, {"on": true, "note": 48, "velocity": 102, "until": 156.27783842500483}, {"on": false, "note": 48, "velocity": 0, "until": 156.29824650833817}, {"on": true, "note": 48, "velocity": 102, "until": 156.40028692500485}, {"on": false, "note": 48, "velocity": 0, "until": 156.42069500833819}, {"on": true, "note": 51, "velocity": 102, "until": 156.52273542500487}, {"on": false, "note": 51, "velocity": 0, "until": 156.5431435083382}, {"on": true, "note": 51, "velocity": 102, "until": 156.6451839250049}, {"on": false, "note": 51, "velocity": 0, "until": 156.66523880833824}, {"on": true, "note": 48, "velocity": 102, "until": 156.76139255833826}, {"on": false, "note": 48, "velocity": 0, "until": 156.78062330833828}, {"on": true, "note": 48, "velocity": 102, "until": 156.87677705833826}, {"on": false, "note": 48, "velocity": 0, "until": 156.89600780833828}, {"on": true, "note": 51, "velocity": 102, "until": 156.99216155833827}, {"on": false, "note": 51, "velocity": 0, "until": 157.01139230833826}, {"on": true, "note": 51, "velocity": 102, "until": 157.10754605833827}, {"on": false, "note": 51, "velocity": 0, "until": 157.12713000833827}, {"on": true, "note": 48, "velocity": 102, "until": 157.22917042500495}, {"on": false, "note": 48, "velocity": 0, "until": 157.2495785083383}, {"on": true, "note": 48, "velocity": 102, "until": 157.35161892500497}, {"on": false, "note": 48, "velocity": 0, "until": 157.3720270083383}, {"on": true, "note": 51, "velocity": 102, "until": 157.474067425005}, {"on": false, "note": 51, "velocity": 0, "until": 157.49447550833833}, {"on": true, "note": 51, "velocity": 102, "until": 157.596515925005}, {"on": false, "note": 51, "velocity": 0, "until": 157.61657080833837}, {"on": true, "note": 48, "velocity": 102, "until": 157.71272455833838}, {"on": false, "note": 48, "velocity": 0, "until": 157.7319553083384}, {"on": true, "note": 48, "velocity": 102, "until": 157.82810905833838}, {"on": false, "note": 48, "velocity": 0, "until": 157.8473398083384}, {"on": true, "note": 51, "velocity": 102, "until": 157.9434935583384}, {"on": false, "note": 51, "velocity": 0, "until": 157.96272430833838}, {"on": true, "note": 51, "velocity": 102, "until": 158.0588780583384}, {"on": false, "note": 51, "velocity": 0, "until": 158.0784620083384}, {"on": true, "note": 51, "velocity": 102, "until": 158.18050242500507}, {"on": false, "note": 51, "velocity": 0, "until": 158.2009105083384}, {"on": true, "note": 51, "velocity": 102, "until": 158.3029509250051}, {"on": false, "note": 51, "velocity": 0, "until": 158.32335900833843}, {"on": true, "note": 51, "velocity": 102, "until": 158.4253994250051}, {"on": false, "note": 51, "velocity": 0, "until": 158.44580750833845}, {"on": true, "note": 51, "velocity": 102, "until": 158.54784792500513}, {"on": false, "note": 51, "velocity": 0, "until": 158.5679028083385}, {"on": true, "note": 51, "velocity": 102, "until": 158.66405655833853}, {"on": false, "note": 51, "velocity": 0, "until": 158.68328730833855}, {"on": true, "note": 51, "velocity": 102, "until": 158.7794410583386}, {"on": false, "note": 51, "velocity": 0, "until": 158.7986718083386}, {"on": true, "note": 50, "velocity": 102, "until": 158.8948255583386}, {"on": false, "note": 50, "velocity": 0, "until": 158.9140563083386}, {"on": true, "note": 50, "velocity": 102, "until": 159.01021005833857}, {"on": false, "note": 50, "velocity": 0, "until": 159.02979400833857}, {"on": true, "note": 51, "velocity": 102, "until": 159.13183442500525}, {"on": false, "note": 51, "velocity": 0, "until": 159.1522425083386}, {"on": true, "note": 51, "velocity": 102, "until": 159.25428292500527}, {"on": false, "note": 51, "velocity": 0, "until": 159.2746910083386}, {"on": true, "note": 51, "velocity": 102, "until": 159.3767314250053}, {"on": false, "note": 51, "velocity": 0, "until": 159.39713950833863}, {"on": true, "note": 51, "velocity": 102, "until": 159.4991799250053}, {"on": false, "note": 51, "velocity": 0, "until": 159.51923480833867}, {"on": true, "note": 51, "velocity": 102, "until": 159.6153885583387}, {"on": false, "note": 51, "velocity": 0, "until": 159.63461930833873}, {"on": true, "note": 51, "velocity": 102, "until": 159.73077305833877}, {"on": false, "note": 51, "velocity": 0, "until": 159.7500038083388}, {"on": true, "note": 50, "velocity": 102, "until": 159.84615755833877}, {"on": false, "note": 50, "velocity": 0, "until": 159.86538830833877}, {"on": true, "note": 50, "velocity": 102, "until": 159.96154205833875}, {"on": false, "note": 50, "velocity": 0, "until": 159.98112600833875}, {"on": true, "note": 51, "velocity": 102, "until": 160.22602300833879}, {"on": false, "note": 51, "velocity": 0, "until": 160.47056680833882}, {"on": true, "note": 51, "velocity": 102, "until": 160.70133580833888}, {"on": false, "note": 51, "velocity": 0, "until": 160.93245800833893}, {"on": true, "note": 51, "velocity": 102, "until": 161.17735500833896}, {"on": false, "note": 51, "velocity": 0, "until": 161.421898808339}, {"on": true, "note": 51, "velocity": 102, "until": 161.518052558339}, {"on": false, "note": 51, "velocity": 0, "until": 161.53728330833903}, {"on": true, "note": 51, "velocity": 102, "until": 161.633437058339}, {"on": false, "note": 51, "velocity": 0, "until": 161.65266780833903}, {"on": true, "note": 51, "velocity": 102, "until": 161.74882155833902}, {"on": false, "note": 51, "velocity": 0, "until": 161.76805230833904}, {"on": true, "note": 51, "velocity": 102, "until": 161.86420605833902}, {"on": false, "note": 51, "velocity": 0, "until": 161.88379000833902}, {"on": true, "note": 50, "velocity": 102, "until": 162.12868700833906}, {"on": false, "note": 50, "velocity": 0, "until": 165.7896777333389}, {"on": true, "note": 55, "velocity": 102, "until": 165.85243923333888}, {"on": false, "note": 55, "velocity": 0, "until": 165.91520073333888}, {"on": true, "note": 55, "velocity": 102, "until": 165.97796223333887}, {"on": false, "note": 55, "velocity": 0, "until": 166.04072373333884}, {"on": true, "note": 55, "velocity": 102, "until": 166.10348523333883}, {"on": false, "note": 55, "velocity": 0, "until": 166.1662467333388}, {"on": true, "note": 55, "velocity": 102, "until": 166.2290082333388}, {"on": false, "note": 55, "velocity": 0, "until": 166.29154195833883}, {"on": true, "note": 55, "velocity": 102, "until": 166.5133157083388}, {"on": false, "note": 55, "velocity": 0, "until": 166.5334769583388}, {"on": true, "note": 55, "velocity": 102, "until": 166.7552507083388}, {"on": false, "note": 55, "velocity": 0, "until": 166.77563973333878}, {"on": true, "note": 55, "velocity": 102, "until": 166.83840123333877}, {"on": false, "note": 55, "velocity": 0, "until": 166.90116273333877}, {"on": true, "note": 55, "velocity": 102, "until": 166.96392423333876}, {"on": false, "note": 55, "velocity": 0, "until": 167.02668573333872}, {"on": true, "note": 55, "velocity": 102, "until": 167.08944723333872}, {"on": false, "note": 55, "velocity": 0, "until": 167.15220873333868}, {"on": true, "note": 55, "velocity": 102, "until": 167.21497023333868}, {"on": false, "note": 55, "velocity": 0, "until": 167.2775039583387}, {"on": true, "note": 55, "velocity": 102, "until": 167.4992777083387}, {"on": false, "note": 55, "velocity": 0, "until": 167.5194389583387}, {"on": true, "note": 55, "velocity": 102, "until": 167.74121270833868}, {"on": false, "note": 55, "velocity": 0, "until": 167.76160173333867}, {"on": true, "note": 55, "velocity": 102, "until": 167.82436323333866}, {"on": false, "note": 55, "velocity": 0, "until": 167.88712473333865}, {"on": true, "note": 55, "velocity": 102, "until": 167.94988623333865}, {"on": false, "note": 55, "velocity": 0, "until": 168.0126477333386}, {"on": true, "note": 55, "velocity": 102, "until": 168.0754092333386}, {"on": false, "note": 55, "velocity": 0, "until": 168.13817073333857}, {"on": true, "note": 55, "velocity": 102, "until": 168.20093223333856}, {"on": false, "note": 55, "velocity": 0, "until": 168.2634659583386}, {"on": true, "note": 55, "velocity": 102, "until": 168.48523970833858}, {"on": false, "note": 55, "velocity": 0, "until": 168.50540095833858}, {"on": true, "note": 55, "velocity": 102, "until": 168.72717470833857}, {"on": false, "note": 55, "velocity": 0, "until": 168.74756373333855}, {"on": true, "note": 55, "velocity": 102, "until": 168.81032523333855}, {"on": false, "note": 55, "velocity": 0, "until": 168.87308673333854}, {"on": true, "note": 55, "velocity": 102, "until": 168.93584823333853}, {"on": false, "note": 55, "velocity": 0, "until": 168.9986097333385}, {"on": true, "note": 55, "velocity": 102, "until": 169.0613712333385}, {"on": false, "note": 55, "velocity": 0, "until": 169.12413273333846}, {"on": true, "note": 55, "velocity": 102, "until": 169.18689423333845}, {"on": false, "note": 55, "velocity": 0, "until": 169.2494279583385}, {"on": true, "note": 55, "velocity": 102, "until": 169.47120170833847}, {"on": false, "note": 55, "velocity": 0, "until": 169.49136295833847}, {"on": true, "note": 55, "velocity": 102, "until": 169.64660458333844}, {"on": false, "note": 55, "velocity": 0, "until": 169.7335257333384}, {"on": true, "note": 54, "velocity": 102, "until": 169.79628723333832}, {"on": false, "note": 54, "velocity": 0, "until": 169.85904873333823}, {"on": true, "note": 54, "velocity": 102, "until": 169.92181023333816}, {"on": false, "note": 54, "velocity": 0, "until": 169.98457173333813}, {"on": true, "note": 54, "velocity": 102, "until": 170.0473332333381}, {"on": false, "note": 54, "velocity": 0, "until": 170.11009473333806}, {"on": true, "note": 54, "velocity": 102, "until": 170.17285623333797}, {"on": false, "note": 54, "velocity": 0, "until": 170.23538995833798}, {"on": true, "note": 54, "velocity": 102, "until": 170.457163708338}, {"on": false, "note": 54, "velocity": 0, "until": 170.47732495833802}, {"on": true, "note": 50, "velocity": 102, "until": 170.69909870833803}, {"on": false, "note": 50, "velocity": 0, "until": 170.71948773333798}, {"on": true, "note": 55, "velocity": 102, "until": 170.84501073333794}, {"on": false, "note": 55, "velocity": 0, "until": 170.9705337333379}, {"on": true, "note": 50, "velocity": 87, "until": 171.09605673333786}, {"on": false, "note": 50, "velocity": 0, "until": 171.2213519583379}, {"on": true, "note": 55, "velocity": 87, "until": 171.34231945833787}, {"on": false, "note": 55, "velocity": 0, "until": 171.4632869583379}, {"on": true, "note": 55, "velocity": 87, "until": 171.58425445833788}, {"on": false, "note": 55, "velocity": 0, "until": 171.70544973333784}, {"on": true, "note": 54, "velocity": 102, "until": 171.76821123333784}, {"on": false, "note": 54, "velocity": 0, "until": 171.83097273333775}, {"on": true, "note": 54, "velocity": 102, "until": 171.89373423333768}, {"on": false, "note": 54, "velocity": 0, "until": 171.95649573333768}, {"on": true, "note": 54, "velocity": 102, "until": 172.01925723333767}, {"on": false, "note": 54, "velocity": 0, "until": 172.0820187333376}, {"on": true, "note": 54, "velocity": 102, "until": 172.14478023333757}, {"on": false, "note": 54, "velocity": 0, "until": 172.2073139583376}, {"on": true, "note": 54, "velocity": 102, "until": 172.42908770833762}, {"on": false, "note": 54, "velocity": 0, "until": 172.44924895833765}, {"on": true, "note": 50, "velocity": 102, "until": 172.67102270833766}, {"on": false, "note": 50, "velocity": 0, "until": 172.69141173333762}, {"on": true, "note": 55, "velocity": 102, "until": 172.81693473333758}, {"on": false, "note": 55, "velocity": 0, "until": 172.94245773333753}, {"on": true, "note": 50, "velocity": 87, "until": 173.0679807333375}, {"on": false, "note": 50, "velocity": 0, "until": 173.19327595833752}, {"on": true, "note": 43, "velocity": 87, "until": 173.4362380333375}, {"on": false, "note": 43, "velocity": 0, "until": 173.71859083333754}, {"on": true, "note": 55, "velocity": 102, "until": 173.78269333333756}, {"on": false, "note": 55, "velocity": 0, "until": 173.84679583333758}, {"on": true, "note": 55, "velocity": 102, "until": 173.9108983333376}, {"on": false, "note": 55, "velocity": 0, "until": 173.97500083333762}, {"on": true, "note": 55, "velocity": 102, "until": 174.03910333333764}, {"on": false, "note": 55, "velocity": 0, "until": 174.10320583333765}, {"on": true, "note": 55, "velocity": 102, "until": 174.16730833333767}, {"on": false, "note": 55, "velocity": 0, "until": 174.23112300833768}, {"on": true, "note": 55, "velocity": 102, "until": 174.45561192500438}, {"on": false, "note": 55, "velocity": 0, "until": 174.4760200083377}, {"on": true, "note": 55, "velocity": 102, "until": 174.7005089250044}, {"on": false, "note": 55, "velocity": 0, "until": 174.72120483333777}, {"on": true, "note": 55, "velocity": 102, "until": 174.7853073333378}, {"on": false, "note": 55, "velocity": 0, "until": 174.84940983333786}, {"on": true, "note": 55, "velocity": 102, "until": 174.9135123333379}, {"on": false, "note": 55, "velocity": 0, "until": 174.97761483333795}, {"on": true, "note": 55, "velocity": 102, "until": 175.041717333338}, {"on": false, "note": 55, "velocity": 0, "until": 175.10581983333805}, {"on": true, "note": 55, "velocity": 102, "until": 175.1699223333381}, {"on": false, "note": 55, "velocity": 0, "until": 175.23373700833812}, {"on": true, "note": 55, "velocity": 102, "until": 175.45822592500483}, {"on": false, "note": 55, "velocity": 0, "until": 175.47863400833816}, {"on": true, "note": 55, "velocity": 102, "until": 175.70312292500486}, {"on": false, "note": 55, "velocity": 0, "until": 175.7238188333382}, {"on": true, "note": 51, "velocity": 102, "until": 175.78792133333826}, {"on": false, "note": 51, "velocity": 0, "until": 175.8520238333383}, {"on": true, "note": 51, "velocity": 102, "until": 175.91612633333835}, {"on": false, "note": 51, "velocity": 0, "until": 175.9802288333384}, {"on": true, "note": 51, "velocity": 102, "until": 176.04433133333845}, {"on": false, "note": 51, "velocity": 0, "until": 176.1084338333385}, {"on": true, "note": 51, "velocity": 102, "until": 176.17253633333854}, {"on": false, "note": 51, "velocity": 0, "until": 176.23635100833857}, {"on": true, "note": 51, "velocity": 102, "until": 176.46083992500527}, {"on": false, "note": 51, "velocity": 0, "until": 176.4812480083386}, {"on": true, "note": 51, "velocity": 102, "until": 176.7057369250053}, {"on": false, "note": 51, "velocity": 0, "until": 176.72643283333866}, {"on": true, "note": 51, "velocity": 102, "until": 176.79053533333868}, {"on": false, "note": 51, "velocity": 0, "until": 176.8546378333387}, {"on": true, "note": 51, "velocity": 102, "until": 176.91874033333872}, {"on": false, "note": 51, "velocity": 0, "until": 176.98284283333874}, {"on": true, "note": 51, "velocity": 102, "until": 177.04694533333875}, {"on": false, "note": 51, "velocity": 0, "until": 177.11104783333877}, {"on": true, "note": 51, "velocity": 102, "until": 177.1751503333388}, {"on": false, "note": 51, "velocity": 0, "until": 177.2389650083388}, {"on": true, "note": 52, "velocity": 102, "until": 177.4634539250055}, {"on": false, "note": 52, "velocity": 0, "until": 177.48386200833883}, {"on": true, "note": 52, "velocity": 102, "until": 177.70835092500553}, {"on": false, "note": 52, "velocity": 0, "until": 177.72904683333888}, {"on": true, "note": 53, "velocity": 102, "until": 177.793149333339}, {"on": false, "note": 53, "velocity": 0, "until": 177.8572518333391}, {"on": true, "note": 53, "velocity": 102, "until": 177.9213543333392}, {"on": false, "note": 53, "velocity": 0, "until": 177.9854568333393}, {"on": true, "note": 53, "velocity": 102, "until": 178.04955933333932}, {"on": false, "note": 53, "velocity": 0, "until": 178.11366183333934}, {"on": true, "note": 53, "velocity": 102, "until": 178.17776433333938}, {"on": false, "note": 53, "velocity": 0, "until": 178.24157900833941}, {"on": true, "note": 53, "velocity": 102, "until": 178.4660679250061}, {"on": false, "note": 53, "velocity": 0, "until": 178.48647600833942}, {"on": true, "note": 53, "velocity": 102, "until": 178.71096492500607}, {"on": false, "note": 53, "velocity": 0, "until": 178.73166083333942}, {"on": true, "note": 58, "velocity": 102, "until": 178.85986583333946}, {"on": false, "note": 58, "velocity": 0, "until": 178.9880708333395}, {"on": true, "note": 53, "velocity": 87, "until": 179.11627583333953}, {"on": false, "note": 53, "velocity": 0, "until": 179.24419300833955}, {"on": true, "note": 58, "velocity": 87, "until": 179.36664150833957}, {"on": false, "note": 58, "velocity": 0, "until": 179.48909000833956}, {"on": true, "note": 58, "velocity": 87, "until": 179.61153850833958}, {"on": false, "note": 58, "velocity": 0, "until": 179.73427483333958}, {"on": true, "note": 53, "velocity": 102, "until": 179.7983773333397}, {"on": false, "note": 53, "velocity": 0, "until": 179.8624798333398}, {"on": true, "note": 53, "velocity": 102, "until": 179.9265823333399}, {"on": false, "note": 53, "velocity": 0, "until": 179.99068483334}, {"on": true, "note": 53, "velocity": 102, "until": 180.05478733334002}, {"on": false, "note": 53, "velocity": 0, "until": 180.11888983334006}, {"on": true, "note": 53, "velocity": 102, "until": 180.1829923333401}, {"on": false, "note": 53, "velocity": 0, "until": 180.2468070083401}, {"on": true, "note": 53, "velocity": 102, "until": 180.47129592500679}, {"on": false, "note": 53, "velocity": 0, "until": 180.49170400834012}, {"on": true, "note": 53, "velocity": 102, "until": 180.71619292500677}, {"on": false, "note": 53, "velocity": 0, "until": 180.73688883334012}, {"on": true, "note": 58, "velocity": 102, "until": 180.86509383334015}, {"on": false, "note": 58, "velocity": 0, "until": 180.9932988333402}, {"on": true, "note": 53, "velocity": 87, "until": 181.12150383334023}, {"on": false, "note": 53, "velocity": 0, "until": 181.24942100834025}, {"on": true, "note": 46, "velocity": 87, "until": 181.49501375834026}, {"on": false, "note": 46, "velocity": 0, "until": 181.76719873334022}, {"on": true, "note": 50, "velocity": 102, "until": 182.1437677333402}, {"on": false, "note": 50, "velocity": 0, "until": 182.1437677333402}, {"on": true, "note": 51, "velocity": 102, "until": 182.26906295834024}, {"on": false, "note": 51, "velocity": 0, "until": 182.26906295834024}, {"on": true, "note": 50, "velocity": 102, "until": 182.49083670834025}, {"on": false, "note": 50, "velocity": 0, "until": 182.51099795834025}, {"on": true, "note": 48, "velocity": 102, "until": 182.63196545834026}, {"on": false, "note": 48, "velocity": 0, "until": 182.75316073334025}, {"on": true, "note": 46, "velocity": 102, "until": 182.87868373334024}, {"on": false, "note": 46, "velocity": 0, "until": 182.87868373334024}, {"on": true, "note": 50, "velocity": 102, "until": 182.98328623334024}, {"on": false, "note": 50, "velocity": 0, "until": 183.00420673334023}, {"on": true, "note": 48, "velocity": 102, "until": 183.06696823334022}, {"on": false, "note": 48, "velocity": 0, "until": 183.1297297333402}, {"on": true, "note": 45, "velocity": 102, "until": 183.1924912333402}, {"on": false, "note": 45, "velocity": 0, "until": 183.25502495834021}, {"on": true, "note": 43, "velocity": 102, "until": 183.49695995834023}, {"on": false, "note": 43, "velocity": 0, "until": 185.71096890834}, {"on": true, "note": 50, "velocity": 102, "until": 186.08286840834026}, {"on": false, "note": 50, "velocity": 0, "until": 186.08286840834026}, {"on": true, "note": 51, "velocity": 102, "until": 186.20656543334027}, {"on": false, "note": 51, "velocity": 0, "until": 186.20656543334027}, {"on": true, "note": 50, "velocity": 102, "until": 186.42395660000696}, {"on": false, "note": 50, "velocity": 0, "until": 186.4437194333403}, {"on": true, "note": 48, "velocity": 102, "until": 186.56229643334032}, {"on": false, "note": 48, "velocity": 0, "until": 186.68114290834035}, {"on": true, "note": 46, "velocity": 102, "until": 186.80510940834037}, {"on": false, "note": 46, "velocity": 0, "until": 186.80510940834037}, {"on": true, "note": 50, "velocity": 102, "until": 186.90841482500707}, {"on": false, "note": 50, "velocity": 0, "until": 186.92907590834042}, {"on": true, "note": 48, "velocity": 102, "until": 186.99105915834045}, {"on": false, "note": 48, "velocity": 0, "until": 187.05304240834047}, {"on": true, "note": 45, "velocity": 102, "until": 187.1150256583405}, {"on": false, "note": 45, "velocity": 0, "until": 187.17673943334052}, {"on": true, "note": 43, "velocity": 102, "until": 187.41389343334052}, {"on": false, "note": 43, "velocity": 0, "until": 189.59153943334053}, {"on": true, "note": 57, "velocity": 102, "until": 189.95591043334008}, {"on": false, "note": 57, "velocity": 0, "until": 189.95591043334008}, {"on": true, "note": 58, "velocity": 102, "until": 190.07701975834001}, {"on": false, "note": 58, "velocity": 0, "until": 190.07701975834001}, {"on": true, "note": 57, "velocity": 102, "until": 190.28694284167332}, {"on": false, "note": 57, "velocity": 0, "until": 190.30602675833995}, {"on": true, "note": 55, "velocity": 102, "until": 190.4205302583399}, {"on": false, "note": 55, "velocity": 0, "until": 190.53538143333986}, {"on": true, "note": 53, "velocity": 102, "until": 190.65683843333983}, {"on": false, "note": 53, "velocity": 0, "until": 190.65683843333983}, {"on": true, "note": 57, "velocity": 102, "until": 190.75805260000647}, {"on": false, "note": 57, "velocity": 0, "until": 190.77829543333976}, {"on": true, "note": 55, "velocity": 102, "until": 190.83902393333975}, {"on": false, "note": 55, "velocity": 0, "until": 190.8997524333397}, {"on": true, "note": 52, "velocity": 102, "until": 190.96048093333968}, {"on": false, "note": 52, "velocity": 0, "until": 191.02086175833963}, {"on": true, "note": 50, "velocity": 102, "until": 191.24986875833957}, {"on": false, "note": 50, "velocity": 0, "until": 191.47922343333954}, {"on": true, "note": 60, "velocity": 102, "until": 191.84359443333912}, {"on": false, "note": 60, "velocity": 0, "until": 191.84359443333912}, {"on": true, "note": 62, "velocity": 102, "until": 191.96470375833903}, {"on": false, "note": 62, "velocity": 0, "until": 191.96470375833903}, {"on": true, "note": 60, "velocity": 102, "until": 192.17462684167234}, {"on": false, "note": 60, "velocity": 0, "until": 192.19371075833894}, {"on": true, "note": 58, "velocity": 102, "until": 192.3082142583389}, {"on": false, "note": 58, "velocity": 0, "until": 192.42306543333888}, {"on": true, "note": 57, "velocity": 102, "until": 192.54452243333884}, {"on": false, "note": 57, "velocity": 0, "until": 192.54452243333884}, {"on": true, "note": 60, "velocity": 102, "until": 192.64573660000548}, {"on": false, "note": 60, "velocity": 0, "until": 192.66597943333875}, {"on": true, "note": 58, "velocity": 102, "until": 192.7267079333387}, {"on": false, "note": 58, "velocity": 0, "until": 192.78743643333866}, {"on": true, "note": 55, "velocity": 102, "until": 192.84816493333864}, {"on": false, "note": 55, "velocity": 0, "until": 192.9085457583386}, {"on": true, "note": 53, "velocity": 102, "until": 193.13755275833853}, {"on": false, "note": 53, "velocity": 0, "until": 193.36804610833855}, {"on": true, "note": 51, "velocity": 102, "until": 193.65554558333875}, {"on": false, "note": 51, "velocity": 0, "until": 195.3845098333388}, {"on": true, "note": 50, "velocity": 102, "until": 195.64091983333884}, {"on": false, "note": 50, "velocity": 0, "until": 196.38712383333893}, {"on": true, "note": 50, "velocity": 102, "until": 196.64353383333898}, {"on": false, "note": 50, "velocity": 0, "until": 197.4337077333391}, {"on": true, "note": 43, "velocity": 102, "until": 205.83478083333915}, {"on": false, "note": 43, "velocity": 0, "until": 206.09075665833913}, {"on": true, "note": 52, "velocity": 102, "until": 206.21027815833915}, {"on": false, "note": 52, "velocity": 0, "until": 206.32979965833914}, {"on": true, "note": 52, "velocity": 102, "until": 206.44932115833916}, {"on": false, "note": 52, "velocity": 0, "until": 206.56911658333917}, {"on": true, "note": 57, "velocity": 102, "until": 206.81911658333917}, {"on": false, "note": 57, "velocity": 0, "until": 207.06877208333916}, {"on": true, "note": 55, "velocity": 102, "until": 207.1868820833392}, {"on": false, "note": 55, "velocity": 0, "until": 207.30499208333924}, {"on": true, "note": 55, "velocity": 102, "until": 207.4231020833393}, {"on": false, "note": 55, "velocity": 0, "until": 207.5414794083393}, {"on": true, "note": 60, "velocity": 102, "until": 207.7897195833393}, {"on": false, "note": 60, "velocity": 0, "until": 209.56932983333922}, {"on": true, "note": 52, "velocity": 102, "until": 210.57188950833938}, {"on": false, "note": 52, "velocity": 0, "until": 210.57188950833938}, {"on": true, "note": 57, "velocity": 102, "until": 210.8261265083394}, {"on": false, "note": 57, "velocity": 0, "until": 211.56223608333946}, {"on": true, "note": 62, "velocity": 102, "until": 211.81433608333944}, {"on": false, "note": 62, "velocity": 0, "until": 212.55223773333938}, {"on": true, "note": 50, "velocity": 87, "until": 212.67776073333937}, {"on": false, "note": 50, "velocity": 0, "until": 213.53814763333938}, {"on": true, "note": 55, "velocity": 102, "until": 213.78710963333927}, {"on": false, "note": 55, "velocity": 0, "until": 214.03575308333927}, {"on": true, "note": 52, "velocity": 102, "until": 214.1538630833393}, {"on": false, "note": 52, "velocity": 0, "until": 214.27197308333933}, {"on": true, "note": 52, "velocity": 102, "until": 214.39008308333936}, {"on": false, "note": 52, "velocity": 0, "until": 214.50843510833937}, {"on": true, "note": 57, "velocity": 102, "until": 214.75433610833934}, {"on": false, "note": 57, "velocity": 0, "until": 214.99994895833933}, {"on": true, "note": 55, "velocity": 102, "until": 215.11713645833933}, {"on": false, "note": 55, "velocity": 0, "until": 215.23432395833933}, {"on": true, "note": 55, "velocity": 102, "until": 215.35151145833933}, {"on": false, "note": 55, "velocity": 0, "until": 215.4689124333393}, {"on": true, "note": 60, "velocity": 102, "until": 215.71325358333928}, {"on": false, "note": 60, "velocity": 0, "until": 217.90268675833912}, {"on": true, "note": 60, "velocity": 102, "until": 218.0171902583391}, {"on": false, "note": 60, "velocity": 0, "until": 218.13169375833908}, {"on": true, "note": 60, "velocity": 102, "until": 218.24619725833907}, {"on": false, "note": 60, "velocity": 0, "until": 218.36104843333902}, {"on": true, "note": 61, "velocity": 102, "until": 218.82663360000566}, {"on": false, "note": 61, "velocity": 0, "until": 218.84652875833896}, {"on": true, "note": 61, "velocity": 102, "until": 219.02782596667225}, {"on": false, "note": 61, "velocity": 0, "until": 219.07553575833887}, {"on": true, "note": 61, "velocity": 102, "until": 219.25683296667216}, {"on": false, "note": 61, "velocity": 0, "until": 219.30489043333878}, {"on": true, "note": 62, "velocity": 102, "until": 219.79111108333834}, {"on": false, "note": 62, "velocity": 0, "until": 220.28010743333823}, {"on": true, "note": 50, "velocity": 102, "until": 220.5230214333382}, {"on": false, "note": 50, "velocity": 0, "until": 221.23652343333816}, {"on": true, "note": 55, "velocity": 102, "until": 221.47943743333812}, {"on": false, "note": 55, "velocity": 0, "until": 222.1929394333381}, {"on": true, "note": 59, "velocity": 102, "until": 223.14935543333777}, {"on": false, "note": 59, "velocity": 0, "until": 223.14935543333777}, {"on": true, "note": 60, "velocity": 102, "until": 223.39226943333773}, {"on": false, "note": 60, "velocity": 0, "until": 224.10577143333774}, {"on": true, "note": 62, "velocity": 102, "until": 224.2272284333377}, {"on": false, "note": 62, "velocity": 0, "until": 225.0621874333377}, {"on": true, "note": 55, "velocity": 102, "until": 225.30510143333765}, {"on": false, "note": 55, "velocity": 0, "until": 226.01860343333763}, {"on": true, "note": 59, "velocity": 102, "until": 226.9750194333373}, {"on": false, "note": 59, "velocity": 0, "until": 226.9750194333373}, {"on": true, "note": 60, "velocity": 102, "until": 227.21793343333727}, {"on": false, "note": 60, "velocity": 0, "until": 227.93143543333727}, {"on": true, "note": 62, "velocity": 102, "until": 228.17434943333723}, {"on": false, "note": 62, "velocity": 0, "until": 228.8878514333372}, {"on": true, "note": 55, "velocity": 102, "until": 229.13154188333718}, {"on": false, "note": 55, "velocity": 0, "until": 229.86443458333727}, {"on": true, "note": 62, "velocity": 102, "until": 230.10443458333728}, {"on": false, "note": 62, "velocity": 0, "until": 230.80252143333723}, {"on": true, "note": 55, "velocity": 102, "until": 231.0454354333372}, {"on": false, "note": 55, "velocity": 0, "until": 231.74636343333717}, {"on": true, "note": 50, "velocity": 102, "until": 231.98927743333712}, {"on": false, "note": 50, "velocity": 0, "until": 232.69008495833714}, {"on": true, "note": 55, "velocity": 102, "until": 232.9307990083372}, {"on": false, "note": 55, "velocity": 0, "until": 246.7287805083378}, {"on": true, "note": 60, "velocity": 92, "until": 247.1695951083378}, {"on": false, "note": 60, "velocity": 0, "until": 247.21822130833783}, {"on": true, "note": 60, "velocity": 92, "until": 247.63360550833787}, {"on": false, "note": 60, "velocity": 0, "until": 247.68011250833786}, {"on": true, "note": 60, "velocity": 92, "until": 248.16955330833787}, {"on": false, "note": 60, "velocity": 0, "until": 248.63132208333786}, {"on": true, "note": 55, "velocity": 102, "until": 248.84732208333787}, {"on": false, "note": 55, "velocity": 0, "until": 248.87132208333787}, {"on": true, "note": 55, "velocity": 102, "until": 249.08732208333788}, {"on": false, "note": 55, "velocity": 0, "until": 249.11132208333788}, {"on": true, "note": 55, "velocity": 102, "until": 249.3273220833379}, {"on": false, "note": 55, "velocity": 0, "until": 249.3513220833379}, {"on": true, "note": 55, "velocity": 102, "until": 249.5673220833379}, {"on": false, "note": 55, "velocity": 0, "until": 249.5913220833379}, {"on": true, "note": 55, "velocity": 102, "until": 250.07109130833788}, {"on": false, "note": 55, "velocity": 0, "until": 250.07109130833788}, {"on": true, "note": 55, "velocity": 102, "until": 250.15762968333786}, {"on": false, "note": 55, "velocity": 0, "until": 250.18647580833783}, {"on": true, "note": 53, "velocity": 102, "until": 250.2730141833378}, {"on": false, "note": 53, "velocity": 0, "until": 250.30186030833778}, {"on": true, "note": 52, "velocity": 102, "until": 250.38839868333773}, {"on": false, "note": 52, "velocity": 0, "until": 250.4172448083377}, {"on": true, "note": 50, "velocity": 102, "until": 250.50378318333765}, {"on": false, "note": 50, "velocity": 0, "until": 250.53298250833765}, {"on": true, "note": 48, "velocity": 92, "until": 251.02242330833766}, {"on": false, "note": 48, "velocity": 0, "until": 251.02242330833766}, {"on": true, "note": 60, "velocity": 92, "until": 251.48431450833766}, {"on": false, "note": 60, "velocity": 0, "until": 251.48431450833766}, {"on": true, "note": 60, "velocity": 92, "until": 251.97375530833767}, {"on": false, "note": 60, "velocity": 0, "until": 252.43542958333768}, {"on": true, "note": 52, "velocity": 102, "until": 252.5535395833377}, {"on": false, "note": 52, "velocity": 0, "until": 252.67164958333774}, {"on": true, "note": 52, "velocity": 102, "until": 252.78975958333777}, {"on": false, "note": 52, "velocity": 0, "until": 252.9078695833378}, {"on": true, "note": 52, "velocity": 102, "until": 253.02597958333783}, {"on": false, "note": 52, "velocity": 0, "until": 253.14408958333786}, {"on": true, "note": 52, "velocity": 102, "until": 253.2621995833379}, {"on": false, "note": 52, "velocity": 0, "until": 253.38030958333792}, {"on": true, "note": 52, "velocity": 102, "until": 253.8526133083383}, {"on": false, "note": 52, "velocity": 0, "until": 258.16684050833794}, {"on": true, "note": 55, "velocity": 102, "until": 258.28928900833796}, {"on": false, "note": 55, "velocity": 0, "until": 258.411737508338}, {"on": true, "note": 55, "velocity": 102, "until": 258.88705030833773}, {"on": false, "note": 55, "velocity": 0, "until": 258.88705030833773}, {"on": true, "note": 60, "velocity": 102, "until": 259.0985885583377}, {"on": false, "note": 60, "velocity": 0, "until": 259.11817250833775}, {"on": true, "note": 55, "velocity": 102, "until": 259.24062100833777}, {"on": false, "note": 55, "velocity": 0, "until": 259.3630695083378}, {"on": true, "note": 55, "velocity": 102, "until": 259.83838230833754}, {"on": false, "note": 55, "velocity": 0, "until": 259.83838230833754}, {"on": true, "note": 60, "velocity": 102, "until": 260.04992055833753}, {"on": false, "note": 60, "velocity": 0, "until": 260.06950450833756}, {"on": true, "note": 55, "velocity": 102, "until": 260.1919530083376}, {"on": false, "note": 55, "velocity": 0, "until": 260.3144015083376}, {"on": true, "note": 55, "velocity": 102, "until": 260.78971430833735}, {"on": false, "note": 55, "velocity": 0, "until": 260.78971430833735}, {"on": true, "note": 60, "velocity": 102, "until": 261.00125255833734}, {"on": false, "note": 60, "velocity": 0, "until": 261.02083650833737}, {"on": true, "note": 55, "velocity": 102, "until": 261.26604883333744}, {"on": false, "note": 55, "velocity": 0, "until": 265.6194793083371}, {"on": true, "note": 48, "velocity": 102, "until": 265.734863808337}, {"on": false, "note": 48, "velocity": 0, "until": 265.850479083337}, {"on": true, "note": 53, "velocity": 102, "until": 265.97047908333707}, {"on": false, "note": 53, "velocity": 0, "until": 266.09047908333713}, {"on": true, "note": 48, "velocity": 102, "until": 266.2104790833372}, {"on": false, "note": 48, "velocity": 0, "until": 266.33047908333725}, {"on": true, "note": 53, "velocity": 102, "until": 266.4504790833373}, {"on": false, "note": 53, "velocity": 0, "until": 266.5704790833374}, {"on": true, "note": 48, "velocity": 102, "until": 266.69047908333744}, {"on": false, "note": 48, "velocity": 0, "until": 266.8104790833375}, {"on": true, "note": 53, "velocity": 102, "until": 267.29024830833833}, {"on": false, "note": 53, "velocity": 0, "until": 269.40547930833776}, {"on": true, "note": 55, "velocity": 102, "until": 269.5208638083377}, {"on": false, "note": 55, "velocity": 0, "until": 269.6363845833376}, {"on": true, "note": 60, "velocity": 102, "until": 269.7544945833375}, {"on": false, "note": 60, "velocity": 0, "until": 269.87260458333736}, {"on": true, "note": 55, "velocity": 102, "until": 269.99071458333725}, {"on": false, "note": 55, "velocity": 0, "until": 270.10882458333714}, {"on": true, "note": 60, "velocity": 102, "until": 270.226934583337}, {"on": false, "note": 60, "velocity": 0, "until": 270.3450445833369}, {"on": true, "note": 55, "velocity": 102, "until": 270.4631545833368}, {"on": false, "note": 55, "velocity": 0, "until": 270.5812645833367}, {"on": true, "note": 60, "velocity": 102, "until": 270.8174845833366}, {"on": false, "note": 60, "velocity": 0, "until": 271.0535683083365}, {"on": true, "note": 55, "velocity": 102, "until": 271.4958755583362}, {"on": false, "note": 55, "velocity": 0, "until": 271.5154595083362}, {"on": true, "note": 52, "velocity": 102, "until": 271.9848454250029}, {"on": false, "note": 52, "velocity": 0, "until": 272.0049003083362}, {"on": true, "note": 54, "velocity": 102, "until": 272.4472075583359}, {"on": false, "note": 54, "velocity": 0, "until": 272.4667915083359}, {"on": true, "note": 55, "velocity": 102, "until": 272.9361774250026}, {"on": false, "note": 55, "velocity": 0, "until": 272.95623230833587}, {"on": true, "note": 43, "velocity": 102, "until": 273.3985395583356}, {"on": false, "note": 43, "velocity": 0, "until": 273.4181235083356}, {"on": true, "note": 48, "velocity": 102, "until": 273.5201639250023}, {"on": false, "note": 48, "velocity": 0, "until": 273.54057200833563}, {"on": true, "note": 48, "velocity": 102, "until": 273.6426124250023}, {"on": false, "note": 48, "velocity": 0, "until": 273.66302050833565}, {"on": true, "note": 48, "velocity": 102, "until": 273.76506092500233}, {"on": false, "note": 48, "velocity": 0, "until": 273.78546900833567}, {"on": true, "note": 48, "velocity": 102, "until": 273.88750942500235}, {"on": false, "note": 48, "velocity": 0, "until": 273.9075643083356}, {"on": true, "note": 48, "velocity": 102, "until": 274.0037180583356}, {"on": false, "note": 48, "velocity": 0, "until": 274.0229488083356}, {"on": true, "note": 48, "velocity": 102, "until": 274.1191025583356}, {"on": false, "note": 48, "velocity": 0, "until": 274.1383333083356}, {"on": true, "note": 51, "velocity": 102, "until": 274.23448705833556}, {"on": false, "note": 51, "velocity": 0, "until": 274.2537178083356}, {"on": true, "note": 51, "velocity": 102, "until": 274.34987155833556}, {"on": false, "note": 51, "velocity": 0, "until": 274.3694555083356}, {"on": true, "note": 48, "velocity": 102, "until": 274.4714959250023}, {"on": false, "note": 48, "velocity": 0, "until": 274.4919040083356}, {"on": true, "note": 48, "velocity": 102, "until": 274.5939444250023}, {"on": false, "note": 48, "velocity": 0, "until": 274.6143525083356}, {"on": true, "note": 48, "velocity": 102, "until": 274.7163929250023}, {"on": false, "note": 48, "velocity": 0, "until": 274.73680100833565}, {"on": true, "note": 48, "velocity": 102, "until": 274.83884142500233}, {"on": false, "note": 48, "velocity": 0, "until": 274.8588963083356}, {"on": true, "note": 48, "velocity": 102, "until": 274.9550500583354}, {"on": false, "note": 48, "velocity": 0, "until": 274.9742808083353}, {"on": true, "note": 48, "velocity": 102, "until": 275.07043455833514}, {"on": false, "note": 48, "velocity": 0, "until": 275.0896653083351}, {"on": true, "note": 51, "velocity": 102, "until": 275.1858190583351}, {"on": false, "note": 51, "velocity": 0, "until": 275.2050498083351}, {"on": true, "note": 51, "velocity": 102, "until": 275.3012035583351}, {"on": false, "note": 51, "velocity": 0, "until": 275.3207875083351}, {"on": true, "note": 48, "velocity": 102, "until": 275.4228279250018}, {"on": false, "note": 48, "velocity": 0, "until": 275.44323600833513}, {"on": true, "note": 48, "velocity": 102, "until": 275.5452764250018}, {"on": false, "note": 48, "velocity": 0, "until": 275.56568450833515}, {"on": true, "note": 51, "velocity": 102, "until": 275.66772492500183}, {"on": false, "note": 51, "velocity": 0, "until": 275.68813300833517}, {"on": true, "note": 51, "velocity": 102, "until": 275.79017342500185}, {"on": false, "note": 51, "velocity": 0, "until": 275.8102283083351}, {"on": true, "note": 48, "velocity": 102, "until": 275.906382058335}, {"on": false, "note": 48, "velocity": 0, "until": 275.9256128083349}, {"on": true, "note": 48, "velocity": 102, "until": 276.02176655833483}, {"on": false, "note": 48, "velocity": 0, "until": 276.0409973083348}, {"on": true, "note": 51, "velocity": 102, "until": 276.1371510583348}, {"on": false, "note": 51, "velocity": 0, "until": 276.1563818083348}, {"on": true, "note": 51, "velocity": 102, "until": 276.2525355583347}, {"on": false, "note": 51, "velocity": 0, "until": 276.27211950833475}, {"on": true, "note": 48, "velocity": 102, "until": 276.37415992500144}, {"on": false, "note": 48, "velocity": 0, "until": 276.3945680083348}, {"on": true, "note": 48, "velocity": 102, "until": 276.49660842500145}, {"on": false, "note": 48, "velocity": 0, "until": 276.5170165083348}, {"on": true, "note": 51, "velocity": 102, "until": 276.6190569250015}, {"on": false, "note": 51, "velocity": 0, "until": 276.6394650083348}, {"on": true, "note": 51, "velocity": 102, "until": 276.7415054250015}, {"on": false, "note": 51, "velocity": 0, "until": 276.76156030833477}, {"on": true, "note": 48, "velocity": 102, "until": 276.85771405833464}, {"on": false, "note": 48, "velocity": 0, "until": 276.87694480833454}, {"on": true, "note": 48, "velocity": 102, "until": 276.97309855833447}, {"on": false, "note": 48, "velocity": 0, "until": 276.99232930833443}, {"on": true, "note": 51, "velocity": 102, "until": 277.0884830583344}, {"on": false, "note": 51, "velocity": 0, "until": 277.10771380833444}, {"on": true, "note": 51, "velocity": 102, "until": 277.20386755833437}, {"on": false, "note": 51, "velocity": 0, "until": 277.2234515083344}, {"on": true, "note": 51, "velocity": 102, "until": 277.3254919250011}, {"on": false, "note": 51, "velocity": 0, "until": 277.3459000083344}, {"on": true, "note": 51, "velocity": 102, "until": 277.4479404250011}, {"on": false, "note": 51, "velocity": 0, "until": 277.46834850833443}, {"on": true, "note": 51, "velocity": 102, "until": 277.5703889250011}, {"on": false, "note": 51, "velocity": 0, "until": 277.59079700833445}, {"on": true, "note": 51, "velocity": 102, "until": 277.69283742500113}, {"on": false, "note": 51, "velocity": 0, "until": 277.7128923083344}, {"on": true, "note": 51, "velocity": 102, "until": 277.8090460583342}, {"on": false, "note": 51, "velocity": 0, "until": 277.8282768083341}, {"on": true, "note": 51, "velocity": 102, "until": 277.92443055833394}, {"on": false, "note": 51, "velocity": 0, "until": 277.9436613083339}, {"on": true, "note": 50, "velocity": 102, "until": 278.0398150583339}, {"on": false, "note": 50, "velocity": 0, "until": 278.0590458083339}, {"on": true, "note": 50, "velocity": 102, "until": 278.1551995583339}, {"on": false, "note": 50, "velocity": 0, "until": 278.17478350833386}, {"on": true, "note": 51, "velocity": 102, "until": 278.27682392500054}, {"on": false, "note": 51, "velocity": 0, "until": 278.2972320083339}, {"on": true, "note": 51, "velocity": 102, "until": 278.39927242500056}, {"on": false, "note": 51, "velocity": 0, "until": 278.4196805083339}, {"on": true, "note": 51, "velocity": 102, "until": 278.5217209250006}, {"on": false, "note": 51, "velocity": 0, "until": 278.5421290083339}, {"on": true, "note": 51, "velocity": 102, "until": 278.6441694250006}, {"on": false, "note": 51, "velocity": 0, "until": 278.66422430833387}, {"on": true, "note": 51, "velocity": 102, "until": 278.7603780583337}, {"on": false, "note": 51, "velocity": 0, "until": 278.7796088083336}, {"on": true, "note": 51, "velocity": 102, "until": 278.8757625583334}, {"on": false, "note": 51, "velocity": 0, "until": 278.89499330833337}, {"on": true, "note": 50, "velocity": 102, "until": 278.99114705833335}, {"on": false, "note": 50, "velocity": 0, "until": 279.0103778083334}, {"on": true, "note": 50, "velocity": 102, "until": 279.10653155833336}, {"on": false, "note": 50, "velocity": 0, "until": 279.1261155083333}, {"on": true, "note": 51, "velocity": 102, "until": 279.37101250833337}, {"on": false, "note": 51, "velocity": 0, "until": 279.61555630833334}, {"on": true, "note": 51, "velocity": 102, "until": 279.84632530833295}, {"on": false, "note": 51, "velocity": 0, "until": 280.0774475083328}, {"on": true, "note": 51, "velocity": 102, "until": 280.32234450833283}, {"on": false, "note": 51, "velocity": 0, "until": 280.5668883083328}, {"on": true, "note": 51, "velocity": 102, "until": 280.6630420583327}, {"on": false, "note": 51, "velocity": 0, "until": 280.6822728083326}, {"on": true, "note": 51, "velocity": 102, "until": 280.7784265583325}, {"on": false, "note": 51, "velocity": 0, "until": 280.7976573083325}, {"on": true, "note": 51, "velocity": 102, "until": 280.89381105833246}, {"on": false, "note": 51, "velocity": 0, "until": 280.9130418083324}, {"on": true, "note": 51, "velocity": 102, "until": 281.0091955583324}, {"on": false, "note": 51, "velocity": 0, "until": 281.0287795083324}, {"on": true, "note": 50, "velocity": 102, "until": 281.2736765083324}, {"on": false, "note": 50, "velocity": 0, "until": 284.93466723333245}, {"on": true, "note": 55, "velocity": 102, "until": 284.9974287333324}, {"on": false, "note": 55, "velocity": 0, "until": 285.0601902333324}, {"on": true, "note": 55, "velocity": 102, "until": 285.12295173333234}, {"on": false, "note": 55, "velocity": 0, "until": 285.1857132333323}, {"on": true, "note": 55, "velocity": 102, "until": 285.2484747333323}, {"on": false, "note": 55, "velocity": 0, "until": 285.31123623333224}, {"on": true, "note": 55, "velocity": 102, "until": 285.3739977333322}, {"on": false, "note": 55, "velocity": 0, "until": 285.43653145833224}, {"on": true, "note": 55, "velocity": 102, "until": 285.6583052083324}, {"on": false, "note": 55, "velocity": 0, "until": 285.6784664583325}, {"on": true, "note": 55, "velocity": 102, "until": 285.90024020833266}, {"on": false, "note": 55, "velocity": 0, "until": 285.92062923333265}, {"on": true, "note": 55, "velocity": 102, "until": 285.9833907333326}, {"on": false, "note": 55, "velocity": 0, "until": 286.0461522333326}, {"on": true, "note": 55, "velocity": 102, "until": 286.10891373333254}, {"on": false, "note": 55, "velocity": 0, "until": 286.1716752333325}, {"on": true, "note": 55, "velocity": 102, "until": 286.2344367333325}, {"on": false, "note": 55, "velocity": 0, "until": 286.29719823333244}, {"on": true, "note": 55, "velocity": 102, "until": 286.3599597333324}, {"on": false, "note": 55, "velocity": 0, "until": 286.42249345833244}, {"on": true, "note": 55, "velocity": 102, "until": 286.6442672083326}, {"on": false, "note": 55, "velocity": 0, "until": 286.6644284583327}, {"on": true, "note": 55, "velocity": 102, "until": 286.88620220833286}, {"on": false, "note": 55, "velocity": 0, "until": 286.90659123333285}, {"on": true, "note": 55, "velocity": 102, "until": 286.9693527333328}, {"on": false, "note": 55, "velocity": 0, "until": 287.0321142333328}, {"on": true, "note": 55, "velocity": 102, "until": 287.09487573333274}, {"on": false, "note": 55, "velocity": 0, "until": 287.1576372333327}, {"on": true, "note": 55, "velocity": 102, "until": 287.2203987333327}, {"on": false, "note": 55, "velocity": 0, "until": 287.28316023333264}, {"on": true, "note": 55, "velocity": 102, "until": 287.3459217333326}, {"on": false, "note": 55, "velocity": 0, "until": 287.40845545833264}, {"on": true, "note": 55, "velocity": 102, "until": 287.6302292083328}, {"on": false, "note": 55, "velocity": 0, "until": 287.6503904583329}, {"on": true, "note": 55, "velocity": 102, "until": 287.87216420833306}, {"on": false, "note": 55, "velocity": 0, "until": 287.89255323333305}, {"on": true, "note": 55, "velocity": 102, "until": 287.955314733333}, {"on": false, "note": 55, "velocity": 0, "until": 288.018076233333}, {"on": true, "note": 55, "velocity": 102, "until": 288.08083773333294}, {"on": false, "note": 55, "velocity": 0, "until": 288.1435992333329}, {"on": true, "note": 55, "velocity": 102, "until": 288.2063607333329}, {"on": false, "note": 55, "velocity": 0, "until": 288.26912223333284}, {"on": true, "note": 55, "velocity": 102, "until": 288.3318837333328}, {"on": false, "note": 55, "velocity": 0, "until": 288.39441745833284}, {"on": true, "note": 55, "velocity": 102, "until": 288.616191208333}, {"on": false, "note": 55, "velocity": 0, "until": 288.6363524583331}, {"on": true, "note": 55, "velocity": 102, "until": 288.7915940833332}, {"on": false, "note": 55, "velocity": 0, "until": 288.87851523333325}, {"on": true, "note": 54, "velocity": 102, "until": 288.94127673333304}, {"on": false, "note": 54, "velocity": 0, "until": 289.0040382333328}, {"on": true, "note": 54, "velocity": 102, "until": 289.0667997333326}, {"on": false, "note": 54, "velocity": 0, "until": 289.12956123333237}, {"on": true, "note": 54, "velocity": 102, "until": 289.1923227333322}, {"on": false, "note": 54, "velocity": 0, "until": 289.255084233332}, {"on": true, "note": 54, "velocity": 102, "until": 289.31784573333186}, {"on": false, "note": 54, "velocity": 0, "until": 289.3803794583318}, {"on": true, "note": 54, "velocity": 102, "until": 289.60215320833186}, {"on": false, "note": 54, "velocity": 0, "until": 289.6223144583319}, {"on": true, "note": 50, "velocity": 102, "until": 289.844088208332}, {"on": false, "note": 50, "velocity": 0, "until": 289.86447723333197}, {"on": true, "note": 55, "velocity": 102, "until": 289.9900002333319}, {"on": false, "note": 55, "velocity": 0, "until": 290.1155232333318}, {"on": true, "note": 50, "velocity": 87, "until": 290.24104623333176}, {"on": false, "note": 50, "velocity": 0, "until": 290.36634145833176}, {"on": true, "note": 55, "velocity": 87, "until": 290.4873089583318}, {"on": false, "note": 55, "velocity": 0, "until": 290.6082764583319}, {"on": true, "note": 55, "velocity": 87, "until": 290.72924395833195}, {"on": false, "note": 55, "velocity": 0, "until": 290.85043923333194}, {"on": true, "note": 54, "velocity": 102, "until": 290.91320073333185}, {"on": false, "note": 54, "velocity": 0, "until": 290.97596223333164}, {"on": true, "note": 54, "velocity": 102, "until": 291.03872373333155}, {"on": false, "note": 54, "velocity": 0, "until": 291.10148523333135}, {"on": true, "note": 54, "velocity": 102, "until": 291.16424673333125}, {"on": false, "note": 54, "velocity": 0, "until": 291.22700823333116}, {"on": true, "note": 54, "velocity": 102, "until": 291.28976973333107}, {"on": false, "note": 54, "velocity": 0, "until": 291.35230345833105}, {"on": true, "note": 54, "velocity": 102, "until": 291.5740772083311}, {"on": false, "note": 54, "velocity": 0, "until": 291.5942384583312}, {"on": true, "note": 50, "velocity": 102, "until": 291.81601220833124}, {"on": false, "note": 50, "velocity": 0, "until": 291.83640123333123}, {"on": true, "note": 55, "velocity": 102, "until": 291.96192423333116}, {"on": false, "note": 55, "velocity": 0, "until": 292.0874472333311}, {"on": true, "note": 50, "velocity": 87, "until": 292.212970233331}, {"on": false, "note": 50, "velocity": 0, "until": 292.338265458331}, {"on": true, "note": 43, "velocity": 87, "until": 292.5812275333311}, {"on": false, "note": 43, "velocity": 0, "until": 292.8635803333311}, {"on": true, "note": 55, "velocity": 102, "until": 292.92768283333106}, {"on": false, "note": 55, "velocity": 0, "until": 292.99178533333105}, {"on": true, "note": 55, "velocity": 102, "until": 293.05588783333104}, {"on": false, "note": 55, "velocity": 0, "until": 293.11999033333103}, {"on": true, "note": 55, "velocity": 102, "until": 293.184092833331}, {"on": false, "note": 55, "velocity": 0, "until": 293.248195333331}, {"on": true, "note": 55, "velocity": 102, "until": 293.312297833331}, {"on": false, "note": 55, "velocity": 0, "until": 293.376112508331}, {"on": true, "note": 55, "velocity": 102, "until": 293.6006014249977}, {"on": false, "note": 55, "velocity": 0, "until": 293.62100950833104}, {"on": true, "note": 55, "velocity": 102, "until": 293.84549842499774}, {"on": false, "note": 55, "velocity": 0, "until": 293.866194333331}, {"on": true, "note": 55, "velocity": 102, "until": 293.930296833331}, {"on": false, "note": 55, "velocity": 0, "until": 293.994399333331}, {"on": true, "note": 55, "velocity": 102, "until": 294.058501833331}, {"on": false, "note": 55, "velocity": 0, "until": 294.12260433333097}, {"on": true, "note": 55, "velocity": 102, "until": 294.18670683333096}, {"on": false, "note": 55, "velocity": 0, "until": 294.25080933333095}, {"on": true, "note": 55, "velocity": 102, "until": 294.31491183333094}, {"on": false, "note": 55, "velocity": 0, "until": 294.37872650833094}, {"on": true, "note": 55, "velocity": 102, "until": 294.60321542499764}, {"on": false, "note": 55, "velocity": 0, "until": 294.623623508331}, {"on": true, "note": 55, "velocity": 102, "until": 294.8481124249977}, {"on": false, "note": 55, "velocity": 0, "until": 294.86880833333095}, {"on": true, "note": 51, "velocity": 102, "until": 294.93291083333094}, {"on": false, "note": 51, "velocity": 0, "until": 294.9970133333309}, {"on": true, "note": 51, "velocity": 102, "until": 295.0611158333309}, {"on": false, "note": 51, "velocity": 0, "until": 295.1252183333309}, {"on": true, "note": 51, "velocity": 102, "until": 295.1893208333309}, {"on": false, "note": 51, "velocity": 0, "until": 295.2534233333309}, {"on": true, "note": 51, "velocity": 102, "until": 295.3175258333309}, {"on": false, "note": 51, "velocity": 0, "until": 295.3813405083309}, {"on": true, "note": 51, "velocity": 102, "until": 295.6058294249976}, {"on": false, "note": 51, "velocity": 0, "until": 295.6262375083309}, {"on": true, "note": 51, "velocity": 102, "until": 295.8507264249976}, {"on": false, "note": 51, "velocity": 0, "until": 295.8714223333309}, {"on": true, "note": 51, "velocity": 102, "until": 295.9355248333309}, {"on": false, "note": 51, "velocity": 0, "until": 295.99962733333086}, {"on": true, "note": 51, "velocity": 102, "until": 296.06372983333085}, {"on": false, "note": 51, "velocity": 0, "until": 296.12783233333084}, {"on": true, "note": 51, "velocity": 102, "until": 296.19193483333083}, {"on": false, "note": 51, "velocity": 0, "until": 296.2560373333308}, {"on": true, "note": 51, "velocity": 102, "until": 296.3201398333308}, {"on": false, "note": 51, "velocity": 0, "until": 296.3839545083308}, {"on": true, "note": 52, "velocity": 102, "until": 296.6084434249975}, {"on": false, "note": 52, "velocity": 0, "until": 296.62885150833085}, {"on": true, "note": 52, "velocity": 102, "until": 296.85334042499755}, {"on": false, "note": 52, "velocity": 0, "until": 296.8740363333308}, {"on": true, "note": 53, "velocity": 102, "until": 296.9381388333308}, {"on": false, "note": 53, "velocity": 0, "until": 297.00224133333074}, {"on": true, "note": 53, "velocity": 102, "until": 297.0663438333307}, {"on": false, "note": 53, "velocity": 0, "until": 297.13044633333067}, {"on": true, "note": 53, "velocity": 102, "until": 297.1945488333307}, {"on": false, "note": 53, "velocity": 0, "until": 297.25865133333076}, {"on": true, "note": 53, "velocity": 102, "until": 297.32275383333075}, {"on": false, "note": 53, "velocity": 0, "until": 297.38656850833075}, {"on": true, "note": 53, "velocity": 102, "until": 297.6110574249974}, {"on": false, "note": 53, "velocity": 0, "until": 297.63146550833073}, {"on": true, "note": 53, "velocity": 102, "until": 297.85595442499744}, {"on": false, "note": 53, "velocity": 0, "until": 297.87665033333076}, {"on": true, "note": 58, "velocity": 102, "until": 298.00485533333074}, {"on": false, "note": 58, "velocity": 0, "until": 298.1330603333307}, {"on": true, "note": 53, "velocity": 87, "until": 298.2612653333307}, {"on": false, "note": 53, "velocity": 0, "until": 298.3891825083307}, {"on": true, "note": 58, "velocity": 87, "until": 298.5116310083307}, {"on": false, "note": 58, "velocity": 0, "until": 298.63407950833073}, {"on": true, "note": 58, "velocity": 87, "until": 298.75652800833075}, {"on": false, "note": 58, "velocity": 0, "until": 298.87926433333075}, {"on": true, "note": 53, "velocity": 102, "until": 298.94336683333074}, {"on": false, "note": 53, "velocity": 0, "until": 299.00746933333073}, {"on": true, "note": 53, "velocity": 102, "until": 299.0715718333307}, {"on": false, "note": 53, "velocity": 0, "until": 299.13567433333066}, {"on": true, "note": 53, "velocity": 102, "until": 299.1997768333307}, {"on": false, "note": 53, "velocity": 0, "until": 299.2638793333307}, {"on": true, "note": 53, "velocity": 102, "until": 299.3279818333307}, {"on": false, "note": 53, "velocity": 0, "until": 299.3917965083307}, {"on": true, "note": 53, "velocity": 102, "until": 299.61628542499733}, {"on": false, "note": 53, "velocity": 0, "until": 299.63669350833067}, {"on": true, "note": 53, "velocity": 102, "until": 299.86118242499737}, {"on": false, "note": 53, "velocity": 0, "until": 299.8818783333307}, {"on": true, "note": 58, "velocity": 102, "until": 300.01008333333067}, {"on": false, "note": 58, "velocity": 0, "until": 300.13828833333065}, {"on": true, "note": 53, "velocity": 87, "until": 300.26649333333063}, {"on": false, "note": 53, "velocity": 0, "until": 300.3944105083306}, {"on": true, "note": 46, "velocity": 87, "until": 300.64000325833064}, {"on": false, "note": 46, "velocity": 0, "until": 300.9121882333306}, {"on": true, "note": 50, "velocity": 102, "until": 301.28875723333005}, {"on": false, "note": 50, "velocity": 0, "until": 301.28875723333005}, {"on": true, "note": 51, "velocity": 102, "until": 301.41405245833005}, {"on": false, "note": 51, "velocity": 0, "until": 301.41405245833005}, {"on": true, "note": 50, "velocity": 102, "until": 301.6358262083301}, {"on": false, "note": 50, "velocity": 0, "until": 301.6559874583302}, {"on": true, "note": 48, "velocity": 102, "until": 301.77695495833024}, {"on": false, "note": 48, "velocity": 0, "until": 301.8981502333302}, {"on": true, "note": 46, "velocity": 102, "until": 302.02367323333016}, {"on": false, "note": 46, "velocity": 0, "until": 302.02367323333016}, {"on": true, "note": 50, "velocity": 102, "until": 302.1282757333301}, {"on": false, "note": 50, "velocity": 0, "until": 302.14919623333003}, {"on": true, "note": 48, "velocity": 102, "until": 302.21195773333}, {"on": false, "note": 48, "velocity": 0, "until": 302.27471923332996}, {"on": true, "note": 45, "velocity": 102, "until": 302.3374807333299}, {"on": false, "note": 45, "velocity": 0, "until": 302.40001445832996}, {"on": true, "note": 43, "velocity": 102, "until": 302.64194945833003}, {"on": false, "note": 43, "velocity": 0, "until": 304.85595840833}, {"on": true, "note": 50, "velocity": 102, "until": 305.2278579083303}, {"on": false, "note": 50, "velocity": 0, "until": 305.2278579083303}, {"on": true, "note": 51, "velocity": 102, "until": 305.35155493333025}, {"on": false, "note": 51, "velocity": 0, "until": 305.35155493333025}, {"on": true, "note": 50, "velocity": 102, "until": 305.5689460999969}, {"on": false, "note": 50, "velocity": 0, "until": 305.58870893333017}, {"on": true, "note": 48, "velocity": 102, "until": 305.7072859333301}, {"on": false, "note": 48, "velocity": 0, "until": 305.8261324083301}, {"on": true, "note": 46, "velocity": 102, "until": 305.9500989083302}, {"on": false, "note": 46, "velocity": 0, "until": 305.9500989083302}, {"on": true, "note": 50, "velocity": 102, "until": 306.05340432499685}, {"on": false, "note": 50, "velocity": 0, "until": 306.0740654083302}, {"on": true, "note": 48, "velocity": 102, "until": 306.13604865833025}, {"on": false, "note": 48, "velocity": 0, "until": 306.1980319083303}, {"on": true, "note": 45, "velocity": 102, "until": 306.2600151583303}, {"on": false, "note": 45, "velocity": 0, "until": 306.3217289333303}, {"on": true, "note": 43, "velocity": 102, "until": 306.5588829333302}, {"on": false, "note": 43, "velocity": 0, "until": 308.7365289333304}, {"on": true, "note": 57, "velocity": 102, "until": 309.10089993333094}, {"on": false, "note": 57, "velocity": 0, "until": 309.10089993333094}, {"on": true, "note": 58, "velocity": 102, "until": 309.2220092583312}, {"on": false, "note": 58, "velocity": 0, "until": 309.2220092583312}, {"on": true, "note": 57, "velocity": 102, "until": 309.4319323416645}, {"on": false, "note": 57, "velocity": 0, "until": 309.4510162583312}, {"on": true, "note": 55, "velocity": 102, "until": 309.5655197583313}, {"on": false, "note": 55, "velocity": 0, "until": 309.68037093333135}, {"on": true, "note": 53, "velocity": 102, "until": 309.8018279333314}, {"on": false, "note": 53, "velocity": 0, "until": 309.8018279333314}, {"on": true, "note": 57, "velocity": 102, "until": 309.90304209999806}, {"on": false, "note": 57, "velocity": 0, "until": 309.92328493333144}, {"on": true, "note": 55, "velocity": 102, "until": 309.9840134333314}, {"on": false, "note": 55, "velocity": 0, "until": 310.04474193333147}, {"on": true, "note": 52, "velocity": 102, "until": 310.10547043333145}, {"on": false, "note": 52, "velocity": 0, "until": 310.1658512583315}, {"on": true, "note": 50, "velocity": 102, "until": 310.39485825833157}, {"on": false, "note": 50, "velocity": 0, "until": 310.62421293333165}, {"on": true, "note": 60, "velocity": 102, "until": 310.9885839333321}, {"on": false, "note": 60, "velocity": 0, "until": 310.9885839333321}, {"on": true, "note": 62, "velocity": 102, "until": 311.1096932583324}, {"on": false, "note": 62, "velocity": 0, "until": 311.1096932583324}, {"on": true, "note": 60, "velocity": 102, "until": 311.3196163416658}, {"on": false, "note": 60, "velocity": 0, "until": 311.33870025833255}, {"on": true, "note": 58, "velocity": 102, "until": 311.4532037583326}, {"on": false, "note": 58, "velocity": 0, "until": 311.5680549333327}, {"on": true, "note": 57, "velocity": 102, "until": 311.68951193333277}, {"on": false, "note": 57, "velocity": 0, "until": 311.68951193333277}, {"on": true, "note": 60, "velocity": 102, "until": 311.7907260999994}, {"on": false, "note": 60, "velocity": 0, "until": 311.81096893333284}, {"on": true, "note": 58, "velocity": 102, "until": 311.8716974333329}, {"on": false, "note": 58, "velocity": 0, "until": 311.9324259333329}, {"on": true, "note": 55, "velocity": 102, "until": 311.9931544333329}, {"on": false, "note": 55, "velocity": 0, "until": 312.053535258333}, {"on": true, "note": 53, "velocity": 102, "until": 312.28254225833314}, {"on": false, "note": 53, "velocity": 0, "until": 312.5130356083331}, {"on": true, "note": 51, "velocity": 102, "until": 312.800535083333}, {"on": false, "note": 51, "velocity": 0, "until": 314.52949933333343}, {"on": true, "note": 50, "velocity": 102, "until": 314.78590933333334}, {"on": false, "note": 50, "velocity": 0, "until": 315.5321133333333}, {"on": true, "note": 50, "velocity": 102, "until": 315.7885233333332}, {"on": false, "note": 50, "velocity": 0, "until": 316.5786972333334}, {"on": true, "note": 43, "velocity": 102, "until": 324.9797703333366}, {"on": false, "note": 43, "velocity": 0, "until": 325.2357461583366}, {"on": true, "note": 52, "velocity": 102, "until": 325.3552676583365}, {"on": false, "note": 52, "velocity": 0, "until": 325.4747891583365}, {"on": true, "note": 52, "velocity": 102, "until": 325.5943106583364}, {"on": false, "note": 52, "velocity": 0, "until": 325.71410608333645}, {"on": true, "note": 57, "velocity": 102, "until": 325.96410608333645}, {"on": false, "note": 57, "velocity": 0, "until": 326.2137615833364}, {"on": true, "note": 55, "velocity": 102, "until": 326.3318715833363}, {"on": false, "note": 55, "velocity": 0, "until": 326.4499815833362}, {"on": true, "note": 55, "velocity": 102, "until": 326.56809158333607}, {"on": false, "note": 55, "velocity": 0, "until": 326.6864689083361}, {"on": true, "note": 60, "velocity": 102, "until": 326.93470908333614}, {"on": false, "note": 60, "velocity": 0, "until": 328.71431933333616}, {"on": true, "note": 52, "velocity": 102, "until": 329.71687900833626}, {"on": false, "note": 52, "velocity": 0, "until": 329.71687900833626}, {"on": true, "note": 57, "velocity": 102, "until": 329.97111600833625}, {"on": false, "note": 57, "velocity": 0, "until": 330.7072255833363}, {"on": true, "note": 62, "velocity": 102, "until": 330.9593255833364}, {"on": false, "note": 62, "velocity": 0, "until": 331.6972272333365}, {"on": true, "note": 50, "velocity": 87, "until": 331.8227502333364}, {"on": false, "note": 50, "velocity": 0, "until": 332.6831371333364}, {"on": true, "note": 55, "velocity": 102, "until": 332.93209913333607}, {"on": false, "note": 55, "velocity": 0, "until": 333.180742583336}, {"on": true, "note": 52, "velocity": 102, "until": 333.2988525833359}, {"on": false, "note": 52, "velocity": 0, "until": 333.41696258333576}, {"on": true, "note": 52, "velocity": 102, "until": 333.53507258333565}, {"on": false, "note": 52, "velocity": 0, "until": 333.6534246083357}, {"on": true, "note": 57, "velocity": 102, "until": 333.8993256083357}, {"on": false, "note": 57, "velocity": 0, "until": 334.14493845833573}, {"on": true, "note": 55, "velocity": 102, "until": 334.26212595833573}, {"on": false, "note": 55, "velocity": 0, "until": 334.37931345833573}, {"on": true, "note": 55, "velocity": 102, "until": 334.49650095833573}, {"on": false, "note": 55, "velocity": 0, "until": 334.6139019333358}, {"on": true, "note": 60, "velocity": 102, "until": 334.8582430833358}, {"on": false, "note": 60, "velocity": 0, "until": 337.047676258336}, {"on": true, "note": 60, "velocity": 102, "until": 337.162179758336}, {"on": false, "note": 60, "velocity": 0, "until": 337.27668325833594}, {"on": true, "note": 60, "velocity": 102, "until": 337.3911867583359}, {"on": false, "note": 60, "velocity": 0, "until": 337.5060379333359}, {"on": true, "note": 61, "velocity": 102, "until": 337.97162310000255}, {"on": false, "note": 61, "velocity": 0, "until": 337.99151825833593}, {"on": true, "note": 61, "velocity": 102, "until": 338.1728154666693}, {"on": false, "note": 61, "velocity": 0, "until": 338.2205252583361}, {"on": true, "note": 61, "velocity": 102, "until": 338.4018224666695}, {"on": false, "note": 61, "velocity": 0, "until": 338.4498799333363}, {"on": true, "note": 62, "velocity": 102, "until": 338.936100583337}, {"on": false, "note": 62, "velocity": 0, "until": 339.42509693333704}, {"on": true, "note": 50, "velocity": 102, "until": 339.66801093333703}, {"on": false, "note": 50, "velocity": 0, "until": 340.3815129333371}, {"on": true, "note": 55, "velocity": 102, "until": 340.6244269333371}, {"on": false, "note": 55, "velocity": 0, "until": 341.3379289333372}, {"on": true, "note": 59, "velocity": 102, "until": 342.2943449333375}, {"on": false, "note": 59, "velocity": 0, "until": 342.2943449333375}, {"on": true, "note": 60, "velocity": 102, "until": 342.5372589333375}, {"on": false, "note": 60, "velocity": 0, "until": 343.25076093333763}, {"on": true, "note": 62, "velocity": 102, "until": 343.37221793333765}, {"on": false, "note": 62, "velocity": 0, "until": 344.20717693333756}, {"on": true, "note": 55, "velocity": 102, "until": 344.45009093333755}, {"on": false, "note": 55, "velocity": 0, "until": 345.16359293333744}, {"on": true, "note": 59, "velocity": 102, "until": 346.1200089333378}, {"on": false, "note": 59, "velocity": 0, "until": 346.1200089333378}, {"on": true, "note": 60, "velocity": 102, "until": 346.36292293333776}, {"on": false, "note": 60, "velocity": 0, "until": 347.0764249333379}, {"on": true, "note": 62, "velocity": 102, "until": 347.3193389333379}, {"on": false, "note": 62, "velocity": 0, "until": 348.0328409333378}, {"on": true, "note": 55, "velocity": 102, "until": 348.2765313833378}, {"on": false, "note": 55, "velocity": 0, "until": 349.0094240833379}, {"on": true, "note": 62, "velocity": 102, "until": 349.24942408333794}, {"on": false, "note": 62, "velocity": 0, "until": 349.94751093333815}, {"on": true, "note": 55, "velocity": 102, "until": 350.19042493333825}, {"on": false, "note": 55, "velocity": 0, "until": 350.8913529333385}, {"on": true, "note": 50, "velocity": 102, "until": 351.13426693333855}, {"on": false, "note": 50, "velocity": 0, "until": 351.8350744583386}, {"on": true, "note": 55, "velocity": 102, "until": 352.0757885083386}, {"on": false, "note": 55, "velocity": 0, "until": 360.96898630834}, {"on": true, "note": 45, "velocity": 102, "until": 361.15167843334}, {"on": false, "note": 45, "velocity": 0, "until": 361.19975530834}, {"on": true, "note": 45, "velocity": 102, "until": 361.40167818334004}, {"on": false, "note": 45, "velocity": 0, "until": 361.4308775083401}, {"on": true, "note": 55, "velocity": 102, "until": 361.90026342500676}, {"on": false, "note": 55, "velocity": 0, "until": 361.9203183083401}, {"on": true, "note": 55, "velocity": 102, "until": 362.0260874333401}, {"on": false, "note": 55, "velocity": 0, "until": 362.0357028083401}, {"on": true, "note": 53, "velocity": 102, "until": 362.1414719333401}, {"on": false, "note": 53, "velocity": 0, "until": 362.1510873083401}, {"on": true, "note": 52, "velocity": 102, "until": 362.2568564333401}, {"on": false, "note": 52, "velocity": 0, "until": 362.2664718083401}, {"on": true, "note": 50, "velocity": 102, "until": 362.3722409333401}, {"on": false, "note": 50, "velocity": 0, "until": 362.3822095083401}, {"on": true, "note": 49, "velocity": 102, "until": 362.8515954250068}, {"on": false, "note": 49, "velocity": 0, "until": 362.87165030834007}, {"on": true, "note": 49, "velocity": 102, "until": 363.0543424333401}, {"on": false, "note": 49, "velocity": 0, "until": 363.1024193083401}, {"on": true, "note": 49, "velocity": 102, "until": 363.3043421833401}, {"on": false, "note": 49, "velocity": 0, "until": 363.33354150834015}, {"on": true, "note": 58, "velocity": 102, "until": 363.8029274250068}, {"on": false, "note": 58, "velocity": 0, "until": 363.82298230834016}, {"on": true, "note": 58, "velocity": 102, "until": 363.92875143334015}, {"on": false, "note": 58, "velocity": 0, "until": 363.93836680834016}, {"on": true, "note": 57, "velocity": 102, "until": 364.04413593334016}, {"on": false, "note": 57, "velocity": 0, "until": 364.05375130834017}, {"on": true, "note": 55, "velocity": 102, "until": 364.15952043334016}, {"on": false, "note": 55, "velocity": 0, "until": 364.1691358083402}, {"on": true, "note": 53, "velocity": 102, "until": 364.27490493334017}, {"on": false, "note": 53, "velocity": 0, "until": 364.2848735083402}, {"on": true, "note": 52, "velocity": 102, "until": 364.75425942500686}, {"on": false, "note": 52, "velocity": 0, "until": 364.77431430834014}, {"on": true, "note": 52, "velocity": 102, "until": 364.95700643334015}, {"on": false, "note": 52, "velocity": 0, "until": 365.00508330834015}, {"on": true, "note": 52, "velocity": 102, "until": 365.2070061833402}, {"on": false, "note": 52, "velocity": 0, "until": 365.2362055083402}, {"on": true, "note": 64, "velocity": 102, "until": 365.7055914250069}, {"on": false, "note": 64, "velocity": 0, "until": 365.72564630834023}, {"on": true, "note": 64, "velocity": 102, "until": 365.8314154333402}, {"on": false, "note": 64, "velocity": 0, "until": 365.84103080834024}, {"on": true, "note": 62, "velocity": 102, "until": 365.94679993334023}, {"on": false, "note": 62, "velocity": 0, "until": 365.95641530834024}, {"on": true, "note": 61, "velocity": 102, "until": 366.06218443334024}, {"on": false, "note": 61, "velocity": 0, "until": 366.07179980834024}, {"on": true, "note": 58, "velocity": 102, "until": 366.17756893334024}, {"on": false, "note": 58, "velocity": 0, "until": 366.18753750834026}, {"on": true, "note": 57, "velocity": 102, "until": 366.43243450834024}, {"on": false, "note": 57, "velocity": 0, "until": 366.67697830834015}, {"on": true, "note": 55, "velocity": 102, "until": 366.9077473083401}, {"on": false, "note": 55, "velocity": 0, "until": 367.1388695083401}, {"on": true, "note": 52, "velocity": 102, "until": 367.3837665083401}, {"on": false, "note": 52, "velocity": 0, "until": 367.62831030834}, {"on": true, "note": 49, "velocity": 102, "until": 367.85907930834}, {"on": false, "note": 49, "velocity": 0, "until": 368.09071623334006}, {"on": true, "note": 45, "velocity": 102, "until": 368.35568750834005}, {"on": false, "note": 45, "velocity": 0, "until": 375.50651830834033}, {"on": true, "note": 54, "velocity": 102, "until": 375.62190280834034}, {"on": false, "note": 54, "velocity": 0, "until": 375.73764050834035}, {"on": true, "note": 55, "velocity": 102, "until": 375.9825375083404}, {"on": false, "note": 55, "velocity": 0, "until": 376.9338695083405}, {"on": true, "note": 49, "velocity": 102, "until": 377.0563180083405}, {"on": false, "note": 49, "velocity": 0, "until": 377.1784133083405}, {"on": true, "note": 48, "velocity": 102, "until": 377.2937978083405}, {"on": false, "note": 48, "velocity": 0, "until": 377.4091823083405}, {"on": true, "note": 48, "velocity": 102, "until": 377.5245668083405}, {"on": false, "note": 48, "velocity": 0, "until": 377.64030450834053}, {"on": true, "note": 41, "velocity": 102, "until": 381.456684908341}, {"on": false, "note": 41, "velocity": 0, "until": 381.456684908341}, {"on": true, "note": 53, "velocity": 102, "until": 381.70359790834107}, {"on": false, "note": 53, "velocity": 0, "until": 382.42112440834114}, {"on": true, "note": 57, "velocity": 102, "until": 382.66905740834113}, {"on": false, "note": 57, "velocity": 0, "until": 383.38760413334114}, {"on": true, "note": 58, "velocity": 102, "until": 383.636566133341}, {"on": false, "note": 58, "velocity": 0, "until": 384.3544918333409}, {"on": true, "note": 58, "velocity": 102, "until": 384.61200183334097}, {"on": false, "note": 58, "velocity": 0, "until": 385.3534095833411}, {"on": true, "note": 58, "velocity": 102, "until": 385.61202958334115}, {"on": false, "note": 58, "velocity": 0, "until": 386.35839833334114}, {"on": true, "note": 58, "velocity": 102, "until": 386.61480833334105}, {"on": false, "note": 58, "velocity": 0, "until": 387.36106758334114}, {"on": true, "note": 58, "velocity": 102, "until": 387.6196875833412}, {"on": false, "note": 58, "velocity": 0, "until": 388.3742582833412}, {"on": true, "note": 58, "velocity": 102, "until": 388.6362662833413}, {"on": false, "note": 58, "velocity": 0, "until": 389.40443505834156}, {"on": true, "note": 46, "velocity": 102, "until": 389.65975405834155}, {"on": false, "note": 46, "velocity": 0, "until": 395.3290405083412}, {"on": true, "note": 46, "velocity": 26, "until": 395.57393750834126}, {"on": false, "note": 46, "velocity": 0, "until": 397.23170450834124}, {"on": true, "note": 51, "velocity": 26, "until": 397.4766015083413}, {"on": false, "note": 51, "velocity": 0, "until": 399.13436850834125}, {"on": true, "note": 46, "velocity": 26, "until": 399.3792655083413}, {"on": false, "note": 46, "velocity": 0, "until": 399.8545783083413}, {"on": true, "note": 46, "velocity": 26, "until": 400.0276550583413}, {"on": false, "note": 46, "velocity": 0, "until": 400.0857005083413}, {"on": true, "note": 50, "velocity": 26, "until": 400.2693732583413}, {"on": false, "note": 50, "velocity": 0, "until": 400.3305975083413}, {"on": true, "note": 53, "velocity": 26, "until": 400.51427025834136}, {"on": false, "note": 53, "velocity": 0, "until": 400.57514130834136}, {"on": true, "note": 58, "velocity": 26, "until": 400.7482180583413}, {"on": false, "note": 58, "velocity": 0, "until": 401.03703250834127}, {"on": true, "note": 51, "velocity": 26, "until": 401.2819295083413}, {"on": false, "note": 51, "velocity": 0, "until": 401.75724230834123}, {"on": true, "note": 51, "velocity": 26, "until": 401.9303190583412}, {"on": false, "note": 51, "velocity": 0, "until": 401.9883645083412}, {"on": true, "note": 55, "velocity": 26, "until": 402.1720372583412}, {"on": false, "note": 55, "velocity": 0, "until": 402.23326150834123}, {"on": true, "note": 58, "velocity": 26, "until": 402.41693425834126}, {"on": false, "note": 58, "velocity": 0, "until": 402.4778053083412}, {"on": true, "note": 63, "velocity": 26, "until": 402.6508820583412}, {"on": false, "note": 63, "velocity": 0, "until": 402.93969650834117}, {"on": true, "note": 56, "velocity": 102, "until": 403.18459350834115}, {"on": false, "note": 56, "velocity": 0, "until": 403.42939215834116}, {"on": true, "note": 60, "velocity": 102, "until": 403.6703551583412}, {"on": false, "note": 60, "velocity": 0, "until": 403.9114165083412}, {"on": true, "note": 53, "velocity": 102, "until": 404.1563135083412}, {"on": false, "note": 53, "velocity": 0, "until": 404.8851056083413}, {"on": true, "note": 56, "velocity": 102, "until": 405.13100660834135}, {"on": false, "note": 56, "velocity": 0, "until": 405.37683293334135}, {"on": true, "note": 55, "velocity": 102, "until": 405.61974693334133}, {"on": false, "note": 55, "velocity": 0, "until": 405.86276090834144}, {"on": true, "note": 48, "velocity": 102, "until": 406.10967390834145}, {"on": false, "note": 48, "velocity": 0, "until": 406.8423149333416}, {"on": true, "note": 51, "velocity": 66, "until": 406.9637719333416}, {"on": false, "note": 51, "velocity": 0, "until": 407.0852289333417}, {"on": true, "note": 51, "velocity": 53, "until": 407.2066859333417}, {"on": false, "note": 51, "velocity": 0, "until": 407.8140205083417}, {"on": true, "note": 51, "velocity": 66, "until": 407.9364690083417}, {"on": false, "note": 51, "velocity": 0, "until": 408.0589175083417}, {"on": true, "note": 51, "velocity": 53, "until": 408.18136600834174}, {"on": false, "note": 51, "velocity": 0, "until": 408.79371013334173}, {"on": true, "note": 51, "velocity": 66, "until": 408.9181911333417}, {"on": false, "note": 51, "velocity": 0, "until": 409.0426721333416}, {"on": true, "note": 51, "velocity": 53, "until": 409.16715313334157}, {"on": false, "note": 51, "velocity": 0, "until": 409.7896631833415}, {"on": true, "note": 51, "velocity": 82, "until": 409.9162451833415}, {"on": false, "note": 51, "velocity": 0, "until": 410.04282718334156}, {"on": true, "note": 51, "velocity": 66, "until": 410.1694091833416}, {"on": false, "note": 51, "velocity": 0, "until": 410.80242783334165}, {"on": true, "note": 51, "velocity": 82, "until": 410.9311828333417}, {"on": false, "note": 51, "velocity": 0, "until": 411.0599378333418}, {"on": true, "note": 51, "velocity": 66, "until": 411.1886928333419}, {"on": false, "note": 51, "velocity": 0, "until": 411.8325518083421}, {"on": true, "note": 51, "velocity": 82, "until": 411.9629863083422}, {"on": false, "note": 51, "velocity": 0, "until": 412.0934208083423}, {"on": true, "note": 51, "velocity": 66, "until": 412.2238553083423}, {"on": false, "note": 51, "velocity": 0, "until": 412.8761727333425}, {"on": true, "note": 49, "velocity": 82, "until": 413.0095057333425}, {"on": false, "note": 49, "velocity": 0, "until": 413.1428387333425}, {"on": true, "note": 49, "velocity": 66, "until": 413.2761717333425}, {"on": false, "note": 49, "velocity": 0, "until": 413.9429882583425}, {"on": true, "note": 48, "velocity": 82, "until": 414.07935175834257}, {"on": false, "note": 48, "velocity": 0, "until": 414.2157152583427}, {"on": true, "note": 48, "velocity": 66, "until": 414.35207875834277}, {"on": false, "note": 48, "velocity": 0, "until": 415.0340548083429}, {"on": true, "note": 48, "velocity": 82, "until": 415.1735893083428}, {"on": false, "note": 48, "velocity": 0, "until": 415.3131238083427}, {"on": true, "note": 48, "velocity": 66, "until": 415.4526583083426}, {"on": false, "note": 48, "velocity": 0, "until": 423.85973050834144}, {"on": true, "note": 60, "velocity": 92, "until": 424.30054510834145}, {"on": false, "note": 60, "velocity": 0, "until": 424.3491713083414}, {"on": true, "note": 60, "velocity": 92, "until": 424.7645555083413}, {"on": false, "note": 60, "velocity": 0, "until": 424.8110625083413}, {"on": true, "note": 60, "velocity": 92, "until": 425.30050330834126}, {"on": false, "note": 60, "velocity": 0, "until": 425.7622720833413}, {"on": true, "note": 55, "velocity": 102, "until": 425.9782720833414}, {"on": false, "note": 55, "velocity": 0, "until": 426.00227208334144}, {"on": true, "note": 55, "velocity": 102, "until": 426.2182720833415}, {"on": false, "note": 55, "velocity": 0, "until": 426.24227208334156}, {"on": true, "note": 55, "velocity": 102, "until": 426.45827208334157}, {"on": false, "note": 55, "velocity": 0, "until": 426.4822720833416}, {"on": true, "note": 55, "velocity": 102, "until": 426.6982720833417}, {"on": false, "note": 55, "velocity": 0, "until": 426.72227208334175}, {"on": true, "note": 55, "velocity": 102, "until": 427.2020413083418}, {"on": false, "note": 55, "velocity": 0, "until": 427.2020413083418}, {"on": true, "note": 55, "velocity": 102, "until": 427.2597335583418}, {"on": false, "note": 55, "velocity": 0, "until": 427.3174258083418}, {"on": true, "note": 53, "velocity": 102, "until": 427.3751180583418}, {"on": false, "note": 53, "velocity": 0, "until": 427.4328103083418}, {"on": true, "note": 52, "velocity": 102, "until": 427.49050255834186}, {"on": false, "note": 52, "velocity": 0, "until": 427.5481948083419}, {"on": true, "note": 50, "velocity": 102, "until": 427.605887058342}, {"on": false, "note": 50, "velocity": 0, "until": 427.66393250834193}, {"on": true, "note": 48, "velocity": 92, "until": 428.1533733083419}, {"on": false, "note": 48, "velocity": 0, "until": 428.1533733083419}, {"on": true, "note": 60, "velocity": 92, "until": 428.6152645083418}, {"on": false, "note": 60, "velocity": 0, "until": 428.6152645083418}, {"on": true, "note": 60, "velocity": 92, "until": 429.10470530834175}, {"on": false, "note": 60, "velocity": 0, "until": 429.56637958334153}, {"on": true, "note": 52, "velocity": 102, "until": 429.6844895833415}, {"on": false, "note": 52, "velocity": 0, "until": 429.80259958334136}, {"on": true, "note": 52, "velocity": 102, "until": 429.9207095833413}, {"on": false, "note": 52, "velocity": 0, "until": 430.0388195833412}, {"on": true, "note": 52, "velocity": 102, "until": 430.15692958334114}, {"on": false, "note": 52, "velocity": 0, "until": 430.275039583341}, {"on": true, "note": 52, "velocity": 102, "until": 430.39314958334097}, {"on": false, "note": 52, "velocity": 0, "until": 430.51125958334086}, {"on": true, "note": 52, "velocity": 102, "until": 430.9835633083398}, {"on": false, "note": 52, "velocity": 0, "until": 435.29779050833935}, {"on": true, "note": 55, "velocity": 102, "until": 435.42023900833937}, {"on": false, "note": 55, "velocity": 0, "until": 435.5426875083394}, {"on": true, "note": 55, "velocity": 102, "until": 436.01800030833914}, {"on": false, "note": 55, "velocity": 0, "until": 436.01800030833914}, {"on": true, "note": 60, "velocity": 102, "until": 436.22953855833913}, {"on": false, "note": 60, "velocity": 0, "until": 436.24912250833916}, {"on": true, "note": 55, "velocity": 102, "until": 436.3715710083392}, {"on": false, "note": 55, "velocity": 0, "until": 436.4940195083392}, {"on": true, "note": 55, "velocity": 102, "until": 436.96933230833895}, {"on": false, "note": 55, "velocity": 0, "until": 436.96933230833895}, {"on": true, "note": 60, "velocity": 102, "until": 437.18087055833894}, {"on": false, "note": 60, "velocity": 0, "until": 437.20045450833896}, {"on": true, "note": 55, "velocity": 102, "until": 437.322903008339}, {"on": false, "note": 55, "velocity": 0, "until": 437.445351508339}, {"on": true, "note": 55, "velocity": 102, "until": 437.92066430833876}, {"on": false, "note": 55, "velocity": 0, "until": 437.92066430833876}, {"on": true, "note": 60, "velocity": 102, "until": 438.13220255833875}, {"on": false, "note": 60, "velocity": 0, "until": 438.1517865083388}, {"on": true, "note": 55, "velocity": 102, "until": 438.3966835083388}, {"on": false, "note": 55, "velocity": 0, "until": 442.7378163083384}, {"on": true, "note": 48, "velocity": 102, "until": 442.85320080833833}, {"on": false, "note": 48, "velocity": 0, "until": 442.9688160833383}, {"on": true, "note": 53, "velocity": 102, "until": 443.0888160833384}, {"on": false, "note": 53, "velocity": 0, "until": 443.20881608333843}, {"on": true, "note": 48, "velocity": 102, "until": 443.3288160833385}, {"on": false, "note": 48, "velocity": 0, "until": 443.44881608333856}, {"on": true, "note": 53, "velocity": 102, "until": 443.5688160833386}, {"on": false, "note": 53, "velocity": 0, "until": 443.6888160833387}, {"on": true, "note": 48, "velocity": 102, "until": 443.80881608333874}, {"on": false, "note": 48, "velocity": 0, "until": 443.9288160833388}, {"on": true, "note": 53, "velocity": 102, "until": 444.40858530833964}, {"on": false, "note": 53, "velocity": 0, "until": 446.52381630833906}, {"on": true, "note": 55, "velocity": 102, "until": 446.639200808339}, {"on": false, "note": 55, "velocity": 0, "until": 446.7547215833389}, {"on": true, "note": 60, "velocity": 102, "until": 446.8728315833388}, {"on": false, "note": 60, "velocity": 0, "until": 446.99094158333867}, {"on": true, "note": 55, "velocity": 102, "until": 447.10905158333856}, {"on": false, "note": 55, "velocity": 0, "until": 447.22716158333844}, {"on": true, "note": 60, "velocity": 102, "until": 447.34527158333833}, {"on": false, "note": 60, "velocity": 0, "until": 447.4633815833382}, {"on": true, "note": 55, "velocity": 102, "until": 447.5814915833381}, {"on": false, "note": 55, "velocity": 0, "until": 447.699601583338}, {"on": true, "note": 60, "velocity": 102, "until": 447.9358215833379}, {"on": false, "note": 60, "velocity": 0, "until": 448.1719053083378}, {"on": true, "note": 55, "velocity": 102, "until": 448.6142125583375}, {"on": false, "note": 55, "velocity": 0, "until": 448.6337965083375}, {"on": true, "note": 52, "velocity": 102, "until": 449.1031824250042}, {"on": false, "note": 52, "velocity": 0, "until": 449.1232373083375}, {"on": true, "note": 54, "velocity": 102, "until": 449.5655445583372}, {"on": false, "note": 54, "velocity": 0, "until": 449.5851285083372}, {"on": true, "note": 55, "velocity": 102, "until": 450.0545144250039}, {"on": false, "note": 55, "velocity": 0, "until": 450.0745693083372}, {"on": true, "note": 43, "velocity": 102, "until": 450.5168765583369}, {"on": false, "note": 43, "velocity": 0, "until": 450.5364605083369}, {"on": true, "note": 48, "velocity": 102, "until": 450.6385009250036}, {"on": false, "note": 48, "velocity": 0, "until": 450.65890900833693}, {"on": true, "note": 48, "velocity": 102, "until": 450.7609494250036}, {"on": false, "note": 48, "velocity": 0, "until": 450.78135750833695}, {"on": true, "note": 48, "velocity": 102, "until": 450.88339792500364}, {"on": false, "note": 48, "velocity": 0, "until": 450.90380600833697}, {"on": true, "note": 48, "velocity": 102, "until": 451.00584642500365}, {"on": false, "note": 48, "velocity": 0, "until": 451.0259013083369}, {"on": true, "note": 48, "velocity": 102, "until": 451.1220550583369}, {"on": false, "note": 48, "velocity": 0, "until": 451.14128580833693}, {"on": true, "note": 48, "velocity": 102, "until": 451.2374395583369}, {"on": false, "note": 48, "velocity": 0, "until": 451.2566703083369}, {"on": true, "note": 51, "velocity": 102, "until": 451.35282405833686}, {"on": false, "note": 51, "velocity": 0, "until": 451.3720548083369}, {"on": true, "note": 51, "velocity": 102, "until": 451.46820855833687}, {"on": false, "note": 51, "velocity": 0, "until": 451.4877925083369}, {"on": true, "note": 48, "velocity": 102, "until": 451.5898329250036}, {"on": false, "note": 48, "velocity": 0, "until": 451.6102410083369}, {"on": true, "note": 48, "velocity": 102, "until": 451.7122814250036}, {"on": false, "note": 48, "velocity": 0, "until": 451.73268950833693}, {"on": true, "note": 48, "velocity": 102, "until": 451.8347299250036}, {"on": false, "note": 48, "velocity": 0, "until": 451.85513800833695}, {"on": true, "note": 48, "velocity": 102, "until": 451.95717842500363}, {"on": false, "note": 48, "velocity": 0, "until": 451.9772333083369}, {"on": true, "note": 48, "velocity": 102, "until": 452.0733870583367}, {"on": false, "note": 48, "velocity": 0, "until": 452.0926178083366}, {"on": true, "note": 48, "velocity": 102, "until": 452.18877155833644}, {"on": false, "note": 48, "velocity": 0, "until": 452.2080023083364}, {"on": true, "note": 51, "velocity": 102, "until": 452.3041560583364}, {"on": false, "note": 51, "velocity": 0, "until": 452.3233868083364}, {"on": true, "note": 51, "velocity": 102, "until": 452.4195405583364}, {"on": false, "note": 51, "velocity": 0, "until": 452.4391245083364}, {"on": true, "note": 48, "velocity": 102, "until": 452.5411649250031}, {"on": false, "note": 48, "velocity": 0, "until": 452.56157300833644}, {"on": true, "note": 48, "velocity": 102, "until": 452.6636134250031}, {"on": false, "note": 48, "velocity": 0, "until": 452.68402150833646}, {"on": true, "note": 51, "velocity": 102, "until": 452.78606192500314}, {"on": false, "note": 51, "velocity": 0, "until": 452.8064700083365}, {"on": true, "note": 51, "velocity": 102, "until": 452.90851042500316}, {"on": false, "note": 51, "velocity": 0, "until": 452.92856530833643}, {"on": true, "note": 48, "velocity": 102, "until": 453.0247190583363}, {"on": false, "note": 48, "velocity": 0, "until": 453.0439498083362}, {"on": true, "note": 48, "velocity": 102, "until": 453.14010355833614}, {"on": false, "note": 48, "velocity": 0, "until": 453.1593343083361}, {"on": true, "note": 51, "velocity": 102, "until": 453.2554880583361}, {"on": false, "note": 51, "velocity": 0, "until": 453.2747188083361}, {"on": true, "note": 51, "velocity": 102, "until": 453.37087255833603}, {"on": false, "note": 51, "velocity": 0, "until": 453.39045650833606}, {"on": true, "note": 48, "velocity": 102, "until": 453.49249692500274}, {"on": false, "note": 48, "velocity": 0, "until": 453.5129050083361}, {"on": true, "note": 48, "velocity": 102, "until": 453.61494542500276}, {"on": false, "note": 48, "velocity": 0, "until": 453.6353535083361}, {"on": true, "note": 51, "velocity": 102, "until": 453.7373939250028}, {"on": false, "note": 51, "velocity": 0, "until": 453.7578020083361}, {"on": true, "note": 51, "velocity": 102, "until": 453.8598424250028}, {"on": false, "note": 51, "velocity": 0, "until": 453.87989730833607}, {"on": true, "note": 48, "velocity": 102, "until": 453.97605105833594}, {"on": false, "note": 48, "velocity": 0, "until": 453.99528180833585}, {"on": true, "note": 48, "velocity": 102, "until": 454.0914355583358}, {"on": false, "note": 48, "velocity": 0, "until": 454.11066630833574}, {"on": true, "note": 51, "velocity": 102, "until": 454.2068200583357}, {"on": false, "note": 51, "velocity": 0, "until": 454.22605080833574}, {"on": true, "note": 51, "velocity": 102, "until": 454.32220455833567}, {"on": false, "note": 51, "velocity": 0, "until": 454.3417885083357}, {"on": true, "note": 56, "velocity": 102, "until": 454.4438289250024}, {"on": false, "note": 56, "velocity": 0, "until": 454.4642370083357}, {"on": true, "note": 56, "velocity": 102, "until": 454.5662774250024}, {"on": false, "note": 56, "velocity": 0, "until": 454.58668550833573}, {"on": true, "note": 56, "velocity": 102, "until": 454.6887259250024}, {"on": false, "note": 56, "velocity": 0, "until": 454.70913400833575}, {"on": true, "note": 56, "velocity": 102, "until": 454.81117442500243}, {"on": false, "note": 56, "velocity": 0, "until": 454.8312293083357}, {"on": true, "note": 56, "velocity": 102, "until": 454.9273830583357}, {"on": false, "note": 56, "velocity": 0, "until": 454.9466138083357}, {"on": true, "note": 56, "velocity": 102, "until": 455.0427675583357}, {"on": false, "note": 56, "velocity": 0, "until": 455.06199830833566}, {"on": true, "note": 55, "velocity": 102, "until": 455.15815205833565}, {"on": false, "note": 55, "velocity": 0, "until": 455.17738280833566}, {"on": true, "note": 55, "velocity": 102, "until": 455.2735365583356}, {"on": false, "note": 55, "velocity": 0, "until": 455.2931205083356}, {"on": true, "note": 56, "velocity": 102, "until": 455.3951609250023}, {"on": false, "note": 56, "velocity": 0, "until": 455.41556900833564}, {"on": true, "note": 56, "velocity": 102, "until": 455.5176094250023}, {"on": false, "note": 56, "velocity": 0, "until": 455.53801750833566}, {"on": true, "note": 56, "velocity": 102, "until": 455.64005792500234}, {"on": false, "note": 56, "velocity": 0, "until": 455.6604660083357}, {"on": true, "note": 56, "velocity": 102, "until": 455.76250642500236}, {"on": false, "note": 56, "velocity": 0, "until": 455.78256130833563}, {"on": true, "note": 56, "velocity": 102, "until": 455.8787150583356}, {"on": false, "note": 56, "velocity": 0, "until": 455.89794580833563}, {"on": true, "note": 56, "velocity": 102, "until": 455.9940995583356}, {"on": false, "note": 56, "velocity": 0, "until": 456.0133303083356}, {"on": true, "note": 55, "velocity": 102, "until": 456.10948405833557}, {"on": false, "note": 55, "velocity": 0, "until": 456.1287148083356}, {"on": true, "note": 55, "velocity": 102, "until": 456.2248685583355}, {"on": false, "note": 55, "velocity": 0, "until": 456.24445250833554}, {"on": true, "note": 56, "velocity": 102, "until": 456.3464929250022}, {"on": false, "note": 56, "velocity": 0, "until": 456.36690100833556}, {"on": true, "note": 56, "velocity": 102, "until": 456.46894142500224}, {"on": false, "note": 56, "velocity": 0, "until": 456.4893495083356}, {"on": true, "note": 55, "velocity": 102, "until": 456.59138992500226}, {"on": false, "note": 55, "velocity": 0, "until": 456.6117980083356}, {"on": true, "note": 55, "velocity": 102, "until": 456.7138384250023}, {"on": false, "note": 55, "velocity": 0, "until": 456.73389330833555}, {"on": true, "note": 56, "velocity": 102, "until": 456.8300470583354}, {"on": false, "note": 56, "velocity": 0, "until": 456.84927780833533}, {"on": true, "note": 56, "velocity": 102, "until": 456.94543155833526}, {"on": false, "note": 56, "velocity": 0, "until": 456.9646623083352}, {"on": true, "note": 55, "velocity": 102, "until": 457.0608160583352}, {"on": false, "note": 55, "velocity": 0, "until": 457.0800468083352}, {"on": true, "note": 55, "velocity": 102, "until": 457.17620055833515}, {"on": false, "note": 55, "velocity": 0, "until": 457.1957845083352}, {"on": true, "note": 56, "velocity": 102, "until": 457.29782492500186}, {"on": false, "note": 56, "velocity": 0, "until": 457.3182330083352}, {"on": true, "note": 56, "velocity": 102, "until": 457.4202734250019}, {"on": false, "note": 56, "velocity": 0, "until": 457.4406815083352}, {"on": true, "note": 55, "velocity": 102, "until": 457.5427219250019}, {"on": false, "note": 55, "velocity": 0, "until": 457.56313000833524}, {"on": true, "note": 55, "velocity": 102, "until": 457.6651704250019}, {"on": false, "note": 55, "velocity": 0, "until": 457.6852253083352}, {"on": true, "note": 56, "velocity": 102, "until": 457.78137905833506}, {"on": false, "note": 56, "velocity": 0, "until": 457.80060980833497}, {"on": true, "note": 56, "velocity": 102, "until": 457.8967635583349}, {"on": false, "note": 56, "velocity": 0, "until": 457.91599430833486}, {"on": true, "note": 56, "velocity": 102, "until": 458.01214805833484}, {"on": false, "note": 56, "velocity": 0, "until": 458.03137880833486}, {"on": true, "note": 56, "velocity": 102, "until": 458.1275325583348}, {"on": false, "note": 56, "velocity": 0, "until": 458.1471165083348}, {"on": true, "note": 55, "velocity": 102, "until": 458.39201350833486}, {"on": false, "note": 55, "velocity": 0, "until": 462.05300423333455}, {"on": true, "note": 48, "velocity": 102, "until": 462.1157657333345}, {"on": false, "note": 48, "velocity": 0, "until": 462.1785272333345}, {"on": true, "note": 48, "velocity": 102, "until": 462.24128873333444}, {"on": false, "note": 48, "velocity": 0, "until": 462.3040502333344}, {"on": true, "note": 48, "velocity": 102, "until": 462.3668117333344}, {"on": false, "note": 48, "velocity": 0, "until": 462.42957323333434}, {"on": true, "note": 48, "velocity": 102, "until": 462.4923347333343}, {"on": false, "note": 48, "velocity": 0, "until": 462.55486845833434}, {"on": true, "note": 48, "velocity": 102, "until": 462.7766422083344}, {"on": false, "note": 48, "velocity": 0, "until": 462.79680345833447}, {"on": true, "note": 48, "velocity": 102, "until": 463.01857720833453}, {"on": false, "note": 48, "velocity": 0, "until": 463.0389662333345}, {"on": true, "note": 48, "velocity": 102, "until": 463.1017277333345}, {"on": false, "note": 48, "velocity": 0, "until": 463.16448923333445}, {"on": true, "note": 48, "velocity": 102, "until": 463.2272507333344}, {"on": false, "note": 48, "velocity": 0, "until": 463.2900122333344}, {"on": true, "note": 48, "velocity": 102, "until": 463.35277373333435}, {"on": false, "note": 48, "velocity": 0, "until": 463.4155352333343}, {"on": true, "note": 48, "velocity": 102, "until": 463.4782967333343}, {"on": false, "note": 48, "velocity": 0, "until": 463.5408304583343}, {"on": true, "note": 48, "velocity": 102, "until": 463.7626042083344}, {"on": false, "note": 48, "velocity": 0, "until": 463.78276545833444}, {"on": true, "note": 48, "velocity": 102, "until": 464.0045392083345}, {"on": false, "note": 48, "velocity": 0, "until": 464.0249282333345}, {"on": true, "note": 48, "velocity": 102, "until": 464.08768973333446}, {"on": false, "note": 48, "velocity": 0, "until": 464.1504512333344}, {"on": true, "note": 48, "velocity": 102, "until": 464.2132127333344}, {"on": false, "note": 48, "velocity": 0, "until": 464.27597423333435}, {"on": true, "note": 48, "velocity": 102, "until": 464.3387357333343}, {"on": false, "note": 48, "velocity": 0, "until": 464.4014972333343}, {"on": true, "note": 48, "velocity": 102, "until": 464.46425873333425}, {"on": false, "note": 48, "velocity": 0, "until": 464.5267924583343}, {"on": true, "note": 48, "velocity": 102, "until": 464.74856620833435}, {"on": false, "note": 48, "velocity": 0, "until": 464.7687274583344}, {"on": true, "note": 48, "velocity": 102, "until": 464.9905012083345}, {"on": false, "note": 48, "velocity": 0, "until": 465.01089023333446}, {"on": true, "note": 48, "velocity": 102, "until": 465.07365173333443}, {"on": false, "note": 48, "velocity": 0, "until": 465.1364132333344}, {"on": true, "note": 48, "velocity": 102, "until": 465.19917473333436}, {"on": false, "note": 48, "velocity": 0, "until": 465.2619362333343}, {"on": true, "note": 48, "velocity": 102, "until": 465.3246977333343}, {"on": false, "note": 48, "velocity": 0, "until": 465.38745923333425}, {"on": true, "note": 48, "velocity": 102, "until": 465.4502207333342}, {"on": false, "note": 48, "velocity": 0, "until": 465.51275445833426}, {"on": true, "note": 48, "velocity": 102, "until": 465.7345282083343}, {"on": false, "note": 48, "velocity": 0, "until": 465.7546894583344}, {"on": true, "note": 48, "velocity": 102, "until": 465.97646320833445}, {"on": false, "note": 48, "velocity": 0, "until": 465.99685223333444}, {"on": true, "note": 47, "velocity": 102, "until": 466.0596137333343}, {"on": false, "note": 47, "velocity": 0, "until": 466.1223752333341}, {"on": true, "note": 47, "velocity": 102, "until": 466.18513673333393}, {"on": false, "note": 47, "velocity": 0, "until": 466.24789823333373}, {"on": true, "note": 47, "velocity": 102, "until": 466.3106597333335}, {"on": false, "note": 47, "velocity": 0, "until": 466.3734212333334}, {"on": true, "note": 47, "velocity": 102, "until": 466.4361827333333}, {"on": false, "note": 47, "velocity": 0, "until": 466.4987164583332}, {"on": true, "note": 47, "velocity": 102, "until": 466.7204902083333}, {"on": false, "note": 47, "velocity": 0, "until": 466.74065145833333}, {"on": true, "note": 43, "velocity": 102, "until": 466.9624252083334}, {"on": false, "note": 43, "velocity": 0, "until": 466.9828142333334}, {"on": true, "note": 48, "velocity": 102, "until": 467.1083372333333}, {"on": false, "note": 48, "velocity": 0, "until": 467.23386023333325}, {"on": true, "note": 43, "velocity": 87, "until": 467.3593832333332}, {"on": false, "note": 43, "velocity": 0, "until": 467.4846784583332}, {"on": true, "note": 48, "velocity": 87, "until": 467.60564595833324}, {"on": false, "note": 48, "velocity": 0, "until": 467.7266134583333}, {"on": true, "note": 48, "velocity": 87, "until": 467.84758095833337}, {"on": false, "note": 48, "velocity": 0, "until": 467.96877623333336}, {"on": true, "note": 43, "velocity": 102, "until": 468.0315377333332}, {"on": false, "note": 43, "velocity": 0, "until": 468.094299233333}, {"on": true, "note": 43, "velocity": 102, "until": 468.15706073333286}, {"on": false, "note": 43, "velocity": 0, "until": 468.21982223333265}, {"on": true, "note": 43, "velocity": 102, "until": 468.28258373333244}, {"on": false, "note": 43, "velocity": 0, "until": 468.3453452333323}, {"on": true, "note": 43, "velocity": 102, "until": 468.4081067333322}, {"on": false, "note": 43, "velocity": 0, "until": 468.4706404583321}, {"on": true, "note": 43, "velocity": 102, "until": 468.6924142083322}, {"on": false, "note": 43, "velocity": 0, "until": 468.71257545833225}, {"on": true, "note": 43, "velocity": 102, "until": 468.9343492083323}, {"on": false, "note": 43, "velocity": 0, "until": 468.9547382333323}, {"on": true, "note": 48, "velocity": 102, "until": 469.08026123333224}, {"on": false, "note": 48, "velocity": 0, "until": 469.20578423333217}, {"on": true, "note": 43, "velocity": 87, "until": 469.3313072333321}, {"on": false, "note": 43, "velocity": 0, "until": 469.4566024583321}, {"on": true, "note": 48, "velocity": 87, "until": 469.6995645333322}, {"on": false, "note": 48, "velocity": 0, "until": 469.98191733333215}, {"on": true, "note": 48, "velocity": 102, "until": 470.04601983333214}, {"on": false, "note": 48, "velocity": 0, "until": 470.11012233333213}, {"on": true, "note": 48, "velocity": 102, "until": 470.1742248333321}, {"on": false, "note": 48, "velocity": 0, "until": 470.23832733333205}, {"on": true, "note": 48, "velocity": 102, "until": 470.30242983333204}, {"on": false, "note": 48, "velocity": 0, "until": 470.366532333332}, {"on": true, "note": 48, "velocity": 102, "until": 470.43063483333196}, {"on": false, "note": 48, "velocity": 0, "until": 470.49444950833197}, {"on": true, "note": 48, "velocity": 102, "until": 470.71893842499867}, {"on": false, "note": 48, "velocity": 0, "until": 470.739346508332}, {"on": true, "note": 48, "velocity": 102, "until": 470.9638354249987}, {"on": false, "note": 48, "velocity": 0, "until": 470.984531333332}, {"on": true, "note": 48, "velocity": 102, "until": 471.04863383333196}, {"on": false, "note": 48, "velocity": 0, "until": 471.112736333332}, {"on": true, "note": 48, "velocity": 102, "until": 471.176838833332}, {"on": false, "note": 48, "velocity": 0, "until": 471.240941333332}, {"on": true, "note": 48, "velocity": 102, "until": 471.305043833332}, {"on": false, "note": 48, "velocity": 0, "until": 471.36914633333197}, {"on": true, "note": 48, "velocity": 102, "until": 471.43324883333196}, {"on": false, "note": 48, "velocity": 0, "until": 471.497063508332}, {"on": true, "note": 48, "velocity": 102, "until": 471.7215524249987}, {"on": false, "note": 48, "velocity": 0, "until": 471.74196050833206}, {"on": true, "note": 48, "velocity": 102, "until": 471.96644942499876}, {"on": false, "note": 48, "velocity": 0, "until": 471.987145333332}, {"on": true, "note": 44, "velocity": 102, "until": 472.051247833332}, {"on": false, "note": 44, "velocity": 0, "until": 472.11535033333206}, {"on": true, "note": 44, "velocity": 102, "until": 472.17945283333205}, {"on": false, "note": 44, "velocity": 0, "until": 472.24355533333204}, {"on": true, "note": 44, "velocity": 102, "until": 472.30765783333203}, {"on": false, "note": 44, "velocity": 0, "until": 472.371760333332}, {"on": true, "note": 44, "velocity": 102, "until": 472.435862833332}, {"on": false, "note": 44, "velocity": 0, "until": 472.49967750833207}, {"on": true, "note": 44, "velocity": 102, "until": 472.72416642499877}, {"on": false, "note": 44, "velocity": 0, "until": 472.7445745083321}, {"on": true, "note": 44, "velocity": 102, "until": 472.9690634249988}, {"on": false, "note": 44, "velocity": 0, "until": 472.9897593333321}, {"on": true, "note": 44, "velocity": 102, "until": 473.05386183333206}, {"on": false, "note": 44, "velocity": 0, "until": 473.1179643333321}, {"on": true, "note": 44, "velocity": 102, "until": 473.1820668333321}, {"on": false, "note": 44, "velocity": 0, "until": 473.2461693333321}, {"on": true, "note": 44, "velocity": 102, "until": 473.3102718333321}, {"on": false, "note": 44, "velocity": 0, "until": 473.37437433333207}, {"on": true, "note": 44, "velocity": 102, "until": 473.43847683333206}, {"on": false, "note": 44, "velocity": 0, "until": 473.5022915083321}, {"on": true, "note": 45, "velocity": 102, "until": 473.7267804249988}, {"on": false, "note": 45, "velocity": 0, "until": 473.74718850833216}, {"on": true, "note": 45, "velocity": 102, "until": 473.97167742499886}, {"on": false, "note": 45, "velocity": 0, "until": 473.9923733333321}, {"on": true, "note": 46, "velocity": 102, "until": 474.05647583333206}, {"on": false, "note": 46, "velocity": 0, "until": 474.12057833333193}, {"on": true, "note": 46, "velocity": 102, "until": 474.1846808333319}, {"on": false, "note": 46, "velocity": 0, "until": 474.2487833333319}, {"on": true, "note": 46, "velocity": 102, "until": 474.3128858333319}, {"on": false, "note": 46, "velocity": 0, "until": 474.3769883333318}, {"on": true, "note": 46, "velocity": 102, "until": 474.4410908333317}, {"on": false, "note": 46, "velocity": 0, "until": 474.50490550833166}, {"on": true, "note": 46, "velocity": 102, "until": 474.7293944249983}, {"on": false, "note": 46, "velocity": 0, "until": 474.74980250833164}, {"on": true, "note": 46, "velocity": 102, "until": 474.97429142499834}, {"on": false, "note": 46, "velocity": 0, "until": 474.9949873333316}, {"on": true, "note": 51, "velocity": 102, "until": 475.12319233333153}, {"on": false, "note": 51, "velocity": 0, "until": 475.25139733333145}, {"on": true, "note": 46, "velocity": 87, "until": 475.3796023333314}, {"on": false, "note": 46, "velocity": 0, "until": 475.50751950833137}, {"on": true, "note": 51, "velocity": 87, "until": 475.6299680083314}, {"on": false, "note": 51, "velocity": 0, "until": 475.7524165083314}, {"on": true, "note": 51, "velocity": 87, "until": 475.8748650083314}, {"on": false, "note": 51, "velocity": 0, "until": 475.9976013333314}, {"on": true, "note": 46, "velocity": 102, "until": 476.0617038333313}, {"on": false, "note": 46, "velocity": 0, "until": 476.1258063333312}, {"on": true, "note": 46, "velocity": 102, "until": 476.1899088333312}, {"on": false, "note": 46, "velocity": 0, "until": 476.25401133333116}, {"on": true, "note": 46, "velocity": 102, "until": 476.31811383333115}, {"on": false, "note": 46, "velocity": 0, "until": 476.38221633333103}, {"on": true, "note": 46, "velocity": 102, "until": 476.44631883333096}, {"on": false, "note": 46, "velocity": 0, "until": 476.5101335083309}, {"on": true, "note": 46, "velocity": 102, "until": 476.6325820083309}, {"on": false, "note": 46, "velocity": 0, "until": 476.75503050833095}, {"on": true, "note": 46, "velocity": 102, "until": 476.87747900833097}, {"on": false, "note": 46, "velocity": 0, "until": 477.0002153333309}, {"on": true, "note": 51, "velocity": 102, "until": 477.12842033333084}, {"on": false, "note": 51, "velocity": 0, "until": 477.25662533333076}, {"on": true, "note": 46, "velocity": 87, "until": 477.3848303333307}, {"on": false, "note": 46, "velocity": 0, "until": 477.5127475083307}, {"on": true, "note": 51, "velocity": 87, "until": 477.7583402583307}, {"on": false, "note": 51, "velocity": 0, "until": 478.03052523333065}, {"on": true, "note": 55, "velocity": 102, "until": 478.4070942333301}, {"on": false, "note": 55, "velocity": 0, "until": 478.4070942333301}, {"on": true, "note": 56, "velocity": 102, "until": 478.53238945833}, {"on": false, "note": 56, "velocity": 0, "until": 478.53238945833}, {"on": true, "note": 55, "velocity": 102, "until": 478.75416320833006}, {"on": false, "note": 55, "velocity": 0, "until": 478.7743244583301}, {"on": true, "note": 53, "velocity": 102, "until": 478.8952919583302}, {"on": false, "note": 53, "velocity": 0, "until": 479.01648723333017}, {"on": true, "note": 51, "velocity": 102, "until": 479.1420102333301}, {"on": false, "note": 51, "velocity": 0, "until": 479.1420102333301}, {"on": true, "note": 55, "velocity": 102, "until": 479.24661273333004}, {"on": false, "note": 55, "velocity": 0, "until": 479.26753323332997}, {"on": true, "note": 53, "velocity": 102, "until": 479.33029473332994}, {"on": false, "note": 53, "velocity": 0, "until": 479.3930562333299}, {"on": true, "note": 50, "velocity": 102, "until": 479.45581773332987}, {"on": false, "note": 50, "velocity": 0, "until": 479.5183514583299}, {"on": true, "note": 48, "velocity": 102, "until": 479.76028645833}, {"on": false, "note": 48, "velocity": 0, "until": 481.9742954083294}, {"on": true, "note": 55, "velocity": 102, "until": 482.34619490832944}, {"on": false, "note": 55, "velocity": 0, "until": 482.34619490832944}, {"on": true, "note": 56, "velocity": 102, "until": 482.46989193332934}, {"on": false, "note": 56, "velocity": 0, "until": 482.46989193332934}, {"on": true, "note": 55, "velocity": 102, "until": 482.68728309999597}, {"on": false, "note": 55, "velocity": 0, "until": 482.7070459333292}, {"on": true, "note": 53, "velocity": 102, "until": 482.8256229333291}, {"on": false, "note": 53, "velocity": 0, "until": 482.9444694083291}, {"on": true, "note": 51, "velocity": 102, "until": 483.06843590832915}, {"on": false, "note": 51, "velocity": 0, "until": 483.06843590832915}, {"on": true, "note": 55, "velocity": 102, "until": 483.1717413249958}, {"on": false, "note": 55, "velocity": 0, "until": 483.1924024083292}, {"on": true, "note": 53, "velocity": 102, "until": 483.2543856583292}, {"on": false, "note": 53, "velocity": 0, "until": 483.31636890832925}, {"on": true, "note": 50, "velocity": 102, "until": 483.3783521583293}, {"on": false, "note": 50, "velocity": 0, "until": 483.4400659333292}, {"on": true, "note": 48, "velocity": 102, "until": 483.6772199333291}, {"on": false, "note": 48, "velocity": 0, "until": 485.8548659333291}, {"on": true, "note": 50, "velocity": 102, "until": 486.2192369333293}, {"on": false, "note": 50, "velocity": 0, "until": 486.2192369333293}, {"on": true, "note": 51, "velocity": 102, "until": 486.34034625832936}, {"on": false, "note": 51, "velocity": 0, "until": 486.34034625832936}, {"on": true, "note": 50, "velocity": 102, "until": 486.55026934166267}, {"on": false, "note": 50, "velocity": 0, "until": 486.5693532583294}, {"on": true, "note": 48, "velocity": 102, "until": 486.68385675832945}, {"on": false, "note": 48, "velocity": 0, "until": 486.7987079333295}, {"on": true, "note": 46, "velocity": 102, "until": 486.9201649333296}, {"on": false, "note": 46, "velocity": 0, "until": 486.9201649333296}, {"on": true, "note": 50, "velocity": 102, "until": 487.02137909999624}, {"on": false, "note": 50, "velocity": 0, "until": 487.0416219333296}, {"on": true, "note": 48, "velocity": 102, "until": 487.1023504333296}, {"on": false, "note": 48, "velocity": 0, "until": 487.16307893332964}, {"on": true, "note": 45, "velocity": 102, "until": 487.2238074333296}, {"on": false, "note": 45, "velocity": 0, "until": 487.28418825832966}, {"on": true, "note": 43, "velocity": 102, "until": 487.5131952583298}, {"on": false, "note": 43, "velocity": 0, "until": 487.7425499333299}, {"on": true, "note": 53, "velocity": 102, "until": 488.1069209333307}, {"on": false, "note": 53, "velocity": 0, "until": 488.1069209333307}, {"on": true, "note": 55, "velocity": 102, "until": 488.22803025833093}, {"on": false, "note": 55, "velocity": 0, "until": 488.22803025833093}, {"on": true, "note": 53, "velocity": 102, "until": 488.43795334166424}, {"on": false, "note": 53, "velocity": 0, "until": 488.45703725833096}, {"on": true, "note": 51, "velocity": 102, "until": 488.571540758331}, {"on": false, "note": 51, "velocity": 0, "until": 488.6863919333311}, {"on": true, "note": 50, "velocity": 102, "until": 488.8078489333312}, {"on": false, "note": 50, "velocity": 0, "until": 488.8078489333312}, {"on": true, "note": 53, "velocity": 102, "until": 488.9090630999978}, {"on": false, "note": 53, "velocity": 0, "until": 488.9293059333312}, {"on": true, "note": 51, "velocity": 102, "until": 488.9900344333312}, {"on": false, "note": 51, "velocity": 0, "until": 489.0507629333312}, {"on": true, "note": 48, "velocity": 102, "until": 489.1114914333312}, {"on": false, "note": 48, "velocity": 0, "until": 489.17187225833123}, {"on": true, "note": 46, "velocity": 102, "until": 489.4008792583313}, {"on": false, "note": 46, "velocity": 0, "until": 489.6313726083313}, {"on": true, "note": 44, "velocity": 102, "until": 489.918872083331}, {"on": false, "note": 44, "velocity": 0, "until": 491.64783633333093}, {"on": true, "note": 43, "velocity": 102, "until": 491.90424633333083}, {"on": false, "note": 43, "velocity": 0, "until": 492.65045033333075}, {"on": true, "note": 55, "velocity": 102, "until": 492.90686033333066}, {"on": false, "note": 55, "velocity": 0, "until": 493.69703423333084}, {"on": true, "note": 48, "velocity": 102, "until": 502.098107333333}, {"on": false, "note": 48, "velocity": 0, "until": 502.354083158333}, {"on": true, "note": 57, "velocity": 102, "until": 502.473604658333}, {"on": false, "note": 57, "velocity": 0, "until": 502.59312615833295}, {"on": true, "note": 57, "velocity": 102, "until": 502.7126476583329}, {"on": false, "note": 57, "velocity": 0, "until": 502.8324430833329}, {"on": true, "note": 50, "velocity": 102, "until": 503.0824430833329}, {"on": false, "note": 50, "velocity": 0, "until": 503.3320985833328}, {"on": true, "note": 48, "velocity": 102, "until": 503.4502085833327}, {"on": false, "note": 48, "velocity": 0, "until": 503.5683185833326}, {"on": true, "note": 48, "velocity": 102, "until": 503.6864285833325}, {"on": false, "note": 48, "velocity": 0, "until": 503.8048059083325}, {"on": true, "note": 53, "velocity": 102, "until": 504.05304608333256}, {"on": false, "note": 53, "velocity": 0, "until": 505.83265633333247}, {"on": true, "note": 57, "velocity": 102, "until": 506.8352160083326}, {"on": false, "note": 57, "velocity": 0, "until": 506.8352160083326}, {"on": true, "note": 50, "velocity": 102, "until": 507.08945300833255}, {"on": false, "note": 50, "velocity": 0, "until": 507.8255625833326}, {"on": true, "note": 55, "velocity": 102, "until": 508.07766258333265}, {"on": false, "note": 55, "velocity": 0, "until": 508.81556423333257}, {"on": true, "note": 43, "velocity": 102, "until": 509.0666102333324}, {"on": false, "note": 43, "velocity": 0, "until": 509.8014741333323}, {"on": true, "note": 48, "velocity": 102, "until": 510.05043613333225}, {"on": false, "note": 48, "velocity": 0, "until": 510.2990795833322}, {"on": true, "note": 45, "velocity": 102, "until": 510.41718958333206}, {"on": false, "note": 45, "velocity": 0, "until": 510.53529958333195}, {"on": true, "note": 45, "velocity": 102, "until": 510.65340958333184}, {"on": false, "note": 45, "velocity": 0, "until": 510.7717616083319}, {"on": true, "note": 50, "velocity": 102, "until": 511.0176626083319}, {"on": false, "note": 50, "velocity": 0, "until": 511.26327545833186}, {"on": true, "note": 48, "velocity": 102, "until": 511.38046295833186}, {"on": false, "note": 48, "velocity": 0, "until": 511.49765045833186}, {"on": true, "note": 48, "velocity": 102, "until": 511.61483795833186}, {"on": false, "note": 48, "velocity": 0, "until": 511.7322389333319}, {"on": true, "note": 53, "velocity": 102, "until": 511.97658008333195}, {"on": false, "note": 53, "velocity": 0, "until": 514.166013258332}, {"on": true, "note": 53, "velocity": 102, "until": 514.2805167583322}, {"on": false, "note": 53, "velocity": 0, "until": 514.3950202583325}, {"on": true, "note": 53, "velocity": 102, "until": 514.5095237583326}, {"on": false, "note": 53, "velocity": 0, "until": 514.6243749333329}, {"on": true, "note": 54, "velocity": 102, "until": 515.1000815166669}, {"on": false, "note": 54, "velocity": 0, "until": 515.1098552583337}, {"on": true, "note": 54, "velocity": 102, "until": 515.2243587583339}, {"on": false, "note": 54, "velocity": 0, "until": 515.3388622583341}, {"on": true, "note": 54, "velocity": 102, "until": 515.4533657583343}, {"on": false, "note": 54, "velocity": 0, "until": 515.5682169333343}, {"on": true, "note": 55, "velocity": 102, "until": 516.0544375833341}, {"on": false, "note": 55, "velocity": 0, "until": 516.5434339333341}, {"on": true, "note": 43, "velocity": 102, "until": 516.7863479333344}, {"on": false, "note": 43, "velocity": 0, "until": 517.4998499333343}, {"on": true, "note": 48, "velocity": 102, "until": 517.7427639333343}, {"on": false, "note": 48, "velocity": 0, "until": 518.4562659333342}, {"on": true, "note": 55, "velocity": 102, "until": 519.4126819333349}, {"on": false, "note": 55, "velocity": 0, "until": 519.4126819333349}, {"on": true, "note": 53, "velocity": 102, "until": 519.6555959333349}, {"on": false, "note": 53, "velocity": 0, "until": 520.369097933335}, {"on": true, "note": 55, "velocity": 102, "until": 520.6120119333349}, {"on": false, "note": 55, "velocity": 0, "until": 521.3255139333346}, {"on": true, "note": 60, "velocity": 102, "until": 521.5684279333344}, {"on": false, "note": 60, "velocity": 0, "until": 522.2819299333343}, {"on": true, "note": 55, "velocity": 102, "until": 523.2383459333349}, {"on": false, "note": 55, "velocity": 0, "until": 523.2383459333349}, {"on": true, "note": 53, "velocity": 102, "until": 523.4812599333352}, {"on": false, "note": 53, "velocity": 0, "until": 524.1947619333351}, {"on": true, "note": 53, "velocity": 102, "until": 524.4376759333351}, {"on": false, "note": 53, "velocity": 0, "until": 525.1386039333348}, {"on": true, "note": 55, "velocity": 102, "until": 525.3815179333346}, {"on": false, "note": 55, "velocity": 0, "until": 530.801655933334}, {"on": true, "note": 55, "velocity": 102, "until": 531.0445699333341}, {"on": false, "note": 55, "velocity": 0, "until": 532.6893399333337}, {"on": true, "note": 48, "velocity": 102, "until": 532.9322539333336}, {"on": false, "note": 48, "velocity": 0, "until": 534.5770239333332}, {"on": true, "note": 55, "velocity": 102, "until": 534.8199379333332}, {"on": false, "note": 55, "velocity": 0, "until": 536.4647079333329}, {"on": true, "note": 48, "velocity": 102, "until": 536.7076219333328}, {"on": false, "note": 48, "velocity": 0, "until": 538.3523919333328}, {"on": true, "note": 50, "velocity": 102, "until": 538.5953059333328}, {"on": false, "note": 50, "velocity": 0, "until": 538.8378722583329}, {"on": true, "note": 55, "velocity": 102, "until": 539.0668792583331}, {"on": false, "note": 55, "velocity": 0, "until": 539.2962339333332}, {"on": true, "note": 57, "velocity": 102, "until": 539.5391479333332}, {"on": false, "note": 57, "velocity": 0, "until": 539.7817142583333}, {"on": true, "note": 53, "velocity": 102, "until": 540.0107212583334}, {"on": false, "note": 53, "velocity": 0, "until": 540.2400759333334}, {"on": true, "note": 55, "velocity": 102, "until": 540.4829899333333}, {"on": false, "note": 55, "velocity": 0, "until": 540.7255562583334}, {"on": true, "note": 43, "velocity": 102, "until": 540.9545632583336}, {"on": false, "note": 43, "velocity": 0, "until": 541.1833395833336}, {"on": true, "note": 60, "velocity": 102, "until": 541.5862695833334}, {"on": false, "note": 60, "velocity": 0, "until": 541.6225774833334}, {"on": true, "note": 60, "velocity": 102, "until": 542.001886816667}, {"on": false, "note": 60, "velocity": 0, "until": 542.0365734083338}, {"on": true, "note": 60, "velocity": 102, "until": 542.4308372416672}, {"on": false, "note": 60, "velocity": 0, "until": 542.466457708334}, {"on": true, "note": 60, "velocity": 102, "until": 542.8444635416678}, {"on": false, "note": 60, "velocity": 0, "until": 542.8790302083346}, {"on": true, "note": 60, "velocity": 102, "until": 543.2718860416682}, {"on": false, "note": 60, "velocity": 0, "until": 543.3073625333349}, {"on": true, "note": 60, "velocity": 102, "until": 543.6827888666684}, {"on": false, "note": 60, "velocity": 0, "until": 543.7171562083353}, {"on": true, "note": 60, "velocity": 102, "until": 544.1454885333354}, {"on": false, "note": 60, "velocity": 0, "until": 544.5552822083358}, {"on": true, "note": 57, "velocity": 102, "until": 544.9836145333362}, {"on": false, "note": 57, "velocity": 0, "until": 545.3934082083366}, {"on": true, "note": 62, "velocity": 102, "until": 545.821740533337}, {"on": false, "note": 62, "velocity": 0, "until": 546.2315342083373}, {"on": true, "note": 57, "velocity": 102, "until": 546.6598665333377}, {"on": false, "note": 57, "velocity": 0, "until": 547.0696602083381}, {"on": true, "note": 62, "velocity": 102, "until": 547.4979925333384}, {"on": false, "note": 62, "velocity": 0, "until": 547.9077862083387}, {"on": true, "note": 55, "velocity": 117, "until": 547.9970716250057}, {"on": false, "note": 55, "velocity": 0, "until": 548.0149287083392}, {"on": true, "note": 55, "velocity": 102, "until": 548.1042141250059}, {"on": false, "note": 55, "velocity": 0, "until": 548.1220712083393}, {"on": true, "note": 55, "velocity": 102, "until": 548.211356625006}, {"on": false, "note": 55, "velocity": 0, "until": 548.2292137083394}, {"on": true, "note": 55, "velocity": 102, "until": 548.3184991250062}, {"on": false, "note": 55, "velocity": 0, "until": 548.3361185333396}, {"on": true, "note": 55, "velocity": 102, "until": 548.4214427000063}, {"on": false, "note": 55, "velocity": 0, "until": 548.4385075333397}, {"on": true, "note": 55, "velocity": 102, "until": 548.5238317000064}, {"on": false, "note": 55, "velocity": 0, "until": 548.5408965333398}, {"on": true, "note": 55, "velocity": 102, "until": 548.6262207000066}, {"on": false, "note": 55, "velocity": 0, "until": 548.64328553334}, {"on": true, "note": 55, "velocity": 102, "until": 548.7286097000067}, {"on": false, "note": 55, "velocity": 0, "until": 548.7459122083401}, {"on": true, "note": 55, "velocity": 102, "until": 548.8351976250068}, {"on": false, "note": 55, "velocity": 0, "until": 548.8530547083402}, {"on": true, "note": 55, "velocity": 102, "until": 548.9423401250069}, {"on": false, "note": 55, "velocity": 0, "until": 548.9601972083403}, {"on": true, "note": 55, "velocity": 102, "until": 549.049482625007}, {"on": false, "note": 55, "velocity": 0, "until": 549.0673397083405}, {"on": true, "note": 55, "velocity": 102, "until": 549.1566251250072}, {"on": false, "note": 55, "velocity": 0, "until": 549.1742445333406}, {"on": true, "note": 55, "velocity": 102, "until": 549.3448928666741}, {"on": false, "note": 55, "velocity": 0, "until": 549.3790225333408}, {"on": true, "note": 55, "velocity": 102, "until": 549.4302170333409}, {"on": false, "note": 55, "velocity": 0, "until": 549.4302170333409}, {"on": true, "note": 57, "velocity": 102, "until": 549.4814115333411}, {"on": false, "note": 57, "velocity": 0, "until": 549.4814115333411}, {"on": true, "note": 59, "velocity": 102, "until": 549.5326060333412}, {"on": false, "note": 59, "velocity": 0, "until": 549.5326060333412}, {"on": true, "note": 60, "velocity": 102, "until": 549.5840382083414}, {"on": false, "note": 60, "velocity": 0, "until": 549.5840382083414}, {"on": true, "note": 62, "velocity": 102, "until": 550.1830188666764}, {"on": false, "note": 62, "velocity": 0, "until": 550.2171485333432}, {"on": true, "note": 55, "velocity": 102, "until": 550.2683430333433}, {"on": false, "note": 55, "velocity": 0, "until": 550.2683430333433}, {"on": true, "note": 57, "velocity": 102, "until": 550.3195375333435}, {"on": false, "note": 57, "velocity": 0, "until": 550.3195375333435}, {"on": true, "note": 59, "velocity": 102, "until": 550.3707320333435}, {"on": false, "note": 59, "velocity": 0, "until": 550.3707320333435}, {"on": true, "note": 60, "velocity": 102, "until": 550.4221642083438}, {"on": false, "note": 60, "velocity": 0, "until": 550.4221642083438}, {"on": true, "note": 62, "velocity": 102, "until": 551.0211448666788}, {"on": false, "note": 62, "velocity": 0, "until": 551.0552745333456}, {"on": true, "note": 55, "velocity": 102, "until": 551.1064690333457}, {"on": false, "note": 55, "velocity": 0, "until": 551.1064690333457}, {"on": true, "note": 57, "velocity": 102, "until": 551.1576635333458}, {"on": false, "note": 57, "velocity": 0, "until": 551.1576635333458}, {"on": true, "note": 59, "velocity": 102, "until": 551.2088580333459}, {"on": false, "note": 59, "velocity": 0, "until": 551.2088580333459}, {"on": true, "note": 60, "velocity": 102, "until": 551.2602902083462}, {"on": false, "note": 60, "velocity": 0, "until": 551.2602902083462}, {"on": true, "note": 62, "velocity": 102, "until": 551.3495756250134}, {"on": false, "note": 62, "velocity": 0, "until": 551.367432708347}, {"on": true, "note": 55, "velocity": 102, "until": 551.4567181250142}, {"on": false, "note": 55, "velocity": 0, "until": 551.4745752083476}, {"on": true, "note": 55, "velocity": 102, "until": 551.5638606250143}, {"on": false, "note": 55, "velocity": 0, "until": 551.5817177083477}, {"on": true, "note": 55, "velocity": 102, "until": 551.6710031250144}, {"on": false, "note": 55, "velocity": 0, "until": 551.6886225333478}, {"on": true, "note": 55, "velocity": 102, "until": 551.7739467000146}, {"on": false, "note": 55, "velocity": 0, "until": 551.791011533348}, {"on": true, "note": 55, "velocity": 102, "until": 551.8763357000147}, {"on": false, "note": 55, "velocity": 0, "until": 551.8934005333481}, {"on": true, "note": 55, "velocity": 102, "until": 551.9787247000148}, {"on": false, "note": 55, "velocity": 0, "until": 551.9957895333482}, {"on": true, "note": 55, "velocity": 102, "until": 552.081113700015}, {"on": false, "note": 55, "velocity": 0, "until": 552.0984162083483}, {"on": true, "note": 55, "velocity": 102, "until": 552.187701625015}, {"on": false, "note": 55, "velocity": 0, "until": 552.2055587083485}, {"on": true, "note": 55, "velocity": 102, "until": 552.2948441250152}, {"on": false, "note": 55, "velocity": 0, "until": 552.3127012083486}, {"on": true, "note": 55, "velocity": 102, "until": 552.4019866250153}, {"on": false, "note": 55, "velocity": 0, "until": 552.4198437083487}, {"on": true, "note": 55, "velocity": 102, "until": 552.5091291250154}, {"on": false, "note": 55, "velocity": 0, "until": 552.5267485333488}, {"on": true, "note": 55, "velocity": 102, "until": 552.6973968666823}, {"on": false, "note": 55, "velocity": 0, "until": 552.7315265333491}, {"on": true, "note": 55, "velocity": 102, "until": 552.7827210333492}, {"on": false, "note": 55, "velocity": 0, "until": 552.7827210333492}, {"on": true, "note": 57, "velocity": 102, "until": 552.8339155333493}, {"on": false, "note": 57, "velocity": 0, "until": 552.8339155333493}, {"on": true, "note": 59, "velocity": 102, "until": 552.8851100333494}, {"on": false, "note": 59, "velocity": 0, "until": 552.8851100333494}, {"on": true, "note": 60, "velocity": 102, "until": 552.9365422083497}, {"on": false, "note": 60, "velocity": 0, "until": 552.9365422083497}, {"on": true, "note": 62, "velocity": 102, "until": 553.5355228666847}, {"on": false, "note": 62, "velocity": 0, "until": 553.5696525333515}, {"on": true, "note": 55, "velocity": 102, "until": 553.6208470333515}, {"on": false, "note": 55, "velocity": 0, "until": 553.6208470333515}, {"on": true, "note": 57, "velocity": 102, "until": 553.6720415333517}, {"on": false, "note": 57, "velocity": 0, "until": 553.6720415333517}, {"on": true, "note": 59, "velocity": 102, "until": 553.7232360333518}, {"on": false, "note": 59, "velocity": 0, "until": 553.7232360333518}, {"on": true, "note": 60, "velocity": 102, "until": 553.7746682083521}, {"on": false, "note": 60, "velocity": 0, "until": 553.7746682083521}, {"on": true, "note": 62, "velocity": 102, "until": 554.3736488666871}, {"on": false, "note": 62, "velocity": 0, "until": 554.4077785333538}, {"on": true, "note": 55, "velocity": 102, "until": 554.4487341333539}, {"on": false, "note": 55, "velocity": 0, "until": 554.4487341333539}, {"on": true, "note": 57, "velocity": 102, "until": 554.489689733354}, {"on": false, "note": 57, "velocity": 0, "until": 554.489689733354}, {"on": true, "note": 59, "velocity": 102, "until": 554.5306453333541}, {"on": false, "note": 59, "velocity": 0, "until": 554.5306453333541}, {"on": true, "note": 60, "velocity": 102, "until": 554.5716009333541}, {"on": false, "note": 60, "velocity": 0, "until": 554.5716009333541}, {"on": true, "note": 62, "velocity": 102, "until": 554.6127942083544}, {"on": false, "note": 62, "velocity": 0, "until": 554.6127942083544}, {"on": true, "note": 63, "velocity": 102, "until": 554.7020796250216}, {"on": false, "note": 63, "velocity": 0, "until": 554.7199367083552}, {"on": true, "note": 55, "velocity": 102, "until": 554.8092221250224}, {"on": false, "note": 55, "velocity": 0, "until": 554.8270792083558}, {"on": true, "note": 55, "velocity": 102, "until": 554.9163646250225}, {"on": false, "note": 55, "velocity": 0, "until": 554.934221708356}, {"on": true, "note": 55, "velocity": 102, "until": 555.0235071250227}, {"on": false, "note": 55, "velocity": 0, "until": 555.0411265333561}, {"on": true, "note": 55, "velocity": 102, "until": 555.1264507000228}, {"on": false, "note": 55, "velocity": 0, "until": 555.1435155333562}, {"on": true, "note": 55, "velocity": 102, "until": 555.228839700023}, {"on": false, "note": 55, "velocity": 0, "until": 555.2459045333563}, {"on": true, "note": 55, "velocity": 102, "until": 555.3312287000231}, {"on": false, "note": 55, "velocity": 0, "until": 555.3482935333565}, {"on": true, "note": 55, "velocity": 102, "until": 555.4336177000232}, {"on": false, "note": 55, "velocity": 0, "until": 555.4509202083566}, {"on": true, "note": 55, "velocity": 102, "until": 555.5402056250233}, {"on": false, "note": 55, "velocity": 0, "until": 555.5580627083567}, {"on": true, "note": 55, "velocity": 102, "until": 555.6473481250234}, {"on": false, "note": 55, "velocity": 0, "until": 555.6652052083568}, {"on": true, "note": 55, "velocity": 102, "until": 555.7544906250235}, {"on": false, "note": 55, "velocity": 0, "until": 555.772347708357}, {"on": true, "note": 55, "velocity": 102, "until": 555.8616331250237}, {"on": false, "note": 55, "velocity": 0, "until": 555.8792525333571}, {"on": true, "note": 55, "velocity": 102, "until": 555.9645767000238}, {"on": false, "note": 55, "velocity": 0, "until": 555.9816415333572}, {"on": true, "note": 55, "velocity": 102, "until": 556.066965700024}, {"on": false, "note": 55, "velocity": 0, "until": 556.0840305333573}, {"on": true, "note": 55, "velocity": 102, "until": 556.1693547000241}, {"on": false, "note": 55, "velocity": 0, "until": 556.1864195333575}, {"on": true, "note": 55, "velocity": 102, "until": 556.2717437000242}, {"on": false, "note": 55, "velocity": 0, "until": 556.2890462083577}, {"on": true, "note": 55, "velocity": 102, "until": 556.3783316250244}, {"on": false, "note": 55, "velocity": 0, "until": 556.3961887083578}, {"on": true, "note": 55, "velocity": 102, "until": 556.4854741250246}, {"on": false, "note": 55, "velocity": 0, "until": 556.503331208358}, {"on": true, "note": 55, "velocity": 102, "until": 556.5926166250247}, {"on": false, "note": 55, "velocity": 0, "until": 556.6104737083581}, {"on": true, "note": 55, "velocity": 102, "until": 556.6997591250248}, {"on": false, "note": 55, "velocity": 0, "until": 556.7173785333582}, {"on": true, "note": 55, "velocity": 102, "until": 556.802702700025}, {"on": false, "note": 55, "velocity": 0, "until": 556.8197675333583}, {"on": true, "note": 55, "velocity": 102, "until": 556.9050917000251}, {"on": false, "note": 55, "velocity": 0, "until": 556.9221565333585}, {"on": true, "note": 55, "velocity": 102, "until": 557.0074807000252}, {"on": false, "note": 55, "velocity": 0, "until": 557.0245455333586}, {"on": true, "note": 55, "velocity": 102, "until": 557.1098697000253}, {"on": false, "note": 55, "velocity": 0, "until": 557.1271722083588}, {"on": true, "note": 55, "velocity": 102, "until": 557.2164576250256}, {"on": false, "note": 55, "velocity": 0, "until": 557.234314708359}, {"on": true, "note": 55, "velocity": 102, "until": 557.3236001250257}, {"on": false, "note": 55, "velocity": 0, "until": 557.3414572083591}, {"on": true, "note": 55, "velocity": 102, "until": 557.4307426250258}, {"on": false, "note": 55, "velocity": 0, "until": 557.4485997083592}, {"on": true, "note": 55, "velocity": 102, "until": 557.5378851250259}, {"on": false, "note": 55, "velocity": 0, "until": 557.5555045333593}, {"on": true, "note": 55, "velocity": 102, "until": 557.6408287000261}, {"on": false, "note": 55, "velocity": 0, "until": 557.6578935333595}, {"on": true, "note": 55, "velocity": 102, "until": 557.7432177000262}, {"on": false, "note": 55, "velocity": 0, "until": 557.7602825333596}, {"on": true, "note": 55, "velocity": 102, "until": 557.8456067000263}, {"on": false, "note": 55, "velocity": 0, "until": 557.8626715333597}, {"on": true, "note": 55, "velocity": 102, "until": 557.9479957000265}, {"on": false, "note": 55, "velocity": 0, "until": 557.96529820836}, {"on": true, "note": 56, "velocity": 102, "until": 558.1795832083602}, {"on": false, "note": 56, "velocity": 0, "until": 558.8034242083605}, {"on": true, "note": 56, "velocity": 102, "until": 559.017709208361}, {"on": false, "note": 56, "velocity": 0, "until": 559.6415502083613}, {"on": true, "note": 55, "velocity": 102, "until": 559.8558352083618}, {"on": false, "note": 55, "velocity": 0, "until": 560.4796762083621}, {"on": true, "note": 43, "velocity": 102, "until": 560.6948540833623}, {"on": false, "note": 43, "velocity": 0, "until": 561.1689410583623}, {"on": true, "note": 55, "velocity": 102, "until": 561.2138848583623}, {"on": false, "note": 55, "velocity": 0, "until": 561.2138848583623}, {"on": true, "note": 57, "velocity": 102, "until": 561.2588286583624}, {"on": false, "note": 57, "velocity": 0, "until": 561.2588286583624}, {"on": true, "note": 59, "velocity": 102, "until": 561.3037724583625}, {"on": false, "note": 59, "velocity": 0, "until": 561.3037724583625}, {"on": true, "note": 60, "velocity": 102, "until": 561.3487162583625}, {"on": false, "note": 60, "velocity": 0, "until": 561.3487162583625}, {"on": true, "note": 62, "velocity": 102, "until": 561.3933992083627}, {"on": false, "note": 62, "velocity": 0, "until": 561.3933992083627}, {"on": true, "note": 63, "velocity": 102, "until": 561.4826846250296}, {"on": false, "note": 63, "velocity": 0, "until": 561.5005417083631}, {"on": true, "note": 55, "velocity": 102, "until": 561.5898271250298}, {"on": false, "note": 55, "velocity": 0, "until": 561.6076842083633}, {"on": true, "note": 55, "velocity": 102, "until": 561.69696962503}, {"on": false, "note": 55, "velocity": 0, "until": 561.7148267083634}, {"on": true, "note": 55, "velocity": 102, "until": 561.8041121250301}, {"on": false, "note": 55, "velocity": 0, "until": 561.8217315333635}, {"on": true, "note": 55, "velocity": 102, "until": 561.9070557000302}, {"on": false, "note": 55, "velocity": 0, "until": 561.9241205333636}, {"on": true, "note": 55, "velocity": 102, "until": 562.0094447000304}, {"on": false, "note": 55, "velocity": 0, "until": 562.0265095333638}, {"on": true, "note": 55, "velocity": 102, "until": 562.1118337000305}, {"on": false, "note": 55, "velocity": 0, "until": 562.1288985333639}, {"on": true, "note": 55, "velocity": 102, "until": 562.2142227000306}, {"on": false, "note": 55, "velocity": 0, "until": 562.231525208364}, {"on": true, "note": 55, "velocity": 102, "until": 562.3208106250307}, {"on": false, "note": 55, "velocity": 0, "until": 562.3386677083641}, {"on": true, "note": 55, "velocity": 102, "until": 562.4279531250309}, {"on": false, "note": 55, "velocity": 0, "until": 562.4458102083643}, {"on": true, "note": 55, "velocity": 102, "until": 562.535095625031}, {"on": false, "note": 55, "velocity": 0, "until": 562.5529527083644}, {"on": true, "note": 55, "velocity": 102, "until": 562.6422381250311}, {"on": false, "note": 55, "velocity": 0, "until": 562.6598575333645}, {"on": true, "note": 55, "velocity": 102, "until": 562.7451817000313}, {"on": false, "note": 55, "velocity": 0, "until": 562.7622465333646}, {"on": true, "note": 55, "velocity": 102, "until": 562.8475707000314}, {"on": false, "note": 55, "velocity": 0, "until": 562.8646355333648}, {"on": true, "note": 55, "velocity": 102, "until": 562.9499597000315}, {"on": false, "note": 55, "velocity": 0, "until": 562.9670245333649}, {"on": true, "note": 55, "velocity": 102, "until": 563.0523487000316}, {"on": false, "note": 55, "velocity": 0, "until": 563.0696512083651}, {"on": true, "note": 55, "velocity": 102, "until": 563.1589366250319}, {"on": false, "note": 55, "velocity": 0, "until": 563.1767937083653}, {"on": true, "note": 55, "velocity": 102, "until": 563.266079125032}, {"on": false, "note": 55, "velocity": 0, "until": 563.2839362083654}, {"on": true, "note": 55, "velocity": 102, "until": 563.3732216250321}, {"on": false, "note": 55, "velocity": 0, "until": 563.3910787083655}, {"on": true, "note": 55, "velocity": 102, "until": 563.4803641250322}, {"on": false, "note": 55, "velocity": 0, "until": 563.4979835333656}, {"on": true, "note": 55, "velocity": 102, "until": 563.5833077000324}, {"on": false, "note": 55, "velocity": 0, "until": 563.6003725333658}, {"on": true, "note": 55, "velocity": 102, "until": 563.6856967000325}, {"on": false, "note": 55, "velocity": 0, "until": 563.7027615333659}, {"on": true, "note": 55, "velocity": 102, "until": 563.7880857000326}, {"on": false, "note": 55, "velocity": 0, "until": 563.805150533366}, {"on": true, "note": 55, "velocity": 102, "until": 563.8904747000328}, {"on": false, "note": 55, "velocity": 0, "until": 563.9077772083663}, {"on": true, "note": 55, "velocity": 102, "until": 563.997062625033}, {"on": false, "note": 55, "velocity": 0, "until": 564.0149197083664}, {"on": true, "note": 55, "velocity": 102, "until": 564.1042051250331}, {"on": false, "note": 55, "velocity": 0, "until": 564.1220622083665}, {"on": true, "note": 55, "velocity": 102, "until": 564.2113476250332}, {"on": false, "note": 55, "velocity": 0, "until": 564.2292047083666}, {"on": true, "note": 55, "velocity": 102, "until": 564.3184901250333}, {"on": false, "note": 55, "velocity": 0, "until": 564.3361095333668}, {"on": true, "note": 55, "velocity": 102, "until": 564.4214337000335}, {"on": false, "note": 55, "velocity": 0, "until": 564.4384985333669}, {"on": true, "note": 55, "velocity": 102, "until": 564.5238227000336}, {"on": false, "note": 55, "velocity": 0, "until": 564.540887533367}, {"on": true, "note": 55, "velocity": 102, "until": 564.6262117000338}, {"on": false, "note": 55, "velocity": 0, "until": 564.6432765333672}, {"on": true, "note": 55, "velocity": 102, "until": 564.7286007000339}, {"on": false, "note": 55, "velocity": 0, "until": 564.7459032083674}, {"on": true, "note": 56, "velocity": 102, "until": 564.9601882083676}, {"on": false, "note": 56, "velocity": 0, "until": 565.584029208368}, {"on": true, "note": 56, "velocity": 102, "until": 565.7983142083684}, {"on": false, "note": 56, "velocity": 0, "until": 566.4222328583685}, {"on": true, "note": 55, "velocity": 102, "until": 566.639623858368}, {"on": false, "note": 55, "velocity": 0, "until": 567.2754673083678}, {"on": true, "note": 43, "velocity": 102, "until": 567.5192170833683}, {"on": false, "note": 43, "velocity": 0, "until": 570.3832022083691}, {"on": true, "note": 60, "velocity": 102, "until": 570.4903447083691}, {"on": false, "note": 60, "velocity": 0, "until": 570.5974872083691}, {"on": true, "note": 55, "velocity": 102, "until": 570.7046297083691}, {"on": false, "note": 55, "velocity": 0, "until": 570.8115345333691}, {"on": true, "note": 60, "velocity": 102, "until": 570.9139235333693}, {"on": false, "note": 60, "velocity": 0, "until": 571.0163125333694}, {"on": true, "note": 55, "velocity": 102, "until": 571.1187015333695}, {"on": false, "note": 55, "velocity": 0, "until": 571.2213282083696}, {"on": true, "note": 60, "velocity": 102, "until": 571.6496605333697}, {"on": false, "note": 60, "velocity": 0, "until": 573.7357062083706}, {"on": true, "note": 60, "velocity": 102, "until": 573.8428487083706}, {"on": false, "note": 60, "velocity": 0, "until": 573.9499912083706}, {"on": true, "note": 55, "velocity": 102, "until": 574.0571337083707}, {"on": false, "note": 55, "velocity": 0, "until": 574.1640385333707}, {"on": true, "note": 60, "velocity": 102, "until": 574.2664275333708}, {"on": false, "note": 60, "velocity": 0, "until": 574.3688165333709}, {"on": true, "note": 55, "velocity": 102, "until": 574.4712055333711}, {"on": false, "note": 55, "velocity": 0, "until": 574.5738322083712}, {"on": true, "note": 60, "velocity": 102, "until": 575.0021645333712}, {"on": false, "note": 60, "velocity": 0, "until": 578.7644622083765}, {"on": true, "note": 48, "velocity": 102, "until": 578.9466044583766}, {"on": false, "note": 48, "velocity": 0, "until": 578.9787472083766}, {"on": true, "note": 43, "velocity": 102, "until": 579.1608894583767}, {"on": false, "note": 43, "velocity": 0, "until": 579.1927945333767}, {"on": true, "note": 48, "velocity": 102, "until": 579.3668558333769}, {"on": false, "note": 48, "velocity": 0, "until": 579.397572533377}, {"on": true, "note": 43, "velocity": 102, "until": 579.5716338333772}, {"on": false, "note": 43, "velocity": 0, "until": 579.6025882083773}, {"on": true, "note": 48, "velocity": 102, "until": 579.7847304583773}, {"on": false, "note": 48, "velocity": 0, "until": 579.8168732083774}, {"on": true, "note": 43, "velocity": 102, "until": 579.9990154583775}, {"on": false, "note": 43, "velocity": 0, "until": 580.0309205333775}, {"on": true, "note": 48, "velocity": 102, "until": 580.2049818333777}, {"on": false, "note": 48, "velocity": 0, "until": 580.2356985333778}, {"on": true, "note": 43, "velocity": 102, "until": 580.409759833378}, {"on": false, "note": 43, "velocity": 0, "until": 580.4407142083782}, {"on": true, "note": 48, "velocity": 102, "until": 580.6228564583784}, {"on": false, "note": 48, "velocity": 0, "until": 580.6549992083785}, {"on": true, "note": 55, "velocity": 102, "until": 580.7621417083786}, {"on": false, "note": 55, "velocity": 0, "until": 580.8690465333789}, {"on": true, "note": 60, "velocity": 102, "until": 580.971435533379}, {"on": false, "note": 60, "velocity": 0, "until": 581.073824533379}, {"on": true, "note": 55, "velocity": 102, "until": 581.1762135333792}, {"on": false, "note": 55, "velocity": 0, "until": 581.2788402083793}, {"on": true, "note": 60, "velocity": 102, "until": 581.3859827083794}, {"on": false, "note": 60, "velocity": 0, "until": 581.4931252083798}, {"on": true, "note": 55, "velocity": 102, "until": 581.6002677083799}, {"on": false, "note": 55, "velocity": 0, "until": 581.7071725333801}, {"on": true, "note": 60, "velocity": 102, "until": 581.8095615333802}, {"on": false, "note": 60, "velocity": 0, "until": 581.9119505333803}, {"on": true, "note": 55, "velocity": 102, "until": 582.0143395333804}, {"on": false, "note": 55, "velocity": 0, "until": 582.1167814833805}, {"on": true, "note": 60, "velocity": 102, "until": 582.2547121500471}, {"on": false, "note": 60, "velocity": 0, "until": 583.0307391583806}, {"on": true, "note": 60, "velocity": 102, "until": 583.2442621583807}, {"on": false, "note": 60, "velocity": 0, "until": 584.002542083381}, {"on": true, "note": 48, "velocity": 102, "until": 584.571262083381}]}, {"id": 14, "states": [{"on": true, "note": 36, "velocity": 102, "until": 0}, {"on": false, "note": 0, "velocity": 0, "until": 4.849999999999983}, {"on": false, "note": 36, "velocity": 0, "until": 4.849999999999983}, {"on": true, "note": 36, "velocity": 117, "until": 4.9499999999999815}, {"on": false, "note": 36, "velocity": 0, "until": 4.9499999999999815}, {"on": true, "note": 38, "velocity": 117, "until": 5.04999999999998}, {"on": false, "note": 38, "velocity": 0, "until": 5.04999999999998}, {"on": true, "note": 40, "velocity": 117, "until": 5.149999999999979}, {"on": false, "note": 40, "velocity": 0, "until": 5.149999999999979}, {"on": true, "note": 41, "velocity": 117, "until": 5.249999999999978}, {"on": false, "note": 41, "velocity": 0, "until": 5.249999999999978}, {"on": true, "note": 43, "velocity": 117, "until": 5.3499999999999766}, {"on": false, "note": 43, "velocity": 0, "until": 5.3499999999999766}, {"on": true, "note": 45, "velocity": 117, "until": 5.453191458333311}, {"on": false, "note": 45, "velocity": 0, "until": 5.453191458333311}, {"on": true, "note": 46, "velocity": 72, "until": 6.091488958333311}, {"on": false, "note": 46, "velocity": 0, "until": 6.729786458333313}, {"on": true, "note": 45, "velocity": 72, "until": 7.3680839583333135}, {"on": false, "note": 45, "velocity": 0, "until": 9.71747499999999}, {"on": true, "note": 36, "velocity": 102, "until": 12.717474999999968}, {"on": false, "note": 36, "velocity": 0, "until": 12.717474999999968}, {"on": true, "note": 36, "velocity": 117, "until": 12.837474999999968}, {"on": false, "note": 36, "velocity": 0, "until": 12.837474999999968}, {"on": true, "note": 38, "velocity": 117, "until": 12.957474999999965}, {"on": false, "note": 38, "velocity": 0, "until": 12.957474999999965}, {"on": true, "note": 40, "velocity": 117, "until": 13.077474999999962}, {"on": false, "note": 40, "velocity": 0, "until": 13.077474999999962}, {"on": true, "note": 41, "velocity": 117, "until": 13.197474999999962}, {"on": false, "note": 41, "velocity": 0, "until": 13.197474999999962}, {"on": true, "note": 43, "velocity": 117, "until": 13.323030541666627}, {"on": false, "note": 43, "velocity": 0, "until": 13.323030541666627}, {"on": true, "note": 44, "velocity": 102, "until": 13.989697041666625}, {"on": false, "note": 44, "velocity": 0, "until": 14.656363541666623}, {"on": true, "note": 43, "velocity": 102, "until": 15.323030041666621}, {"on": false, "note": 43, "velocity": 0, "until": 27.769080000000056}, {"on": true, "note": 43, "velocity": 102, "until": 28.973427791666754}, {"on": false, "note": 43, "velocity": 0, "until": 28.973427791666754}, {"on": true, "note": 36, "velocity": 102, "until": 31.473427000000104}, {"on": false, "note": 36, "velocity": 0, "until": 31.473427000000104}, {"on": true, "note": 31, "velocity": 102, "until": 32.07342700000017}, {"on": false, "note": 31, "velocity": 0, "until": 32.677774791666835}, {"on": true, "note": 36, "velocity": 102, "until": 35.18096545833347}, {"on": false, "note": 36, "velocity": 0, "until": 35.18096545833347}, {"on": true, "note": 31, "velocity": 102, "until": 35.83186095833343}, {"on": false, "note": 31, "velocity": 0, "until": 36.6136845000001}, {"on": true, "note": 36, "velocity": 102, "until": 38.6574142916668}, {"on": false, "note": 36, "velocity": 0, "until": 44.276999791666825}, {"on": true, "note": 34, "velocity": 102, "until": 44.92917329166682}, {"on": false, "note": 34, "velocity": 0, "until": 45.57699900000016}, {"on": true, "note": 38, "velocity": 102, "until": 46.17699900000015}, {"on": false, "note": 38, "velocity": 0, "until": 46.77699900000013}, {"on": true, "note": 34, "velocity": 102, "until": 47.376999000000126}, {"on": false, "note": 34, "velocity": 0, "until": 47.98134679166677}, {"on": true, "note": 39, "velocity": 102, "until": 48.63352029166676}, {"on": false, "note": 39, "velocity": 0, "until": 49.2813460000001}, {"on": true, "note": 27, "velocity": 102, "until": 49.88134600000009}, {"on": false, "note": 27, "velocity": 0, "until": 50.481346000000094}, {"on": true, "note": 31, "velocity": 102, "until": 51.081346000000096}, {"on": false, "note": 31, "velocity": 0, "until": 51.68569379166675}, {"on": true, "note": 34, "velocity": 102, "until": 52.33786729166675}, {"on": false, "note": 34, "velocity": 0, "until": 52.98569300000008}, {"on": true, "note": 38, "velocity": 102, "until": 53.58569300000008}, {"on": false, "note": 38, "velocity": 0, "until": 54.18569300000006}, {"on": true, "note": 34, "velocity": 102, "until": 54.78569300000005}, {"on": false, "note": 34, "velocity": 0, "until": 55.3900407916667}, {"on": true, "note": 39, "velocity": 102, "until": 56.04221429166669}, {"on": false, "note": 39, "velocity": 0, "until": 56.690040000000025}, {"on": true, "note": 27, "velocity": 102, "until": 57.29004000000001}, {"on": false, "note": 27, "velocity": 0, "until": 57.890040000000006}, {"on": true, "note": 31, "velocity": 102, "until": 58.49004000000001}, {"on": false, "note": 31, "velocity": 0, "until": 59.17304849999997}, {"on": true, "note": 43, "velocity": 102, "until": 59.85486649999988}, {"on": false, "note": 43, "velocity": 0, "until": 63.00180049999987}, {"on": true, "note": 43, "velocity": 102, "until": 63.683618499999774}, {"on": false, "note": 43, "velocity": 0, "until": 66.82808212499982}, {"on": true, "note": 32, "velocity": 102, "until": 70.66151475000007}, {"on": false, "note": 32, "velocity": 0, "until": 70.66151475000007}, {"on": true, "note": 37, "velocity": 102, "until": 73.20388771666674}, {"on": false, "note": 37, "velocity": 0, "until": 73.23722104166674}, {"on": true, "note": 37, "velocity": 102, "until": 74.51499850000009}, {"on": false, "note": 37, "velocity": 0, "until": 74.57313800000007}, {"on": true, "note": 39, "velocity": 102, "until": 78.57718000000014}, {"on": false, "note": 39, "velocity": 0, "until": 78.57718000000014}, {"on": true, "note": 32, "velocity": 102, "until": 79.91438850000013}, {"on": false, "note": 32, "velocity": 0, "until": 79.96873629166681}, {"on": true, "note": 44, "velocity": 102, "until": 81.21873550000042}, {"on": false, "note": 44, "velocity": 0, "until": 81.27308329166712}, {"on": true, "note": 44, "velocity": 102, "until": 82.52308250000073}, {"on": false, "note": 44, "velocity": 0, "until": 82.57743029166741}, {"on": true, "note": 43, "velocity": 102, "until": 85.02742950000125}, {"on": false, "note": 43, "velocity": 0, "until": 85.07742950000126}, {"on": true, "note": 43, "velocity": 102, "until": 86.3036198333346}, {"on": false, "note": 43, "velocity": 0, "until": 86.35796762500128}, {"on": true, "note": 36, "velocity": 102, "until": 87.65796683333483}, {"on": false, "note": 36, "velocity": 0, "until": 93.89739729166834}, {"on": true, "note": 29, "velocity": 102, "until": 94.87565754166835}, {"on": false, "note": 29, "velocity": 0, "until": 94.87565754166835}, {"on": true, "note": 31, "velocity": 102, "until": 95.1973965000017}, {"on": false, "note": 31, "velocity": 0, "until": 95.1973965000017}, {"on": true, "note": 32, "velocity": 102, "until": 95.35739650000173}, {"on": false, "note": 32, "velocity": 0, "until": 95.59739650000179}, {"on": true, "note": 32, "velocity": 102, "until": 95.75739650000182}, {"on": false, "note": 32, "velocity": 0, "until": 95.99739650000187}, {"on": true, "note": 32, "velocity": 102, "until": 96.15739650000191}, {"on": false, "note": 32, "velocity": 0, "until": 96.39739650000196}, {"on": true, "note": 32, "velocity": 102, "until": 96.617396500002}, {"on": false, "note": 32, "velocity": 0, "until": 96.79739650000204}, {"on": true, "note": 32, "velocity": 102, "until": 97.01739650000205}, {"on": false, "note": 32, "velocity": 0, "until": 97.19739650000207}, {"on": true, "note": 32, "velocity": 102, "until": 97.42680825000208}, {"on": false, "note": 32, "velocity": 0, "until": 97.6723324166688}, {"on": true, "note": 31, "velocity": 87, "until": 100.17552308333575}, {"on": false, "note": 31, "velocity": 0, "until": 100.17552308333575}, {"on": true, "note": 31, "velocity": 63, "until": 101.53072741666908}, {"on": false, "note": 31, "velocity": 0, "until": 101.53072741666908}, {"on": true, "note": 36, "velocity": 53, "until": 102.88152891666905}, {"on": false, "note": 36, "velocity": 0, "until": 113.78652720833568}, {"on": true, "note": 31, "velocity": 72, "until": 118.52804158333564}, {"on": false, "note": 31, "velocity": 0, "until": 127.60048562500216}, {"on": true, "note": 48, "velocity": 92, "until": 128.04130022500217}, {"on": false, "note": 48, "velocity": 0, "until": 128.08969095833552}, {"on": true, "note": 48, "velocity": 92, "until": 128.50507515833556}, {"on": false, "note": 48, "velocity": 0, "until": 128.55181762500223}, {"on": true, "note": 48, "velocity": 92, "until": 129.04102295833556}, {"on": false, "note": 48, "velocity": 0, "until": 129.50294558333556}, {"on": true, "note": 43, "velocity": 102, "until": 129.71894558333557}, {"on": false, "note": 43, "velocity": 0, "until": 129.74294558333557}, {"on": true, "note": 43, "velocity": 102, "until": 129.95894558333558}, {"on": false, "note": 43, "velocity": 0, "until": 129.98294558333558}, {"on": true, "note": 43, "velocity": 102, "until": 130.1989455833356}, {"on": false, "note": 43, "velocity": 0, "until": 130.2229455833356}, {"on": true, "note": 43, "velocity": 102, "until": 130.4389455833356}, {"on": false, "note": 43, "velocity": 0, "until": 130.4629455833356}, {"on": true, "note": 43, "velocity": 102, "until": 130.94256095833558}, {"on": false, "note": 43, "velocity": 0, "until": 130.94256095833558}, {"on": true, "note": 43, "velocity": 102, "until": 131.02909933333555}, {"on": false, "note": 43, "velocity": 0, "until": 131.05794545833552}, {"on": true, "note": 41, "velocity": 102, "until": 131.1444838333355}, {"on": false, "note": 41, "velocity": 0, "until": 131.17332995833547}, {"on": true, "note": 40, "velocity": 102, "until": 131.25986833333542}, {"on": false, "note": 40, "velocity": 0, "until": 131.2887144583354}, {"on": true, "note": 38, "velocity": 102, "until": 131.37525283333537}, {"on": false, "note": 38, "velocity": 0, "until": 131.40468762500203}, {"on": true, "note": 36, "velocity": 92, "until": 131.89389295833536}, {"on": false, "note": 36, "velocity": 0, "until": 131.89389295833536}, {"on": true, "note": 48, "velocity": 92, "until": 132.35601962500203}, {"on": false, "note": 48, "velocity": 0, "until": 132.35601962500203}, {"on": true, "note": 48, "velocity": 92, "until": 132.84522495833536}, {"on": false, "note": 48, "velocity": 0, "until": 133.3069900833354}, {"on": true, "note": 40, "velocity": 102, "until": 133.42510008333542}, {"on": false, "note": 40, "velocity": 0, "until": 133.54321008333545}, {"on": true, "note": 40, "velocity": 102, "until": 133.66132008333548}, {"on": false, "note": 40, "velocity": 0, "until": 133.7794300833355}, {"on": true, "note": 40, "velocity": 102, "until": 133.89754008333554}, {"on": false, "note": 40, "velocity": 0, "until": 134.01565008333557}, {"on": true, "note": 40, "velocity": 102, "until": 134.1337600833356}, {"on": false, "note": 40, "velocity": 0, "until": 134.25187008333563}, {"on": true, "note": 40, "velocity": 102, "until": 134.724082958336}, {"on": false, "note": 40, "velocity": 0, "until": 139.03854562500305}, {"on": true, "note": 43, "velocity": 102, "until": 139.16099412500304}, {"on": false, "note": 43, "velocity": 0, "until": 139.28344262500306}, {"on": true, "note": 43, "velocity": 102, "until": 139.75851995833648}, {"on": false, "note": 43, "velocity": 0, "until": 139.75851995833648}, {"on": true, "note": 48, "velocity": 102, "until": 139.97005820833647}, {"on": false, "note": 48, "velocity": 0, "until": 139.98987762500315}, {"on": true, "note": 43, "velocity": 102, "until": 140.11232612500314}, {"on": false, "note": 43, "velocity": 0, "until": 140.23477462500315}, {"on": true, "note": 43, "velocity": 102, "until": 140.70985195833657}, {"on": false, "note": 43, "velocity": 0, "until": 140.70985195833657}, {"on": true, "note": 48, "velocity": 102, "until": 140.92139020833656}, {"on": false, "note": 48, "velocity": 0, "until": 140.94120962500324}, {"on": true, "note": 43, "velocity": 102, "until": 141.06365812500323}, {"on": false, "note": 43, "velocity": 0, "until": 141.18610662500325}, {"on": true, "note": 43, "velocity": 102, "until": 141.66118395833666}, {"on": false, "note": 43, "velocity": 0, "until": 141.66118395833666}, {"on": true, "note": 48, "velocity": 102, "until": 141.87272220833665}, {"on": false, "note": 48, "velocity": 0, "until": 141.89254162500333}, {"on": true, "note": 43, "velocity": 102, "until": 142.13743862500337}, {"on": false, "note": 43, "velocity": 0, "until": 146.47833595833671}, {"on": true, "note": 36, "velocity": 102, "until": 146.59372045833672}, {"on": false, "note": 36, "velocity": 0, "until": 146.70948958333676}, {"on": true, "note": 41, "velocity": 102, "until": 146.8294895833368}, {"on": false, "note": 41, "velocity": 0, "until": 146.94948958333683}, {"on": true, "note": 36, "velocity": 102, "until": 147.06948958333686}, {"on": false, "note": 36, "velocity": 0, "until": 147.1894895833369}, {"on": true, "note": 41, "velocity": 102, "until": 147.30948958333693}, {"on": false, "note": 41, "velocity": 0, "until": 147.42948958333696}, {"on": true, "note": 36, "velocity": 102, "until": 147.549489583337}, {"on": false, "note": 36, "velocity": 0, "until": 147.66948958333703}, {"on": true, "note": 41, "velocity": 102, "until": 148.14910495833732}, {"on": false, "note": 41, "velocity": 0, "until": 150.26433595833748}, {"on": true, "note": 43, "velocity": 102, "until": 150.3797204583375}, {"on": false, "note": 43, "velocity": 0, "until": 150.4953320833375}, {"on": true, "note": 48, "velocity": 102, "until": 150.61344208333753}, {"on": false, "note": 48, "velocity": 0, "until": 150.73155208333756}, {"on": true, "note": 43, "velocity": 102, "until": 150.8496620833376}, {"on": false, "note": 43, "velocity": 0, "until": 150.96777208333762}, {"on": true, "note": 48, "velocity": 102, "until": 151.08588208333765}, {"on": false, "note": 48, "velocity": 0, "until": 151.20399208333768}, {"on": true, "note": 43, "velocity": 102, "until": 151.3221020833377}, {"on": false, "note": 43, "velocity": 0, "until": 151.44021208333774}, {"on": true, "note": 48, "velocity": 102, "until": 151.67643208333777}, {"on": false, "note": 48, "velocity": 0, "until": 151.9124249583378}, {"on": true, "note": 43, "velocity": 102, "until": 152.3547322083378}, {"on": false, "note": 43, "velocity": 0, "until": 152.37455162500447}, {"on": true, "note": 40, "velocity": 102, "until": 152.84393754167118}, {"on": false, "note": 40, "velocity": 0, "until": 152.86375695833786}, {"on": true, "note": 42, "velocity": 102, "until": 153.30606420833786}, {"on": false, "note": 42, "velocity": 0, "until": 153.32588362500454}, {"on": true, "note": 43, "velocity": 102, "until": 153.79526954167125}, {"on": false, "note": 43, "velocity": 0, "until": 153.81508895833792}, {"on": true, "note": 31, "velocity": 102, "until": 154.25739620833792}, {"on": false, "note": 31, "velocity": 0, "until": 154.2772156250046}, {"on": true, "note": 36, "velocity": 102, "until": 154.37925604167128}, {"on": false, "note": 36, "velocity": 0, "until": 154.39966412500462}, {"on": true, "note": 36, "velocity": 102, "until": 154.5017045416713}, {"on": false, "note": 36, "velocity": 0, "until": 154.52211262500464}, {"on": true, "note": 36, "velocity": 102, "until": 154.62415304167132}, {"on": false, "note": 36, "velocity": 0, "until": 154.64456112500466}, {"on": true, "note": 36, "velocity": 102, "until": 154.74660154167134}, {"on": false, "note": 36, "velocity": 0, "until": 154.76642095833802}, {"on": true, "note": 36, "velocity": 102, "until": 154.862574708338}, {"on": false, "note": 36, "velocity": 0, "until": 154.881805458338}, {"on": true, "note": 36, "velocity": 102, "until": 154.97795920833798}, {"on": false, "note": 36, "velocity": 0, "until": 154.997189958338}, {"on": true, "note": 39, "velocity": 102, "until": 155.09334370833798}, {"on": false, "note": 39, "velocity": 0, "until": 155.11257445833797}, {"on": true, "note": 39, "velocity": 102, "until": 155.20872820833796}, {"on": false, "note": 39, "velocity": 0, "until": 155.22854762500464}, {"on": true, "note": 36, "velocity": 102, "until": 155.33058804167132}, {"on": false, "note": 36, "velocity": 0, "until": 155.35099612500466}, {"on": true, "note": 36, "velocity": 102, "until": 155.45303654167134}, {"on": false, "note": 36, "velocity": 0, "until": 155.47344462500467}, {"on": true, "note": 36, "velocity": 102, "until": 155.57548504167136}, {"on": false, "note": 36, "velocity": 0, "until": 155.5958931250047}, {"on": true, "note": 36, "velocity": 102, "until": 155.69793354167138}, {"on": false, "note": 36, "velocity": 0, "until": 155.71775295833805}, {"on": true, "note": 36, "velocity": 102, "until": 155.81390670833812}, {"on": false, "note": 36, "velocity": 0, "until": 155.83313745833811}, {"on": true, "note": 36, "velocity": 102, "until": 155.92929120833816}, {"on": false, "note": 36, "velocity": 0, "until": 155.94852195833818}, {"on": true, "note": 39, "velocity": 102, "until": 156.04467570833816}, {"on": false, "note": 39, "velocity": 0, "until": 156.06390645833815}, {"on": true, "note": 39, "velocity": 102, "until": 156.16006020833814}, {"on": false, "note": 39, "velocity": 0, "until": 156.17987962500482}, {"on": true, "note": 36, "velocity": 102, "until": 156.2819200416715}, {"on": false, "note": 36, "velocity": 0, "until": 156.30232812500483}, {"on": true, "note": 36, "velocity": 102, "until": 156.40436854167152}, {"on": false, "note": 36, "velocity": 0, "until": 156.42477662500485}, {"on": true, "note": 39, "velocity": 102, "until": 156.52681704167153}, {"on": false, "note": 39, "velocity": 0, "until": 156.54722512500487}, {"on": true, "note": 39, "velocity": 102, "until": 156.64926554167155}, {"on": false, "note": 39, "velocity": 0, "until": 156.66908495833823}, {"on": true, "note": 36, "velocity": 102, "until": 156.76523870833827}, {"on": false, "note": 36, "velocity": 0, "until": 156.78446945833826}, {"on": true, "note": 36, "velocity": 102, "until": 156.88062320833825}, {"on": false, "note": 36, "velocity": 0, "until": 156.89985395833827}, {"on": true, "note": 39, "velocity": 102, "until": 156.99600770833825}, {"on": false, "note": 39, "velocity": 0, "until": 157.01523845833825}, {"on": true, "note": 39, "velocity": 102, "until": 157.11139220833826}, {"on": false, "note": 39, "velocity": 0, "until": 157.13121162500494}, {"on": true, "note": 36, "velocity": 102, "until": 157.23325204167162}, {"on": false, "note": 36, "velocity": 0, "until": 157.25366012500496}, {"on": true, "note": 36, "velocity": 102, "until": 157.35570054167164}, {"on": false, "note": 36, "velocity": 0, "until": 157.37610862500497}, {"on": true, "note": 39, "velocity": 102, "until": 157.47814904167166}, {"on": false, "note": 39, "velocity": 0, "until": 157.498557125005}, {"on": true, "note": 39, "velocity": 102, "until": 157.60059754167168}, {"on": false, "note": 39, "velocity": 0, "until": 157.62041695833835}, {"on": true, "note": 36, "velocity": 102, "until": 157.7165707083384}, {"on": false, "note": 36, "velocity": 0, "until": 157.7358014583384}, {"on": true, "note": 36, "velocity": 102, "until": 157.83195520833837}, {"on": false, "note": 36, "velocity": 0, "until": 157.8511859583384}, {"on": true, "note": 39, "velocity": 102, "until": 157.94733970833838}, {"on": false, "note": 39, "velocity": 0, "until": 157.96657045833837}, {"on": true, "note": 39, "velocity": 102, "until": 158.06272420833838}, {"on": false, "note": 39, "velocity": 0, "until": 158.08254362500506}, {"on": true, "note": 39, "velocity": 102, "until": 158.18458404167174}, {"on": false, "note": 39, "velocity": 0, "until": 158.20499212500508}, {"on": true, "note": 39, "velocity": 102, "until": 158.30703254167176}, {"on": false, "note": 39, "velocity": 0, "until": 158.3274406250051}, {"on": true, "note": 39, "velocity": 102, "until": 158.42948104167178}, {"on": false, "note": 39, "velocity": 0, "until": 158.44988912500511}, {"on": true, "note": 39, "velocity": 102, "until": 158.5519295416718}, {"on": false, "note": 39, "velocity": 0, "until": 158.57174895833847}, {"on": true, "note": 39, "velocity": 102, "until": 158.66790270833854}, {"on": false, "note": 39, "velocity": 0, "until": 158.68713345833854}, {"on": true, "note": 39, "velocity": 102, "until": 158.78328720833858}, {"on": false, "note": 39, "velocity": 0, "until": 158.8025179583386}, {"on": true, "note": 38, "velocity": 102, "until": 158.89867170833858}, {"on": false, "note": 38, "velocity": 0, "until": 158.91790245833857}, {"on": true, "note": 38, "velocity": 102, "until": 159.01405620833856}, {"on": false, "note": 38, "velocity": 0, "until": 159.03387562500524}, {"on": true, "note": 39, "velocity": 102, "until": 159.13591604167192}, {"on": false, "note": 39, "velocity": 0, "until": 159.15632412500526}, {"on": true, "note": 39, "velocity": 102, "until": 159.25836454167194}, {"on": false, "note": 39, "velocity": 0, "until": 159.27877262500527}, {"on": true, "note": 39, "velocity": 102, "until": 159.38081304167196}, {"on": false, "note": 39, "velocity": 0, "until": 159.4012211250053}, {"on": true, "note": 39, "velocity": 102, "until": 159.50326154167198}, {"on": false, "note": 39, "velocity": 0, "until": 159.52308095833865}, {"on": true, "note": 39, "velocity": 102, "until": 159.61923470833872}, {"on": false, "note": 39, "velocity": 0, "until": 159.63846545833871}, {"on": true, "note": 39, "velocity": 102, "until": 159.73461920833876}, {"on": false, "note": 39, "velocity": 0, "until": 159.75384995833878}, {"on": true, "note": 38, "velocity": 102, "until": 159.85000370833876}, {"on": false, "note": 38, "velocity": 0, "until": 159.86923445833875}, {"on": true, "note": 38, "velocity": 102, "until": 159.96538820833874}, {"on": false, "note": 38, "velocity": 0, "until": 159.98520762500542}, {"on": true, "note": 39, "velocity": 102, "until": 160.23010462500545}, {"on": false, "note": 39, "velocity": 0, "until": 160.4744129583388}, {"on": true, "note": 39, "velocity": 102, "until": 160.70518195833887}, {"on": false, "note": 39, "velocity": 0, "until": 160.9365396250056}, {"on": true, "note": 39, "velocity": 102, "until": 161.18143662500563}, {"on": false, "note": 39, "velocity": 0, "until": 161.42574495833898}, {"on": true, "note": 39, "velocity": 102, "until": 161.52189870833902}, {"on": false, "note": 39, "velocity": 0, "until": 161.54112945833901}, {"on": true, "note": 39, "velocity": 102, "until": 161.637283208339}, {"on": false, "note": 39, "velocity": 0, "until": 161.65651395833902}, {"on": true, "note": 39, "velocity": 102, "until": 161.752667708339}, {"on": false, "note": 39, "velocity": 0, "until": 161.77189845833902}, {"on": true, "note": 39, "velocity": 102, "until": 161.868052208339}, {"on": false, "note": 39, "velocity": 0, "until": 161.8878716250057}, {"on": true, "note": 38, "velocity": 102, "until": 162.13276862500572}, {"on": false, "note": 38, "velocity": 0, "until": 165.7938618333389}, {"on": true, "note": 43, "velocity": 102, "until": 165.8566233333389}, {"on": false, "note": 43, "velocity": 0, "until": 165.91938483333888}, {"on": true, "note": 43, "velocity": 102, "until": 165.98214633333887}, {"on": false, "note": 43, "velocity": 0, "until": 166.04490783333884}, {"on": true, "note": 43, "velocity": 102, "until": 166.10766933333883}, {"on": false, "note": 43, "velocity": 0, "until": 166.1704308333388}, {"on": true, "note": 43, "velocity": 102, "until": 166.2331923333388}, {"on": false, "note": 43, "velocity": 0, "until": 166.29557420833882}, {"on": true, "note": 43, "velocity": 102, "until": 166.5173479583388}, {"on": false, "note": 43, "velocity": 0, "until": 166.5375092083388}, {"on": true, "note": 43, "velocity": 102, "until": 166.7592829583388}, {"on": false, "note": 43, "velocity": 0, "until": 166.77982383333878}, {"on": true, "note": 43, "velocity": 102, "until": 166.84258533333877}, {"on": false, "note": 43, "velocity": 0, "until": 166.90534683333877}, {"on": true, "note": 43, "velocity": 102, "until": 166.96810833333876}, {"on": false, "note": 43, "velocity": 0, "until": 167.03086983333873}, {"on": true, "note": 43, "velocity": 102, "until": 167.09363133333872}, {"on": false, "note": 43, "velocity": 0, "until": 167.15639283333869}, {"on": true, "note": 43, "velocity": 102, "until": 167.21915433333868}, {"on": false, "note": 43, "velocity": 0, "until": 167.2815362083387}, {"on": true, "note": 43, "velocity": 102, "until": 167.5033099583387}, {"on": false, "note": 43, "velocity": 0, "until": 167.5234712083387}, {"on": true, "note": 43, "velocity": 102, "until": 167.74524495833867}, {"on": false, "note": 43, "velocity": 0, "until": 167.76578583333867}, {"on": true, "note": 43, "velocity": 102, "until": 167.82854733333866}, {"on": false, "note": 43, "velocity": 0, "until": 167.89130883333866}, {"on": true, "note": 43, "velocity": 102, "until": 167.95407033333865}, {"on": false, "note": 43, "velocity": 0, "until": 168.0168318333386}, {"on": true, "note": 43, "velocity": 102, "until": 168.0795933333386}, {"on": false, "note": 43, "velocity": 0, "until": 168.14235483333857}, {"on": true, "note": 43, "velocity": 102, "until": 168.20511633333857}, {"on": false, "note": 43, "velocity": 0, "until": 168.2674982083386}, {"on": true, "note": 43, "velocity": 102, "until": 168.48927195833858}, {"on": false, "note": 43, "velocity": 0, "until": 168.50943320833858}, {"on": true, "note": 43, "velocity": 102, "until": 168.73120695833856}, {"on": false, "note": 43, "velocity": 0, "until": 168.75174783333856}, {"on": true, "note": 43, "velocity": 102, "until": 168.81450933333855}, {"on": false, "note": 43, "velocity": 0, "until": 168.87727083333854}, {"on": true, "note": 43, "velocity": 102, "until": 168.94003233333854}, {"on": false, "note": 43, "velocity": 0, "until": 169.0027938333385}, {"on": true, "note": 43, "velocity": 102, "until": 169.0655553333385}, {"on": false, "note": 43, "velocity": 0, "until": 169.12831683333846}, {"on": true, "note": 43, "velocity": 102, "until": 169.19107833333845}, {"on": false, "note": 43, "velocity": 0, "until": 169.25346020833848}, {"on": true, "note": 43, "velocity": 102, "until": 169.47523395833846}, {"on": false, "note": 43, "velocity": 0, "until": 169.49539520833846}, {"on": true, "note": 43, "velocity": 102, "until": 169.65063683333844}, {"on": false, "note": 43, "velocity": 0, "until": 169.7377098333384}, {"on": true, "note": 42, "velocity": 102, "until": 169.80047133333832}, {"on": false, "note": 42, "velocity": 0, "until": 169.8632328333382}, {"on": true, "note": 42, "velocity": 102, "until": 169.92599433333817}, {"on": false, "note": 42, "velocity": 0, "until": 169.9887558333381}, {"on": true, "note": 42, "velocity": 102, "until": 170.0515173333381}, {"on": false, "note": 42, "velocity": 0, "until": 170.11427883333803}, {"on": true, "note": 42, "velocity": 102, "until": 170.17704033333797}, {"on": false, "note": 42, "velocity": 0, "until": 170.23942220833797}, {"on": true, "note": 42, "velocity": 102, "until": 170.46119595833798}, {"on": false, "note": 42, "velocity": 0, "until": 170.481357208338}, {"on": true, "note": 38, "velocity": 102, "until": 170.70313095833802}, {"on": false, "note": 38, "velocity": 0, "until": 170.723671833338}, {"on": true, "note": 43, "velocity": 102, "until": 170.84919483333795}, {"on": false, "note": 43, "velocity": 0, "until": 170.9747178333379}, {"on": true, "note": 38, "velocity": 87, "until": 171.10024083333786}, {"on": false, "note": 38, "velocity": 0, "until": 171.22538420833789}, {"on": true, "note": 43, "velocity": 87, "until": 171.34635170833786}, {"on": false, "note": 43, "velocity": 0, "until": 171.4673192083379}, {"on": true, "note": 43, "velocity": 87, "until": 171.58828670833788}, {"on": false, "note": 43, "velocity": 0, "until": 171.70963383333785}, {"on": true, "note": 42, "velocity": 102, "until": 171.77239533333784}, {"on": false, "note": 42, "velocity": 0, "until": 171.83515683333775}, {"on": true, "note": 42, "velocity": 102, "until": 171.89791833333769}, {"on": false, "note": 42, "velocity": 0, "until": 171.96067983333768}, {"on": true, "note": 42, "velocity": 102, "until": 172.02344133333764}, {"on": false, "note": 42, "velocity": 0, "until": 172.0862028333376}, {"on": true, "note": 42, "velocity": 102, "until": 172.14896433333757}, {"on": false, "note": 42, "velocity": 0, "until": 172.2113462083376}, {"on": true, "note": 42, "velocity": 102, "until": 172.4331199583376}, {"on": false, "note": 42, "velocity": 0, "until": 172.45328120833764}, {"on": true, "note": 38, "velocity": 102, "until": 172.67505495833765}, {"on": false, "note": 38, "velocity": 0, "until": 172.69559583333762}, {"on": true, "note": 43, "velocity": 102, "until": 172.82111883333758}, {"on": false, "note": 43, "velocity": 0, "until": 172.94664183333754}, {"on": true, "note": 38, "velocity": 87, "until": 173.0721648333375}, {"on": false, "note": 38, "velocity": 0, "until": 173.19730820833752}, {"on": true, "note": 31, "velocity": 87, "until": 173.44095500000418}, {"on": false, "note": 31, "velocity": 0, "until": 173.72286433333755}, {"on": true, "note": 43, "velocity": 102, "until": 173.78696683333757}, {"on": false, "note": 43, "velocity": 0, "until": 173.8510693333376}, {"on": true, "note": 43, "velocity": 102, "until": 173.9151718333376}, {"on": false, "note": 43, "velocity": 0, "until": 173.97927433333763}, {"on": true, "note": 43, "velocity": 102, "until": 174.04337683333765}, {"on": false, "note": 43, "velocity": 0, "until": 174.10747933333766}, {"on": true, "note": 43, "velocity": 102, "until": 174.17158183333768}, {"on": false, "note": 43, "velocity": 0, "until": 174.23520462500434}, {"on": true, "note": 43, "velocity": 102, "until": 174.45969354167104}, {"on": false, "note": 43, "velocity": 0, "until": 174.48010162500438}, {"on": true, "note": 43, "velocity": 102, "until": 174.70459054167108}, {"on": false, "note": 43, "velocity": 0, "until": 174.72547833333778}, {"on": true, "note": 43, "velocity": 102, "until": 174.78958083333782}, {"on": false, "note": 43, "velocity": 0, "until": 174.85368333333787}, {"on": true, "note": 43, "velocity": 102, "until": 174.91778583333792}, {"on": false, "note": 43, "velocity": 0, "until": 174.98188833333796}, {"on": true, "note": 43, "velocity": 102, "until": 175.045990833338}, {"on": false, "note": 43, "velocity": 0, "until": 175.11009333333806}, {"on": true, "note": 43, "velocity": 102, "until": 175.1741958333381}, {"on": false, "note": 43, "velocity": 0, "until": 175.2378186250048}, {"on": true, "note": 43, "velocity": 102, "until": 175.4623075416715}, {"on": false, "note": 43, "velocity": 0, "until": 175.48271562500483}, {"on": true, "note": 43, "velocity": 102, "until": 175.70720454167153}, {"on": false, "note": 43, "velocity": 0, "until": 175.72809233333822}, {"on": true, "note": 39, "velocity": 102, "until": 175.79219483333827}, {"on": false, "note": 39, "velocity": 0, "until": 175.85629733333832}, {"on": true, "note": 39, "velocity": 102, "until": 175.92039983333837}, {"on": false, "note": 39, "velocity": 0, "until": 175.9845023333384}, {"on": true, "note": 39, "velocity": 102, "until": 176.04860483333846}, {"on": false, "note": 39, "velocity": 0, "until": 176.1127073333385}, {"on": true, "note": 39, "velocity": 102, "until": 176.17680983333855}, {"on": false, "note": 39, "velocity": 0, "until": 176.24043262500524}, {"on": true, "note": 39, "velocity": 102, "until": 176.46492154167194}, {"on": false, "note": 39, "velocity": 0, "until": 176.48532962500528}, {"on": true, "note": 39, "velocity": 102, "until": 176.70981854167198}, {"on": false, "note": 39, "velocity": 0, "until": 176.73070633333867}, {"on": true, "note": 39, "velocity": 102, "until": 176.7948088333387}, {"on": false, "note": 39, "velocity": 0, "until": 176.8589113333387}, {"on": true, "note": 39, "velocity": 102, "until": 176.92301383333873}, {"on": false, "note": 39, "velocity": 0, "until": 176.98711633333875}, {"on": true, "note": 39, "velocity": 102, "until": 177.05121883333877}, {"on": false, "note": 39, "velocity": 0, "until": 177.11532133333878}, {"on": true, "note": 39, "velocity": 102, "until": 177.1794238333388}, {"on": false, "note": 39, "velocity": 0, "until": 177.24304662500546}, {"on": true, "note": 40, "velocity": 102, "until": 177.46753554167216}, {"on": false, "note": 40, "velocity": 0, "until": 177.4879436250055}, {"on": true, "note": 40, "velocity": 102, "until": 177.7124325416722}, {"on": false, "note": 40, "velocity": 0, "until": 177.7333203333389}, {"on": true, "note": 41, "velocity": 102, "until": 177.797422833339}, {"on": false, "note": 41, "velocity": 0, "until": 177.8615253333391}, {"on": true, "note": 41, "velocity": 102, "until": 177.9256278333392}, {"on": false, "note": 41, "velocity": 0, "until": 177.9897303333393}, {"on": true, "note": 41, "velocity": 102, "until": 178.05383283333933}, {"on": false, "note": 41, "velocity": 0, "until": 178.11793533333935}, {"on": true, "note": 41, "velocity": 102, "until": 178.1820378333394}, {"on": false, "note": 41, "velocity": 0, "until": 178.24566062500608}, {"on": true, "note": 41, "velocity": 102, "until": 178.47014954167275}, {"on": false, "note": 41, "velocity": 0, "until": 178.4905576250061}, {"on": true, "note": 41, "velocity": 102, "until": 178.71504654167273}, {"on": false, "note": 41, "velocity": 0, "until": 178.73593433333943}, {"on": true, "note": 46, "velocity": 102, "until": 178.86413933333947}, {"on": false, "note": 46, "velocity": 0, "until": 178.9923443333395}, {"on": true, "note": 41, "velocity": 87, "until": 179.12054933333954}, {"on": false, "note": 41, "velocity": 0, "until": 179.24827462500622}, {"on": true, "note": 46, "velocity": 87, "until": 179.37072312500624}, {"on": false, "note": 46, "velocity": 0, "until": 179.49317162500623}, {"on": true, "note": 46, "velocity": 87, "until": 179.61562012500625}, {"on": false, "note": 46, "velocity": 0, "until": 179.7385483333396}, {"on": true, "note": 41, "velocity": 102, "until": 179.8026508333397}, {"on": false, "note": 41, "velocity": 0, "until": 179.8667533333398}, {"on": true, "note": 41, "velocity": 102, "until": 179.9308558333399}, {"on": false, "note": 41, "velocity": 0, "until": 179.99495833334}, {"on": true, "note": 41, "velocity": 102, "until": 180.05906083334003}, {"on": false, "note": 41, "velocity": 0, "until": 180.12316333334007}, {"on": true, "note": 41, "velocity": 102, "until": 180.18726583334012}, {"on": false, "note": 41, "velocity": 0, "until": 180.25088862500678}, {"on": true, "note": 41, "velocity": 102, "until": 180.47537754167345}, {"on": false, "note": 41, "velocity": 0, "until": 180.4957856250068}, {"on": true, "note": 41, "velocity": 102, "until": 180.72027454167343}, {"on": false, "note": 41, "velocity": 0, "until": 180.74116233334013}, {"on": true, "note": 46, "velocity": 102, "until": 180.86936733334016}, {"on": false, "note": 46, "velocity": 0, "until": 180.9975723333402}, {"on": true, "note": 41, "velocity": 87, "until": 181.12577733334024}, {"on": false, "note": 41, "velocity": 0, "until": 181.25350262500692}, {"on": true, "note": 34, "velocity": 87, "until": 181.49955920834026}, {"on": false, "note": 34, "velocity": 0, "until": 181.77138283334023}, {"on": true, "note": 38, "velocity": 102, "until": 182.14795183334022}, {"on": false, "note": 38, "velocity": 0, "until": 182.14795183334022}, {"on": true, "note": 39, "velocity": 102, "until": 182.27309520834024}, {"on": false, "note": 39, "velocity": 0, "until": 182.27309520834024}, {"on": true, "note": 38, "velocity": 102, "until": 182.49486895834025}, {"on": false, "note": 38, "velocity": 0, "until": 182.51503020834025}, {"on": true, "note": 36, "velocity": 102, "until": 182.63599770834026}, {"on": false, "note": 36, "velocity": 0, "until": 182.75734483334026}, {"on": true, "note": 34, "velocity": 102, "until": 182.88286783334024}, {"on": false, "note": 34, "velocity": 0, "until": 182.88286783334024}, {"on": true, "note": 38, "velocity": 102, "until": 182.98747033334024}, {"on": false, "note": 38, "velocity": 0, "until": 183.00839083334023}, {"on": true, "note": 36, "velocity": 102, "until": 183.07115233334022}, {"on": false, "note": 36, "velocity": 0, "until": 183.13391383334022}, {"on": true, "note": 33, "velocity": 102, "until": 183.1966753333402}, {"on": false, "note": 33, "velocity": 0, "until": 183.2590572083402}, {"on": true, "note": 31, "velocity": 102, "until": 183.50099220834022}, {"on": false, "note": 31, "velocity": 0, "until": 185.71510112500667}, {"on": true, "note": 38, "velocity": 102, "until": 186.08700062500694}, {"on": false, "note": 38, "velocity": 0, "until": 186.08700062500694}, {"on": true, "note": 39, "velocity": 102, "until": 186.21051800000694}, {"on": false, "note": 39, "velocity": 0, "until": 186.21051800000694}, {"on": true, "note": 38, "velocity": 102, "until": 186.42790916667363}, {"on": false, "note": 38, "velocity": 0, "until": 186.44767200000697}, {"on": true, "note": 36, "velocity": 102, "until": 186.566249000007}, {"on": false, "note": 36, "velocity": 0, "until": 186.68527512500702}, {"on": true, "note": 34, "velocity": 102, "until": 186.80924162500705}, {"on": false, "note": 34, "velocity": 0, "until": 186.80924162500705}, {"on": true, "note": 38, "velocity": 102, "until": 186.91254704167375}, {"on": false, "note": 38, "velocity": 0, "until": 186.9332081250071}, {"on": true, "note": 36, "velocity": 102, "until": 186.99519137500712}, {"on": false, "note": 36, "velocity": 0, "until": 187.05717462500715}, {"on": true, "note": 33, "velocity": 102, "until": 187.11915787500718}, {"on": false, "note": 33, "velocity": 0, "until": 187.18069200000718}, {"on": true, "note": 31, "velocity": 102, "until": 187.4178460000072}, {"on": false, "note": 31, "velocity": 0, "until": 189.59558800000718}, {"on": true, "note": 45, "velocity": 102, "until": 189.95995900000673}, {"on": false, "note": 45, "velocity": 0, "until": 189.95995900000673}, {"on": true, "note": 46, "velocity": 102, "until": 190.08083654167334}, {"on": false, "note": 46, "velocity": 0, "until": 190.08083654167334}, {"on": true, "note": 45, "velocity": 102, "until": 190.29075962500664}, {"on": false, "note": 45, "velocity": 0, "until": 190.30984354167327}, {"on": true, "note": 43, "velocity": 102, "until": 190.42434704167323}, {"on": false, "note": 43, "velocity": 0, "until": 190.53943000000652}, {"on": true, "note": 41, "velocity": 102, "until": 190.66088700000648}, {"on": false, "note": 41, "velocity": 0, "until": 190.66088700000648}, {"on": true, "note": 45, "velocity": 102, "until": 190.76210116667312}, {"on": false, "note": 45, "velocity": 0, "until": 190.78234400000642}, {"on": true, "note": 43, "velocity": 102, "until": 190.8430725000064}, {"on": false, "note": 43, "velocity": 0, "until": 190.90380100000635}, {"on": true, "note": 40, "velocity": 102, "until": 190.96452950000634}, {"on": false, "note": 40, "velocity": 0, "until": 191.02467854167296}, {"on": true, "note": 38, "velocity": 102, "until": 191.2536855416729}, {"on": false, "note": 38, "velocity": 0, "until": 191.4832720000062}, {"on": true, "note": 48, "velocity": 102, "until": 191.84764300000577}, {"on": false, "note": 48, "velocity": 0, "until": 191.84764300000577}, {"on": true, "note": 50, "velocity": 102, "until": 191.96852054167235}, {"on": false, "note": 50, "velocity": 0, "until": 191.96852054167235}, {"on": true, "note": 48, "velocity": 102, "until": 192.17844362500566}, {"on": false, "note": 48, "velocity": 0, "until": 192.19752754167226}, {"on": true, "note": 46, "velocity": 102, "until": 192.3120310416722}, {"on": false, "note": 46, "velocity": 0, "until": 192.42711400000553}, {"on": true, "note": 45, "velocity": 102, "until": 192.5485710000055}, {"on": false, "note": 45, "velocity": 0, "until": 192.5485710000055}, {"on": true, "note": 48, "velocity": 102, "until": 192.64978516667213}, {"on": false, "note": 48, "velocity": 0, "until": 192.6700280000054}, {"on": true, "note": 46, "velocity": 102, "until": 192.73075650000536}, {"on": false, "note": 46, "velocity": 0, "until": 192.7914850000053}, {"on": true, "note": 43, "velocity": 102, "until": 192.8522135000053}, {"on": false, "note": 43, "velocity": 0, "until": 192.9123625416719}, {"on": true, "note": 41, "velocity": 102, "until": 193.14136954167185}, {"on": false, "note": 41, "velocity": 0, "until": 193.37285379167187}, {"on": true, "note": 39, "velocity": 102, "until": 193.6597122500054}, {"on": false, "note": 39, "velocity": 0, "until": 195.3887833333388}, {"on": true, "note": 38, "velocity": 102, "until": 195.64519333333885}, {"on": false, "note": 38, "velocity": 0, "until": 196.39139733333894}, {"on": true, "note": 38, "velocity": 102, "until": 196.647807333339}, {"on": false, "note": 38, "velocity": 0, "until": 197.43813250000576}, {"on": true, "note": 31, "velocity": 102, "until": 205.83905433333916}, {"on": false, "note": 31, "velocity": 0, "until": 206.09474070833915}, {"on": true, "note": 40, "velocity": 102, "until": 206.21426220833916}, {"on": false, "note": 40, "velocity": 0, "until": 206.33378370833915}, {"on": true, "note": 40, "velocity": 102, "until": 206.45330520833917}, {"on": false, "note": 40, "velocity": 0, "until": 206.57328325000583}, {"on": true, "note": 45, "velocity": 102, "until": 206.82328325000583}, {"on": false, "note": 45, "velocity": 0, "until": 207.07270908333916}, {"on": true, "note": 43, "velocity": 102, "until": 207.19081908333922}, {"on": false, "note": 43, "velocity": 0, "until": 207.30892908333925}, {"on": true, "note": 43, "velocity": 102, "until": 207.4270390833393}, {"on": false, "note": 43, "velocity": 0, "until": 207.54559462500598}, {"on": true, "note": 48, "velocity": 102, "until": 207.7947195833393}, {"on": false, "note": 48, "velocity": 0, "until": 209.57360333333924}, {"on": true, "note": 40, "velocity": 102, "until": 210.57612679167272}, {"on": false, "note": 40, "velocity": 0, "until": 210.57612679167272}, {"on": true, "note": 45, "velocity": 102, "until": 210.83036379167274}, {"on": false, "note": 45, "velocity": 0, "until": 211.56643775000612}, {"on": true, "note": 50, "velocity": 102, "until": 211.8185377500061}, {"on": false, "note": 50, "velocity": 0, "until": 212.55642183333939}, {"on": true, "note": 38, "velocity": 87, "until": 212.68194483333937}, {"on": false, "note": 38, "velocity": 0, "until": 213.54229700000604}, {"on": true, "note": 43, "velocity": 102, "until": 213.79125900000594}, {"on": false, "note": 43, "velocity": 0, "until": 214.03969008333928}, {"on": true, "note": 40, "velocity": 102, "until": 214.1578000833393}, {"on": false, "note": 40, "velocity": 0, "until": 214.27591008333934}, {"on": true, "note": 40, "velocity": 102, "until": 214.39402008333937}, {"on": false, "note": 40, "velocity": 0, "until": 214.51253345833936}, {"on": true, "note": 45, "velocity": 102, "until": 214.75843445833934}, {"on": false, "note": 45, "velocity": 0, "until": 215.00385520833933}, {"on": true, "note": 43, "velocity": 102, "until": 215.12104270833933}, {"on": false, "note": 43, "velocity": 0, "until": 215.23823020833933}, {"on": true, "note": 43, "velocity": 102, "until": 215.35541770833933}, {"on": false, "note": 43, "velocity": 0, "until": 215.47296100000597}, {"on": true, "note": 48, "velocity": 102, "until": 215.71825358333928}, {"on": false, "note": 48, "velocity": 0, "until": 217.90650354167244}, {"on": true, "note": 48, "velocity": 102, "until": 218.02100704167242}, {"on": false, "note": 48, "velocity": 0, "until": 218.1355105416724}, {"on": true, "note": 48, "velocity": 102, "until": 218.2500140416724}, {"on": false, "note": 48, "velocity": 0, "until": 218.36509700000568}, {"on": true, "note": 49, "velocity": 102, "until": 218.83068216667232}, {"on": false, "note": 49, "velocity": 0, "until": 218.85034554167228}, {"on": true, "note": 49, "velocity": 102, "until": 219.03164275000557}, {"on": false, "note": 49, "velocity": 0, "until": 219.0793525416722}, {"on": true, "note": 49, "velocity": 102, "until": 219.26064975000548}, {"on": false, "note": 49, "velocity": 0, "until": 219.30893900000544}, {"on": true, "note": 50, "velocity": 102, "until": 219.79542141667167}, {"on": false, "note": 50, "velocity": 0, "until": 220.28415600000488}, {"on": true, "note": 38, "velocity": 102, "until": 220.52707000000484}, {"on": false, "note": 38, "velocity": 0, "until": 221.24057200000482}, {"on": true, "note": 43, "velocity": 102, "until": 221.48348600000477}, {"on": false, "note": 43, "velocity": 0, "until": 222.19698800000475}, {"on": true, "note": 47, "velocity": 102, "until": 223.15340400000443}, {"on": false, "note": 47, "velocity": 0, "until": 223.15340400000443}, {"on": true, "note": 48, "velocity": 102, "until": 223.39631800000438}, {"on": false, "note": 48, "velocity": 0, "until": 224.1098200000044}, {"on": true, "note": 50, "velocity": 102, "until": 224.23127700000435}, {"on": false, "note": 50, "velocity": 0, "until": 225.06623600000435}, {"on": true, "note": 43, "velocity": 102, "until": 225.3091500000043}, {"on": false, "note": 43, "velocity": 0, "until": 226.02265200000429}, {"on": true, "note": 47, "velocity": 102, "until": 226.97906800000396}, {"on": false, "note": 47, "velocity": 0, "until": 226.97906800000396}, {"on": true, "note": 48, "velocity": 102, "until": 227.22198200000392}, {"on": false, "note": 48, "velocity": 0, "until": 227.93548400000392}, {"on": true, "note": 50, "velocity": 102, "until": 228.17839800000388}, {"on": false, "note": 50, "velocity": 0, "until": 228.89190000000386}, {"on": true, "note": 43, "velocity": 102, "until": 229.13610808333718}, {"on": false, "note": 43, "velocity": 0, "until": 229.86843458333726}, {"on": true, "note": 50, "velocity": 102, "until": 230.10843458333727}, {"on": false, "note": 50, "velocity": 0, "until": 230.8065700000039}, {"on": true, "note": 43, "velocity": 102, "until": 231.04948400000384}, {"on": false, "note": 43, "velocity": 0, "until": 231.75041200000382}, {"on": true, "note": 38, "velocity": 102, "until": 231.99332600000378}, {"on": false, "note": 38, "velocity": 0, "until": 232.69405320833715}, {"on": true, "note": 43, "velocity": 102, "until": 232.93651329167054}, {"on": false, "note": 43, "velocity": 0, "until": 246.73286212500446}, {"on": true, "note": 48, "velocity": 92, "until": 247.17367672500447}, {"on": false, "note": 48, "velocity": 0, "until": 247.22206745833782}, {"on": true, "note": 48, "velocity": 92, "until": 247.63745165833785}, {"on": false, "note": 48, "velocity": 0, "until": 247.68419412500452}, {"on": true, "note": 48, "velocity": 92, "until": 248.17339945833785}, {"on": false, "note": 48, "velocity": 0, "until": 248.63532208333785}, {"on": true, "note": 43, "velocity": 102, "until": 248.85132208333786}, {"on": false, "note": 43, "velocity": 0, "until": 248.87532208333786}, {"on": true, "note": 43, "velocity": 102, "until": 249.09132208333787}, {"on": false, "note": 43, "velocity": 0, "until": 249.11532208333787}, {"on": true, "note": 43, "velocity": 102, "until": 249.33132208333788}, {"on": false, "note": 43, "velocity": 0, "until": 249.35532208333788}, {"on": true, "note": 43, "velocity": 102, "until": 249.5713220833379}, {"on": false, "note": 43, "velocity": 0, "until": 249.5953220833379}, {"on": true, "note": 43, "velocity": 102, "until": 250.07493745833787}, {"on": false, "note": 43, "velocity": 0, "until": 250.07493745833787}, {"on": true, "note": 43, "velocity": 102, "until": 250.16147583333785}, {"on": false, "note": 43, "velocity": 0, "until": 250.19032195833782}, {"on": true, "note": 41, "velocity": 102, "until": 250.2768603333378}, {"on": false, "note": 41, "velocity": 0, "until": 250.30570645833777}, {"on": true, "note": 40, "velocity": 102, "until": 250.3922448333377}, {"on": false, "note": 40, "velocity": 0, "until": 250.4210909583377}, {"on": true, "note": 38, "velocity": 102, "until": 250.50762933333766}, {"on": false, "note": 38, "velocity": 0, "until": 250.53706412500432}, {"on": true, "note": 36, "velocity": 92, "until": 251.02626945833765}, {"on": false, "note": 36, "velocity": 0, "until": 251.02626945833765}, {"on": true, "note": 48, "velocity": 92, "until": 251.48839612500433}, {"on": false, "note": 48, "velocity": 0, "until": 251.48839612500433}, {"on": true, "note": 48, "velocity": 92, "until": 251.97760145833766}, {"on": false, "note": 48, "velocity": 0, "until": 252.4393665833377}, {"on": true, "note": 40, "velocity": 102, "until": 252.55747658333772}, {"on": false, "note": 40, "velocity": 0, "until": 252.67558658333775}, {"on": true, "note": 40, "velocity": 102, "until": 252.79369658333778}, {"on": false, "note": 40, "velocity": 0, "until": 252.9118065833378}, {"on": true, "note": 40, "velocity": 102, "until": 253.02991658333784}, {"on": false, "note": 40, "velocity": 0, "until": 253.14802658333787}, {"on": true, "note": 40, "velocity": 102, "until": 253.2661365833379}, {"on": false, "note": 40, "velocity": 0, "until": 253.38424658333793}, {"on": true, "note": 40, "velocity": 102, "until": 253.8564594583383}, {"on": false, "note": 40, "velocity": 0, "until": 258.1709221250046}, {"on": true, "note": 43, "velocity": 102, "until": 258.2933706250046}, {"on": false, "note": 43, "velocity": 0, "until": 258.41581912500465}, {"on": true, "note": 43, "velocity": 102, "until": 258.89089645833775}, {"on": false, "note": 43, "velocity": 0, "until": 258.89089645833775}, {"on": true, "note": 48, "velocity": 102, "until": 259.10243470833774}, {"on": false, "note": 48, "velocity": 0, "until": 259.1222541250044}, {"on": true, "note": 43, "velocity": 102, "until": 259.24470262500444}, {"on": false, "note": 43, "velocity": 0, "until": 259.36715112500445}, {"on": true, "note": 43, "velocity": 102, "until": 259.84222845833756}, {"on": false, "note": 43, "velocity": 0, "until": 259.84222845833756}, {"on": true, "note": 48, "velocity": 102, "until": 260.05376670833755}, {"on": false, "note": 48, "velocity": 0, "until": 260.0735861250042}, {"on": true, "note": 43, "velocity": 102, "until": 260.19603462500424}, {"on": false, "note": 43, "velocity": 0, "until": 260.31848312500426}, {"on": true, "note": 43, "velocity": 102, "until": 260.79356045833737}, {"on": false, "note": 43, "velocity": 0, "until": 260.79356045833737}, {"on": true, "note": 48, "velocity": 102, "until": 261.00509870833736}, {"on": false, "note": 48, "velocity": 0, "until": 261.02491812500404}, {"on": true, "note": 43, "velocity": 102, "until": 261.2703406666708}, {"on": false, "note": 43, "velocity": 0, "until": 265.6233254583371}, {"on": true, "note": 36, "velocity": 102, "until": 265.73870995833704}, {"on": false, "note": 36, "velocity": 0, "until": 265.854479083337}, {"on": true, "note": 41, "velocity": 102, "until": 265.9744790833371}, {"on": false, "note": 41, "velocity": 0, "until": 266.09447908333715}, {"on": true, "note": 36, "velocity": 102, "until": 266.2144790833372}, {"on": false, "note": 36, "velocity": 0, "until": 266.33447908333727}, {"on": true, "note": 41, "velocity": 102, "until": 266.45447908333733}, {"on": false, "note": 41, "velocity": 0, "until": 266.5744790833374}, {"on": true, "note": 36, "velocity": 102, "until": 266.69447908333746}, {"on": false, "note": 36, "velocity": 0, "until": 266.8144790833375}, {"on": true, "note": 41, "velocity": 102, "until": 267.29409445833835}, {"on": false, "note": 41, "velocity": 0, "until": 269.4093254583378}, {"on": true, "note": 43, "velocity": 102, "until": 269.5247099583377}, {"on": false, "note": 43, "velocity": 0, "until": 269.6403215833376}, {"on": true, "note": 48, "velocity": 102, "until": 269.7584315833375}, {"on": false, "note": 48, "velocity": 0, "until": 269.87654158333737}, {"on": true, "note": 43, "velocity": 102, "until": 269.99465158333726}, {"on": false, "note": 43, "velocity": 0, "until": 270.11276158333715}, {"on": true, "note": 48, "velocity": 102, "until": 270.23087158333703}, {"on": false, "note": 48, "velocity": 0, "until": 270.3489815833369}, {"on": true, "note": 43, "velocity": 102, "until": 270.4670915833368}, {"on": false, "note": 43, "velocity": 0, "until": 270.5852015833367}, {"on": true, "note": 48, "velocity": 102, "until": 270.8214215833366}, {"on": false, "note": 48, "velocity": 0, "until": 271.0574144583365}, {"on": true, "note": 43, "velocity": 102, "until": 271.4997217083362}, {"on": false, "note": 43, "velocity": 0, "until": 271.5195411250029}, {"on": true, "note": 40, "velocity": 102, "until": 271.98892704166957}, {"on": false, "note": 40, "velocity": 0, "until": 272.0087464583362}, {"on": true, "note": 42, "velocity": 102, "until": 272.4510537083359}, {"on": false, "note": 42, "velocity": 0, "until": 272.4708731250026}, {"on": true, "note": 43, "velocity": 102, "until": 272.94025904166926}, {"on": false, "note": 43, "velocity": 0, "until": 272.9600784583359}, {"on": true, "note": 31, "velocity": 102, "until": 273.4023857083356}, {"on": false, "note": 31, "velocity": 0, "until": 273.4222051250023}, {"on": true, "note": 36, "velocity": 102, "until": 273.52424554166896}, {"on": false, "note": 36, "velocity": 0, "until": 273.5446536250023}, {"on": true, "note": 36, "velocity": 102, "until": 273.646694041669}, {"on": false, "note": 36, "velocity": 0, "until": 273.6671021250023}, {"on": true, "note": 36, "velocity": 102, "until": 273.769142541669}, {"on": false, "note": 36, "velocity": 0, "until": 273.78955062500233}, {"on": true, "note": 36, "velocity": 102, "until": 273.891591041669}, {"on": false, "note": 36, "velocity": 0, "until": 273.91141045833564}, {"on": true, "note": 36, "velocity": 102, "until": 274.0075642083356}, {"on": false, "note": 36, "velocity": 0, "until": 274.02679495833564}, {"on": true, "note": 36, "velocity": 102, "until": 274.1229487083356}, {"on": false, "note": 36, "velocity": 0, "until": 274.1421794583356}, {"on": true, "note": 39, "velocity": 102, "until": 274.2383332083356}, {"on": false, "note": 39, "velocity": 0, "until": 274.2575639583356}, {"on": true, "note": 39, "velocity": 102, "until": 274.3537177083356}, {"on": false, "note": 39, "velocity": 0, "until": 274.37353712500226}, {"on": true, "note": 36, "velocity": 102, "until": 274.47557754166894}, {"on": false, "note": 36, "velocity": 0, "until": 274.4959856250023}, {"on": true, "note": 36, "velocity": 102, "until": 274.59802604166896}, {"on": false, "note": 36, "velocity": 0, "until": 274.6184341250023}, {"on": true, "note": 36, "velocity": 102, "until": 274.720474541669}, {"on": false, "note": 36, "velocity": 0, "until": 274.7408826250023}, {"on": true, "note": 36, "velocity": 102, "until": 274.842923041669}, {"on": false, "note": 36, "velocity": 0, "until": 274.8627424583356}, {"on": true, "note": 36, "velocity": 102, "until": 274.9588962083354}, {"on": false, "note": 36, "velocity": 0, "until": 274.97812695833534}, {"on": true, "note": 36, "velocity": 102, "until": 275.07428070833515}, {"on": false, "note": 36, "velocity": 0, "until": 275.0935114583351}, {"on": true, "note": 39, "velocity": 102, "until": 275.1896652083351}, {"on": false, "note": 39, "velocity": 0, "until": 275.2088959583351}, {"on": true, "note": 39, "velocity": 102, "until": 275.3050497083351}, {"on": false, "note": 39, "velocity": 0, "until": 275.3248691250018}, {"on": true, "note": 36, "velocity": 102, "until": 275.42690954166846}, {"on": false, "note": 36, "velocity": 0, "until": 275.4473176250018}, {"on": true, "note": 36, "velocity": 102, "until": 275.5493580416685}, {"on": false, "note": 36, "velocity": 0, "until": 275.5697661250018}, {"on": true, "note": 39, "velocity": 102, "until": 275.6718065416685}, {"on": false, "note": 39, "velocity": 0, "until": 275.69221462500184}, {"on": true, "note": 39, "velocity": 102, "until": 275.7942550416685}, {"on": false, "note": 39, "velocity": 0, "until": 275.81407445833514}, {"on": true, "note": 36, "velocity": 102, "until": 275.91022820833496}, {"on": false, "note": 36, "velocity": 0, "until": 275.9294589583349}, {"on": true, "note": 36, "velocity": 102, "until": 276.02561270833485}, {"on": false, "note": 36, "velocity": 0, "until": 276.0448434583348}, {"on": true, "note": 39, "velocity": 102, "until": 276.1409972083348}, {"on": false, "note": 39, "velocity": 0, "until": 276.1602279583348}, {"on": true, "note": 39, "velocity": 102, "until": 276.25638170833474}, {"on": false, "note": 39, "velocity": 0, "until": 276.2762011250014}, {"on": true, "note": 36, "velocity": 102, "until": 276.3782415416681}, {"on": false, "note": 36, "velocity": 0, "until": 276.39864962500144}, {"on": true, "note": 36, "velocity": 102, "until": 276.5006900416681}, {"on": false, "note": 36, "velocity": 0, "until": 276.52109812500146}, {"on": true, "note": 39, "velocity": 102, "until": 276.62313854166814}, {"on": false, "note": 39, "velocity": 0, "until": 276.6435466250015}, {"on": true, "note": 39, "velocity": 102, "until": 276.74558704166816}, {"on": false, "note": 39, "velocity": 0, "until": 276.7654064583348}, {"on": true, "note": 36, "velocity": 102, "until": 276.8615602083346}, {"on": false, "note": 36, "velocity": 0, "until": 276.88079095833456}, {"on": true, "note": 36, "velocity": 102, "until": 276.9769447083345}, {"on": false, "note": 36, "velocity": 0, "until": 276.99617545833445}, {"on": true, "note": 39, "velocity": 102, "until": 277.09232920833443}, {"on": false, "note": 39, "velocity": 0, "until": 277.11155995833445}, {"on": true, "note": 39, "velocity": 102, "until": 277.2077137083344}, {"on": false, "note": 39, "velocity": 0, "until": 277.22753312500106}, {"on": true, "note": 39, "velocity": 102, "until": 277.32957354166774}, {"on": false, "note": 39, "velocity": 0, "until": 277.3499816250011}, {"on": true, "note": 39, "velocity": 102, "until": 277.45202204166776}, {"on": false, "note": 39, "velocity": 0, "until": 277.4724301250011}, {"on": true, "note": 39, "velocity": 102, "until": 277.5744705416678}, {"on": false, "note": 39, "velocity": 0, "until": 277.5948786250011}, {"on": true, "note": 39, "velocity": 102, "until": 277.6969190416678}, {"on": false, "note": 39, "velocity": 0, "until": 277.7167384583344}, {"on": true, "note": 39, "velocity": 102, "until": 277.8128922083342}, {"on": false, "note": 39, "velocity": 0, "until": 277.83212295833414}, {"on": true, "note": 39, "velocity": 102, "until": 277.92827670833395}, {"on": false, "note": 39, "velocity": 0, "until": 277.9475074583339}, {"on": true, "note": 38, "velocity": 102, "until": 278.0436612083339}, {"on": false, "note": 38, "velocity": 0, "until": 278.0628919583339}, {"on": true, "note": 38, "velocity": 102, "until": 278.1590457083339}, {"on": false, "note": 38, "velocity": 0, "until": 278.1788651250005}, {"on": true, "note": 39, "velocity": 102, "until": 278.2809055416672}, {"on": false, "note": 39, "velocity": 0, "until": 278.30131362500055}, {"on": true, "note": 39, "velocity": 102, "until": 278.4033540416672}, {"on": false, "note": 39, "velocity": 0, "until": 278.42376212500056}, {"on": true, "note": 39, "velocity": 102, "until": 278.52580254166725}, {"on": false, "note": 39, "velocity": 0, "until": 278.5462106250006}, {"on": true, "note": 39, "velocity": 102, "until": 278.64825104166727}, {"on": false, "note": 39, "velocity": 0, "until": 278.6680704583339}, {"on": true, "note": 39, "velocity": 102, "until": 278.76422420833364}, {"on": false, "note": 39, "velocity": 0, "until": 278.7834549583336}, {"on": true, "note": 39, "velocity": 102, "until": 278.8796087083334}, {"on": false, "note": 39, "velocity": 0, "until": 278.8988394583334}, {"on": true, "note": 38, "velocity": 102, "until": 278.99499320833337}, {"on": false, "note": 38, "velocity": 0, "until": 279.0142239583334}, {"on": true, "note": 38, "velocity": 102, "until": 279.1103777083334}, {"on": false, "note": 38, "velocity": 0, "until": 279.130197125}, {"on": true, "note": 39, "velocity": 102, "until": 279.37509412500003}, {"on": false, "note": 39, "velocity": 0, "until": 279.61940245833335}, {"on": true, "note": 39, "velocity": 102, "until": 279.85017145833297}, {"on": false, "note": 39, "velocity": 0, "until": 280.08152912499946}, {"on": true, "note": 39, "velocity": 102, "until": 280.3264261249995}, {"on": false, "note": 39, "velocity": 0, "until": 280.5707344583328}, {"on": true, "note": 39, "velocity": 102, "until": 280.66688820833264}, {"on": false, "note": 39, "velocity": 0, "until": 280.6861189583326}, {"on": true, "note": 39, "velocity": 102, "until": 280.7822727083325}, {"on": false, "note": 39, "velocity": 0, "until": 280.8015034583325}, {"on": true, "note": 39, "velocity": 102, "until": 280.8976572083325}, {"on": false, "note": 39, "velocity": 0, "until": 280.91688795833244}, {"on": true, "note": 39, "velocity": 102, "until": 281.0130417083324}, {"on": false, "note": 39, "velocity": 0, "until": 281.03286112499904}, {"on": true, "note": 38, "velocity": 102, "until": 281.2777581249991}, {"on": false, "note": 38, "velocity": 0, "until": 284.9388513333324}, {"on": true, "note": 43, "velocity": 102, "until": 285.0016128333324}, {"on": false, "note": 43, "velocity": 0, "until": 285.06437433333235}, {"on": true, "note": 43, "velocity": 102, "until": 285.1271358333323}, {"on": false, "note": 43, "velocity": 0, "until": 285.1898973333323}, {"on": true, "note": 43, "velocity": 102, "until": 285.25265883333225}, {"on": false, "note": 43, "velocity": 0, "until": 285.3154203333322}, {"on": true, "note": 43, "velocity": 102, "until": 285.3781818333322}, {"on": false, "note": 43, "velocity": 0, "until": 285.44056370833226}, {"on": true, "note": 43, "velocity": 102, "until": 285.66233745833244}, {"on": false, "note": 43, "velocity": 0, "until": 285.6824987083325}, {"on": true, "note": 43, "velocity": 102, "until": 285.9042724583327}, {"on": false, "note": 43, "velocity": 0, "until": 285.9248133333326}, {"on": true, "note": 43, "velocity": 102, "until": 285.9875748333326}, {"on": false, "note": 43, "velocity": 0, "until": 286.05033633333255}, {"on": true, "note": 43, "velocity": 102, "until": 286.1130978333325}, {"on": false, "note": 43, "velocity": 0, "until": 286.1758593333325}, {"on": true, "note": 43, "velocity": 102, "until": 286.23862083333245}, {"on": false, "note": 43, "velocity": 0, "until": 286.3013823333324}, {"on": true, "note": 43, "velocity": 102, "until": 286.3641438333324}, {"on": false, "note": 43, "velocity": 0, "until": 286.42652570833246}, {"on": true, "note": 43, "velocity": 102, "until": 286.64829945833264}, {"on": false, "note": 43, "velocity": 0, "until": 286.6684607083327}, {"on": true, "note": 43, "velocity": 102, "until": 286.8902344583329}, {"on": false, "note": 43, "velocity": 0, "until": 286.9107753333328}, {"on": true, "note": 43, "velocity": 102, "until": 286.9735368333328}, {"on": false, "note": 43, "velocity": 0, "until": 287.03629833333275}, {"on": true, "note": 43, "velocity": 102, "until": 287.0990598333327}, {"on": false, "note": 43, "velocity": 0, "until": 287.1618213333327}, {"on": true, "note": 43, "velocity": 102, "until": 287.22458283333265}, {"on": false, "note": 43, "velocity": 0, "until": 287.2873443333326}, {"on": true, "note": 43, "velocity": 102, "until": 287.3501058333326}, {"on": false, "note": 43, "velocity": 0, "until": 287.41248770833266}, {"on": true, "note": 43, "velocity": 102, "until": 287.63426145833284}, {"on": false, "note": 43, "velocity": 0, "until": 287.6544227083329}, {"on": true, "note": 43, "velocity": 102, "until": 287.8761964583331}, {"on": false, "note": 43, "velocity": 0, "until": 287.896737333333}, {"on": true, "note": 43, "velocity": 102, "until": 287.959498833333}, {"on": false, "note": 43, "velocity": 0, "until": 288.02226033333295}, {"on": true, "note": 43, "velocity": 102, "until": 288.0850218333329}, {"on": false, "note": 43, "velocity": 0, "until": 288.1477833333329}, {"on": true, "note": 43, "velocity": 102, "until": 288.21054483333285}, {"on": false, "note": 43, "velocity": 0, "until": 288.2733063333328}, {"on": true, "note": 43, "velocity": 102, "until": 288.3360678333328}, {"on": false, "note": 43, "velocity": 0, "until": 288.39844970833286}, {"on": true, "note": 43, "velocity": 102, "until": 288.62022345833304}, {"on": false, "note": 43, "velocity": 0, "until": 288.6403847083331}, {"on": true, "note": 43, "velocity": 102, "until": 288.79562633333325}, {"on": false, "note": 43, "velocity": 0, "until": 288.8826993333332}, {"on": true, "note": 42, "velocity": 102, "until": 288.945460833333}, {"on": false, "note": 42, "velocity": 0, "until": 289.00822233333275}, {"on": true, "note": 42, "velocity": 102, "until": 289.07098383333255}, {"on": false, "note": 42, "velocity": 0, "until": 289.13374533333234}, {"on": true, "note": 42, "velocity": 102, "until": 289.1965068333322}, {"on": false, "note": 42, "velocity": 0, "until": 289.259268333332}, {"on": true, "note": 42, "velocity": 102, "until": 289.32202983333184}, {"on": false, "note": 42, "velocity": 0, "until": 289.3844117083318}, {"on": true, "note": 42, "velocity": 102, "until": 289.6061854583319}, {"on": false, "note": 42, "velocity": 0, "until": 289.62634670833194}, {"on": true, "note": 38, "velocity": 102, "until": 289.848120458332}, {"on": false, "note": 38, "velocity": 0, "until": 289.86866133333194}, {"on": true, "note": 43, "velocity": 102, "until": 289.9941843333319}, {"on": false, "note": 43, "velocity": 0, "until": 290.1197073333318}, {"on": true, "note": 38, "velocity": 87, "until": 290.24523033333173}, {"on": false, "note": 38, "velocity": 0, "until": 290.3703737083318}, {"on": true, "note": 43, "velocity": 87, "until": 290.49134120833185}, {"on": false, "note": 43, "velocity": 0, "until": 290.6123087083319}, {"on": true, "note": 43, "velocity": 87, "until": 290.733276208332}, {"on": false, "note": 43, "velocity": 0, "until": 290.8546233333319}, {"on": true, "note": 42, "velocity": 102, "until": 290.9173848333318}, {"on": false, "note": 42, "velocity": 0, "until": 290.9801463333316}, {"on": true, "note": 42, "velocity": 102, "until": 291.0429078333315}, {"on": false, "note": 42, "velocity": 0, "until": 291.1056693333313}, {"on": true, "note": 42, "velocity": 102, "until": 291.16843083333123}, {"on": false, "note": 42, "velocity": 0, "until": 291.23119233333114}, {"on": true, "note": 42, "velocity": 102, "until": 291.29395383333105}, {"on": false, "note": 42, "velocity": 0, "until": 291.3563357083311}, {"on": true, "note": 42, "velocity": 102, "until": 291.57810945833114}, {"on": false, "note": 42, "velocity": 0, "until": 291.5982707083312}, {"on": true, "note": 38, "velocity": 102, "until": 291.82004445833127}, {"on": false, "note": 38, "velocity": 0, "until": 291.8405853333312}, {"on": true, "note": 43, "velocity": 102, "until": 291.96610833333114}, {"on": false, "note": 43, "velocity": 0, "until": 292.09163133333107}, {"on": true, "note": 38, "velocity": 87, "until": 292.217154333331}, {"on": false, "note": 38, "velocity": 0, "until": 292.34229770833105}, {"on": true, "note": 31, "velocity": 87, "until": 292.58594449999777}, {"on": false, "note": 31, "velocity": 0, "until": 292.8678538333311}, {"on": true, "note": 43, "velocity": 102, "until": 292.9319563333311}, {"on": false, "note": 43, "velocity": 0, "until": 292.99605883333106}, {"on": true, "note": 43, "velocity": 102, "until": 293.06016133333105}, {"on": false, "note": 43, "velocity": 0, "until": 293.12426383333104}, {"on": true, "note": 43, "velocity": 102, "until": 293.18836633333103}, {"on": false, "note": 43, "velocity": 0, "until": 293.252468833331}, {"on": true, "note": 43, "velocity": 102, "until": 293.316571333331}, {"on": false, "note": 43, "velocity": 0, "until": 293.3801941249977}, {"on": true, "note": 43, "velocity": 102, "until": 293.6046830416644}, {"on": false, "note": 43, "velocity": 0, "until": 293.6250911249977}, {"on": true, "note": 43, "velocity": 102, "until": 293.8495800416644}, {"on": false, "note": 43, "velocity": 0, "until": 293.870467833331}, {"on": true, "note": 43, "velocity": 102, "until": 293.934570333331}, {"on": false, "note": 43, "velocity": 0, "until": 293.998672833331}, {"on": true, "note": 43, "velocity": 102, "until": 294.062775333331}, {"on": false, "note": 43, "velocity": 0, "until": 294.126877833331}, {"on": true, "note": 43, "velocity": 102, "until": 294.19098033333097}, {"on": false, "note": 43, "velocity": 0, "until": 294.25508283333096}, {"on": true, "note": 43, "velocity": 102, "until": 294.31918533333095}, {"on": false, "note": 43, "velocity": 0, "until": 294.3828081249976}, {"on": true, "note": 43, "velocity": 102, "until": 294.6072970416643}, {"on": false, "note": 43, "velocity": 0, "until": 294.62770512499765}, {"on": true, "note": 43, "velocity": 102, "until": 294.85219404166435}, {"on": false, "note": 43, "velocity": 0, "until": 294.87308183333096}, {"on": true, "note": 39, "velocity": 102, "until": 294.93718433333095}, {"on": false, "note": 39, "velocity": 0, "until": 295.00128683333094}, {"on": true, "note": 39, "velocity": 102, "until": 295.0653893333309}, {"on": false, "note": 39, "velocity": 0, "until": 295.1294918333309}, {"on": true, "note": 39, "velocity": 102, "until": 295.1935943333309}, {"on": false, "note": 39, "velocity": 0, "until": 295.2576968333309}, {"on": true, "note": 39, "velocity": 102, "until": 295.3217993333309}, {"on": false, "note": 39, "velocity": 0, "until": 295.38542212499755}, {"on": true, "note": 39, "velocity": 102, "until": 295.60991104166425}, {"on": false, "note": 39, "velocity": 0, "until": 295.6303191249976}, {"on": true, "note": 39, "velocity": 102, "until": 295.8548080416643}, {"on": false, "note": 39, "velocity": 0, "until": 295.8756958333309}, {"on": true, "note": 39, "velocity": 102, "until": 295.9397983333309}, {"on": false, "note": 39, "velocity": 0, "until": 296.0039008333309}, {"on": true, "note": 39, "velocity": 102, "until": 296.06800333333086}, {"on": false, "note": 39, "velocity": 0, "until": 296.13210583333085}, {"on": true, "note": 39, "velocity": 102, "until": 296.19620833333084}, {"on": false, "note": 39, "velocity": 0, "until": 296.26031083333083}, {"on": true, "note": 39, "velocity": 102, "until": 296.3244133333308}, {"on": false, "note": 39, "velocity": 0, "until": 296.3880361249975}, {"on": true, "note": 40, "velocity": 102, "until": 296.6125250416642}, {"on": false, "note": 40, "velocity": 0, "until": 296.6329331249975}, {"on": true, "note": 40, "velocity": 102, "until": 296.8574220416642}, {"on": false, "note": 40, "velocity": 0, "until": 296.87830983333083}, {"on": true, "note": 41, "velocity": 102, "until": 296.9424123333308}, {"on": false, "note": 41, "velocity": 0, "until": 297.0065148333307}, {"on": true, "note": 41, "velocity": 102, "until": 297.0706173333307}, {"on": false, "note": 41, "velocity": 0, "until": 297.1347198333307}, {"on": true, "note": 41, "velocity": 102, "until": 297.1988223333307}, {"on": false, "note": 41, "velocity": 0, "until": 297.26292483333077}, {"on": true, "note": 41, "velocity": 102, "until": 297.32702733333076}, {"on": false, "note": 41, "velocity": 0, "until": 297.3906501249974}, {"on": true, "note": 41, "velocity": 102, "until": 297.61513904166407}, {"on": false, "note": 41, "velocity": 0, "until": 297.6355471249974}, {"on": true, "note": 41, "velocity": 102, "until": 297.8600360416641}, {"on": false, "note": 41, "velocity": 0, "until": 297.88092383333077}, {"on": true, "note": 46, "velocity": 102, "until": 298.00912883333075}, {"on": false, "note": 46, "velocity": 0, "until": 298.13733383333073}, {"on": true, "note": 41, "velocity": 87, "until": 298.2655388333307}, {"on": false, "note": 41, "velocity": 0, "until": 298.39326412499736}, {"on": true, "note": 46, "velocity": 87, "until": 298.5157126249974}, {"on": false, "note": 46, "velocity": 0, "until": 298.6381611249974}, {"on": true, "note": 46, "velocity": 87, "until": 298.7606096249974}, {"on": false, "note": 46, "velocity": 0, "until": 298.88353783333076}, {"on": true, "note": 41, "velocity": 102, "until": 298.94764033333075}, {"on": false, "note": 41, "velocity": 0, "until": 299.01174283333074}, {"on": true, "note": 41, "velocity": 102, "until": 299.07584533333073}, {"on": false, "note": 41, "velocity": 0, "until": 299.13994783333067}, {"on": true, "note": 41, "velocity": 102, "until": 299.2040503333307}, {"on": false, "note": 41, "velocity": 0, "until": 299.2681528333307}, {"on": true, "note": 41, "velocity": 102, "until": 299.3322553333307}, {"on": false, "note": 41, "velocity": 0, "until": 299.39587812499735}, {"on": true, "note": 41, "velocity": 102, "until": 299.620367041664}, {"on": false, "note": 41, "velocity": 0, "until": 299.64077512499733}, {"on": true, "note": 41, "velocity": 102, "until": 299.86526404166403}, {"on": false, "note": 41, "velocity": 0, "until": 299.8861518333307}, {"on": true, "note": 46, "velocity": 102, "until": 300.0143568333307}, {"on": false, "note": 46, "velocity": 0, "until": 300.14256183333066}, {"on": true, "note": 41, "velocity": 87, "until": 300.27076683333064}, {"on": false, "note": 41, "velocity": 0, "until": 300.3984921249973}, {"on": true, "note": 34, "velocity": 87, "until": 300.64454870833066}, {"on": false, "note": 34, "velocity": 0, "until": 300.91637233333057}, {"on": true, "note": 38, "velocity": 102, "until": 301.29294133333}, {"on": false, "note": 38, "velocity": 0, "until": 301.29294133333}, {"on": true, "note": 39, "velocity": 102, "until": 301.41808470833007}, {"on": false, "note": 39, "velocity": 0, "until": 301.41808470833007}, {"on": true, "note": 38, "velocity": 102, "until": 301.63985845833014}, {"on": false, "note": 38, "velocity": 0, "until": 301.6600197083302}, {"on": true, "note": 36, "velocity": 102, "until": 301.78098720833026}, {"on": false, "note": 36, "velocity": 0, "until": 301.9023343333302}, {"on": true, "note": 34, "velocity": 102, "until": 302.02785733333013}, {"on": false, "note": 34, "velocity": 0, "until": 302.02785733333013}, {"on": true, "note": 38, "velocity": 102, "until": 302.1324598333301}, {"on": false, "note": 38, "velocity": 0, "until": 302.15338033333}, {"on": true, "note": 36, "velocity": 102, "until": 302.21614183332997}, {"on": false, "note": 36, "velocity": 0, "until": 302.27890333332994}, {"on": true, "note": 33, "velocity": 102, "until": 302.3416648333299}, {"on": false, "note": 33, "velocity": 0, "until": 302.40404670833}, {"on": true, "note": 31, "velocity": 102, "until": 302.64598170833005}, {"on": false, "note": 31, "velocity": 0, "until": 304.8600906249967}, {"on": true, "note": 38, "velocity": 102, "until": 305.23199012499697}, {"on": false, "note": 38, "velocity": 0, "until": 305.23199012499697}, {"on": true, "note": 39, "velocity": 102, "until": 305.3555074999969}, {"on": false, "note": 39, "velocity": 0, "until": 305.3555074999969}, {"on": true, "note": 38, "velocity": 102, "until": 305.57289866666355}, {"on": false, "note": 38, "velocity": 0, "until": 305.59266149999684}, {"on": true, "note": 36, "velocity": 102, "until": 305.7112384999968}, {"on": false, "note": 36, "velocity": 0, "until": 305.8302646249968}, {"on": true, "note": 34, "velocity": 102, "until": 305.95423112499685}, {"on": false, "note": 34, "velocity": 0, "until": 305.95423112499685}, {"on": true, "note": 38, "velocity": 102, "until": 306.0575365416635}, {"on": false, "note": 38, "velocity": 0, "until": 306.0781976249969}, {"on": true, "note": 36, "velocity": 102, "until": 306.14018087499693}, {"on": false, "note": 36, "velocity": 0, "until": 306.20216412499695}, {"on": true, "note": 33, "velocity": 102, "until": 306.264147374997}, {"on": false, "note": 33, "velocity": 0, "until": 306.32568149999696}, {"on": true, "note": 31, "velocity": 102, "until": 306.5628354999969}, {"on": false, "note": 31, "velocity": 0, "until": 308.7405774999971}, {"on": true, "note": 45, "velocity": 102, "until": 309.1049484999976}, {"on": false, "note": 45, "velocity": 0, "until": 309.1049484999976}, {"on": true, "note": 46, "velocity": 102, "until": 309.2258260416645}, {"on": false, "note": 46, "velocity": 0, "until": 309.2258260416645}, {"on": true, "note": 45, "velocity": 102, "until": 309.4357491249978}, {"on": false, "note": 45, "velocity": 0, "until": 309.45483304166453}, {"on": true, "note": 43, "velocity": 102, "until": 309.5693365416646}, {"on": false, "note": 43, "velocity": 0, "until": 309.684419499998}, {"on": true, "note": 41, "velocity": 102, "until": 309.8058764999981}, {"on": false, "note": 41, "velocity": 0, "until": 309.8058764999981}, {"on": true, "note": 45, "velocity": 102, "until": 309.9070906666647}, {"on": false, "note": 45, "velocity": 0, "until": 309.9273334999981}, {"on": true, "note": 43, "velocity": 102, "until": 309.9880619999981}, {"on": false, "note": 43, "velocity": 0, "until": 310.0487904999981}, {"on": true, "note": 40, "velocity": 102, "until": 310.1095189999981}, {"on": false, "note": 40, "velocity": 0, "until": 310.1696680416648}, {"on": true, "note": 38, "velocity": 102, "until": 310.3986750416649}, {"on": false, "note": 38, "velocity": 0, "until": 310.6282614999983}, {"on": true, "note": 48, "velocity": 102, "until": 310.99263249999876}, {"on": false, "note": 48, "velocity": 0, "until": 310.99263249999876}, {"on": true, "note": 50, "velocity": 102, "until": 311.11351004166573}, {"on": false, "note": 50, "velocity": 0, "until": 311.11351004166573}, {"on": true, "note": 48, "velocity": 102, "until": 311.3234331249991}, {"on": false, "note": 48, "velocity": 0, "until": 311.3425170416659}, {"on": true, "note": 46, "velocity": 102, "until": 311.45702054166594}, {"on": false, "note": 46, "velocity": 0, "until": 311.57210349999934}, {"on": true, "note": 45, "velocity": 102, "until": 311.6935604999994}, {"on": false, "note": 45, "velocity": 0, "until": 311.6935604999994}, {"on": true, "note": 48, "velocity": 102, "until": 311.79477466666606}, {"on": false, "note": 48, "velocity": 0, "until": 311.8150174999995}, {"on": true, "note": 46, "velocity": 102, "until": 311.87574599999954}, {"on": false, "note": 46, "velocity": 0, "until": 311.9364744999996}, {"on": true, "note": 43, "velocity": 102, "until": 311.99720299999956}, {"on": false, "note": 43, "velocity": 0, "until": 312.0573520416663}, {"on": true, "note": 41, "velocity": 102, "until": 312.28635904166646}, {"on": false, "note": 41, "velocity": 0, "until": 312.51784329166645}, {"on": true, "note": 39, "velocity": 102, "until": 312.80470174999965}, {"on": false, "note": 39, "velocity": 0, "until": 314.53377283333344}, {"on": true, "note": 38, "velocity": 102, "until": 314.79018283333335}, {"on": false, "note": 38, "velocity": 0, "until": 315.5363868333333}, {"on": true, "note": 38, "velocity": 102, "until": 315.7927968333332}, {"on": false, "note": 38, "velocity": 0, "until": 316.58312200000006}, {"on": true, "note": 31, "velocity": 102, "until": 324.9840438333366}, {"on": false, "note": 31, "velocity": 0, "until": 325.2397302083366}, {"on": true, "note": 40, "velocity": 102, "until": 325.3592517083365}, {"on": false, "note": 40, "velocity": 0, "until": 325.47877320833646}, {"on": true, "note": 40, "velocity": 102, "until": 325.59829470833637}, {"on": false, "note": 40, "velocity": 0, "until": 325.7182727500031}, {"on": true, "note": 45, "velocity": 102, "until": 325.9682727500031}, {"on": false, "note": 45, "velocity": 0, "until": 326.2176985833364}, {"on": true, "note": 43, "velocity": 102, "until": 326.3358085833363}, {"on": false, "note": 43, "velocity": 0, "until": 326.4539185833362}, {"on": true, "note": 43, "velocity": 102, "until": 326.5720285833361}, {"on": false, "note": 43, "velocity": 0, "until": 326.6905841250028}, {"on": true, "note": 48, "velocity": 102, "until": 326.93970908333614}, {"on": false, "note": 48, "velocity": 0, "until": 328.7185928333362}, {"on": true, "note": 40, "velocity": 102, "until": 329.7211162916696}, {"on": false, "note": 40, "velocity": 0, "until": 329.7211162916696}, {"on": true, "note": 45, "velocity": 102, "until": 329.9753532916696}, {"on": false, "note": 45, "velocity": 0, "until": 330.711427250003}, {"on": true, "note": 50, "velocity": 102, "until": 330.9635272500031}, {"on": false, "note": 50, "velocity": 0, "until": 331.70141133333647}, {"on": true, "note": 38, "velocity": 87, "until": 331.8269343333364}, {"on": false, "note": 38, "velocity": 0, "until": 332.68728650000304}, {"on": true, "note": 43, "velocity": 102, "until": 332.9362485000027}, {"on": false, "note": 43, "velocity": 0, "until": 333.184679583336}, {"on": true, "note": 40, "velocity": 102, "until": 333.3027895833359}, {"on": false, "note": 40, "velocity": 0, "until": 333.42089958333577}, {"on": true, "note": 40, "velocity": 102, "until": 333.53900958333566}, {"on": false, "note": 40, "velocity": 0, "until": 333.6575229583357}, {"on": true, "note": 45, "velocity": 102, "until": 333.9034239583357}, {"on": false, "note": 45, "velocity": 0, "until": 334.14884470833573}, {"on": true, "note": 43, "velocity": 102, "until": 334.26603220833573}, {"on": false, "note": 43, "velocity": 0, "until": 334.38321970833573}, {"on": true, "note": 43, "velocity": 102, "until": 334.50040720833573}, {"on": false, "note": 43, "velocity": 0, "until": 334.61795050000245}, {"on": true, "note": 48, "velocity": 102, "until": 334.8632430833358}, {"on": false, "note": 48, "velocity": 0, "until": 337.05149304166935}, {"on": true, "note": 48, "velocity": 102, "until": 337.1659965416693}, {"on": false, "note": 48, "velocity": 0, "until": 337.28050004166926}, {"on": true, "note": 48, "velocity": 102, "until": 337.3950035416692}, {"on": false, "note": 48, "velocity": 0, "until": 337.51008650000256}, {"on": true, "note": 49, "velocity": 102, "until": 337.9756716666692}, {"on": false, "note": 49, "velocity": 0, "until": 337.99533504166925}, {"on": true, "note": 49, "velocity": 102, "until": 338.1766322500026}, {"on": false, "note": 49, "velocity": 0, "until": 338.22434204166944}, {"on": true, "note": 49, "velocity": 102, "until": 338.4056392500028}, {"on": false, "note": 49, "velocity": 0, "until": 338.453928500003}, {"on": true, "note": 50, "velocity": 102, "until": 338.9404109166703}, {"on": false, "note": 50, "velocity": 0, "until": 339.4291455000037}, {"on": true, "note": 38, "velocity": 102, "until": 339.6720595000037}, {"on": false, "note": 38, "velocity": 0, "until": 340.38556150000375}, {"on": true, "note": 43, "velocity": 102, "until": 340.62847550000373}, {"on": false, "note": 43, "velocity": 0, "until": 341.34197750000385}, {"on": true, "note": 47, "velocity": 102, "until": 342.2983935000042}, {"on": false, "note": 47, "velocity": 0, "until": 342.2983935000042}, {"on": true, "note": 48, "velocity": 102, "until": 342.54130750000417}, {"on": false, "note": 48, "velocity": 0, "until": 343.2548095000043}, {"on": true, "note": 50, "velocity": 102, "until": 343.3762665000043}, {"on": false, "note": 50, "velocity": 0, "until": 344.2112255000042}, {"on": true, "note": 43, "velocity": 102, "until": 344.4541395000042}, {"on": false, "note": 43, "velocity": 0, "until": 345.1676415000041}, {"on": true, "note": 47, "velocity": 102, "until": 346.1240575000044}, {"on": false, "note": 47, "velocity": 0, "until": 346.1240575000044}, {"on": true, "note": 48, "velocity": 102, "until": 346.3669715000044}, {"on": false, "note": 48, "velocity": 0, "until": 347.08047350000453}, {"on": true, "note": 50, "velocity": 102, "until": 347.32338750000457}, {"on": false, "note": 50, "velocity": 0, "until": 348.03688950000446}, {"on": true, "note": 43, "velocity": 102, "until": 348.2810975833378}, {"on": false, "note": 43, "velocity": 0, "until": 349.0134240833379}, {"on": true, "note": 50, "velocity": 102, "until": 349.25342408333796}, {"on": false, "note": 50, "velocity": 0, "until": 349.9515595000048}, {"on": true, "note": 43, "velocity": 102, "until": 350.1944735000049}, {"on": false, "note": 43, "velocity": 0, "until": 350.89540150000516}, {"on": true, "note": 38, "velocity": 102, "until": 351.1383155000052}, {"on": false, "note": 38, "velocity": 0, "until": 351.83904270833864}, {"on": true, "note": 43, "velocity": 102, "until": 352.08150279167194}, {"on": false, "note": 43, "velocity": 0, "until": 360.97283245834}, {"on": true, "note": 33, "velocity": 102, "until": 361.15552458334}, {"on": false, "note": 33, "velocity": 0, "until": 361.20360145834}, {"on": true, "note": 33, "velocity": 102, "until": 361.40552433334005}, {"on": false, "note": 33, "velocity": 0, "until": 361.43495912500674}, {"on": true, "note": 43, "velocity": 102, "until": 361.9043450416734}, {"on": false, "note": 43, "velocity": 0, "until": 361.9241644583401}, {"on": true, "note": 43, "velocity": 102, "until": 362.0299335833401}, {"on": false, "note": 43, "velocity": 0, "until": 362.0395489583401}, {"on": true, "note": 41, "velocity": 102, "until": 362.1453180833401}, {"on": false, "note": 41, "velocity": 0, "until": 362.1549334583401}, {"on": true, "note": 40, "velocity": 102, "until": 362.2607025833401}, {"on": false, "note": 40, "velocity": 0, "until": 362.2703179583401}, {"on": true, "note": 38, "velocity": 102, "until": 362.3760870833401}, {"on": false, "note": 38, "velocity": 0, "until": 362.3862911250068}, {"on": true, "note": 37, "velocity": 102, "until": 362.85567704167346}, {"on": false, "note": 37, "velocity": 0, "until": 362.8754964583401}, {"on": true, "note": 37, "velocity": 102, "until": 363.0581885833401}, {"on": false, "note": 37, "velocity": 0, "until": 363.1062654583401}, {"on": true, "note": 37, "velocity": 102, "until": 363.3081883333401}, {"on": false, "note": 37, "velocity": 0, "until": 363.3376231250068}, {"on": true, "note": 46, "velocity": 102, "until": 363.8070090416735}, {"on": false, "note": 46, "velocity": 0, "until": 363.8268284583402}, {"on": true, "note": 46, "velocity": 102, "until": 363.93259758334017}, {"on": false, "note": 46, "velocity": 0, "until": 363.9422129583402}, {"on": true, "note": 45, "velocity": 102, "until": 364.0479820833402}, {"on": false, "note": 45, "velocity": 0, "until": 364.0575974583402}, {"on": true, "note": 43, "velocity": 102, "until": 364.1633665833402}, {"on": false, "note": 43, "velocity": 0, "until": 364.1729819583402}, {"on": true, "note": 41, "velocity": 102, "until": 364.2787510833402}, {"on": false, "note": 41, "velocity": 0, "until": 364.28895512500685}, {"on": true, "note": 40, "velocity": 102, "until": 364.75834104167353}, {"on": false, "note": 40, "velocity": 0, "until": 364.77816045834015}, {"on": true, "note": 40, "velocity": 102, "until": 364.96085258334017}, {"on": false, "note": 40, "velocity": 0, "until": 365.00892945834016}, {"on": true, "note": 40, "velocity": 102, "until": 365.2108523333402}, {"on": false, "note": 40, "velocity": 0, "until": 365.2402871250069}, {"on": true, "note": 52, "velocity": 102, "until": 365.70967304167357}, {"on": false, "note": 52, "velocity": 0, "until": 365.72949245834025}, {"on": true, "note": 52, "velocity": 102, "until": 365.83526158334024}, {"on": false, "note": 52, "velocity": 0, "until": 365.84487695834025}, {"on": true, "note": 50, "velocity": 102, "until": 365.95064608334025}, {"on": false, "note": 50, "velocity": 0, "until": 365.96026145834026}, {"on": true, "note": 49, "velocity": 102, "until": 366.06603058334025}, {"on": false, "note": 49, "velocity": 0, "until": 366.07564595834026}, {"on": true, "note": 46, "velocity": 102, "until": 366.18141508334026}, {"on": false, "note": 46, "velocity": 0, "until": 366.1916191250069}, {"on": true, "note": 45, "velocity": 102, "until": 366.4365161250069}, {"on": false, "note": 45, "velocity": 0, "until": 366.68082445834017}, {"on": true, "note": 43, "velocity": 102, "until": 366.9115934583401}, {"on": false, "note": 43, "velocity": 0, "until": 367.1429511250068}, {"on": true, "note": 40, "velocity": 102, "until": 367.38784812500677}, {"on": false, "note": 40, "velocity": 0, "until": 367.63215645834003}, {"on": true, "note": 37, "velocity": 102, "until": 367.86292545834}, {"on": false, "note": 37, "velocity": 0, "until": 368.0951410000067}, {"on": true, "note": 33, "velocity": 102, "until": 368.3597691250067}, {"on": false, "note": 33, "velocity": 0, "until": 375.51036445834035}, {"on": true, "note": 42, "velocity": 102, "until": 375.62574895834035}, {"on": false, "note": 42, "velocity": 0, "until": 375.741722125007}, {"on": true, "note": 43, "velocity": 102, "until": 375.98661912500705}, {"on": false, "note": 43, "velocity": 0, "until": 376.93795112500715}, {"on": true, "note": 37, "velocity": 102, "until": 377.06039962500716}, {"on": false, "note": 37, "velocity": 0, "until": 377.1822594583405}, {"on": true, "note": 36, "velocity": 102, "until": 377.29764395834053}, {"on": false, "note": 36, "velocity": 0, "until": 377.41302845834053}, {"on": true, "note": 36, "velocity": 102, "until": 377.52841295834054}, {"on": false, "note": 36, "velocity": 0, "until": 377.6443861250072}, {"on": true, "note": 29, "velocity": 102, "until": 381.46080012500767}, {"on": false, "note": 29, "velocity": 0, "until": 381.46080012500767}, {"on": true, "note": 41, "velocity": 102, "until": 381.70771312500773}, {"on": false, "note": 41, "velocity": 0, "until": 382.4252566250078}, {"on": true, "note": 45, "velocity": 102, "until": 382.6731896250078}, {"on": false, "note": 45, "velocity": 0, "until": 383.3917535000078}, {"on": true, "note": 46, "velocity": 102, "until": 383.6407155000076}, {"on": false, "note": 46, "velocity": 0, "until": 384.35878366667424}, {"on": true, "note": 46, "velocity": 102, "until": 384.6162936666743}, {"on": false, "note": 46, "velocity": 0, "until": 385.3577199166744}, {"on": true, "note": 46, "velocity": 102, "until": 385.61633991667446}, {"on": false, "note": 46, "velocity": 0, "until": 386.36267183334115}, {"on": true, "note": 46, "velocity": 102, "until": 386.61908183334106}, {"on": false, "note": 46, "velocity": 0, "until": 387.36537791667445}, {"on": true, "note": 46, "velocity": 102, "until": 387.6239979166745}, {"on": false, "note": 46, "velocity": 0, "until": 388.3786250833412}, {"on": true, "note": 46, "velocity": 102, "until": 388.6406330833413}, {"on": false, "note": 46, "velocity": 0, "until": 389.40869037500823}, {"on": true, "note": 34, "velocity": 102, "until": 389.6640093750082}, {"on": false, "note": 34, "velocity": 0, "until": 395.3331221250079}, {"on": true, "note": 34, "velocity": 26, "until": 395.5780191250079}, {"on": false, "note": 34, "velocity": 0, "until": 397.2357861250079}, {"on": true, "note": 39, "velocity": 26, "until": 397.48068312500794}, {"on": false, "note": 39, "velocity": 0, "until": 399.1384501250079}, {"on": true, "note": 34, "velocity": 26, "until": 399.38334712500796}, {"on": false, "note": 34, "velocity": 0, "until": 399.8584244583413}, {"on": true, "note": 34, "velocity": 26, "until": 400.0315012083413}, {"on": false, "note": 34, "velocity": 0, "until": 400.08978212500796}, {"on": true, "note": 38, "velocity": 26, "until": 400.273454875008}, {"on": false, "note": 38, "velocity": 0, "until": 400.334679125008}, {"on": true, "note": 41, "velocity": 26, "until": 400.518351875008}, {"on": false, "note": 41, "velocity": 0, "until": 400.5789874583414}, {"on": true, "note": 46, "velocity": 26, "until": 400.7520642083413}, {"on": false, "note": 46, "velocity": 0, "until": 401.04111412500794}, {"on": true, "note": 39, "velocity": 26, "until": 401.286011125008}, {"on": false, "note": 39, "velocity": 0, "until": 401.76108845834125}, {"on": true, "note": 39, "velocity": 26, "until": 401.9341652083412}, {"on": false, "note": 39, "velocity": 0, "until": 401.99244612500786}, {"on": true, "note": 43, "velocity": 26, "until": 402.1761188750079}, {"on": false, "note": 43, "velocity": 0, "until": 402.2373431250079}, {"on": true, "note": 46, "velocity": 26, "until": 402.4210158750079}, {"on": false, "note": 46, "velocity": 0, "until": 402.4816514583412}, {"on": true, "note": 51, "velocity": 26, "until": 402.6547282083412}, {"on": false, "note": 51, "velocity": 0, "until": 402.94377812500784}, {"on": true, "note": 44, "velocity": 102, "until": 403.1886751250078}, {"on": false, "note": 44, "velocity": 0, "until": 403.4334082083412}, {"on": true, "note": 48, "velocity": 102, "until": 403.6743712083412}, {"on": false, "note": 48, "velocity": 0, "until": 403.91549812500784}, {"on": true, "note": 41, "velocity": 102, "until": 404.1603951250079}, {"on": false, "note": 41, "velocity": 0, "until": 404.8892039583413}, {"on": true, "note": 44, "velocity": 102, "until": 405.13510495834134}, {"on": false, "note": 44, "velocity": 0, "until": 405.380881500008}, {"on": true, "note": 43, "velocity": 102, "until": 405.623795500008}, {"on": false, "note": 43, "velocity": 0, "until": 405.8668761250081}, {"on": true, "note": 36, "velocity": 102, "until": 406.1137891250081}, {"on": false, "note": 36, "velocity": 0, "until": 406.84636350000824}, {"on": true, "note": 39, "velocity": 66, "until": 406.96782050000826}, {"on": false, "note": 39, "velocity": 0, "until": 407.08927750000834}, {"on": true, "note": 39, "velocity": 53, "until": 407.21073450000836}, {"on": false, "note": 39, "velocity": 0, "until": 407.81810212500835}, {"on": true, "note": 39, "velocity": 66, "until": 407.94055062500837}, {"on": false, "note": 39, "velocity": 0, "until": 408.0629991250084}, {"on": true, "note": 39, "velocity": 53, "until": 408.1854476250084}, {"on": false, "note": 39, "velocity": 0, "until": 408.79785950000837}, {"on": true, "note": 39, "velocity": 66, "until": 408.9223405000083}, {"on": false, "note": 39, "velocity": 0, "until": 409.04682150000826}, {"on": true, "note": 39, "velocity": 53, "until": 409.1713025000082}, {"on": false, "note": 39, "velocity": 0, "until": 409.7938825833415}, {"on": true, "note": 39, "velocity": 82, "until": 409.9204645833415}, {"on": false, "note": 39, "velocity": 0, "until": 410.04704658334157}, {"on": true, "note": 39, "velocity": 66, "until": 410.1736285833416}, {"on": false, "note": 39, "velocity": 0, "until": 410.806719666675}, {"on": true, "note": 39, "velocity": 82, "until": 410.9354746666751}, {"on": false, "note": 39, "velocity": 0, "until": 411.06422966667515}, {"on": true, "note": 39, "velocity": 66, "until": 411.1929846666753}, {"on": false, "note": 39, "velocity": 0, "until": 411.83689962500875}, {"on": true, "note": 39, "velocity": 82, "until": 411.96733412500885}, {"on": false, "note": 39, "velocity": 0, "until": 412.09776862500894}, {"on": true, "note": 39, "velocity": 66, "until": 412.228203125009}, {"on": false, "note": 39, "velocity": 0, "until": 412.88061716667585}, {"on": true, "note": 37, "velocity": 82, "until": 413.01395016667584}, {"on": false, "note": 37, "velocity": 0, "until": 413.14728316667583}, {"on": true, "note": 37, "velocity": 66, "until": 413.2806161666758}, {"on": false, "note": 37, "velocity": 0, "until": 413.9475337083425}, {"on": true, "note": 36, "velocity": 82, "until": 414.0838972083426}, {"on": false, "note": 36, "velocity": 0, "until": 414.2202607083427}, {"on": true, "note": 36, "velocity": 66, "until": 414.3566242083428}, {"on": false, "note": 36, "velocity": 0, "until": 415.03870595834286}, {"on": true, "note": 36, "velocity": 82, "until": 415.17824045834277}, {"on": false, "note": 36, "velocity": 0, "until": 415.3177749583427}, {"on": true, "note": 36, "velocity": 66, "until": 415.4573094583426}, {"on": false, "note": 36, "velocity": 0, "until": 423.8638121250081}, {"on": true, "note": 48, "velocity": 92, "until": 424.3046267250081}, {"on": false, "note": 48, "velocity": 0, "until": 424.3530174583414}, {"on": true, "note": 48, "velocity": 92, "until": 424.7684016583413}, {"on": false, "note": 48, "velocity": 0, "until": 424.815144125008}, {"on": true, "note": 48, "velocity": 92, "until": 425.3043494583413}, {"on": false, "note": 48, "velocity": 0, "until": 425.76627208334133}, {"on": true, "note": 43, "velocity": 102, "until": 425.9822720833414}, {"on": false, "note": 43, "velocity": 0, "until": 426.00627208334146}, {"on": true, "note": 43, "velocity": 102, "until": 426.2222720833415}, {"on": false, "note": 43, "velocity": 0, "until": 426.2462720833416}, {"on": true, "note": 43, "velocity": 102, "until": 426.4622720833416}, {"on": false, "note": 43, "velocity": 0, "until": 426.48627208334165}, {"on": true, "note": 43, "velocity": 102, "until": 426.7022720833417}, {"on": false, "note": 43, "velocity": 0, "until": 426.72627208334177}, {"on": true, "note": 43, "velocity": 102, "until": 427.2058874583418}, {"on": false, "note": 43, "velocity": 0, "until": 427.2058874583418}, {"on": true, "note": 43, "velocity": 102, "until": 427.2635797083418}, {"on": false, "note": 43, "velocity": 0, "until": 427.3212719583418}, {"on": true, "note": 41, "velocity": 102, "until": 427.3789642083418}, {"on": false, "note": 41, "velocity": 0, "until": 427.4366564583418}, {"on": true, "note": 40, "velocity": 102, "until": 427.4943487083419}, {"on": false, "note": 40, "velocity": 0, "until": 427.55204095834193}, {"on": true, "note": 38, "velocity": 102, "until": 427.60973320834194}, {"on": false, "note": 38, "velocity": 0, "until": 427.6680141250086}, {"on": true, "note": 36, "velocity": 92, "until": 428.1572194583419}, {"on": false, "note": 36, "velocity": 0, "until": 428.1572194583419}, {"on": true, "note": 48, "velocity": 92, "until": 428.61934612500846}, {"on": false, "note": 48, "velocity": 0, "until": 428.61934612500846}, {"on": true, "note": 48, "velocity": 92, "until": 429.10855145834176}, {"on": false, "note": 48, "velocity": 0, "until": 429.57031658334154}, {"on": true, "note": 40, "velocity": 102, "until": 429.6884265833415}, {"on": false, "note": 40, "velocity": 0, "until": 429.80653658334137}, {"on": true, "note": 40, "velocity": 102, "until": 429.9246465833413}, {"on": false, "note": 40, "velocity": 0, "until": 430.0427565833412}, {"on": true, "note": 40, "velocity": 102, "until": 430.16086658334115}, {"on": false, "note": 40, "velocity": 0, "until": 430.27897658334103}, {"on": true, "note": 40, "velocity": 102, "until": 430.397086583341}, {"on": false, "note": 40, "velocity": 0, "until": 430.51519658334087}, {"on": true, "note": 40, "velocity": 102, "until": 430.9874094583398}, {"on": false, "note": 40, "velocity": 0, "until": 435.301872125006}, {"on": true, "note": 43, "velocity": 102, "until": 435.42432062500603}, {"on": false, "note": 43, "velocity": 0, "until": 435.54676912500605}, {"on": true, "note": 43, "velocity": 102, "until": 436.02184645833916}, {"on": false, "note": 43, "velocity": 0, "until": 436.02184645833916}, {"on": true, "note": 48, "velocity": 102, "until": 436.23338470833914}, {"on": false, "note": 48, "velocity": 0, "until": 436.2532041250058}, {"on": true, "note": 43, "velocity": 102, "until": 436.37565262500584}, {"on": false, "note": 43, "velocity": 0, "until": 436.49810112500586}, {"on": true, "note": 43, "velocity": 102, "until": 436.97317845833896}, {"on": false, "note": 43, "velocity": 0, "until": 436.97317845833896}, {"on": true, "note": 48, "velocity": 102, "until": 437.18471670833895}, {"on": false, "note": 48, "velocity": 0, "until": 437.20453612500563}, {"on": true, "note": 43, "velocity": 102, "until": 437.32698462500565}, {"on": false, "note": 43, "velocity": 0, "until": 437.44943312500567}, {"on": true, "note": 43, "velocity": 102, "until": 437.9245104583388}, {"on": false, "note": 43, "velocity": 0, "until": 437.9245104583388}, {"on": true, "note": 48, "velocity": 102, "until": 438.13604870833876}, {"on": false, "note": 48, "velocity": 0, "until": 438.15586812500544}, {"on": true, "note": 43, "velocity": 102, "until": 438.4007651250055}, {"on": false, "note": 43, "velocity": 0, "until": 442.7416624583384}, {"on": true, "note": 36, "velocity": 102, "until": 442.85704695833834}, {"on": false, "note": 36, "velocity": 0, "until": 442.97281608333833}, {"on": true, "note": 41, "velocity": 102, "until": 443.0928160833384}, {"on": false, "note": 41, "velocity": 0, "until": 443.21281608333845}, {"on": true, "note": 36, "velocity": 102, "until": 443.3328160833385}, {"on": false, "note": 36, "velocity": 0, "until": 443.4528160833386}, {"on": true, "note": 41, "velocity": 102, "until": 443.57281608333864}, {"on": false, "note": 41, "velocity": 0, "until": 443.6928160833387}, {"on": true, "note": 36, "velocity": 102, "until": 443.81281608333876}, {"on": false, "note": 36, "velocity": 0, "until": 443.9328160833388}, {"on": true, "note": 41, "velocity": 102, "until": 444.41243145833965}, {"on": false, "note": 41, "velocity": 0, "until": 446.5276624583391}, {"on": true, "note": 43, "velocity": 102, "until": 446.643046958339}, {"on": false, "note": 43, "velocity": 0, "until": 446.7586585833389}, {"on": true, "note": 48, "velocity": 102, "until": 446.8767685833388}, {"on": false, "note": 48, "velocity": 0, "until": 446.9948785833387}, {"on": true, "note": 43, "velocity": 102, "until": 447.11298858333856}, {"on": false, "note": 43, "velocity": 0, "until": 447.23109858333845}, {"on": true, "note": 48, "velocity": 102, "until": 447.34920858333834}, {"on": false, "note": 48, "velocity": 0, "until": 447.4673185833382}, {"on": true, "note": 43, "velocity": 102, "until": 447.5854285833381}, {"on": false, "note": 43, "velocity": 0, "until": 447.703538583338}, {"on": true, "note": 48, "velocity": 102, "until": 447.9397585833379}, {"on": false, "note": 48, "velocity": 0, "until": 448.1757514583378}, {"on": true, "note": 43, "velocity": 102, "until": 448.6180587083375}, {"on": false, "note": 43, "velocity": 0, "until": 448.6378781250042}, {"on": true, "note": 40, "velocity": 102, "until": 449.1072640416709}, {"on": false, "note": 40, "velocity": 0, "until": 449.1270834583375}, {"on": true, "note": 42, "velocity": 102, "until": 449.5693907083372}, {"on": false, "note": 42, "velocity": 0, "until": 449.5892101250039}, {"on": true, "note": 43, "velocity": 102, "until": 450.05859604167057}, {"on": false, "note": 43, "velocity": 0, "until": 450.0784154583372}, {"on": true, "note": 31, "velocity": 102, "until": 450.5207227083369}, {"on": false, "note": 31, "velocity": 0, "until": 450.5405421250036}, {"on": true, "note": 36, "velocity": 102, "until": 450.64258254167027}, {"on": false, "note": 36, "velocity": 0, "until": 450.6629906250036}, {"on": true, "note": 36, "velocity": 102, "until": 450.7650310416703}, {"on": false, "note": 36, "velocity": 0, "until": 450.7854391250036}, {"on": true, "note": 36, "velocity": 102, "until": 450.8874795416703}, {"on": false, "note": 36, "velocity": 0, "until": 450.90788762500364}, {"on": true, "note": 36, "velocity": 102, "until": 451.0099280416703}, {"on": false, "note": 36, "velocity": 0, "until": 451.02974745833694}, {"on": true, "note": 36, "velocity": 102, "until": 451.1259012083369}, {"on": false, "note": 36, "velocity": 0, "until": 451.14513195833695}, {"on": true, "note": 36, "velocity": 102, "until": 451.24128570833693}, {"on": false, "note": 36, "velocity": 0, "until": 451.2605164583369}, {"on": true, "note": 39, "velocity": 102, "until": 451.3566702083369}, {"on": false, "note": 39, "velocity": 0, "until": 451.3759009583369}, {"on": true, "note": 39, "velocity": 102, "until": 451.4720547083369}, {"on": false, "note": 39, "velocity": 0, "until": 451.49187412500356}, {"on": true, "note": 36, "velocity": 102, "until": 451.59391454167024}, {"on": false, "note": 36, "velocity": 0, "until": 451.6143226250036}, {"on": true, "note": 36, "velocity": 102, "until": 451.71636304167026}, {"on": false, "note": 36, "velocity": 0, "until": 451.7367711250036}, {"on": true, "note": 36, "velocity": 102, "until": 451.8388115416703}, {"on": false, "note": 36, "velocity": 0, "until": 451.8592196250036}, {"on": true, "note": 36, "velocity": 102, "until": 451.9612600416703}, {"on": false, "note": 36, "velocity": 0, "until": 451.9810794583369}, {"on": true, "note": 36, "velocity": 102, "until": 452.0772332083367}, {"on": false, "note": 36, "velocity": 0, "until": 452.09646395833664}, {"on": true, "note": 36, "velocity": 102, "until": 452.19261770833646}, {"on": false, "note": 36, "velocity": 0, "until": 452.2118484583364}, {"on": true, "note": 39, "velocity": 102, "until": 452.3080022083364}, {"on": false, "note": 39, "velocity": 0, "until": 452.3272329583364}, {"on": true, "note": 39, "velocity": 102, "until": 452.4233867083364}, {"on": false, "note": 39, "velocity": 0, "until": 452.4432061250031}, {"on": true, "note": 36, "velocity": 102, "until": 452.54524654166977}, {"on": false, "note": 36, "velocity": 0, "until": 452.5656546250031}, {"on": true, "note": 36, "velocity": 102, "until": 452.6676950416698}, {"on": false, "note": 36, "velocity": 0, "until": 452.6881031250031}, {"on": true, "note": 39, "velocity": 102, "until": 452.7901435416698}, {"on": false, "note": 39, "velocity": 0, "until": 452.81055162500314}, {"on": true, "note": 39, "velocity": 102, "until": 452.9125920416698}, {"on": false, "note": 39, "velocity": 0, "until": 452.93241145833645}, {"on": true, "note": 36, "velocity": 102, "until": 453.02856520833626}, {"on": false, "note": 36, "velocity": 0, "until": 453.0477959583362}, {"on": true, "note": 36, "velocity": 102, "until": 453.14394970833615}, {"on": false, "note": 36, "velocity": 0, "until": 453.1631804583361}, {"on": true, "note": 39, "velocity": 102, "until": 453.2593342083361}, {"on": false, "note": 39, "velocity": 0, "until": 453.2785649583361}, {"on": true, "note": 39, "velocity": 102, "until": 453.37471870833605}, {"on": false, "note": 39, "velocity": 0, "until": 453.3945381250027}, {"on": true, "note": 36, "velocity": 102, "until": 453.4965785416694}, {"on": false, "note": 36, "velocity": 0, "until": 453.51698662500274}, {"on": true, "note": 36, "velocity": 102, "until": 453.6190270416694}, {"on": false, "note": 36, "velocity": 0, "until": 453.63943512500276}, {"on": true, "note": 39, "velocity": 102, "until": 453.74147554166944}, {"on": false, "note": 39, "velocity": 0, "until": 453.7618836250028}, {"on": true, "note": 39, "velocity": 102, "until": 453.86392404166946}, {"on": false, "note": 39, "velocity": 0, "until": 453.8837434583361}, {"on": true, "note": 36, "velocity": 102, "until": 453.9798972083359}, {"on": false, "note": 36, "velocity": 0, "until": 453.99912795833586}, {"on": true, "note": 36, "velocity": 102, "until": 454.0952817083358}, {"on": false, "note": 36, "velocity": 0, "until": 454.11451245833575}, {"on": true, "note": 39, "velocity": 102, "until": 454.21066620833574}, {"on": false, "note": 39, "velocity": 0, "until": 454.22989695833576}, {"on": true, "note": 39, "velocity": 102, "until": 454.3260507083357}, {"on": false, "note": 39, "velocity": 0, "until": 454.34587012500236}, {"on": true, "note": 44, "velocity": 102, "until": 454.44791054166905}, {"on": false, "note": 44, "velocity": 0, "until": 454.4683186250024}, {"on": true, "note": 44, "velocity": 102, "until": 454.57035904166906}, {"on": false, "note": 44, "velocity": 0, "until": 454.5907671250024}, {"on": true, "note": 44, "velocity": 102, "until": 454.6928075416691}, {"on": false, "note": 44, "velocity": 0, "until": 454.7132156250024}, {"on": true, "note": 44, "velocity": 102, "until": 454.8152560416691}, {"on": false, "note": 44, "velocity": 0, "until": 454.8350754583357}, {"on": true, "note": 44, "velocity": 102, "until": 454.9312292083357}, {"on": false, "note": 44, "velocity": 0, "until": 454.9504599583357}, {"on": true, "note": 44, "velocity": 102, "until": 455.0466137083357}, {"on": false, "note": 44, "velocity": 0, "until": 455.0658444583357}, {"on": true, "note": 43, "velocity": 102, "until": 455.16199820833566}, {"on": false, "note": 43, "velocity": 0, "until": 455.1812289583357}, {"on": true, "note": 43, "velocity": 102, "until": 455.2773827083356}, {"on": false, "note": 43, "velocity": 0, "until": 455.2972021250023}, {"on": true, "note": 44, "velocity": 102, "until": 455.39924254166897}, {"on": false, "note": 44, "velocity": 0, "until": 455.4196506250023}, {"on": true, "note": 44, "velocity": 102, "until": 455.521691041669}, {"on": false, "note": 44, "velocity": 0, "until": 455.5420991250023}, {"on": true, "note": 44, "velocity": 102, "until": 455.644139541669}, {"on": false, "note": 44, "velocity": 0, "until": 455.66454762500234}, {"on": true, "note": 44, "velocity": 102, "until": 455.766588041669}, {"on": false, "note": 44, "velocity": 0, "until": 455.78640745833565}, {"on": true, "note": 44, "velocity": 102, "until": 455.88256120833563}, {"on": false, "note": 44, "velocity": 0, "until": 455.90179195833565}, {"on": true, "note": 44, "velocity": 102, "until": 455.99794570833564}, {"on": false, "note": 44, "velocity": 0, "until": 456.0171764583356}, {"on": true, "note": 43, "velocity": 102, "until": 456.1133302083356}, {"on": false, "note": 43, "velocity": 0, "until": 456.1325609583356}, {"on": true, "note": 43, "velocity": 102, "until": 456.22871470833553}, {"on": false, "note": 43, "velocity": 0, "until": 456.2485341250022}, {"on": true, "note": 44, "velocity": 102, "until": 456.3505745416689}, {"on": false, "note": 44, "velocity": 0, "until": 456.3709826250022}, {"on": true, "note": 44, "velocity": 102, "until": 456.4730230416689}, {"on": false, "note": 44, "velocity": 0, "until": 456.49343112500225}, {"on": true, "note": 43, "velocity": 102, "until": 456.5954715416689}, {"on": false, "note": 43, "velocity": 0, "until": 456.61587962500226}, {"on": true, "note": 43, "velocity": 102, "until": 456.71792004166895}, {"on": false, "note": 43, "velocity": 0, "until": 456.73773945833557}, {"on": true, "note": 44, "velocity": 102, "until": 456.8338932083354}, {"on": false, "note": 44, "velocity": 0, "until": 456.85312395833535}, {"on": true, "note": 44, "velocity": 102, "until": 456.9492777083353}, {"on": false, "note": 44, "velocity": 0, "until": 456.96850845833524}, {"on": true, "note": 43, "velocity": 102, "until": 457.0646622083352}, {"on": false, "note": 43, "velocity": 0, "until": 457.08389295833524}, {"on": true, "note": 43, "velocity": 102, "until": 457.18004670833517}, {"on": false, "note": 43, "velocity": 0, "until": 457.19986612500185}, {"on": true, "note": 44, "velocity": 102, "until": 457.30190654166853}, {"on": false, "note": 44, "velocity": 0, "until": 457.32231462500187}, {"on": true, "note": 44, "velocity": 102, "until": 457.42435504166855}, {"on": false, "note": 44, "velocity": 0, "until": 457.4447631250019}, {"on": true, "note": 43, "velocity": 102, "until": 457.54680354166857}, {"on": false, "note": 43, "velocity": 0, "until": 457.5672116250019}, {"on": true, "note": 43, "velocity": 102, "until": 457.6692520416686}, {"on": false, "note": 43, "velocity": 0, "until": 457.6890714583352}, {"on": true, "note": 44, "velocity": 102, "until": 457.785225208335}, {"on": false, "note": 44, "velocity": 0, "until": 457.804455958335}, {"on": true, "note": 44, "velocity": 102, "until": 457.9006097083349}, {"on": false, "note": 44, "velocity": 0, "until": 457.9198404583349}, {"on": true, "note": 44, "velocity": 102, "until": 458.01599420833486}, {"on": false, "note": 44, "velocity": 0, "until": 458.0352249583349}, {"on": true, "note": 44, "velocity": 102, "until": 458.1313787083348}, {"on": false, "note": 44, "velocity": 0, "until": 458.1511981250015}, {"on": true, "note": 43, "velocity": 102, "until": 458.3960951250015}, {"on": false, "note": 43, "velocity": 0, "until": 462.0571883333345}, {"on": true, "note": 36, "velocity": 102, "until": 462.1199498333345}, {"on": false, "note": 36, "velocity": 0, "until": 462.18271133333445}, {"on": true, "note": 36, "velocity": 102, "until": 462.2454728333344}, {"on": false, "note": 36, "velocity": 0, "until": 462.3082343333344}, {"on": true, "note": 36, "velocity": 102, "until": 462.37099583333435}, {"on": false, "note": 36, "velocity": 0, "until": 462.4337573333343}, {"on": true, "note": 36, "velocity": 102, "until": 462.4965188333343}, {"on": false, "note": 36, "velocity": 0, "until": 462.55890070833436}, {"on": true, "note": 36, "velocity": 102, "until": 462.78067445833443}, {"on": false, "note": 36, "velocity": 0, "until": 462.8008357083345}, {"on": true, "note": 36, "velocity": 102, "until": 463.02260945833456}, {"on": false, "note": 36, "velocity": 0, "until": 463.0431503333345}, {"on": true, "note": 36, "velocity": 102, "until": 463.10591183333446}, {"on": false, "note": 36, "velocity": 0, "until": 463.1686733333344}, {"on": true, "note": 36, "velocity": 102, "until": 463.2314348333344}, {"on": false, "note": 36, "velocity": 0, "until": 463.29419633333436}, {"on": true, "note": 36, "velocity": 102, "until": 463.3569578333343}, {"on": false, "note": 36, "velocity": 0, "until": 463.4197193333343}, {"on": true, "note": 36, "velocity": 102, "until": 463.48248083333425}, {"on": false, "note": 36, "velocity": 0, "until": 463.54486270833434}, {"on": true, "note": 36, "velocity": 102, "until": 463.7666364583344}, {"on": false, "note": 36, "velocity": 0, "until": 463.78679770833446}, {"on": true, "note": 36, "velocity": 102, "until": 464.00857145833453}, {"on": false, "note": 36, "velocity": 0, "until": 464.02911233333447}, {"on": true, "note": 36, "velocity": 102, "until": 464.09187383333443}, {"on": false, "note": 36, "velocity": 0, "until": 464.1546353333344}, {"on": true, "note": 36, "velocity": 102, "until": 464.21739683333436}, {"on": false, "note": 36, "velocity": 0, "until": 464.2801583333343}, {"on": true, "note": 36, "velocity": 102, "until": 464.3429198333343}, {"on": false, "note": 36, "velocity": 0, "until": 464.40568133333426}, {"on": true, "note": 36, "velocity": 102, "until": 464.4684428333342}, {"on": false, "note": 36, "velocity": 0, "until": 464.5308247083343}, {"on": true, "note": 36, "velocity": 102, "until": 464.7525984583344}, {"on": false, "note": 36, "velocity": 0, "until": 464.77275970833443}, {"on": true, "note": 36, "velocity": 102, "until": 464.9945334583345}, {"on": false, "note": 36, "velocity": 0, "until": 465.01507433333444}, {"on": true, "note": 36, "velocity": 102, "until": 465.0778358333344}, {"on": false, "note": 36, "velocity": 0, "until": 465.14059733333437}, {"on": true, "note": 36, "velocity": 102, "until": 465.20335883333433}, {"on": false, "note": 36, "velocity": 0, "until": 465.2661203333343}, {"on": true, "note": 36, "velocity": 102, "until": 465.32888183333426}, {"on": false, "note": 36, "velocity": 0, "until": 465.39164333333423}, {"on": true, "note": 36, "velocity": 102, "until": 465.4544048333342}, {"on": false, "note": 36, "velocity": 0, "until": 465.5167867083343}, {"on": true, "note": 36, "velocity": 102, "until": 465.73856045833435}, {"on": false, "note": 36, "velocity": 0, "until": 465.7587217083344}, {"on": true, "note": 36, "velocity": 102, "until": 465.9804954583345}, {"on": false, "note": 36, "velocity": 0, "until": 466.0010363333344}, {"on": true, "note": 35, "velocity": 102, "until": 466.06379783333426}, {"on": false, "note": 35, "velocity": 0, "until": 466.12655933333406}, {"on": true, "note": 35, "velocity": 102, "until": 466.1893208333339}, {"on": false, "note": 35, "velocity": 0, "until": 466.2520823333337}, {"on": true, "note": 35, "velocity": 102, "until": 466.3148438333335}, {"on": false, "note": 35, "velocity": 0, "until": 466.37760533333335}, {"on": true, "note": 35, "velocity": 102, "until": 466.44036683333326}, {"on": false, "note": 35, "velocity": 0, "until": 466.50274870833323}, {"on": true, "note": 35, "velocity": 102, "until": 466.7245224583333}, {"on": false, "note": 35, "velocity": 0, "until": 466.74468370833335}, {"on": true, "note": 31, "velocity": 102, "until": 466.9664574583334}, {"on": false, "note": 31, "velocity": 0, "until": 466.98699833333336}, {"on": true, "note": 36, "velocity": 102, "until": 467.1125213333333}, {"on": false, "note": 36, "velocity": 0, "until": 467.2380443333332}, {"on": true, "note": 31, "velocity": 87, "until": 467.36356733333315}, {"on": false, "note": 31, "velocity": 0, "until": 467.4887107083332}, {"on": true, "note": 36, "velocity": 87, "until": 467.60967820833326}, {"on": false, "note": 36, "velocity": 0, "until": 467.7306457083333}, {"on": true, "note": 36, "velocity": 87, "until": 467.8516132083334}, {"on": false, "note": 36, "velocity": 0, "until": 467.97296033333333}, {"on": true, "note": 31, "velocity": 102, "until": 468.0357218333332}, {"on": false, "note": 31, "velocity": 0, "until": 468.098483333333}, {"on": true, "note": 31, "velocity": 102, "until": 468.16124483333283}, {"on": false, "note": 31, "velocity": 0, "until": 468.2240063333326}, {"on": true, "note": 31, "velocity": 102, "until": 468.2867678333324}, {"on": false, "note": 31, "velocity": 0, "until": 468.34952933333227}, {"on": true, "note": 31, "velocity": 102, "until": 468.4122908333322}, {"on": false, "note": 31, "velocity": 0, "until": 468.47467270833215}, {"on": true, "note": 31, "velocity": 102, "until": 468.6964464583322}, {"on": false, "note": 31, "velocity": 0, "until": 468.7166077083323}, {"on": true, "note": 31, "velocity": 102, "until": 468.93838145833234}, {"on": false, "note": 31, "velocity": 0, "until": 468.9589223333323}, {"on": true, "note": 36, "velocity": 102, "until": 469.0844453333322}, {"on": false, "note": 36, "velocity": 0, "until": 469.20996833333214}, {"on": true, "note": 31, "velocity": 87, "until": 469.3354913333321}, {"on": false, "note": 31, "velocity": 0, "until": 469.4606347083321}, {"on": true, "note": 36, "velocity": 87, "until": 469.70428149999884}, {"on": false, "note": 36, "velocity": 0, "until": 469.98619083333216}, {"on": true, "note": 36, "velocity": 102, "until": 470.05029333333215}, {"on": false, "note": 36, "velocity": 0, "until": 470.11439583333214}, {"on": true, "note": 36, "velocity": 102, "until": 470.17849833333213}, {"on": false, "note": 36, "velocity": 0, "until": 470.24260083333206}, {"on": true, "note": 36, "velocity": 102, "until": 470.30670333333205}, {"on": false, "note": 36, "velocity": 0, "until": 470.370805833332}, {"on": true, "note": 36, "velocity": 102, "until": 470.434908333332}, {"on": false, "note": 36, "velocity": 0, "until": 470.49853112499864}, {"on": true, "note": 36, "velocity": 102, "until": 470.72302004166534}, {"on": false, "note": 36, "velocity": 0, "until": 470.7434281249987}, {"on": true, "note": 36, "velocity": 102, "until": 470.9679170416654}, {"on": false, "note": 36, "velocity": 0, "until": 470.988804833332}, {"on": true, "note": 36, "velocity": 102, "until": 471.052907333332}, {"on": false, "note": 36, "velocity": 0, "until": 471.117009833332}, {"on": true, "note": 36, "velocity": 102, "until": 471.181112333332}, {"on": false, "note": 36, "velocity": 0, "until": 471.245214833332}, {"on": true, "note": 36, "velocity": 102, "until": 471.309317333332}, {"on": false, "note": 36, "velocity": 0, "until": 471.373419833332}, {"on": true, "note": 36, "velocity": 102, "until": 471.43752233333197}, {"on": false, "note": 36, "velocity": 0, "until": 471.5011451249987}, {"on": true, "note": 36, "velocity": 102, "until": 471.7256340416654}, {"on": false, "note": 36, "velocity": 0, "until": 471.7460421249987}, {"on": true, "note": 36, "velocity": 102, "until": 471.9705310416654}, {"on": false, "note": 36, "velocity": 0, "until": 471.99141883333203}, {"on": true, "note": 32, "velocity": 102, "until": 472.055521333332}, {"on": false, "note": 32, "velocity": 0, "until": 472.11962383333207}, {"on": true, "note": 32, "velocity": 102, "until": 472.18372633333206}, {"on": false, "note": 32, "velocity": 0, "until": 472.24782883333205}, {"on": true, "note": 32, "velocity": 102, "until": 472.31193133333204}, {"on": false, "note": 32, "velocity": 0, "until": 472.37603383333203}, {"on": true, "note": 32, "velocity": 102, "until": 472.440136333332}, {"on": false, "note": 32, "velocity": 0, "until": 472.50375912499874}, {"on": true, "note": 32, "velocity": 102, "until": 472.72824804166544}, {"on": false, "note": 32, "velocity": 0, "until": 472.7486561249988}, {"on": true, "note": 32, "velocity": 102, "until": 472.9731450416655}, {"on": false, "note": 32, "velocity": 0, "until": 472.9940328333321}, {"on": true, "note": 32, "velocity": 102, "until": 473.0581353333321}, {"on": false, "note": 32, "velocity": 0, "until": 473.1222378333321}, {"on": true, "note": 32, "velocity": 102, "until": 473.1863403333321}, {"on": false, "note": 32, "velocity": 0, "until": 473.2504428333321}, {"on": true, "note": 32, "velocity": 102, "until": 473.3145453333321}, {"on": false, "note": 32, "velocity": 0, "until": 473.3786478333321}, {"on": true, "note": 32, "velocity": 102, "until": 473.44275033333207}, {"on": false, "note": 32, "velocity": 0, "until": 473.5063731249988}, {"on": true, "note": 33, "velocity": 102, "until": 473.7308620416655}, {"on": false, "note": 33, "velocity": 0, "until": 473.7512701249988}, {"on": true, "note": 33, "velocity": 102, "until": 473.9757590416655}, {"on": false, "note": 33, "velocity": 0, "until": 473.99664683333214}, {"on": true, "note": 34, "velocity": 102, "until": 474.06074933333207}, {"on": false, "note": 34, "velocity": 0, "until": 474.12485183333195}, {"on": true, "note": 34, "velocity": 102, "until": 474.18895433333194}, {"on": false, "note": 34, "velocity": 0, "until": 474.2530568333319}, {"on": true, "note": 34, "velocity": 102, "until": 474.31715933333186}, {"on": false, "note": 34, "velocity": 0, "until": 474.3812618333318}, {"on": true, "note": 34, "velocity": 102, "until": 474.44536433333167}, {"on": false, "note": 34, "velocity": 0, "until": 474.5089871249983}, {"on": true, "note": 34, "velocity": 102, "until": 474.73347604166497}, {"on": false, "note": 34, "velocity": 0, "until": 474.7538841249983}, {"on": true, "note": 34, "velocity": 102, "until": 474.978373041665}, {"on": false, "note": 34, "velocity": 0, "until": 474.9992608333316}, {"on": true, "note": 39, "velocity": 102, "until": 475.12746583333154}, {"on": false, "note": 39, "velocity": 0, "until": 475.25567083333146}, {"on": true, "note": 34, "velocity": 87, "until": 475.3838758333314}, {"on": false, "note": 34, "velocity": 0, "until": 475.51160112499804}, {"on": true, "note": 39, "velocity": 87, "until": 475.63404962499806}, {"on": false, "note": 39, "velocity": 0, "until": 475.7564981249981}, {"on": true, "note": 39, "velocity": 87, "until": 475.8789466249981}, {"on": false, "note": 39, "velocity": 0, "until": 476.0018748333314}, {"on": true, "note": 34, "velocity": 102, "until": 476.0659773333313}, {"on": false, "note": 34, "velocity": 0, "until": 476.1300798333312}, {"on": true, "note": 34, "velocity": 102, "until": 476.1941823333312}, {"on": false, "note": 34, "velocity": 0, "until": 476.2582848333312}, {"on": true, "note": 34, "velocity": 102, "until": 476.3223873333311}, {"on": false, "note": 34, "velocity": 0, "until": 476.38648983333104}, {"on": true, "note": 34, "velocity": 102, "until": 476.4505923333309}, {"on": false, "note": 34, "velocity": 0, "until": 476.5142151249976}, {"on": true, "note": 34, "velocity": 102, "until": 476.6366636249976}, {"on": false, "note": 34, "velocity": 0, "until": 476.7591121249976}, {"on": true, "note": 34, "velocity": 102, "until": 476.88156062499763}, {"on": false, "note": 34, "velocity": 0, "until": 477.0044888333309}, {"on": true, "note": 39, "velocity": 102, "until": 477.13269383333085}, {"on": false, "note": 39, "velocity": 0, "until": 477.26089883333077}, {"on": true, "note": 34, "velocity": 87, "until": 477.3891038333307}, {"on": false, "note": 34, "velocity": 0, "until": 477.51682912499734}, {"on": true, "note": 39, "velocity": 87, "until": 477.7628857083307}, {"on": false, "note": 39, "velocity": 0, "until": 478.0347093333306}, {"on": true, "note": 43, "velocity": 102, "until": 478.4112783333301}, {"on": false, "note": 43, "velocity": 0, "until": 478.4112783333301}, {"on": true, "note": 44, "velocity": 102, "until": 478.53642170833}, {"on": false, "note": 44, "velocity": 0, "until": 478.53642170833}, {"on": true, "note": 43, "velocity": 102, "until": 478.7581954583301}, {"on": false, "note": 43, "velocity": 0, "until": 478.77835670833014}, {"on": true, "note": 41, "velocity": 102, "until": 478.8993242083302}, {"on": false, "note": 41, "velocity": 0, "until": 479.02067133333014}, {"on": true, "note": 39, "velocity": 102, "until": 479.1461943333301}, {"on": false, "note": 39, "velocity": 0, "until": 479.1461943333301}, {"on": true, "note": 43, "velocity": 102, "until": 479.25079683333}, {"on": false, "note": 43, "velocity": 0, "until": 479.27171733332995}, {"on": true, "note": 41, "velocity": 102, "until": 479.3344788333299}, {"on": false, "note": 41, "velocity": 0, "until": 479.3972403333299}, {"on": true, "note": 38, "velocity": 102, "until": 479.46000183332984}, {"on": false, "note": 38, "velocity": 0, "until": 479.5223837083299}, {"on": true, "note": 36, "velocity": 102, "until": 479.76431870833}, {"on": false, "note": 36, "velocity": 0, "until": 481.9784276249961}, {"on": true, "note": 43, "velocity": 102, "until": 482.3503271249961}, {"on": false, "note": 43, "velocity": 0, "until": 482.3503271249961}, {"on": true, "note": 44, "velocity": 102, "until": 482.473844499996}, {"on": false, "note": 44, "velocity": 0, "until": 482.473844499996}, {"on": true, "note": 43, "velocity": 102, "until": 482.69123566666264}, {"on": false, "note": 43, "velocity": 0, "until": 482.71099849999587}, {"on": true, "note": 41, "velocity": 102, "until": 482.82957549999577}, {"on": false, "note": 41, "velocity": 0, "until": 482.9486016249958}, {"on": true, "note": 39, "velocity": 102, "until": 483.0725681249958}, {"on": false, "note": 39, "velocity": 0, "until": 483.0725681249958}, {"on": true, "note": 43, "velocity": 102, "until": 483.1758735416625}, {"on": false, "note": 43, "velocity": 0, "until": 483.1965346249959}, {"on": true, "note": 41, "velocity": 102, "until": 483.2585178749959}, {"on": false, "note": 41, "velocity": 0, "until": 483.3205011249959}, {"on": true, "note": 38, "velocity": 102, "until": 483.38248437499595}, {"on": false, "note": 38, "velocity": 0, "until": 483.4440184999959}, {"on": true, "note": 36, "velocity": 102, "until": 483.6811724999958}, {"on": false, "note": 36, "velocity": 0, "until": 485.85891449999576}, {"on": true, "note": 38, "velocity": 102, "until": 486.22328549999594}, {"on": false, "note": 38, "velocity": 0, "until": 486.22328549999594}, {"on": true, "note": 39, "velocity": 102, "until": 486.3441630416627}, {"on": false, "note": 39, "velocity": 0, "until": 486.3441630416627}, {"on": true, "note": 38, "velocity": 102, "until": 486.554086124996}, {"on": false, "note": 38, "velocity": 0, "until": 486.5731700416627}, {"on": true, "note": 36, "velocity": 102, "until": 486.6876735416628}, {"on": false, "note": 36, "velocity": 0, "until": 486.8027564999962}, {"on": true, "note": 34, "velocity": 102, "until": 486.92421349999626}, {"on": false, "note": 34, "velocity": 0, "until": 486.92421349999626}, {"on": true, "note": 38, "velocity": 102, "until": 487.0254276666629}, {"on": false, "note": 38, "velocity": 0, "until": 487.0456704999963}, {"on": true, "note": 36, "velocity": 102, "until": 487.10639899999626}, {"on": false, "note": 36, "velocity": 0, "until": 487.1671274999963}, {"on": true, "note": 33, "velocity": 102, "until": 487.2278559999963}, {"on": false, "note": 33, "velocity": 0, "until": 487.288005041663}, {"on": true, "note": 31, "velocity": 102, "until": 487.5170120416631}, {"on": false, "note": 31, "velocity": 0, "until": 487.74659849999654}, {"on": true, "note": 41, "velocity": 102, "until": 488.11096949999734}, {"on": false, "note": 41, "velocity": 0, "until": 488.11096949999734}, {"on": true, "note": 43, "velocity": 102, "until": 488.23184704166425}, {"on": false, "note": 43, "velocity": 0, "until": 488.23184704166425}, {"on": true, "note": 41, "velocity": 102, "until": 488.44177012499756}, {"on": false, "note": 41, "velocity": 0, "until": 488.4608540416643}, {"on": true, "note": 39, "velocity": 102, "until": 488.57535754166435}, {"on": false, "note": 39, "velocity": 0, "until": 488.69044049999775}, {"on": true, "note": 38, "velocity": 102, "until": 488.8118974999978}, {"on": false, "note": 38, "velocity": 0, "until": 488.8118974999978}, {"on": true, "note": 41, "velocity": 102, "until": 488.91311166666446}, {"on": false, "note": 41, "velocity": 0, "until": 488.93335449999785}, {"on": true, "note": 39, "velocity": 102, "until": 488.99408299999783}, {"on": false, "note": 39, "velocity": 0, "until": 489.05481149999787}, {"on": true, "note": 36, "velocity": 102, "until": 489.11553999999785}, {"on": false, "note": 36, "velocity": 0, "until": 489.17568904166455}, {"on": true, "note": 34, "velocity": 102, "until": 489.40469604166464}, {"on": false, "note": 34, "velocity": 0, "until": 489.63618029166463}, {"on": true, "note": 32, "velocity": 102, "until": 489.9230387499977}, {"on": false, "note": 32, "velocity": 0, "until": 491.65210983333094}, {"on": true, "note": 31, "velocity": 102, "until": 491.90851983333084}, {"on": false, "note": 31, "velocity": 0, "until": 492.65472383333076}, {"on": true, "note": 43, "velocity": 102, "until": 492.91113383333067}, {"on": false, "note": 43, "velocity": 0, "until": 493.7014589999975}, {"on": true, "note": 36, "velocity": 102, "until": 502.10238083333303}, {"on": false, "note": 36, "velocity": 0, "until": 502.358067208333}, {"on": true, "note": 45, "velocity": 102, "until": 502.477588708333}, {"on": false, "note": 45, "velocity": 0, "until": 502.59711020833294}, {"on": true, "note": 45, "velocity": 102, "until": 502.7166317083329}, {"on": false, "note": 45, "velocity": 0, "until": 502.8366097499996}, {"on": true, "note": 38, "velocity": 102, "until": 503.0866097499996}, {"on": false, "note": 38, "velocity": 0, "until": 503.33603558333283}, {"on": true, "note": 36, "velocity": 102, "until": 503.4541455833327}, {"on": false, "note": 36, "velocity": 0, "until": 503.5722555833326}, {"on": true, "note": 36, "velocity": 102, "until": 503.6903655833325}, {"on": false, "note": 36, "velocity": 0, "until": 503.8089211249992}, {"on": true, "note": 41, "velocity": 102, "until": 504.05804608333256}, {"on": false, "note": 41, "velocity": 0, "until": 505.8369298333325}, {"on": true, "note": 45, "velocity": 102, "until": 506.83945329166596}, {"on": false, "note": 45, "velocity": 0, "until": 506.83945329166596}, {"on": true, "note": 38, "velocity": 102, "until": 507.0936902916659}, {"on": false, "note": 38, "velocity": 0, "until": 507.8297642499993}, {"on": true, "note": 43, "velocity": 102, "until": 508.08186424999934}, {"on": false, "note": 43, "velocity": 0, "until": 508.81974833333254}, {"on": true, "note": 31, "velocity": 102, "until": 509.0707943333324}, {"on": false, "note": 31, "velocity": 0, "until": 509.80562349999894}, {"on": true, "note": 36, "velocity": 102, "until": 510.0545854999989}, {"on": false, "note": 36, "velocity": 0, "until": 510.3030165833322}, {"on": true, "note": 33, "velocity": 102, "until": 510.42112658333207}, {"on": false, "note": 33, "velocity": 0, "until": 510.53923658333196}, {"on": true, "note": 33, "velocity": 102, "until": 510.65734658333184}, {"on": false, "note": 33, "velocity": 0, "until": 510.77585995833186}, {"on": true, "note": 38, "velocity": 102, "until": 511.02176095833187}, {"on": false, "note": 38, "velocity": 0, "until": 511.26718170833186}, {"on": true, "note": 36, "velocity": 102, "until": 511.38436920833186}, {"on": false, "note": 36, "velocity": 0, "until": 511.50155670833186}, {"on": true, "note": 36, "velocity": 102, "until": 511.61874420833186}, {"on": false, "note": 36, "velocity": 0, "until": 511.7362874999986}, {"on": true, "note": 41, "velocity": 102, "until": 511.98158008333195}, {"on": false, "note": 41, "velocity": 0, "until": 514.1698300416654}, {"on": true, "note": 41, "velocity": 102, "until": 514.2843335416655}, {"on": false, "note": 41, "velocity": 0, "until": 514.3988370416658}, {"on": true, "note": 41, "velocity": 102, "until": 514.513340541666}, {"on": false, "note": 41, "velocity": 0, "until": 514.6284234999996}, {"on": true, "note": 42, "velocity": 102, "until": 515.1041300833336}, {"on": false, "note": 42, "velocity": 0, "until": 515.1136720416671}, {"on": true, "note": 42, "velocity": 102, "until": 515.2281755416673}, {"on": false, "note": 42, "velocity": 0, "until": 515.3426790416675}, {"on": true, "note": 42, "velocity": 102, "until": 515.4571825416676}, {"on": false, "note": 42, "velocity": 0, "until": 515.572265500001}, {"on": true, "note": 43, "velocity": 102, "until": 516.0587479166675}, {"on": false, "note": 43, "velocity": 0, "until": 516.5474825000008}, {"on": true, "note": 31, "velocity": 102, "until": 516.7903965000011}, {"on": false, "note": 31, "velocity": 0, "until": 517.503898500001}, {"on": true, "note": 36, "velocity": 102, "until": 517.746812500001}, {"on": false, "note": 36, "velocity": 0, "until": 518.4603145000009}, {"on": true, "note": 43, "velocity": 102, "until": 519.4167305000016}, {"on": false, "note": 43, "velocity": 0, "until": 519.4167305000016}, {"on": true, "note": 41, "velocity": 102, "until": 519.6596445000016}, {"on": false, "note": 41, "velocity": 0, "until": 520.3731465000017}, {"on": true, "note": 43, "velocity": 102, "until": 520.6160605000016}, {"on": false, "note": 43, "velocity": 0, "until": 521.3295625000013}, {"on": true, "note": 48, "velocity": 102, "until": 521.5724765000011}, {"on": false, "note": 48, "velocity": 0, "until": 522.285978500001}, {"on": true, "note": 43, "velocity": 102, "until": 523.2423945000016}, {"on": false, "note": 43, "velocity": 0, "until": 523.2423945000016}, {"on": true, "note": 41, "velocity": 102, "until": 523.4853085000019}, {"on": false, "note": 41, "velocity": 0, "until": 524.1988105000019}, {"on": true, "note": 41, "velocity": 102, "until": 524.4417245000018}, {"on": false, "note": 41, "velocity": 0, "until": 525.1426525000015}, {"on": true, "note": 43, "velocity": 102, "until": 525.3855665000013}, {"on": false, "note": 43, "velocity": 0, "until": 530.8057045000007}, {"on": true, "note": 43, "velocity": 102, "until": 531.0486185000008}, {"on": false, "note": 43, "velocity": 0, "until": 532.6933885000004}, {"on": true, "note": 36, "velocity": 102, "until": 532.9363025000004}, {"on": false, "note": 36, "velocity": 0, "until": 534.5810724999999}, {"on": true, "note": 43, "velocity": 102, "until": 534.8239864999999}, {"on": false, "note": 43, "velocity": 0, "until": 536.4687564999996}, {"on": true, "note": 36, "velocity": 102, "until": 536.7116704999995}, {"on": false, "note": 36, "velocity": 0, "until": 538.3564404999995}, {"on": true, "note": 38, "velocity": 102, "until": 538.5993544999995}, {"on": false, "note": 38, "velocity": 0, "until": 538.8416890416663}, {"on": true, "note": 43, "velocity": 102, "until": 539.0706960416665}, {"on": false, "note": 43, "velocity": 0, "until": 539.3002824999999}, {"on": true, "note": 45, "velocity": 102, "until": 539.5431964999999}, {"on": false, "note": 45, "velocity": 0, "until": 539.7855310416667}, {"on": true, "note": 41, "velocity": 102, "until": 540.0145380416668}, {"on": false, "note": 41, "velocity": 0, "until": 540.2441245000001}, {"on": true, "note": 43, "velocity": 102, "until": 540.4870385}, {"on": false, "note": 43, "velocity": 0, "until": 540.7293730416668}, {"on": true, "note": 31, "velocity": 102, "until": 540.9583800416669}, {"on": false, "note": 31, "velocity": 0, "until": 541.1870025833335}, {"on": true, "note": 48, "velocity": 102, "until": 541.5899325833334}, {"on": false, "note": 48, "velocity": 0, "until": 541.62602575}, {"on": true, "note": 48, "velocity": 102, "until": 542.0053350833336}, {"on": false, "note": 48, "velocity": 0, "until": 542.0401576250005}, {"on": true, "note": 48, "velocity": 102, "until": 542.4344214583339}, {"on": false, "note": 48, "velocity": 0, "until": 542.4698941250007}, {"on": true, "note": 48, "velocity": 102, "until": 542.8478999583344}, {"on": false, "note": 48, "velocity": 0, "until": 542.8826016250013}, {"on": true, "note": 48, "velocity": 102, "until": 543.2754574583348}, {"on": false, "note": 48, "velocity": 0, "until": 543.3107755000016}, {"on": true, "note": 48, "velocity": 102, "until": 543.6862018333351}, {"on": false, "note": 48, "velocity": 0, "until": 543.7207276250019}, {"on": true, "note": 48, "velocity": 102, "until": 544.1489015000021}, {"on": false, "note": 48, "velocity": 0, "until": 544.5588536250025}, {"on": true, "note": 45, "velocity": 102, "until": 544.9870275000029}, {"on": false, "note": 45, "velocity": 0, "until": 545.3969796250033}, {"on": true, "note": 50, "velocity": 102, "until": 545.8251535000037}, {"on": false, "note": 50, "velocity": 0, "until": 546.2351056250039}, {"on": true, "note": 45, "velocity": 102, "until": 546.6632795000044}, {"on": false, "note": 45, "velocity": 0, "until": 547.0732316250047}, {"on": true, "note": 50, "velocity": 102, "until": 547.5014055000051}, {"on": false, "note": 50, "velocity": 0, "until": 547.9113576250054}, {"on": true, "note": 43, "velocity": 117, "until": 548.0006430416724}, {"on": false, "note": 43, "velocity": 0, "until": 548.0185001250059}, {"on": true, "note": 43, "velocity": 102, "until": 548.1077855416726}, {"on": false, "note": 43, "velocity": 0, "until": 548.125642625006}, {"on": true, "note": 43, "velocity": 102, "until": 548.2149280416727}, {"on": false, "note": 43, "velocity": 0, "until": 548.2327851250061}, {"on": true, "note": 43, "velocity": 102, "until": 548.3220705416728}, {"on": false, "note": 43, "velocity": 0, "until": 548.3395315000063}, {"on": true, "note": 43, "velocity": 102, "until": 548.424855666673}, {"on": false, "note": 43, "velocity": 0, "until": 548.4419205000064}, {"on": true, "note": 43, "velocity": 102, "until": 548.5272446666731}, {"on": false, "note": 43, "velocity": 0, "until": 548.5443095000065}, {"on": true, "note": 43, "velocity": 102, "until": 548.6296336666733}, {"on": false, "note": 43, "velocity": 0, "until": 548.6466985000067}, {"on": true, "note": 43, "velocity": 102, "until": 548.7320226666734}, {"on": false, "note": 43, "velocity": 0, "until": 548.7494836250067}, {"on": true, "note": 43, "velocity": 102, "until": 548.8387690416735}, {"on": false, "note": 43, "velocity": 0, "until": 548.8566261250069}, {"on": true, "note": 43, "velocity": 102, "until": 548.9459115416736}, {"on": false, "note": 43, "velocity": 0, "until": 548.963768625007}, {"on": true, "note": 43, "velocity": 102, "until": 549.0530540416737}, {"on": false, "note": 43, "velocity": 0, "until": 549.0709111250071}, {"on": true, "note": 43, "velocity": 102, "until": 549.1601965416738}, {"on": false, "note": 43, "velocity": 0, "until": 549.1776575000073}, {"on": true, "note": 43, "velocity": 102, "until": 549.3483058333408}, {"on": false, "note": 43, "velocity": 0, "until": 549.3824355000075}, {"on": true, "note": 43, "velocity": 102, "until": 549.4336300000076}, {"on": false, "note": 43, "velocity": 0, "until": 549.4336300000076}, {"on": true, "note": 45, "velocity": 102, "until": 549.4848245000078}, {"on": false, "note": 45, "velocity": 0, "until": 549.4848245000078}, {"on": true, "note": 47, "velocity": 102, "until": 549.5360190000079}, {"on": false, "note": 47, "velocity": 0, "until": 549.5360190000079}, {"on": true, "note": 48, "velocity": 102, "until": 549.5876096250081}, {"on": false, "note": 48, "velocity": 0, "until": 549.5876096250081}, {"on": true, "note": 50, "velocity": 102, "until": 550.1864318333431}, {"on": false, "note": 50, "velocity": 0, "until": 550.2205615000099}, {"on": true, "note": 43, "velocity": 102, "until": 550.27175600001}, {"on": false, "note": 43, "velocity": 0, "until": 550.27175600001}, {"on": true, "note": 45, "velocity": 102, "until": 550.3229505000102}, {"on": false, "note": 45, "velocity": 0, "until": 550.3229505000102}, {"on": true, "note": 47, "velocity": 102, "until": 550.3741450000102}, {"on": false, "note": 47, "velocity": 0, "until": 550.3741450000102}, {"on": true, "note": 48, "velocity": 102, "until": 550.4257356250105}, {"on": false, "note": 48, "velocity": 0, "until": 550.4257356250105}, {"on": true, "note": 50, "velocity": 102, "until": 551.0245578333455}, {"on": false, "note": 50, "velocity": 0, "until": 551.0586875000123}, {"on": true, "note": 43, "velocity": 102, "until": 551.1098820000124}, {"on": false, "note": 43, "velocity": 0, "until": 551.1098820000124}, {"on": true, "note": 45, "velocity": 102, "until": 551.1610765000125}, {"on": false, "note": 45, "velocity": 0, "until": 551.1610765000125}, {"on": true, "note": 47, "velocity": 102, "until": 551.2122710000126}, {"on": false, "note": 47, "velocity": 0, "until": 551.2122710000126}, {"on": true, "note": 48, "velocity": 102, "until": 551.2638616250129}, {"on": false, "note": 48, "velocity": 0, "until": 551.2638616250129}, {"on": true, "note": 50, "velocity": 102, "until": 551.3531470416801}, {"on": false, "note": 50, "velocity": 0, "until": 551.3710041250137}, {"on": true, "note": 43, "velocity": 102, "until": 551.4602895416808}, {"on": false, "note": 43, "velocity": 0, "until": 551.4781466250142}, {"on": true, "note": 43, "velocity": 102, "until": 551.567432041681}, {"on": false, "note": 43, "velocity": 0, "until": 551.5852891250144}, {"on": true, "note": 43, "velocity": 102, "until": 551.6745745416811}, {"on": false, "note": 43, "velocity": 0, "until": 551.6920355000145}, {"on": true, "note": 43, "velocity": 102, "until": 551.7773596666813}, {"on": false, "note": 43, "velocity": 0, "until": 551.7944245000147}, {"on": true, "note": 43, "velocity": 102, "until": 551.8797486666814}, {"on": false, "note": 43, "velocity": 0, "until": 551.8968135000148}, {"on": true, "note": 43, "velocity": 102, "until": 551.9821376666815}, {"on": false, "note": 43, "velocity": 0, "until": 551.9992025000149}, {"on": true, "note": 43, "velocity": 102, "until": 552.0845266666817}, {"on": false, "note": 43, "velocity": 0, "until": 552.101987625015}, {"on": true, "note": 43, "velocity": 102, "until": 552.1912730416817}, {"on": false, "note": 43, "velocity": 0, "until": 552.2091301250151}, {"on": true, "note": 43, "velocity": 102, "until": 552.2984155416818}, {"on": false, "note": 43, "velocity": 0, "until": 552.3162726250152}, {"on": true, "note": 43, "velocity": 102, "until": 552.405558041682}, {"on": false, "note": 43, "velocity": 0, "until": 552.4234151250154}, {"on": true, "note": 43, "velocity": 102, "until": 552.5127005416821}, {"on": false, "note": 43, "velocity": 0, "until": 552.5301615000155}, {"on": true, "note": 43, "velocity": 102, "until": 552.700809833349}, {"on": false, "note": 43, "velocity": 0, "until": 552.7349395000158}, {"on": true, "note": 43, "velocity": 102, "until": 552.7861340000159}, {"on": false, "note": 43, "velocity": 0, "until": 552.7861340000159}, {"on": true, "note": 45, "velocity": 102, "until": 552.837328500016}, {"on": false, "note": 45, "velocity": 0, "until": 552.837328500016}, {"on": true, "note": 47, "velocity": 102, "until": 552.8885230000161}, {"on": false, "note": 47, "velocity": 0, "until": 552.8885230000161}, {"on": true, "note": 48, "velocity": 102, "until": 552.9401136250164}, {"on": false, "note": 48, "velocity": 0, "until": 552.9401136250164}, {"on": true, "note": 50, "velocity": 102, "until": 553.5389358333514}, {"on": false, "note": 50, "velocity": 0, "until": 553.5730655000182}, {"on": true, "note": 43, "velocity": 102, "until": 553.6242600000182}, {"on": false, "note": 43, "velocity": 0, "until": 553.6242600000182}, {"on": true, "note": 45, "velocity": 102, "until": 553.6754545000184}, {"on": false, "note": 45, "velocity": 0, "until": 553.6754545000184}, {"on": true, "note": 47, "velocity": 102, "until": 553.7266490000185}, {"on": false, "note": 47, "velocity": 0, "until": 553.7266490000185}, {"on": true, "note": 48, "velocity": 102, "until": 553.7782396250187}, {"on": false, "note": 48, "velocity": 0, "until": 553.7782396250187}, {"on": true, "note": 50, "velocity": 102, "until": 554.3770618333538}, {"on": false, "note": 50, "velocity": 0, "until": 554.4111915000205}, {"on": true, "note": 43, "velocity": 102, "until": 554.4521471000206}, {"on": false, "note": 43, "velocity": 0, "until": 554.4521471000206}, {"on": true, "note": 45, "velocity": 102, "until": 554.4931027000207}, {"on": false, "note": 45, "velocity": 0, "until": 554.4931027000207}, {"on": true, "note": 47, "velocity": 102, "until": 554.5340583000208}, {"on": false, "note": 47, "velocity": 0, "until": 554.5340583000208}, {"on": true, "note": 48, "velocity": 102, "until": 554.5750139000208}, {"on": false, "note": 48, "velocity": 0, "until": 554.5750139000208}, {"on": true, "note": 50, "velocity": 102, "until": 554.6163656250211}, {"on": false, "note": 50, "velocity": 0, "until": 554.6163656250211}, {"on": true, "note": 51, "velocity": 102, "until": 554.7056510416884}, {"on": false, "note": 51, "velocity": 0, "until": 554.7235081250219}, {"on": true, "note": 43, "velocity": 102, "until": 554.8127935416891}, {"on": false, "note": 43, "velocity": 0, "until": 554.8306506250225}, {"on": true, "note": 43, "velocity": 102, "until": 554.9199360416892}, {"on": false, "note": 43, "velocity": 0, "until": 554.9377931250226}, {"on": true, "note": 43, "velocity": 102, "until": 555.0270785416893}, {"on": false, "note": 43, "velocity": 0, "until": 555.0445395000228}, {"on": true, "note": 43, "velocity": 102, "until": 555.1298636666895}, {"on": false, "note": 43, "velocity": 0, "until": 555.1469285000229}, {"on": true, "note": 43, "velocity": 102, "until": 555.2322526666896}, {"on": false, "note": 43, "velocity": 0, "until": 555.249317500023}, {"on": true, "note": 43, "velocity": 102, "until": 555.3346416666898}, {"on": false, "note": 43, "velocity": 0, "until": 555.3517065000232}, {"on": true, "note": 43, "velocity": 102, "until": 555.4370306666899}, {"on": false, "note": 43, "velocity": 0, "until": 555.4544916250233}, {"on": true, "note": 43, "velocity": 102, "until": 555.54377704169}, {"on": false, "note": 43, "velocity": 0, "until": 555.5616341250234}, {"on": true, "note": 43, "velocity": 102, "until": 555.6509195416901}, {"on": false, "note": 43, "velocity": 0, "until": 555.6687766250235}, {"on": true, "note": 43, "velocity": 102, "until": 555.7580620416902}, {"on": false, "note": 43, "velocity": 0, "until": 555.7759191250236}, {"on": true, "note": 43, "velocity": 102, "until": 555.8652045416903}, {"on": false, "note": 43, "velocity": 0, "until": 555.8826655000238}, {"on": true, "note": 43, "velocity": 102, "until": 555.9679896666905}, {"on": false, "note": 43, "velocity": 0, "until": 555.9850545000239}, {"on": true, "note": 43, "velocity": 102, "until": 556.0703786666907}, {"on": false, "note": 43, "velocity": 0, "until": 556.087443500024}, {"on": true, "note": 43, "velocity": 102, "until": 556.1727676666908}, {"on": false, "note": 43, "velocity": 0, "until": 556.1898325000242}, {"on": true, "note": 43, "velocity": 102, "until": 556.2751566666909}, {"on": false, "note": 43, "velocity": 0, "until": 556.2926176250244}, {"on": true, "note": 43, "velocity": 102, "until": 556.3819030416911}, {"on": false, "note": 43, "velocity": 0, "until": 556.3997601250245}, {"on": true, "note": 43, "velocity": 102, "until": 556.4890455416912}, {"on": false, "note": 43, "velocity": 0, "until": 556.5069026250246}, {"on": true, "note": 43, "velocity": 102, "until": 556.5961880416913}, {"on": false, "note": 43, "velocity": 0, "until": 556.6140451250247}, {"on": true, "note": 43, "velocity": 102, "until": 556.7033305416915}, {"on": false, "note": 43, "velocity": 0, "until": 556.7207915000249}, {"on": true, "note": 43, "velocity": 102, "until": 556.8061156666917}, {"on": false, "note": 43, "velocity": 0, "until": 556.823180500025}, {"on": true, "note": 43, "velocity": 102, "until": 556.9085046666918}, {"on": false, "note": 43, "velocity": 0, "until": 556.9255695000252}, {"on": true, "note": 43, "velocity": 102, "until": 557.0108936666919}, {"on": false, "note": 43, "velocity": 0, "until": 557.0279585000253}, {"on": true, "note": 43, "velocity": 102, "until": 557.113282666692}, {"on": false, "note": 43, "velocity": 0, "until": 557.1307436250255}, {"on": true, "note": 43, "velocity": 102, "until": 557.2200290416922}, {"on": false, "note": 43, "velocity": 0, "until": 557.2378861250256}, {"on": true, "note": 43, "velocity": 102, "until": 557.3271715416923}, {"on": false, "note": 43, "velocity": 0, "until": 557.3450286250257}, {"on": true, "note": 43, "velocity": 102, "until": 557.4343140416925}, {"on": false, "note": 43, "velocity": 0, "until": 557.4521711250259}, {"on": true, "note": 43, "velocity": 102, "until": 557.5414565416926}, {"on": false, "note": 43, "velocity": 0, "until": 557.558917500026}, {"on": true, "note": 43, "velocity": 102, "until": 557.6442416666928}, {"on": false, "note": 43, "velocity": 0, "until": 557.6613065000262}, {"on": true, "note": 43, "velocity": 102, "until": 557.7466306666929}, {"on": false, "note": 43, "velocity": 0, "until": 557.7636955000263}, {"on": true, "note": 43, "velocity": 102, "until": 557.849019666693}, {"on": false, "note": 43, "velocity": 0, "until": 557.8660845000264}, {"on": true, "note": 43, "velocity": 102, "until": 557.9514086666932}, {"on": false, "note": 43, "velocity": 0, "until": 557.9688696250266}, {"on": true, "note": 44, "velocity": 102, "until": 558.1831546250269}, {"on": false, "note": 44, "velocity": 0, "until": 558.8069956250272}, {"on": true, "note": 44, "velocity": 102, "until": 559.0212806250277}, {"on": false, "note": 44, "velocity": 0, "until": 559.645121625028}, {"on": true, "note": 43, "velocity": 102, "until": 559.8594066250284}, {"on": false, "note": 43, "velocity": 0, "until": 560.4832476250288}, {"on": true, "note": 31, "velocity": 102, "until": 560.699020750029}, {"on": false, "note": 31, "velocity": 0, "until": 561.172686375029}, {"on": true, "note": 43, "velocity": 102, "until": 561.2176301750291}, {"on": false, "note": 43, "velocity": 0, "until": 561.2176301750291}, {"on": true, "note": 45, "velocity": 102, "until": 561.2625739750291}, {"on": false, "note": 45, "velocity": 0, "until": 561.2625739750291}, {"on": true, "note": 47, "velocity": 102, "until": 561.3075177750292}, {"on": false, "note": 47, "velocity": 0, "until": 561.3075177750292}, {"on": true, "note": 48, "velocity": 102, "until": 561.3524615750292}, {"on": false, "note": 48, "velocity": 0, "until": 561.3524615750292}, {"on": true, "note": 50, "velocity": 102, "until": 561.3969706250293}, {"on": false, "note": 50, "velocity": 0, "until": 561.3969706250293}, {"on": true, "note": 51, "velocity": 102, "until": 561.4862560416964}, {"on": false, "note": 51, "velocity": 0, "until": 561.5041131250298}, {"on": true, "note": 43, "velocity": 102, "until": 561.5933985416965}, {"on": false, "note": 43, "velocity": 0, "until": 561.6112556250299}, {"on": true, "note": 43, "velocity": 102, "until": 561.7005410416966}, {"on": false, "note": 43, "velocity": 0, "until": 561.71839812503}, {"on": true, "note": 43, "velocity": 102, "until": 561.8076835416967}, {"on": false, "note": 43, "velocity": 0, "until": 561.8251445000302}, {"on": true, "note": 43, "velocity": 102, "until": 561.9104686666969}, {"on": false, "note": 43, "velocity": 0, "until": 561.9275335000303}, {"on": true, "note": 43, "velocity": 102, "until": 562.0128576666971}, {"on": false, "note": 43, "velocity": 0, "until": 562.0299225000305}, {"on": true, "note": 43, "velocity": 102, "until": 562.1152466666972}, {"on": false, "note": 43, "velocity": 0, "until": 562.1323115000306}, {"on": true, "note": 43, "velocity": 102, "until": 562.2176356666973}, {"on": false, "note": 43, "velocity": 0, "until": 562.2350966250307}, {"on": true, "note": 43, "velocity": 102, "until": 562.3243820416974}, {"on": false, "note": 43, "velocity": 0, "until": 562.3422391250308}, {"on": true, "note": 43, "velocity": 102, "until": 562.4315245416975}, {"on": false, "note": 43, "velocity": 0, "until": 562.4493816250309}, {"on": true, "note": 43, "velocity": 102, "until": 562.5386670416976}, {"on": false, "note": 43, "velocity": 0, "until": 562.556524125031}, {"on": true, "note": 43, "velocity": 102, "until": 562.6458095416978}, {"on": false, "note": 43, "velocity": 0, "until": 562.6632705000312}, {"on": true, "note": 43, "velocity": 102, "until": 562.748594666698}, {"on": false, "note": 43, "velocity": 0, "until": 562.7656595000313}, {"on": true, "note": 43, "velocity": 102, "until": 562.8509836666981}, {"on": false, "note": 43, "velocity": 0, "until": 562.8680485000315}, {"on": true, "note": 43, "velocity": 102, "until": 562.9533726666982}, {"on": false, "note": 43, "velocity": 0, "until": 562.9704375000316}, {"on": true, "note": 43, "velocity": 102, "until": 563.0557616666983}, {"on": false, "note": 43, "velocity": 0, "until": 563.0732226250318}, {"on": true, "note": 43, "velocity": 102, "until": 563.1625080416985}, {"on": false, "note": 43, "velocity": 0, "until": 563.1803651250319}, {"on": true, "note": 43, "velocity": 102, "until": 563.2696505416986}, {"on": false, "note": 43, "velocity": 0, "until": 563.287507625032}, {"on": true, "note": 43, "velocity": 102, "until": 563.3767930416988}, {"on": false, "note": 43, "velocity": 0, "until": 563.3946501250322}, {"on": true, "note": 43, "velocity": 102, "until": 563.4839355416989}, {"on": false, "note": 43, "velocity": 0, "until": 563.5013965000323}, {"on": true, "note": 43, "velocity": 102, "until": 563.5867206666991}, {"on": false, "note": 43, "velocity": 0, "until": 563.6037855000325}, {"on": true, "note": 43, "velocity": 102, "until": 563.6891096666992}, {"on": false, "note": 43, "velocity": 0, "until": 563.7061745000326}, {"on": true, "note": 43, "velocity": 102, "until": 563.7914986666993}, {"on": false, "note": 43, "velocity": 0, "until": 563.8085635000327}, {"on": true, "note": 43, "velocity": 102, "until": 563.8938876666995}, {"on": false, "note": 43, "velocity": 0, "until": 563.9113486250329}, {"on": true, "note": 43, "velocity": 102, "until": 564.0006340416996}, {"on": false, "note": 43, "velocity": 0, "until": 564.018491125033}, {"on": true, "note": 43, "velocity": 102, "until": 564.1077765416998}, {"on": false, "note": 43, "velocity": 0, "until": 564.1256336250332}, {"on": true, "note": 43, "velocity": 102, "until": 564.2149190416999}, {"on": false, "note": 43, "velocity": 0, "until": 564.2327761250333}, {"on": true, "note": 43, "velocity": 102, "until": 564.3220615417}, {"on": false, "note": 43, "velocity": 0, "until": 564.3395225000335}, {"on": true, "note": 43, "velocity": 102, "until": 564.4248466667002}, {"on": false, "note": 43, "velocity": 0, "until": 564.4419115000336}, {"on": true, "note": 43, "velocity": 102, "until": 564.5272356667003}, {"on": false, "note": 43, "velocity": 0, "until": 564.5443005000337}, {"on": true, "note": 43, "velocity": 102, "until": 564.6296246667005}, {"on": false, "note": 43, "velocity": 0, "until": 564.6466895000339}, {"on": true, "note": 43, "velocity": 102, "until": 564.7320136667006}, {"on": false, "note": 43, "velocity": 0, "until": 564.749474625034}, {"on": true, "note": 44, "velocity": 102, "until": 564.9637596250343}, {"on": false, "note": 44, "velocity": 0, "until": 565.5876006250346}, {"on": true, "note": 44, "velocity": 102, "until": 565.8018856250351}, {"on": false, "note": 44, "velocity": 0, "until": 566.4258560417019}, {"on": true, "note": 43, "velocity": 102, "until": 566.6432470417014}, {"on": false, "note": 43, "velocity": 0, "until": 567.2793134583677}, {"on": true, "note": 31, "velocity": 102, "until": 567.5317170833683}, {"on": false, "note": 31, "velocity": 0, "until": 570.3867736250357}, {"on": true, "note": 48, "velocity": 102, "until": 570.4939161250358}, {"on": false, "note": 48, "velocity": 0, "until": 570.6010586250358}, {"on": true, "note": 43, "velocity": 102, "until": 570.7082011250358}, {"on": false, "note": 43, "velocity": 0, "until": 570.8149475000358}, {"on": true, "note": 48, "velocity": 102, "until": 570.917336500036}, {"on": false, "note": 48, "velocity": 0, "until": 571.0197255000361}, {"on": true, "note": 43, "velocity": 102, "until": 571.1221145000362}, {"on": false, "note": 43, "velocity": 0, "until": 571.2248996250363}, {"on": true, "note": 48, "velocity": 102, "until": 571.6530735000364}, {"on": false, "note": 48, "velocity": 0, "until": 573.7392776250373}, {"on": true, "note": 48, "velocity": 102, "until": 573.8464201250373}, {"on": false, "note": 48, "velocity": 0, "until": 573.9535626250373}, {"on": true, "note": 43, "velocity": 102, "until": 574.0607051250373}, {"on": false, "note": 43, "velocity": 0, "until": 574.1674515000374}, {"on": true, "note": 48, "velocity": 102, "until": 574.2698405000375}, {"on": false, "note": 48, "velocity": 0, "until": 574.3722295000376}, {"on": true, "note": 43, "velocity": 102, "until": 574.4746185000378}, {"on": false, "note": 43, "velocity": 0, "until": 574.5774036250378}, {"on": true, "note": 48, "velocity": 102, "until": 575.0055775000379}, {"on": false, "note": 48, "velocity": 0, "until": 578.7680336250431}, {"on": true, "note": 36, "velocity": 102, "until": 578.9501758750432}, {"on": false, "note": 36, "velocity": 0, "until": 578.9823186250433}, {"on": true, "note": 31, "velocity": 102, "until": 579.1644608750433}, {"on": false, "note": 31, "velocity": 0, "until": 579.1962075000434}, {"on": true, "note": 36, "velocity": 102, "until": 579.3702688000436}, {"on": false, "note": 36, "velocity": 0, "until": 579.4009855000437}, {"on": true, "note": 31, "velocity": 102, "until": 579.5750468000439}, {"on": false, "note": 31, "velocity": 0, "until": 579.6061596250439}, {"on": true, "note": 36, "velocity": 102, "until": 579.788301875044}, {"on": false, "note": 36, "velocity": 0, "until": 579.820444625044}, {"on": true, "note": 31, "velocity": 102, "until": 580.0025868750441}, {"on": false, "note": 31, "velocity": 0, "until": 580.0343335000442}, {"on": true, "note": 36, "velocity": 102, "until": 580.2083948000444}, {"on": false, "note": 36, "velocity": 0, "until": 580.2391115000445}, {"on": true, "note": 31, "velocity": 102, "until": 580.4131728000447}, {"on": false, "note": 31, "velocity": 0, "until": 580.4442856250448}, {"on": true, "note": 36, "velocity": 102, "until": 580.626427875045}, {"on": false, "note": 36, "velocity": 0, "until": 580.6585706250452}, {"on": true, "note": 43, "velocity": 102, "until": 580.7657131250453}, {"on": false, "note": 43, "velocity": 0, "until": 580.8724595000456}, {"on": true, "note": 48, "velocity": 102, "until": 580.9748485000457}, {"on": false, "note": 48, "velocity": 0, "until": 581.0772375000457}, {"on": true, "note": 43, "velocity": 102, "until": 581.1796265000459}, {"on": false, "note": 43, "velocity": 0, "until": 581.2824116250459}, {"on": true, "note": 48, "velocity": 102, "until": 581.3895541250461}, {"on": false, "note": 48, "velocity": 0, "until": 581.4966966250464}, {"on": true, "note": 43, "velocity": 102, "until": 581.6038391250465}, {"on": false, "note": 43, "velocity": 0, "until": 581.7105855000468}, {"on": true, "note": 48, "velocity": 102, "until": 581.812974500047}, {"on": false, "note": 48, "velocity": 0, "until": 581.915363500047}, {"on": true, "note": 43, "velocity": 102, "until": 582.0177525000471}, {"on": false, "note": 43, "velocity": 0, "until": 582.1202297500471}, {"on": true, "note": 48, "velocity": 102, "until": 582.2581604167137}, {"on": false, "note": 48, "velocity": 0, "until": 583.0342978750473}, {"on": true, "note": 48, "velocity": 102, "until": 583.2478208750474}, {"on": false, "note": 48, "velocity": 0, "until": 584.0072814167142}, {"on": true, "note": 36, "velocity": 102, "until": 584.5760014167143}]}, {"id": 15, "states": [{"on": true, "note": 48, "velocity": 51, "until": 0}, {"on": false, "note": 0, "velocity": 0, "until": 1.9300000000000004}, {"on": true, "note": 48, "velocity": 49, "until": 1.9400000000000004}, {"on": false, "note": 48, "velocity": 0, "until": 2.0100000000000002}, {"on": false, "note": 48, "velocity": 0, "until": 2.0100000000000002}, {"on": true, "note": 48, "velocity": 48, "until": 2.079999999999999}, {"on": true, "note": 48, "velocity": 47, "until": 2.089999999999999}, {"on": false, "note": 48, "velocity": 0, "until": 2.159999999999998}, {"on": false, "note": 48, "velocity": 0, "until": 2.159999999999998}, {"on": true, "note": 48, "velocity": 45, "until": 2.229999999999997}, {"on": true, "note": 48, "velocity": 44, "until": 2.2399999999999967}, {"on": false, "note": 48, "velocity": 0, "until": 2.3099999999999956}, {"on": false, "note": 48, "velocity": 0, "until": 2.3099999999999956}, {"on": true, "note": 48, "velocity": 42, "until": 2.3799999999999946}, {"on": true, "note": 48, "velocity": 41, "until": 2.3899999999999944}, {"on": false, "note": 48, "velocity": 0, "until": 2.4599999999999933}, {"on": false, "note": 48, "velocity": 0, "until": 2.4599999999999933}, {"on": true, "note": 48, "velocity": 41, "until": 2.529999999999993}, {"on": true, "note": 48, "velocity": 41, "until": 2.539999999999993}, {"on": false, "note": 48, "velocity": 0, "until": 2.6099999999999928}, {"on": false, "note": 48, "velocity": 0, "until": 2.6099999999999928}, {"on": true, "note": 48, "velocity": 39, "until": 2.6799999999999926}, {"on": true, "note": 48, "velocity": 39, "until": 2.6899999999999924}, {"on": false, "note": 48, "velocity": 0, "until": 2.759999999999992}, {"on": false, "note": 48, "velocity": 0, "until": 2.759999999999992}, {"on": true, "note": 48, "velocity": 38, "until": 2.8299999999999916}, {"on": true, "note": 48, "velocity": 38, "until": 2.8399999999999914}, {"on": false, "note": 48, "velocity": 0, "until": 2.9099999999999913}, {"on": false, "note": 48, "velocity": 0, "until": 2.9099999999999913}, {"on": true, "note": 48, "velocity": 37, "until": 2.979999999999991}, {"on": true, "note": 48, "velocity": 36, "until": 2.989999999999991}, {"on": false, "note": 48, "velocity": 0, "until": 3.0599999999999903}, {"on": false, "note": 48, "velocity": 0, "until": 3.0599999999999903}, {"on": true, "note": 48, "velocity": 36, "until": 3.12999999999999}, {"on": true, "note": 48, "velocity": 36, "until": 3.13999999999999}, {"on": false, "note": 48, "velocity": 0, "until": 3.2099999999999898}, {"on": false, "note": 48, "velocity": 0, "until": 3.2099999999999898}, {"on": true, "note": 48, "velocity": 35, "until": 3.2799999999999896}, {"on": true, "note": 48, "velocity": 34, "until": 3.2899999999999894}, {"on": false, "note": 48, "velocity": 0, "until": 3.3599999999999888}, {"on": false, "note": 48, "velocity": 0, "until": 3.3599999999999888}, {"on": true, "note": 48, "velocity": 33, "until": 3.4299999999999886}, {"on": true, "note": 48, "velocity": 33, "until": 3.4399999999999884}, {"on": false, "note": 48, "velocity": 0, "until": 3.5099999999999882}, {"on": false, "note": 48, "velocity": 0, "until": 3.5099999999999882}, {"on": true, "note": 48, "velocity": 33, "until": 3.579999999999988}, {"on": true, "note": 48, "velocity": 32, "until": 3.589999999999988}, {"on": false, "note": 48, "velocity": 0, "until": 3.6599999999999873}, {"on": false, "note": 48, "velocity": 0, "until": 3.6599999999999873}, {"on": true, "note": 48, "velocity": 31, "until": 3.729999999999987}, {"on": true, "note": 48, "velocity": 30, "until": 3.739999999999987}, {"on": false, "note": 48, "velocity": 0, "until": 3.8099999999999867}, {"on": false, "note": 48, "velocity": 0, "until": 3.8099999999999867}, {"on": true, "note": 48, "velocity": 30, "until": 3.8799999999999866}, {"on": true, "note": 48, "velocity": 30, "until": 3.8899999999999864}, {"on": false, "note": 48, "velocity": 0, "until": 3.9599999999999858}, {"on": false, "note": 48, "velocity": 0, "until": 3.9599999999999858}, {"on": true, "note": 48, "velocity": 30, "until": 4.029999999999986}, {"on": true, "note": 48, "velocity": 28, "until": 4.039999999999986}, {"on": false, "note": 48, "velocity": 0, "until": 4.109999999999986}, {"on": false, "note": 48, "velocity": 0, "until": 4.109999999999986}, {"on": true, "note": 48, "velocity": 28, "until": 4.179999999999986}, {"on": true, "note": 48, "velocity": 28, "until": 4.189999999999986}, {"on": false, "note": 48, "velocity": 0, "until": 4.259999999999985}, {"on": false, "note": 48, "velocity": 0, "until": 4.259999999999985}, {"on": true, "note": 48, "velocity": 27, "until": 4.329999999999985}, {"on": true, "note": 48, "velocity": 26, "until": 4.339999999999985}, {"on": false, "note": 48, "velocity": 0, "until": 4.409999999999985}, {"on": false, "note": 48, "velocity": 0, "until": 4.409999999999985}, {"on": true, "note": 48, "velocity": 26, "until": 4.479999999999985}, {"on": true, "note": 48, "velocity": 26, "until": 4.489999999999985}, {"on": false, "note": 48, "velocity": 0, "until": 4.559999999999984}, {"on": false, "note": 48, "velocity": 0, "until": 4.559999999999984}, {"on": true, "note": 48, "velocity": 25, "until": 4.629999999999984}, {"on": true, "note": 48, "velocity": 24, "until": 4.639999999999984}, {"on": false, "note": 48, "velocity": 0, "until": 4.709999999999984}, {"on": false, "note": 48, "velocity": 0, "until": 4.709999999999984}, {"on": true, "note": 48, "velocity": 23, "until": 4.779999999999984}, {"on": true, "note": 48, "velocity": 23, "until": 4.789999999999984}, {"on": false, "note": 48, "velocity": 0, "until": 4.859999999999983}, {"on": false, "note": 48, "velocity": 0, "until": 4.859999999999983}, {"on": true, "note": 48, "velocity": 23, "until": 4.929999999999982}, {"on": true, "note": 48, "velocity": 23, "until": 4.939999999999982}, {"on": false, "note": 48, "velocity": 0, "until": 5.009999999999981}, {"on": false, "note": 48, "velocity": 0, "until": 5.009999999999981}, {"on": true, "note": 48, "velocity": 22, "until": 5.0799999999999805}, {"on": true, "note": 48, "velocity": 22, "until": 5.08999999999998}, {"on": false, "note": 48, "velocity": 0, "until": 5.159999999999979}, {"on": false, "note": 48, "velocity": 0, "until": 5.159999999999979}, {"on": true, "note": 48, "velocity": 21, "until": 5.229999999999978}, {"on": true, "note": 48, "velocity": 20, "until": 5.239999999999978}, {"on": false, "note": 48, "velocity": 0, "until": 5.309999999999977}, {"on": false, "note": 48, "velocity": 0, "until": 5.309999999999977}, {"on": true, "note": 48, "velocity": 19, "until": 5.379999999999977}, {"on": true, "note": 48, "velocity": 19, "until": 5.389999999999977}, {"on": false, "note": 48, "velocity": 0, "until": 5.463829749999978}, {"on": false, "note": 48, "velocity": 0, "until": 5.463829749999978}, {"on": true, "note": 48, "velocity": 70, "until": 6.314893083333312}, {"on": false, "note": 48, "velocity": 0, "until": 6.74042474999998}, {"on": true, "note": 48, "velocity": 70, "until": 7.591488083333318}, {"on": false, "note": 48, "velocity": 0, "until": 9.72747499999999}, {"on": true, "note": 48, "velocity": 51, "until": 9.797474999999988}, {"on": true, "note": 48, "velocity": 49, "until": 9.807474999999988}, {"on": false, "note": 48, "velocity": 0, "until": 9.877474999999986}, {"on": false, "note": 48, "velocity": 0, "until": 9.877474999999986}, {"on": true, "note": 48, "velocity": 48, "until": 9.947474999999985}, {"on": true, "note": 48, "velocity": 47, "until": 9.957474999999985}, {"on": false, "note": 48, "velocity": 0, "until": 10.027474999999983}, {"on": false, "note": 48, "velocity": 0, "until": 10.027474999999983}, {"on": true, "note": 48, "velocity": 45, "until": 10.097474999999982}, {"on": true, "note": 48, "velocity": 44, "until": 10.107474999999981}, {"on": false, "note": 48, "velocity": 0, "until": 10.17747499999998}, {"on": false, "note": 48, "velocity": 0, "until": 10.17747499999998}, {"on": true, "note": 48, "velocity": 42, "until": 10.247474999999978}, {"on": true, "note": 48, "velocity": 41, "until": 10.257474999999978}, {"on": false, "note": 48, "velocity": 0, "until": 10.327474999999977}, {"on": false, "note": 48, "velocity": 0, "until": 10.327474999999977}, {"on": true, "note": 48, "velocity": 41, "until": 10.397474999999977}, {"on": true, "note": 48, "velocity": 41, "until": 10.407474999999977}, {"on": false, "note": 48, "velocity": 0, "until": 10.477474999999977}, {"on": false, "note": 48, "velocity": 0, "until": 10.477474999999977}, {"on": true, "note": 48, "velocity": 39, "until": 10.547474999999977}, {"on": true, "note": 48, "velocity": 39, "until": 10.557474999999977}, {"on": false, "note": 48, "velocity": 0, "until": 10.627474999999976}, {"on": false, "note": 48, "velocity": 0, "until": 10.627474999999976}, {"on": true, "note": 48, "velocity": 38, "until": 10.697474999999976}, {"on": true, "note": 48, "velocity": 38, "until": 10.707474999999976}, {"on": false, "note": 48, "velocity": 0, "until": 10.777474999999976}, {"on": false, "note": 48, "velocity": 0, "until": 10.777474999999976}, {"on": true, "note": 48, "velocity": 37, "until": 10.847474999999976}, {"on": true, "note": 48, "velocity": 36, "until": 10.857474999999976}, {"on": false, "note": 48, "velocity": 0, "until": 10.927474999999975}, {"on": false, "note": 48, "velocity": 0, "until": 10.927474999999975}, {"on": true, "note": 48, "velocity": 36, "until": 10.997474999999975}, {"on": true, "note": 48, "velocity": 36, "until": 11.007474999999975}, {"on": false, "note": 48, "velocity": 0, "until": 11.077474999999975}, {"on": false, "note": 48, "velocity": 0, "until": 11.077474999999975}, {"on": true, "note": 48, "velocity": 35, "until": 11.147474999999975}, {"on": true, "note": 48, "velocity": 34, "until": 11.157474999999975}, {"on": false, "note": 48, "velocity": 0, "until": 11.227474999999973}, {"on": false, "note": 48, "velocity": 0, "until": 11.227474999999973}, {"on": true, "note": 48, "velocity": 33, "until": 11.297474999999974}, {"on": true, "note": 48, "velocity": 33, "until": 11.307474999999974}, {"on": false, "note": 48, "velocity": 0, "until": 11.377474999999974}, {"on": false, "note": 48, "velocity": 0, "until": 11.377474999999974}, {"on": true, "note": 48, "velocity": 33, "until": 11.447474999999974}, {"on": true, "note": 48, "velocity": 32, "until": 11.457474999999974}, {"on": false, "note": 48, "velocity": 0, "until": 11.527474999999972}, {"on": false, "note": 48, "velocity": 0, "until": 11.527474999999972}, {"on": true, "note": 48, "velocity": 31, "until": 11.597474999999973}, {"on": true, "note": 48, "velocity": 30, "until": 11.607474999999972}, {"on": false, "note": 48, "velocity": 0, "until": 11.677474999999973}, {"on": false, "note": 48, "velocity": 0, "until": 11.677474999999973}, {"on": true, "note": 48, "velocity": 30, "until": 11.747474999999973}, {"on": true, "note": 48, "velocity": 30, "until": 11.757474999999973}, {"on": false, "note": 48, "velocity": 0, "until": 11.827474999999971}, {"on": false, "note": 48, "velocity": 0, "until": 11.827474999999971}, {"on": true, "note": 48, "velocity": 30, "until": 11.897474999999972}, {"on": true, "note": 48, "velocity": 28, "until": 11.907474999999971}, {"on": false, "note": 48, "velocity": 0, "until": 11.977474999999972}, {"on": false, "note": 48, "velocity": 0, "until": 11.977474999999972}, {"on": true, "note": 48, "velocity": 28, "until": 12.047474999999972}, {"on": true, "note": 48, "velocity": 28, "until": 12.057474999999972}, {"on": false, "note": 48, "velocity": 0, "until": 12.12747499999997}, {"on": false, "note": 48, "velocity": 0, "until": 12.12747499999997}, {"on": true, "note": 48, "velocity": 27, "until": 12.19747499999997}, {"on": true, "note": 48, "velocity": 26, "until": 12.20747499999997}, {"on": false, "note": 48, "velocity": 0, "until": 12.27747499999997}, {"on": false, "note": 48, "velocity": 0, "until": 12.27747499999997}, {"on": true, "note": 48, "velocity": 26, "until": 12.347474999999971}, {"on": true, "note": 48, "velocity": 26, "until": 12.35747499999997}, {"on": false, "note": 48, "velocity": 0, "until": 12.42747499999997}, {"on": false, "note": 48, "velocity": 0, "until": 12.42747499999997}, {"on": true, "note": 48, "velocity": 25, "until": 12.49747499999997}, {"on": true, "note": 48, "velocity": 24, "until": 12.50747499999997}, {"on": false, "note": 48, "velocity": 0, "until": 12.57747499999997}, {"on": false, "note": 48, "velocity": 0, "until": 12.57747499999997}, {"on": true, "note": 48, "velocity": 23, "until": 12.64747499999997}, {"on": true, "note": 48, "velocity": 23, "until": 12.65747499999997}, {"on": false, "note": 48, "velocity": 0, "until": 12.727474999999968}, {"on": false, "note": 48, "velocity": 0, "until": 12.727474999999968}, {"on": true, "note": 48, "velocity": 23, "until": 12.797474999999968}, {"on": true, "note": 48, "velocity": 23, "until": 12.807474999999968}, {"on": false, "note": 48, "velocity": 0, "until": 12.877474999999967}, {"on": false, "note": 48, "velocity": 0, "until": 12.877474999999967}, {"on": true, "note": 48, "velocity": 22, "until": 12.947474999999965}, {"on": true, "note": 48, "velocity": 22, "until": 12.957474999999965}, {"on": false, "note": 48, "velocity": 0, "until": 13.027474999999964}, {"on": false, "note": 48, "velocity": 0, "until": 13.027474999999964}, {"on": true, "note": 48, "velocity": 21, "until": 13.097474999999962}, {"on": true, "note": 48, "velocity": 20, "until": 13.107474999999962}, {"on": false, "note": 48, "velocity": 0, "until": 13.177474999999962}, {"on": false, "note": 48, "velocity": 0, "until": 13.177474999999962}, {"on": true, "note": 48, "velocity": 19, "until": 13.247474999999962}, {"on": true, "note": 48, "velocity": 19, "until": 13.257474999999962}, {"on": false, "note": 48, "velocity": 0, "until": 13.33414164999996}, {"on": false, "note": 48, "velocity": 0, "until": 13.33414164999996}, {"on": true, "note": 48, "velocity": 70, "until": 14.223030316666625}, {"on": false, "note": 48, "velocity": 0, "until": 14.667474649999956}, {"on": true, "note": 48, "velocity": 70, "until": 15.556363316666618}, {"on": false, "note": 48, "velocity": 0, "until": 31.483427000000106}, {"on": true, "note": 43, "velocity": 60, "until": 32.08342700000017}, {"on": false, "note": 43, "velocity": 0, "until": 35.191603750000134}, {"on": true, "note": 43, "velocity": 60, "until": 35.845018850000095}, {"on": false, "note": 43, "velocity": 0, "until": 59.1844121333333}, {"on": true, "note": 43, "velocity": 60, "until": 59.86623013333321}, {"on": false, "note": 43, "velocity": 0, "until": 63.0131641333332}, {"on": true, "note": 43, "velocity": 60, "until": 63.694982133333106}, {"on": false, "note": 43, "velocity": 0, "until": 66.83895168333316}, {"on": true, "note": 48, "velocity": 60, "until": 67.49112518333345}, {"on": false, "note": 48, "velocity": 0, "until": 79.97960585000015}, {"on": true, "note": 48, "velocity": 50, "until": 81.28395285000046}, {"on": false, "note": 48, "velocity": 0, "until": 81.28395285000046}, {"on": true, "note": 48, "velocity": 65, "until": 82.58829985000075}, {"on": false, "note": 48, "velocity": 0, "until": 82.58829985000075}, {"on": true, "note": 43, "velocity": 78, "until": 82.69699543333412}, {"on": false, "note": 43, "velocity": 0, "until": 82.69699543333412}, {"on": true, "note": 43, "velocity": 77, "until": 82.80569101666747}, {"on": false, "note": 43, "velocity": 0, "until": 82.80569101666747}, {"on": true, "note": 43, "velocity": 75, "until": 82.91438660000085}, {"on": false, "note": 43, "velocity": 0, "until": 82.91438660000085}, {"on": true, "note": 43, "velocity": 73, "until": 83.0230821833342}, {"on": false, "note": 43, "velocity": 0, "until": 83.0230821833342}, {"on": true, "note": 43, "velocity": 72, "until": 83.13177776666755}, {"on": false, "note": 43, "velocity": 0, "until": 83.13177776666755}, {"on": true, "note": 43, "velocity": 70, "until": 83.2404733500009}, {"on": false, "note": 43, "velocity": 0, "until": 83.2404733500009}, {"on": true, "note": 43, "velocity": 68, "until": 83.34916893333427}, {"on": false, "note": 43, "velocity": 0, "until": 83.34916893333427}, {"on": true, "note": 43, "velocity": 67, "until": 83.45786451666761}, {"on": false, "note": 43, "velocity": 0, "until": 83.45786451666761}, {"on": true, "note": 43, "velocity": 65, "until": 83.56656010000097}, {"on": false, "note": 43, "velocity": 0, "until": 83.56656010000097}, {"on": true, "note": 43, "velocity": 63, "until": 83.67525568333433}, {"on": false, "note": 43, "velocity": 0, "until": 83.67525568333433}, {"on": true, "note": 43, "velocity": 61, "until": 83.7839512666677}, {"on": false, "note": 43, "velocity": 0, "until": 83.7839512666677}, {"on": true, "note": 43, "velocity": 60, "until": 83.88742950000105}, {"on": false, "note": 43, "velocity": 0, "until": 83.88742950000105}, {"on": true, "note": 43, "velocity": 58, "until": 83.98742950000107}, {"on": false, "note": 43, "velocity": 0, "until": 83.98742950000107}, {"on": true, "note": 43, "velocity": 56, "until": 84.0874295000011}, {"on": false, "note": 43, "velocity": 0, "until": 84.0874295000011}, {"on": true, "note": 43, "velocity": 55, "until": 84.18742950000112}, {"on": false, "note": 43, "velocity": 0, "until": 84.18742950000112}, {"on": true, "note": 43, "velocity": 53, "until": 84.28742950000114}, {"on": false, "note": 43, "velocity": 0, "until": 84.28742950000114}, {"on": true, "note": 43, "velocity": 51, "until": 84.38742950000116}, {"on": false, "note": 43, "velocity": 0, "until": 84.38742950000116}, {"on": true, "note": 43, "velocity": 49, "until": 84.48742950000116}, {"on": false, "note": 43, "velocity": 0, "until": 84.48742950000116}, {"on": true, "note": 43, "velocity": 48, "until": 84.58742950000118}, {"on": false, "note": 43, "velocity": 0, "until": 84.58742950000118}, {"on": true, "note": 43, "velocity": 46, "until": 84.68742950000119}, {"on": false, "note": 43, "velocity": 0, "until": 84.68742950000119}, {"on": true, "note": 43, "velocity": 44, "until": 84.78742950000121}, {"on": false, "note": 43, "velocity": 0, "until": 84.78742950000121}, {"on": true, "note": 43, "velocity": 43, "until": 84.88742950000122}, {"on": false, "note": 43, "velocity": 0, "until": 84.88742950000122}, {"on": true, "note": 43, "velocity": 41, "until": 84.98742950000124}, {"on": false, "note": 43, "velocity": 0, "until": 84.98742950000124}, {"on": true, "note": 43, "velocity": 39, "until": 85.08742950000126}, {"on": false, "note": 43, "velocity": 0, "until": 85.08742950000126}, {"on": true, "note": 43, "velocity": 47, "until": 86.36883718333462}, {"on": false, "note": 43, "velocity": 0, "until": 86.36883718333462}, {"on": true, "note": 48, "velocity": 47, "until": 87.66796683333483}, {"on": false, "note": 48, "velocity": 0, "until": 127.6025264333355}, {"on": true, "note": 48, "velocity": 76, "until": 128.09161403333553}, {"on": false, "note": 48, "velocity": 0, "until": 128.09161403333553}, {"on": true, "note": 48, "velocity": 76, "until": 128.55385843333556}, {"on": false, "note": 48, "velocity": 0, "until": 128.55385843333556}, {"on": true, "note": 48, "velocity": 76, "until": 129.04294603333557}, {"on": false, "note": 48, "velocity": 0, "until": 131.40672843333536}, {"on": true, "note": 48, "velocity": 76, "until": 131.89581603333536}, {"on": false, "note": 48, "velocity": 0, "until": 131.89581603333536}, {"on": true, "note": 48, "velocity": 76, "until": 132.35806043333537}, {"on": false, "note": 48, "velocity": 0, "until": 132.35806043333537}, {"on": true, "note": 48, "velocity": 76, "until": 132.84714803333537}, {"on": false, "note": 48, "velocity": 0, "until": 139.0405864333364}, {"on": true, "note": 43, "velocity": 80, "until": 139.2854834333364}, {"on": false, "note": 43, "velocity": 0, "until": 139.2854834333364}, {"on": true, "note": 48, "velocity": 70, "until": 139.3467076833364}, {"on": false, "note": 48, "velocity": 0, "until": 139.3467076833364}, {"on": true, "note": 48, "velocity": 69, "until": 139.4079319333364}, {"on": false, "note": 48, "velocity": 0, "until": 139.4079319333364}, {"on": true, "note": 48, "velocity": 68, "until": 139.46915618333642}, {"on": false, "note": 48, "velocity": 0, "until": 139.46915618333642}, {"on": true, "note": 48, "velocity": 66, "until": 139.52967403333645}, {"on": false, "note": 48, "velocity": 0, "until": 139.52967403333645}, {"on": true, "note": 48, "velocity": 65, "until": 139.58736628333645}, {"on": false, "note": 48, "velocity": 0, "until": 139.58736628333645}, {"on": true, "note": 48, "velocity": 63, "until": 139.64505853333645}, {"on": false, "note": 48, "velocity": 0, "until": 139.64505853333645}, {"on": true, "note": 48, "velocity": 62, "until": 139.70275078333646}, {"on": false, "note": 48, "velocity": 0, "until": 139.70275078333646}, {"on": true, "note": 48, "velocity": 60, "until": 139.7604430333365}, {"on": false, "note": 48, "velocity": 0, "until": 139.7604430333365}, {"on": true, "note": 48, "velocity": 80, "until": 139.99191843333648}, {"on": false, "note": 48, "velocity": 0, "until": 139.99191843333648}, {"on": true, "note": 43, "velocity": 80, "until": 140.2368154333365}, {"on": false, "note": 43, "velocity": 0, "until": 140.2368154333365}, {"on": true, "note": 48, "velocity": 70, "until": 140.2980396833365}, {"on": false, "note": 48, "velocity": 0, "until": 140.2980396833365}, {"on": true, "note": 48, "velocity": 69, "until": 140.3592639333365}, {"on": false, "note": 48, "velocity": 0, "until": 140.3592639333365}, {"on": true, "note": 48, "velocity": 68, "until": 140.42048818333652}, {"on": false, "note": 48, "velocity": 0, "until": 140.42048818333652}, {"on": true, "note": 48, "velocity": 66, "until": 140.48100603333654}, {"on": false, "note": 48, "velocity": 0, "until": 140.48100603333654}, {"on": true, "note": 48, "velocity": 65, "until": 140.53869828333654}, {"on": false, "note": 48, "velocity": 0, "until": 140.53869828333654}, {"on": true, "note": 48, "velocity": 63, "until": 140.59639053333655}, {"on": false, "note": 48, "velocity": 0, "until": 140.59639053333655}, {"on": true, "note": 48, "velocity": 62, "until": 140.65408278333655}, {"on": false, "note": 48, "velocity": 0, "until": 140.65408278333655}, {"on": true, "note": 48, "velocity": 60, "until": 140.71177503333658}, {"on": false, "note": 48, "velocity": 0, "until": 140.71177503333658}, {"on": true, "note": 48, "velocity": 80, "until": 140.94325043333657}, {"on": false, "note": 48, "velocity": 0, "until": 140.94325043333657}, {"on": true, "note": 43, "velocity": 80, "until": 141.18814743333658}, {"on": false, "note": 43, "velocity": 0, "until": 141.18814743333658}, {"on": true, "note": 48, "velocity": 70, "until": 141.2493716833366}, {"on": false, "note": 48, "velocity": 0, "until": 141.2493716833366}, {"on": true, "note": 48, "velocity": 69, "until": 141.3105959333366}, {"on": false, "note": 48, "velocity": 0, "until": 141.3105959333366}, {"on": true, "note": 48, "velocity": 68, "until": 141.3718201833366}, {"on": false, "note": 48, "velocity": 0, "until": 141.3718201833366}, {"on": true, "note": 48, "velocity": 66, "until": 141.43233803333663}, {"on": false, "note": 48, "velocity": 0, "until": 141.43233803333663}, {"on": true, "note": 48, "velocity": 65, "until": 141.49003028333664}, {"on": false, "note": 48, "velocity": 0, "until": 141.49003028333664}, {"on": true, "note": 48, "velocity": 63, "until": 141.54772253333664}, {"on": false, "note": 48, "velocity": 0, "until": 141.54772253333664}, {"on": true, "note": 48, "velocity": 62, "until": 141.60541478333664}, {"on": false, "note": 48, "velocity": 0, "until": 141.60541478333664}, {"on": true, "note": 48, "velocity": 60, "until": 141.66310703333667}, {"on": false, "note": 48, "velocity": 0, "until": 141.66310703333667}, {"on": true, "note": 48, "velocity": 80, "until": 141.89458243333667}, {"on": false, "note": 48, "velocity": 0, "until": 141.89458243333667}, {"on": true, "note": 43, "velocity": 80, "until": 142.1394794333367}, {"on": false, "note": 43, "velocity": 0, "until": 146.48025903333672}, {"on": true, "note": 48, "velocity": 75, "until": 146.65333578333673}, {"on": false, "note": 48, "velocity": 0, "until": 146.71148958333677}, {"on": true, "note": 48, "velocity": 75, "until": 146.8914895833368}, {"on": false, "note": 48, "velocity": 0, "until": 146.95148958333684}, {"on": true, "note": 48, "velocity": 75, "until": 147.13148958333687}, {"on": false, "note": 48, "velocity": 0, "until": 147.1914895833369}, {"on": true, "note": 48, "velocity": 75, "until": 147.37148958333694}, {"on": false, "note": 48, "velocity": 0, "until": 147.43148958333697}, {"on": true, "note": 48, "velocity": 75, "until": 147.611489583337}, {"on": false, "note": 48, "velocity": 0, "until": 147.67148958333703}, {"on": true, "note": 48, "velocity": 75, "until": 148.15102803333733}, {"on": false, "note": 48, "velocity": 0, "until": 150.2662590333375}, {"on": true, "note": 43, "velocity": 75, "until": 150.4973005833375}, {"on": false, "note": 43, "velocity": 0, "until": 150.4973005833375}, {"on": true, "note": 48, "velocity": 75, "until": 150.73352058333757}, {"on": false, "note": 48, "velocity": 0, "until": 150.73352058333757}, {"on": true, "note": 43, "velocity": 75, "until": 150.96974058333763}, {"on": false, "note": 43, "velocity": 0, "until": 150.96974058333763}, {"on": true, "note": 48, "velocity": 75, "until": 151.20596058333768}, {"on": false, "note": 48, "velocity": 0, "until": 151.20596058333768}, {"on": true, "note": 43, "velocity": 75, "until": 151.44218058333774}, {"on": false, "note": 43, "velocity": 0, "until": 151.44218058333774}, {"on": true, "note": 48, "velocity": 75, "until": 151.67840058333778}, {"on": false, "note": 48, "velocity": 0, "until": 151.9143480333378}, {"on": true, "note": 43, "velocity": 90, "until": 152.3765924333378}, {"on": false, "note": 43, "velocity": 0, "until": 152.3765924333378}, {"on": true, "note": 43, "velocity": 90, "until": 152.86568003333787}, {"on": false, "note": 43, "velocity": 0, "until": 152.86568003333787}, {"on": true, "note": 48, "velocity": 90, "until": 153.32792443333787}, {"on": false, "note": 48, "velocity": 0, "until": 153.32792443333787}, {"on": true, "note": 43, "velocity": 90, "until": 153.81701203333793}, {"on": false, "note": 43, "velocity": 0, "until": 153.81701203333793}, {"on": true, "note": 43, "velocity": 90, "until": 154.27925643333793}, {"on": false, "note": 43, "velocity": 0, "until": 154.27925643333793}, {"on": true, "note": 48, "velocity": 90, "until": 154.76834403333802}, {"on": false, "note": 48, "velocity": 0, "until": 155.23058843333797}, {"on": true, "note": 48, "velocity": 90, "until": 155.71967603333806}, {"on": false, "note": 48, "velocity": 0, "until": 156.18192043333815}, {"on": true, "note": 48, "velocity": 90, "until": 156.4268174333382}, {"on": false, "note": 48, "velocity": 0, "until": 156.67100803333824}, {"on": true, "note": 48, "velocity": 90, "until": 156.90177703333828}, {"on": false, "note": 48, "velocity": 0, "until": 157.13325243333827}, {"on": true, "note": 48, "velocity": 90, "until": 157.3781494333383}, {"on": false, "note": 48, "velocity": 0, "until": 157.62234003333836}, {"on": true, "note": 48, "velocity": 90, "until": 157.8531090333384}, {"on": false, "note": 48, "velocity": 0, "until": 158.0845844333384}, {"on": true, "note": 43, "velocity": 90, "until": 158.57367203333848}, {"on": false, "note": 43, "velocity": 0, "until": 159.03591643333857}, {"on": true, "note": 43, "velocity": 90, "until": 159.52500403333866}, {"on": false, "note": 43, "velocity": 0, "until": 159.98724843333875}, {"on": true, "note": 43, "velocity": 90, "until": 160.4763360333388}, {"on": false, "note": 43, "velocity": 0, "until": 160.4763360333388}, {"on": true, "note": 43, "velocity": 90, "until": 160.93858043333893}, {"on": false, "note": 43, "velocity": 0, "until": 160.93858043333893}, {"on": true, "note": 43, "velocity": 90, "until": 161.427668033339}, {"on": false, "note": 43, "velocity": 0, "until": 161.427668033339}, {"on": true, "note": 43, "velocity": 90, "until": 161.88991243333902}, {"on": false, "note": 43, "velocity": 0, "until": 181.7734748833402}, {"on": true, "note": 48, "velocity": 80, "until": 182.27511133334025}, {"on": false, "note": 48, "velocity": 0, "until": 185.71716723334}, {"on": true, "note": 48, "velocity": 80, "until": 186.21249428334028}, {"on": false, "note": 48, "velocity": 0, "until": 191.48529628333952}, {"on": true, "note": 48, "velocity": 72, "until": 191.54602478333945}, {"on": false, "note": 48, "velocity": 0, "until": 191.54602478333945}, {"on": true, "note": 48, "velocity": 72, "until": 191.60675328333937}, {"on": false, "note": 48, "velocity": 0, "until": 191.60675328333937}, {"on": true, "note": 48, "velocity": 72, "until": 191.6674817833393}, {"on": false, "note": 48, "velocity": 0, "until": 191.6674817833393}, {"on": true, "note": 48, "velocity": 72, "until": 191.72821028333925}, {"on": false, "note": 48, "velocity": 0, "until": 191.72821028333925}, {"on": true, "note": 48, "velocity": 72, "until": 191.7889387833392}, {"on": false, "note": 48, "velocity": 0, "until": 191.7889387833392}, {"on": true, "note": 48, "velocity": 72, "until": 191.8496672833391}, {"on": false, "note": 48, "velocity": 0, "until": 191.8496672833391}, {"on": true, "note": 48, "velocity": 72, "until": 191.91039578333906}, {"on": false, "note": 48, "velocity": 0, "until": 191.91039578333906}, {"on": true, "note": 48, "velocity": 72, "until": 191.970428933339}, {"on": false, "note": 48, "velocity": 0, "until": 191.970428933339}, {"on": true, "note": 48, "velocity": 72, "until": 192.19943593333892}, {"on": false, "note": 48, "velocity": 0, "until": 192.19943593333892}, {"on": true, "note": 48, "velocity": 72, "until": 192.42913828333886}, {"on": false, "note": 48, "velocity": 0, "until": 192.42913828333886}, {"on": true, "note": 48, "velocity": 72, "until": 192.67205228333873}, {"on": false, "note": 48, "velocity": 0, "until": 192.67205228333873}, {"on": true, "note": 48, "velocity": 72, "until": 192.91427093333857}, {"on": false, "note": 48, "velocity": 0, "until": 192.91427093333857}, {"on": true, "note": 48, "velocity": 72, "until": 193.1432779333385}, {"on": false, "note": 48, "velocity": 0, "until": 193.37525763333855}, {"on": true, "note": 43, "velocity": 72, "until": 193.66179558333874}, {"on": false, "note": 43, "velocity": 0, "until": 207.07467758333917}, {"on": true, "note": 43, "velocity": 72, "until": 207.31089758333925}, {"on": false, "note": 43, "velocity": 0, "until": 207.31089758333925}, {"on": true, "note": 43, "velocity": 72, "until": 207.5476522333393}, {"on": false, "note": 43, "velocity": 0, "until": 207.5476522333393}, {"on": true, "note": 48, "velocity": 72, "until": 207.79721958333928}, {"on": false, "note": 48, "velocity": 0, "until": 215.00580833333933}, {"on": true, "note": 43, "velocity": 72, "until": 215.24018333333933}, {"on": false, "note": 43, "velocity": 0, "until": 215.24018333333933}, {"on": true, "note": 43, "velocity": 72, "until": 215.4749852833393}, {"on": false, "note": 43, "velocity": 0, "until": 215.4749852833393}, {"on": true, "note": 48, "velocity": 72, "until": 215.72075358333927}, {"on": false, "note": 48, "velocity": 0, "until": 218.85225393333894}, {"on": true, "note": 43, "velocity": 72, "until": 219.08126093333885}, {"on": false, "note": 43, "velocity": 0, "until": 219.08126093333885}, {"on": true, "note": 43, "velocity": 72, "until": 219.31096328333876}, {"on": false, "note": 43, "velocity": 0, "until": 219.31096328333876}, {"on": true, "note": 43, "velocity": 72, "until": 219.79757658333833}, {"on": false, "note": 43, "velocity": 0, "until": 230.80859428333721}, {"on": true, "note": 43, "velocity": 80, "until": 231.05150828333717}, {"on": false, "note": 43, "velocity": 0, "until": 232.69603733333716}, {"on": true, "note": 43, "velocity": 80, "until": 232.93937043333722}, {"on": false, "note": 43, "velocity": 0, "until": 246.7349029333378}, {"on": true, "note": 48, "velocity": 76, "until": 247.22399053333783}, {"on": false, "note": 48, "velocity": 0, "until": 247.22399053333783}, {"on": true, "note": 48, "velocity": 76, "until": 247.68623493333786}, {"on": false, "note": 48, "velocity": 0, "until": 247.68623493333786}, {"on": true, "note": 48, "velocity": 76, "until": 248.17532253333786}, {"on": false, "note": 48, "velocity": 0, "until": 250.53910493333765}, {"on": true, "note": 48, "velocity": 76, "until": 251.02819253333766}, {"on": false, "note": 48, "velocity": 0, "until": 251.02819253333766}, {"on": true, "note": 48, "velocity": 76, "until": 251.49043693333766}, {"on": false, "note": 48, "velocity": 0, "until": 251.49043693333766}, {"on": true, "note": 48, "velocity": 76, "until": 251.97952453333767}, {"on": false, "note": 48, "velocity": 0, "until": 258.17296293333794}, {"on": true, "note": 43, "velocity": 80, "until": 258.417859933338}, {"on": false, "note": 43, "velocity": 0, "until": 258.417859933338}, {"on": true, "note": 48, "velocity": 70, "until": 258.479084183338}, {"on": false, "note": 48, "velocity": 0, "until": 258.479084183338}, {"on": true, "note": 48, "velocity": 69, "until": 258.540308433338}, {"on": false, "note": 48, "velocity": 0, "until": 258.540308433338}, {"on": true, "note": 48, "velocity": 68, "until": 258.601532683338}, {"on": false, "note": 48, "velocity": 0, "until": 258.601532683338}, {"on": true, "note": 48, "velocity": 66, "until": 258.66205053333795}, {"on": false, "note": 48, "velocity": 0, "until": 258.66205053333795}, {"on": true, "note": 48, "velocity": 65, "until": 258.71974278333795}, {"on": false, "note": 48, "velocity": 0, "until": 258.71974278333795}, {"on": true, "note": 48, "velocity": 63, "until": 258.7774350333379}, {"on": false, "note": 48, "velocity": 0, "until": 258.7774350333379}, {"on": true, "note": 48, "velocity": 62, "until": 258.83512728333784}, {"on": false, "note": 48, "velocity": 0, "until": 258.83512728333784}, {"on": true, "note": 48, "velocity": 60, "until": 258.89281953333773}, {"on": false, "note": 48, "velocity": 0, "until": 258.89281953333773}, {"on": true, "note": 48, "velocity": 80, "until": 259.12429493333775}, {"on": false, "note": 48, "velocity": 0, "until": 259.12429493333775}, {"on": true, "note": 43, "velocity": 80, "until": 259.3691919333378}, {"on": false, "note": 43, "velocity": 0, "until": 259.3691919333378}, {"on": true, "note": 48, "velocity": 70, "until": 259.4304161833378}, {"on": false, "note": 48, "velocity": 0, "until": 259.4304161833378}, {"on": true, "note": 48, "velocity": 69, "until": 259.4916404333378}, {"on": false, "note": 48, "velocity": 0, "until": 259.4916404333378}, {"on": true, "note": 48, "velocity": 68, "until": 259.5528646833378}, {"on": false, "note": 48, "velocity": 0, "until": 259.5528646833378}, {"on": true, "note": 48, "velocity": 66, "until": 259.61338253333776}, {"on": false, "note": 48, "velocity": 0, "until": 259.61338253333776}, {"on": true, "note": 48, "velocity": 65, "until": 259.67107478333776}, {"on": false, "note": 48, "velocity": 0, "until": 259.67107478333776}, {"on": true, "note": 48, "velocity": 63, "until": 259.7287670333377}, {"on": false, "note": 48, "velocity": 0, "until": 259.7287670333377}, {"on": true, "note": 48, "velocity": 62, "until": 259.78645928333765}, {"on": false, "note": 48, "velocity": 0, "until": 259.78645928333765}, {"on": true, "note": 48, "velocity": 60, "until": 259.84415153333754}, {"on": false, "note": 48, "velocity": 0, "until": 259.84415153333754}, {"on": true, "note": 48, "velocity": 80, "until": 260.07562693333756}, {"on": false, "note": 48, "velocity": 0, "until": 260.07562693333756}, {"on": true, "note": 43, "velocity": 80, "until": 260.3205239333376}, {"on": false, "note": 43, "velocity": 0, "until": 260.3205239333376}, {"on": true, "note": 48, "velocity": 70, "until": 260.3817481833376}, {"on": false, "note": 48, "velocity": 0, "until": 260.3817481833376}, {"on": true, "note": 48, "velocity": 69, "until": 260.4429724333376}, {"on": false, "note": 48, "velocity": 0, "until": 260.4429724333376}, {"on": true, "note": 48, "velocity": 68, "until": 260.5041966833376}, {"on": false, "note": 48, "velocity": 0, "until": 260.5041966833376}, {"on": true, "note": 48, "velocity": 66, "until": 260.56471453333756}, {"on": false, "note": 48, "velocity": 0, "until": 260.56471453333756}, {"on": true, "note": 48, "velocity": 65, "until": 260.62240678333757}, {"on": false, "note": 48, "velocity": 0, "until": 260.62240678333757}, {"on": true, "note": 48, "velocity": 63, "until": 260.6800990333375}, {"on": false, "note": 48, "velocity": 0, "until": 260.6800990333375}, {"on": true, "note": 48, "velocity": 62, "until": 260.73779128333746}, {"on": false, "note": 48, "velocity": 0, "until": 260.73779128333746}, {"on": true, "note": 48, "velocity": 60, "until": 260.79548353333735}, {"on": false, "note": 48, "velocity": 0, "until": 260.79548353333735}, {"on": true, "note": 48, "velocity": 80, "until": 261.02695893333737}, {"on": false, "note": 48, "velocity": 0, "until": 261.02695893333737}, {"on": true, "note": 43, "velocity": 80, "until": 261.27248658333747}, {"on": false, "note": 43, "velocity": 0, "until": 265.62524853333707}, {"on": true, "note": 48, "velocity": 75, "until": 265.79832528333696}, {"on": false, "note": 48, "velocity": 0, "until": 265.85647908333704}, {"on": true, "note": 48, "velocity": 75, "until": 266.0364790833371}, {"on": false, "note": 48, "velocity": 0, "until": 266.09647908333716}, {"on": true, "note": 48, "velocity": 75, "until": 266.2764790833372}, {"on": false, "note": 48, "velocity": 0, "until": 266.3364790833373}, {"on": true, "note": 48, "velocity": 75, "until": 266.51647908333734}, {"on": false, "note": 48, "velocity": 0, "until": 266.5764790833374}, {"on": true, "note": 48, "velocity": 75, "until": 266.75647908333747}, {"on": false, "note": 48, "velocity": 0, "until": 266.8164790833375}, {"on": true, "note": 48, "velocity": 75, "until": 267.29601753333833}, {"on": false, "note": 48, "velocity": 0, "until": 269.41124853333775}, {"on": true, "note": 43, "velocity": 75, "until": 269.64229008333757}, {"on": false, "note": 43, "velocity": 0, "until": 269.64229008333757}, {"on": true, "note": 48, "velocity": 75, "until": 269.87851008333735}, {"on": false, "note": 48, "velocity": 0, "until": 269.87851008333735}, {"on": true, "note": 43, "velocity": 75, "until": 270.1147300833371}, {"on": false, "note": 43, "velocity": 0, "until": 270.1147300833371}, {"on": true, "note": 48, "velocity": 75, "until": 270.3509500833369}, {"on": false, "note": 48, "velocity": 0, "until": 270.3509500833369}, {"on": true, "note": 43, "velocity": 75, "until": 270.5871700833367}, {"on": false, "note": 43, "velocity": 0, "until": 270.5871700833367}, {"on": true, "note": 48, "velocity": 75, "until": 270.82339008333656}, {"on": false, "note": 48, "velocity": 0, "until": 271.0593375333365}, {"on": true, "note": 43, "velocity": 90, "until": 271.5215819333362}, {"on": false, "note": 43, "velocity": 0, "until": 271.5215819333362}, {"on": true, "note": 43, "velocity": 90, "until": 272.01066953333617}, {"on": false, "note": 43, "velocity": 0, "until": 272.01066953333617}, {"on": true, "note": 48, "velocity": 90, "until": 272.4729139333359}, {"on": false, "note": 48, "velocity": 0, "until": 272.4729139333359}, {"on": true, "note": 43, "velocity": 90, "until": 272.96200153333587}, {"on": false, "note": 43, "velocity": 0, "until": 272.96200153333587}, {"on": true, "note": 43, "velocity": 90, "until": 273.4242459333356}, {"on": false, "note": 43, "velocity": 0, "until": 273.4242459333356}, {"on": true, "note": 48, "velocity": 90, "until": 273.9133335333356}, {"on": false, "note": 48, "velocity": 0, "until": 274.3755779333356}, {"on": true, "note": 48, "velocity": 90, "until": 274.8646655333356}, {"on": false, "note": 48, "velocity": 0, "until": 275.3269099333351}, {"on": true, "note": 48, "velocity": 90, "until": 275.57180693333515}, {"on": false, "note": 48, "velocity": 0, "until": 275.8159975333351}, {"on": true, "note": 48, "velocity": 90, "until": 276.0467665333348}, {"on": false, "note": 48, "velocity": 0, "until": 276.27824193333475}, {"on": true, "note": 48, "velocity": 90, "until": 276.5231389333348}, {"on": false, "note": 48, "velocity": 0, "until": 276.76732953333476}, {"on": true, "note": 48, "velocity": 90, "until": 276.9980985333344}, {"on": false, "note": 48, "velocity": 0, "until": 277.2295739333344}, {"on": true, "note": 43, "velocity": 90, "until": 277.7186615333344}, {"on": false, "note": 43, "velocity": 0, "until": 278.18090593333386}, {"on": true, "note": 43, "velocity": 90, "until": 278.66999353333387}, {"on": false, "note": 43, "velocity": 0, "until": 279.13223793333333}, {"on": true, "note": 43, "velocity": 90, "until": 279.62132553333333}, {"on": false, "note": 43, "velocity": 0, "until": 279.62132553333333}, {"on": true, "note": 43, "velocity": 90, "until": 280.0835699333328}, {"on": false, "note": 43, "velocity": 0, "until": 280.0835699333328}, {"on": true, "note": 43, "velocity": 90, "until": 280.5726575333328}, {"on": false, "note": 43, "velocity": 0, "until": 280.5726575333328}, {"on": true, "note": 43, "velocity": 90, "until": 281.0349019333324}, {"on": false, "note": 43, "velocity": 0, "until": 300.91846438333056}, {"on": true, "note": 48, "velocity": 80, "until": 301.4201008333301}, {"on": false, "note": 48, "velocity": 0, "until": 304.86215673333004}, {"on": true, "note": 48, "velocity": 80, "until": 305.3574837833302}, {"on": false, "note": 48, "velocity": 0, "until": 310.63028578333166}, {"on": true, "note": 48, "velocity": 72, "until": 310.6910142833317}, {"on": false, "note": 48, "velocity": 0, "until": 310.6910142833317}, {"on": true, "note": 48, "velocity": 72, "until": 310.75174278333174}, {"on": false, "note": 48, "velocity": 0, "until": 310.75174278333174}, {"on": true, "note": 48, "velocity": 72, "until": 310.81247128333183}, {"on": false, "note": 48, "velocity": 0, "until": 310.81247128333183}, {"on": true, "note": 48, "velocity": 72, "until": 310.8731997833319}, {"on": false, "note": 48, "velocity": 0, "until": 310.8731997833319}, {"on": true, "note": 48, "velocity": 72, "until": 310.9339282833321}, {"on": false, "note": 48, "velocity": 0, "until": 310.9339282833321}, {"on": true, "note": 48, "velocity": 72, "until": 310.9946567833321}, {"on": false, "note": 48, "velocity": 0, "until": 310.9946567833321}, {"on": true, "note": 48, "velocity": 72, "until": 311.05538528333227}, {"on": false, "note": 48, "velocity": 0, "until": 311.05538528333227}, {"on": true, "note": 48, "velocity": 72, "until": 311.1154184333324}, {"on": false, "note": 48, "velocity": 0, "until": 311.1154184333324}, {"on": true, "note": 48, "velocity": 72, "until": 311.34442543333256}, {"on": false, "note": 48, "velocity": 0, "until": 311.34442543333256}, {"on": true, "note": 48, "velocity": 72, "until": 311.5741277833327}, {"on": false, "note": 48, "velocity": 0, "until": 311.5741277833327}, {"on": true, "note": 48, "velocity": 72, "until": 311.81704178333285}, {"on": false, "note": 48, "velocity": 0, "until": 311.81704178333285}, {"on": true, "note": 48, "velocity": 72, "until": 312.059260433333}, {"on": false, "note": 48, "velocity": 0, "until": 312.059260433333}, {"on": true, "note": 48, "velocity": 72, "until": 312.28826743333315}, {"on": false, "note": 48, "velocity": 0, "until": 312.5202471333331}, {"on": true, "note": 43, "velocity": 72, "until": 312.806785083333}, {"on": false, "note": 43, "velocity": 0, "until": 326.2196670833364}, {"on": true, "note": 43, "velocity": 72, "until": 326.45588708333617}, {"on": false, "note": 43, "velocity": 0, "until": 326.45588708333617}, {"on": true, "note": 43, "velocity": 72, "until": 326.69264173333613}, {"on": false, "note": 43, "velocity": 0, "until": 326.69264173333613}, {"on": true, "note": 48, "velocity": 72, "until": 326.94220908333614}, {"on": false, "note": 48, "velocity": 0, "until": 334.15079783333573}, {"on": true, "note": 43, "velocity": 72, "until": 334.38517283333573}, {"on": false, "note": 43, "velocity": 0, "until": 334.38517283333573}, {"on": true, "note": 43, "velocity": 72, "until": 334.6199747833358}, {"on": false, "note": 43, "velocity": 0, "until": 334.6199747833358}, {"on": true, "note": 48, "velocity": 72, "until": 334.8657430833358}, {"on": false, "note": 48, "velocity": 0, "until": 337.99724343333594}, {"on": true, "note": 43, "velocity": 72, "until": 338.22625043333613}, {"on": false, "note": 43, "velocity": 0, "until": 338.22625043333613}, {"on": true, "note": 43, "velocity": 72, "until": 338.45595278333633}, {"on": false, "note": 43, "velocity": 0, "until": 338.45595278333633}, {"on": true, "note": 43, "velocity": 72, "until": 338.942566083337}, {"on": false, "note": 43, "velocity": 0, "until": 349.95358378333816}, {"on": true, "note": 43, "velocity": 80, "until": 350.19649778333826}, {"on": false, "note": 43, "velocity": 0, "until": 351.8410268333386}, {"on": true, "note": 43, "velocity": 80, "until": 352.0843599333386}, {"on": false, "note": 43, "velocity": 0, "until": 362.3883319333401}, {"on": true, "note": 43, "velocity": 85, "until": 362.87741953334006}, {"on": false, "note": 43, "velocity": 0, "until": 364.2909959333402}, {"on": true, "note": 43, "velocity": 85, "until": 364.78008353334013}, {"on": false, "note": 43, "velocity": 0, "until": 366.19365993334026}, {"on": true, "note": 43, "velocity": 80, "until": 366.43855693334024}, {"on": false, "note": 43, "velocity": 0, "until": 366.68274753334015}, {"on": true, "note": 43, "velocity": 80, "until": 366.9135165333401}, {"on": false, "note": 43, "velocity": 0, "until": 367.1449919333401}, {"on": true, "note": 43, "velocity": 80, "until": 367.3898889333401}, {"on": false, "note": 43, "velocity": 0, "until": 367.63407953334}, {"on": true, "note": 43, "velocity": 80, "until": 367.86484853333997}, {"on": false, "note": 43, "velocity": 0, "until": 368.0973533833401}, {"on": true, "note": 43, "velocity": 80, "until": 368.36180993334006}, {"on": false, "note": 43, "velocity": 0, "until": 423.86585293334144}, {"on": true, "note": 48, "velocity": 76, "until": 424.3549405333414}, {"on": false, "note": 48, "velocity": 0, "until": 424.3549405333414}, {"on": true, "note": 48, "velocity": 76, "until": 424.8171849333413}, {"on": false, "note": 48, "velocity": 0, "until": 424.8171849333413}, {"on": true, "note": 48, "velocity": 76, "until": 425.30627253334126}, {"on": false, "note": 48, "velocity": 0, "until": 427.67005493334193}, {"on": true, "note": 48, "velocity": 76, "until": 428.1591425333419}, {"on": false, "note": 48, "velocity": 0, "until": 428.1591425333419}, {"on": true, "note": 48, "velocity": 76, "until": 428.6213869333418}, {"on": false, "note": 48, "velocity": 0, "until": 428.6213869333418}, {"on": true, "note": 48, "velocity": 76, "until": 429.11047453334174}, {"on": false, "note": 48, "velocity": 0, "until": 435.30391293333935}, {"on": true, "note": 43, "velocity": 80, "until": 435.5488099333394}, {"on": false, "note": 43, "velocity": 0, "until": 435.5488099333394}, {"on": true, "note": 48, "velocity": 70, "until": 435.6100341833394}, {"on": false, "note": 48, "velocity": 0, "until": 435.6100341833394}, {"on": true, "note": 48, "velocity": 69, "until": 435.6712584333394}, {"on": false, "note": 48, "velocity": 0, "until": 435.6712584333394}, {"on": true, "note": 48, "velocity": 68, "until": 435.7324826833394}, {"on": false, "note": 48, "velocity": 0, "until": 435.7324826833394}, {"on": true, "note": 48, "velocity": 66, "until": 435.79300053333935}, {"on": false, "note": 48, "velocity": 0, "until": 435.79300053333935}, {"on": true, "note": 48, "velocity": 65, "until": 435.85069278333935}, {"on": false, "note": 48, "velocity": 0, "until": 435.85069278333935}, {"on": true, "note": 48, "velocity": 63, "until": 435.9083850333393}, {"on": false, "note": 48, "velocity": 0, "until": 435.9083850333393}, {"on": true, "note": 48, "velocity": 62, "until": 435.96607728333925}, {"on": false, "note": 48, "velocity": 0, "until": 435.96607728333925}, {"on": true, "note": 48, "velocity": 60, "until": 436.02376953333913}, {"on": false, "note": 48, "velocity": 0, "until": 436.02376953333913}, {"on": true, "note": 48, "velocity": 80, "until": 436.25524493333916}, {"on": false, "note": 48, "velocity": 0, "until": 436.25524493333916}, {"on": true, "note": 43, "velocity": 80, "until": 436.5001419333392}, {"on": false, "note": 43, "velocity": 0, "until": 436.5001419333392}, {"on": true, "note": 48, "velocity": 70, "until": 436.5613661833392}, {"on": false, "note": 48, "velocity": 0, "until": 436.5613661833392}, {"on": true, "note": 48, "velocity": 69, "until": 436.6225904333392}, {"on": false, "note": 48, "velocity": 0, "until": 436.6225904333392}, {"on": true, "note": 48, "velocity": 68, "until": 436.6838146833392}, {"on": false, "note": 48, "velocity": 0, "until": 436.6838146833392}, {"on": true, "note": 48, "velocity": 66, "until": 436.74433253333916}, {"on": false, "note": 48, "velocity": 0, "until": 436.74433253333916}, {"on": true, "note": 48, "velocity": 65, "until": 436.80202478333916}, {"on": false, "note": 48, "velocity": 0, "until": 436.80202478333916}, {"on": true, "note": 48, "velocity": 63, "until": 436.8597170333391}, {"on": false, "note": 48, "velocity": 0, "until": 436.8597170333391}, {"on": true, "note": 48, "velocity": 62, "until": 436.91740928333905}, {"on": false, "note": 48, "velocity": 0, "until": 436.91740928333905}, {"on": true, "note": 48, "velocity": 60, "until": 436.97510153333894}, {"on": false, "note": 48, "velocity": 0, "until": 436.97510153333894}, {"on": true, "note": 48, "velocity": 80, "until": 437.20657693333897}, {"on": false, "note": 48, "velocity": 0, "until": 437.20657693333897}, {"on": true, "note": 43, "velocity": 80, "until": 437.451473933339}, {"on": false, "note": 43, "velocity": 0, "until": 437.451473933339}, {"on": true, "note": 48, "velocity": 70, "until": 437.512698183339}, {"on": false, "note": 48, "velocity": 0, "until": 437.512698183339}, {"on": true, "note": 48, "velocity": 69, "until": 437.573922433339}, {"on": false, "note": 48, "velocity": 0, "until": 437.573922433339}, {"on": true, "note": 48, "velocity": 68, "until": 437.63514668333903}, {"on": false, "note": 48, "velocity": 0, "until": 437.63514668333903}, {"on": true, "note": 48, "velocity": 66, "until": 437.69566453333897}, {"on": false, "note": 48, "velocity": 0, "until": 437.69566453333897}, {"on": true, "note": 48, "velocity": 65, "until": 437.753356783339}, {"on": false, "note": 48, "velocity": 0, "until": 437.753356783339}, {"on": true, "note": 48, "velocity": 63, "until": 437.8110490333389}, {"on": false, "note": 48, "velocity": 0, "until": 437.8110490333389}, {"on": true, "note": 48, "velocity": 62, "until": 437.86874128333886}, {"on": false, "note": 48, "velocity": 0, "until": 437.86874128333886}, {"on": true, "note": 48, "velocity": 60, "until": 437.92643353333875}, {"on": false, "note": 48, "velocity": 0, "until": 437.92643353333875}, {"on": true, "note": 48, "velocity": 80, "until": 438.1579089333388}, {"on": false, "note": 48, "velocity": 0, "until": 438.1579089333388}, {"on": true, "note": 43, "velocity": 80, "until": 438.4028059333388}, {"on": false, "note": 43, "velocity": 0, "until": 442.7435855333384}, {"on": true, "note": 48, "velocity": 75, "until": 442.91666228333827}, {"on": false, "note": 48, "velocity": 0, "until": 442.97481608333834}, {"on": true, "note": 48, "velocity": 75, "until": 443.1548160833384}, {"on": false, "note": 48, "velocity": 0, "until": 443.21481608333846}, {"on": true, "note": 48, "velocity": 75, "until": 443.3948160833385}, {"on": false, "note": 48, "velocity": 0, "until": 443.4548160833386}, {"on": true, "note": 48, "velocity": 75, "until": 443.63481608333865}, {"on": false, "note": 48, "velocity": 0, "until": 443.6948160833387}, {"on": true, "note": 48, "velocity": 75, "until": 443.87481608333877}, {"on": false, "note": 48, "velocity": 0, "until": 443.93481608333883}, {"on": true, "note": 48, "velocity": 75, "until": 444.41435453333963}, {"on": false, "note": 48, "velocity": 0, "until": 446.52958553333906}, {"on": true, "note": 43, "velocity": 75, "until": 446.7606270833389}, {"on": false, "note": 43, "velocity": 0, "until": 446.7606270833389}, {"on": true, "note": 48, "velocity": 75, "until": 446.99684708333865}, {"on": false, "note": 48, "velocity": 0, "until": 446.99684708333865}, {"on": true, "note": 43, "velocity": 75, "until": 447.2330670833384}, {"on": false, "note": 43, "velocity": 0, "until": 447.2330670833384}, {"on": true, "note": 48, "velocity": 75, "until": 447.4692870833382}, {"on": false, "note": 48, "velocity": 0, "until": 447.4692870833382}, {"on": true, "note": 43, "velocity": 75, "until": 447.705507083338}, {"on": false, "note": 43, "velocity": 0, "until": 447.705507083338}, {"on": true, "note": 48, "velocity": 75, "until": 447.94172708333787}, {"on": false, "note": 48, "velocity": 0, "until": 448.1776745333378}, {"on": true, "note": 43, "velocity": 90, "until": 448.6399189333375}, {"on": false, "note": 43, "velocity": 0, "until": 448.6399189333375}, {"on": true, "note": 43, "velocity": 90, "until": 449.1290065333375}, {"on": false, "note": 43, "velocity": 0, "until": 449.1290065333375}, {"on": true, "note": 48, "velocity": 90, "until": 449.5912509333372}, {"on": false, "note": 48, "velocity": 0, "until": 449.5912509333372}, {"on": true, "note": 43, "velocity": 90, "until": 450.08033853333717}, {"on": false, "note": 43, "velocity": 0, "until": 450.08033853333717}, {"on": true, "note": 43, "velocity": 90, "until": 450.5425829333369}, {"on": false, "note": 43, "velocity": 0, "until": 450.5425829333369}, {"on": true, "note": 48, "velocity": 90, "until": 451.0316705333369}, {"on": false, "note": 48, "velocity": 0, "until": 451.4939149333369}, {"on": true, "note": 48, "velocity": 90, "until": 451.9830025333369}, {"on": false, "note": 48, "velocity": 0, "until": 452.4452469333364}, {"on": true, "note": 48, "velocity": 90, "until": 452.69014393333646}, {"on": false, "note": 48, "velocity": 0, "until": 452.9343345333364}, {"on": true, "note": 48, "velocity": 90, "until": 453.1651035333361}, {"on": false, "note": 48, "velocity": 0, "until": 453.39657893333606}, {"on": true, "note": 48, "velocity": 90, "until": 453.6414759333361}, {"on": false, "note": 48, "velocity": 0, "until": 453.88566653333606}, {"on": true, "note": 48, "velocity": 90, "until": 454.11643553333573}, {"on": false, "note": 48, "velocity": 0, "until": 454.3479109333357}, {"on": true, "note": 48, "velocity": 72, "until": 454.4091351833357}, {"on": false, "note": 48, "velocity": 0, "until": 454.4091351833357}, {"on": true, "note": 48, "velocity": 72, "until": 454.4703594333357}, {"on": false, "note": 48, "velocity": 0, "until": 454.4703594333357}, {"on": true, "note": 48, "velocity": 72, "until": 454.5315836833357}, {"on": false, "note": 48, "velocity": 0, "until": 454.5315836833357}, {"on": true, "note": 48, "velocity": 72, "until": 454.59280793333573}, {"on": false, "note": 48, "velocity": 0, "until": 454.59280793333573}, {"on": true, "note": 48, "velocity": 72, "until": 454.65403218333574}, {"on": false, "note": 48, "velocity": 0, "until": 454.65403218333574}, {"on": true, "note": 48, "velocity": 72, "until": 454.71525643333575}, {"on": false, "note": 48, "velocity": 0, "until": 454.71525643333575}, {"on": true, "note": 48, "velocity": 72, "until": 454.77648068333576}, {"on": false, "note": 48, "velocity": 0, "until": 454.77648068333576}, {"on": true, "note": 48, "velocity": 72, "until": 454.8369985333357}, {"on": false, "note": 48, "velocity": 0, "until": 454.8369985333357}, {"on": true, "note": 48, "velocity": 90, "until": 455.06776753333565}, {"on": false, "note": 48, "velocity": 0, "until": 455.2992429333356}, {"on": true, "note": 48, "velocity": 72, "until": 455.36046718333563}, {"on": false, "note": 48, "velocity": 0, "until": 455.36046718333563}, {"on": true, "note": 48, "velocity": 72, "until": 455.42169143333564}, {"on": false, "note": 48, "velocity": 0, "until": 455.42169143333564}, {"on": true, "note": 48, "velocity": 72, "until": 455.48291568333565}, {"on": false, "note": 48, "velocity": 0, "until": 455.48291568333565}, {"on": true, "note": 48, "velocity": 72, "until": 455.54413993333566}, {"on": false, "note": 48, "velocity": 0, "until": 455.54413993333566}, {"on": true, "note": 48, "velocity": 72, "until": 455.60536418333567}, {"on": false, "note": 48, "velocity": 0, "until": 455.60536418333567}, {"on": true, "note": 48, "velocity": 72, "until": 455.6665884333357}, {"on": false, "note": 48, "velocity": 0, "until": 455.6665884333357}, {"on": true, "note": 48, "velocity": 72, "until": 455.7278126833357}, {"on": false, "note": 48, "velocity": 0, "until": 455.7278126833357}, {"on": true, "note": 48, "velocity": 72, "until": 455.7883305333356}, {"on": false, "note": 48, "velocity": 0, "until": 455.7883305333356}, {"on": true, "note": 48, "velocity": 90, "until": 456.0190995333356}, {"on": false, "note": 48, "velocity": 0, "until": 456.25057493333554}, {"on": true, "note": 48, "velocity": 90, "until": 456.73966253333555}, {"on": false, "note": 48, "velocity": 0, "until": 456.73966253333555}, {"on": true, "note": 48, "velocity": 90, "until": 457.2019069333352}, {"on": false, "note": 48, "velocity": 0, "until": 457.2019069333352}, {"on": true, "note": 48, "velocity": 90, "until": 457.6909945333352}, {"on": false, "note": 48, "velocity": 0, "until": 457.6909945333352}, {"on": true, "note": 48, "velocity": 90, "until": 458.1532389333348}, {"on": false, "note": 48, "velocity": 0, "until": 458.1532389333348}, {"on": true, "note": 43, "velocity": 90, "until": 458.39813593333486}, {"on": false, "note": 43, "velocity": 0, "until": 478.0368013833306}, {"on": true, "note": 43, "velocity": 87, "until": 478.53843783333}, {"on": false, "note": 43, "velocity": 0, "until": 481.9804937333294}, {"on": true, "note": 43, "velocity": 87, "until": 482.4758207833293}, {"on": false, "note": 43, "velocity": 0, "until": 489.6385841333313}, {"on": true, "note": 48, "velocity": 92, "until": 489.9251220833311}, {"on": false, "note": 48, "velocity": 0, "until": 503.3380040833328}, {"on": true, "note": 48, "velocity": 80, "until": 503.5742240833326}, {"on": false, "note": 48, "velocity": 0, "until": 503.5742240833326}, {"on": true, "note": 48, "velocity": 80, "until": 503.81097873333255}, {"on": false, "note": 48, "velocity": 0, "until": 503.81097873333255}, {"on": true, "note": 48, "velocity": 80, "until": 504.06054608333255}, {"on": false, "note": 48, "velocity": 0, "until": 511.26913483333186}, {"on": true, "note": 48, "velocity": 80, "until": 511.50350983333186}, {"on": false, "note": 48, "velocity": 0, "until": 511.50350983333186}, {"on": true, "note": 48, "velocity": 80, "until": 511.73831178333194}, {"on": false, "note": 48, "velocity": 0, "until": 511.73831178333194}, {"on": true, "note": 48, "velocity": 80, "until": 511.98408008333195}, {"on": false, "note": 48, "velocity": 0, "until": 515.1155804333338}, {"on": true, "note": 48, "velocity": 80, "until": 515.3445874333341}, {"on": false, "note": 48, "velocity": 0, "until": 515.3445874333341}, {"on": true, "note": 48, "velocity": 80, "until": 515.5742897833343}, {"on": false, "note": 48, "velocity": 0, "until": 515.5742897833343}, {"on": true, "note": 43, "velocity": 80, "until": 516.0609030833341}, {"on": false, "note": 43, "velocity": 0, "until": 525.1446767833348}, {"on": true, "note": 43, "velocity": 80, "until": 525.3875907833346}, {"on": false, "note": 43, "velocity": 0, "until": 541.1888340833335}, {"on": true, "note": 48, "velocity": 95, "until": 541.5917640833334}, {"on": false, "note": 48, "velocity": 0, "until": 541.6277498833334}, {"on": true, "note": 48, "velocity": 95, "until": 542.007059216667}, {"on": false, "note": 48, "velocity": 0, "until": 542.0419497333338}, {"on": true, "note": 48, "velocity": 95, "until": 542.4362135666672}, {"on": false, "note": 48, "velocity": 0, "until": 542.4716123333341}, {"on": true, "note": 48, "velocity": 95, "until": 542.8496181666678}, {"on": false, "note": 48, "velocity": 0, "until": 542.8843873333346}, {"on": true, "note": 48, "velocity": 95, "until": 543.2772431666682}, {"on": false, "note": 48, "velocity": 0, "until": 543.3124819833349}, {"on": true, "note": 48, "velocity": 95, "until": 543.6879083166684}, {"on": false, "note": 48, "velocity": 0, "until": 543.7225133333353}, {"on": true, "note": 48, "velocity": 95, "until": 544.1506079833355}, {"on": false, "note": 48, "velocity": 0, "until": 544.5606393333359}, {"on": true, "note": 43, "velocity": 95, "until": 544.9887339833363}, {"on": false, "note": 43, "velocity": 0, "until": 546.2368913333373}, {"on": true, "note": 43, "velocity": 95, "until": 546.6649859833377}, {"on": false, "note": 43, "velocity": 0, "until": 547.9131433333388}, {"on": true, "note": 43, "velocity": 82, "until": 547.9667145833389}, {"on": false, "note": 43, "velocity": 0, "until": 547.9667145833389}, {"on": true, "note": 43, "velocity": 82, "until": 548.0202858333392}, {"on": false, "note": 43, "velocity": 0, "until": 548.0202858333392}, {"on": true, "note": 43, "velocity": 82, "until": 548.0738570833392}, {"on": false, "note": 43, "velocity": 0, "until": 548.0738570833392}, {"on": true, "note": 43, "velocity": 82, "until": 548.1274283333394}, {"on": false, "note": 43, "velocity": 0, "until": 548.1274283333394}, {"on": true, "note": 43, "velocity": 82, "until": 548.1809995833394}, {"on": false, "note": 43, "velocity": 0, "until": 548.1809995833394}, {"on": true, "note": 43, "velocity": 82, "until": 548.2345708333395}, {"on": false, "note": 43, "velocity": 0, "until": 548.2345708333395}, {"on": true, "note": 43, "velocity": 82, "until": 548.2881420833395}, {"on": false, "note": 43, "velocity": 0, "until": 548.2881420833395}, {"on": true, "note": 43, "velocity": 82, "until": 548.3412379833396}, {"on": false, "note": 43, "velocity": 0, "until": 548.3412379833396}, {"on": true, "note": 43, "velocity": 82, "until": 548.3924324833396}, {"on": false, "note": 43, "velocity": 0, "until": 548.3924324833396}, {"on": true, "note": 43, "velocity": 82, "until": 548.4436269833398}, {"on": false, "note": 43, "velocity": 0, "until": 548.4436269833398}, {"on": true, "note": 43, "velocity": 82, "until": 548.4948214833397}, {"on": false, "note": 43, "velocity": 0, "until": 548.4948214833397}, {"on": true, "note": 43, "velocity": 82, "until": 548.5460159833399}, {"on": false, "note": 43, "velocity": 0, "until": 548.5460159833399}, {"on": true, "note": 43, "velocity": 82, "until": 548.5972104833398}, {"on": false, "note": 43, "velocity": 0, "until": 548.5972104833398}, {"on": true, "note": 43, "velocity": 82, "until": 548.64840498334}, {"on": false, "note": 43, "velocity": 0, "until": 548.64840498334}, {"on": true, "note": 43, "velocity": 82, "until": 548.69959948334}, {"on": false, "note": 43, "velocity": 0, "until": 548.69959948334}, {"on": true, "note": 43, "velocity": 82, "until": 548.7512693333401}, {"on": false, "note": 43, "velocity": 0, "until": 548.7512693333401}, {"on": true, "note": 43, "velocity": 95, "until": 548.9655543333404}, {"on": false, "note": 43, "velocity": 0, "until": 549.5893953333415}, {"on": true, "note": 43, "velocity": 110, "until": 550.017489983343}, {"on": false, "note": 43, "velocity": 0, "until": 550.4275213333439}, {"on": true, "note": 43, "velocity": 110, "until": 550.8556159833454}, {"on": false, "note": 43, "velocity": 0, "until": 551.2656473333462}, {"on": true, "note": 43, "velocity": 82, "until": 551.3192185833465}, {"on": false, "note": 43, "velocity": 0, "until": 551.3192185833465}, {"on": true, "note": 43, "velocity": 82, "until": 551.372789833347}, {"on": false, "note": 43, "velocity": 0, "until": 551.372789833347}, {"on": true, "note": 43, "velocity": 82, "until": 551.4263610833474}, {"on": false, "note": 43, "velocity": 0, "until": 551.4263610833474}, {"on": true, "note": 43, "velocity": 82, "until": 551.4799323333476}, {"on": false, "note": 43, "velocity": 0, "until": 551.4799323333476}, {"on": true, "note": 43, "velocity": 82, "until": 551.5335035833476}, {"on": false, "note": 43, "velocity": 0, "until": 551.5335035833476}, {"on": true, "note": 43, "velocity": 82, "until": 551.5870748333477}, {"on": false, "note": 43, "velocity": 0, "until": 551.5870748333477}, {"on": true, "note": 43, "velocity": 82, "until": 551.6406460833477}, {"on": false, "note": 43, "velocity": 0, "until": 551.6406460833477}, {"on": true, "note": 43, "velocity": 82, "until": 551.6937419833479}, {"on": false, "note": 43, "velocity": 0, "until": 551.6937419833479}, {"on": true, "note": 43, "velocity": 82, "until": 551.7449364833478}, {"on": false, "note": 43, "velocity": 0, "until": 551.7449364833478}, {"on": true, "note": 43, "velocity": 82, "until": 551.796130983348}, {"on": false, "note": 43, "velocity": 0, "until": 551.796130983348}, {"on": true, "note": 43, "velocity": 82, "until": 551.847325483348}, {"on": false, "note": 43, "velocity": 0, "until": 551.847325483348}, {"on": true, "note": 43, "velocity": 82, "until": 551.8985199833481}, {"on": false, "note": 43, "velocity": 0, "until": 551.8985199833481}, {"on": true, "note": 43, "velocity": 82, "until": 551.9497144833481}, {"on": false, "note": 43, "velocity": 0, "until": 551.9497144833481}, {"on": true, "note": 43, "velocity": 82, "until": 552.0009089833483}, {"on": false, "note": 43, "velocity": 0, "until": 552.0009089833483}, {"on": true, "note": 43, "velocity": 82, "until": 552.0521034833482}, {"on": false, "note": 43, "velocity": 0, "until": 552.0521034833482}, {"on": true, "note": 43, "velocity": 82, "until": 552.1037733333484}, {"on": false, "note": 43, "velocity": 0, "until": 552.1037733333484}, {"on": true, "note": 43, "velocity": 95, "until": 552.3180583333486}, {"on": false, "note": 43, "velocity": 0, "until": 552.9418993333497}, {"on": true, "note": 43, "velocity": 110, "until": 553.3699939833513}, {"on": false, "note": 43, "velocity": 0, "until": 553.7800253333521}, {"on": true, "note": 43, "velocity": 110, "until": 554.2081199833536}, {"on": false, "note": 43, "velocity": 0, "until": 554.6181513333545}, {"on": true, "note": 43, "velocity": 99, "until": 554.7252938333553}, {"on": false, "note": 43, "velocity": 0, "until": 554.7252938333553}, {"on": true, "note": 43, "velocity": 96, "until": 554.8324363333559}, {"on": false, "note": 43, "velocity": 0, "until": 554.8324363333559}, {"on": true, "note": 43, "velocity": 92, "until": 554.939578833356}, {"on": false, "note": 43, "velocity": 0, "until": 554.939578833356}, {"on": true, "note": 43, "velocity": 89, "until": 555.0462459833561}, {"on": false, "note": 43, "velocity": 0, "until": 555.0462459833561}, {"on": true, "note": 43, "velocity": 85, "until": 555.1486349833563}, {"on": false, "note": 43, "velocity": 0, "until": 555.1486349833563}, {"on": true, "note": 43, "velocity": 85, "until": 555.2510239833564}, {"on": false, "note": 43, "velocity": 0, "until": 555.2510239833564}, {"on": true, "note": 43, "velocity": 85, "until": 555.3534129833565}, {"on": false, "note": 43, "velocity": 0, "until": 555.3534129833565}, {"on": true, "note": 43, "velocity": 85, "until": 555.4562773333566}, {"on": false, "note": 43, "velocity": 0, "until": 555.4562773333566}, {"on": true, "note": 43, "velocity": 85, "until": 555.5634198333568}, {"on": false, "note": 43, "velocity": 0, "until": 555.5634198333568}, {"on": true, "note": 43, "velocity": 85, "until": 555.6705623333569}, {"on": false, "note": 43, "velocity": 0, "until": 555.6705623333569}, {"on": true, "note": 43, "velocity": 85, "until": 555.777704833357}, {"on": false, "note": 43, "velocity": 0, "until": 555.777704833357}, {"on": true, "note": 43, "velocity": 85, "until": 555.8843719833571}, {"on": false, "note": 43, "velocity": 0, "until": 555.8843719833571}, {"on": true, "note": 43, "velocity": 85, "until": 555.9867609833573}, {"on": false, "note": 43, "velocity": 0, "until": 555.9867609833573}, {"on": true, "note": 43, "velocity": 85, "until": 556.0891499833574}, {"on": false, "note": 43, "velocity": 0, "until": 556.0891499833574}, {"on": true, "note": 43, "velocity": 85, "until": 556.1915389833575}, {"on": false, "note": 43, "velocity": 0, "until": 556.1915389833575}, {"on": true, "note": 43, "velocity": 85, "until": 556.2944033333578}, {"on": false, "note": 43, "velocity": 0, "until": 556.2944033333578}, {"on": true, "note": 43, "velocity": 85, "until": 556.4015458333579}, {"on": false, "note": 43, "velocity": 0, "until": 556.4015458333579}, {"on": true, "note": 43, "velocity": 85, "until": 556.508688333358}, {"on": false, "note": 43, "velocity": 0, "until": 556.508688333358}, {"on": true, "note": 43, "velocity": 85, "until": 556.6158308333581}, {"on": false, "note": 43, "velocity": 0, "until": 556.6158308333581}, {"on": true, "note": 43, "velocity": 85, "until": 556.7224979833583}, {"on": false, "note": 43, "velocity": 0, "until": 556.7224979833583}, {"on": true, "note": 43, "velocity": 85, "until": 556.8248869833584}, {"on": false, "note": 43, "velocity": 0, "until": 556.8248869833584}, {"on": true, "note": 43, "velocity": 85, "until": 556.9272759833585}, {"on": false, "note": 43, "velocity": 0, "until": 556.9272759833585}, {"on": true, "note": 43, "velocity": 85, "until": 557.0296649833587}, {"on": false, "note": 43, "velocity": 0, "until": 557.0296649833587}, {"on": true, "note": 43, "velocity": 85, "until": 557.1325293333589}, {"on": false, "note": 43, "velocity": 0, "until": 557.1325293333589}, {"on": true, "note": 43, "velocity": 85, "until": 557.239671833359}, {"on": false, "note": 43, "velocity": 0, "until": 557.239671833359}, {"on": true, "note": 43, "velocity": 85, "until": 557.3468143333591}, {"on": false, "note": 43, "velocity": 0, "until": 557.3468143333591}, {"on": true, "note": 43, "velocity": 85, "until": 557.4539568333593}, {"on": false, "note": 43, "velocity": 0, "until": 557.4539568333593}, {"on": true, "note": 43, "velocity": 85, "until": 557.5606239833594}, {"on": false, "note": 43, "velocity": 0, "until": 557.5606239833594}, {"on": true, "note": 43, "velocity": 85, "until": 557.6630129833595}, {"on": false, "note": 43, "velocity": 0, "until": 557.6630129833595}, {"on": true, "note": 43, "velocity": 85, "until": 557.7654019833597}, {"on": false, "note": 43, "velocity": 0, "until": 557.7654019833597}, {"on": true, "note": 43, "velocity": 85, "until": 557.8677909833598}, {"on": false, "note": 43, "velocity": 0, "until": 557.8677909833598}, {"on": true, "note": 43, "velocity": 85, "until": 557.97065533336}, {"on": false, "note": 43, "velocity": 0, "until": 557.97065533336}, {"on": true, "note": 48, "velocity": 95, "until": 558.1849403333603}, {"on": false, "note": 48, "velocity": 0, "until": 558.8087813333606}, {"on": true, "note": 48, "velocity": 95, "until": 559.023066333361}, {"on": false, "note": 48, "velocity": 0, "until": 559.6469073333614}, {"on": true, "note": 43, "velocity": 95, "until": 559.8611923333618}, {"on": false, "note": 43, "velocity": 0, "until": 560.4850333333621}, {"on": true, "note": 43, "velocity": 95, "until": 560.7011040833623}, {"on": false, "note": 43, "velocity": 0, "until": 561.3987563333627}, {"on": true, "note": 43, "velocity": 99, "until": 561.5058988333632}, {"on": false, "note": 43, "velocity": 0, "until": 561.5058988333632}, {"on": true, "note": 43, "velocity": 96, "until": 561.6130413333633}, {"on": false, "note": 43, "velocity": 0, "until": 561.6130413333633}, {"on": true, "note": 43, "velocity": 92, "until": 561.7201838333634}, {"on": false, "note": 43, "velocity": 0, "until": 561.7201838333634}, {"on": true, "note": 43, "velocity": 89, "until": 561.8268509833636}, {"on": false, "note": 43, "velocity": 0, "until": 561.8268509833636}, {"on": true, "note": 43, "velocity": 85, "until": 561.9292399833637}, {"on": false, "note": 43, "velocity": 0, "until": 561.9292399833637}, {"on": true, "note": 43, "velocity": 85, "until": 562.0316289833638}, {"on": false, "note": 43, "velocity": 0, "until": 562.0316289833638}, {"on": true, "note": 43, "velocity": 85, "until": 562.134017983364}, {"on": false, "note": 43, "velocity": 0, "until": 562.134017983364}, {"on": true, "note": 43, "velocity": 85, "until": 562.2368823333641}, {"on": false, "note": 43, "velocity": 0, "until": 562.2368823333641}, {"on": true, "note": 43, "velocity": 85, "until": 562.3440248333642}, {"on": false, "note": 43, "velocity": 0, "until": 562.3440248333642}, {"on": true, "note": 43, "velocity": 85, "until": 562.4511673333643}, {"on": false, "note": 43, "velocity": 0, "until": 562.4511673333643}, {"on": true, "note": 43, "velocity": 85, "until": 562.5583098333644}, {"on": false, "note": 43, "velocity": 0, "until": 562.5583098333644}, {"on": true, "note": 43, "velocity": 85, "until": 562.6649769833646}, {"on": false, "note": 43, "velocity": 0, "until": 562.6649769833646}, {"on": true, "note": 43, "velocity": 85, "until": 562.7673659833647}, {"on": false, "note": 43, "velocity": 0, "until": 562.7673659833647}, {"on": true, "note": 43, "velocity": 85, "until": 562.8697549833648}, {"on": false, "note": 43, "velocity": 0, "until": 562.8697549833648}, {"on": true, "note": 43, "velocity": 85, "until": 562.972143983365}, {"on": false, "note": 43, "velocity": 0, "until": 562.972143983365}, {"on": true, "note": 43, "velocity": 85, "until": 563.0750083333652}, {"on": false, "note": 43, "velocity": 0, "until": 563.0750083333652}, {"on": true, "note": 43, "velocity": 85, "until": 563.1821508333653}, {"on": false, "note": 43, "velocity": 0, "until": 563.1821508333653}, {"on": true, "note": 43, "velocity": 85, "until": 563.2892933333654}, {"on": false, "note": 43, "velocity": 0, "until": 563.2892933333654}, {"on": true, "note": 43, "velocity": 85, "until": 563.3964358333656}, {"on": false, "note": 43, "velocity": 0, "until": 563.3964358333656}, {"on": true, "note": 43, "velocity": 85, "until": 563.5031029833657}, {"on": false, "note": 43, "velocity": 0, "until": 563.5031029833657}, {"on": true, "note": 43, "velocity": 85, "until": 563.6054919833658}, {"on": false, "note": 43, "velocity": 0, "until": 563.6054919833658}, {"on": true, "note": 43, "velocity": 85, "until": 563.707880983366}, {"on": false, "note": 43, "velocity": 0, "until": 563.707880983366}, {"on": true, "note": 43, "velocity": 85, "until": 563.8102699833661}, {"on": false, "note": 43, "velocity": 0, "until": 563.8102699833661}, {"on": true, "note": 43, "velocity": 85, "until": 563.9131343333663}, {"on": false, "note": 43, "velocity": 0, "until": 563.9131343333663}, {"on": true, "note": 43, "velocity": 85, "until": 564.0202768333664}, {"on": false, "note": 43, "velocity": 0, "until": 564.0202768333664}, {"on": true, "note": 43, "velocity": 85, "until": 564.1274193333666}, {"on": false, "note": 43, "velocity": 0, "until": 564.1274193333666}, {"on": true, "note": 43, "velocity": 85, "until": 564.2345618333667}, {"on": false, "note": 43, "velocity": 0, "until": 564.2345618333667}, {"on": true, "note": 43, "velocity": 85, "until": 564.3412289833668}, {"on": false, "note": 43, "velocity": 0, "until": 564.3412289833668}, {"on": true, "note": 43, "velocity": 85, "until": 564.443617983367}, {"on": false, "note": 43, "velocity": 0, "until": 564.443617983367}, {"on": true, "note": 43, "velocity": 85, "until": 564.5460069833671}, {"on": false, "note": 43, "velocity": 0, "until": 564.5460069833671}, {"on": true, "note": 43, "velocity": 85, "until": 564.6483959833672}, {"on": false, "note": 43, "velocity": 0, "until": 564.6483959833672}, {"on": true, "note": 43, "velocity": 85, "until": 564.7512603333674}, {"on": false, "note": 43, "velocity": 0, "until": 564.7512603333674}, {"on": true, "note": 48, "velocity": 95, "until": 564.9655453333677}, {"on": false, "note": 48, "velocity": 0, "until": 565.589386333368}, {"on": true, "note": 48, "velocity": 95, "until": 565.8036713333685}, {"on": false, "note": 48, "velocity": 0, "until": 566.4276676333685}, {"on": true, "note": 43, "velocity": 95, "until": 566.6450586333681}, {"on": false, "note": 43, "velocity": 0, "until": 567.2812365333677}, {"on": true, "note": 43, "velocity": 95, "until": 567.5379670833684}, {"on": false, "note": 43, "velocity": 0, "until": 580.4460713333782}, {"on": true, "note": 48, "velocity": 95, "until": 580.642499250045}, {"on": false, "note": 48, "velocity": 0, "until": 580.6603563333786}, {"on": true, "note": 43, "velocity": 95, "until": 580.8567842500455}, {"on": false, "note": 43, "velocity": 0, "until": 580.8741659833789}, {"on": true, "note": 48, "velocity": 95, "until": 581.0618791500457}, {"on": false, "note": 48, "velocity": 0, "until": 581.0789439833791}, {"on": true, "note": 43, "velocity": 95, "until": 581.2666571500458}, {"on": false, "note": 43, "velocity": 0, "until": 581.2841973333793}, {"on": true, "note": 48, "velocity": 95, "until": 581.4806252500463}, {"on": false, "note": 48, "velocity": 0, "until": 581.4984823333798}, {"on": true, "note": 43, "velocity": 95, "until": 581.6949102500467}, {"on": false, "note": 43, "velocity": 0, "until": 581.7122919833802}, {"on": true, "note": 48, "velocity": 95, "until": 581.9000051500469}, {"on": false, "note": 48, "velocity": 0, "until": 581.9170699833803}, {"on": true, "note": 43, "velocity": 95, "until": 582.1047831500471}, {"on": false, "note": 43, "velocity": 0, "until": 582.1219538833805}, {"on": true, "note": 48, "velocity": 95, "until": 582.3288498833805}, {"on": false, "note": 48, "velocity": 0, "until": 583.0360772333806}, {"on": true, "note": 48, "velocity": 95, "until": 583.2496002333808}, {"on": false, "note": 48, "velocity": 0, "until": 584.009651083381}, {"on": true, "note": 48, "velocity": 95, "until": 584.5783710833811}]}]}